<?xml version="1.0" encoding="UTF-8" standalone="no"?><svg xmlns="http://www.w3.org/2000/svg" xmlns:xlink="http://www.w3.org/1999/xlink" contentStyleType="text/css" height="1852px" preserveAspectRatio="none" style="width:892px;height:1852px;background:#FFFFFF;" version="1.1" viewBox="0 0 892 1852" width="892px" zoomAndPan="magnify"><defs/><g><text fill="#000000" font-family="sans-serif" font-size="14" font-weight="bold" lengthAdjust="spacing" textLength="75" x="409.75" y="27.9951">サイト追加</text><rect fill="#FFFFFF" height="29.1328" style="stroke:#181818;stroke-width:1.0;" width="10" x="813" y="283.2578"/><rect fill="#FFFFFF" height="14" style="stroke:#181818;stroke-width:1.0;" width="10" x="813" y="370.6563"/><rect fill="#FFFFFF" height="14" style="stroke:#181818;stroke-width:1.0;" width="10" x="813" y="509.1875"/><rect fill="#FFFFFF" height="14" style="stroke:#181818;stroke-width:1.0;" width="10" x="813" y="993.3125"/><rect fill="#FFFFFF" height="14" style="stroke:#181818;stroke-width:1.0;" width="10" x="813" y="1151.6484"/><rect fill="#FFFFFF" height="14" style="stroke:#181818;stroke-width:1.0;" width="10" x="813" y="1595.5078"/><rect fill="none" height="202.7969" style="stroke:#000000;stroke-width:1.5;" width="875.5" x="10" y="399.6563"/><rect fill="none" height="448.5313" style="stroke:#000000;stroke-width:1.5;" width="875.5" x="10" y="854.6484"/><rect fill="none" height="88.3984" style="stroke:#000000;stroke-width:1.5;" width="332" x="10" y="1624.5078"/><line style="stroke:#181818;stroke-width:0.5;stroke-dasharray:5.0,5.0;" x1="44" x2="44" y1="118.5938" y2="1772.0391"/><line style="stroke:#181818;stroke-width:0.5;stroke-dasharray:5.0,5.0;" x1="210.5" x2="210.5" y1="118.5938" y2="1772.0391"/><line style="stroke:#181818;stroke-width:0.5;stroke-dasharray:5.0,5.0;" x1="393.5" x2="393.5" y1="118.5938" y2="1772.0391"/><line style="stroke:#181818;stroke-width:0.5;stroke-dasharray:5.0,5.0;" x1="488.5" x2="488.5" y1="118.5938" y2="1772.0391"/><line style="stroke:#181818;stroke-width:0.5;stroke-dasharray:5.0,5.0;" x1="590.5" x2="590.5" y1="118.5938" y2="1772.0391"/><line style="stroke:#181818;stroke-width:0.5;stroke-dasharray:5.0,5.0;" x1="701.5" x2="701.5" y1="118.5938" y2="1772.0391"/><line style="stroke:#181818;stroke-width:0.5;stroke-dasharray:5.0,5.0;" x1="817.5" x2="817.5" y1="118.5938" y2="1772.0391"/><text fill="#000000" font-family="sans-serif" font-size="14" lengthAdjust="spacing" textLength="42" x="20" y="115.292">ユーザ</text><ellipse cx="44" cy="50.7969" fill="#E2E2F0" rx="8" ry="8" style="stroke:#181818;stroke-width:0.5;"/><path d="M44,58.7969 L44,85.7969 M31,66.7969 L57,66.7969 M44,85.7969 L31,100.7969 M44,85.7969 L57,100.7969 " fill="none" style="stroke:#181818;stroke-width:0.5;"/><text fill="#000000" font-family="sans-serif" font-size="14" lengthAdjust="spacing" textLength="42" x="20" y="1784.0342">ユーザ</text><ellipse cx="44" cy="1795.8359" fill="#E2E2F0" rx="8" ry="8" style="stroke:#181818;stroke-width:0.5;"/><path d="M44,1803.8359 L44,1830.8359 M31,1811.8359 L57,1811.8359 M44,1830.8359 L31,1845.8359 M44,1830.8359 L57,1845.8359 " fill="none" style="stroke:#181818;stroke-width:0.5;"/><rect fill="#E2E2F0" height="46.5938" rx="2.5" ry="2.5" style="stroke:#181818;stroke-width:0.5;" width="127" x="147.5" y="71"/><text fill="#000000" font-family="sans-serif" font-size="14" lengthAdjust="spacing" textLength="112" x="155" y="90.9951">クライアント端末</text><text fill="#000000" font-family="sans-serif" font-size="14" lengthAdjust="spacing" textLength="113" x="154.5" y="107.292">(PCまたはスマホ)</text><rect fill="#E2E2F0" height="46.5938" rx="2.5" ry="2.5" style="stroke:#181818;stroke-width:0.5;" width="127" x="147.5" y="1771.0391"/><text fill="#000000" font-family="sans-serif" font-size="14" lengthAdjust="spacing" textLength="112" x="155" y="1791.0342">クライアント端末</text><text fill="#000000" font-family="sans-serif" font-size="14" lengthAdjust="spacing" textLength="113" x="154.5" y="1807.3311">(PCまたはスマホ)</text><rect fill="#E2E2F0" height="30.2969" rx="2.5" ry="2.5" style="stroke:#181818;stroke-width:0.5;" width="89" x="349.5" y="87.2969"/><text fill="#000000" font-family="sans-serif" font-size="14" lengthAdjust="spacing" textLength="75" x="356.5" y="107.292">Webサーバ</text><rect fill="#E2E2F0" height="30.2969" rx="2.5" ry="2.5" style="stroke:#181818;stroke-width:0.5;" width="89" x="349.5" y="1771.0391"/><text fill="#000000" font-family="sans-serif" font-size="14" lengthAdjust="spacing" textLength="75" x="356.5" y="1791.0342">Webサーバ</text><rect fill="#E2E2F0" height="46.5938" rx="2.5" ry="2.5" style="stroke:#181818;stroke-width:0.5;" width="81" x="448.5" y="71"/><text fill="#000000" font-family="sans-serif" font-size="14" lengthAdjust="spacing" textLength="56" x="461" y="90.9951">認証基盤</text><text fill="#000000" font-family="sans-serif" font-size="14" lengthAdjust="spacing" textLength="67" x="455.5" y="107.292">(Cognito)</text><rect fill="#E2E2F0" height="46.5938" rx="2.5" ry="2.5" style="stroke:#181818;stroke-width:0.5;" width="81" x="448.5" y="1771.0391"/><text fill="#000000" font-family="sans-serif" font-size="14" lengthAdjust="spacing" textLength="56" x="461" y="1791.0342">認証基盤</text><text fill="#000000" font-family="sans-serif" font-size="14" lengthAdjust="spacing" textLength="67" x="455.5" y="1807.3311">(Cognito)</text><rect fill="#E2E2F0" height="46.5938" rx="2.5" ry="2.5" style="stroke:#181818;stroke-width:0.5;" width="103" x="539.5" y="71"/><text fill="#000000" font-family="sans-serif" font-size="14" lengthAdjust="spacing" textLength="31" x="575.5" y="90.9951">CDN</text><text fill="#000000" font-family="sans-serif" font-size="14" lengthAdjust="spacing" textLength="89" x="546.5" y="107.292">(CloudFront)</text><rect fill="#E2E2F0" height="46.5938" rx="2.5" ry="2.5" style="stroke:#181818;stroke-width:0.5;" width="103" x="539.5" y="1771.0391"/><text fill="#000000" font-family="sans-serif" font-size="14" lengthAdjust="spacing" textLength="31" x="575.5" y="1791.0342">CDN</text><text fill="#000000" font-family="sans-serif" font-size="14" lengthAdjust="spacing" textLength="89" x="546.5" y="1807.3311">(CloudFront)</text><rect fill="#E2E2F0" height="46.5938" rx="2.5" ry="2.5" style="stroke:#181818;stroke-width:0.5;" width="98" x="652.5" y="71"/><text fill="#000000" font-family="sans-serif" font-size="14" lengthAdjust="spacing" textLength="84" x="659.5" y="90.9951">SPA資材格納</text><text fill="#000000" font-family="sans-serif" font-size="14" lengthAdjust="spacing" textLength="28" x="687.5" y="107.292">(S3)</text><rect fill="#E2E2F0" height="46.5938" rx="2.5" ry="2.5" style="stroke:#181818;stroke-width:0.5;" width="98" x="652.5" y="1771.0391"/><text fill="#000000" font-family="sans-serif" font-size="14" lengthAdjust="spacing" textLength="84" x="659.5" y="1791.0342">SPA資材格納</text><text fill="#000000" font-family="sans-serif" font-size="14" lengthAdjust="spacing" textLength="28" x="687.5" y="1807.3311">(S3)</text><rect fill="#E2E2F0" height="46.5938" rx="2.5" ry="2.5" style="stroke:#181818;stroke-width:0.5;" width="115" x="760.5" y="71"/><text fill="#000000" font-family="sans-serif" font-size="14" lengthAdjust="spacing" textLength="99" x="768.5" y="90.9951">SonicHost API</text><text fill="#000000" font-family="sans-serif" font-size="14" lengthAdjust="spacing" textLength="101" x="767.5" y="107.292">(API-Gateway)</text><rect fill="#E2E2F0" height="46.5938" rx="2.5" ry="2.5" style="stroke:#181818;stroke-width:0.5;" width="115" x="760.5" y="1771.0391"/><text fill="#000000" font-family="sans-serif" font-size="14" lengthAdjust="spacing" textLength="99" x="768.5" y="1791.0342">SonicHost API</text><text fill="#000000" font-family="sans-serif" font-size="14" lengthAdjust="spacing" textLength="101" x="767.5" y="1807.3311">(API-Gateway)</text><rect fill="#FFFFFF" height="29.1328" style="stroke:#181818;stroke-width:1.0;" width="10" x="813" y="283.2578"/><rect fill="#FFFFFF" height="14" style="stroke:#181818;stroke-width:1.0;" width="10" x="813" y="370.6563"/><rect fill="#FFFFFF" height="14" style="stroke:#181818;stroke-width:1.0;" width="10" x="813" y="509.1875"/><rect fill="#FFFFFF" height="14" style="stroke:#181818;stroke-width:1.0;" width="10" x="813" y="993.3125"/><rect fill="#FFFFFF" height="14" style="stroke:#181818;stroke-width:1.0;" width="10" x="813" y="1151.6484"/><rect fill="#FFFFFF" height="14" style="stroke:#181818;stroke-width:1.0;" width="10" x="813" y="1595.5078"/><polygon fill="#181818" points="199,145.7266,209,149.7266,199,153.7266,203,149.7266" style="stroke:#181818;stroke-width:1.0;"/><line style="stroke:#181818;stroke-width:1.0;" x1="44" x2="205" y1="149.7266" y2="149.7266"/><text fill="#000000" font-family="sans-serif" font-size="13" lengthAdjust="spacing" textLength="89" x="51" y="144.6606">HOME画面表示</text><rect fill="#ADFF2F" height="23" style="stroke:#181818;stroke-width:0.5;" width="138" x="216" y="162.7266"/><text fill="#000000" font-family="sans-serif" font-size="13" lengthAdjust="spacing" textLength="130" x="220" y="178.7935">ログインフローを参照</text><polygon fill="#181818" points="199,207.9922,209,211.9922,199,215.9922,203,211.9922" style="stroke:#181818;stroke-width:1.0;"/><line style="stroke:#181818;stroke-width:1.0;" x1="44" x2="205" y1="211.9922" y2="211.9922"/><text fill="#000000" font-family="sans-serif" font-size="13" lengthAdjust="spacing" textLength="91" x="51" y="206.9263">サイト追加選択</text><line style="stroke:#181818;stroke-width:1.0;" x1="211" x2="253" y1="241.125" y2="241.125"/><line style="stroke:#181818;stroke-width:1.0;" x1="253" x2="253" y1="241.125" y2="254.125"/><line style="stroke:#181818;stroke-width:1.0;" x1="212" x2="253" y1="254.125" y2="254.125"/><polygon fill="#181818" points="222,250.125,212,254.125,222,258.125,218,254.125" style="stroke:#181818;stroke-width:1.0;"/><text fill="#000000" font-family="sans-serif" font-size="13" lengthAdjust="spacing" textLength="117" x="218" y="236.0591">プラン選択画面表示</text><polygon fill="#181818" points="801,279.2578,811,283.2578,801,287.2578,805,283.2578" style="stroke:#181818;stroke-width:1.0;"/><line style="stroke:#181818;stroke-width:1.0;" x1="211" x2="807" y1="283.2578" y2="283.2578"/><text fill="#000000" font-family="sans-serif" font-size="13" lengthAdjust="spacing" textLength="111" x="218" y="278.1919">プラン情報取得API</text><polygon fill="#181818" points="222,308.3906,212,312.3906,222,316.3906,218,312.3906" style="stroke:#181818;stroke-width:1.0;"/><line style="stroke:#181818;stroke-width:1.0;stroke-dasharray:2.0,2.0;" x1="216" x2="817" y1="312.3906" y2="312.3906"/><text fill="#000000" font-family="sans-serif" font-size="13" lengthAdjust="spacing" textLength="65" x="228" y="307.3247">プラン情報</text><polygon fill="#181818" points="199,337.5234,209,341.5234,199,345.5234,203,341.5234" style="stroke:#181818;stroke-width:1.0;"/><line style="stroke:#181818;stroke-width:1.0;" x1="44" x2="205" y1="341.5234" y2="341.5234"/><text fill="#000000" font-family="sans-serif" font-size="13" lengthAdjust="spacing" textLength="65" x="51" y="336.4575">プラン選択</text><polygon fill="#181818" points="801,366.6563,811,370.6563,801,374.6563,805,370.6563" style="stroke:#181818;stroke-width:1.0;"/><line style="stroke:#181818;stroke-width:1.0;" x1="211" x2="807" y1="370.6563" y2="370.6563"/><text fill="#000000" font-family="sans-serif" font-size="13" lengthAdjust="spacing" textLength="85" x="218" y="365.5903">プラン登録API</text><polygon fill="#181818" points="222,380.6563,212,384.6563,222,388.6563,218,384.6563" style="stroke:#181818;stroke-width:1.0;"/><line style="stroke:#181818;stroke-width:1.0;stroke-dasharray:2.0,2.0;" x1="216" x2="817" y1="384.6563" y2="384.6563"/><path d="M10,399.6563 L76,399.6563 L76,406.7891 L66,416.7891 L10,416.7891 L10,399.6563 " fill="#EEEEEE" style="stroke:#000000;stroke-width:1.5;"/><rect fill="none" height="202.7969" style="stroke:#000000;stroke-width:1.5;" width="875.5" x="10" y="399.6563"/><text fill="#000000" font-family="sans-serif" font-size="13" font-weight="bold" lengthAdjust="spacing" textLength="21" x="25" y="412.7231">alt</text><text fill="#000000" font-family="sans-serif" font-size="11" font-weight="bold" lengthAdjust="spacing" textLength="131" x="91" y="411.8667">[カード情報未入力の場合]</text><line style="stroke:#181818;stroke-width:1.0;" x1="211" x2="253" y1="437.9219" y2="437.9219"/><line style="stroke:#181818;stroke-width:1.0;" x1="253" x2="253" y1="437.9219" y2="450.9219"/><line style="stroke:#181818;stroke-width:1.0;" x1="212" x2="253" y1="450.9219" y2="450.9219"/><polygon fill="#181818" points="222,446.9219,212,450.9219,222,454.9219,218,450.9219" style="stroke:#181818;stroke-width:1.0;"/><text fill="#000000" font-family="sans-serif" font-size="13" lengthAdjust="spacing" textLength="167" x="218" y="432.856">カード登録画面表示：Stripe</text><polygon fill="#181818" points="199,476.0547,209,480.0547,199,484.0547,203,480.0547" style="stroke:#181818;stroke-width:1.0;"/><line style="stroke:#181818;stroke-width:1.0;" x1="44" x2="205" y1="480.0547" y2="480.0547"/><text fill="#000000" font-family="sans-serif" font-size="13" lengthAdjust="spacing" textLength="91" x="51" y="474.9888">カード情報入力</text><polygon fill="#181818" points="801,505.1875,811,509.1875,801,513.1875,805,509.1875" style="stroke:#181818;stroke-width:1.0;"/><line style="stroke:#181818;stroke-width:1.0;" x1="211" x2="807" y1="509.1875" y2="509.1875"/><text fill="#000000" font-family="sans-serif" font-size="13" lengthAdjust="spacing" textLength="56" x="218" y="504.1216">stripeAPI</text><polygon fill="#181818" points="222,519.1875,212,523.1875,222,527.1875,218,523.1875" style="stroke:#181818;stroke-width:1.0;"/><line style="stroke:#181818;stroke-width:1.0;stroke-dasharray:2.0,2.0;" x1="216" x2="817" y1="523.1875" y2="523.1875"/><line style="stroke:#181818;stroke-width:1.0;" x1="211" x2="253" y1="552.3203" y2="552.3203"/><line style="stroke:#181818;stroke-width:1.0;" x1="253" x2="253" y1="552.3203" y2="565.3203"/><line style="stroke:#181818;stroke-width:1.0;" x1="212" x2="253" y1="565.3203" y2="565.3203"/><polygon fill="#181818" points="222,561.3203,212,565.3203,222,569.3203,218,565.3203" style="stroke:#181818;stroke-width:1.0;"/><text fill="#000000" font-family="sans-serif" font-size="13" lengthAdjust="spacing" textLength="104" x="218" y="547.2544">登録完了画面表示</text><polygon fill="#181818" points="199,590.4531,209,594.4531,199,598.4531,203,594.4531" style="stroke:#181818;stroke-width:1.0;"/><line style="stroke:#181818;stroke-width:1.0;" x1="44" x2="205" y1="594.4531" y2="594.4531"/><text fill="#000000" font-family="sans-serif" font-size="13" lengthAdjust="spacing" textLength="143" x="51" y="589.3872">「サイト情報登録」押下</text><line style="stroke:#181818;stroke-width:1.0;" x1="211" x2="253" y1="630.5859" y2="630.5859"/><line style="stroke:#181818;stroke-width:1.0;" x1="253" x2="253" y1="630.5859" y2="643.5859"/><line style="stroke:#181818;stroke-width:1.0;" x1="212" x2="253" y1="643.5859" y2="643.5859"/><polygon fill="#181818" points="222,639.5859,212,643.5859,222,647.5859,218,643.5859" style="stroke:#181818;stroke-width:1.0;"/><text fill="#000000" font-family="sans-serif" font-size="13" lengthAdjust="spacing" textLength="130" x="218" y="625.52">サイト名入力画面表示</text><polygon fill="#181818" points="199,668.7188,209,672.7188,199,676.7188,203,672.7188" style="stroke:#181818;stroke-width:1.0;"/><line style="stroke:#181818;stroke-width:1.0;" x1="44" x2="205" y1="672.7188" y2="672.7188"/><text fill="#000000" font-family="sans-serif" font-size="13" lengthAdjust="spacing" textLength="78" x="51" y="667.6528">サイト名入力</text><line style="stroke:#181818;stroke-width:1.0;" x1="211" x2="253" y1="701.8516" y2="701.8516"/><line style="stroke:#181818;stroke-width:1.0;" x1="253" x2="253" y1="701.8516" y2="714.8516"/><line style="stroke:#181818;stroke-width:1.0;" x1="212" x2="253" y1="714.8516" y2="714.8516"/><polygon fill="#181818" points="222,710.8516,212,714.8516,222,718.8516,218,714.8516" style="stroke:#181818;stroke-width:1.0;"/><text fill="#000000" font-family="sans-serif" font-size="13" lengthAdjust="spacing" textLength="156" x="218" y="696.7856">ドメイン方式選択画面表示</text><path d="M216,727.8516 L216,812.8516 L458,812.8516 L458,737.8516 L448,727.8516 L216,727.8516 " fill="#FEFFDD" style="stroke:#181818;stroke-width:0.5;"/><path d="M448,727.8516 L448,737.8516 L458,737.8516 L448,727.8516 " fill="#FEFFDD" style="stroke:#181818;stroke-width:0.5;"/><text fill="#000000" font-family="sans-serif" font-size="13" lengthAdjust="spacing" textLength="169" x="222" y="744.9185">ドメイン方式は以下から選択</text><ellipse cx="227.5" cy="755.6172" fill="#000000" rx="2.5" ry="2.5" style="stroke:#000000;stroke-width:0.0;"/><text fill="#000000" font-family="sans-serif" font-size="13" lengthAdjust="spacing" textLength="143" x="234" y="760.0513">自分で取得したドメイン</text><ellipse cx="227.5" cy="770.75" fill="#000000" rx="2.5" ry="2.5" style="stroke:#000000;stroke-width:0.0;"/><text fill="#000000" font-family="sans-serif" font-size="13" lengthAdjust="spacing" textLength="184" x="234" y="775.1841">Sonic Host提供のサブドメイン</text><text fill="#000000" font-family="sans-serif" font-size="13" lengthAdjust="spacing" textLength="78" x="222" y="790.3169">金額かえる？</text><text fill="#000000" font-family="sans-serif" font-size="13" lengthAdjust="spacing" textLength="221" x="222" y="805.4497">なら、カード入力のタイミング考慮要</text><polygon fill="#181818" points="199,835.6484,209,839.6484,199,843.6484,203,839.6484" style="stroke:#181818;stroke-width:1.0;"/><line style="stroke:#181818;stroke-width:1.0;" x1="44" x2="205" y1="839.6484" y2="839.6484"/><text fill="#000000" font-family="sans-serif" font-size="13" lengthAdjust="spacing" textLength="104" x="51" y="834.5825">ドメイン方式選択</text><path d="M10,854.6484 L76,854.6484 L76,861.7813 L66,871.7813 L10,871.7813 L10,854.6484 " fill="#EEEEEE" style="stroke:#000000;stroke-width:1.5;"/><rect fill="none" height="448.5313" style="stroke:#000000;stroke-width:1.5;" width="875.5" x="10" y="854.6484"/><text fill="#000000" font-family="sans-serif" font-size="13" font-weight="bold" lengthAdjust="spacing" textLength="21" x="25" y="867.7153">alt</text><text fill="#000000" font-family="sans-serif" font-size="11" font-weight="bold" lengthAdjust="spacing" textLength="131" x="91" y="866.8589">[自前ドメイン方式の場合]</text><line style="stroke:#181818;stroke-width:1.0;" x1="211" x2="253" y1="892.9141" y2="892.9141"/><line style="stroke:#181818;stroke-width:1.0;" x1="253" x2="253" y1="892.9141" y2="905.9141"/><line style="stroke:#181818;stroke-width:1.0;" x1="212" x2="253" y1="905.9141" y2="905.9141"/><polygon fill="#181818" points="222,901.9141,212,905.9141,222,909.9141,218,905.9141" style="stroke:#181818;stroke-width:1.0;"/><text fill="#000000" font-family="sans-serif" font-size="13" lengthAdjust="spacing" textLength="130" x="218" y="887.8481">ドメイン入力画面表示</text><polygon fill="#181818" points="199,931.0469,209,935.0469,199,939.0469,203,935.0469" style="stroke:#181818;stroke-width:1.0;"/><line style="stroke:#181818;stroke-width:1.0;" x1="44" x2="205" y1="935.0469" y2="935.0469"/><text fill="#000000" font-family="sans-serif" font-size="13" lengthAdjust="spacing" textLength="91" x="51" y="929.981">ドメイン名入力</text><polygon fill="#181818" points="199,960.1797,209,964.1797,199,968.1797,203,964.1797" style="stroke:#181818;stroke-width:1.0;"/><line style="stroke:#181818;stroke-width:1.0;" x1="44" x2="205" y1="964.1797" y2="964.1797"/><text fill="#000000" font-family="sans-serif" font-size="13" lengthAdjust="spacing" textLength="78" x="51" y="959.1138">「確定」押下</text><polygon fill="#181818" points="801,989.3125,811,993.3125,801,997.3125,805,993.3125" style="stroke:#181818;stroke-width:1.0;"/><line style="stroke:#181818;stroke-width:1.0;" x1="211" x2="807" y1="993.3125" y2="993.3125"/><text fill="#000000" font-family="sans-serif" font-size="13" lengthAdjust="spacing" textLength="111" x="218" y="988.2466">ドメイン仮登録API</text><polygon fill="#181818" points="222,1003.3125,212,1007.3125,222,1011.3125,218,1007.3125" style="stroke:#181818;stroke-width:1.0;"/><line style="stroke:#181818;stroke-width:1.0;stroke-dasharray:2.0,2.0;" x1="216" x2="817" y1="1007.3125" y2="1007.3125"/><line style="stroke:#181818;stroke-width:1.0;" x1="211" x2="253" y1="1036.4453" y2="1036.4453"/><line style="stroke:#181818;stroke-width:1.0;" x1="253" x2="253" y1="1036.4453" y2="1049.4453"/><line style="stroke:#181818;stroke-width:1.0;" x1="212" x2="253" y1="1049.4453" y2="1049.4453"/><polygon fill="#181818" points="222,1045.4453,212,1049.4453,222,1053.4453,218,1049.4453" style="stroke:#181818;stroke-width:1.0;"/><text fill="#000000" font-family="sans-serif" font-size="13" lengthAdjust="spacing" textLength="130" x="218" y="1031.3794">ネームサーバ表示画面</text><polygon fill="#181818" points="199,1074.5781,209,1078.5781,199,1082.5781,203,1078.5781" style="stroke:#181818;stroke-width:1.0;"/><line style="stroke:#181818;stroke-width:1.0;" x1="44" x2="205" y1="1078.5781" y2="1078.5781"/><text fill="#000000" font-family="sans-serif" font-size="13" lengthAdjust="spacing" textLength="26" x="51" y="1073.5122">確認</text><polygon fill="#181818" points="199,1103.7109,209,1107.7109,199,1111.7109,203,1107.7109" style="stroke:#181818;stroke-width:1.0;"/><line style="stroke:#181818;stroke-width:1.0;" x1="44" x2="205" y1="1107.7109" y2="1107.7109"/><text fill="#000000" font-family="sans-serif" font-size="13" lengthAdjust="spacing" textLength="78" x="51" y="1102.645">「次へ」押下</text><line style="stroke:#000000;stroke-width:1.0;stroke-dasharray:2.0,2.0;" x1="10" x2="885.5" y1="1116.7109" y2="1116.7109"/><text fill="#000000" font-family="sans-serif" font-size="11" font-weight="bold" lengthAdjust="spacing" textLength="203" x="15" y="1126.9214">[Sonic Hostサブドメイン方式の場合]</text><polygon fill="#181818" points="801,1147.6484,811,1151.6484,801,1155.6484,805,1151.6484" style="stroke:#181818;stroke-width:1.0;"/><line style="stroke:#181818;stroke-width:1.0;" x1="211" x2="807" y1="1151.6484" y2="1151.6484"/><text fill="#000000" font-family="sans-serif" font-size="13" lengthAdjust="spacing" textLength="124" x="218" y="1146.5825">ドメイン一覧取得API</text><polygon fill="#181818" points="222,1161.6484,212,1165.6484,222,1169.6484,218,1165.6484" style="stroke:#181818;stroke-width:1.0;"/><line style="stroke:#181818;stroke-width:1.0;stroke-dasharray:2.0,2.0;" x1="216" x2="817" y1="1165.6484" y2="1165.6484"/><line style="stroke:#181818;stroke-width:1.0;" x1="211" x2="253" y1="1194.7813" y2="1194.7813"/><line style="stroke:#181818;stroke-width:1.0;" x1="253" x2="253" y1="1194.7813" y2="1207.7813"/><line style="stroke:#181818;stroke-width:1.0;" x1="212" x2="253" y1="1207.7813" y2="1207.7813"/><polygon fill="#181818" points="222,1203.7813,212,1207.7813,222,1211.7813,218,1207.7813" style="stroke:#181818;stroke-width:1.0;"/><text fill="#000000" font-family="sans-serif" font-size="13" lengthAdjust="spacing" textLength="169" x="218" y="1189.7153">ドメイン選択・入力画面表示</text><polygon fill="#181818" points="199,1232.9141,209,1236.9141,199,1240.9141,203,1236.9141" style="stroke:#181818;stroke-width:1.0;"/><line style="stroke:#181818;stroke-width:1.0;" x1="44" x2="205" y1="1236.9141" y2="1236.9141"/><text fill="#000000" font-family="sans-serif" font-size="13" lengthAdjust="spacing" textLength="78" x="51" y="1231.8481">ドメイン選択</text><polygon fill="#181818" points="199,1262.0469,209,1266.0469,199,1270.0469,203,1266.0469" style="stroke:#181818;stroke-width:1.0;"/><line style="stroke:#181818;stroke-width:1.0;" x1="44" x2="205" y1="1266.0469" y2="1266.0469"/><text fill="#000000" font-family="sans-serif" font-size="13" lengthAdjust="spacing" textLength="104" x="51" y="1260.981">サブドメイン入力</text><polygon fill="#181818" points="199,1291.1797,209,1295.1797,199,1299.1797,203,1295.1797" style="stroke:#181818;stroke-width:1.0;"/><line style="stroke:#181818;stroke-width:1.0;" x1="44" x2="205" y1="1295.1797" y2="1295.1797"/><text fill="#000000" font-family="sans-serif" font-size="13" lengthAdjust="spacing" textLength="78" x="51" y="1290.1138">「次へ」押下</text><line style="stroke:#181818;stroke-width:1.0;" x1="211" x2="253" y1="1331.3125" y2="1331.3125"/><line style="stroke:#181818;stroke-width:1.0;" x1="253" x2="253" y1="1331.3125" y2="1344.3125"/><line style="stroke:#181818;stroke-width:1.0;" x1="212" x2="253" y1="1344.3125" y2="1344.3125"/><polygon fill="#181818" points="222,1340.3125,212,1344.3125,222,1348.3125,218,1344.3125" style="stroke:#181818;stroke-width:1.0;"/><text fill="#000000" font-family="sans-serif" font-size="13" lengthAdjust="spacing" textLength="143" x="218" y="1326.2466">サブドメインズ入力画面</text><polygon fill="#181818" points="199,1369.4453,209,1373.4453,199,1377.4453,203,1373.4453" style="stroke:#181818;stroke-width:1.0;"/><line style="stroke:#181818;stroke-width:1.0;" x1="44" x2="205" y1="1373.4453" y2="1373.4453"/><text fill="#000000" font-family="sans-serif" font-size="13" lengthAdjust="spacing" textLength="117" x="51" y="1368.3794">サイトドメイン入力</text><polygon fill="#181818" points="199,1398.5781,209,1402.5781,199,1406.5781,203,1402.5781" style="stroke:#181818;stroke-width:1.0;"/><line style="stroke:#181818;stroke-width:1.0;" x1="44" x2="205" y1="1402.5781" y2="1402.5781"/><text fill="#000000" font-family="sans-serif" font-size="13" lengthAdjust="spacing" textLength="117" x="51" y="1397.5122">メールドメイン入力</text><polygon fill="#181818" points="199,1427.7109,209,1431.7109,199,1435.7109,203,1431.7109" style="stroke:#181818;stroke-width:1.0;"/><line style="stroke:#181818;stroke-width:1.0;" x1="44" x2="205" y1="1431.7109" y2="1431.7109"/><text fill="#000000" font-family="sans-serif" font-size="13" lengthAdjust="spacing" textLength="78" x="51" y="1426.645">「確認」押下</text><line style="stroke:#181818;stroke-width:1.0;" x1="211" x2="253" y1="1460.8438" y2="1460.8438"/><line style="stroke:#181818;stroke-width:1.0;" x1="253" x2="253" y1="1460.8438" y2="1473.8438"/><line style="stroke:#181818;stroke-width:1.0;" x1="212" x2="253" y1="1473.8438" y2="1473.8438"/><polygon fill="#181818" points="222,1469.8438,212,1473.8438,222,1477.8438,218,1473.8438" style="stroke:#181818;stroke-width:1.0;"/><text fill="#000000" font-family="sans-serif" font-size="13" lengthAdjust="spacing" textLength="130" x="218" y="1455.7778">入力内容確認画面表示</text><rect fill="#87CEEB" height="53" style="stroke:#181818;stroke-width:0.5;" width="294" x="216" y="1486.8438"/><text fill="#000000" font-family="sans-serif" font-size="13" lengthAdjust="spacing" textLength="286" x="220" y="1502.9106">変更したい項目があれば「変更」ボタンを押下。</text><text fill="#000000" font-family="sans-serif" font-size="13" lengthAdjust="spacing" textLength="260" x="220" y="1518.0435">外套の変更画面に遷移し、「確認」ボタンを</text><text fill="#000000" font-family="sans-serif" font-size="13" lengthAdjust="spacing" textLength="156" x="220" y="1533.1763">押下すると今の画面に戻る</text><polygon fill="#181818" points="199,1562.375,209,1566.375,199,1570.375,203,1566.375" style="stroke:#181818;stroke-width:1.0;"/><line style="stroke:#181818;stroke-width:1.0;" x1="44" x2="205" y1="1566.375" y2="1566.375"/><text fill="#000000" font-family="sans-serif" font-size="13" lengthAdjust="spacing" textLength="78" x="51" y="1561.3091">「確定」押下</text><polygon fill="#181818" points="801,1591.5078,811,1595.5078,801,1599.5078,805,1595.5078" style="stroke:#181818;stroke-width:1.0;"/><line style="stroke:#181818;stroke-width:1.0;" x1="211" x2="807" y1="1595.5078" y2="1595.5078"/><text fill="#000000" font-family="sans-serif" font-size="13" lengthAdjust="spacing" textLength="111" x="218" y="1590.4419">サイト情報更新API</text><polygon fill="#181818" points="222,1605.5078,212,1609.5078,222,1613.5078,218,1609.5078" style="stroke:#181818;stroke-width:1.0;"/><line style="stroke:#181818;stroke-width:1.0;stroke-dasharray:2.0,2.0;" x1="216" x2="817" y1="1609.5078" y2="1609.5078"/><path d="M10,1624.5078 L76,1624.5078 L76,1631.6406 L66,1641.6406 L10,1641.6406 L10,1624.5078 " fill="#EEEEEE" style="stroke:#000000;stroke-width:1.5;"/><rect fill="none" height="88.3984" style="stroke:#000000;stroke-width:1.5;" width="332" x="10" y="1624.5078"/><text fill="#000000" font-family="sans-serif" font-size="13" font-weight="bold" lengthAdjust="spacing" textLength="21" x="25" y="1637.5747">alt</text><text fill="#000000" font-family="sans-serif" font-size="11" font-weight="bold" lengthAdjust="spacing" textLength="120" x="91" y="1636.7183">[サイト初回登録の場合]</text><line style="stroke:#181818;stroke-width:1.0;" x1="211" x2="253" y1="1662.7734" y2="1662.7734"/><line style="stroke:#181818;stroke-width:1.0;" x1="253" x2="253" y1="1662.7734" y2="1675.7734"/><line style="stroke:#181818;stroke-width:1.0;" x1="212" x2="253" y1="1675.7734" y2="1675.7734"/><polygon fill="#181818" points="222,1671.7734,212,1675.7734,222,1679.7734,218,1675.7734" style="stroke:#181818;stroke-width:1.0;"/><text fill="#000000" font-family="sans-serif" font-size="13" lengthAdjust="spacing" textLength="112" x="218" y="1657.7075">Welcome画面表示</text><polygon fill="#181818" points="199,1700.9063,209,1704.9063,199,1708.9063,203,1704.9063" style="stroke:#181818;stroke-width:1.0;"/><line style="stroke:#181818;stroke-width:1.0;" x1="44" x2="205" y1="1704.9063" y2="1704.9063"/><text fill="#000000" font-family="sans-serif" font-size="13" lengthAdjust="spacing" textLength="129" x="51" y="1699.8403">「Homeへ進む」押下</text><line style="stroke:#181818;stroke-width:1.0;" x1="211" x2="253" y1="1741.0391" y2="1741.0391"/><line style="stroke:#181818;stroke-width:1.0;" x1="253" x2="253" y1="1741.0391" y2="1754.0391"/><line style="stroke:#181818;stroke-width:1.0;" x1="212" x2="253" y1="1754.0391" y2="1754.0391"/><polygon fill="#181818" points="222,1750.0391,212,1754.0391,222,1758.0391,218,1754.0391" style="stroke:#181818;stroke-width:1.0;"/><text fill="#000000" font-family="sans-serif" font-size="13" lengthAdjust="spacing" textLength="89" x="218" y="1735.9731">HOME画面表示</text><!--MD5=[3693f96e6cee60cd25f697fa4c52e312]
@startuml
title サイト追加

' アクター定義
actor "ユーザ" as user
participant "クライアント端末\n(PCまたはスマホ)" as device
participant "Webサーバ" as site
participant "認証基盤\n(Cognito)" as cognito
participant "CDN\n(CloudFront)" as cdn
participant "SPA資材格納\n(S3)" as spa
participant "SonicHost API\n(API-Gateway)" as api


user -> device : HOME画面表示
rnote right of device #GreenYellow
    ログインフローを参照
end note
user -> device : サイト追加選択

device -> device : プラン選択画面表示
device -> api ++ : プラン情報取得API
device <- - api - - : プラン情報
user -> device : プラン選択
device -> api ++ : プラン登録API
device <- - api - - 
alt カード情報未入力の場合
    device -> device : カード登録画面表示：Stripe
    user -> device : カード情報入力
    device -> api ++ : stripeAPI
    device <- - api - - 
    device -> device : 登録完了画面表示
    user -> device : 「サイト情報登録」押下
end 
device -> device : サイト名入力画面表示
user -> device : サイト名入力
device -> device : ドメイン方式選択画面表示
note right of device 
    ドメイン方式は以下から選択
    * 自分で取得したドメイン
    * Sonic Host提供のサブドメイン
    金額かえる？
    なら、カード入力のタイミング考慮要
end note
user -> device : ドメイン方式選択
alt 自前ドメイン方式の場合
    device -> device :ドメイン入力画面表示
    user -> device : ドメイン名入力
    user -> device : 「確定」押下
    device -> api ++ : ドメイン仮登録API
    device <- - api - - 
    device -> device : ネームサーバ表示画面
    user -> device : 確認
    user -> device : 「次へ」押下
else Sonic Hostサブドメイン方式の場合
    device -> api ++ : ドメイン一覧取得API
    device <- - api - - 
    device -> device : ドメイン選択・入力画面表示
    user -> device : ドメイン選択
    user -> device : サブドメイン入力
    user -> device : 「次へ」押下
end 
device -> device : サブドメインズ入力画面
user -> device : サイトドメイン入力
user -> device : メールドメイン入力
user -> device : 「確認」押下
device -> device : 入力内容確認画面表示
rnote right of device #SkyBlue
    変更したい項目があれば「変更」ボタンを押下。
    外套の変更画面に遷移し、「確認」ボタンを
    押下すると今の画面に戻る
end note
user -> device : 「確定」押下
device -> api ++ : サイト情報更新API
device <- - api - - 
alt サイト初回登録の場合
    device -> device : Welcome画面表示
    user -> device : 「Homeへ進む」押下
end 
device -> device : HOME画面表示
@enduml

@startuml
title サイト追加

actor "ユーザ" as user
participant "クライアント端末\n(PCまたはスマホ)" as device
participant "Webサーバ" as site
participant "認証基盤\n(Cognito)" as cognito
participant "CDN\n(CloudFront)" as cdn
participant "SPA資材格納\n(S3)" as spa
participant "SonicHost API\n(API-Gateway)" as api


user -> device : HOME画面表示
rnote right of device #GreenYellow
    ログインフローを参照
end note
user -> device : サイト追加選択

device -> device : プラン選択画面表示
device -> api ++ : プラン情報取得API
device <- - api - - : プラン情報
user -> device : プラン選択
device -> api ++ : プラン登録API
device <- - api - - 
alt カード情報未入力の場合
    device -> device : カード登録画面表示：Stripe
    user -> device : カード情報入力
    device -> api ++ : stripeAPI
    device <- - api - - 
    device -> device : 登録完了画面表示
    user -> device : 「サイト情報登録」押下
end 
device -> device : サイト名入力画面表示
user -> device : サイト名入力
device -> device : ドメイン方式選択画面表示
note right of device 
    ドメイン方式は以下から選択
    * 自分で取得したドメイン
    * Sonic Host提供のサブドメイン
    金額かえる？
    なら、カード入力のタイミング考慮要
end note
user -> device : ドメイン方式選択
alt 自前ドメイン方式の場合
    device -> device :ドメイン入力画面表示
    user -> device : ドメイン名入力
    user -> device : 「確定」押下
    device -> api ++ : ドメイン仮登録API
    device <- - api - - 
    device -> device : ネームサーバ表示画面
    user -> device : 確認
    user -> device : 「次へ」押下
else Sonic Hostサブドメイン方式の場合
    device -> api ++ : ドメイン一覧取得API
    device <- - api - - 
    device -> device : ドメイン選択・入力画面表示
    user -> device : ドメイン選択
    user -> device : サブドメイン入力
    user -> device : 「次へ」押下
end 
device -> device : サブドメインズ入力画面
user -> device : サイトドメイン入力
user -> device : メールドメイン入力
user -> device : 「確認」押下
device -> device : 入力内容確認画面表示
rnote right of device #SkyBlue
    変更したい項目があれば「変更」ボタンを押下。
    外套の変更画面に遷移し、「確認」ボタンを
    押下すると今の画面に戻る
end note
user -> device : 「確定」押下
device -> api ++ : サイト情報更新API
device <- - api - - 
alt サイト初回登録の場合
    device -> device : Welcome画面表示
    user -> device : 「Homeへ進む」押下
end 
device -> device : HOME画面表示
@enduml

PlantUML version 1.2022.14beta1(Unknown compile time)
(GPL source distribution)
Java Runtime: Java(TM) SE Runtime Environment
JVM: Java HotSpot(TM) 64-Bit Server VM
Default Encoding: UTF-8
Language: en
Country: US
--></g></svg>