<?xml version="1.0" encoding="UTF-8" standalone="no"?><svg xmlns="http://www.w3.org/2000/svg" xmlns:xlink="http://www.w3.org/1999/xlink" contentStyleType="text/css" height="551px" preserveAspectRatio="none" style="width:481px;height:551px;background:#FFFFFF;" version="1.1" viewBox="0 0 481 551" width="481px" zoomAndPan="magnify"><defs/><g><text fill="#000000" font-family="sans-serif" font-size="14" font-weight="bold" lengthAdjust="spacing" textLength="60" x="209.75" y="27.9951">認証認可</text><rect fill="#FFFFFF" height="312.3281" style="stroke:#181818;stroke-width:1.0;" width="10" x="209" y="149.7266"/><rect fill="#FFFFFF" height="29.1328" style="stroke:#181818;stroke-width:1.0;" width="10" x="430" y="236.125"/><rect fill="#FFFFFF" height="72.2656" style="stroke:#181818;stroke-width:1.0;" width="10" x="430" y="338.6563"/><rect fill="#FFFFFF" height="14" style="stroke:#181818;stroke-width:1.0;" width="10" x="435" y="367.7891"/><line style="stroke:#181818;stroke-width:0.5;stroke-dasharray:5.0,5.0;" x1="29" x2="29" y1="118.5938" y2="471.0547"/><line style="stroke:#181818;stroke-width:0.5;stroke-dasharray:5.0,5.0;" x1="213.5" x2="213.5" y1="118.5938" y2="471.0547"/><line style="stroke:#181818;stroke-width:0.5;stroke-dasharray:5.0,5.0;" x1="434.5" x2="434.5" y1="118.5938" y2="471.0547"/><text fill="#000000" font-family="sans-serif" font-size="14" lengthAdjust="spacing" textLength="42" x="5" y="115.292">ユーザ</text><ellipse cx="29" cy="50.7969" fill="#E2E2F0" rx="8" ry="8" style="stroke:#181818;stroke-width:0.5;"/><path d="M29,58.7969 L29,85.7969 M16,66.7969 L42,66.7969 M29,85.7969 L16,100.7969 M29,85.7969 L42,100.7969 " fill="none" style="stroke:#181818;stroke-width:0.5;"/><text fill="#000000" font-family="sans-serif" font-size="14" lengthAdjust="spacing" textLength="42" x="5" y="483.0498">ユーザ</text><ellipse cx="29" cy="494.8516" fill="#E2E2F0" rx="8" ry="8" style="stroke:#181818;stroke-width:0.5;"/><path d="M29,502.8516 L29,529.8516 M16,510.8516 L42,510.8516 M29,529.8516 L16,544.8516 M29,529.8516 L42,544.8516 " fill="none" style="stroke:#181818;stroke-width:0.5;"/><rect fill="#E2E2F0" height="46.5938" rx="2.5" ry="2.5" style="stroke:#181818;stroke-width:0.5;" width="127" x="150.5" y="71"/><text fill="#000000" font-family="sans-serif" font-size="14" lengthAdjust="spacing" textLength="112" x="158" y="90.9951">クライアント端末</text><text fill="#000000" font-family="sans-serif" font-size="14" lengthAdjust="spacing" textLength="113" x="157.5" y="107.292">(PCまたはスマホ)</text><rect fill="#E2E2F0" height="46.5938" rx="2.5" ry="2.5" style="stroke:#181818;stroke-width:0.5;" width="127" x="150.5" y="470.0547"/><text fill="#000000" font-family="sans-serif" font-size="14" lengthAdjust="spacing" textLength="112" x="158" y="490.0498">クライアント端末</text><text fill="#000000" font-family="sans-serif" font-size="14" lengthAdjust="spacing" textLength="113" x="157.5" y="506.3467">(PCまたはスマホ)</text><rect fill="#E2E2F0" height="46.5938" rx="2.5" ry="2.5" style="stroke:#181818;stroke-width:0.5;" width="81" x="394.5" y="71"/><text fill="#000000" font-family="sans-serif" font-size="14" lengthAdjust="spacing" textLength="56" x="407" y="90.9951">認証基盤</text><text fill="#000000" font-family="sans-serif" font-size="14" lengthAdjust="spacing" textLength="67" x="401.5" y="107.292">(Cognito)</text><rect fill="#E2E2F0" height="46.5938" rx="2.5" ry="2.5" style="stroke:#181818;stroke-width:0.5;" width="81" x="394.5" y="470.0547"/><text fill="#000000" font-family="sans-serif" font-size="14" lengthAdjust="spacing" textLength="56" x="407" y="490.0498">認証基盤</text><text fill="#000000" font-family="sans-serif" font-size="14" lengthAdjust="spacing" textLength="67" x="401.5" y="506.3467">(Cognito)</text><rect fill="#FFFFFF" height="312.3281" style="stroke:#181818;stroke-width:1.0;" width="10" x="209" y="149.7266"/><rect fill="#FFFFFF" height="29.1328" style="stroke:#181818;stroke-width:1.0;" width="10" x="430" y="236.125"/><rect fill="#FFFFFF" height="72.2656" style="stroke:#181818;stroke-width:1.0;" width="10" x="430" y="338.6563"/><rect fill="#FFFFFF" height="14" style="stroke:#181818;stroke-width:1.0;" width="10" x="435" y="367.7891"/><polygon fill="#181818" points="197,145.7266,207,149.7266,197,153.7266,201,149.7266" style="stroke:#181818;stroke-width:1.0;"/><line style="stroke:#181818;stroke-width:1.0;" x1="29" x2="203" y1="149.7266" y2="149.7266"/><text fill="#000000" font-family="sans-serif" font-size="13" lengthAdjust="spacing" textLength="104" x="36" y="144.6606">ログイン画面起動</text><line style="stroke:#181818;stroke-width:1.0;" x1="219" x2="261" y1="178.8594" y2="178.8594"/><line style="stroke:#181818;stroke-width:1.0;" x1="261" x2="261" y1="178.8594" y2="191.8594"/><line style="stroke:#181818;stroke-width:1.0;" x1="220" x2="261" y1="191.8594" y2="191.8594"/><polygon fill="#181818" points="230,187.8594,220,191.8594,230,195.8594,226,191.8594" style="stroke:#181818;stroke-width:1.0;"/><text fill="#000000" font-family="sans-serif" font-size="13" lengthAdjust="spacing" textLength="104" x="226" y="173.7935">ログイン画面表示</text><polygon fill="#181818" points="418,232.125,428,236.125,418,240.125,422,236.125" style="stroke:#181818;stroke-width:1.0;"/><line style="stroke:#181818;stroke-width:1.0;" x1="219" x2="424" y1="236.125" y2="236.125"/><text fill="#000000" font-family="sans-serif" font-size="13" lengthAdjust="spacing" textLength="104" x="226" y="215.9263">ログイン確立要求</text><text fill="#000000" font-family="sans-serif" font-size="13" lengthAdjust="spacing" textLength="87" x="226" y="231.0591">(Initiate Auth)</text><polygon fill="#181818" points="230,261.2578,220,265.2578,230,269.2578,226,265.2578" style="stroke:#181818;stroke-width:1.0;"/><line style="stroke:#181818;stroke-width:1.0;stroke-dasharray:2.0,2.0;" x1="224" x2="434" y1="265.2578" y2="265.2578"/><text fill="#000000" font-family="sans-serif" font-size="13" lengthAdjust="spacing" textLength="61" x="236" y="260.1919">session等</text><polygon fill="#181818" points="197,290.3906,207,294.3906,197,298.3906,201,294.3906" style="stroke:#181818;stroke-width:1.0;"/><line style="stroke:#181818;stroke-width:1.0;" x1="29" x2="203" y1="294.3906" y2="294.3906"/><text fill="#000000" font-family="sans-serif" font-size="13" lengthAdjust="spacing" textLength="156" x="36" y="289.3247">ユーザ名・パスワード入力</text><polygon fill="#181818" points="418,334.6563,428,338.6563,418,342.6563,422,338.6563" style="stroke:#181818;stroke-width:1.0;"/><line style="stroke:#181818;stroke-width:1.0;" x1="219" x2="424" y1="338.6563" y2="338.6563"/><text fill="#000000" font-family="sans-serif" font-size="13" lengthAdjust="spacing" textLength="140" x="226" y="318.4575">認証(トークン発行依頼)</text><text fill="#000000" font-family="sans-serif" font-size="13" lengthAdjust="spacing" textLength="192" x="226" y="333.5903">(Responed to Auth Challenge)</text><polygon fill="#181818" points="423,363.7891,433,367.7891,423,371.7891,427,367.7891" style="stroke:#181818;stroke-width:1.0;"/><line style="stroke:#181818;stroke-width:1.0;" x1="219" x2="429" y1="367.7891" y2="367.7891"/><text fill="#000000" font-family="sans-serif" font-size="13" lengthAdjust="spacing" textLength="182" x="226" y="362.7231">トークンチェック用公開鍵要求</text><polygon fill="#181818" points="230,377.7891,220,381.7891,230,385.7891,226,381.7891" style="stroke:#181818;stroke-width:1.0;"/><line style="stroke:#181818;stroke-width:1.0;stroke-dasharray:2.0,2.0;" x1="224" x2="429" y1="381.7891" y2="381.7891"/><polygon fill="#181818" points="230,406.9219,220,410.9219,230,414.9219,226,410.9219" style="stroke:#181818;stroke-width:1.0;"/><line style="stroke:#181818;stroke-width:1.0;stroke-dasharray:2.0,2.0;" x1="224" x2="434" y1="410.9219" y2="410.9219"/><text fill="#000000" font-family="sans-serif" font-size="13" lengthAdjust="spacing" textLength="52" x="236" y="405.856">トークン</text><line style="stroke:#181818;stroke-width:1.0;" x1="219" x2="261" y1="440.0547" y2="440.0547"/><line style="stroke:#181818;stroke-width:1.0;" x1="261" x2="261" y1="440.0547" y2="453.0547"/><line style="stroke:#181818;stroke-width:1.0;" x1="220" x2="261" y1="453.0547" y2="453.0547"/><polygon fill="#181818" points="230,449.0547,220,453.0547,230,457.0547,226,453.0547" style="stroke:#181818;stroke-width:1.0;"/><text fill="#000000" font-family="sans-serif" font-size="13" lengthAdjust="spacing" textLength="104" x="226" y="434.9888">トークンチェック</text><!--SRC=[TP5HIy9G68RlzoiEtkG8_u1445vr5rrtC-P11xA9cztl78JCf08BoimKCyriXLWqnNxCrt7Rl-ZChRIODsFdxFsUyvntXcBaC78Vgsvlof_ir184OGC1QGEnW7m2dRBdQsVM5oJPq0ee1hJBzu2ynP2aewAE2q9UAXYAhEGbrU3V-HZj0-du23e2UkGChFdDu42DxwN0d87P19EJFu3U0gsB2qmQ7oeo_WiAd5ZJTkeTFfpICgfYQ45U3XQ-gJj-PvKBmHT1YUsGX3OtKH817G9vyLNeoAbDl4Ox38UXPJmos-ev7Nib6nuQmMxRpg3YTitvA-6ckpobI0P6EqKZA_u0jXA9Nm9_JI8TwxgYgSwm_5_UfuSbixCgq0dGyqLXbhz9ownqpuxhwyo2tkAy-0N2yWMlRBTryZLhU7TJaHlkOpslgJYD-8mlYL9PAPV3QWQBw- -xn04rWJm0fNpfr7gizEHTLhpgE6WW-i9hQrW5H_-Ow8E_0G00]--></g></svg>