<?xml version="1.0" encoding="UTF-8" standalone="no"?><svg xmlns="http://www.w3.org/2000/svg" xmlns:xlink="http://www.w3.org/1999/xlink" contentStyleType="text/css" height="622px" preserveAspectRatio="none" style="width:516px;height:622px;background:#FFFFFF;" version="1.1" viewBox="0 0 516 622" width="516px" zoomAndPan="magnify"><defs/><g><text fill="#000000" font-family="sans-serif" font-size="14" font-weight="bold" lengthAdjust="spacing" textLength="135" x="192.75" y="27.9951">リフレッシュフロー</text><rect fill="#FFFFFF" height="382.5938" style="stroke:#181818;stroke-width:1.0;" width="10" x="121.5" y="149.7266"/><rect fill="#FFFFFF" height="29.1328" style="stroke:#181818;stroke-width:1.0;" width="10" x="280.5" y="336.5234"/><rect fill="#FFFFFF" height="86.3984" style="stroke:#181818;stroke-width:1.0;" width="10" x="388.5" y="220.9922"/><rect fill="#FFFFFF" height="86.3984" style="stroke:#181818;stroke-width:1.0;" width="10" x="388.5" y="436.9219"/><line style="stroke:#181818;stroke-width:0.5;stroke-dasharray:5.0,5.0;" x1="29" x2="29" y1="118.5938" y2="541.3203"/><line style="stroke:#181818;stroke-width:0.5;stroke-dasharray:5.0,5.0;" x1="126" x2="126" y1="118.5938" y2="541.3203"/><line style="stroke:#181818;stroke-width:0.5;stroke-dasharray:5.0,5.0;" x1="285" x2="285" y1="118.5938" y2="541.3203"/><line style="stroke:#181818;stroke-width:0.5;stroke-dasharray:5.0,5.0;" x1="393" x2="393" y1="118.5938" y2="541.3203"/><text fill="#000000" font-family="sans-serif" font-size="14" lengthAdjust="spacing" textLength="42" x="5" y="115.292">ユーザ</text><ellipse cx="29" cy="50.7969" fill="#E2E2F0" rx="8" ry="8" style="stroke:#181818;stroke-width:0.5;"/><path d="M29,58.7969 L29,85.7969 M16,66.7969 L42,66.7969 M29,85.7969 L16,100.7969 M29,85.7969 L42,100.7969 " fill="none" style="stroke:#181818;stroke-width:0.5;"/><text fill="#000000" font-family="sans-serif" font-size="14" lengthAdjust="spacing" textLength="42" x="5" y="553.3154">ユーザ</text><ellipse cx="29" cy="565.1172" fill="#E2E2F0" rx="8" ry="8" style="stroke:#181818;stroke-width:0.5;"/><path d="M29,573.1172 L29,600.1172 M16,581.1172 L42,581.1172 M29,600.1172 L16,615.1172 M29,600.1172 L42,615.1172 " fill="none" style="stroke:#181818;stroke-width:0.5;"/><rect fill="#E2E2F0" height="46.5938" rx="2.5" ry="2.5" style="stroke:#181818;stroke-width:0.5;" width="127" x="63" y="71"/><text fill="#000000" font-family="sans-serif" font-size="14" lengthAdjust="spacing" textLength="112" x="70.5" y="90.9951">クライアント端末</text><text fill="#000000" font-family="sans-serif" font-size="14" lengthAdjust="spacing" textLength="113" x="70" y="107.292">(PCまたはスマホ)</text><rect fill="#E2E2F0" height="46.5938" rx="2.5" ry="2.5" style="stroke:#181818;stroke-width:0.5;" width="127" x="63" y="540.3203"/><text fill="#000000" font-family="sans-serif" font-size="14" lengthAdjust="spacing" textLength="112" x="70.5" y="560.3154">クライアント端末</text><text fill="#000000" font-family="sans-serif" font-size="14" lengthAdjust="spacing" textLength="113" x="70" y="576.6123">(PCまたはスマホ)</text><rect fill="#E2E2F0" height="46.5938" rx="2.5" ry="2.5" style="stroke:#181818;stroke-width:0.5;" width="81" x="245" y="71"/><text fill="#000000" font-family="sans-serif" font-size="14" lengthAdjust="spacing" textLength="56" x="257.5" y="90.9951">認証基盤</text><text fill="#000000" font-family="sans-serif" font-size="14" lengthAdjust="spacing" textLength="67" x="252" y="107.292">(Cognito)</text><rect fill="#E2E2F0" height="46.5938" rx="2.5" ry="2.5" style="stroke:#181818;stroke-width:0.5;" width="81" x="245" y="540.3203"/><text fill="#000000" font-family="sans-serif" font-size="14" lengthAdjust="spacing" textLength="56" x="257.5" y="560.3154">認証基盤</text><text fill="#000000" font-family="sans-serif" font-size="14" lengthAdjust="spacing" textLength="67" x="252" y="576.6123">(Cognito)</text><rect fill="#E2E2F0" height="46.5938" rx="2.5" ry="2.5" style="stroke:#181818;stroke-width:0.5;" width="115" x="336" y="71"/><text fill="#000000" font-family="sans-serif" font-size="14" lengthAdjust="spacing" textLength="99" x="344" y="90.9951">SonicHost API</text><text fill="#000000" font-family="sans-serif" font-size="14" lengthAdjust="spacing" textLength="101" x="343" y="107.292">(API-Gateway)</text><rect fill="#E2E2F0" height="46.5938" rx="2.5" ry="2.5" style="stroke:#181818;stroke-width:0.5;" width="115" x="336" y="540.3203"/><text fill="#000000" font-family="sans-serif" font-size="14" lengthAdjust="spacing" textLength="99" x="344" y="560.3154">SonicHost API</text><text fill="#000000" font-family="sans-serif" font-size="14" lengthAdjust="spacing" textLength="101" x="343" y="576.6123">(API-Gateway)</text><rect fill="#FFFFFF" height="382.5938" style="stroke:#181818;stroke-width:1.0;" width="10" x="121.5" y="149.7266"/><rect fill="#FFFFFF" height="29.1328" style="stroke:#181818;stroke-width:1.0;" width="10" x="280.5" y="336.5234"/><rect fill="#FFFFFF" height="86.3984" style="stroke:#181818;stroke-width:1.0;" width="10" x="388.5" y="220.9922"/><rect fill="#FFFFFF" height="86.3984" style="stroke:#181818;stroke-width:1.0;" width="10" x="388.5" y="436.9219"/><polygon fill="#181818" points="109.5,145.7266,119.5,149.7266,109.5,153.7266,113.5,149.7266" style="stroke:#181818;stroke-width:1.0;"/><line style="stroke:#181818;stroke-width:1.0;" x1="29" x2="115.5" y1="149.7266" y2="149.7266"/><text fill="#000000" font-family="sans-serif" font-size="13" lengthAdjust="spacing" textLength="52" x="36" y="144.6606">画面起動</text><line style="stroke:#181818;stroke-width:1.0;" x1="131.5" x2="173.5" y1="178.8594" y2="178.8594"/><line style="stroke:#181818;stroke-width:1.0;" x1="173.5" x2="173.5" y1="178.8594" y2="191.8594"/><line style="stroke:#181818;stroke-width:1.0;" x1="132.5" x2="173.5" y1="191.8594" y2="191.8594"/><polygon fill="#181818" points="142.5,187.8594,132.5,191.8594,142.5,195.8594,138.5,191.8594" style="stroke:#181818;stroke-width:1.0;"/><text fill="#000000" font-family="sans-serif" font-size="13" lengthAdjust="spacing" textLength="117" x="138.5" y="173.7935">何かしらの画面表示</text><polygon fill="#181818" points="376.5,216.9922,386.5,220.9922,376.5,224.9922,380.5,220.9922" style="stroke:#181818;stroke-width:1.0;"/><line style="stroke:#181818;stroke-width:1.0;" x1="131.5" x2="382.5" y1="220.9922" y2="220.9922"/><text fill="#000000" font-family="sans-serif" font-size="13" lengthAdjust="spacing" textLength="85" x="138.5" y="215.9263">何かしらのAPI</text><line style="stroke:#181818;stroke-width:1.0;" x1="398.5" x2="440.5" y1="265.2578" y2="265.2578"/><line style="stroke:#181818;stroke-width:1.0;" x1="440.5" x2="440.5" y1="265.2578" y2="278.2578"/><line style="stroke:#181818;stroke-width:1.0;" x1="399.5" x2="440.5" y1="278.2578" y2="278.2578"/><polygon fill="#181818" points="409.5,274.2578,399.5,278.2578,409.5,282.2578,405.5,278.2578" style="stroke:#181818;stroke-width:1.0;"/><text fill="#000000" font-family="sans-serif" font-size="13" lengthAdjust="spacing" textLength="104" x="405.5" y="245.0591">トークンチェック</text><text fill="#000000" font-family="sans-serif" font-size="13" lengthAdjust="spacing" textLength="104" x="405.5" y="260.1919">有効期限切れ判定</text><polygon fill="#181818" points="142.5,303.3906,132.5,307.3906,142.5,311.3906,138.5,307.3906" style="stroke:#181818;stroke-width:1.0;"/><line style="stroke:#181818;stroke-width:1.0;stroke-dasharray:2.0,2.0;" x1="136.5" x2="392.5" y1="307.3906" y2="307.3906"/><text fill="#000000" font-family="sans-serif" font-size="13" lengthAdjust="spacing" textLength="169" x="148.5" y="302.3247">トークン有効期限切れエラー</text><polygon fill="#181818" points="268.5,332.5234,278.5,336.5234,268.5,340.5234,272.5,336.5234" style="stroke:#181818;stroke-width:1.0;"/><line style="stroke:#181818;stroke-width:1.0;" x1="131.5" x2="274.5" y1="336.5234" y2="336.5234"/><text fill="#000000" font-family="sans-serif" font-size="13" lengthAdjust="spacing" textLength="130" x="138.5" y="331.4575">トークンリフレッシュ</text><polygon fill="#181818" points="142.5,361.6563,132.5,365.6563,142.5,369.6563,138.5,365.6563" style="stroke:#181818;stroke-width:1.0;"/><line style="stroke:#181818;stroke-width:1.0;stroke-dasharray:2.0,2.0;" x1="136.5" x2="284.5" y1="365.6563" y2="365.6563"/><text fill="#000000" font-family="sans-serif" font-size="13" lengthAdjust="spacing" textLength="78" x="148.5" y="360.5903">トークン情報</text><line style="stroke:#181818;stroke-width:1.0;" x1="131.5" x2="173.5" y1="394.7891" y2="394.7891"/><line style="stroke:#181818;stroke-width:1.0;" x1="173.5" x2="173.5" y1="394.7891" y2="407.7891"/><line style="stroke:#181818;stroke-width:1.0;" x1="132.5" x2="173.5" y1="407.7891" y2="407.7891"/><polygon fill="#181818" points="142.5,403.7891,132.5,407.7891,142.5,411.7891,138.5,407.7891" style="stroke:#181818;stroke-width:1.0;"/><text fill="#000000" font-family="sans-serif" font-size="13" lengthAdjust="spacing" textLength="104" x="138.5" y="389.7231">トークンチェック</text><polygon fill="#181818" points="376.5,432.9219,386.5,436.9219,376.5,440.9219,380.5,436.9219" style="stroke:#181818;stroke-width:1.0;"/><line style="stroke:#181818;stroke-width:1.0;" x1="131.5" x2="382.5" y1="436.9219" y2="436.9219"/><text fill="#000000" font-family="sans-serif" font-size="13" lengthAdjust="spacing" textLength="189" x="138.5" y="431.856">失敗したAPIを自動的に再度打鍵</text><line style="stroke:#181818;stroke-width:1.0;" x1="398.5" x2="440.5" y1="481.1875" y2="481.1875"/><line style="stroke:#181818;stroke-width:1.0;" x1="440.5" x2="440.5" y1="481.1875" y2="494.1875"/><line style="stroke:#181818;stroke-width:1.0;" x1="399.5" x2="440.5" y1="494.1875" y2="494.1875"/><polygon fill="#181818" points="409.5,490.1875,399.5,494.1875,409.5,498.1875,405.5,494.1875" style="stroke:#181818;stroke-width:1.0;"/><text fill="#000000" font-family="sans-serif" font-size="13" lengthAdjust="spacing" textLength="104" x="405.5" y="460.9888">トークンチェック</text><text fill="#000000" font-family="sans-serif" font-size="13" lengthAdjust="spacing" textLength="52" x="405.5" y="476.1216">成功判定</text><polygon fill="#181818" points="142.5,519.3203,132.5,523.3203,142.5,527.3203,138.5,523.3203" style="stroke:#181818;stroke-width:1.0;"/><line style="stroke:#181818;stroke-width:1.0;stroke-dasharray:2.0,2.0;" x1="136.5" x2="392.5" y1="523.3203" y2="523.3203"/><text fill="#000000" font-family="sans-serif" font-size="13" lengthAdjust="spacing" textLength="72" x="148.5" y="518.2544">API処理結果</text><!--SRC=[ZLBBIiD05DtdAmOtAj8VA2985-fESDjDY442afGsAYvdHcsg5efQn5gDbbXhgnQHMgolZxbEqlw5Dm_HsYfkCipCUTmv9wPcBgi4U1ru4VWrS0wi3VmYsDu0VvOaQPG0gm1h0dl30t5Rybwl95anZJGP0Lx5Cs0F8qJEa9MCcfPISjhK52qbwoRU8urV0NDy2NuFtF8QJRVSIEfZymcWhq1jeAZy2FmK-F5u8BEehcgAsY_KhUUxjMTXTxnZ1ya9OqdNJ2F4A-6cdx1Ww9eoQsHCCZq_XmpyncPaKrsJrqEMdDByjtLRRR5JbFpHIMmgyYOJ4oHEl8Edtaab0aGNNv0uUNyf0jq1UWWi1_GsWf_NFAVp3Ou-eTmFE0ua-NSH98ujM46MpI0e2kmogAEPrDroJcm_kcMxTrGGLXROhh0SBEBJPJ8M2pHmwPSP90Ah-OLWiLyJHlc5K_PFyVE_-ExuIHjqvPlYx6vOOhyzSLXSmhbpYuT-NDJ6h83jTRDrRC8hRG1jYAsyw5JTt7ult_ftZ5P1RDj_H8Ss8blr2bjUg-2UbZy0]--></g></svg>