<?xml version="1.0" encoding="us-ascii" standalone="no"?><svg xmlns="http://www.w3.org/2000/svg" xmlns:xlink="http://www.w3.org/1999/xlink" contentStyleType="text/css" height="569px" preserveAspectRatio="none" style="width:383px;height:569px;background:#FFFFFF;" version="1.1" viewBox="0 0 383 569" width="383px" zoomAndPan="magnify"><defs/><g><text fill="#000000" font-family="sans-serif" font-size="14" font-weight="bold" lengthAdjust="spacing" textLength="135" x="123.25" y="27.9951">&#21033;&#29992;&#35215;&#32004;&#34920;&#31034;&#12501;&#12525;&#12540;</text><rect fill="#FFFFFF" height="330.4609" style="stroke:#181818;stroke-width:1.0;" width="10" x="180" y="149.7266"/><rect fill="#FFFFFF" height="29.1328" style="stroke:#181818;stroke-width:1.0;" width="10" x="321" y="399.9219"/><line style="stroke:#181818;stroke-width:0.5;stroke-dasharray:5.0,5.0;" x1="29" x2="29" y1="118.5938" y2="489.1875"/><line style="stroke:#181818;stroke-width:0.5;stroke-dasharray:5.0,5.0;" x1="184.5" x2="184.5" y1="118.5938" y2="489.1875"/><line style="stroke:#181818;stroke-width:0.5;stroke-dasharray:5.0,5.0;" x1="325.5" x2="325.5" y1="118.5938" y2="489.1875"/><text fill="#000000" font-family="sans-serif" font-size="14" lengthAdjust="spacing" textLength="42" x="5" y="115.292">&#12518;&#12540;&#12470;</text><ellipse cx="29" cy="50.7969" fill="#E2E2F0" rx="8" ry="8" style="stroke:#181818;stroke-width:0.5;"/><path d="M29,58.7969 L29,85.7969 M16,66.7969 L42,66.7969 M29,85.7969 L16,100.7969 M29,85.7969 L42,100.7969 " fill="none" style="stroke:#181818;stroke-width:0.5;"/><text fill="#000000" font-family="sans-serif" font-size="14" lengthAdjust="spacing" textLength="42" x="5" y="501.1826">&#12518;&#12540;&#12470;</text><ellipse cx="29" cy="512.9844" fill="#E2E2F0" rx="8" ry="8" style="stroke:#181818;stroke-width:0.5;"/><path d="M29,520.9844 L29,547.9844 M16,528.9844 L42,528.9844 M29,547.9844 L16,562.9844 M29,547.9844 L42,562.9844 " fill="none" style="stroke:#181818;stroke-width:0.5;"/><rect fill="#E2E2F0" height="46.5938" rx="2.5" ry="2.5" style="stroke:#181818;stroke-width:0.5;" width="127" x="121.5" y="71"/><text fill="#000000" font-family="sans-serif" font-size="14" lengthAdjust="spacing" textLength="112" x="129" y="90.9951">&#12463;&#12521;&#12452;&#12450;&#12531;&#12488;&#31471;&#26411;</text><text fill="#000000" font-family="sans-serif" font-size="14" lengthAdjust="spacing" textLength="113" x="128.5" y="107.292">(PC&#12414;&#12383;&#12399;&#12473;&#12510;&#12507;)</text><rect fill="#E2E2F0" height="46.5938" rx="2.5" ry="2.5" style="stroke:#181818;stroke-width:0.5;" width="127" x="121.5" y="488.1875"/><text fill="#000000" font-family="sans-serif" font-size="14" lengthAdjust="spacing" textLength="112" x="129" y="508.1826">&#12463;&#12521;&#12452;&#12450;&#12531;&#12488;&#31471;&#26411;</text><text fill="#000000" font-family="sans-serif" font-size="14" lengthAdjust="spacing" textLength="113" x="128.5" y="524.4795">(PC&#12414;&#12383;&#12399;&#12473;&#12510;&#12507;)</text><rect fill="#E2E2F0" height="46.5938" rx="2.5" ry="2.5" style="stroke:#181818;stroke-width:0.5;" width="103" x="274.5" y="71"/><text fill="#000000" font-family="sans-serif" font-size="14" lengthAdjust="spacing" textLength="31" x="310.5" y="90.9951">CDN</text><text fill="#000000" font-family="sans-serif" font-size="14" lengthAdjust="spacing" textLength="89" x="281.5" y="107.292">(CloudFront)</text><rect fill="#E2E2F0" height="46.5938" rx="2.5" ry="2.5" style="stroke:#181818;stroke-width:0.5;" width="103" x="274.5" y="488.1875"/><text fill="#000000" font-family="sans-serif" font-size="14" lengthAdjust="spacing" textLength="31" x="310.5" y="508.1826">CDN</text><text fill="#000000" font-family="sans-serif" font-size="14" lengthAdjust="spacing" textLength="89" x="281.5" y="524.4795">(CloudFront)</text><rect fill="#FFFFFF" height="330.4609" style="stroke:#181818;stroke-width:1.0;" width="10" x="180" y="149.7266"/><rect fill="#FFFFFF" height="29.1328" style="stroke:#181818;stroke-width:1.0;" width="10" x="321" y="399.9219"/><polygon fill="#181818" points="168,145.7266,178,149.7266,168,153.7266,172,149.7266" style="stroke:#181818;stroke-width:1.0;"/><line style="stroke:#181818;stroke-width:1.0;" x1="29" x2="174" y1="149.7266" y2="149.7266"/><text fill="#000000" font-family="sans-serif" font-size="13" lengthAdjust="spacing" textLength="117" x="36" y="144.6606">&#12467;&#12531;&#12486;&#12531;&#12484;&#30011;&#38754;&#34920;&#31034;</text><rect fill="#ADFF2F" height="23" style="stroke:#181818;stroke-width:0.5;" width="138" x="195" y="162.7266"/><text fill="#000000" font-family="sans-serif" font-size="13" lengthAdjust="spacing" textLength="130" x="199" y="178.7935">&#12525;&#12464;&#12452;&#12531;&#12501;&#12525;&#12540;&#12434;&#21442;&#29031;</text><polygon fill="#181818" points="168,223.125,178,227.125,168,231.125,172,227.125" style="stroke:#181818;stroke-width:1.0;"/><line style="stroke:#181818;stroke-width:1.0;" x1="29" x2="174" y1="227.125" y2="227.125"/><text fill="#000000" font-family="sans-serif" font-size="13" lengthAdjust="spacing" textLength="117" x="36" y="206.9263">&#35373;&#23450;&#12539;&#12381;&#12398;&#20182;&#12434;&#36984;&#25246;</text><text fill="#000000" font-family="sans-serif" font-size="13" lengthAdjust="spacing" textLength="127" x="36" y="222.0591">(&#12469;&#12452;&#12489;&#12513;&#12491;&#12517;&#12540;&#12424;&#12426;)</text><line style="stroke:#181818;stroke-width:1.0;" x1="190" x2="232" y1="256.2578" y2="256.2578"/><line style="stroke:#181818;stroke-width:1.0;" x1="232" x2="232" y1="256.2578" y2="269.2578"/><line style="stroke:#181818;stroke-width:1.0;" x1="191" x2="232" y1="269.2578" y2="269.2578"/><polygon fill="#181818" points="201,265.2578,191,269.2578,201,273.2578,197,269.2578" style="stroke:#181818;stroke-width:1.0;"/><text fill="#000000" font-family="sans-serif" font-size="13" lengthAdjust="spacing" textLength="65" x="197" y="251.1919">&#30011;&#38754;&#12434;&#34920;&#31034;</text><polygon fill="#181818" points="168,294.3906,178,298.3906,168,302.3906,172,298.3906" style="stroke:#181818;stroke-width:1.0;"/><line style="stroke:#181818;stroke-width:1.0;" x1="29" x2="174" y1="298.3906" y2="298.3906"/><text fill="#000000" font-family="sans-serif" font-size="13" lengthAdjust="spacing" textLength="91" x="36" y="293.3247">&#35215;&#32004;&#12408;&#36983;&#31227;&#36984;&#25246;</text><line style="stroke:#181818;stroke-width:1.0;" x1="190" x2="232" y1="327.5234" y2="327.5234"/><line style="stroke:#181818;stroke-width:1.0;" x1="232" x2="232" y1="327.5234" y2="340.5234"/><line style="stroke:#181818;stroke-width:1.0;" x1="191" x2="232" y1="340.5234" y2="340.5234"/><polygon fill="#181818" points="201,336.5234,191,340.5234,201,344.5234,197,340.5234" style="stroke:#181818;stroke-width:1.0;"/><text fill="#000000" font-family="sans-serif" font-size="13" lengthAdjust="spacing" textLength="117" x="197" y="322.4575">&#21033;&#29992;&#35215;&#32004;&#30011;&#38754;&#12434;&#34920;&#31034;</text><polygon fill="#181818" points="309,395.9219,319,399.9219,309,403.9219,313,399.9219" style="stroke:#181818;stroke-width:1.0;"/><line style="stroke:#181818;stroke-width:1.0;" x1="190" x2="315" y1="399.9219" y2="399.9219"/><text fill="#000000" font-family="sans-serif" font-size="13" lengthAdjust="spacing" textLength="98" x="197" y="364.5903">&#21033;&#29992;&#35215;&#32004;&#21462;&#24471;API</text><text fill="#000000" font-family="sans-serif" font-size="13" lengthAdjust="spacing" textLength="65" x="197" y="379.7231">/term GET</text><text fill="#000000" font-family="sans-serif" font-size="13" lengthAdjust="spacing" textLength="78" x="197" y="394.856">&#20844;&#38283;&#12489;&#12513;&#12452;&#12531;</text><polygon fill="#181818" points="201,425.0547,191,429.0547,201,433.0547,197,429.0547" style="stroke:#181818;stroke-width:1.0;"/><line style="stroke:#181818;stroke-width:1.0;stroke-dasharray:2.0,2.0;" x1="195" x2="325" y1="429.0547" y2="429.0547"/><text fill="#000000" font-family="sans-serif" font-size="13" lengthAdjust="spacing" textLength="52" x="207" y="423.9888">&#21033;&#29992;&#35215;&#32004;</text><line style="stroke:#181818;stroke-width:1.0;" x1="190" x2="232" y1="458.1875" y2="458.1875"/><line style="stroke:#181818;stroke-width:1.0;" x1="232" x2="232" y1="458.1875" y2="471.1875"/><line style="stroke:#181818;stroke-width:1.0;" x1="191" x2="232" y1="471.1875" y2="471.1875"/><polygon fill="#181818" points="201,467.1875,191,471.1875,201,475.1875,197,471.1875" style="stroke:#181818;stroke-width:1.0;"/><text fill="#000000" font-family="sans-serif" font-size="13" lengthAdjust="spacing" textLength="91" x="197" y="453.1216">&#21033;&#29992;&#35215;&#32004;&#12434;&#34920;&#31034;</text><!--SRC=[XP5DIm916CVlyoc6EfI8T9S8mbxe4Xww15v4frgmtTZ6EkzCXUb123EeD1Jp1Kk3tYp3FipJjkwtQ7PsBRMWFUpEpZp_t___F4CLcY3OJ3MiNBrVpLeF1_rItQgy0Zy5VWly3Q4f3AmCh0tiNVoRhNEhrq3H6DLqF06yAlQ0FKtWw2vExX8TxKHrgiIKdQXAnRcGyGQmYeFWzy1JLhFzUTcCgDFX41WzCAx04EGNu4NW5pw9YPCz9KP6GQ65LQ499RHaV4dNLEfMnk8gGeuh3invCkpt1qNWU-bs9Dy7Lgvh5yfkOqXNDKgmhcnkKQnj35IJopeXwZf99BHzXCNZTC_kdEGEmXi6i1Cpowp36Y9g73kWSVSWxjTlnOo0Ty4eWD7wwEQ5oZOwd-cYw03OesGU0oy1pm2_bjWKiBGFUOnXcXjT4Bpql-tafO7HiOrdgzPrZVuY3T_nEFMdN4nKJd2usipcpTxPV7W5HzGPIlHjlBou9jRcuOsTptYzo44DGBE1W2I9poZgls3VaRu0]--></g></svg>