<?xml version="1.0" encoding="UTF-8" standalone="no"?><svg xmlns="http://www.w3.org/2000/svg" xmlns:xlink="http://www.w3.org/1999/xlink" contentStyleType="text/css" height="497px" preserveAspectRatio="none" style="width:383px;height:497px;background:#FFFFFF;" version="1.1" viewBox="0 0 383 497" width="383px" zoomAndPan="magnify"><defs/><g><text fill="#000000" font-family="sans-serif" font-size="14" font-weight="bold" lengthAdjust="spacing" textLength="135" x="123.25" y="27.9951">利用規約表示フロー</text><rect fill="#FFFFFF" height="258.0625" style="stroke:#181818;stroke-width:1.0;" width="10" x="180" y="149.7266"/><rect fill="#FFFFFF" height="29.1328" style="stroke:#181818;stroke-width:1.0;" width="10" x="321" y="369.6563"/><line style="stroke:#181818;stroke-width:0.5;stroke-dasharray:5.0,5.0;" x1="29" x2="29" y1="118.5938" y2="416.7891"/><line style="stroke:#181818;stroke-width:0.5;stroke-dasharray:5.0,5.0;" x1="184.5" x2="184.5" y1="118.5938" y2="416.7891"/><line style="stroke:#181818;stroke-width:0.5;stroke-dasharray:5.0,5.0;" x1="325.5" x2="325.5" y1="118.5938" y2="416.7891"/><text fill="#000000" font-family="sans-serif" font-size="14" lengthAdjust="spacing" textLength="42" x="5" y="115.292">ユーザ</text><ellipse cx="29" cy="50.7969" fill="#E2E2F0" rx="8" ry="8" style="stroke:#181818;stroke-width:0.5;"/><path d="M29,58.7969 L29,85.7969 M16,66.7969 L42,66.7969 M29,85.7969 L16,100.7969 M29,85.7969 L42,100.7969 " fill="none" style="stroke:#181818;stroke-width:0.5;"/><text fill="#000000" font-family="sans-serif" font-size="14" lengthAdjust="spacing" textLength="42" x="5" y="428.7842">ユーザ</text><ellipse cx="29" cy="440.5859" fill="#E2E2F0" rx="8" ry="8" style="stroke:#181818;stroke-width:0.5;"/><path d="M29,448.5859 L29,475.5859 M16,456.5859 L42,456.5859 M29,475.5859 L16,490.5859 M29,475.5859 L42,490.5859 " fill="none" style="stroke:#181818;stroke-width:0.5;"/><rect fill="#E2E2F0" height="46.5938" rx="2.5" ry="2.5" style="stroke:#181818;stroke-width:0.5;" width="127" x="121.5" y="71"/><text fill="#000000" font-family="sans-serif" font-size="14" lengthAdjust="spacing" textLength="112" x="129" y="90.9951">クライアント端末</text><text fill="#000000" font-family="sans-serif" font-size="14" lengthAdjust="spacing" textLength="113" x="128.5" y="107.292">(PCまたはスマホ)</text><rect fill="#E2E2F0" height="46.5938" rx="2.5" ry="2.5" style="stroke:#181818;stroke-width:0.5;" width="127" x="121.5" y="415.7891"/><text fill="#000000" font-family="sans-serif" font-size="14" lengthAdjust="spacing" textLength="112" x="129" y="435.7842">クライアント端末</text><text fill="#000000" font-family="sans-serif" font-size="14" lengthAdjust="spacing" textLength="113" x="128.5" y="452.0811">(PCまたはスマホ)</text><rect fill="#E2E2F0" height="46.5938" rx="2.5" ry="2.5" style="stroke:#181818;stroke-width:0.5;" width="103" x="274.5" y="71"/><text fill="#000000" font-family="sans-serif" font-size="14" lengthAdjust="spacing" textLength="31" x="310.5" y="90.9951">CDN</text><text fill="#000000" font-family="sans-serif" font-size="14" lengthAdjust="spacing" textLength="89" x="281.5" y="107.292">(CloudFront)</text><rect fill="#E2E2F0" height="46.5938" rx="2.5" ry="2.5" style="stroke:#181818;stroke-width:0.5;" width="103" x="274.5" y="415.7891"/><text fill="#000000" font-family="sans-serif" font-size="14" lengthAdjust="spacing" textLength="31" x="310.5" y="435.7842">CDN</text><text fill="#000000" font-family="sans-serif" font-size="14" lengthAdjust="spacing" textLength="89" x="281.5" y="452.0811">(CloudFront)</text><rect fill="#FFFFFF" height="258.0625" style="stroke:#181818;stroke-width:1.0;" width="10" x="180" y="149.7266"/><rect fill="#FFFFFF" height="29.1328" style="stroke:#181818;stroke-width:1.0;" width="10" x="321" y="369.6563"/><polygon fill="#181818" points="168,145.7266,178,149.7266,168,153.7266,172,149.7266" style="stroke:#181818;stroke-width:1.0;"/><line style="stroke:#181818;stroke-width:1.0;" x1="29" x2="174" y1="149.7266" y2="149.7266"/><text fill="#000000" font-family="sans-serif" font-size="13" lengthAdjust="spacing" textLength="117" x="36" y="144.6606">コンテンツ画面表示</text><rect fill="#ADFF2F" height="23" style="stroke:#181818;stroke-width:0.5;" width="138" x="195" y="162.7266"/><text fill="#000000" font-family="sans-serif" font-size="13" lengthAdjust="spacing" textLength="130" x="199" y="178.7935">ログインフローを参照</text><polygon fill="#181818" points="168,223.125,178,227.125,168,231.125,172,227.125" style="stroke:#181818;stroke-width:1.0;"/><line style="stroke:#181818;stroke-width:1.0;" x1="29" x2="174" y1="227.125" y2="227.125"/><text fill="#000000" font-family="sans-serif" font-size="13" lengthAdjust="spacing" textLength="117" x="36" y="206.9263">設定・その他を選択</text><text fill="#000000" font-family="sans-serif" font-size="13" lengthAdjust="spacing" textLength="127" x="36" y="222.0591">(サイドメニューより)</text><line style="stroke:#181818;stroke-width:1.0;" x1="190" x2="232" y1="256.2578" y2="256.2578"/><line style="stroke:#181818;stroke-width:1.0;" x1="232" x2="232" y1="256.2578" y2="269.2578"/><line style="stroke:#181818;stroke-width:1.0;" x1="191" x2="232" y1="269.2578" y2="269.2578"/><polygon fill="#181818" points="201,265.2578,191,269.2578,201,273.2578,197,269.2578" style="stroke:#181818;stroke-width:1.0;"/><text fill="#000000" font-family="sans-serif" font-size="13" lengthAdjust="spacing" textLength="65" x="197" y="251.1919">画面を表示</text><polygon fill="#181818" points="168,294.3906,178,298.3906,168,302.3906,172,298.3906" style="stroke:#181818;stroke-width:1.0;"/><line style="stroke:#181818;stroke-width:1.0;" x1="29" x2="174" y1="298.3906" y2="298.3906"/><text fill="#000000" font-family="sans-serif" font-size="13" lengthAdjust="spacing" textLength="91" x="36" y="293.3247">規約へ遷移選択</text><line style="stroke:#181818;stroke-width:1.0;" x1="190" x2="232" y1="327.5234" y2="327.5234"/><line style="stroke:#181818;stroke-width:1.0;" x1="232" x2="232" y1="327.5234" y2="340.5234"/><line style="stroke:#181818;stroke-width:1.0;" x1="191" x2="232" y1="340.5234" y2="340.5234"/><polygon fill="#181818" points="201,336.5234,191,340.5234,201,344.5234,197,340.5234" style="stroke:#181818;stroke-width:1.0;"/><text fill="#000000" font-family="sans-serif" font-size="13" lengthAdjust="spacing" textLength="117" x="197" y="322.4575">利用規約画面を表示</text><polygon fill="#181818" points="309,365.6563,319,369.6563,309,373.6563,313,369.6563" style="stroke:#181818;stroke-width:1.0;"/><line style="stroke:#181818;stroke-width:1.0;" x1="190" x2="315" y1="369.6563" y2="369.6563"/><text fill="#000000" font-family="sans-serif" font-size="13" lengthAdjust="spacing" textLength="78" x="197" y="364.5903">利用規約取得</text><polygon fill="#181818" points="201,394.7891,191,398.7891,201,402.7891,197,398.7891" style="stroke:#181818;stroke-width:1.0;"/><line style="stroke:#181818;stroke-width:1.0;stroke-dasharray:2.0,2.0;" x1="195" x2="325" y1="398.7891" y2="398.7891"/><text fill="#000000" font-family="sans-serif" font-size="13" lengthAdjust="spacing" textLength="52" x="207" y="393.7231">利用規約</text><!--SRC=[RP7BJi9068NtynGJN2WXl00nRZ2wCsvDt3Jjg4r8IqhHzSoWGLoG6CH41GD1BY602LxG6doOtpBm5aulH52xQ3FJSxxpNspTJX7ivZkYr9usY-8fDwsrHUCT-1Nm7l0FX5Oni3gm0R1FUNRxDsBSGOfgcnQE06_AEs0l4QnaS3P3B9HMB5jNzRHYsFA_jF4Ei8Q7u4FWUT4TJEww-yRQRXBe6EWzK4b-0ru5VXlrCHevrbMo34fkxaXFCcLcjItBDEn0gMe6GbugZc-4DXoB9MJ1Gp_jp7_dHCcPLUf1OyWoJ9jWIpyyih5vC7UjR5k467iabJ9F49QFrprxz2ht4E4mW5swHIPEMuWO6lP0lzCJUDhkoHa1Tu1MWFQ_dB9qpUXeKgZA3e0z-ynpu3NW5y0VV6mUM26AGiOYBIXT4iBg_yRvImCwcj5NqNA2eFz8Ypl-JVsHoudw4rnKkyMoExwUYzRZSLybFykoRm00]--></g></svg>