<?xml version="1.0" encoding="UTF-8" standalone="no"?><svg xmlns="http://www.w3.org/2000/svg" xmlns:xlink="http://www.w3.org/1999/xlink" contentStyleType="text/css" height="482px" preserveAspectRatio="none" style="width:373px;height:482px;background:#FFFFFF;" version="1.1" viewBox="0 0 373 482" width="373px" zoomAndPan="magnify"><defs/><g><text fill="#000000" font-family="sans-serif" font-size="14" font-weight="bold" lengthAdjust="spacing" textLength="135" x="118.25" y="27.9951">利用規約表示フロー</text><rect fill="#FFFFFF" height="242.9297" style="stroke:#181818;stroke-width:1.0;" width="10" x="144" y="149.7266"/><rect fill="#FFFFFF" height="29.1328" style="stroke:#181818;stroke-width:1.0;" width="10" x="311" y="354.5234"/><line style="stroke:#181818;stroke-width:0.5;stroke-dasharray:5.0,5.0;" x1="29" x2="29" y1="118.5938" y2="401.6563"/><line style="stroke:#181818;stroke-width:0.5;stroke-dasharray:5.0,5.0;" x1="148.5" x2="148.5" y1="118.5938" y2="401.6563"/><line style="stroke:#181818;stroke-width:0.5;stroke-dasharray:5.0,5.0;" x1="315.5" x2="315.5" y1="118.5938" y2="401.6563"/><text fill="#000000" font-family="sans-serif" font-size="14" lengthAdjust="spacing" textLength="42" x="5" y="115.292">ユーザ</text><ellipse cx="29" cy="50.7969" fill="#E2E2F0" rx="8" ry="8" style="stroke:#181818;stroke-width:0.5;"/><path d="M29,58.7969 L29,85.7969 M16,66.7969 L42,66.7969 M29,85.7969 L16,100.7969 M29,85.7969 L42,100.7969 " fill="none" style="stroke:#181818;stroke-width:0.5;"/><text fill="#000000" font-family="sans-serif" font-size="14" lengthAdjust="spacing" textLength="42" x="5" y="413.6514">ユーザ</text><ellipse cx="29" cy="425.4531" fill="#E2E2F0" rx="8" ry="8" style="stroke:#181818;stroke-width:0.5;"/><path d="M29,433.4531 L29,460.4531 M16,441.4531 L42,441.4531 M29,460.4531 L16,475.4531 M29,460.4531 L42,475.4531 " fill="none" style="stroke:#181818;stroke-width:0.5;"/><rect fill="#E2E2F0" height="46.5938" rx="2.5" ry="2.5" style="stroke:#181818;stroke-width:0.5;" width="127" x="85.5" y="71"/><text fill="#000000" font-family="sans-serif" font-size="14" lengthAdjust="spacing" textLength="112" x="93" y="90.9951">クライアント端末</text><text fill="#000000" font-family="sans-serif" font-size="14" lengthAdjust="spacing" textLength="113" x="92.5" y="107.292">(PCまたはスマホ)</text><rect fill="#E2E2F0" height="46.5938" rx="2.5" ry="2.5" style="stroke:#181818;stroke-width:0.5;" width="127" x="85.5" y="400.6563"/><text fill="#000000" font-family="sans-serif" font-size="14" lengthAdjust="spacing" textLength="112" x="93" y="420.6514">クライアント端末</text><text fill="#000000" font-family="sans-serif" font-size="14" lengthAdjust="spacing" textLength="113" x="92.5" y="436.9482">(PCまたはスマホ)</text><rect fill="#E2E2F0" height="46.5938" rx="2.5" ry="2.5" style="stroke:#181818;stroke-width:0.5;" width="103" x="264.5" y="71"/><text fill="#000000" font-family="sans-serif" font-size="14" lengthAdjust="spacing" textLength="31" x="300.5" y="90.9951">CDN</text><text fill="#000000" font-family="sans-serif" font-size="14" lengthAdjust="spacing" textLength="89" x="271.5" y="107.292">(CloudFront)</text><rect fill="#E2E2F0" height="46.5938" rx="2.5" ry="2.5" style="stroke:#181818;stroke-width:0.5;" width="103" x="264.5" y="400.6563"/><text fill="#000000" font-family="sans-serif" font-size="14" lengthAdjust="spacing" textLength="31" x="300.5" y="420.6514">CDN</text><text fill="#000000" font-family="sans-serif" font-size="14" lengthAdjust="spacing" textLength="89" x="271.5" y="436.9482">(CloudFront)</text><rect fill="#FFFFFF" height="242.9297" style="stroke:#181818;stroke-width:1.0;" width="10" x="144" y="149.7266"/><rect fill="#FFFFFF" height="29.1328" style="stroke:#181818;stroke-width:1.0;" width="10" x="311" y="354.5234"/><polygon fill="#181818" points="132,145.7266,142,149.7266,132,153.7266,136,149.7266" style="stroke:#181818;stroke-width:1.0;"/><line style="stroke:#181818;stroke-width:1.0;" x1="29" x2="138" y1="149.7266" y2="149.7266"/><text fill="#000000" font-family="sans-serif" font-size="13" lengthAdjust="spacing" textLength="89" x="36" y="144.6606">HOME画面表示</text><rect fill="#ADFF2F" height="23" style="stroke:#181818;stroke-width:0.5;" width="138" x="159" y="162.7266"/><text fill="#000000" font-family="sans-serif" font-size="13" lengthAdjust="spacing" textLength="130" x="163" y="178.7935">ログインフローを参照</text><polygon fill="#181818" points="132,207.9922,142,211.9922,132,215.9922,136,211.9922" style="stroke:#181818;stroke-width:1.0;"/><line style="stroke:#181818;stroke-width:1.0;" x1="29" x2="138" y1="211.9922" y2="211.9922"/><text fill="#000000" font-family="sans-serif" font-size="13" lengthAdjust="spacing" textLength="78" x="36" y="206.9263">その他を選択</text><line style="stroke:#181818;stroke-width:1.0;" x1="154" x2="196" y1="241.125" y2="241.125"/><line style="stroke:#181818;stroke-width:1.0;" x1="196" x2="196" y1="241.125" y2="254.125"/><line style="stroke:#181818;stroke-width:1.0;" x1="155" x2="196" y1="254.125" y2="254.125"/><polygon fill="#181818" points="165,250.125,155,254.125,165,258.125,161,254.125" style="stroke:#181818;stroke-width:1.0;"/><text fill="#000000" font-family="sans-serif" font-size="13" lengthAdjust="spacing" textLength="143" x="161" y="236.0591">メニュー一覧画面を表示</text><polygon fill="#181818" points="132,279.2578,142,283.2578,132,287.2578,136,283.2578" style="stroke:#181818;stroke-width:1.0;"/><line style="stroke:#181818;stroke-width:1.0;" x1="29" x2="138" y1="283.2578" y2="283.2578"/><text fill="#000000" font-family="sans-serif" font-size="13" lengthAdjust="spacing" textLength="91" x="36" y="278.1919">利用規約を選択</text><line style="stroke:#181818;stroke-width:1.0;" x1="154" x2="196" y1="312.3906" y2="312.3906"/><line style="stroke:#181818;stroke-width:1.0;" x1="196" x2="196" y1="312.3906" y2="325.3906"/><line style="stroke:#181818;stroke-width:1.0;" x1="155" x2="196" y1="325.3906" y2="325.3906"/><polygon fill="#181818" points="165,321.3906,155,325.3906,165,329.3906,161,325.3906" style="stroke:#181818;stroke-width:1.0;"/><text fill="#000000" font-family="sans-serif" font-size="13" lengthAdjust="spacing" textLength="117" x="161" y="307.3247">利用規約画面を表示</text><polygon fill="#181818" points="299,350.5234,309,354.5234,299,358.5234,303,354.5234" style="stroke:#181818;stroke-width:1.0;"/><line style="stroke:#181818;stroke-width:1.0;" x1="154" x2="305" y1="354.5234" y2="354.5234"/><text fill="#000000" font-family="sans-serif" font-size="13" lengthAdjust="spacing" textLength="78" x="161" y="349.4575">利用規約取得</text><polygon fill="#181818" points="165,379.6563,155,383.6563,165,387.6563,161,383.6563" style="stroke:#181818;stroke-width:1.0;"/><line style="stroke:#181818;stroke-width:1.0;" x1="159" x2="315" y1="383.6563" y2="383.6563"/><text fill="#000000" font-family="sans-serif" font-size="13" lengthAdjust="spacing" textLength="52" x="171" y="378.5903">利用規約</text><!--MD5=[372823b4ae91fae3c67d0382cf99f621]
@startuml
title 利用規約表示フロー

' アクター定義
actor "ユーザ" as user
participant "クライアント端末\n(PCまたはスマホ)" as device
participant "CDN\n(CloudFront)" as cdn

user -> device ++: HOME画面表示
rnote right of device #GreenYellow
    ログインフローを参照
end note
user -> device : その他を選択
device -> device : メニュー一覧画面を表示
user -> device : 利用規約を選択
device -> device : 利用規約画面を表示
device -> cdn ++: 利用規約取得
device <- cdn - - : 利用規約
@enduml

@startuml
title 利用規約表示フロー

actor "ユーザ" as user
participant "クライアント端末\n(PCまたはスマホ)" as device
participant "CDN\n(CloudFront)" as cdn

user -> device ++: HOME画面表示
rnote right of device #GreenYellow
    ログインフローを参照
end note
user -> device : その他を選択
device -> device : メニュー一覧画面を表示
user -> device : 利用規約を選択
device -> device : 利用規約画面を表示
device -> cdn ++: 利用規約取得
device <- cdn - - : 利用規約
@enduml

PlantUML version 1.2022.14beta4(Unknown compile time)
(GPL source distribution)
Java Runtime: Java(TM) SE Runtime Environment
JVM: Java HotSpot(TM) 64-Bit Server VM
Default Encoding: UTF-8
Language: en
Country: US
--></g></svg>