<?xml version="1.0" encoding="UTF-8" standalone="no"?><svg xmlns="http://www.w3.org/2000/svg" xmlns:xlink="http://www.w3.org/1999/xlink" contentStyleType="text/css" height="762px" preserveAspectRatio="none" style="width:848px;height:762px;background:#FFFFFF;" version="1.1" viewBox="0 0 848 762" width="848px" zoomAndPan="magnify"><defs/><g><text fill="#000000" font-family="sans-serif" font-size="14" font-weight="bold" lengthAdjust="spacing" textLength="105" x="370.75" y="27.9951">会員登録フロー</text><rect fill="#FFFFFF" height="538.5234" style="stroke:#181818;stroke-width:1.0;" width="10" x="209" y="134.5938"/><rect fill="#FFFFFF" height="29.1328" style="stroke:#181818;stroke-width:1.0;" width="10" x="327" y="163.7266"/><rect fill="#FFFFFF" height="44.2656" style="stroke:#181818;stroke-width:1.0;" width="10" x="451" y="251.125"/><rect fill="#FFFFFF" height="29.1328" style="stroke:#181818;stroke-width:1.0;" width="10" x="451" y="382.7891"/><rect fill="#FFFFFF" height="29.1328" style="stroke:#181818;stroke-width:1.0;" width="10" x="451" y="470.1875"/><rect fill="#FFFFFF" height="29.1328" style="stroke:#181818;stroke-width:1.0;" width="10" x="451" y="557.5859"/><line style="stroke:#181818;stroke-width:0.5;stroke-dasharray:5.0,5.0;" x1="29" x2="29" y1="118.5938" y2="682.1172"/><line style="stroke:#181818;stroke-width:0.5;stroke-dasharray:5.0,5.0;" x1="213.5" x2="213.5" y1="118.5938" y2="682.1172"/><line style="stroke:#181818;stroke-width:0.5;stroke-dasharray:5.0,5.0;" x1="331.5" x2="331.5" y1="118.5938" y2="682.1172"/><line style="stroke:#181818;stroke-width:0.5;stroke-dasharray:5.0,5.0;" x1="455.5" x2="455.5" y1="118.5938" y2="682.1172"/><line style="stroke:#181818;stroke-width:0.5;stroke-dasharray:5.0,5.0;" x1="557.5" x2="557.5" y1="118.5938" y2="682.1172"/><line style="stroke:#181818;stroke-width:0.5;stroke-dasharray:5.0,5.0;" x1="668.5" x2="668.5" y1="118.5938" y2="682.1172"/><line style="stroke:#181818;stroke-width:0.5;stroke-dasharray:5.0,5.0;" x1="784.5" x2="784.5" y1="118.5938" y2="682.1172"/><text fill="#000000" font-family="sans-serif" font-size="14" lengthAdjust="spacing" textLength="42" x="5" y="115.292">ユーザ</text><ellipse cx="29" cy="50.7969" fill="#E2E2F0" rx="8" ry="8" style="stroke:#181818;stroke-width:0.5;"/><path d="M29,58.7969 L29,85.7969 M16,66.7969 L42,66.7969 M29,85.7969 L16,100.7969 M29,85.7969 L42,100.7969 " fill="none" style="stroke:#181818;stroke-width:0.5;"/><text fill="#000000" font-family="sans-serif" font-size="14" lengthAdjust="spacing" textLength="42" x="5" y="694.1123">ユーザ</text><ellipse cx="29" cy="705.9141" fill="#E2E2F0" rx="8" ry="8" style="stroke:#181818;stroke-width:0.5;"/><path d="M29,713.9141 L29,740.9141 M16,721.9141 L42,721.9141 M29,740.9141 L16,755.9141 M29,740.9141 L42,755.9141 " fill="none" style="stroke:#181818;stroke-width:0.5;"/><rect fill="#E2E2F0" height="46.5938" rx="2.5" ry="2.5" style="stroke:#181818;stroke-width:0.5;" width="127" x="150.5" y="71"/><text fill="#000000" font-family="sans-serif" font-size="14" lengthAdjust="spacing" textLength="112" x="158" y="90.9951">クライアント端末</text><text fill="#000000" font-family="sans-serif" font-size="14" lengthAdjust="spacing" textLength="113" x="157.5" y="107.292">(PCまたはスマホ)</text><rect fill="#E2E2F0" height="46.5938" rx="2.5" ry="2.5" style="stroke:#181818;stroke-width:0.5;" width="127" x="150.5" y="681.1172"/><text fill="#000000" font-family="sans-serif" font-size="14" lengthAdjust="spacing" textLength="112" x="158" y="701.1123">クライアント端末</text><text fill="#000000" font-family="sans-serif" font-size="14" lengthAdjust="spacing" textLength="113" x="157.5" y="717.4092">(PCまたはスマホ)</text><rect fill="#E2E2F0" height="30.2969" rx="2.5" ry="2.5" style="stroke:#181818;stroke-width:0.5;" width="89" x="287.5" y="87.2969"/><text fill="#000000" font-family="sans-serif" font-size="14" lengthAdjust="spacing" textLength="75" x="294.5" y="107.292">Webサーバ</text><rect fill="#E2E2F0" height="30.2969" rx="2.5" ry="2.5" style="stroke:#181818;stroke-width:0.5;" width="89" x="287.5" y="681.1172"/><text fill="#000000" font-family="sans-serif" font-size="14" lengthAdjust="spacing" textLength="75" x="294.5" y="701.1123">Webサーバ</text><rect fill="#E2E2F0" height="46.5938" rx="2.5" ry="2.5" style="stroke:#181818;stroke-width:0.5;" width="81" x="415.5" y="71"/><text fill="#000000" font-family="sans-serif" font-size="14" lengthAdjust="spacing" textLength="56" x="428" y="90.9951">認証基盤</text><text fill="#000000" font-family="sans-serif" font-size="14" lengthAdjust="spacing" textLength="67" x="422.5" y="107.292">(Cognito)</text><rect fill="#E2E2F0" height="46.5938" rx="2.5" ry="2.5" style="stroke:#181818;stroke-width:0.5;" width="81" x="415.5" y="681.1172"/><text fill="#000000" font-family="sans-serif" font-size="14" lengthAdjust="spacing" textLength="56" x="428" y="701.1123">認証基盤</text><text fill="#000000" font-family="sans-serif" font-size="14" lengthAdjust="spacing" textLength="67" x="422.5" y="717.4092">(Cognito)</text><rect fill="#E2E2F0" height="46.5938" rx="2.5" ry="2.5" style="stroke:#181818;stroke-width:0.5;" width="103" x="506.5" y="71"/><text fill="#000000" font-family="sans-serif" font-size="14" lengthAdjust="spacing" textLength="31" x="542.5" y="90.9951">CDN</text><text fill="#000000" font-family="sans-serif" font-size="14" lengthAdjust="spacing" textLength="89" x="513.5" y="107.292">(CloudFront)</text><rect fill="#E2E2F0" height="46.5938" rx="2.5" ry="2.5" style="stroke:#181818;stroke-width:0.5;" width="103" x="506.5" y="681.1172"/><text fill="#000000" font-family="sans-serif" font-size="14" lengthAdjust="spacing" textLength="31" x="542.5" y="701.1123">CDN</text><text fill="#000000" font-family="sans-serif" font-size="14" lengthAdjust="spacing" textLength="89" x="513.5" y="717.4092">(CloudFront)</text><rect fill="#E2E2F0" height="46.5938" rx="2.5" ry="2.5" style="stroke:#181818;stroke-width:0.5;" width="98" x="619.5" y="71"/><text fill="#000000" font-family="sans-serif" font-size="14" lengthAdjust="spacing" textLength="84" x="626.5" y="90.9951">SPA資材格納</text><text fill="#000000" font-family="sans-serif" font-size="14" lengthAdjust="spacing" textLength="28" x="654.5" y="107.292">(S3)</text><rect fill="#E2E2F0" height="46.5938" rx="2.5" ry="2.5" style="stroke:#181818;stroke-width:0.5;" width="98" x="619.5" y="681.1172"/><text fill="#000000" font-family="sans-serif" font-size="14" lengthAdjust="spacing" textLength="84" x="626.5" y="701.1123">SPA資材格納</text><text fill="#000000" font-family="sans-serif" font-size="14" lengthAdjust="spacing" textLength="28" x="654.5" y="717.4092">(S3)</text><rect fill="#E2E2F0" height="46.5938" rx="2.5" ry="2.5" style="stroke:#181818;stroke-width:0.5;" width="115" x="727.5" y="71"/><text fill="#000000" font-family="sans-serif" font-size="14" lengthAdjust="spacing" textLength="99" x="735.5" y="90.9951">SonicHost API</text><text fill="#000000" font-family="sans-serif" font-size="14" lengthAdjust="spacing" textLength="101" x="734.5" y="107.292">(API-Gateway)</text><rect fill="#E2E2F0" height="46.5938" rx="2.5" ry="2.5" style="stroke:#181818;stroke-width:0.5;" width="115" x="727.5" y="681.1172"/><text fill="#000000" font-family="sans-serif" font-size="14" lengthAdjust="spacing" textLength="99" x="735.5" y="701.1123">SonicHost API</text><text fill="#000000" font-family="sans-serif" font-size="14" lengthAdjust="spacing" textLength="101" x="734.5" y="717.4092">(API-Gateway)</text><rect fill="#FFFFFF" height="538.5234" style="stroke:#181818;stroke-width:1.0;" width="10" x="209" y="134.5938"/><rect fill="#FFFFFF" height="29.1328" style="stroke:#181818;stroke-width:1.0;" width="10" x="327" y="163.7266"/><rect fill="#FFFFFF" height="44.2656" style="stroke:#181818;stroke-width:1.0;" width="10" x="451" y="251.125"/><rect fill="#FFFFFF" height="29.1328" style="stroke:#181818;stroke-width:1.0;" width="10" x="451" y="382.7891"/><rect fill="#FFFFFF" height="29.1328" style="stroke:#181818;stroke-width:1.0;" width="10" x="451" y="470.1875"/><rect fill="#FFFFFF" height="29.1328" style="stroke:#181818;stroke-width:1.0;" width="10" x="451" y="557.5859"/><polygon fill="#181818" points="197,130.5938,207,134.5938,197,138.5938,201,134.5938" style="stroke:#181818;stroke-width:1.0;"/><line style="stroke:#181818;stroke-width:1.0;" x1="29" x2="203" y1="134.5938" y2="134.5938"/><polygon fill="#181818" points="315,159.7266,325,163.7266,315,167.7266,319,163.7266" style="stroke:#181818;stroke-width:1.0;"/><line style="stroke:#181818;stroke-width:1.0;" x1="219" x2="321" y1="163.7266" y2="163.7266"/><text fill="#000000" font-family="sans-serif" font-size="13" lengthAdjust="spacing" textLength="65" x="226" y="158.6606">サイト参照</text><polygon fill="#181818" points="230,188.8594,220,192.8594,230,196.8594,226,192.8594" style="stroke:#181818;stroke-width:1.0;"/><line style="stroke:#181818;stroke-width:1.0;stroke-dasharray:2.0,2.0;" x1="224" x2="331" y1="192.8594" y2="192.8594"/><text fill="#000000" font-family="sans-serif" font-size="13" lengthAdjust="spacing" textLength="65" x="236" y="187.7935">サイト表示</text><polygon fill="#181818" points="197,217.9922,207,221.9922,197,225.9922,201,221.9922" style="stroke:#181818;stroke-width:1.0;"/><line style="stroke:#181818;stroke-width:1.0;" x1="29" x2="203" y1="221.9922" y2="221.9922"/><text fill="#000000" font-family="sans-serif" font-size="13" lengthAdjust="spacing" textLength="78" x="36" y="216.9263">「登録」押下</text><polygon fill="#181818" points="439,247.125,449,251.125,439,255.125,443,251.125" style="stroke:#181818;stroke-width:1.0;"/><line style="stroke:#181818;stroke-width:1.0;" x1="219" x2="445" y1="251.125" y2="251.125"/><text fill="#000000" font-family="sans-serif" font-size="13" lengthAdjust="spacing" textLength="117" x="226" y="246.0591">ユーザ登録画面要求</text><polygon fill="#181818" points="230,291.3906,220,295.3906,230,299.3906,226,295.3906" style="stroke:#181818;stroke-width:1.0;"/><line style="stroke:#181818;stroke-width:1.0;stroke-dasharray:2.0,2.0;" x1="224" x2="455" y1="295.3906" y2="295.3906"/><text fill="#000000" font-family="sans-serif" font-size="13" lengthAdjust="spacing" textLength="78" x="236" y="275.1919">登録画面表示</text><text fill="#000000" font-family="sans-serif" font-size="13" lengthAdjust="spacing" textLength="143" x="236" y="290.3247">メールアドレス入力画面</text><polygon fill="#181818" points="197,320.5234,207,324.5234,197,328.5234,201,324.5234" style="stroke:#181818;stroke-width:1.0;"/><line style="stroke:#181818;stroke-width:1.0;" x1="29" x2="203" y1="324.5234" y2="324.5234"/><text fill="#000000" font-family="sans-serif" font-size="13" lengthAdjust="spacing" textLength="117" x="36" y="319.4575">メールアドレス入力</text><polygon fill="#181818" points="197,349.6563,207,353.6563,197,357.6563,201,353.6563" style="stroke:#181818;stroke-width:1.0;"/><line style="stroke:#181818;stroke-width:1.0;" x1="29" x2="203" y1="353.6563" y2="353.6563"/><text fill="#000000" font-family="sans-serif" font-size="13" lengthAdjust="spacing" textLength="117" x="36" y="348.5903">「メール送信」押下</text><polygon fill="#181818" points="439,378.7891,449,382.7891,439,386.7891,443,382.7891" style="stroke:#181818;stroke-width:1.0;"/><line style="stroke:#181818;stroke-width:1.0;" x1="219" x2="445" y1="382.7891" y2="382.7891"/><text fill="#000000" font-family="sans-serif" font-size="13" lengthAdjust="spacing" textLength="91" x="226" y="377.7231">メール送信依頼</text><polygon fill="#181818" points="230,407.9219,220,411.9219,230,415.9219,226,411.9219" style="stroke:#181818;stroke-width:1.0;"/><line style="stroke:#181818;stroke-width:1.0;stroke-dasharray:2.0,2.0;" x1="224" x2="455" y1="411.9219" y2="411.9219"/><text fill="#000000" font-family="sans-serif" font-size="13" lengthAdjust="spacing" textLength="65" x="236" y="406.856">メール送信</text><polygon fill="#181818" points="197,437.0547,207,441.0547,197,445.0547,201,441.0547" style="stroke:#181818;stroke-width:1.0;"/><line style="stroke:#181818;stroke-width:1.0;" x1="29" x2="203" y1="441.0547" y2="441.0547"/><text fill="#000000" font-family="sans-serif" font-size="13" lengthAdjust="spacing" textLength="65" x="36" y="435.9888">メール承認</text><polygon fill="#181818" points="439,466.1875,449,470.1875,439,474.1875,443,470.1875" style="stroke:#181818;stroke-width:1.0;"/><line style="stroke:#181818;stroke-width:1.0;" x1="219" x2="445" y1="470.1875" y2="470.1875"/><text fill="#000000" font-family="sans-serif" font-size="13" lengthAdjust="spacing" textLength="143" x="226" y="465.1216">承認によるリダイレクト</text><polygon fill="#181818" points="230,495.3203,220,499.3203,230,503.3203,226,499.3203" style="stroke:#181818;stroke-width:1.0;"/><line style="stroke:#181818;stroke-width:1.0;stroke-dasharray:2.0,2.0;" x1="224" x2="455" y1="499.3203" y2="499.3203"/><text fill="#000000" font-family="sans-serif" font-size="13" lengthAdjust="spacing" textLength="208" x="236" y="494.2544">ユーザ名・パスワード入力画面表示</text><polygon fill="#181818" points="197,524.4531,207,528.4531,197,532.4531,201,528.4531" style="stroke:#181818;stroke-width:1.0;"/><line style="stroke:#181818;stroke-width:1.0;" x1="29" x2="203" y1="528.4531" y2="528.4531"/><text fill="#000000" font-family="sans-serif" font-size="13" lengthAdjust="spacing" textLength="156" x="36" y="523.3872">ユーザ名・パスワード入力</text><polygon fill="#181818" points="439,553.5859,449,557.5859,439,561.5859,443,557.5859" style="stroke:#181818;stroke-width:1.0;"/><line style="stroke:#181818;stroke-width:1.0;" x1="219" x2="445" y1="557.5859" y2="557.5859"/><text fill="#000000" font-family="sans-serif" font-size="13" lengthAdjust="spacing" textLength="182" x="226" y="552.52">ユーザ名・パスワード登録依頼</text><polygon fill="#181818" points="40,582.7188,30,586.7188,40,590.7188,36,586.7188" style="stroke:#181818;stroke-width:1.0;"/><line style="stroke:#181818;stroke-width:1.0;stroke-dasharray:2.0,2.0;" x1="34" x2="455" y1="586.7188" y2="586.7188"/><text fill="#000000" font-family="sans-serif" font-size="13" lengthAdjust="spacing" textLength="78" x="46" y="581.6528">登録完了画面</text><polygon fill="#181818" points="197,611.8516,207,615.8516,197,619.8516,201,615.8516" style="stroke:#181818;stroke-width:1.0;"/><line style="stroke:#181818;stroke-width:1.0;" x1="29" x2="203" y1="615.8516" y2="615.8516"/><text fill="#000000" font-family="sans-serif" font-size="13" lengthAdjust="spacing" textLength="156" x="36" y="610.7856">「早速使ってみる」を押下</text><rect fill="#ADFF2F" height="38" style="stroke:#181818;stroke-width:0.5;" width="203" x="224" y="628.8516"/><text fill="#000000" font-family="sans-serif" font-size="13" lengthAdjust="spacing" textLength="143" x="228" y="644.9185">サイト追加フローを参照</text><text fill="#000000" font-family="sans-serif" font-size="13" lengthAdjust="spacing" textLength="195" x="228" y="660.0513">ログイン周りの処理もここで実施</text><!--MD5=[52f544a216c0032d516a6b7edbc77973]
@startuml
title 会員登録フロー

' アクター定義
actor "ユーザ" as user
participant "クライアント端末\n(PCまたはスマホ)" as device
participant "Webサーバ" as site
participant "認証基盤\n(Cognito)" as cognito
participant "CDN\n(CloudFront)" as cdn
participant "SPA資材格納\n(S3)" as spa
participant "SonicHost API\n(API-Gateway)" as api


' シーケンス
' Webサイト編
user -> device ++ 
device -> site ++ : サイト参照
device <- - site - - : サイト表示
user -> device : 「登録」押下

' Cognito登録編（ユーザ登録）
device -> cognito ++ : ユーザ登録画面要求
device <- - cognito - - : 登録画面表示\nメールアドレス入力画面
user -> device : メールアドレス入力
user -> device : 「メール送信」押下
device -> cognito ++ : メール送信依頼
device <- - cognito - - : メール送信
user -> device : メール承認
device -> cognito ++ : 承認によるリダイレクト
device <- - cognito - - : ユーザ名・パスワード入力画面表示
user -> device :ユーザ名・パスワード入力
device -> cognito ++ : ユーザ名・パスワード登録依頼
user <- - cognito - - : 登録完了画面
user -> device : 「早速使ってみる」を押下

rnote right of device #GreenYellow
    サイト追加フローを参照
    ログイン周りの処理もここで実施
end note
@enduml

@startuml
title 会員登録フロー

actor "ユーザ" as user
participant "クライアント端末\n(PCまたはスマホ)" as device
participant "Webサーバ" as site
participant "認証基盤\n(Cognito)" as cognito
participant "CDN\n(CloudFront)" as cdn
participant "SPA資材格納\n(S3)" as spa
participant "SonicHost API\n(API-Gateway)" as api


user -> device ++ 
device -> site ++ : サイト参照
device <- - site - - : サイト表示
user -> device : 「登録」押下

device -> cognito ++ : ユーザ登録画面要求
device <- - cognito - - : 登録画面表示\nメールアドレス入力画面
user -> device : メールアドレス入力
user -> device : 「メール送信」押下
device -> cognito ++ : メール送信依頼
device <- - cognito - - : メール送信
user -> device : メール承認
device -> cognito ++ : 承認によるリダイレクト
device <- - cognito - - : ユーザ名・パスワード入力画面表示
user -> device :ユーザ名・パスワード入力
device -> cognito ++ : ユーザ名・パスワード登録依頼
user <- - cognito - - : 登録完了画面
user -> device : 「早速使ってみる」を押下

rnote right of device #GreenYellow
    サイト追加フローを参照
    ログイン周りの処理もここで実施
end note
@enduml

PlantUML version 1.2022.14beta1(Unknown compile time)
(GPL source distribution)
Java Runtime: Java(TM) SE Runtime Environment
JVM: Java HotSpot(TM) 64-Bit Server VM
Default Encoding: UTF-8
Language: en
Country: US
--></g></svg>