<?xml version="1.0" encoding="UTF-8" standalone="no"?><svg xmlns="http://www.w3.org/2000/svg" xmlns:xlink="http://www.w3.org/1999/xlink" contentStyleType="text/css" height="911px" preserveAspectRatio="none" style="width:795px;height:911px;background:#FFFFFF;" version="1.1" viewBox="0 0 795 911" width="795px" zoomAndPan="magnify"><defs/><g><text fill="#000000" font-family="sans-serif" font-size="14" font-weight="bold" lengthAdjust="spacing" textLength="105" x="344" y="27.9951">会員登録フロー</text><rect fill="#FFFFFF" height="687.1875" style="stroke:#181818;stroke-width:1.0;" width="10" x="209" y="134.5938"/><rect fill="#FFFFFF" height="29.1328" style="stroke:#181818;stroke-width:1.0;" width="10" x="334" y="163.7266"/><rect fill="#FFFFFF" height="44.2656" style="stroke:#181818;stroke-width:1.0;" width="10" x="451" y="251.125"/><rect fill="#FFFFFF" height="29.1328" style="stroke:#181818;stroke-width:1.0;" width="10" x="451" y="382.7891"/><rect fill="#FFFFFF" height="29.1328" style="stroke:#181818;stroke-width:1.0;" width="10" x="451" y="470.1875"/><rect fill="#FFFFFF" height="206.9297" style="stroke:#181818;stroke-width:1.0;" width="10" x="451" y="557.5859"/><rect fill="#FFFFFF" height="119.5313" style="stroke:#181818;stroke-width:1.0;" width="10" x="571" y="586.7188"/><line style="stroke:#181818;stroke-width:0.5;stroke-dasharray:5.0,5.0;" x1="29" x2="29" y1="118.5938" y2="830.7813"/><line style="stroke:#181818;stroke-width:0.5;stroke-dasharray:5.0,5.0;" x1="213.5" x2="213.5" y1="118.5938" y2="830.7813"/><line style="stroke:#181818;stroke-width:0.5;stroke-dasharray:5.0,5.0;" x1="338.5" x2="338.5" y1="118.5938" y2="830.7813"/><line style="stroke:#181818;stroke-width:0.5;stroke-dasharray:5.0,5.0;" x1="455.5" x2="455.5" y1="118.5938" y2="830.7813"/><line style="stroke:#181818;stroke-width:0.5;stroke-dasharray:5.0,5.0;" x1="576" x2="576" y1="118.5938" y2="830.7813"/><text fill="#000000" font-family="sans-serif" font-size="14" lengthAdjust="spacing" textLength="42" x="5" y="115.292">ユーザ</text><ellipse cx="29" cy="50.7969" fill="#E2E2F0" rx="8" ry="8" style="stroke:#181818;stroke-width:0.5;"/><path d="M29,58.7969 L29,85.7969 M16,66.7969 L42,66.7969 M29,85.7969 L16,100.7969 M29,85.7969 L42,100.7969 " fill="none" style="stroke:#181818;stroke-width:0.5;"/><text fill="#000000" font-family="sans-serif" font-size="14" lengthAdjust="spacing" textLength="42" x="5" y="842.7764">ユーザ</text><ellipse cx="29" cy="854.5781" fill="#E2E2F0" rx="8" ry="8" style="stroke:#181818;stroke-width:0.5;"/><path d="M29,862.5781 L29,889.5781 M16,870.5781 L42,870.5781 M29,889.5781 L16,904.5781 M29,889.5781 L42,904.5781 " fill="none" style="stroke:#181818;stroke-width:0.5;"/><rect fill="#E2E2F0" height="46.5938" rx="2.5" ry="2.5" style="stroke:#181818;stroke-width:0.5;" width="127" x="150.5" y="71"/><text fill="#000000" font-family="sans-serif" font-size="14" lengthAdjust="spacing" textLength="112" x="158" y="90.9951">クライアント端末</text><text fill="#000000" font-family="sans-serif" font-size="14" lengthAdjust="spacing" textLength="113" x="157.5" y="107.292">(PCまたはスマホ)</text><rect fill="#E2E2F0" height="46.5938" rx="2.5" ry="2.5" style="stroke:#181818;stroke-width:0.5;" width="127" x="150.5" y="829.7813"/><text fill="#000000" font-family="sans-serif" font-size="14" lengthAdjust="spacing" textLength="112" x="158" y="849.7764">クライアント端末</text><text fill="#000000" font-family="sans-serif" font-size="14" lengthAdjust="spacing" textLength="113" x="157.5" y="866.0732">(PCまたはスマホ)</text><rect fill="#E2E2F0" height="30.2969" rx="2.5" ry="2.5" style="stroke:#181818;stroke-width:0.5;" width="89" x="294.5" y="87.2969"/><text fill="#000000" font-family="sans-serif" font-size="14" lengthAdjust="spacing" textLength="75" x="301.5" y="107.292">Webサーバ</text><rect fill="#E2E2F0" height="30.2969" rx="2.5" ry="2.5" style="stroke:#181818;stroke-width:0.5;" width="89" x="294.5" y="829.7813"/><text fill="#000000" font-family="sans-serif" font-size="14" lengthAdjust="spacing" textLength="75" x="301.5" y="849.7764">Webサーバ</text><rect fill="#E2E2F0" height="46.5938" rx="2.5" ry="2.5" style="stroke:#181818;stroke-width:0.5;" width="81" x="415.5" y="71"/><text fill="#000000" font-family="sans-serif" font-size="14" lengthAdjust="spacing" textLength="56" x="428" y="90.9951">認証基盤</text><text fill="#000000" font-family="sans-serif" font-size="14" lengthAdjust="spacing" textLength="67" x="422.5" y="107.292">(Cognito)</text><rect fill="#E2E2F0" height="46.5938" rx="2.5" ry="2.5" style="stroke:#181818;stroke-width:0.5;" width="81" x="415.5" y="829.7813"/><text fill="#000000" font-family="sans-serif" font-size="14" lengthAdjust="spacing" textLength="56" x="428" y="849.7764">認証基盤</text><text fill="#000000" font-family="sans-serif" font-size="14" lengthAdjust="spacing" textLength="67" x="422.5" y="866.0732">(Cognito)</text><rect fill="#E2E2F0" height="46.5938" rx="2.5" ry="2.5" style="stroke:#181818;stroke-width:0.5;" width="86" x="533" y="71"/><text fill="#000000" font-family="sans-serif" font-size="14" lengthAdjust="spacing" textLength="72" x="540" y="90.9951">SonicHost</text><text fill="#000000" font-family="sans-serif" font-size="14" lengthAdjust="spacing" textLength="67" x="542.5" y="107.292">(Lambda)</text><rect fill="#E2E2F0" height="46.5938" rx="2.5" ry="2.5" style="stroke:#181818;stroke-width:0.5;" width="86" x="533" y="829.7813"/><text fill="#000000" font-family="sans-serif" font-size="14" lengthAdjust="spacing" textLength="72" x="540" y="849.7764">SonicHost</text><text fill="#000000" font-family="sans-serif" font-size="14" lengthAdjust="spacing" textLength="67" x="542.5" y="866.0732">(Lambda)</text><rect fill="#FFFFFF" height="687.1875" style="stroke:#181818;stroke-width:1.0;" width="10" x="209" y="134.5938"/><rect fill="#FFFFFF" height="29.1328" style="stroke:#181818;stroke-width:1.0;" width="10" x="334" y="163.7266"/><rect fill="#FFFFFF" height="44.2656" style="stroke:#181818;stroke-width:1.0;" width="10" x="451" y="251.125"/><rect fill="#FFFFFF" height="29.1328" style="stroke:#181818;stroke-width:1.0;" width="10" x="451" y="382.7891"/><rect fill="#FFFFFF" height="29.1328" style="stroke:#181818;stroke-width:1.0;" width="10" x="451" y="470.1875"/><rect fill="#FFFFFF" height="206.9297" style="stroke:#181818;stroke-width:1.0;" width="10" x="451" y="557.5859"/><rect fill="#FFFFFF" height="119.5313" style="stroke:#181818;stroke-width:1.0;" width="10" x="571" y="586.7188"/><polygon fill="#181818" points="197,130.5938,207,134.5938,197,138.5938,201,134.5938" style="stroke:#181818;stroke-width:1.0;"/><line style="stroke:#181818;stroke-width:1.0;" x1="29" x2="203" y1="134.5938" y2="134.5938"/><polygon fill="#181818" points="322,159.7266,332,163.7266,322,167.7266,326,163.7266" style="stroke:#181818;stroke-width:1.0;"/><line style="stroke:#181818;stroke-width:1.0;" x1="219" x2="328" y1="163.7266" y2="163.7266"/><text fill="#000000" font-family="sans-serif" font-size="13" lengthAdjust="spacing" textLength="91" x="226" y="158.6606">広告サイト参照</text><polygon fill="#181818" points="230,188.8594,220,192.8594,230,196.8594,226,192.8594" style="stroke:#181818;stroke-width:1.0;"/><line style="stroke:#181818;stroke-width:1.0;stroke-dasharray:2.0,2.0;" x1="224" x2="338" y1="192.8594" y2="192.8594"/><text fill="#000000" font-family="sans-serif" font-size="13" lengthAdjust="spacing" textLength="91" x="236" y="187.7935">広告サイト表示</text><polygon fill="#181818" points="197,217.9922,207,221.9922,197,225.9922,201,221.9922" style="stroke:#181818;stroke-width:1.0;"/><line style="stroke:#181818;stroke-width:1.0;" x1="29" x2="203" y1="221.9922" y2="221.9922"/><text fill="#000000" font-family="sans-serif" font-size="13" lengthAdjust="spacing" textLength="78" x="36" y="216.9263">「登録」押下</text><polygon fill="#181818" points="439,247.125,449,251.125,439,255.125,443,251.125" style="stroke:#181818;stroke-width:1.0;"/><line style="stroke:#181818;stroke-width:1.0;" x1="219" x2="445" y1="251.125" y2="251.125"/><text fill="#000000" font-family="sans-serif" font-size="13" lengthAdjust="spacing" textLength="117" x="226" y="246.0591">ユーザ登録画面要求</text><polygon fill="#181818" points="230,291.3906,220,295.3906,230,299.3906,226,295.3906" style="stroke:#181818;stroke-width:1.0;"/><line style="stroke:#181818;stroke-width:1.0;stroke-dasharray:2.0,2.0;" x1="224" x2="455" y1="295.3906" y2="295.3906"/><text fill="#000000" font-family="sans-serif" font-size="13" lengthAdjust="spacing" textLength="78" x="236" y="275.1919">登録画面表示</text><text fill="#000000" font-family="sans-serif" font-size="13" lengthAdjust="spacing" textLength="143" x="236" y="290.3247">ユーザ登録用メール入力</text><polygon fill="#181818" points="197,320.5234,207,324.5234,197,328.5234,201,324.5234" style="stroke:#181818;stroke-width:1.0;"/><line style="stroke:#181818;stroke-width:1.0;" x1="29" x2="203" y1="324.5234" y2="324.5234"/><text fill="#000000" font-family="sans-serif" font-size="13" lengthAdjust="spacing" textLength="117" x="36" y="319.4575">メールアドレス入力</text><polygon fill="#181818" points="197,349.6563,207,353.6563,197,357.6563,201,353.6563" style="stroke:#181818;stroke-width:1.0;"/><line style="stroke:#181818;stroke-width:1.0;" x1="29" x2="203" y1="353.6563" y2="353.6563"/><text fill="#000000" font-family="sans-serif" font-size="13" lengthAdjust="spacing" textLength="117" x="36" y="348.5903">「メール送信」押下</text><polygon fill="#181818" points="439,378.7891,449,382.7891,439,386.7891,443,382.7891" style="stroke:#181818;stroke-width:1.0;"/><line style="stroke:#181818;stroke-width:1.0;" x1="219" x2="445" y1="382.7891" y2="382.7891"/><text fill="#000000" font-family="sans-serif" font-size="13" lengthAdjust="spacing" textLength="91" x="226" y="377.7231">メール送信依頼</text><polygon fill="#181818" points="230,407.9219,220,411.9219,230,415.9219,226,411.9219" style="stroke:#181818;stroke-width:1.0;"/><line style="stroke:#181818;stroke-width:1.0;stroke-dasharray:2.0,2.0;" x1="224" x2="455" y1="411.9219" y2="411.9219"/><text fill="#000000" font-family="sans-serif" font-size="13" lengthAdjust="spacing" textLength="65" x="236" y="406.856">メール送信</text><polygon fill="#181818" points="197,437.0547,207,441.0547,197,445.0547,201,441.0547" style="stroke:#181818;stroke-width:1.0;"/><line style="stroke:#181818;stroke-width:1.0;" x1="29" x2="203" y1="441.0547" y2="441.0547"/><text fill="#000000" font-family="sans-serif" font-size="13" lengthAdjust="spacing" textLength="65" x="36" y="435.9888">メール承認</text><polygon fill="#181818" points="439,466.1875,449,470.1875,439,474.1875,443,470.1875" style="stroke:#181818;stroke-width:1.0;"/><line style="stroke:#181818;stroke-width:1.0;" x1="219" x2="445" y1="470.1875" y2="470.1875"/><text fill="#000000" font-family="sans-serif" font-size="13" lengthAdjust="spacing" textLength="143" x="226" y="465.1216">承認によるリダイレクト</text><polygon fill="#181818" points="230,495.3203,220,499.3203,230,503.3203,226,499.3203" style="stroke:#181818;stroke-width:1.0;"/><line style="stroke:#181818;stroke-width:1.0;stroke-dasharray:2.0,2.0;" x1="224" x2="455" y1="499.3203" y2="499.3203"/><text fill="#000000" font-family="sans-serif" font-size="13" lengthAdjust="spacing" textLength="208" x="236" y="494.2544">ユーザ名・パスワード入力画面表示</text><polygon fill="#181818" points="197,524.4531,207,528.4531,197,532.4531,201,528.4531" style="stroke:#181818;stroke-width:1.0;"/><line style="stroke:#181818;stroke-width:1.0;" x1="29" x2="203" y1="528.4531" y2="528.4531"/><text fill="#000000" font-family="sans-serif" font-size="13" lengthAdjust="spacing" textLength="156" x="36" y="523.3872">ユーザ名・パスワード入力</text><polygon fill="#181818" points="439,553.5859,449,557.5859,439,561.5859,443,557.5859" style="stroke:#181818;stroke-width:1.0;"/><line style="stroke:#181818;stroke-width:1.0;" x1="219" x2="445" y1="557.5859" y2="557.5859"/><text fill="#000000" font-family="sans-serif" font-size="13" lengthAdjust="spacing" textLength="182" x="226" y="552.52">ユーザ名・パスワード登録依頼</text><polygon fill="#181818" points="559,582.7188,569,586.7188,559,590.7188,563,586.7188" style="stroke:#181818;stroke-width:1.0;"/><line style="stroke:#181818;stroke-width:1.0;" x1="461" x2="565" y1="586.7188" y2="586.7188"/><text fill="#000000" font-family="sans-serif" font-size="13" lengthAdjust="spacing" textLength="91" x="468" y="581.6528">ユーザ登録実行</text><line style="stroke:#181818;stroke-width:1.0;" x1="581" x2="623" y1="615.8516" y2="615.8516"/><line style="stroke:#181818;stroke-width:1.0;" x1="623" x2="623" y1="615.8516" y2="628.8516"/><line style="stroke:#181818;stroke-width:1.0;" x1="582" x2="623" y1="628.8516" y2="628.8516"/><polygon fill="#181818" points="592,624.8516,582,628.8516,592,632.8516,588,628.8516" style="stroke:#181818;stroke-width:1.0;"/><text fill="#000000" font-family="sans-serif" font-size="13" lengthAdjust="spacing" textLength="104" x="588" y="610.7856">お知らせ情報登録</text><rect fill="#87CEEB" height="53" style="stroke:#181818;stroke-width:0.5;" width="203" x="586" y="641.8516"/><text fill="#000000" font-family="sans-serif" font-size="13" lengthAdjust="spacing" textLength="143" x="590" y="657.9185">有効期限内のお知らせを</text><text fill="#000000" font-family="sans-serif" font-size="13" lengthAdjust="spacing" textLength="195" x="590" y="673.0513">ユーザごとのお知らせ一覧に登録</text><text fill="#000000" font-family="sans-serif" font-size="13" lengthAdjust="spacing" textLength="99" x="590" y="688.1841">（DynamoDB）</text><polygon fill="#181818" points="472,702.25,462,706.25,472,710.25,468,706.25" style="stroke:#181818;stroke-width:1.0;"/><line style="stroke:#181818;stroke-width:1.0;stroke-dasharray:2.0,2.0;" x1="466" x2="575" y1="706.25" y2="706.25"/><polygon fill="#181818" points="197,731.3828,207,735.3828,197,739.3828,201,735.3828" style="stroke:#181818;stroke-width:1.0;"/><line style="stroke:#181818;stroke-width:1.0;" x1="29" x2="203" y1="735.3828" y2="735.3828"/><text fill="#000000" font-family="sans-serif" font-size="13" lengthAdjust="spacing" textLength="156" x="36" y="730.3169">「早速使ってみる」を押下</text><polygon fill="#181818" points="40,760.5156,30,764.5156,40,768.5156,36,764.5156" style="stroke:#181818;stroke-width:1.0;"/><line style="stroke:#181818;stroke-width:1.0;stroke-dasharray:2.0,2.0;" x1="34" x2="455" y1="764.5156" y2="764.5156"/><text fill="#000000" font-family="sans-serif" font-size="13" lengthAdjust="spacing" textLength="117" x="46" y="759.4497">ユーザ登録完了画面</text><rect fill="#ADFF2F" height="38" style="stroke:#181818;stroke-width:0.5;" width="203" x="224" y="777.5156"/><text fill="#000000" font-family="sans-serif" font-size="13" lengthAdjust="spacing" textLength="143" x="228" y="793.5825">サイト追加フローを参照</text><text fill="#000000" font-family="sans-serif" font-size="13" lengthAdjust="spacing" textLength="195" x="228" y="808.7153">ログイン周りの処理もここで実施</text><!--SRC=[ZLHTJnf157tVNp7HXxOn_07J-A0cxKCVclZGDF45SMitnLq3QnlVTcQ21OGKgssZO16hYD-rfbLnbHzpcLruyYzqTcPP0S6MRCBkpBdtddFkt34rCwgYkhtELahksbKpymle5w17G6r5UOI0R04v0LBZt-nutRtPKy8HquYX0Q1blWRapm0Anz5yN8qfS-6OgKMqkR1kydqUHlU0R7ifw1dGf7jmuXGE9lN7ByS0tm0k0kQPBu5-1vf_8j9Cg- -rYDgPw9Kw1UItLulc12YkcLsGndwsKR5PiUhcjtd-CMD6rqn3fep8Zyw02KFN8i-DkCdHByApKzDX2OwATodyNCWxzRYJIxxYy-22k9JpYk99Hg4HdpCQ6aAA_yeNFOxUqZ1YLSgMqq4a-qJSn6uB-JGKab3-Vm_QA5NSxMftdM44LiRlb9LrqdRzOiaZx8kMEvpVhPqCMYGNR-rK6qFV5qco2-ckNZKtjXfbx9oITggj6C6s0ogeJkhtybI0baJh3bXYXwNpFTIq0EASf80UShlxWgrCW6zQk5uhtNdGLre7ldwpqToq-uhgGZz0rqdL-B7hLrNk0kQgaa2MWEu3jKHR3yLW91zWu5l8SbcWLq2NnOoSYAefQKoxwVSe_a-2Vvw3dh6ogRw30UaHVsfwdYHsN6oKCegFkCDo84wxnHqWAS1vXoROvgcCK6AwmGSYfisyDP7nfXKmEF5kOJGwhoAa8Fvp2YcMldGAnUPQZYqc01-tvmFoMQ02Ce1N0LUwKFKBgr7UvJto2tiHV6h65_Jmh34-wesBgayZZqwWrcjNIqoev_bqlkqrhMBzkWRu1-0ou9hNVolBEVa7LKJrxtlBk4ozkYWRhNHxujSRV1PJLVsr6eqQ7wJUuEgeNRFqPd2Jyzh-lIDTEGBoKm3Fs785I9eRmpwMtTmY409uHJoxl7NEr-l0Why0]--></g></svg>