<?xml version="1.0" encoding="UTF-8" standalone="no"?><svg xmlns="http://www.w3.org/2000/svg" xmlns:xlink="http://www.w3.org/1999/xlink" contentStyleType="text/css" height="2845px" preserveAspectRatio="none" style="width:767px;height:2845px;background:#FFFFFF;" version="1.1" viewBox="0 0 767 2845" width="767px" zoomAndPan="magnify"><defs/><g><text fill="#000000" font-family="sans-serif" font-size="14" font-weight="bold" lengthAdjust="spacing" textLength="75" x="345" y="27.9951">サイト追加</text><rect fill="#FFFFFF" height="2606.3047" style="stroke:#181818;stroke-width:1.0;" width="10" x="237" y="149.7266"/><rect fill="#FFFFFF" height="14" style="stroke:#181818;stroke-width:1.0;" width="10" x="481" y="847.4531"/><rect fill="#FFFFFF" height="14" style="stroke:#181818;stroke-width:1.0;" width="10" x="481" y="1005.7891"/><rect fill="#FFFFFF" height="99.2656" style="stroke:#181818;stroke-width:1.0;" width="10" x="481" y="1449.6484"/><rect fill="#FFFFFF" height="29.1328" style="stroke:#181818;stroke-width:1.0;" width="10" x="481" y="1620.1797"/><rect fill="#FFFFFF" height="175.9297" style="stroke:#181818;stroke-width:1.0;" width="10" x="481" y="1707.5781"/><rect fill="#FFFFFF" height="143.6641" style="stroke:#181818;stroke-width:1.0;" width="10" x="481" y="2067.3047"/><rect fill="#FFFFFF" height="44.2656" style="stroke:#181818;stroke-width:1.0;" width="10" x="481" y="2327.3047"/><rect fill="#FFFFFF" height="14" style="stroke:#181818;stroke-width:1.0;" width="10" x="707" y="1520.9141"/><rect fill="#FFFFFF" height="29.1328" style="stroke:#181818;stroke-width:1.0;" width="10" x="707" y="1736.7109"/><rect fill="#FFFFFF" height="44.2656" style="stroke:#181818;stroke-width:1.0;" width="10" x="707" y="1794.9766"/><rect fill="#FFFFFF" height="29.1328" style="stroke:#181818;stroke-width:1.0;" width="10" x="707" y="1912.6406"/><rect fill="#FFFFFF" height="14" style="stroke:#181818;stroke-width:1.0;" width="10" x="707" y="2000.0391"/><rect fill="none" height="300.8672" style="stroke:#000000;stroke-width:1.5;" width="399" x="10" y="197.8594"/><rect fill="none" height="448.5313" style="stroke:#000000;stroke-width:1.5;" width="561.5" x="10" y="708.7891"/><rect fill="none" height="497.0625" style="stroke:#000000;stroke-width:1.5;" width="630" x="10" y="2029.0391"/><rect fill="none" height="88.3984" style="stroke:#000000;stroke-width:1.5;" width="368" x="10" y="2569.2344"/><line style="stroke:#181818;stroke-width:0.5;stroke-dasharray:5.0,5.0;" x1="44" x2="44" y1="118.5938" y2="2765.0313"/><line style="stroke:#181818;stroke-width:0.5;stroke-dasharray:5.0,5.0;" x1="241.5" x2="241.5" y1="118.5938" y2="2765.0313"/><line style="stroke:#181818;stroke-width:0.5;stroke-dasharray:5.0,5.0;" x1="485.5" x2="485.5" y1="118.5938" y2="2765.0313"/><line style="stroke:#181818;stroke-width:0.5;stroke-dasharray:5.0,5.0;" x1="712" x2="712" y1="118.5938" y2="2765.0313"/><text fill="#000000" font-family="sans-serif" font-size="14" lengthAdjust="spacing" textLength="42" x="20" y="115.292">ユーザ</text><ellipse cx="44" cy="50.7969" fill="#E2E2F0" rx="8" ry="8" style="stroke:#181818;stroke-width:0.5;"/><path d="M44,58.7969 L44,85.7969 M31,66.7969 L57,66.7969 M44,85.7969 L31,100.7969 M44,85.7969 L57,100.7969 " fill="none" style="stroke:#181818;stroke-width:0.5;"/><text fill="#000000" font-family="sans-serif" font-size="14" lengthAdjust="spacing" textLength="42" x="20" y="2777.0264">ユーザ</text><ellipse cx="44" cy="2788.8281" fill="#E2E2F0" rx="8" ry="8" style="stroke:#181818;stroke-width:0.5;"/><path d="M44,2796.8281 L44,2823.8281 M31,2804.8281 L57,2804.8281 M44,2823.8281 L31,2838.8281 M44,2823.8281 L57,2838.8281 " fill="none" style="stroke:#181818;stroke-width:0.5;"/><rect fill="#E2E2F0" height="46.5938" rx="2.5" ry="2.5" style="stroke:#181818;stroke-width:0.5;" width="127" x="178.5" y="71"/><text fill="#000000" font-family="sans-serif" font-size="14" lengthAdjust="spacing" textLength="112" x="186" y="90.9951">クライアント端末</text><text fill="#000000" font-family="sans-serif" font-size="14" lengthAdjust="spacing" textLength="113" x="185.5" y="107.292">(PCまたはスマホ)</text><rect fill="#E2E2F0" height="46.5938" rx="2.5" ry="2.5" style="stroke:#181818;stroke-width:0.5;" width="127" x="178.5" y="2764.0313"/><text fill="#000000" font-family="sans-serif" font-size="14" lengthAdjust="spacing" textLength="112" x="186" y="2784.0264">クライアント端末</text><text fill="#000000" font-family="sans-serif" font-size="14" lengthAdjust="spacing" textLength="113" x="185.5" y="2800.3232">(PCまたはスマホ)</text><rect fill="#E2E2F0" height="46.5938" rx="2.5" ry="2.5" style="stroke:#181818;stroke-width:0.5;" width="151" x="410.5" y="71"/><text fill="#000000" font-family="sans-serif" font-size="14" lengthAdjust="spacing" textLength="99" x="436.5" y="90.9951">SonicHost API</text><text fill="#000000" font-family="sans-serif" font-size="14" lengthAdjust="spacing" textLength="137" x="417.5" y="107.292">(CDN/API-Gateway)</text><rect fill="#E2E2F0" height="46.5938" rx="2.5" ry="2.5" style="stroke:#181818;stroke-width:0.5;" width="151" x="410.5" y="2764.0313"/><text fill="#000000" font-family="sans-serif" font-size="14" lengthAdjust="spacing" textLength="99" x="436.5" y="2784.0264">SonicHost API</text><text fill="#000000" font-family="sans-serif" font-size="14" lengthAdjust="spacing" textLength="137" x="417.5" y="2800.3232">(CDN/API-Gateway)</text><rect fill="#E2E2F0" height="46.5938" rx="2.5" ry="2.5" style="stroke:#181818;stroke-width:0.5;" width="98" x="663" y="71"/><text fill="#000000" font-family="sans-serif" font-size="14" lengthAdjust="spacing" textLength="84" x="670" y="90.9951">決済サービス</text><text fill="#000000" font-family="sans-serif" font-size="14" lengthAdjust="spacing" textLength="55" x="684.5" y="107.292">(Stripe)</text><rect fill="#E2E2F0" height="46.5938" rx="2.5" ry="2.5" style="stroke:#181818;stroke-width:0.5;" width="98" x="663" y="2764.0313"/><text fill="#000000" font-family="sans-serif" font-size="14" lengthAdjust="spacing" textLength="84" x="670" y="2784.0264">決済サービス</text><text fill="#000000" font-family="sans-serif" font-size="14" lengthAdjust="spacing" textLength="55" x="684.5" y="2800.3232">(Stripe)</text><rect fill="#FFFFFF" height="2606.3047" style="stroke:#181818;stroke-width:1.0;" width="10" x="237" y="149.7266"/><rect fill="#FFFFFF" height="14" style="stroke:#181818;stroke-width:1.0;" width="10" x="481" y="847.4531"/><rect fill="#FFFFFF" height="14" style="stroke:#181818;stroke-width:1.0;" width="10" x="481" y="1005.7891"/><rect fill="#FFFFFF" height="99.2656" style="stroke:#181818;stroke-width:1.0;" width="10" x="481" y="1449.6484"/><rect fill="#FFFFFF" height="29.1328" style="stroke:#181818;stroke-width:1.0;" width="10" x="481" y="1620.1797"/><rect fill="#FFFFFF" height="175.9297" style="stroke:#181818;stroke-width:1.0;" width="10" x="481" y="1707.5781"/><rect fill="#FFFFFF" height="143.6641" style="stroke:#181818;stroke-width:1.0;" width="10" x="481" y="2067.3047"/><rect fill="#FFFFFF" height="44.2656" style="stroke:#181818;stroke-width:1.0;" width="10" x="481" y="2327.3047"/><rect fill="#FFFFFF" height="14" style="stroke:#181818;stroke-width:1.0;" width="10" x="707" y="1520.9141"/><rect fill="#FFFFFF" height="29.1328" style="stroke:#181818;stroke-width:1.0;" width="10" x="707" y="1736.7109"/><rect fill="#FFFFFF" height="44.2656" style="stroke:#181818;stroke-width:1.0;" width="10" x="707" y="1794.9766"/><rect fill="#FFFFFF" height="29.1328" style="stroke:#181818;stroke-width:1.0;" width="10" x="707" y="1912.6406"/><rect fill="#FFFFFF" height="14" style="stroke:#181818;stroke-width:1.0;" width="10" x="707" y="2000.0391"/><polygon fill="#181818" points="225,145.7266,235,149.7266,225,153.7266,229,149.7266" style="stroke:#181818;stroke-width:1.0;"/><line style="stroke:#181818;stroke-width:1.0;" x1="44" x2="231" y1="149.7266" y2="149.7266"/><text fill="#000000" font-family="sans-serif" font-size="13" lengthAdjust="spacing" textLength="89" x="51" y="144.6606">HOME画面表示</text><rect fill="#ADFF2F" height="23" style="stroke:#181818;stroke-width:0.5;" width="138" x="252" y="162.7266"/><text fill="#000000" font-family="sans-serif" font-size="13" lengthAdjust="spacing" textLength="130" x="256" y="178.7935">ログインフローを参照</text><path d="M10,197.8594 L76,197.8594 L76,204.9922 L66,214.9922 L10,214.9922 L10,197.8594 " fill="#EEEEEE" style="stroke:#000000;stroke-width:1.5;"/><rect fill="none" height="300.8672" style="stroke:#000000;stroke-width:1.5;" width="399" x="10" y="197.8594"/><text fill="#000000" font-family="sans-serif" font-size="13" font-weight="bold" lengthAdjust="spacing" textLength="21" x="25" y="210.9263">alt</text><text fill="#000000" font-family="sans-serif" font-size="11" font-weight="bold" lengthAdjust="spacing" textLength="109" x="91" y="210.0698">[サイト未登録の場合]</text><line style="stroke:#181818;stroke-width:1.0;" x1="247" x2="289" y1="236.125" y2="236.125"/><line style="stroke:#181818;stroke-width:1.0;" x1="289" x2="289" y1="236.125" y2="249.125"/><line style="stroke:#181818;stroke-width:1.0;" x1="248" x2="289" y1="249.125" y2="249.125"/><polygon fill="#181818" points="258,245.125,248,249.125,258,253.125,254,249.125" style="stroke:#181818;stroke-width:1.0;"/><text fill="#000000" font-family="sans-serif" font-size="13" lengthAdjust="spacing" textLength="130" x="254" y="231.0591">サイト名入力画面表示</text><line style="stroke:#000000;stroke-width:1.0;stroke-dasharray:2.0,2.0;" x1="10" x2="409" y1="258.125" y2="258.125"/><text fill="#000000" font-family="sans-serif" font-size="11" font-weight="bold" lengthAdjust="spacing" textLength="120" x="15" y="268.3354">[サイト登録済みの場合]</text><line style="stroke:#181818;stroke-width:1.0;" x1="247" x2="289" y1="293.0625" y2="293.0625"/><line style="stroke:#181818;stroke-width:1.0;" x1="289" x2="289" y1="293.0625" y2="306.0625"/><line style="stroke:#181818;stroke-width:1.0;" x1="248" x2="289" y1="306.0625" y2="306.0625"/><polygon fill="#181818" points="258,302.0625,248,306.0625,258,310.0625,254,306.0625" style="stroke:#181818;stroke-width:1.0;"/><text fill="#000000" font-family="sans-serif" font-size="13" lengthAdjust="spacing" textLength="104" x="254" y="287.9966">ＨＯＭＥ画面表示</text><polygon fill="#181818" points="225,331.1953,235,335.1953,225,339.1953,229,335.1953" style="stroke:#181818;stroke-width:1.0;"/><line style="stroke:#181818;stroke-width:1.0;" x1="44" x2="231" y1="335.1953" y2="335.1953"/><text fill="#000000" font-family="sans-serif" font-size="13" lengthAdjust="spacing" textLength="117" x="51" y="330.1294">サイト設定確認選択</text><line style="stroke:#181818;stroke-width:1.0;" x1="247" x2="289" y1="364.3281" y2="364.3281"/><line style="stroke:#181818;stroke-width:1.0;" x1="289" x2="289" y1="364.3281" y2="377.3281"/><line style="stroke:#181818;stroke-width:1.0;" x1="248" x2="289" y1="377.3281" y2="377.3281"/><polygon fill="#181818" points="258,373.3281,248,377.3281,258,381.3281,254,377.3281" style="stroke:#181818;stroke-width:1.0;"/><text fill="#000000" font-family="sans-serif" font-size="13" lengthAdjust="spacing" textLength="143" x="254" y="359.2622">サイト設定確認画面表示</text><polygon fill="#181818" points="225,402.4609,235,406.4609,225,410.4609,229,406.4609" style="stroke:#181818;stroke-width:1.0;"/><line style="stroke:#181818;stroke-width:1.0;" x1="44" x2="231" y1="406.4609" y2="406.4609"/><text fill="#000000" font-family="sans-serif" font-size="13" lengthAdjust="spacing" textLength="91" x="51" y="401.395">サイト追加押下</text><line style="stroke:#181818;stroke-width:1.0;" x1="247" x2="289" y1="435.5938" y2="435.5938"/><line style="stroke:#181818;stroke-width:1.0;" x1="289" x2="289" y1="435.5938" y2="448.5938"/><line style="stroke:#181818;stroke-width:1.0;" x1="248" x2="289" y1="448.5938" y2="448.5938"/><polygon fill="#181818" points="258,444.5938,248,448.5938,258,452.5938,254,448.5938" style="stroke:#181818;stroke-width:1.0;"/><text fill="#000000" font-family="sans-serif" font-size="13" lengthAdjust="spacing" textLength="91" x="254" y="430.5278">サイト追加押下</text><line style="stroke:#181818;stroke-width:1.0;" x1="247" x2="289" y1="477.7266" y2="477.7266"/><line style="stroke:#181818;stroke-width:1.0;" x1="289" x2="289" y1="477.7266" y2="490.7266"/><line style="stroke:#181818;stroke-width:1.0;" x1="248" x2="289" y1="490.7266" y2="490.7266"/><polygon fill="#181818" points="258,486.7266,248,490.7266,258,494.7266,254,490.7266" style="stroke:#181818;stroke-width:1.0;"/><text fill="#000000" font-family="sans-serif" font-size="13" lengthAdjust="spacing" textLength="130" x="254" y="472.6606">サイト名入力画面表示</text><polygon fill="#181818" points="225,522.8594,235,526.8594,225,530.8594,229,526.8594" style="stroke:#181818;stroke-width:1.0;"/><line style="stroke:#181818;stroke-width:1.0;" x1="44" x2="231" y1="526.8594" y2="526.8594"/><text fill="#000000" font-family="sans-serif" font-size="13" lengthAdjust="spacing" textLength="78" x="51" y="521.7935">サイト名入力</text><line style="stroke:#181818;stroke-width:1.0;" x1="247" x2="289" y1="555.9922" y2="555.9922"/><line style="stroke:#181818;stroke-width:1.0;" x1="289" x2="289" y1="555.9922" y2="568.9922"/><line style="stroke:#181818;stroke-width:1.0;" x1="248" x2="289" y1="568.9922" y2="568.9922"/><polygon fill="#181818" points="258,564.9922,248,568.9922,258,572.9922,254,568.9922" style="stroke:#181818;stroke-width:1.0;"/><text fill="#000000" font-family="sans-serif" font-size="13" lengthAdjust="spacing" textLength="156" x="254" y="550.9263">ドメイン方式選択画面表示</text><path d="M252,581.9922 L252,666.9922 L494,666.9922 L494,591.9922 L484,581.9922 L252,581.9922 " fill="#FEFFDD" style="stroke:#181818;stroke-width:0.5;"/><path d="M484,581.9922 L484,591.9922 L494,591.9922 L484,581.9922 " fill="#FEFFDD" style="stroke:#181818;stroke-width:0.5;"/><text fill="#000000" font-family="sans-serif" font-size="13" lengthAdjust="spacing" textLength="169" x="258" y="599.0591">ドメイン方式は以下から選択</text><ellipse cx="263.5" cy="609.7578" fill="#000000" rx="2.5" ry="2.5" style="stroke:#000000;stroke-width:0.0;"/><text fill="#000000" font-family="sans-serif" font-size="13" lengthAdjust="spacing" textLength="143" x="270" y="614.1919">自分で取得したドメイン</text><ellipse cx="263.5" cy="624.8906" fill="#000000" rx="2.5" ry="2.5" style="stroke:#000000;stroke-width:0.0;"/><text fill="#000000" font-family="sans-serif" font-size="13" lengthAdjust="spacing" textLength="184" x="270" y="629.3247">Sonic Host提供のサブドメイン</text><text fill="#000000" font-family="sans-serif" font-size="13" lengthAdjust="spacing" textLength="78" x="258" y="644.4575">金額かえる？</text><text fill="#000000" font-family="sans-serif" font-size="13" lengthAdjust="spacing" textLength="221" x="258" y="659.5903">なら、カード入力のタイミング考慮要</text><polygon fill="#181818" points="225,689.7891,235,693.7891,225,697.7891,229,693.7891" style="stroke:#181818;stroke-width:1.0;"/><line style="stroke:#181818;stroke-width:1.0;" x1="44" x2="231" y1="693.7891" y2="693.7891"/><text fill="#000000" font-family="sans-serif" font-size="13" lengthAdjust="spacing" textLength="104" x="51" y="688.7231">ドメイン方式選択</text><path d="M10,708.7891 L76,708.7891 L76,715.9219 L66,725.9219 L10,725.9219 L10,708.7891 " fill="#EEEEEE" style="stroke:#000000;stroke-width:1.5;"/><rect fill="none" height="448.5313" style="stroke:#000000;stroke-width:1.5;" width="561.5" x="10" y="708.7891"/><text fill="#000000" font-family="sans-serif" font-size="13" font-weight="bold" lengthAdjust="spacing" textLength="21" x="25" y="721.856">alt</text><text fill="#000000" font-family="sans-serif" font-size="11" font-weight="bold" lengthAdjust="spacing" textLength="131" x="91" y="720.9995">[自前ドメイン方式の場合]</text><line style="stroke:#181818;stroke-width:1.0;" x1="247" x2="289" y1="747.0547" y2="747.0547"/><line style="stroke:#181818;stroke-width:1.0;" x1="289" x2="289" y1="747.0547" y2="760.0547"/><line style="stroke:#181818;stroke-width:1.0;" x1="248" x2="289" y1="760.0547" y2="760.0547"/><polygon fill="#181818" points="258,756.0547,248,760.0547,258,764.0547,254,760.0547" style="stroke:#181818;stroke-width:1.0;"/><text fill="#000000" font-family="sans-serif" font-size="13" lengthAdjust="spacing" textLength="130" x="254" y="741.9888">ドメイン入力画面表示</text><polygon fill="#181818" points="225,785.1875,235,789.1875,225,793.1875,229,789.1875" style="stroke:#181818;stroke-width:1.0;"/><line style="stroke:#181818;stroke-width:1.0;" x1="44" x2="231" y1="789.1875" y2="789.1875"/><text fill="#000000" font-family="sans-serif" font-size="13" lengthAdjust="spacing" textLength="91" x="51" y="784.1216">ドメイン名入力</text><polygon fill="#181818" points="225,814.3203,235,818.3203,225,822.3203,229,818.3203" style="stroke:#181818;stroke-width:1.0;"/><line style="stroke:#181818;stroke-width:1.0;" x1="44" x2="231" y1="818.3203" y2="818.3203"/><text fill="#000000" font-family="sans-serif" font-size="13" lengthAdjust="spacing" textLength="78" x="51" y="813.2544">「確定」押下</text><polygon fill="#181818" points="469,843.4531,479,847.4531,469,851.4531,473,847.4531" style="stroke:#181818;stroke-width:1.0;"/><line style="stroke:#181818;stroke-width:1.0;" x1="247" x2="475" y1="847.4531" y2="847.4531"/><text fill="#000000" font-family="sans-serif" font-size="13" lengthAdjust="spacing" textLength="111" x="254" y="842.3872">ドメイン仮登録API</text><polygon fill="#181818" points="258,857.4531,248,861.4531,258,865.4531,254,861.4531" style="stroke:#181818;stroke-width:1.0;"/><line style="stroke:#181818;stroke-width:1.0;stroke-dasharray:2.0,2.0;" x1="252" x2="485" y1="861.4531" y2="861.4531"/><line style="stroke:#181818;stroke-width:1.0;" x1="247" x2="289" y1="890.5859" y2="890.5859"/><line style="stroke:#181818;stroke-width:1.0;" x1="289" x2="289" y1="890.5859" y2="903.5859"/><line style="stroke:#181818;stroke-width:1.0;" x1="248" x2="289" y1="903.5859" y2="903.5859"/><polygon fill="#181818" points="258,899.5859,248,903.5859,258,907.5859,254,903.5859" style="stroke:#181818;stroke-width:1.0;"/><text fill="#000000" font-family="sans-serif" font-size="13" lengthAdjust="spacing" textLength="130" x="254" y="885.52">ネームサーバ表示画面</text><polygon fill="#181818" points="225,928.7188,235,932.7188,225,936.7188,229,932.7188" style="stroke:#181818;stroke-width:1.0;"/><line style="stroke:#181818;stroke-width:1.0;" x1="44" x2="231" y1="932.7188" y2="932.7188"/><text fill="#000000" font-family="sans-serif" font-size="13" lengthAdjust="spacing" textLength="26" x="51" y="927.6528">確認</text><polygon fill="#181818" points="225,957.8516,235,961.8516,225,965.8516,229,961.8516" style="stroke:#181818;stroke-width:1.0;"/><line style="stroke:#181818;stroke-width:1.0;" x1="44" x2="231" y1="961.8516" y2="961.8516"/><text fill="#000000" font-family="sans-serif" font-size="13" lengthAdjust="spacing" textLength="78" x="51" y="956.7856">「次へ」押下</text><line style="stroke:#000000;stroke-width:1.0;stroke-dasharray:2.0,2.0;" x1="10" x2="571.5" y1="970.8516" y2="970.8516"/><text fill="#000000" font-family="sans-serif" font-size="11" font-weight="bold" lengthAdjust="spacing" textLength="203" x="15" y="981.062">[Sonic Hostサブドメイン方式の場合]</text><polygon fill="#181818" points="469,1001.7891,479,1005.7891,469,1009.7891,473,1005.7891" style="stroke:#181818;stroke-width:1.0;"/><line style="stroke:#181818;stroke-width:1.0;" x1="247" x2="475" y1="1005.7891" y2="1005.7891"/><text fill="#000000" font-family="sans-serif" font-size="13" lengthAdjust="spacing" textLength="124" x="254" y="1000.7231">ドメイン一覧取得API</text><polygon fill="#181818" points="258,1015.7891,248,1019.7891,258,1023.7891,254,1019.7891" style="stroke:#181818;stroke-width:1.0;"/><line style="stroke:#181818;stroke-width:1.0;stroke-dasharray:2.0,2.0;" x1="252" x2="485" y1="1019.7891" y2="1019.7891"/><line style="stroke:#181818;stroke-width:1.0;" x1="247" x2="289" y1="1048.9219" y2="1048.9219"/><line style="stroke:#181818;stroke-width:1.0;" x1="289" x2="289" y1="1048.9219" y2="1061.9219"/><line style="stroke:#181818;stroke-width:1.0;" x1="248" x2="289" y1="1061.9219" y2="1061.9219"/><polygon fill="#181818" points="258,1057.9219,248,1061.9219,258,1065.9219,254,1061.9219" style="stroke:#181818;stroke-width:1.0;"/><text fill="#000000" font-family="sans-serif" font-size="13" lengthAdjust="spacing" textLength="169" x="254" y="1043.856">ドメイン選択・入力画面表示</text><polygon fill="#181818" points="225,1087.0547,235,1091.0547,225,1095.0547,229,1091.0547" style="stroke:#181818;stroke-width:1.0;"/><line style="stroke:#181818;stroke-width:1.0;" x1="44" x2="231" y1="1091.0547" y2="1091.0547"/><text fill="#000000" font-family="sans-serif" font-size="13" lengthAdjust="spacing" textLength="78" x="51" y="1085.9888">ドメイン選択</text><polygon fill="#181818" points="225,1116.1875,235,1120.1875,225,1124.1875,229,1120.1875" style="stroke:#181818;stroke-width:1.0;"/><line style="stroke:#181818;stroke-width:1.0;" x1="44" x2="231" y1="1120.1875" y2="1120.1875"/><text fill="#000000" font-family="sans-serif" font-size="13" lengthAdjust="spacing" textLength="104" x="51" y="1115.1216">サブドメイン入力</text><polygon fill="#181818" points="225,1145.3203,235,1149.3203,225,1153.3203,229,1149.3203" style="stroke:#181818;stroke-width:1.0;"/><line style="stroke:#181818;stroke-width:1.0;" x1="44" x2="231" y1="1149.3203" y2="1149.3203"/><text fill="#000000" font-family="sans-serif" font-size="13" lengthAdjust="spacing" textLength="78" x="51" y="1144.2544">「次へ」押下</text><line style="stroke:#181818;stroke-width:1.0;" x1="247" x2="289" y1="1185.4531" y2="1185.4531"/><line style="stroke:#181818;stroke-width:1.0;" x1="289" x2="289" y1="1185.4531" y2="1198.4531"/><line style="stroke:#181818;stroke-width:1.0;" x1="248" x2="289" y1="1198.4531" y2="1198.4531"/><polygon fill="#181818" points="258,1194.4531,248,1198.4531,258,1202.4531,254,1198.4531" style="stroke:#181818;stroke-width:1.0;"/><text fill="#000000" font-family="sans-serif" font-size="13" lengthAdjust="spacing" textLength="182" x="254" y="1180.3872">サービスドメイン入力画面表示</text><polygon fill="#181818" points="225,1223.5859,235,1227.5859,225,1231.5859,229,1227.5859" style="stroke:#181818;stroke-width:1.0;"/><line style="stroke:#181818;stroke-width:1.0;" x1="44" x2="231" y1="1227.5859" y2="1227.5859"/><text fill="#000000" font-family="sans-serif" font-size="13" lengthAdjust="spacing" textLength="117" x="51" y="1222.52">サイトドメイン入力</text><polygon fill="#181818" points="225,1252.7188,235,1256.7188,225,1260.7188,229,1256.7188" style="stroke:#181818;stroke-width:1.0;"/><line style="stroke:#181818;stroke-width:1.0;" x1="44" x2="231" y1="1256.7188" y2="1256.7188"/><text fill="#000000" font-family="sans-serif" font-size="13" lengthAdjust="spacing" textLength="117" x="51" y="1251.6528">メールドメイン入力</text><polygon fill="#181818" points="225,1281.8516,235,1285.8516,225,1289.8516,229,1285.8516" style="stroke:#181818;stroke-width:1.0;"/><line style="stroke:#181818;stroke-width:1.0;" x1="44" x2="231" y1="1285.8516" y2="1285.8516"/><text fill="#000000" font-family="sans-serif" font-size="13" lengthAdjust="spacing" textLength="78" x="51" y="1280.7856">「確認」押下</text><line style="stroke:#181818;stroke-width:1.0;" x1="247" x2="289" y1="1314.9844" y2="1314.9844"/><line style="stroke:#181818;stroke-width:1.0;" x1="289" x2="289" y1="1314.9844" y2="1327.9844"/><line style="stroke:#181818;stroke-width:1.0;" x1="248" x2="289" y1="1327.9844" y2="1327.9844"/><polygon fill="#181818" points="258,1323.9844,248,1327.9844,258,1331.9844,254,1327.9844" style="stroke:#181818;stroke-width:1.0;"/><text fill="#000000" font-family="sans-serif" font-size="13" lengthAdjust="spacing" textLength="130" x="254" y="1309.9185">入力内容確認画面表示</text><rect fill="#87CEEB" height="53" style="stroke:#181818;stroke-width:0.5;" width="294" x="252" y="1340.9844"/><text fill="#000000" font-family="sans-serif" font-size="13" lengthAdjust="spacing" textLength="286" x="256" y="1357.0513">変更したい項目があれば「変更」ボタンを押下。</text><text fill="#000000" font-family="sans-serif" font-size="13" lengthAdjust="spacing" textLength="260" x="256" y="1372.1841">外套の変更画面に遷移し、「確認」ボタンを</text><text fill="#000000" font-family="sans-serif" font-size="13" lengthAdjust="spacing" textLength="156" x="256" y="1387.3169">押下すると今の画面に戻る</text><polygon fill="#181818" points="225,1416.5156,235,1420.5156,225,1424.5156,229,1420.5156" style="stroke:#181818;stroke-width:1.0;"/><line style="stroke:#181818;stroke-width:1.0;" x1="44" x2="231" y1="1420.5156" y2="1420.5156"/><text fill="#000000" font-family="sans-serif" font-size="13" lengthAdjust="spacing" textLength="78" x="51" y="1415.4497">「確定」押下</text><polygon fill="#181818" points="469,1445.6484,479,1449.6484,469,1453.6484,473,1449.6484" style="stroke:#181818;stroke-width:1.0;"/><line style="stroke:#181818;stroke-width:1.0;" x1="247" x2="475" y1="1449.6484" y2="1449.6484"/><text fill="#000000" font-family="sans-serif" font-size="13" lengthAdjust="spacing" textLength="124" x="254" y="1444.5825">サイト情報仮登録API</text><line style="stroke:#181818;stroke-width:1.0;" x1="491" x2="533" y1="1478.7813" y2="1478.7813"/><line style="stroke:#181818;stroke-width:1.0;" x1="533" x2="533" y1="1478.7813" y2="1491.7813"/><line style="stroke:#181818;stroke-width:1.0;" x1="492" x2="533" y1="1491.7813" y2="1491.7813"/><polygon fill="#181818" points="502,1487.7813,492,1491.7813,502,1495.7813,498,1491.7813" style="stroke:#181818;stroke-width:1.0;"/><text fill="#000000" font-family="sans-serif" font-size="13" lengthAdjust="spacing" textLength="130" x="498" y="1473.7153">サイト情報を一次登録</text><polygon fill="#181818" points="695,1516.9141,705,1520.9141,695,1524.9141,699,1520.9141" style="stroke:#181818;stroke-width:1.0;"/><line style="stroke:#181818;stroke-width:1.0;" x1="491" x2="701" y1="1520.9141" y2="1520.9141"/><text fill="#000000" font-family="sans-serif" font-size="13" lengthAdjust="spacing" textLength="197" x="498" y="1515.8481">Stripeで作成するProductsの登録</text><polygon fill="#181818" points="502,1530.9141,492,1534.9141,502,1538.9141,498,1534.9141" style="stroke:#181818;stroke-width:1.0;"/><line style="stroke:#181818;stroke-width:1.0;stroke-dasharray:2.0,2.0;" x1="496" x2="711" y1="1534.9141" y2="1534.9141"/><polygon fill="#181818" points="258,1544.9141,248,1548.9141,258,1552.9141,254,1548.9141" style="stroke:#181818;stroke-width:1.0;"/><line style="stroke:#181818;stroke-width:1.0;stroke-dasharray:2.0,2.0;" x1="252" x2="485" y1="1548.9141" y2="1548.9141"/><line style="stroke:#181818;stroke-width:1.0;" x1="247" x2="289" y1="1578.0469" y2="1578.0469"/><line style="stroke:#181818;stroke-width:1.0;" x1="289" x2="289" y1="1578.0469" y2="1591.0469"/><line style="stroke:#181818;stroke-width:1.0;" x1="248" x2="289" y1="1591.0469" y2="1591.0469"/><polygon fill="#181818" points="258,1587.0469,248,1591.0469,258,1595.0469,254,1591.0469" style="stroke:#181818;stroke-width:1.0;"/><text fill="#000000" font-family="sans-serif" font-size="13" lengthAdjust="spacing" textLength="156" x="254" y="1572.981">支払いプラン情報画面表示</text><polygon fill="#181818" points="469,1616.1797,479,1620.1797,469,1624.1797,473,1620.1797" style="stroke:#181818;stroke-width:1.0;"/><line style="stroke:#181818;stroke-width:1.0;" x1="247" x2="475" y1="1620.1797" y2="1620.1797"/><text fill="#000000" font-family="sans-serif" font-size="13" lengthAdjust="spacing" textLength="150" x="254" y="1615.1138">支払いプラン情報取得API</text><polygon fill="#181818" points="258,1645.3125,248,1649.3125,258,1653.3125,254,1649.3125" style="stroke:#181818;stroke-width:1.0;"/><line style="stroke:#181818;stroke-width:1.0;stroke-dasharray:2.0,2.0;" x1="252" x2="485" y1="1649.3125" y2="1649.3125"/><text fill="#000000" font-family="sans-serif" font-size="13" lengthAdjust="spacing" textLength="104" x="264" y="1644.2466">支払いプラン情報</text><polygon fill="#181818" points="225,1674.4453,235,1678.4453,225,1682.4453,229,1678.4453" style="stroke:#181818;stroke-width:1.0;"/><line style="stroke:#181818;stroke-width:1.0;" x1="44" x2="231" y1="1678.4453" y2="1678.4453"/><text fill="#000000" font-family="sans-serif" font-size="13" lengthAdjust="spacing" textLength="117" x="51" y="1673.3794">支払い情報入力押下</text><polygon fill="#181818" points="469,1703.5781,479,1707.5781,469,1711.5781,473,1707.5781" style="stroke:#181818;stroke-width:1.0;"/><line style="stroke:#181818;stroke-width:1.0;" x1="247" x2="475" y1="1707.5781" y2="1707.5781"/><text fill="#000000" font-family="sans-serif" font-size="13" lengthAdjust="spacing" textLength="143" x="254" y="1702.5122">支払い情報登録開始要求</text><polygon fill="#181818" points="695,1732.7109,705,1736.7109,695,1740.7109,699,1736.7109" style="stroke:#181818;stroke-width:1.0;"/><line style="stroke:#181818;stroke-width:1.0;" x1="491" x2="701" y1="1736.7109" y2="1736.7109"/><text fill="#000000" font-family="sans-serif" font-size="13" lengthAdjust="spacing" textLength="91" x="498" y="1731.645">プラン情報取得</text><polygon fill="#181818" points="502,1761.8438,492,1765.8438,502,1769.8438,498,1765.8438" style="stroke:#181818;stroke-width:1.0;"/><line style="stroke:#181818;stroke-width:1.0;stroke-dasharray:2.0,2.0;" x1="496" x2="711" y1="1765.8438" y2="1765.8438"/><text fill="#000000" font-family="sans-serif" font-size="13" lengthAdjust="spacing" textLength="65" x="508" y="1760.7778">プラン情報</text><polygon fill="#181818" points="695,1790.9766,705,1794.9766,695,1798.9766,699,1794.9766" style="stroke:#181818;stroke-width:1.0;"/><line style="stroke:#181818;stroke-width:1.0;" x1="491" x2="701" y1="1794.9766" y2="1794.9766"/><text fill="#000000" font-family="sans-serif" font-size="13" lengthAdjust="spacing" textLength="91" x="498" y="1789.9106">セッション生成</text><polygon fill="#181818" points="502,1835.2422,492,1839.2422,502,1843.2422,498,1839.2422" style="stroke:#181818;stroke-width:1.0;"/><line style="stroke:#181818;stroke-width:1.0;stroke-dasharray:2.0,2.0;" x1="496" x2="711" y1="1839.2422" y2="1839.2422"/><text fill="#000000" font-family="sans-serif" font-size="13" lengthAdjust="spacing" textLength="91" x="508" y="1819.0435">セッション情報</text><text fill="#000000" font-family="sans-serif" font-size="13" lengthAdjust="spacing" textLength="191" x="508" y="1834.1763">(セッションとリダイレクトURL)</text><polygon fill="#181818" points="258,1879.5078,248,1883.5078,258,1887.5078,254,1883.5078" style="stroke:#181818;stroke-width:1.0;"/><line style="stroke:#181818;stroke-width:1.0;stroke-dasharray:2.0,2.0;" x1="252" x2="485" y1="1883.5078" y2="1883.5078"/><text fill="#000000" font-family="sans-serif" font-size="13" lengthAdjust="spacing" textLength="103" x="264" y="1863.3091">リダイレクトURL</text><text fill="#000000" font-family="sans-serif" font-size="13" lengthAdjust="spacing" textLength="34" x="264" y="1878.4419">(301)</text><polygon fill="#181818" points="695,1908.6406,705,1912.6406,695,1916.6406,699,1912.6406" style="stroke:#181818;stroke-width:1.0;"/><line style="stroke:#181818;stroke-width:1.0;" x1="247" x2="701" y1="1912.6406" y2="1912.6406"/><text fill="#000000" font-family="sans-serif" font-size="13" lengthAdjust="spacing" textLength="78" x="254" y="1907.5747">リダイレクト</text><polygon fill="#181818" points="258,1937.7734,248,1941.7734,258,1945.7734,254,1941.7734" style="stroke:#181818;stroke-width:1.0;"/><line style="stroke:#181818;stroke-width:1.0;stroke-dasharray:2.0,2.0;" x1="252" x2="711" y1="1941.7734" y2="1941.7734"/><text fill="#000000" font-family="sans-serif" font-size="13" lengthAdjust="spacing" textLength="117" x="264" y="1936.7075">プラン登録画面表示</text><polygon fill="#181818" points="225,1966.9063,235,1970.9063,225,1974.9063,229,1970.9063" style="stroke:#181818;stroke-width:1.0;"/><line style="stroke:#181818;stroke-width:1.0;" x1="44" x2="231" y1="1970.9063" y2="1970.9063"/><text fill="#000000" font-family="sans-serif" font-size="13" lengthAdjust="spacing" textLength="91" x="51" y="1965.8403">カード情報入力</text><polygon fill="#181818" points="695,1996.0391,705,2000.0391,695,2004.0391,699,2000.0391" style="stroke:#181818;stroke-width:1.0;"/><line style="stroke:#181818;stroke-width:1.0;" x1="247" x2="701" y1="2000.0391" y2="2000.0391"/><text fill="#000000" font-family="sans-serif" font-size="13" lengthAdjust="spacing" textLength="85" x="254" y="1994.9731">プラン登録API</text><polygon fill="#181818" points="258,2010.0391,248,2014.0391,258,2018.0391,254,2014.0391" style="stroke:#181818;stroke-width:1.0;"/><line style="stroke:#181818;stroke-width:1.0;stroke-dasharray:2.0,2.0;" x1="252" x2="711" y1="2014.0391" y2="2014.0391"/><path d="M10,2029.0391 L76,2029.0391 L76,2036.1719 L66,2046.1719 L10,2046.1719 L10,2029.0391 " fill="#EEEEEE" style="stroke:#000000;stroke-width:1.5;"/><rect fill="none" height="497.0625" style="stroke:#000000;stroke-width:1.5;" width="630" x="10" y="2029.0391"/><text fill="#000000" font-family="sans-serif" font-size="13" font-weight="bold" lengthAdjust="spacing" textLength="21" x="25" y="2042.106">alt</text><text fill="#000000" font-family="sans-serif" font-size="11" font-weight="bold" lengthAdjust="spacing" textLength="142" x="91" y="2041.2495">[プラン登録に成功した場合]</text><polygon fill="#181818" points="469,2063.3047,479,2067.3047,469,2071.3047,473,2067.3047" style="stroke:#181818;stroke-width:1.0;"/><line style="stroke:#181818;stroke-width:1.0;" x1="247" x2="475" y1="2067.3047" y2="2067.3047"/><text fill="#000000" font-family="sans-serif" font-size="13" lengthAdjust="spacing" textLength="111" x="254" y="2062.2388">プラン登録結果API</text><line style="stroke:#181818;stroke-width:1.0;" x1="491" x2="533" y1="2111.5703" y2="2111.5703"/><line style="stroke:#181818;stroke-width:1.0;" x1="533" x2="533" y1="2111.5703" y2="2124.5703"/><line style="stroke:#181818;stroke-width:1.0;" x1="492" x2="533" y1="2124.5703" y2="2124.5703"/><polygon fill="#181818" points="502,2120.5703,492,2124.5703,502,2128.5703,498,2124.5703" style="stroke:#181818;stroke-width:1.0;"/><text fill="#000000" font-family="sans-serif" font-size="13" lengthAdjust="spacing" textLength="91" x="498" y="2091.3716">プラン結果登録</text><text fill="#000000" font-family="sans-serif" font-size="13" lengthAdjust="spacing" textLength="130" x="498" y="2106.5044">カード情報（ID）登録</text><line style="stroke:#181818;stroke-width:1.0;" x1="491" x2="533" y1="2153.7031" y2="2153.7031"/><line style="stroke:#181818;stroke-width:1.0;" x1="533" x2="533" y1="2153.7031" y2="2166.7031"/><line style="stroke:#181818;stroke-width:1.0;" x1="492" x2="533" y1="2166.7031" y2="2166.7031"/><polygon fill="#181818" points="502,2162.7031,492,2166.7031,502,2170.7031,498,2166.7031" style="stroke:#181818;stroke-width:1.0;"/><text fill="#000000" font-family="sans-serif" font-size="13" lengthAdjust="spacing" textLength="130" x="498" y="2148.6372">仮登録した内容を確定</text><polygon fill="#181818" points="258,2206.9688,248,2210.9688,258,2214.9688,254,2210.9688" style="stroke:#181818;stroke-width:1.0;"/><line style="stroke:#181818;stroke-width:1.0;stroke-dasharray:2.0,2.0;" x1="252" x2="485" y1="2210.9688" y2="2210.9688"/><text fill="#000000" font-family="sans-serif" font-size="13" lengthAdjust="spacing" textLength="156" x="264" y="2190.77">成功画面へのリダイレクト</text><text fill="#000000" font-family="sans-serif" font-size="13" lengthAdjust="spacing" textLength="34" x="264" y="2205.9028">(301)</text><line style="stroke:#181818;stroke-width:1.0;" x1="247" x2="289" y1="2255.2344" y2="2255.2344"/><line style="stroke:#181818;stroke-width:1.0;" x1="289" x2="289" y1="2255.2344" y2="2268.2344"/><line style="stroke:#181818;stroke-width:1.0;" x1="248" x2="289" y1="2268.2344" y2="2268.2344"/><polygon fill="#181818" points="258,2264.2344,248,2268.2344,258,2272.2344,254,2268.2344" style="stroke:#181818;stroke-width:1.0;"/><text fill="#000000" font-family="sans-serif" font-size="13" lengthAdjust="spacing" textLength="143" x="254" y="2235.0356">プラン登録成功画面表示</text><text fill="#000000" font-family="sans-serif" font-size="13" lengthAdjust="spacing" textLength="220" x="254" y="2250.1685">(実際にはCDNに対してリダイレクト)</text><line style="stroke:#000000;stroke-width:1.0;stroke-dasharray:2.0,2.0;" x1="10" x2="640" y1="2277.2344" y2="2277.2344"/><text fill="#000000" font-family="sans-serif" font-size="11" font-weight="bold" lengthAdjust="spacing" textLength="142" x="15" y="2287.4448">[プラン登録に失敗した場合]</text><polygon fill="#181818" points="469,2323.3047,479,2327.3047,469,2331.3047,473,2327.3047" style="stroke:#181818;stroke-width:1.0;"/><line style="stroke:#181818;stroke-width:1.0;" x1="247" x2="475" y1="2327.3047" y2="2327.3047"/><text fill="#000000" font-family="sans-serif" font-size="13" lengthAdjust="spacing" textLength="111" x="254" y="2307.106">プラン登録結果API</text><text fill="#000000" font-family="sans-serif" font-size="13" lengthAdjust="spacing" textLength="192" x="254" y="2322.2388">(クエリパラメータで失敗を連携)</text><polygon fill="#181818" points="258,2367.5703,248,2371.5703,258,2375.5703,254,2371.5703" style="stroke:#181818;stroke-width:1.0;"/><line style="stroke:#181818;stroke-width:1.0;stroke-dasharray:2.0,2.0;" x1="252" x2="485" y1="2371.5703" y2="2371.5703"/><text fill="#000000" font-family="sans-serif" font-size="13" lengthAdjust="spacing" textLength="156" x="264" y="2351.3716">失敗画面へのリダイレクト</text><text fill="#000000" font-family="sans-serif" font-size="13" lengthAdjust="spacing" textLength="34" x="264" y="2366.5044">(301)</text><line style="stroke:#181818;stroke-width:1.0;" x1="247" x2="289" y1="2400.7031" y2="2400.7031"/><line style="stroke:#181818;stroke-width:1.0;" x1="289" x2="289" y1="2400.7031" y2="2413.7031"/><line style="stroke:#181818;stroke-width:1.0;" x1="248" x2="289" y1="2413.7031" y2="2413.7031"/><polygon fill="#181818" points="258,2409.7031,248,2413.7031,258,2417.7031,254,2413.7031" style="stroke:#181818;stroke-width:1.0;"/><text fill="#000000" font-family="sans-serif" font-size="13" lengthAdjust="spacing" textLength="143" x="254" y="2395.6372">プラン登録失敗画面表示</text><polygon fill="#181818" points="225,2438.8359,235,2442.8359,225,2446.8359,229,2442.8359" style="stroke:#181818;stroke-width:1.0;"/><line style="stroke:#181818;stroke-width:1.0;" x1="44" x2="231" y1="2442.8359" y2="2442.8359"/><text fill="#000000" font-family="sans-serif" font-size="13" lengthAdjust="spacing" textLength="169" x="51" y="2437.77">「再度プランを選択」を押下</text><line style="stroke:#181818;stroke-width:1.0;" x1="247" x2="289" y1="2471.9688" y2="2471.9688"/><line style="stroke:#181818;stroke-width:1.0;" x1="289" x2="289" y1="2471.9688" y2="2484.9688"/><line style="stroke:#181818;stroke-width:1.0;" x1="248" x2="289" y1="2484.9688" y2="2484.9688"/><polygon fill="#181818" points="258,2480.9688,248,2484.9688,258,2488.9688,254,2484.9688" style="stroke:#181818;stroke-width:1.0;"/><text fill="#000000" font-family="sans-serif" font-size="13" lengthAdjust="spacing" textLength="117" x="254" y="2466.9028">プラン登録画面表示</text><rect fill="#FEFFDD" height="23" style="stroke:#181818;stroke-width:0.5;" width="112" x="252" y="2497.9688"/><text fill="#000000" font-family="sans-serif" font-size="13" lengthAdjust="spacing" textLength="104" x="256" y="2514.0356">プラン登録へ戻る</text><polygon fill="#181818" points="225,2550.2344,235,2554.2344,225,2558.2344,229,2554.2344" style="stroke:#181818;stroke-width:1.0;"/><line style="stroke:#181818;stroke-width:1.0;" x1="44" x2="231" y1="2554.2344" y2="2554.2344"/><text fill="#000000" font-family="sans-serif" font-size="13" lengthAdjust="spacing" textLength="104" x="51" y="2549.1685">「確認した」押下</text><path d="M10,2569.2344 L76,2569.2344 L76,2576.3672 L66,2586.3672 L10,2586.3672 L10,2569.2344 " fill="#EEEEEE" style="stroke:#000000;stroke-width:1.5;"/><rect fill="none" height="88.3984" style="stroke:#000000;stroke-width:1.5;" width="368" x="10" y="2569.2344"/><text fill="#000000" font-family="sans-serif" font-size="13" font-weight="bold" lengthAdjust="spacing" textLength="21" x="25" y="2582.3013">alt</text><text fill="#000000" font-family="sans-serif" font-size="11" font-weight="bold" lengthAdjust="spacing" textLength="120" x="91" y="2581.4448">[サイト初回登録の場合]</text><line style="stroke:#181818;stroke-width:1.0;" x1="247" x2="289" y1="2607.5" y2="2607.5"/><line style="stroke:#181818;stroke-width:1.0;" x1="289" x2="289" y1="2607.5" y2="2620.5"/><line style="stroke:#181818;stroke-width:1.0;" x1="248" x2="289" y1="2620.5" y2="2620.5"/><polygon fill="#181818" points="258,2616.5,248,2620.5,258,2624.5,254,2620.5" style="stroke:#181818;stroke-width:1.0;"/><text fill="#000000" font-family="sans-serif" font-size="13" lengthAdjust="spacing" textLength="112" x="254" y="2602.4341">Welcome画面表示</text><polygon fill="#181818" points="225,2645.6328,235,2649.6328,225,2653.6328,229,2649.6328" style="stroke:#181818;stroke-width:1.0;"/><line style="stroke:#181818;stroke-width:1.0;" x1="44" x2="231" y1="2649.6328" y2="2649.6328"/><text fill="#000000" font-family="sans-serif" font-size="13" lengthAdjust="spacing" textLength="129" x="51" y="2644.5669">「Homeへ進む」押下</text><line style="stroke:#181818;stroke-width:1.0;" x1="247" x2="289" y1="2685.7656" y2="2685.7656"/><line style="stroke:#181818;stroke-width:1.0;" x1="289" x2="289" y1="2685.7656" y2="2698.7656"/><line style="stroke:#181818;stroke-width:1.0;" x1="248" x2="289" y1="2698.7656" y2="2698.7656"/><polygon fill="#181818" points="258,2694.7656,248,2698.7656,258,2702.7656,254,2698.7656" style="stroke:#181818;stroke-width:1.0;"/><text fill="#000000" font-family="sans-serif" font-size="13" lengthAdjust="spacing" textLength="89" x="254" y="2680.6997">HOME画面表示</text><rect fill="#87CEEB" height="38" style="stroke:#181818;stroke-width:0.5;" width="227" x="252" y="2711.7656"/><text fill="#000000" font-family="sans-serif" font-size="13" lengthAdjust="spacing" textLength="208" x="256" y="2727.8325">ネームサーバ設定確認中の場合は、</text><text fill="#000000" font-family="sans-serif" font-size="13" lengthAdjust="spacing" textLength="219" x="256" y="2742.9653">確認中であることをHOME画面委表示</text><!--MD5=[2b93b986e35f0c7795c36122ca77e11e]
@startuml
title サイト追加

' アクター定義
actor "ユーザ" as user
participant "クライアント端末\n(PCまたはスマホ)" as device
participant "SonicHost API\n(CDN/API-Gateway)" as api
participant "決済サービス\n(Stripe)" as stripe


user -> device ++: HOME画面表示
rnote right of device #GreenYellow
    ログインフローを参照
end note
alt サイト未登録の場合
    device -> device : サイト名入力画面表示
else サイト登録済みの場合
    device -> device : ＨＯＭＥ画面表示
    user -> device : サイト設定確認選択
    device -> device : サイト設定確認画面表示
    user -> device : サイト追加押下
    device -> device : サイト追加押下
    device -> device : サイト名入力画面表示
end
user -> device : サイト名入力
device -> device : ドメイン方式選択画面表示
note right of device 
    ドメイン方式は以下から選択
    * 自分で取得したドメイン
    * Sonic Host提供のサブドメイン
    金額かえる？
    なら、カード入力のタイミング考慮要
end note
user -> device : ドメイン方式選択
alt 自前ドメイン方式の場合
    device -> device :ドメイン入力画面表示
    user -> device : ドメイン名入力
    user -> device : 「確定」押下
    device -> api ++ : ドメイン仮登録API
    device <- - api - - 
    device -> device : ネームサーバ表示画面
    user -> device : 確認
    user -> device : 「次へ」押下
else Sonic Hostサブドメイン方式の場合
    device -> api ++ : ドメイン一覧取得API
    device <- - api - - 
    device -> device : ドメイン選択・入力画面表示
    user -> device : ドメイン選択
    user -> device : サブドメイン入力
    user -> device : 「次へ」押下
end 
device -> device : サービスドメイン入力画面表示
user -> device : サイトドメイン入力
user -> device : メールドメイン入力
user -> device : 「確認」押下
device -> device : 入力内容確認画面表示
rnote right of device #SkyBlue
    変更したい項目があれば「変更」ボタンを押下。
    外套の変更画面に遷移し、「確認」ボタンを
    押下すると今の画面に戻る
end note
user -> device : 「確定」押下
device -> api ++ : サイト情報仮登録API
api -> api  : サイト情報を一次登録
api -> stripe ++ : Stripeで作成するProductsの登録
api <- - stripe - -
device <- - api - - 
device -> device : 支払いプラン情報画面表示
device -> api ++ : 支払いプラン情報取得API
device <- - api - - : 支払いプラン情報
user -> device : 支払い情報入力押下
device -> api ++ : 支払い情報登録開始要求
api -> stripe ++ : プラン情報取得
api <- - stripe - - : プラン情報
api -> stripe ++ : セッション生成
api <- - stripe - - : セッション情報\n(セッションとリダイレクトURL)
device <- - api - - : リダイレクトURL\n(301)
device -> stripe ++ : リダイレクト
device <- - stripe - - : プラン登録画面表示
user -> device : カード情報入力
device -> stripe ++ : プラン登録API
device <- - stripe - - 
alt プラン登録に成功した場合
    device -> api ++ : プラン登録結果API
    api -> api : プラン結果登録\nカード情報（ID）登録
    api -> api : 仮登録した内容を確定
    device <- - api - - : 成功画面へのリダイレクト\n(301)
    device -> device : プラン登録成功画面表示\n(実際にはCDNに対してリダイレクト)
else プラン登録に失敗した場合
    device -> api ++ : プラン登録結果API\n(クエリパラメータで失敗を連携)
    device <- - api - - : 失敗画面へのリダイレクト\n(301)
    device -> device : プラン登録失敗画面表示
    user -> device : 「再度プランを選択」を押下
    device -> device : プラン登録画面表示
    rnote right of device 
        プラン登録へ戻る
    end note
end 
user -> device : 「確認した」押下

alt サイト初回登録の場合
    device -> device : Welcome画面表示
    user -> device : 「Homeへ進む」押下
end 
device -> device : HOME画面表示
rnote right of device #SkyBlue
    ネームサーバ設定確認中の場合は、
    確認中であることをHOME画面委表示
end note
@enduml

@startuml
title サイト追加

actor "ユーザ" as user
participant "クライアント端末\n(PCまたはスマホ)" as device
participant "SonicHost API\n(CDN/API-Gateway)" as api
participant "決済サービス\n(Stripe)" as stripe


user -> device ++: HOME画面表示
rnote right of device #GreenYellow
    ログインフローを参照
end note
alt サイト未登録の場合
    device -> device : サイト名入力画面表示
else サイト登録済みの場合
    device -> device : ＨＯＭＥ画面表示
    user -> device : サイト設定確認選択
    device -> device : サイト設定確認画面表示
    user -> device : サイト追加押下
    device -> device : サイト追加押下
    device -> device : サイト名入力画面表示
end
user -> device : サイト名入力
device -> device : ドメイン方式選択画面表示
note right of device 
    ドメイン方式は以下から選択
    * 自分で取得したドメイン
    * Sonic Host提供のサブドメイン
    金額かえる？
    なら、カード入力のタイミング考慮要
end note
user -> device : ドメイン方式選択
alt 自前ドメイン方式の場合
    device -> device :ドメイン入力画面表示
    user -> device : ドメイン名入力
    user -> device : 「確定」押下
    device -> api ++ : ドメイン仮登録API
    device <- - api - - 
    device -> device : ネームサーバ表示画面
    user -> device : 確認
    user -> device : 「次へ」押下
else Sonic Hostサブドメイン方式の場合
    device -> api ++ : ドメイン一覧取得API
    device <- - api - - 
    device -> device : ドメイン選択・入力画面表示
    user -> device : ドメイン選択
    user -> device : サブドメイン入力
    user -> device : 「次へ」押下
end 
device -> device : サービスドメイン入力画面表示
user -> device : サイトドメイン入力
user -> device : メールドメイン入力
user -> device : 「確認」押下
device -> device : 入力内容確認画面表示
rnote right of device #SkyBlue
    変更したい項目があれば「変更」ボタンを押下。
    外套の変更画面に遷移し、「確認」ボタンを
    押下すると今の画面に戻る
end note
user -> device : 「確定」押下
device -> api ++ : サイト情報仮登録API
api -> api  : サイト情報を一次登録
api -> stripe ++ : Stripeで作成するProductsの登録
api <- - stripe - -
device <- - api - - 
device -> device : 支払いプラン情報画面表示
device -> api ++ : 支払いプラン情報取得API
device <- - api - - : 支払いプラン情報
user -> device : 支払い情報入力押下
device -> api ++ : 支払い情報登録開始要求
api -> stripe ++ : プラン情報取得
api <- - stripe - - : プラン情報
api -> stripe ++ : セッション生成
api <- - stripe - - : セッション情報\n(セッションとリダイレクトURL)
device <- - api - - : リダイレクトURL\n(301)
device -> stripe ++ : リダイレクト
device <- - stripe - - : プラン登録画面表示
user -> device : カード情報入力
device -> stripe ++ : プラン登録API
device <- - stripe - - 
alt プラン登録に成功した場合
    device -> api ++ : プラン登録結果API
    api -> api : プラン結果登録\nカード情報（ID）登録
    api -> api : 仮登録した内容を確定
    device <- - api - - : 成功画面へのリダイレクト\n(301)
    device -> device : プラン登録成功画面表示\n(実際にはCDNに対してリダイレクト)
else プラン登録に失敗した場合
    device -> api ++ : プラン登録結果API\n(クエリパラメータで失敗を連携)
    device <- - api - - : 失敗画面へのリダイレクト\n(301)
    device -> device : プラン登録失敗画面表示
    user -> device : 「再度プランを選択」を押下
    device -> device : プラン登録画面表示
    rnote right of device 
        プラン登録へ戻る
    end note
end 
user -> device : 「確認した」押下

alt サイト初回登録の場合
    device -> device : Welcome画面表示
    user -> device : 「Homeへ進む」押下
end 
device -> device : HOME画面表示
rnote right of device #SkyBlue
    ネームサーバ設定確認中の場合は、
    確認中であることをHOME画面委表示
end note
@enduml

PlantUML version 1.2022.14beta7(Unknown compile time)
(GPL source distribution)
Java Runtime: Java(TM) SE Runtime Environment
JVM: Java HotSpot(TM) 64-Bit Server VM
Default Encoding: UTF-8
Language: en
Country: US
--></g></svg>