<?xml version="1.0" encoding="UTF-8" standalone="no"?><svg xmlns="http://www.w3.org/2000/svg" xmlns:xlink="http://www.w3.org/1999/xlink" contentStyleType="text/css" height="2255px" preserveAspectRatio="none" style="width:772px;height:2255px;background:#FFFFFF;" version="1.1" viewBox="0 0 772 2255" width="772px" zoomAndPan="magnify"><defs/><g><text fill="#000000" font-family="sans-serif" font-size="14" font-weight="bold" lengthAdjust="spacing" textLength="75" x="347.5" y="27.9951">サイト追加</text><rect fill="#FFFFFF" height="2015.9141" style="stroke:#181818;stroke-width:1.0;" width="10" x="237" y="149.7266"/><rect fill="#FFFFFF" height="741.8594" style="stroke:#181818;stroke-width:1.0;" width="10" x="242" y="1423.7813"/><rect fill="#FFFFFF" height="14" style="stroke:#181818;stroke-width:1.0;" width="10" x="486" y="664.5938"/><rect fill="#FFFFFF" height="99.2656" style="stroke:#181818;stroke-width:1.0;" width="10" x="486" y="931.6563"/><rect fill="#FFFFFF" height="29.1328" style="stroke:#181818;stroke-width:1.0;" width="10" x="486" y="1102.1875"/><rect fill="#FFFFFF" height="175.9297" style="stroke:#181818;stroke-width:1.0;" width="10" x="486" y="1189.5859"/><rect fill="#FFFFFF" height="143.6641" style="stroke:#181818;stroke-width:1.0;" width="10" x="486" y="1579.3125"/><rect fill="#FFFFFF" height="44.2656" style="stroke:#181818;stroke-width:1.0;" width="10" x="486" y="1839.3125"/><rect fill="#FFFFFF" height="14" style="stroke:#181818;stroke-width:1.0;" width="10" x="712" y="1002.9219"/><rect fill="#FFFFFF" height="29.1328" style="stroke:#181818;stroke-width:1.0;" width="10" x="712" y="1218.7188"/><rect fill="#FFFFFF" height="44.2656" style="stroke:#181818;stroke-width:1.0;" width="10" x="712" y="1276.9844"/><rect fill="#FFFFFF" height="59.1328" style="stroke:#181818;stroke-width:1.0;" width="10" x="712" y="1394.6484"/><rect fill="#FFFFFF" height="14" style="stroke:#181818;stroke-width:1.0;" width="10" x="712" y="1512.0469"/><rect fill="none" height="216.6016" style="stroke:#000000;stroke-width:1.5;" width="399" x="10" y="197.8594"/><rect fill="none" height="162.4688" style="stroke:#000000;stroke-width:1.5;" width="566.5" x="10" y="582.3906"/><rect fill="none" height="497.0625" style="stroke:#000000;stroke-width:1.5;" width="635" x="10" y="1541.0469"/><line style="stroke:#181818;stroke-width:0.5;stroke-dasharray:5.0,5.0;" x1="44" x2="44" y1="118.5938" y2="2174.6406"/><line style="stroke:#181818;stroke-width:0.5;stroke-dasharray:5.0,5.0;" x1="241.5" x2="241.5" y1="118.5938" y2="2174.6406"/><line style="stroke:#181818;stroke-width:0.5;stroke-dasharray:5.0,5.0;" x1="490.5" x2="490.5" y1="118.5938" y2="2174.6406"/><line style="stroke:#181818;stroke-width:0.5;stroke-dasharray:5.0,5.0;" x1="717" x2="717" y1="118.5938" y2="2174.6406"/><text fill="#000000" font-family="sans-serif" font-size="14" lengthAdjust="spacing" textLength="42" x="20" y="115.292">ユーザ</text><ellipse cx="44" cy="50.7969" fill="#E2E2F0" rx="8" ry="8" style="stroke:#181818;stroke-width:0.5;"/><path d="M44,58.7969 L44,85.7969 M31,66.7969 L57,66.7969 M44,85.7969 L31,100.7969 M44,85.7969 L57,100.7969 " fill="none" style="stroke:#181818;stroke-width:0.5;"/><text fill="#000000" font-family="sans-serif" font-size="14" lengthAdjust="spacing" textLength="42" x="20" y="2186.6357">ユーザ</text><ellipse cx="44" cy="2198.4375" fill="#E2E2F0" rx="8" ry="8" style="stroke:#181818;stroke-width:0.5;"/><path d="M44,2206.4375 L44,2233.4375 M31,2214.4375 L57,2214.4375 M44,2233.4375 L31,2248.4375 M44,2233.4375 L57,2248.4375 " fill="none" style="stroke:#181818;stroke-width:0.5;"/><rect fill="#E2E2F0" height="46.5938" rx="2.5" ry="2.5" style="stroke:#181818;stroke-width:0.5;" width="127" x="178.5" y="71"/><text fill="#000000" font-family="sans-serif" font-size="14" lengthAdjust="spacing" textLength="112" x="186" y="90.9951">クライアント端末</text><text fill="#000000" font-family="sans-serif" font-size="14" lengthAdjust="spacing" textLength="113" x="185.5" y="107.292">(PCまたはスマホ)</text><rect fill="#E2E2F0" height="46.5938" rx="2.5" ry="2.5" style="stroke:#181818;stroke-width:0.5;" width="127" x="178.5" y="2173.6406"/><text fill="#000000" font-family="sans-serif" font-size="14" lengthAdjust="spacing" textLength="112" x="186" y="2193.6357">クライアント端末</text><text fill="#000000" font-family="sans-serif" font-size="14" lengthAdjust="spacing" textLength="113" x="185.5" y="2209.9326">(PCまたはスマホ)</text><rect fill="#E2E2F0" height="46.5938" rx="2.5" ry="2.5" style="stroke:#181818;stroke-width:0.5;" width="151" x="415.5" y="71"/><text fill="#000000" font-family="sans-serif" font-size="14" lengthAdjust="spacing" textLength="99" x="441.5" y="90.9951">SonicHost API</text><text fill="#000000" font-family="sans-serif" font-size="14" lengthAdjust="spacing" textLength="137" x="422.5" y="107.292">(CDN/API-Gateway)</text><rect fill="#E2E2F0" height="46.5938" rx="2.5" ry="2.5" style="stroke:#181818;stroke-width:0.5;" width="151" x="415.5" y="2173.6406"/><text fill="#000000" font-family="sans-serif" font-size="14" lengthAdjust="spacing" textLength="99" x="441.5" y="2193.6357">SonicHost API</text><text fill="#000000" font-family="sans-serif" font-size="14" lengthAdjust="spacing" textLength="137" x="422.5" y="2209.9326">(CDN/API-Gateway)</text><rect fill="#E2E2F0" height="46.5938" rx="2.5" ry="2.5" style="stroke:#181818;stroke-width:0.5;" width="98" x="668" y="71"/><text fill="#000000" font-family="sans-serif" font-size="14" lengthAdjust="spacing" textLength="84" x="675" y="90.9951">決済サービス</text><text fill="#000000" font-family="sans-serif" font-size="14" lengthAdjust="spacing" textLength="55" x="689.5" y="107.292">(Stripe)</text><rect fill="#E2E2F0" height="46.5938" rx="2.5" ry="2.5" style="stroke:#181818;stroke-width:0.5;" width="98" x="668" y="2173.6406"/><text fill="#000000" font-family="sans-serif" font-size="14" lengthAdjust="spacing" textLength="84" x="675" y="2193.6357">決済サービス</text><text fill="#000000" font-family="sans-serif" font-size="14" lengthAdjust="spacing" textLength="55" x="689.5" y="2209.9326">(Stripe)</text><rect fill="#FFFFFF" height="2015.9141" style="stroke:#181818;stroke-width:1.0;" width="10" x="237" y="149.7266"/><rect fill="#FFFFFF" height="741.8594" style="stroke:#181818;stroke-width:1.0;" width="10" x="242" y="1423.7813"/><rect fill="#FFFFFF" height="14" style="stroke:#181818;stroke-width:1.0;" width="10" x="486" y="664.5938"/><rect fill="#FFFFFF" height="99.2656" style="stroke:#181818;stroke-width:1.0;" width="10" x="486" y="931.6563"/><rect fill="#FFFFFF" height="29.1328" style="stroke:#181818;stroke-width:1.0;" width="10" x="486" y="1102.1875"/><rect fill="#FFFFFF" height="175.9297" style="stroke:#181818;stroke-width:1.0;" width="10" x="486" y="1189.5859"/><rect fill="#FFFFFF" height="143.6641" style="stroke:#181818;stroke-width:1.0;" width="10" x="486" y="1579.3125"/><rect fill="#FFFFFF" height="44.2656" style="stroke:#181818;stroke-width:1.0;" width="10" x="486" y="1839.3125"/><rect fill="#FFFFFF" height="14" style="stroke:#181818;stroke-width:1.0;" width="10" x="712" y="1002.9219"/><rect fill="#FFFFFF" height="29.1328" style="stroke:#181818;stroke-width:1.0;" width="10" x="712" y="1218.7188"/><rect fill="#FFFFFF" height="44.2656" style="stroke:#181818;stroke-width:1.0;" width="10" x="712" y="1276.9844"/><rect fill="#FFFFFF" height="59.1328" style="stroke:#181818;stroke-width:1.0;" width="10" x="712" y="1394.6484"/><rect fill="#FFFFFF" height="14" style="stroke:#181818;stroke-width:1.0;" width="10" x="712" y="1512.0469"/><polygon fill="#181818" points="225,145.7266,235,149.7266,225,153.7266,229,149.7266" style="stroke:#181818;stroke-width:1.0;"/><line style="stroke:#181818;stroke-width:1.0;" x1="44" x2="231" y1="149.7266" y2="149.7266"/><text fill="#000000" font-family="sans-serif" font-size="13" lengthAdjust="spacing" textLength="143" x="51" y="144.6606">コンテンツ更新画面表示</text><rect fill="#ADFF2F" height="23" style="stroke:#181818;stroke-width:0.5;" width="138" x="252" y="162.7266"/><text fill="#000000" font-family="sans-serif" font-size="13" lengthAdjust="spacing" textLength="130" x="256" y="178.7935">ログインフローを参照</text><path d="M10,197.8594 L76,197.8594 L76,204.9922 L66,214.9922 L10,214.9922 L10,197.8594 " fill="#EEEEEE" style="stroke:#000000;stroke-width:1.5;"/><rect fill="none" height="216.6016" style="stroke:#000000;stroke-width:1.5;" width="399" x="10" y="197.8594"/><text fill="#000000" font-family="sans-serif" font-size="13" font-weight="bold" lengthAdjust="spacing" textLength="21" x="25" y="210.9263">alt</text><text fill="#000000" font-family="sans-serif" font-size="11" font-weight="bold" lengthAdjust="spacing" textLength="109" x="91" y="210.0698">[サイト未登録の場合]</text><line style="stroke:#181818;stroke-width:1.0;" x1="247" x2="289" y1="236.125" y2="236.125"/><line style="stroke:#181818;stroke-width:1.0;" x1="289" x2="289" y1="236.125" y2="249.125"/><line style="stroke:#181818;stroke-width:1.0;" x1="248" x2="289" y1="249.125" y2="249.125"/><polygon fill="#181818" points="258,245.125,248,249.125,258,253.125,254,249.125" style="stroke:#181818;stroke-width:1.0;"/><text fill="#000000" font-family="sans-serif" font-size="13" lengthAdjust="spacing" textLength="143" x="254" y="231.0591">サイト情報入力画面表示</text><line style="stroke:#000000;stroke-width:1.0;stroke-dasharray:2.0,2.0;" x1="10" x2="409" y1="258.125" y2="258.125"/><text fill="#000000" font-family="sans-serif" font-size="11" font-weight="bold" lengthAdjust="spacing" textLength="120" x="15" y="268.3354">[サイト登録済みの場合]</text><line style="stroke:#181818;stroke-width:1.0;" x1="247" x2="289" y1="293.0625" y2="293.0625"/><line style="stroke:#181818;stroke-width:1.0;" x1="289" x2="289" y1="293.0625" y2="306.0625"/><line style="stroke:#181818;stroke-width:1.0;" x1="248" x2="289" y1="306.0625" y2="306.0625"/><polygon fill="#181818" points="258,302.0625,248,306.0625,258,310.0625,254,306.0625" style="stroke:#181818;stroke-width:1.0;"/><text fill="#000000" font-family="sans-serif" font-size="13" lengthAdjust="spacing" textLength="143" x="254" y="287.9966">コンテンツ更新画面表示</text><polygon fill="#181818" points="225,331.1953,235,335.1953,225,339.1953,229,335.1953" style="stroke:#181818;stroke-width:1.0;"/><line style="stroke:#181818;stroke-width:1.0;" x1="44" x2="231" y1="335.1953" y2="335.1953"/><text fill="#000000" font-family="sans-serif" font-size="13" lengthAdjust="spacing" textLength="117" x="51" y="330.1294">ユーザメニュー押下</text><polygon fill="#181818" points="225,360.3281,235,364.3281,225,368.3281,229,364.3281" style="stroke:#181818;stroke-width:1.0;"/><line style="stroke:#181818;stroke-width:1.0;" x1="44" x2="231" y1="364.3281" y2="364.3281"/><text fill="#000000" font-family="sans-serif" font-size="13" lengthAdjust="spacing" textLength="104" x="51" y="359.2622">サイトを追加押下</text><line style="stroke:#181818;stroke-width:1.0;" x1="247" x2="289" y1="393.4609" y2="393.4609"/><line style="stroke:#181818;stroke-width:1.0;" x1="289" x2="289" y1="393.4609" y2="406.4609"/><line style="stroke:#181818;stroke-width:1.0;" x1="248" x2="289" y1="406.4609" y2="406.4609"/><polygon fill="#181818" points="258,402.4609,248,406.4609,258,410.4609,254,406.4609" style="stroke:#181818;stroke-width:1.0;"/><text fill="#000000" font-family="sans-serif" font-size="13" lengthAdjust="spacing" textLength="143" x="254" y="388.395">サイト情報入力画面表示</text><polygon fill="#181818" points="225,438.5938,235,442.5938,225,446.5938,229,442.5938" style="stroke:#181818;stroke-width:1.0;"/><line style="stroke:#181818;stroke-width:1.0;" x1="44" x2="231" y1="442.5938" y2="442.5938"/><text fill="#000000" font-family="sans-serif" font-size="13" lengthAdjust="spacing" textLength="78" x="51" y="437.5278">サイト名入力</text><polygon fill="#181818" points="225,467.7266,235,471.7266,225,475.7266,229,471.7266" style="stroke:#181818;stroke-width:1.0;"/><line style="stroke:#181818;stroke-width:1.0;" x1="44" x2="231" y1="471.7266" y2="471.7266"/><text fill="#000000" font-family="sans-serif" font-size="13" lengthAdjust="spacing" textLength="104" x="51" y="466.6606">ドメイン方式選択</text><path d="M252,484.7266 L252,569.7266 L494,569.7266 L494,494.7266 L484,484.7266 L252,484.7266 " fill="#FEFFDD" style="stroke:#181818;stroke-width:0.5;"/><path d="M484,484.7266 L484,494.7266 L494,494.7266 L484,484.7266 " fill="#FEFFDD" style="stroke:#181818;stroke-width:0.5;"/><text fill="#000000" font-family="sans-serif" font-size="13" lengthAdjust="spacing" textLength="169" x="258" y="501.7935">ドメイン方式は以下から選択</text><ellipse cx="263.5" cy="512.4922" fill="#000000" rx="2.5" ry="2.5" style="stroke:#000000;stroke-width:0.0;"/><text fill="#000000" font-family="sans-serif" font-size="13" lengthAdjust="spacing" textLength="143" x="270" y="516.9263">自分で取得したドメイン</text><ellipse cx="263.5" cy="527.625" fill="#000000" rx="2.5" ry="2.5" style="stroke:#000000;stroke-width:0.0;"/><text fill="#000000" font-family="sans-serif" font-size="13" lengthAdjust="spacing" textLength="184" x="270" y="532.0591">Sonic Host提供のサブドメイン</text><text fill="#000000" font-family="sans-serif" font-size="13" lengthAdjust="spacing" textLength="78" x="258" y="547.1919">金額かえる？</text><text fill="#000000" font-family="sans-serif" font-size="13" lengthAdjust="spacing" textLength="221" x="258" y="562.3247">なら、カード入力のタイミング考慮要</text><path d="M10,582.3906 L76,582.3906 L76,589.5234 L66,599.5234 L10,599.5234 L10,582.3906 " fill="#EEEEEE" style="stroke:#000000;stroke-width:1.5;"/><rect fill="none" height="162.4688" style="stroke:#000000;stroke-width:1.5;" width="566.5" x="10" y="582.3906"/><text fill="#000000" font-family="sans-serif" font-size="13" font-weight="bold" lengthAdjust="spacing" textLength="21" x="25" y="595.4575">alt</text><text fill="#000000" font-family="sans-serif" font-size="11" font-weight="bold" lengthAdjust="spacing" textLength="131" x="91" y="594.6011">[自前ドメイン方式の場合]</text><polygon fill="#181818" points="225,616.6563,235,620.6563,225,624.6563,229,620.6563" style="stroke:#181818;stroke-width:1.0;"/><line style="stroke:#181818;stroke-width:1.0;" x1="44" x2="231" y1="620.6563" y2="620.6563"/><text fill="#000000" font-family="sans-serif" font-size="13" lengthAdjust="spacing" textLength="91" x="51" y="615.5903">ドメイン名入力</text><line style="stroke:#000000;stroke-width:1.0;stroke-dasharray:2.0,2.0;" x1="10" x2="576.5" y1="629.6563" y2="629.6563"/><text fill="#000000" font-family="sans-serif" font-size="11" font-weight="bold" lengthAdjust="spacing" textLength="203" x="15" y="639.8667">[Sonic Hostサブドメイン方式の場合]</text><polygon fill="#181818" points="474,660.5938,484,664.5938,474,668.5938,478,664.5938" style="stroke:#181818;stroke-width:1.0;"/><line style="stroke:#181818;stroke-width:1.0;" x1="247" x2="480" y1="664.5938" y2="664.5938"/><text fill="#000000" font-family="sans-serif" font-size="13" lengthAdjust="spacing" textLength="124" x="254" y="659.5278">ドメイン一覧取得API</text><polygon fill="#181818" points="258,674.5938,248,678.5938,258,682.5938,254,678.5938" style="stroke:#181818;stroke-width:1.0;"/><line style="stroke:#181818;stroke-width:1.0;stroke-dasharray:2.0,2.0;" x1="252" x2="490" y1="678.5938" y2="678.5938"/><polygon fill="#181818" points="225,703.7266,235,707.7266,225,711.7266,229,707.7266" style="stroke:#181818;stroke-width:1.0;"/><line style="stroke:#181818;stroke-width:1.0;" x1="44" x2="231" y1="707.7266" y2="707.7266"/><text fill="#000000" font-family="sans-serif" font-size="13" lengthAdjust="spacing" textLength="78" x="51" y="702.6606">ドメイン選択</text><polygon fill="#181818" points="225,732.8594,235,736.8594,225,740.8594,229,736.8594" style="stroke:#181818;stroke-width:1.0;"/><line style="stroke:#181818;stroke-width:1.0;" x1="44" x2="231" y1="736.8594" y2="736.8594"/><text fill="#000000" font-family="sans-serif" font-size="13" lengthAdjust="spacing" textLength="104" x="51" y="731.7935">サブドメイン入力</text><polygon fill="#181818" points="225,768.9922,235,772.9922,225,776.9922,229,772.9922" style="stroke:#181818;stroke-width:1.0;"/><line style="stroke:#181818;stroke-width:1.0;" x1="44" x2="231" y1="772.9922" y2="772.9922"/><text fill="#000000" font-family="sans-serif" font-size="13" lengthAdjust="spacing" textLength="117" x="51" y="767.9263">サイトドメイン入力</text><polygon fill="#181818" points="225,798.125,235,802.125,225,806.125,229,802.125" style="stroke:#181818;stroke-width:1.0;"/><line style="stroke:#181818;stroke-width:1.0;" x1="44" x2="231" y1="802.125" y2="802.125"/><text fill="#000000" font-family="sans-serif" font-size="13" lengthAdjust="spacing" textLength="117" x="51" y="797.0591">メールドメイン入力</text><polygon fill="#181818" points="225,827.2578,235,831.2578,225,835.2578,229,831.2578" style="stroke:#181818;stroke-width:1.0;"/><line style="stroke:#181818;stroke-width:1.0;" x1="44" x2="231" y1="831.2578" y2="831.2578"/><text fill="#000000" font-family="sans-serif" font-size="13" lengthAdjust="spacing" textLength="91" x="51" y="826.1919">「確認へ」押下</text><line style="stroke:#181818;stroke-width:1.0;" x1="247" x2="289" y1="860.3906" y2="860.3906"/><line style="stroke:#181818;stroke-width:1.0;" x1="289" x2="289" y1="860.3906" y2="873.3906"/><line style="stroke:#181818;stroke-width:1.0;" x1="248" x2="289" y1="873.3906" y2="873.3906"/><polygon fill="#181818" points="258,869.3906,248,873.3906,258,877.3906,254,873.3906" style="stroke:#181818;stroke-width:1.0;"/><text fill="#000000" font-family="sans-serif" font-size="13" lengthAdjust="spacing" textLength="130" x="254" y="855.3247">入力内容確認画面表示</text><polygon fill="#181818" points="225,898.5234,235,902.5234,225,906.5234,229,902.5234" style="stroke:#181818;stroke-width:1.0;"/><line style="stroke:#181818;stroke-width:1.0;" x1="44" x2="231" y1="902.5234" y2="902.5234"/><text fill="#000000" font-family="sans-serif" font-size="13" lengthAdjust="spacing" textLength="130" x="51" y="897.4575">「確定して次へ」押下</text><polygon fill="#181818" points="474,927.6563,484,931.6563,474,935.6563,478,931.6563" style="stroke:#181818;stroke-width:1.0;"/><line style="stroke:#181818;stroke-width:1.0;" x1="247" x2="480" y1="931.6563" y2="931.6563"/><text fill="#000000" font-family="sans-serif" font-size="13" lengthAdjust="spacing" textLength="124" x="254" y="926.5903">サイト情報仮登録API</text><line style="stroke:#181818;stroke-width:1.0;" x1="496" x2="538" y1="960.7891" y2="960.7891"/><line style="stroke:#181818;stroke-width:1.0;" x1="538" x2="538" y1="960.7891" y2="973.7891"/><line style="stroke:#181818;stroke-width:1.0;" x1="497" x2="538" y1="973.7891" y2="973.7891"/><polygon fill="#181818" points="507,969.7891,497,973.7891,507,977.7891,503,973.7891" style="stroke:#181818;stroke-width:1.0;"/><text fill="#000000" font-family="sans-serif" font-size="13" lengthAdjust="spacing" textLength="130" x="503" y="955.7231">サイト情報を一時登録</text><polygon fill="#181818" points="700,998.9219,710,1002.9219,700,1006.9219,704,1002.9219" style="stroke:#181818;stroke-width:1.0;"/><line style="stroke:#181818;stroke-width:1.0;" x1="496" x2="706" y1="1002.9219" y2="1002.9219"/><text fill="#000000" font-family="sans-serif" font-size="13" lengthAdjust="spacing" textLength="197" x="503" y="997.856">Stripeで作成するProductsの登録</text><polygon fill="#181818" points="507,1012.9219,497,1016.9219,507,1020.9219,503,1016.9219" style="stroke:#181818;stroke-width:1.0;"/><line style="stroke:#181818;stroke-width:1.0;stroke-dasharray:2.0,2.0;" x1="501" x2="716" y1="1016.9219" y2="1016.9219"/><polygon fill="#181818" points="258,1026.9219,248,1030.9219,258,1034.9219,254,1030.9219" style="stroke:#181818;stroke-width:1.0;"/><line style="stroke:#181818;stroke-width:1.0;stroke-dasharray:2.0,2.0;" x1="252" x2="490" y1="1030.9219" y2="1030.9219"/><line style="stroke:#181818;stroke-width:1.0;" x1="247" x2="289" y1="1060.0547" y2="1060.0547"/><line style="stroke:#181818;stroke-width:1.0;" x1="289" x2="289" y1="1060.0547" y2="1073.0547"/><line style="stroke:#181818;stroke-width:1.0;" x1="248" x2="289" y1="1073.0547" y2="1073.0547"/><polygon fill="#181818" points="258,1069.0547,248,1073.0547,258,1077.0547,254,1073.0547" style="stroke:#181818;stroke-width:1.0;"/><text fill="#000000" font-family="sans-serif" font-size="13" lengthAdjust="spacing" textLength="156" x="254" y="1054.9888">支払いプラン情報画面表示</text><polygon fill="#181818" points="474,1098.1875,484,1102.1875,474,1106.1875,478,1102.1875" style="stroke:#181818;stroke-width:1.0;"/><line style="stroke:#181818;stroke-width:1.0;" x1="247" x2="480" y1="1102.1875" y2="1102.1875"/><text fill="#000000" font-family="sans-serif" font-size="13" lengthAdjust="spacing" textLength="150" x="254" y="1097.1216">支払いプラン情報取得API</text><polygon fill="#181818" points="258,1127.3203,248,1131.3203,258,1135.3203,254,1131.3203" style="stroke:#181818;stroke-width:1.0;"/><line style="stroke:#181818;stroke-width:1.0;stroke-dasharray:2.0,2.0;" x1="252" x2="490" y1="1131.3203" y2="1131.3203"/><text fill="#000000" font-family="sans-serif" font-size="13" lengthAdjust="spacing" textLength="104" x="264" y="1126.2544">支払いプラン情報</text><polygon fill="#181818" points="225,1156.4531,235,1160.4531,225,1164.4531,229,1160.4531" style="stroke:#181818;stroke-width:1.0;"/><line style="stroke:#181818;stroke-width:1.0;" x1="44" x2="231" y1="1160.4531" y2="1160.4531"/><text fill="#000000" font-family="sans-serif" font-size="13" lengthAdjust="spacing" textLength="117" x="51" y="1155.3872">支払い情報入力押下</text><polygon fill="#181818" points="474,1185.5859,484,1189.5859,474,1193.5859,478,1189.5859" style="stroke:#181818;stroke-width:1.0;"/><line style="stroke:#181818;stroke-width:1.0;" x1="247" x2="480" y1="1189.5859" y2="1189.5859"/><text fill="#000000" font-family="sans-serif" font-size="13" lengthAdjust="spacing" textLength="143" x="254" y="1184.52">支払い情報登録開始要求</text><polygon fill="#181818" points="700,1214.7188,710,1218.7188,700,1222.7188,704,1218.7188" style="stroke:#181818;stroke-width:1.0;"/><line style="stroke:#181818;stroke-width:1.0;" x1="496" x2="706" y1="1218.7188" y2="1218.7188"/><text fill="#000000" font-family="sans-serif" font-size="13" lengthAdjust="spacing" textLength="91" x="503" y="1213.6528">プラン情報取得</text><polygon fill="#181818" points="507,1243.8516,497,1247.8516,507,1251.8516,503,1247.8516" style="stroke:#181818;stroke-width:1.0;"/><line style="stroke:#181818;stroke-width:1.0;stroke-dasharray:2.0,2.0;" x1="501" x2="716" y1="1247.8516" y2="1247.8516"/><text fill="#000000" font-family="sans-serif" font-size="13" lengthAdjust="spacing" textLength="65" x="513" y="1242.7856">プラン情報</text><polygon fill="#181818" points="700,1272.9844,710,1276.9844,700,1280.9844,704,1276.9844" style="stroke:#181818;stroke-width:1.0;"/><line style="stroke:#181818;stroke-width:1.0;" x1="496" x2="706" y1="1276.9844" y2="1276.9844"/><text fill="#000000" font-family="sans-serif" font-size="13" lengthAdjust="spacing" textLength="91" x="503" y="1271.9185">セッション生成</text><polygon fill="#181818" points="507,1317.25,497,1321.25,507,1325.25,503,1321.25" style="stroke:#181818;stroke-width:1.0;"/><line style="stroke:#181818;stroke-width:1.0;stroke-dasharray:2.0,2.0;" x1="501" x2="716" y1="1321.25" y2="1321.25"/><text fill="#000000" font-family="sans-serif" font-size="13" lengthAdjust="spacing" textLength="91" x="513" y="1301.0513">セッション情報</text><text fill="#000000" font-family="sans-serif" font-size="13" lengthAdjust="spacing" textLength="191" x="513" y="1316.1841">(セッションとリダイレクトURL)</text><polygon fill="#181818" points="258,1361.5156,248,1365.5156,258,1369.5156,254,1365.5156" style="stroke:#181818;stroke-width:1.0;"/><line style="stroke:#181818;stroke-width:1.0;stroke-dasharray:2.0,2.0;" x1="252" x2="490" y1="1365.5156" y2="1365.5156"/><text fill="#000000" font-family="sans-serif" font-size="13" lengthAdjust="spacing" textLength="103" x="264" y="1345.3169">リダイレクトURL</text><text fill="#000000" font-family="sans-serif" font-size="13" lengthAdjust="spacing" textLength="34" x="264" y="1360.4497">(301)</text><polygon fill="#181818" points="700,1390.6484,710,1394.6484,700,1398.6484,704,1394.6484" style="stroke:#181818;stroke-width:1.0;"/><line style="stroke:#181818;stroke-width:1.0;" x1="247" x2="706" y1="1394.6484" y2="1394.6484"/><text fill="#000000" font-family="sans-serif" font-size="13" lengthAdjust="spacing" textLength="78" x="254" y="1389.5825">リダイレクト</text><polygon fill="#181818" points="263,1419.7813,253,1423.7813,263,1427.7813,259,1423.7813" style="stroke:#181818;stroke-width:1.0;"/><line style="stroke:#181818;stroke-width:1.0;stroke-dasharray:2.0,2.0;" x1="257" x2="711" y1="1423.7813" y2="1423.7813"/><text fill="#000000" font-family="sans-serif" font-size="13" lengthAdjust="spacing" textLength="117" x="269" y="1418.7153">プラン登録画面表示</text><polygon fill="#181818" points="230,1478.9141,240,1482.9141,230,1486.9141,234,1482.9141" style="stroke:#181818;stroke-width:1.0;"/><line style="stroke:#181818;stroke-width:1.0;" x1="44" x2="236" y1="1482.9141" y2="1482.9141"/><text fill="#000000" font-family="sans-serif" font-size="13" lengthAdjust="spacing" textLength="91" x="51" y="1477.8481">カード情報入力</text><polygon fill="#181818" points="700,1508.0469,710,1512.0469,700,1516.0469,704,1512.0469" style="stroke:#181818;stroke-width:1.0;"/><line style="stroke:#181818;stroke-width:1.0;" x1="252" x2="706" y1="1512.0469" y2="1512.0469"/><text fill="#000000" font-family="sans-serif" font-size="13" lengthAdjust="spacing" textLength="85" x="259" y="1506.981">プラン登録API</text><polygon fill="#181818" points="263,1522.0469,253,1526.0469,263,1530.0469,259,1526.0469" style="stroke:#181818;stroke-width:1.0;"/><line style="stroke:#181818;stroke-width:1.0;stroke-dasharray:2.0,2.0;" x1="257" x2="716" y1="1526.0469" y2="1526.0469"/><path d="M10,1541.0469 L76,1541.0469 L76,1548.1797 L66,1558.1797 L10,1558.1797 L10,1541.0469 " fill="#EEEEEE" style="stroke:#000000;stroke-width:1.5;"/><rect fill="none" height="497.0625" style="stroke:#000000;stroke-width:1.5;" width="635" x="10" y="1541.0469"/><text fill="#000000" font-family="sans-serif" font-size="13" font-weight="bold" lengthAdjust="spacing" textLength="21" x="25" y="1554.1138">alt</text><text fill="#000000" font-family="sans-serif" font-size="11" font-weight="bold" lengthAdjust="spacing" textLength="142" x="91" y="1553.2573">[プラン登録に成功した場合]</text><polygon fill="#181818" points="474,1575.3125,484,1579.3125,474,1583.3125,478,1579.3125" style="stroke:#181818;stroke-width:1.0;"/><line style="stroke:#181818;stroke-width:1.0;" x1="252" x2="480" y1="1579.3125" y2="1579.3125"/><text fill="#000000" font-family="sans-serif" font-size="13" lengthAdjust="spacing" textLength="111" x="259" y="1574.2466">プラン登録結果API</text><line style="stroke:#181818;stroke-width:1.0;" x1="496" x2="538" y1="1623.5781" y2="1623.5781"/><line style="stroke:#181818;stroke-width:1.0;" x1="538" x2="538" y1="1623.5781" y2="1636.5781"/><line style="stroke:#181818;stroke-width:1.0;" x1="497" x2="538" y1="1636.5781" y2="1636.5781"/><polygon fill="#181818" points="507,1632.5781,497,1636.5781,507,1640.5781,503,1636.5781" style="stroke:#181818;stroke-width:1.0;"/><text fill="#000000" font-family="sans-serif" font-size="13" lengthAdjust="spacing" textLength="91" x="503" y="1603.3794">プラン結果登録</text><text fill="#000000" font-family="sans-serif" font-size="13" lengthAdjust="spacing" textLength="130" x="503" y="1618.5122">カード情報（ID）登録</text><line style="stroke:#181818;stroke-width:1.0;" x1="496" x2="538" y1="1665.7109" y2="1665.7109"/><line style="stroke:#181818;stroke-width:1.0;" x1="538" x2="538" y1="1665.7109" y2="1678.7109"/><line style="stroke:#181818;stroke-width:1.0;" x1="497" x2="538" y1="1678.7109" y2="1678.7109"/><polygon fill="#181818" points="507,1674.7109,497,1678.7109,507,1682.7109,503,1678.7109" style="stroke:#181818;stroke-width:1.0;"/><text fill="#000000" font-family="sans-serif" font-size="13" lengthAdjust="spacing" textLength="130" x="503" y="1660.645">仮登録した内容を確定</text><polygon fill="#181818" points="263,1718.9766,253,1722.9766,263,1726.9766,259,1722.9766" style="stroke:#181818;stroke-width:1.0;"/><line style="stroke:#181818;stroke-width:1.0;stroke-dasharray:2.0,2.0;" x1="257" x2="490" y1="1722.9766" y2="1722.9766"/><text fill="#000000" font-family="sans-serif" font-size="13" lengthAdjust="spacing" textLength="156" x="269" y="1702.7778">成功画面へのリダイレクト</text><text fill="#000000" font-family="sans-serif" font-size="13" lengthAdjust="spacing" textLength="34" x="269" y="1717.9106">(301)</text><line style="stroke:#181818;stroke-width:1.0;" x1="252" x2="294" y1="1767.2422" y2="1767.2422"/><line style="stroke:#181818;stroke-width:1.0;" x1="294" x2="294" y1="1767.2422" y2="1780.2422"/><line style="stroke:#181818;stroke-width:1.0;" x1="253" x2="294" y1="1780.2422" y2="1780.2422"/><polygon fill="#181818" points="263,1776.2422,253,1780.2422,263,1784.2422,259,1780.2422" style="stroke:#181818;stroke-width:1.0;"/><text fill="#000000" font-family="sans-serif" font-size="13" lengthAdjust="spacing" textLength="143" x="259" y="1747.0435">プラン登録成功画面表示</text><text fill="#000000" font-family="sans-serif" font-size="13" lengthAdjust="spacing" textLength="220" x="259" y="1762.1763">(実際にはCDNに対してリダイレクト)</text><line style="stroke:#000000;stroke-width:1.0;stroke-dasharray:2.0,2.0;" x1="10" x2="645" y1="1789.2422" y2="1789.2422"/><text fill="#000000" font-family="sans-serif" font-size="11" font-weight="bold" lengthAdjust="spacing" textLength="142" x="15" y="1799.4526">[プラン登録に失敗した場合]</text><polygon fill="#181818" points="474,1835.3125,484,1839.3125,474,1843.3125,478,1839.3125" style="stroke:#181818;stroke-width:1.0;"/><line style="stroke:#181818;stroke-width:1.0;" x1="252" x2="480" y1="1839.3125" y2="1839.3125"/><text fill="#000000" font-family="sans-serif" font-size="13" lengthAdjust="spacing" textLength="111" x="259" y="1819.1138">プラン登録結果API</text><text fill="#000000" font-family="sans-serif" font-size="13" lengthAdjust="spacing" textLength="192" x="259" y="1834.2466">(クエリパラメータで失敗を連携)</text><polygon fill="#181818" points="263,1879.5781,253,1883.5781,263,1887.5781,259,1883.5781" style="stroke:#181818;stroke-width:1.0;"/><line style="stroke:#181818;stroke-width:1.0;stroke-dasharray:2.0,2.0;" x1="257" x2="490" y1="1883.5781" y2="1883.5781"/><text fill="#000000" font-family="sans-serif" font-size="13" lengthAdjust="spacing" textLength="156" x="269" y="1863.3794">失敗画面へのリダイレクト</text><text fill="#000000" font-family="sans-serif" font-size="13" lengthAdjust="spacing" textLength="34" x="269" y="1878.5122">(301)</text><line style="stroke:#181818;stroke-width:1.0;" x1="252" x2="294" y1="1912.7109" y2="1912.7109"/><line style="stroke:#181818;stroke-width:1.0;" x1="294" x2="294" y1="1912.7109" y2="1925.7109"/><line style="stroke:#181818;stroke-width:1.0;" x1="253" x2="294" y1="1925.7109" y2="1925.7109"/><polygon fill="#181818" points="263,1921.7109,253,1925.7109,263,1929.7109,259,1925.7109" style="stroke:#181818;stroke-width:1.0;"/><text fill="#000000" font-family="sans-serif" font-size="13" lengthAdjust="spacing" textLength="143" x="259" y="1907.645">プラン登録失敗画面表示</text><polygon fill="#181818" points="230,1950.8438,240,1954.8438,230,1958.8438,234,1954.8438" style="stroke:#181818;stroke-width:1.0;"/><line style="stroke:#181818;stroke-width:1.0;" x1="44" x2="236" y1="1954.8438" y2="1954.8438"/><text fill="#000000" font-family="sans-serif" font-size="13" lengthAdjust="spacing" textLength="169" x="51" y="1949.7778">「再度プランを選択」を押下</text><line style="stroke:#181818;stroke-width:1.0;" x1="252" x2="294" y1="1983.9766" y2="1983.9766"/><line style="stroke:#181818;stroke-width:1.0;" x1="294" x2="294" y1="1983.9766" y2="1996.9766"/><line style="stroke:#181818;stroke-width:1.0;" x1="253" x2="294" y1="1996.9766" y2="1996.9766"/><polygon fill="#181818" points="263,1992.9766,253,1996.9766,263,2000.9766,259,1996.9766" style="stroke:#181818;stroke-width:1.0;"/><text fill="#000000" font-family="sans-serif" font-size="13" lengthAdjust="spacing" textLength="117" x="259" y="1978.9106">プラン登録画面表示</text><rect fill="#FEFFDD" height="23" style="stroke:#181818;stroke-width:0.5;" width="112" x="257" y="2009.9766"/><text fill="#000000" font-family="sans-serif" font-size="13" lengthAdjust="spacing" textLength="104" x="261" y="2026.0435">プラン登録へ戻る</text><polygon fill="#181818" points="230,2062.2422,240,2066.2422,230,2070.2422,234,2066.2422" style="stroke:#181818;stroke-width:1.0;"/><line style="stroke:#181818;stroke-width:1.0;" x1="44" x2="236" y1="2066.2422" y2="2066.2422"/><text fill="#000000" font-family="sans-serif" font-size="13" lengthAdjust="spacing" textLength="104" x="51" y="2061.1763">「確認した」押下</text><line style="stroke:#181818;stroke-width:1.0;" x1="252" x2="294" y1="2095.375" y2="2095.375"/><line style="stroke:#181818;stroke-width:1.0;" x1="294" x2="294" y1="2095.375" y2="2108.375"/><line style="stroke:#181818;stroke-width:1.0;" x1="253" x2="294" y1="2108.375" y2="2108.375"/><polygon fill="#181818" points="263,2104.375,253,2108.375,263,2112.375,259,2108.375" style="stroke:#181818;stroke-width:1.0;"/><text fill="#000000" font-family="sans-serif" font-size="13" lengthAdjust="spacing" textLength="143" x="259" y="2090.3091">コンテンツ更新画面表示</text><rect fill="#87CEEB" height="38" style="stroke:#181818;stroke-width:0.5;" width="281" x="257" y="2121.375"/><text fill="#000000" font-family="sans-serif" font-size="13" lengthAdjust="spacing" textLength="208" x="261" y="2137.4419">ネームサーバ設定確認中の場合は、</text><text fill="#000000" font-family="sans-serif" font-size="13" lengthAdjust="spacing" textLength="273" x="261" y="2152.5747">確認中であることをコンテンツ更新画面で表示</text><!--SRC=[hLTTRnf757tVNx5A7beIeRRgMnH5QX8fZLHLLgq-LCeBmjiM1O45wqPvOtQ2muUHYMDZENQCSMrm8CPsaxGO2FunmmpmvB_GEpCBkylkuYYj7_02zvovzzoFkUWHFQgfnFX0Z0E2CyEBZpItfoXVm4Vxn3WXnWN1NTfyDUYzKK9XFPvGhn5SXS-8yVSrDPHKbv9QGbaC9VH8EB8OYkdmFS3m6yu75FWTi0uQ9sodyIZsvTmzWde4bGa2vdE2TmdU3WYQ1UsFI5Xp4it7Ov7mz_6ahdutzn3Gz-x_-1Ky1H-4TEr9wAa4XXOZJXGxQxDMXaS4JkANS0v0v_L4P56JYAHuLXI5kwu6xvXdgpTlteAetmcNbyNhCxRzdfLE1-kTqUlzOULeSD1M4h6uhgc9o6-_wshyrp7s-eE4fiL-qQBH-1D5XJ-2ZubnAaG5eWt-bcksHbUDGRgcQB45bHCfeQXkgSzsweEjpcZbBuAQTEyzBMO4btc6vUaj6mIdwTuPJH_ItBR3JosQjELLqd9TqCKda5yb0WTEgGUmSLqGN24uJ_0Xl6MvRh-Lzm6ClGDTPE7Ph3ylwDY2udyCBHOaniC6PxdN8bsiT4wxgoFKOhbTnJFRPeQd8L3L_SuX141GdXXPau7Rtb27p-iqiqnGZQwMQ6-Je4tU1ZOAqqxKlCgBdgqM-xrjI9OevPBBTlJynQXIu4SX431_sIrBjr0TpYOfH8o6w82iZ5aGNGXycUVLE1scC4itXrNah4RkQRRW5PszR6OgQ0ajgj2AoHsA5xULUcXkQCifzduhDQoQEi8ui4Dk1uC20_-kzjAM7y-QSJew3WYacb5Y7WWF7oeYCOrFCawj3FRRmpeakaLI1RD1F9f34j3bD6sUIuIZC_oOORIBMgoojnMV8wmaEFkltsdAiSAJ85INjcvBw6z86jiofFtOM0vYoIq7DFH7_-CEonG9seAQdal45vR2UXBAmuRaIJQXmQ3YaNaFTTZw2Sjk4FICu4r-EK7X2SyS6dc4x8UpgizzlZ_AdOI9fNsa-MTWoboACYhbQIqFVSpE32zfFLrtA-csz2GpEWHZOln3S0qC1-jbo9OtcTDIKi9LFFKvGKS4rmbEYO9vAvQ7pCy__H3mLDRJ54Y__VgRW4qmP_ZJ43lpnD8fW5JMKHqUJMyEM7lkV9rm44yLZYMRt0USnWGrG6EQAyjBuwf1wOpWGv7jxeodfAr9xPR2Hje_Yar5TTdDFBn_sSsQ_UTYcGm1qpanVw3VvMZncSrGo28WgIyVEt0vkT8qJglVDk2CrCueCmPusYoFNi7Lru2h6RP7UA0dFJdltES5p9t9fJuzE6CRc_z5VL7siFBAKdyXRCGb03Soh0IItrWRfVvanNR0LpLf-7-gPcUSkTkbLkXoWRQh4pntLroWS6N0ynMRsuo-uf24_vebLwsfbBHOfWFtWp2OB2y-LxDrWOgLQzOT-jdR__pZftUZIvgv5nP40-sDVu8KXqV7_1UKyABVEfuiE_nNK0e9aEtB6a46n4RGIpuQZRKPJe6njVWA4Vu5]--></g></svg>