<?xml version="1.0" encoding="us-ascii" standalone="no"?><svg xmlns="http://www.w3.org/2000/svg" xmlns:xlink="http://www.w3.org/1999/xlink" contentStyleType="text/css" height="2649px" preserveAspectRatio="none" style="width:893px;height:2649px;background:#FFFFFF;" version="1.1" viewBox="0 0 893 2649" width="893px" zoomAndPan="magnify"><defs/><g><text fill="#000000" font-family="sans-serif" font-size="14" font-weight="bold" lengthAdjust="spacing" textLength="75" x="408" y="27.9951">&#12469;&#12452;&#12488;&#36861;&#21152;</text><rect fill="#FFFFFF" height="2409.7734" style="stroke:#181818;stroke-width:1.0;" width="10" x="237" y="149.7266"/><rect fill="#FFFFFF" height="842.2578" style="stroke:#181818;stroke-width:1.0;" width="10" x="242" y="1717.2422"/><rect fill="#FFFFFF" height="14" style="stroke:#181818;stroke-width:1.0;" width="10" x="486" y="664.5938"/><rect fill="#FFFFFF" height="186.7969" style="stroke:#181818;stroke-width:1.0;" width="10" x="486" y="931.6563"/><rect fill="#FFFFFF" height="162.6641" style="stroke:#181818;stroke-width:1.0;" width="10" x="486" y="1204.8516"/><rect fill="#FFFFFF" height="218.0625" style="stroke:#181818;stroke-width:1.0;" width="10" x="486" y="1440.9141"/><rect fill="#FFFFFF" height="244.0625" style="stroke:#181818;stroke-width:1.0;" width="10" x="486" y="1872.7734"/><rect fill="#FFFFFF" height="44.2656" style="stroke:#181818;stroke-width:1.0;" width="10" x="486" y="2233.1719"/><rect fill="#FFFFFF" height="14" style="stroke:#181818;stroke-width:1.0;" width="10" x="770" y="1018.0547"/><rect fill="#FFFFFF" height="29.1328" style="stroke:#181818;stroke-width:1.0;" width="10" x="770" y="1470.0469"/><rect fill="#FFFFFF" height="44.2656" style="stroke:#181818;stroke-width:1.0;" width="10" x="770" y="1528.3125"/><rect fill="#FFFFFF" height="59.1328" style="stroke:#181818;stroke-width:1.0;" width="10" x="770" y="1688.1094"/><rect fill="#FFFFFF" height="14" style="stroke:#181818;stroke-width:1.0;" width="10" x="770" y="1805.5078"/><rect fill="#FFFFFF" height="14" style="stroke:#181818;stroke-width:1.0;" width="10" x="770" y="1959.1719"/><rect fill="#FFFFFF" height="14" style="stroke:#181818;stroke-width:1.0;" width="10" x="855.5" y="1276.1172"/><rect fill="none" height="216.6016" style="stroke:#000000;stroke-width:1.5;" width="399" x="10" y="197.8594"/><rect fill="none" height="162.4688" style="stroke:#000000;stroke-width:1.5;" width="566.5" x="10" y="582.3906"/><rect fill="none" height="597.4609" style="stroke:#000000;stroke-width:1.5;" width="824" x="10" y="1834.5078"/><line style="stroke:#181818;stroke-width:0.5;stroke-dasharray:5.0,5.0;" x1="44" x2="44" y1="118.5938" y2="2568.5"/><line style="stroke:#181818;stroke-width:0.5;stroke-dasharray:5.0,5.0;" x1="241.5" x2="241.5" y1="118.5938" y2="2568.5"/><line style="stroke:#181818;stroke-width:0.5;stroke-dasharray:5.0,5.0;" x1="490.5" x2="490.5" y1="118.5938" y2="2568.5"/><line style="stroke:#181818;stroke-width:0.5;stroke-dasharray:5.0,5.0;" x1="775" x2="775" y1="118.5938" y2="2568.5"/><line style="stroke:#181818;stroke-width:0.5;stroke-dasharray:5.0,5.0;" x1="860" x2="860" y1="118.5938" y2="2568.5"/><text fill="#000000" font-family="sans-serif" font-size="14" lengthAdjust="spacing" textLength="42" x="20" y="115.292">&#12518;&#12540;&#12470;</text><ellipse cx="44" cy="50.7969" fill="#E2E2F0" rx="8" ry="8" style="stroke:#181818;stroke-width:0.5;"/><path d="M44,58.7969 L44,85.7969 M31,66.7969 L57,66.7969 M44,85.7969 L31,100.7969 M44,85.7969 L57,100.7969 " fill="none" style="stroke:#181818;stroke-width:0.5;"/><text fill="#000000" font-family="sans-serif" font-size="14" lengthAdjust="spacing" textLength="42" x="20" y="2580.4951">&#12518;&#12540;&#12470;</text><ellipse cx="44" cy="2592.2969" fill="#E2E2F0" rx="8" ry="8" style="stroke:#181818;stroke-width:0.5;"/><path d="M44,2600.2969 L44,2627.2969 M31,2608.2969 L57,2608.2969 M44,2627.2969 L31,2642.2969 M44,2627.2969 L57,2642.2969 " fill="none" style="stroke:#181818;stroke-width:0.5;"/><rect fill="#E2E2F0" height="46.5938" rx="2.5" ry="2.5" style="stroke:#181818;stroke-width:0.5;" width="127" x="178.5" y="71"/><text fill="#000000" font-family="sans-serif" font-size="14" lengthAdjust="spacing" textLength="112" x="186" y="90.9951">&#12463;&#12521;&#12452;&#12450;&#12531;&#12488;&#31471;&#26411;</text><text fill="#000000" font-family="sans-serif" font-size="14" lengthAdjust="spacing" textLength="113" x="185.5" y="107.292">(PC&#12414;&#12383;&#12399;&#12473;&#12510;&#12507;)</text><rect fill="#E2E2F0" height="46.5938" rx="2.5" ry="2.5" style="stroke:#181818;stroke-width:0.5;" width="127" x="178.5" y="2567.5"/><text fill="#000000" font-family="sans-serif" font-size="14" lengthAdjust="spacing" textLength="112" x="186" y="2587.4951">&#12463;&#12521;&#12452;&#12450;&#12531;&#12488;&#31471;&#26411;</text><text fill="#000000" font-family="sans-serif" font-size="14" lengthAdjust="spacing" textLength="113" x="185.5" y="2603.792">(PC&#12414;&#12383;&#12399;&#12473;&#12510;&#12507;)</text><rect fill="#E2E2F0" height="46.5938" rx="2.5" ry="2.5" style="stroke:#181818;stroke-width:0.5;" width="151" x="415.5" y="71"/><text fill="#000000" font-family="sans-serif" font-size="14" lengthAdjust="spacing" textLength="99" x="441.5" y="90.9951">SonicHost API</text><text fill="#000000" font-family="sans-serif" font-size="14" lengthAdjust="spacing" textLength="137" x="422.5" y="107.292">(CDN/API-Gateway)</text><rect fill="#E2E2F0" height="46.5938" rx="2.5" ry="2.5" style="stroke:#181818;stroke-width:0.5;" width="151" x="415.5" y="2567.5"/><text fill="#000000" font-family="sans-serif" font-size="14" lengthAdjust="spacing" textLength="99" x="441.5" y="2587.4951">SonicHost API</text><text fill="#000000" font-family="sans-serif" font-size="14" lengthAdjust="spacing" textLength="137" x="422.5" y="2603.792">(CDN/API-Gateway)</text><rect fill="#E2E2F0" height="46.5938" rx="2.5" ry="2.5" style="stroke:#181818;stroke-width:0.5;" width="98" x="726" y="71"/><text fill="#000000" font-family="sans-serif" font-size="14" lengthAdjust="spacing" textLength="84" x="733" y="90.9951">&#27770;&#28168;&#12469;&#12540;&#12499;&#12473;</text><text fill="#000000" font-family="sans-serif" font-size="14" lengthAdjust="spacing" textLength="55" x="747.5" y="107.292">(Stripe)</text><rect fill="#E2E2F0" height="46.5938" rx="2.5" ry="2.5" style="stroke:#181818;stroke-width:0.5;" width="98" x="726" y="2567.5"/><text fill="#000000" font-family="sans-serif" font-size="14" lengthAdjust="spacing" textLength="84" x="733" y="2587.4951">&#27770;&#28168;&#12469;&#12540;&#12499;&#12473;</text><text fill="#000000" font-family="sans-serif" font-size="14" lengthAdjust="spacing" textLength="55" x="747.5" y="2603.792">(Stripe)</text><rect fill="#E2E2F0" height="30.2969" rx="2.5" ry="2.5" style="stroke:#181818;stroke-width:0.5;" width="53" x="834" y="87.2969"/><text fill="#000000" font-family="sans-serif" font-size="14" lengthAdjust="spacing" textLength="39" x="841" y="107.292">strpe</text><rect fill="#E2E2F0" height="30.2969" rx="2.5" ry="2.5" style="stroke:#181818;stroke-width:0.5;" width="53" x="834" y="2567.5"/><text fill="#000000" font-family="sans-serif" font-size="14" lengthAdjust="spacing" textLength="39" x="841" y="2587.4951">strpe</text><rect fill="#FFFFFF" height="2409.7734" style="stroke:#181818;stroke-width:1.0;" width="10" x="237" y="149.7266"/><rect fill="#FFFFFF" height="842.2578" style="stroke:#181818;stroke-width:1.0;" width="10" x="242" y="1717.2422"/><rect fill="#FFFFFF" height="14" style="stroke:#181818;stroke-width:1.0;" width="10" x="486" y="664.5938"/><rect fill="#FFFFFF" height="186.7969" style="stroke:#181818;stroke-width:1.0;" width="10" x="486" y="931.6563"/><rect fill="#FFFFFF" height="162.6641" style="stroke:#181818;stroke-width:1.0;" width="10" x="486" y="1204.8516"/><rect fill="#FFFFFF" height="218.0625" style="stroke:#181818;stroke-width:1.0;" width="10" x="486" y="1440.9141"/><rect fill="#FFFFFF" height="244.0625" style="stroke:#181818;stroke-width:1.0;" width="10" x="486" y="1872.7734"/><rect fill="#FFFFFF" height="44.2656" style="stroke:#181818;stroke-width:1.0;" width="10" x="486" y="2233.1719"/><rect fill="#FFFFFF" height="14" style="stroke:#181818;stroke-width:1.0;" width="10" x="770" y="1018.0547"/><rect fill="#FFFFFF" height="29.1328" style="stroke:#181818;stroke-width:1.0;" width="10" x="770" y="1470.0469"/><rect fill="#FFFFFF" height="44.2656" style="stroke:#181818;stroke-width:1.0;" width="10" x="770" y="1528.3125"/><rect fill="#FFFFFF" height="59.1328" style="stroke:#181818;stroke-width:1.0;" width="10" x="770" y="1688.1094"/><rect fill="#FFFFFF" height="14" style="stroke:#181818;stroke-width:1.0;" width="10" x="770" y="1805.5078"/><rect fill="#FFFFFF" height="14" style="stroke:#181818;stroke-width:1.0;" width="10" x="770" y="1959.1719"/><rect fill="#FFFFFF" height="14" style="stroke:#181818;stroke-width:1.0;" width="10" x="855.5" y="1276.1172"/><polygon fill="#181818" points="225,145.7266,235,149.7266,225,153.7266,229,149.7266" style="stroke:#181818;stroke-width:1.0;"/><line style="stroke:#181818;stroke-width:1.0;" x1="44" x2="231" y1="149.7266" y2="149.7266"/><text fill="#000000" font-family="sans-serif" font-size="13" lengthAdjust="spacing" textLength="143" x="51" y="144.6606">&#12467;&#12531;&#12486;&#12531;&#12484;&#26356;&#26032;&#30011;&#38754;&#34920;&#31034;</text><rect fill="#ADFF2F" height="23" style="stroke:#181818;stroke-width:0.5;" width="138" x="252" y="162.7266"/><text fill="#000000" font-family="sans-serif" font-size="13" lengthAdjust="spacing" textLength="130" x="256" y="178.7935">&#12525;&#12464;&#12452;&#12531;&#12501;&#12525;&#12540;&#12434;&#21442;&#29031;</text><path d="M10,197.8594 L76,197.8594 L76,204.9922 L66,214.9922 L10,214.9922 L10,197.8594 " fill="#EEEEEE" style="stroke:#000000;stroke-width:1.5;"/><rect fill="none" height="216.6016" style="stroke:#000000;stroke-width:1.5;" width="399" x="10" y="197.8594"/><text fill="#000000" font-family="sans-serif" font-size="13" font-weight="bold" lengthAdjust="spacing" textLength="21" x="25" y="210.9263">alt</text><text fill="#000000" font-family="sans-serif" font-size="11" font-weight="bold" lengthAdjust="spacing" textLength="109" x="91" y="210.0698">[&#12469;&#12452;&#12488;&#26410;&#30331;&#37682;&#12398;&#22580;&#21512;]</text><line style="stroke:#181818;stroke-width:1.0;" x1="247" x2="289" y1="236.125" y2="236.125"/><line style="stroke:#181818;stroke-width:1.0;" x1="289" x2="289" y1="236.125" y2="249.125"/><line style="stroke:#181818;stroke-width:1.0;" x1="248" x2="289" y1="249.125" y2="249.125"/><polygon fill="#181818" points="258,245.125,248,249.125,258,253.125,254,249.125" style="stroke:#181818;stroke-width:1.0;"/><text fill="#000000" font-family="sans-serif" font-size="13" lengthAdjust="spacing" textLength="143" x="254" y="231.0591">&#12469;&#12452;&#12488;&#24773;&#22577;&#20837;&#21147;&#30011;&#38754;&#34920;&#31034;</text><line style="stroke:#000000;stroke-width:1.0;stroke-dasharray:2.0,2.0;" x1="10" x2="409" y1="258.125" y2="258.125"/><text fill="#000000" font-family="sans-serif" font-size="11" font-weight="bold" lengthAdjust="spacing" textLength="120" x="15" y="268.3354">[&#12469;&#12452;&#12488;&#30331;&#37682;&#28168;&#12415;&#12398;&#22580;&#21512;]</text><line style="stroke:#181818;stroke-width:1.0;" x1="247" x2="289" y1="293.0625" y2="293.0625"/><line style="stroke:#181818;stroke-width:1.0;" x1="289" x2="289" y1="293.0625" y2="306.0625"/><line style="stroke:#181818;stroke-width:1.0;" x1="248" x2="289" y1="306.0625" y2="306.0625"/><polygon fill="#181818" points="258,302.0625,248,306.0625,258,310.0625,254,306.0625" style="stroke:#181818;stroke-width:1.0;"/><text fill="#000000" font-family="sans-serif" font-size="13" lengthAdjust="spacing" textLength="143" x="254" y="287.9966">&#12467;&#12531;&#12486;&#12531;&#12484;&#26356;&#26032;&#30011;&#38754;&#34920;&#31034;</text><polygon fill="#181818" points="225,331.1953,235,335.1953,225,339.1953,229,335.1953" style="stroke:#181818;stroke-width:1.0;"/><line style="stroke:#181818;stroke-width:1.0;" x1="44" x2="231" y1="335.1953" y2="335.1953"/><text fill="#000000" font-family="sans-serif" font-size="13" lengthAdjust="spacing" textLength="117" x="51" y="330.1294">&#12518;&#12540;&#12470;&#12513;&#12491;&#12517;&#12540;&#25276;&#19979;</text><polygon fill="#181818" points="225,360.3281,235,364.3281,225,368.3281,229,364.3281" style="stroke:#181818;stroke-width:1.0;"/><line style="stroke:#181818;stroke-width:1.0;" x1="44" x2="231" y1="364.3281" y2="364.3281"/><text fill="#000000" font-family="sans-serif" font-size="13" lengthAdjust="spacing" textLength="104" x="51" y="359.2622">&#12469;&#12452;&#12488;&#12434;&#36861;&#21152;&#25276;&#19979;</text><line style="stroke:#181818;stroke-width:1.0;" x1="247" x2="289" y1="393.4609" y2="393.4609"/><line style="stroke:#181818;stroke-width:1.0;" x1="289" x2="289" y1="393.4609" y2="406.4609"/><line style="stroke:#181818;stroke-width:1.0;" x1="248" x2="289" y1="406.4609" y2="406.4609"/><polygon fill="#181818" points="258,402.4609,248,406.4609,258,410.4609,254,406.4609" style="stroke:#181818;stroke-width:1.0;"/><text fill="#000000" font-family="sans-serif" font-size="13" lengthAdjust="spacing" textLength="143" x="254" y="388.395">&#12469;&#12452;&#12488;&#24773;&#22577;&#20837;&#21147;&#30011;&#38754;&#34920;&#31034;</text><polygon fill="#181818" points="225,438.5938,235,442.5938,225,446.5938,229,442.5938" style="stroke:#181818;stroke-width:1.0;"/><line style="stroke:#181818;stroke-width:1.0;" x1="44" x2="231" y1="442.5938" y2="442.5938"/><text fill="#000000" font-family="sans-serif" font-size="13" lengthAdjust="spacing" textLength="78" x="51" y="437.5278">&#12469;&#12452;&#12488;&#21517;&#20837;&#21147;</text><polygon fill="#181818" points="225,467.7266,235,471.7266,225,475.7266,229,471.7266" style="stroke:#181818;stroke-width:1.0;"/><line style="stroke:#181818;stroke-width:1.0;" x1="44" x2="231" y1="471.7266" y2="471.7266"/><text fill="#000000" font-family="sans-serif" font-size="13" lengthAdjust="spacing" textLength="104" x="51" y="466.6606">&#12489;&#12513;&#12452;&#12531;&#26041;&#24335;&#36984;&#25246;</text><path d="M252,484.7266 L252,569.7266 L494,569.7266 L494,494.7266 L484,484.7266 L252,484.7266 " fill="#FEFFDD" style="stroke:#181818;stroke-width:0.5;"/><path d="M484,484.7266 L484,494.7266 L494,494.7266 L484,484.7266 " fill="#FEFFDD" style="stroke:#181818;stroke-width:0.5;"/><text fill="#000000" font-family="sans-serif" font-size="13" lengthAdjust="spacing" textLength="169" x="258" y="501.7935">&#12489;&#12513;&#12452;&#12531;&#26041;&#24335;&#12399;&#20197;&#19979;&#12363;&#12425;&#36984;&#25246;</text><ellipse cx="263.5" cy="512.4922" fill="#000000" rx="2.5" ry="2.5" style="stroke:#000000;stroke-width:0.0;"/><text fill="#000000" font-family="sans-serif" font-size="13" lengthAdjust="spacing" textLength="143" x="270" y="516.9263">&#33258;&#20998;&#12391;&#21462;&#24471;&#12375;&#12383;&#12489;&#12513;&#12452;&#12531;</text><ellipse cx="263.5" cy="527.625" fill="#000000" rx="2.5" ry="2.5" style="stroke:#000000;stroke-width:0.0;"/><text fill="#000000" font-family="sans-serif" font-size="13" lengthAdjust="spacing" textLength="184" x="270" y="532.0591">Sonic Host&#25552;&#20379;&#12398;&#12469;&#12502;&#12489;&#12513;&#12452;&#12531;</text><text fill="#000000" font-family="sans-serif" font-size="13" lengthAdjust="spacing" textLength="78" x="258" y="547.1919">&#37329;&#38989;&#12363;&#12360;&#12427;&#65311;</text><text fill="#000000" font-family="sans-serif" font-size="13" lengthAdjust="spacing" textLength="221" x="258" y="562.3247">&#12394;&#12425;&#12289;&#12459;&#12540;&#12489;&#20837;&#21147;&#12398;&#12479;&#12452;&#12511;&#12531;&#12464;&#32771;&#24942;&#35201;</text><path d="M10,582.3906 L76,582.3906 L76,589.5234 L66,599.5234 L10,599.5234 L10,582.3906 " fill="#EEEEEE" style="stroke:#000000;stroke-width:1.5;"/><rect fill="none" height="162.4688" style="stroke:#000000;stroke-width:1.5;" width="566.5" x="10" y="582.3906"/><text fill="#000000" font-family="sans-serif" font-size="13" font-weight="bold" lengthAdjust="spacing" textLength="21" x="25" y="595.4575">alt</text><text fill="#000000" font-family="sans-serif" font-size="11" font-weight="bold" lengthAdjust="spacing" textLength="131" x="91" y="594.6011">[&#33258;&#21069;&#12489;&#12513;&#12452;&#12531;&#26041;&#24335;&#12398;&#22580;&#21512;]</text><polygon fill="#181818" points="225,616.6563,235,620.6563,225,624.6563,229,620.6563" style="stroke:#181818;stroke-width:1.0;"/><line style="stroke:#181818;stroke-width:1.0;" x1="44" x2="231" y1="620.6563" y2="620.6563"/><text fill="#000000" font-family="sans-serif" font-size="13" lengthAdjust="spacing" textLength="91" x="51" y="615.5903">&#12489;&#12513;&#12452;&#12531;&#21517;&#20837;&#21147;</text><line style="stroke:#000000;stroke-width:1.0;stroke-dasharray:2.0,2.0;" x1="10" x2="576.5" y1="629.6563" y2="629.6563"/><text fill="#000000" font-family="sans-serif" font-size="11" font-weight="bold" lengthAdjust="spacing" textLength="203" x="15" y="639.8667">[Sonic Host&#12469;&#12502;&#12489;&#12513;&#12452;&#12531;&#26041;&#24335;&#12398;&#22580;&#21512;]</text><polygon fill="#181818" points="474,660.5938,484,664.5938,474,668.5938,478,664.5938" style="stroke:#181818;stroke-width:1.0;"/><line style="stroke:#181818;stroke-width:1.0;" x1="247" x2="480" y1="664.5938" y2="664.5938"/><text fill="#000000" font-family="sans-serif" font-size="13" lengthAdjust="spacing" textLength="124" x="254" y="659.5278">&#12489;&#12513;&#12452;&#12531;&#19968;&#35239;&#21462;&#24471;API</text><polygon fill="#181818" points="258,674.5938,248,678.5938,258,682.5938,254,678.5938" style="stroke:#181818;stroke-width:1.0;"/><line style="stroke:#181818;stroke-width:1.0;stroke-dasharray:2.0,2.0;" x1="252" x2="490" y1="678.5938" y2="678.5938"/><polygon fill="#181818" points="225,703.7266,235,707.7266,225,711.7266,229,707.7266" style="stroke:#181818;stroke-width:1.0;"/><line style="stroke:#181818;stroke-width:1.0;" x1="44" x2="231" y1="707.7266" y2="707.7266"/><text fill="#000000" font-family="sans-serif" font-size="13" lengthAdjust="spacing" textLength="78" x="51" y="702.6606">&#12489;&#12513;&#12452;&#12531;&#36984;&#25246;</text><polygon fill="#181818" points="225,732.8594,235,736.8594,225,740.8594,229,736.8594" style="stroke:#181818;stroke-width:1.0;"/><line style="stroke:#181818;stroke-width:1.0;" x1="44" x2="231" y1="736.8594" y2="736.8594"/><text fill="#000000" font-family="sans-serif" font-size="13" lengthAdjust="spacing" textLength="104" x="51" y="731.7935">&#12469;&#12502;&#12489;&#12513;&#12452;&#12531;&#20837;&#21147;</text><polygon fill="#181818" points="225,768.9922,235,772.9922,225,776.9922,229,772.9922" style="stroke:#181818;stroke-width:1.0;"/><line style="stroke:#181818;stroke-width:1.0;" x1="44" x2="231" y1="772.9922" y2="772.9922"/><text fill="#000000" font-family="sans-serif" font-size="13" lengthAdjust="spacing" textLength="117" x="51" y="767.9263">&#12469;&#12452;&#12488;&#12489;&#12513;&#12452;&#12531;&#20837;&#21147;</text><polygon fill="#181818" points="225,798.125,235,802.125,225,806.125,229,802.125" style="stroke:#181818;stroke-width:1.0;"/><line style="stroke:#181818;stroke-width:1.0;" x1="44" x2="231" y1="802.125" y2="802.125"/><text fill="#000000" font-family="sans-serif" font-size="13" lengthAdjust="spacing" textLength="117" x="51" y="797.0591">&#12513;&#12540;&#12523;&#12489;&#12513;&#12452;&#12531;&#20837;&#21147;</text><polygon fill="#181818" points="225,827.2578,235,831.2578,225,835.2578,229,831.2578" style="stroke:#181818;stroke-width:1.0;"/><line style="stroke:#181818;stroke-width:1.0;" x1="44" x2="231" y1="831.2578" y2="831.2578"/><text fill="#000000" font-family="sans-serif" font-size="13" lengthAdjust="spacing" textLength="91" x="51" y="826.1919">&#12300;&#30906;&#35469;&#12408;&#12301;&#25276;&#19979;</text><line style="stroke:#181818;stroke-width:1.0;" x1="247" x2="289" y1="860.3906" y2="860.3906"/><line style="stroke:#181818;stroke-width:1.0;" x1="289" x2="289" y1="860.3906" y2="873.3906"/><line style="stroke:#181818;stroke-width:1.0;" x1="248" x2="289" y1="873.3906" y2="873.3906"/><polygon fill="#181818" points="258,869.3906,248,873.3906,258,877.3906,254,873.3906" style="stroke:#181818;stroke-width:1.0;"/><text fill="#000000" font-family="sans-serif" font-size="13" lengthAdjust="spacing" textLength="130" x="254" y="855.3247">&#20837;&#21147;&#20869;&#23481;&#30906;&#35469;&#30011;&#38754;&#34920;&#31034;</text><polygon fill="#181818" points="225,898.5234,235,902.5234,225,906.5234,229,902.5234" style="stroke:#181818;stroke-width:1.0;"/><line style="stroke:#181818;stroke-width:1.0;" x1="44" x2="231" y1="902.5234" y2="902.5234"/><text fill="#000000" font-family="sans-serif" font-size="13" lengthAdjust="spacing" textLength="130" x="51" y="897.4575">&#12300;&#30906;&#23450;&#12375;&#12390;&#27425;&#12408;&#12301;&#25276;&#19979;</text><polygon fill="#181818" points="474,927.6563,484,931.6563,474,935.6563,478,931.6563" style="stroke:#181818;stroke-width:1.0;"/><line style="stroke:#181818;stroke-width:1.0;" x1="247" x2="480" y1="931.6563" y2="931.6563"/><text fill="#000000" font-family="sans-serif" font-size="13" lengthAdjust="spacing" textLength="124" x="254" y="926.5903">&#12469;&#12452;&#12488;&#24773;&#22577;&#20206;&#30331;&#37682;API</text><line style="stroke:#181818;stroke-width:1.0;" x1="496" x2="538" y1="960.7891" y2="960.7891"/><line style="stroke:#181818;stroke-width:1.0;" x1="538" x2="538" y1="960.7891" y2="973.7891"/><line style="stroke:#181818;stroke-width:1.0;" x1="497" x2="538" y1="973.7891" y2="973.7891"/><polygon fill="#181818" points="507,969.7891,497,973.7891,507,977.7891,503,973.7891" style="stroke:#181818;stroke-width:1.0;"/><text fill="#000000" font-family="sans-serif" font-size="13" lengthAdjust="spacing" textLength="130" x="503" y="955.7231">&#12469;&#12452;&#12488;&#24773;&#22577;&#12434;&#19968;&#26178;&#30331;&#37682;</text><polygon fill="#181818" points="758,1014.0547,768,1018.0547,758,1022.0547,762,1018.0547" style="stroke:#181818;stroke-width:1.0;"/><line style="stroke:#181818;stroke-width:1.0;" x1="496" x2="764" y1="1018.0547" y2="1018.0547"/><text fill="#000000" font-family="sans-serif" font-size="13" lengthAdjust="spacing" textLength="127" x="503" y="997.856">MetaData&#12434;&#12418;&#12392;&#12395;&#12289;</text><text fill="#000000" font-family="sans-serif" font-size="13" lengthAdjust="spacing" textLength="140" x="503" y="1012.9888">&#21512;&#33268;&#12377;&#12427;product&#12398;&#26908;&#32034;</text><polygon fill="#181818" points="507,1028.0547,497,1032.0547,507,1036.0547,503,1032.0547" style="stroke:#181818;stroke-width:1.0;"/><line style="stroke:#181818;stroke-width:1.0;stroke-dasharray:2.0,2.0;" x1="501" x2="774" y1="1032.0547" y2="1032.0547"/><line style="stroke:#181818;stroke-width:1.0;" x1="496" x2="538" y1="1091.4531" y2="1091.4531"/><line style="stroke:#181818;stroke-width:1.0;" x1="538" x2="538" y1="1091.4531" y2="1104.4531"/><line style="stroke:#181818;stroke-width:1.0;" x1="497" x2="538" y1="1104.4531" y2="1104.4531"/><polygon fill="#181818" points="507,1100.4531,497,1104.4531,507,1108.4531,503,1104.4531" style="stroke:#181818;stroke-width:1.0;"/><text fill="#000000" font-family="sans-serif" font-size="13" lengthAdjust="spacing" textLength="130" x="503" y="1056.1216">Payments&#12486;&#12540;&#12502;&#12523;&#12395;</text><text fill="#000000" font-family="sans-serif" font-size="13" lengthAdjust="spacing" textLength="257" x="503" y="1071.2544">Product&#12398;&#12461;&#12540;&#65288;&#25903;&#25173;&#12356;&#26399;&#38291;&#12372;&#12392;&#12395;&#35079;&#25968;&#65289;&#12392;</text><text fill="#000000" font-family="sans-serif" font-size="13" lengthAdjust="spacing" textLength="169" x="503" y="1086.3872">&#12469;&#12452;&#12488;&#12398;&#12461;&#12540;&#12434;&#32016;&#12389;&#12369;&#12390;&#20445;&#31649;</text><polygon fill="#181818" points="258,1114.4531,248,1118.4531,258,1122.4531,254,1118.4531" style="stroke:#181818;stroke-width:1.0;"/><line style="stroke:#181818;stroke-width:1.0;stroke-dasharray:2.0,2.0;" x1="252" x2="490" y1="1118.4531" y2="1118.4531"/><line style="stroke:#181818;stroke-width:1.0;" x1="247" x2="289" y1="1147.5859" y2="1147.5859"/><line style="stroke:#181818;stroke-width:1.0;" x1="289" x2="289" y1="1147.5859" y2="1160.5859"/><line style="stroke:#181818;stroke-width:1.0;" x1="248" x2="289" y1="1160.5859" y2="1160.5859"/><polygon fill="#181818" points="258,1156.5859,248,1160.5859,258,1164.5859,254,1160.5859" style="stroke:#181818;stroke-width:1.0;"/><text fill="#000000" font-family="sans-serif" font-size="13" lengthAdjust="spacing" textLength="156" x="254" y="1142.52">&#25903;&#25173;&#12356;&#12503;&#12521;&#12531;&#24773;&#22577;&#30011;&#38754;&#34920;&#31034;</text><polygon fill="#181818" points="474,1200.8516,484,1204.8516,474,1208.8516,478,1204.8516" style="stroke:#181818;stroke-width:1.0;"/><line style="stroke:#181818;stroke-width:1.0;" x1="247" x2="480" y1="1204.8516" y2="1204.8516"/><text fill="#000000" font-family="sans-serif" font-size="13" lengthAdjust="spacing" textLength="150" x="254" y="1184.6528">&#25903;&#25173;&#12356;&#12503;&#12521;&#12531;&#24773;&#22577;&#21462;&#24471;API</text><text fill="#000000" font-family="sans-serif" font-size="13" lengthAdjust="spacing" textLength="156" x="254" y="1199.7856">&#12469;&#12452;&#12488;ID&#12434;&#12497;&#12473;&#12497;&#12521;&#12391;&#20351;&#29992;</text><line style="stroke:#181818;stroke-width:1.0;" x1="496" x2="538" y1="1233.9844" y2="1233.9844"/><line style="stroke:#181818;stroke-width:1.0;" x1="538" x2="538" y1="1233.9844" y2="1246.9844"/><line style="stroke:#181818;stroke-width:1.0;" x1="497" x2="538" y1="1246.9844" y2="1246.9844"/><polygon fill="#181818" points="507,1242.9844,497,1246.9844,507,1250.9844,503,1246.9844" style="stroke:#181818;stroke-width:1.0;"/><text fill="#000000" font-family="sans-serif" font-size="13" lengthAdjust="spacing" textLength="257" x="503" y="1228.9185">&#12469;&#12452;&#12488;ID&#12395;&#32016;&#12389;&#12367;Product&#12398;&#12461;&#12540;&#12383;&#12385;&#12434;&#21462;&#24471;</text><polygon fill="#181818" points="843.5,1272.1172,853.5,1276.1172,843.5,1280.1172,847.5,1276.1172" style="stroke:#181818;stroke-width:1.0;"/><line style="stroke:#181818;stroke-width:1.0;" x1="496" x2="849.5" y1="1276.1172" y2="1276.1172"/><text fill="#000000" font-family="sans-serif" font-size="13" lengthAdjust="spacing" textLength="218" x="503" y="1271.0513">Product&#12461;&#12540;&#12395;&#32016;&#12389;&#12367;&#21830;&#21697;&#24773;&#22577;&#12434;&#26908;&#32034;</text><polygon fill="#181818" points="507,1286.1172,497,1290.1172,507,1294.1172,503,1290.1172" style="stroke:#181818;stroke-width:1.0;"/><line style="stroke:#181818;stroke-width:1.0;" x1="501" x2="859.5" y1="1290.1172" y2="1290.1172"/><rect fill="#FEFFDD" height="38" style="stroke:#181818;stroke-width:0.5;" width="164" x="501" y="1303.1172"/><text fill="#000000" font-family="sans-serif" font-size="13" lengthAdjust="spacing" textLength="156" x="505" y="1319.1841">&#65297;&#12363;&#26376;&#12372;&#12392;&#12289;&#65299;&#24180;&#22865;&#32004;&#12394;&#12393;</text><text fill="#000000" font-family="sans-serif" font-size="13" lengthAdjust="spacing" textLength="156" x="505" y="1334.3169">&#22865;&#32004;&#24418;&#24907;&#12434;&#36984;&#12409;&#12427;&#12398;&#12364;&#29702;&#24819;</text><polygon fill="#181818" points="258,1363.5156,248,1367.5156,258,1371.5156,254,1367.5156" style="stroke:#181818;stroke-width:1.0;"/><line style="stroke:#181818;stroke-width:1.0;stroke-dasharray:2.0,2.0;" x1="252" x2="490" y1="1367.5156" y2="1367.5156"/><text fill="#000000" font-family="sans-serif" font-size="13" lengthAdjust="spacing" textLength="104" x="264" y="1362.4497">&#25903;&#25173;&#12356;&#12503;&#12521;&#12531;&#24773;&#22577;</text><polygon fill="#181818" points="225,1392.6484,235,1396.6484,225,1400.6484,229,1396.6484" style="stroke:#181818;stroke-width:1.0;"/><line style="stroke:#181818;stroke-width:1.0;" x1="44" x2="231" y1="1396.6484" y2="1396.6484"/><text fill="#000000" font-family="sans-serif" font-size="13" lengthAdjust="spacing" textLength="117" x="51" y="1391.5825">&#25903;&#25173;&#12356;&#24773;&#22577;&#20837;&#21147;&#25276;&#19979;</text><polygon fill="#181818" points="474,1436.9141,484,1440.9141,474,1444.9141,478,1440.9141" style="stroke:#181818;stroke-width:1.0;"/><line style="stroke:#181818;stroke-width:1.0;" x1="247" x2="480" y1="1440.9141" y2="1440.9141"/><text fill="#000000" font-family="sans-serif" font-size="13" lengthAdjust="spacing" textLength="143" x="254" y="1420.7153">&#25903;&#25173;&#12356;&#24773;&#22577;&#30331;&#37682;&#38283;&#22987;&#35201;&#27714;</text><text fill="#000000" font-family="sans-serif" font-size="13" lengthAdjust="spacing" textLength="160" x="254" y="1435.8481">products&#12398;&#12461;&#12540;&#12392;&#12469;&#12452;&#12488;ID</text><polygon fill="#181818" points="758,1466.0469,768,1470.0469,758,1474.0469,762,1470.0469" style="stroke:#181818;stroke-width:1.0;"/><line style="stroke:#181818;stroke-width:1.0;" x1="496" x2="764" y1="1470.0469" y2="1470.0469"/><text fill="#000000" font-family="sans-serif" font-size="13" lengthAdjust="spacing" textLength="91" x="503" y="1464.981">&#12503;&#12521;&#12531;&#24773;&#22577;&#21462;&#24471;</text><polygon fill="#181818" points="507,1495.1797,497,1499.1797,507,1503.1797,503,1499.1797" style="stroke:#181818;stroke-width:1.0;"/><line style="stroke:#181818;stroke-width:1.0;stroke-dasharray:2.0,2.0;" x1="501" x2="774" y1="1499.1797" y2="1499.1797"/><text fill="#000000" font-family="sans-serif" font-size="13" lengthAdjust="spacing" textLength="65" x="513" y="1494.1138">&#12503;&#12521;&#12531;&#24773;&#22577;</text><polygon fill="#181818" points="758,1524.3125,768,1528.3125,758,1532.3125,762,1528.3125" style="stroke:#181818;stroke-width:1.0;"/><line style="stroke:#181818;stroke-width:1.0;" x1="496" x2="764" y1="1528.3125" y2="1528.3125"/><text fill="#000000" font-family="sans-serif" font-size="13" lengthAdjust="spacing" textLength="91" x="503" y="1523.2466">&#12475;&#12483;&#12471;&#12519;&#12531;&#29983;&#25104;</text><polygon fill="#181818" points="507,1568.5781,497,1572.5781,507,1576.5781,503,1572.5781" style="stroke:#181818;stroke-width:1.0;"/><line style="stroke:#181818;stroke-width:1.0;stroke-dasharray:2.0,2.0;" x1="501" x2="774" y1="1572.5781" y2="1572.5781"/><text fill="#000000" font-family="sans-serif" font-size="13" lengthAdjust="spacing" textLength="91" x="513" y="1552.3794">&#12475;&#12483;&#12471;&#12519;&#12531;&#24773;&#22577;</text><text fill="#000000" font-family="sans-serif" font-size="13" lengthAdjust="spacing" textLength="191" x="513" y="1567.5122">(&#12475;&#12483;&#12471;&#12519;&#12531;&#12392;&#12522;&#12480;&#12452;&#12524;&#12463;&#12488;URL)</text><line style="stroke:#181818;stroke-width:1.0;" x1="496" x2="538" y1="1601.7109" y2="1601.7109"/><line style="stroke:#181818;stroke-width:1.0;" x1="538" x2="538" y1="1601.7109" y2="1614.7109"/><line style="stroke:#181818;stroke-width:1.0;" x1="497" x2="538" y1="1614.7109" y2="1614.7109"/><polygon fill="#181818" points="507,1610.7109,497,1614.7109,507,1618.7109,503,1614.7109" style="stroke:#181818;stroke-width:1.0;"/><text fill="#000000" font-family="sans-serif" font-size="13" lengthAdjust="spacing" textLength="260" x="503" y="1596.645">&#12475;&#12483;&#12471;&#12519;&#12531;&#24773;&#22577;&#12434;Payments&#12486;&#12540;&#12502;&#12523;&#12395;&#20445;&#31649;</text><polygon fill="#181818" points="258,1654.9766,248,1658.9766,258,1662.9766,254,1658.9766" style="stroke:#181818;stroke-width:1.0;"/><line style="stroke:#181818;stroke-width:1.0;stroke-dasharray:2.0,2.0;" x1="252" x2="490" y1="1658.9766" y2="1658.9766"/><text fill="#000000" font-family="sans-serif" font-size="13" lengthAdjust="spacing" textLength="103" x="264" y="1638.7778">&#12522;&#12480;&#12452;&#12524;&#12463;&#12488;URL</text><text fill="#000000" font-family="sans-serif" font-size="13" lengthAdjust="spacing" textLength="34" x="264" y="1653.9106">(301)</text><polygon fill="#181818" points="758,1684.1094,768,1688.1094,758,1692.1094,762,1688.1094" style="stroke:#181818;stroke-width:1.0;"/><line style="stroke:#181818;stroke-width:1.0;" x1="247" x2="764" y1="1688.1094" y2="1688.1094"/><text fill="#000000" font-family="sans-serif" font-size="13" lengthAdjust="spacing" textLength="78" x="254" y="1683.0435">&#12522;&#12480;&#12452;&#12524;&#12463;&#12488;</text><polygon fill="#181818" points="263,1713.2422,253,1717.2422,263,1721.2422,259,1717.2422" style="stroke:#181818;stroke-width:1.0;"/><line style="stroke:#181818;stroke-width:1.0;stroke-dasharray:2.0,2.0;" x1="257" x2="769" y1="1717.2422" y2="1717.2422"/><text fill="#000000" font-family="sans-serif" font-size="13" lengthAdjust="spacing" textLength="117" x="269" y="1712.1763">&#12503;&#12521;&#12531;&#30331;&#37682;&#30011;&#38754;&#34920;&#31034;</text><polygon fill="#181818" points="230,1772.375,240,1776.375,230,1780.375,234,1776.375" style="stroke:#181818;stroke-width:1.0;"/><line style="stroke:#181818;stroke-width:1.0;" x1="44" x2="236" y1="1776.375" y2="1776.375"/><text fill="#000000" font-family="sans-serif" font-size="13" lengthAdjust="spacing" textLength="91" x="51" y="1771.3091">&#12459;&#12540;&#12489;&#24773;&#22577;&#20837;&#21147;</text><polygon fill="#181818" points="758,1801.5078,768,1805.5078,758,1809.5078,762,1805.5078" style="stroke:#181818;stroke-width:1.0;"/><line style="stroke:#181818;stroke-width:1.0;" x1="252" x2="764" y1="1805.5078" y2="1805.5078"/><text fill="#000000" font-family="sans-serif" font-size="13" lengthAdjust="spacing" textLength="85" x="259" y="1800.4419">&#12503;&#12521;&#12531;&#30331;&#37682;API</text><polygon fill="#181818" points="263,1815.5078,253,1819.5078,263,1823.5078,259,1819.5078" style="stroke:#181818;stroke-width:1.0;"/><line style="stroke:#181818;stroke-width:1.0;stroke-dasharray:2.0,2.0;" x1="257" x2="774" y1="1819.5078" y2="1819.5078"/><path d="M10,1834.5078 L76,1834.5078 L76,1841.6406 L66,1851.6406 L10,1851.6406 L10,1834.5078 " fill="#EEEEEE" style="stroke:#000000;stroke-width:1.5;"/><rect fill="none" height="597.4609" style="stroke:#000000;stroke-width:1.5;" width="824" x="10" y="1834.5078"/><text fill="#000000" font-family="sans-serif" font-size="13" font-weight="bold" lengthAdjust="spacing" textLength="21" x="25" y="1847.5747">alt</text><text fill="#000000" font-family="sans-serif" font-size="11" font-weight="bold" lengthAdjust="spacing" textLength="142" x="91" y="1846.7183">[&#12503;&#12521;&#12531;&#30331;&#37682;&#12395;&#25104;&#21151;&#12375;&#12383;&#22580;&#21512;]</text><polygon fill="#181818" points="474,1868.7734,484,1872.7734,474,1876.7734,478,1872.7734" style="stroke:#181818;stroke-width:1.0;"/><line style="stroke:#181818;stroke-width:1.0;" x1="252" x2="480" y1="1872.7734" y2="1872.7734"/><text fill="#000000" font-family="sans-serif" font-size="13" lengthAdjust="spacing" textLength="111" x="259" y="1867.7075">&#12503;&#12521;&#12531;&#30331;&#37682;&#32080;&#26524;API</text><line style="stroke:#181818;stroke-width:1.0;" x1="496" x2="538" y1="1901.9063" y2="1901.9063"/><line style="stroke:#181818;stroke-width:1.0;" x1="538" x2="538" y1="1901.9063" y2="1914.9063"/><line style="stroke:#181818;stroke-width:1.0;" x1="497" x2="538" y1="1914.9063" y2="1914.9063"/><polygon fill="#181818" points="507,1910.9063,497,1914.9063,507,1918.9063,503,1914.9063" style="stroke:#181818;stroke-width:1.0;"/><text fill="#000000" font-family="sans-serif" font-size="13" lengthAdjust="spacing" textLength="182" x="503" y="1896.8403">&#12475;&#12483;&#12471;&#12519;&#12531;ID&#12434;&#12418;&#12392;&#12395;&#12481;&#12455;&#12483;&#12463;</text><polygon fill="#181818" points="758,1955.1719,768,1959.1719,758,1963.1719,762,1959.1719" style="stroke:#181818;stroke-width:1.0;"/><line style="stroke:#181818;stroke-width:1.0;" x1="496" x2="764" y1="1959.1719" y2="1959.1719"/><text fill="#000000" font-family="sans-serif" font-size="13" lengthAdjust="spacing" textLength="130" x="503" y="1938.9731">&#12475;&#12483;&#12471;&#12519;&#12531;ID&#12434;&#12418;&#12392;&#12395;</text><text fill="#000000" font-family="sans-serif" font-size="13" lengthAdjust="spacing" textLength="101" x="503" y="1954.106">stripe&#12395;&#12481;&#12455;&#12483;&#12463;</text><polygon fill="#181818" points="507,1969.1719,497,1973.1719,507,1977.1719,503,1973.1719" style="stroke:#181818;stroke-width:1.0;"/><line style="stroke:#181818;stroke-width:1.0;stroke-dasharray:2.0,2.0;" x1="501" x2="774" y1="1973.1719" y2="1973.1719"/><line style="stroke:#181818;stroke-width:1.0;" x1="496" x2="538" y1="2017.4375" y2="2017.4375"/><line style="stroke:#181818;stroke-width:1.0;" x1="538" x2="538" y1="2017.4375" y2="2030.4375"/><line style="stroke:#181818;stroke-width:1.0;" x1="497" x2="538" y1="2030.4375" y2="2030.4375"/><polygon fill="#181818" points="507,2026.4375,497,2030.4375,507,2034.4375,503,2030.4375" style="stroke:#181818;stroke-width:1.0;"/><text fill="#000000" font-family="sans-serif" font-size="13" lengthAdjust="spacing" textLength="91" x="503" y="1997.2388">&#12503;&#12521;&#12531;&#32080;&#26524;&#30331;&#37682;</text><text fill="#000000" font-family="sans-serif" font-size="13" lengthAdjust="spacing" textLength="130" x="503" y="2012.3716">&#12459;&#12540;&#12489;&#24773;&#22577;&#65288;ID&#65289;&#30331;&#37682;</text><line style="stroke:#181818;stroke-width:1.0;" x1="496" x2="538" y1="2059.5703" y2="2059.5703"/><line style="stroke:#181818;stroke-width:1.0;" x1="538" x2="538" y1="2059.5703" y2="2072.5703"/><line style="stroke:#181818;stroke-width:1.0;" x1="497" x2="538" y1="2072.5703" y2="2072.5703"/><polygon fill="#181818" points="507,2068.5703,497,2072.5703,507,2076.5703,503,2072.5703" style="stroke:#181818;stroke-width:1.0;"/><text fill="#000000" font-family="sans-serif" font-size="13" lengthAdjust="spacing" textLength="130" x="503" y="2054.5044">&#20206;&#30331;&#37682;&#12375;&#12383;&#20869;&#23481;&#12434;&#30906;&#23450;</text><polygon fill="#181818" points="263,2112.8359,253,2116.8359,263,2120.8359,259,2116.8359" style="stroke:#181818;stroke-width:1.0;"/><line style="stroke:#181818;stroke-width:1.0;stroke-dasharray:2.0,2.0;" x1="257" x2="490" y1="2116.8359" y2="2116.8359"/><text fill="#000000" font-family="sans-serif" font-size="13" lengthAdjust="spacing" textLength="156" x="269" y="2096.6372">&#25104;&#21151;&#30011;&#38754;&#12408;&#12398;&#12522;&#12480;&#12452;&#12524;&#12463;&#12488;</text><text fill="#000000" font-family="sans-serif" font-size="13" lengthAdjust="spacing" textLength="34" x="269" y="2111.77">(301)</text><line style="stroke:#181818;stroke-width:1.0;" x1="252" x2="294" y1="2161.1016" y2="2161.1016"/><line style="stroke:#181818;stroke-width:1.0;" x1="294" x2="294" y1="2161.1016" y2="2174.1016"/><line style="stroke:#181818;stroke-width:1.0;" x1="253" x2="294" y1="2174.1016" y2="2174.1016"/><polygon fill="#181818" points="263,2170.1016,253,2174.1016,263,2178.1016,259,2174.1016" style="stroke:#181818;stroke-width:1.0;"/><text fill="#000000" font-family="sans-serif" font-size="13" lengthAdjust="spacing" textLength="143" x="259" y="2140.9028">&#12503;&#12521;&#12531;&#30331;&#37682;&#25104;&#21151;&#30011;&#38754;&#34920;&#31034;</text><text fill="#000000" font-family="sans-serif" font-size="13" lengthAdjust="spacing" textLength="220" x="259" y="2156.0356">(&#23455;&#38555;&#12395;&#12399;CDN&#12395;&#23550;&#12375;&#12390;&#12522;&#12480;&#12452;&#12524;&#12463;&#12488;)</text><line style="stroke:#000000;stroke-width:1.0;stroke-dasharray:2.0,2.0;" x1="10" x2="834" y1="2183.1016" y2="2183.1016"/><text fill="#000000" font-family="sans-serif" font-size="11" font-weight="bold" lengthAdjust="spacing" textLength="142" x="15" y="2193.312">[&#12503;&#12521;&#12531;&#30331;&#37682;&#12395;&#22833;&#25943;&#12375;&#12383;&#22580;&#21512;]</text><polygon fill="#181818" points="474,2229.1719,484,2233.1719,474,2237.1719,478,2233.1719" style="stroke:#181818;stroke-width:1.0;"/><line style="stroke:#181818;stroke-width:1.0;" x1="252" x2="480" y1="2233.1719" y2="2233.1719"/><text fill="#000000" font-family="sans-serif" font-size="13" lengthAdjust="spacing" textLength="111" x="259" y="2212.9731">&#12503;&#12521;&#12531;&#30331;&#37682;&#32080;&#26524;API</text><text fill="#000000" font-family="sans-serif" font-size="13" lengthAdjust="spacing" textLength="192" x="259" y="2228.106">(&#12463;&#12456;&#12522;&#12497;&#12521;&#12513;&#12540;&#12479;&#12391;&#22833;&#25943;&#12434;&#36899;&#25658;)</text><polygon fill="#181818" points="263,2273.4375,253,2277.4375,263,2281.4375,259,2277.4375" style="stroke:#181818;stroke-width:1.0;"/><line style="stroke:#181818;stroke-width:1.0;stroke-dasharray:2.0,2.0;" x1="257" x2="490" y1="2277.4375" y2="2277.4375"/><text fill="#000000" font-family="sans-serif" font-size="13" lengthAdjust="spacing" textLength="156" x="269" y="2257.2388">&#22833;&#25943;&#30011;&#38754;&#12408;&#12398;&#12522;&#12480;&#12452;&#12524;&#12463;&#12488;</text><text fill="#000000" font-family="sans-serif" font-size="13" lengthAdjust="spacing" textLength="34" x="269" y="2272.3716">(301)</text><line style="stroke:#181818;stroke-width:1.0;" x1="252" x2="294" y1="2306.5703" y2="2306.5703"/><line style="stroke:#181818;stroke-width:1.0;" x1="294" x2="294" y1="2306.5703" y2="2319.5703"/><line style="stroke:#181818;stroke-width:1.0;" x1="253" x2="294" y1="2319.5703" y2="2319.5703"/><polygon fill="#181818" points="263,2315.5703,253,2319.5703,263,2323.5703,259,2319.5703" style="stroke:#181818;stroke-width:1.0;"/><text fill="#000000" font-family="sans-serif" font-size="13" lengthAdjust="spacing" textLength="143" x="259" y="2301.5044">&#12503;&#12521;&#12531;&#30331;&#37682;&#22833;&#25943;&#30011;&#38754;&#34920;&#31034;</text><polygon fill="#181818" points="230,2344.7031,240,2348.7031,230,2352.7031,234,2348.7031" style="stroke:#181818;stroke-width:1.0;"/><line style="stroke:#181818;stroke-width:1.0;" x1="44" x2="236" y1="2348.7031" y2="2348.7031"/><text fill="#000000" font-family="sans-serif" font-size="13" lengthAdjust="spacing" textLength="169" x="51" y="2343.6372">&#12300;&#20877;&#24230;&#12503;&#12521;&#12531;&#12434;&#36984;&#25246;&#12301;&#12434;&#25276;&#19979;</text><line style="stroke:#181818;stroke-width:1.0;" x1="252" x2="294" y1="2377.8359" y2="2377.8359"/><line style="stroke:#181818;stroke-width:1.0;" x1="294" x2="294" y1="2377.8359" y2="2390.8359"/><line style="stroke:#181818;stroke-width:1.0;" x1="253" x2="294" y1="2390.8359" y2="2390.8359"/><polygon fill="#181818" points="263,2386.8359,253,2390.8359,263,2394.8359,259,2390.8359" style="stroke:#181818;stroke-width:1.0;"/><text fill="#000000" font-family="sans-serif" font-size="13" lengthAdjust="spacing" textLength="117" x="259" y="2372.77">&#12503;&#12521;&#12531;&#30331;&#37682;&#30011;&#38754;&#34920;&#31034;</text><rect fill="#FEFFDD" height="23" style="stroke:#181818;stroke-width:0.5;" width="112" x="257" y="2403.8359"/><text fill="#000000" font-family="sans-serif" font-size="13" lengthAdjust="spacing" textLength="104" x="261" y="2419.9028">&#12503;&#12521;&#12531;&#30331;&#37682;&#12408;&#25147;&#12427;</text><polygon fill="#181818" points="230,2456.1016,240,2460.1016,230,2464.1016,234,2460.1016" style="stroke:#181818;stroke-width:1.0;"/><line style="stroke:#181818;stroke-width:1.0;" x1="44" x2="236" y1="2460.1016" y2="2460.1016"/><text fill="#000000" font-family="sans-serif" font-size="13" lengthAdjust="spacing" textLength="104" x="51" y="2455.0356">&#12300;&#30906;&#35469;&#12375;&#12383;&#12301;&#25276;&#19979;</text><line style="stroke:#181818;stroke-width:1.0;" x1="252" x2="294" y1="2489.2344" y2="2489.2344"/><line style="stroke:#181818;stroke-width:1.0;" x1="294" x2="294" y1="2489.2344" y2="2502.2344"/><line style="stroke:#181818;stroke-width:1.0;" x1="253" x2="294" y1="2502.2344" y2="2502.2344"/><polygon fill="#181818" points="263,2498.2344,253,2502.2344,263,2506.2344,259,2502.2344" style="stroke:#181818;stroke-width:1.0;"/><text fill="#000000" font-family="sans-serif" font-size="13" lengthAdjust="spacing" textLength="143" x="259" y="2484.1685">&#12467;&#12531;&#12486;&#12531;&#12484;&#26356;&#26032;&#30011;&#38754;&#34920;&#31034;</text><rect fill="#87CEEB" height="38" style="stroke:#181818;stroke-width:0.5;" width="281" x="257" y="2515.2344"/><text fill="#000000" font-family="sans-serif" font-size="13" lengthAdjust="spacing" textLength="208" x="261" y="2531.3013">&#12493;&#12540;&#12512;&#12469;&#12540;&#12496;&#35373;&#23450;&#30906;&#35469;&#20013;&#12398;&#22580;&#21512;&#12399;&#12289;</text><text fill="#000000" font-family="sans-serif" font-size="13" lengthAdjust="spacing" textLength="273" x="261" y="2546.4341">&#30906;&#35469;&#20013;&#12391;&#12354;&#12427;&#12371;&#12392;&#12434;&#12467;&#12531;&#12486;&#12531;&#12484;&#26356;&#26032;&#30011;&#38754;&#12391;&#34920;&#31034;</text><!--SRC=[hLXRJ-D657xthx2s3orTHMtLDrHLQXTfYzHMgAWFbNYnm6sZKWSbfYlUCZQNG424krYoX50WG9O0tMmRI20_PZBZv8c_q3CpjcF7TbXjomCupZdVd7E-Snlqk3wfojXuYuqZR6RQpJkoT2197yAhGsnSOgE9pGQflBJkpoHbN4yavIVOF85tsFZxYQoavEcKcfIcbAGU7uzFAPeEtuEQUSRm0C9y0wXM-PBcosFQHoFFCBh7g80H8DzWSn-RUmCSPaBz8pwk-e564rfy_9j4IfU_6Xa6xMT3tty2Jx7dYgw-K6Q4eZ8LzslHwrjQop2Fm4Xp0yu1rL4z6PzIXKQAFqkIn4oNOr_QPyjFdmw2rs-uoVFyzopTgzBjAskptdbrs2wUMaUtKb9BwAgSZF_ogoudVdPqFtYUL5Nj9tLoCl52ak47cnVOkE911Q0jzf75R9si6jPSILAr2Pa1ISgateq-pPzRk_NEybyOLSX1bUGo7Ci-eslfe4V5d2C7rsJkc2pj-UnK9rCUNWKiYmjglWFuOq5WYZtH0pKdBx1Pn6OMcyVmaIurMhLiX89Z7SH599v7-lsSrYQaw6D8RaNeXCYOYyngJXVTlY6DrGwgqQLzAPHjc-5U5SZgLlqO7C0eYur56u79VYot5yv9PXwZ4bdT9lSx6EsmCl10s78yvsMMz7GrrxhV0x9uAcy7P3iBQvtY2ZiAGG2p3us2C0kTmzauZR1HvXMmA7pcG4skNs2y6bVjj4ddAkqJvCz6PkdYIfXtthJf6y5ke7aMTdqAkXA6tQKUYXlAiWUzLKktJ-muGZlmgdmHYt4T-FEubHv-GdF6RwZZ48IgJug5Q8JOKEJ4bDz9EBri7Twspu7e6awls0KIKXm2WCpFaSgDqF1LHXGoj7QUYoVqTJ7YY2u9_lfhrIkYhJ0IUDI5R50IwXj8exk6a7U4HICMsD-fkZAaw0g8OiF0w1IZCYJnc0P9qLweOhGBEJwLJ4nCZ-kGBVGeRrKFEH3Zt4QAnRns3CeZoiplggQdU2jhS4BBW3kcZRX0s62D-Q6HePkNT74BercQBtIsDp3Q54QqZnRerjL3On4-ZcbTeXrLCDYgvZ0wncWDmjXglh8gHIaa7qCuSy_4vWuRcL0EF5u-vaA8YD9pQy9ZwF0G2wcvnkVj6fD6fTPTqzeyzSVAgu3AZakhlP7Ymxl81naxoqEbmwIZOOjteSZMFDb0RaRuABG1WC2U-Sh6EwlGXmP4Dqlp6PkOD7feR92RAZbUiwgphEcXCoueNf2xGpe7JNWTYXoZ6yWTvW5QjdBp5Fgds_22F4L7DrX2tPpn3AJe-kaH5yNGsSwIKXQwCBqsnZGxmrEUU9zwc0chdD0S25P6K38KpAXZqyJ6FzWiWQ2rMQ2PN3YONr90mgRLyvxPRvvZCyrTUCrtmyoFFtmxq9jz8MX0NqG5HrOPSpBaDB3hyqy_6_2GuezWhueNsPNqnr2mvwlKaB5WZs1lVaGQuGDcFJLe1EiZV6Fq2qD4W2QoL11hnMEZrE_1snpTppjpj1yfefEupTc43QF4lx_qglR99Z_0c2P4ex3yVJredEi6Tq0um_gUB-JGs8U7e7dRWoU0uiumEt9yVBAMpYTZn6e1bSoZBSXdKnEgDP13Jiv5BRD-6ho88fr0drGAdPTxB43e4Yu_y40kxyMu3futOA_yWTGWHzTqQ-U_f0OlQxYnYLBcGqJiCB1GmaOhyA7Nfl-akTk1oAW9mVypQbx4lbUJz3APNo6t9ww-60sm_y76muPH_uj7dw9dAideMuAuAVHGKgEPEemaBk2EeeZDihl_yHj3lnNmlI-lex_DV3qvhThNcXLUG0VE3JhNFhrW_m3WLhHg5-wkpYxnQSILF5-MC3BukDtWeskzZr4WtBstyI3y2m00]--></g></svg>