<?xml version="1.0" encoding="UTF-8" standalone="no"?><svg xmlns="http://www.w3.org/2000/svg" xmlns:xlink="http://www.w3.org/1999/xlink" contentStyleType="text/css" height="2144px" preserveAspectRatio="none" style="width:526px;height:2144px;background:#FFFFFF;" version="1.1" viewBox="0 0 526 2144" width="526px" zoomAndPan="magnify"><defs/><g><text fill="#000000" font-family="sans-serif" font-size="14" font-weight="bold" lengthAdjust="spacing" textLength="75" x="224.5" y="27.9951">サイト追加</text><rect fill="#FFFFFF" height="1905.1797" style="stroke:#181818;stroke-width:1.0;" width="10" x="211" y="149.7266"/><rect fill="#FFFFFF" height="29.1328" style="stroke:#181818;stroke-width:1.0;" width="10" x="417" y="526.8594"/><rect fill="#FFFFFF" height="14" style="stroke:#181818;stroke-width:1.0;" width="10" x="417" y="614.2578"/><rect fill="#FFFFFF" height="14" style="stroke:#181818;stroke-width:1.0;" width="10" x="417" y="752.7891"/><rect fill="#FFFFFF" height="14" style="stroke:#181818;stroke-width:1.0;" width="10" x="417" y="1236.9141"/><rect fill="#FFFFFF" height="14" style="stroke:#181818;stroke-width:1.0;" width="10" x="417" y="1395.25"/><rect fill="#FFFFFF" height="14" style="stroke:#181818;stroke-width:1.0;" width="10" x="417" y="1839.1094"/><rect fill="none" height="300.8672" style="stroke:#000000;stroke-width:1.5;" width="373" x="10" y="197.8594"/><rect fill="none" height="202.7969" style="stroke:#000000;stroke-width:1.5;" width="497.5" x="10" y="643.2578"/><rect fill="none" height="448.5313" style="stroke:#000000;stroke-width:1.5;" width="497.5" x="10" y="1098.25"/><rect fill="none" height="88.3984" style="stroke:#000000;stroke-width:1.5;" width="342" x="10" y="1868.1094"/><line style="stroke:#181818;stroke-width:0.5;stroke-dasharray:5.0,5.0;" x1="44" x2="44" y1="118.5938" y2="2063.9063"/><line style="stroke:#181818;stroke-width:0.5;stroke-dasharray:5.0,5.0;" x1="215.5" x2="215.5" y1="118.5938" y2="2063.9063"/><line style="stroke:#181818;stroke-width:0.5;stroke-dasharray:5.0,5.0;" x1="421.5" x2="421.5" y1="118.5938" y2="2063.9063"/><text fill="#000000" font-family="sans-serif" font-size="14" lengthAdjust="spacing" textLength="42" x="20" y="115.292">ユーザ</text><ellipse cx="44" cy="50.7969" fill="#E2E2F0" rx="8" ry="8" style="stroke:#181818;stroke-width:0.5;"/><path d="M44,58.7969 L44,85.7969 M31,66.7969 L57,66.7969 M44,85.7969 L31,100.7969 M44,85.7969 L57,100.7969 " fill="none" style="stroke:#181818;stroke-width:0.5;"/><text fill="#000000" font-family="sans-serif" font-size="14" lengthAdjust="spacing" textLength="42" x="20" y="2075.9014">ユーザ</text><ellipse cx="44" cy="2087.7031" fill="#E2E2F0" rx="8" ry="8" style="stroke:#181818;stroke-width:0.5;"/><path d="M44,2095.7031 L44,2122.7031 M31,2103.7031 L57,2103.7031 M44,2122.7031 L31,2137.7031 M44,2122.7031 L57,2137.7031 " fill="none" style="stroke:#181818;stroke-width:0.5;"/><rect fill="#E2E2F0" height="46.5938" rx="2.5" ry="2.5" style="stroke:#181818;stroke-width:0.5;" width="127" x="152.5" y="71"/><text fill="#000000" font-family="sans-serif" font-size="14" lengthAdjust="spacing" textLength="112" x="160" y="90.9951">クライアント端末</text><text fill="#000000" font-family="sans-serif" font-size="14" lengthAdjust="spacing" textLength="113" x="159.5" y="107.292">(PCまたはスマホ)</text><rect fill="#E2E2F0" height="46.5938" rx="2.5" ry="2.5" style="stroke:#181818;stroke-width:0.5;" width="127" x="152.5" y="2062.9063"/><text fill="#000000" font-family="sans-serif" font-size="14" lengthAdjust="spacing" textLength="112" x="160" y="2082.9014">クライアント端末</text><text fill="#000000" font-family="sans-serif" font-size="14" lengthAdjust="spacing" textLength="113" x="159.5" y="2099.1982">(PCまたはスマホ)</text><rect fill="#E2E2F0" height="46.5938" rx="2.5" ry="2.5" style="stroke:#181818;stroke-width:0.5;" width="151" x="346.5" y="71"/><text fill="#000000" font-family="sans-serif" font-size="14" lengthAdjust="spacing" textLength="99" x="372.5" y="90.9951">SonicHost API</text><text fill="#000000" font-family="sans-serif" font-size="14" lengthAdjust="spacing" textLength="137" x="353.5" y="107.292">(CDN/API-Gateway)</text><rect fill="#E2E2F0" height="46.5938" rx="2.5" ry="2.5" style="stroke:#181818;stroke-width:0.5;" width="151" x="346.5" y="2062.9063"/><text fill="#000000" font-family="sans-serif" font-size="14" lengthAdjust="spacing" textLength="99" x="372.5" y="2082.9014">SonicHost API</text><text fill="#000000" font-family="sans-serif" font-size="14" lengthAdjust="spacing" textLength="137" x="353.5" y="2099.1982">(CDN/API-Gateway)</text><rect fill="#FFFFFF" height="1905.1797" style="stroke:#181818;stroke-width:1.0;" width="10" x="211" y="149.7266"/><rect fill="#FFFFFF" height="29.1328" style="stroke:#181818;stroke-width:1.0;" width="10" x="417" y="526.8594"/><rect fill="#FFFFFF" height="14" style="stroke:#181818;stroke-width:1.0;" width="10" x="417" y="614.2578"/><rect fill="#FFFFFF" height="14" style="stroke:#181818;stroke-width:1.0;" width="10" x="417" y="752.7891"/><rect fill="#FFFFFF" height="14" style="stroke:#181818;stroke-width:1.0;" width="10" x="417" y="1236.9141"/><rect fill="#FFFFFF" height="14" style="stroke:#181818;stroke-width:1.0;" width="10" x="417" y="1395.25"/><rect fill="#FFFFFF" height="14" style="stroke:#181818;stroke-width:1.0;" width="10" x="417" y="1839.1094"/><polygon fill="#181818" points="199,145.7266,209,149.7266,199,153.7266,203,149.7266" style="stroke:#181818;stroke-width:1.0;"/><line style="stroke:#181818;stroke-width:1.0;" x1="44" x2="205" y1="149.7266" y2="149.7266"/><text fill="#000000" font-family="sans-serif" font-size="13" lengthAdjust="spacing" textLength="89" x="51" y="144.6606">HOME画面表示</text><rect fill="#ADFF2F" height="23" style="stroke:#181818;stroke-width:0.5;" width="138" x="226" y="162.7266"/><text fill="#000000" font-family="sans-serif" font-size="13" lengthAdjust="spacing" textLength="130" x="230" y="178.7935">ログインフローを参照</text><path d="M10,197.8594 L76,197.8594 L76,204.9922 L66,214.9922 L10,214.9922 L10,197.8594 " fill="#EEEEEE" style="stroke:#000000;stroke-width:1.5;"/><rect fill="none" height="300.8672" style="stroke:#000000;stroke-width:1.5;" width="373" x="10" y="197.8594"/><text fill="#000000" font-family="sans-serif" font-size="13" font-weight="bold" lengthAdjust="spacing" textLength="21" x="25" y="210.9263">alt</text><text fill="#000000" font-family="sans-serif" font-size="11" font-weight="bold" lengthAdjust="spacing" textLength="109" x="91" y="210.0698">[サイト未登録の場合]</text><line style="stroke:#181818;stroke-width:1.0;" x1="221" x2="263" y1="236.125" y2="236.125"/><line style="stroke:#181818;stroke-width:1.0;" x1="263" x2="263" y1="236.125" y2="249.125"/><line style="stroke:#181818;stroke-width:1.0;" x1="222" x2="263" y1="249.125" y2="249.125"/><polygon fill="#181818" points="232,245.125,222,249.125,232,253.125,228,249.125" style="stroke:#181818;stroke-width:1.0;"/><text fill="#000000" font-family="sans-serif" font-size="13" lengthAdjust="spacing" textLength="117" x="228" y="231.0591">プラン選択画面表示</text><line style="stroke:#000000;stroke-width:1.0;stroke-dasharray:2.0,2.0;" x1="10" x2="383" y1="258.125" y2="258.125"/><text fill="#000000" font-family="sans-serif" font-size="11" font-weight="bold" lengthAdjust="spacing" textLength="120" x="15" y="268.3354">[サイト登録済みの場合]</text><line style="stroke:#181818;stroke-width:1.0;" x1="221" x2="263" y1="293.0625" y2="293.0625"/><line style="stroke:#181818;stroke-width:1.0;" x1="263" x2="263" y1="293.0625" y2="306.0625"/><line style="stroke:#181818;stroke-width:1.0;" x1="222" x2="263" y1="306.0625" y2="306.0625"/><polygon fill="#181818" points="232,302.0625,222,306.0625,232,310.0625,228,306.0625" style="stroke:#181818;stroke-width:1.0;"/><text fill="#000000" font-family="sans-serif" font-size="13" lengthAdjust="spacing" textLength="104" x="228" y="287.9966">ＨＯＭＥ画面表示</text><polygon fill="#181818" points="199,331.1953,209,335.1953,199,339.1953,203,335.1953" style="stroke:#181818;stroke-width:1.0;"/><line style="stroke:#181818;stroke-width:1.0;" x1="44" x2="205" y1="335.1953" y2="335.1953"/><text fill="#000000" font-family="sans-serif" font-size="13" lengthAdjust="spacing" textLength="117" x="51" y="330.1294">サイト設定確認選択</text><line style="stroke:#181818;stroke-width:1.0;" x1="221" x2="263" y1="364.3281" y2="364.3281"/><line style="stroke:#181818;stroke-width:1.0;" x1="263" x2="263" y1="364.3281" y2="377.3281"/><line style="stroke:#181818;stroke-width:1.0;" x1="222" x2="263" y1="377.3281" y2="377.3281"/><polygon fill="#181818" points="232,373.3281,222,377.3281,232,381.3281,228,377.3281" style="stroke:#181818;stroke-width:1.0;"/><text fill="#000000" font-family="sans-serif" font-size="13" lengthAdjust="spacing" textLength="143" x="228" y="359.2622">サイト設定確認画面表示</text><polygon fill="#181818" points="199,402.4609,209,406.4609,199,410.4609,203,406.4609" style="stroke:#181818;stroke-width:1.0;"/><line style="stroke:#181818;stroke-width:1.0;" x1="44" x2="205" y1="406.4609" y2="406.4609"/><text fill="#000000" font-family="sans-serif" font-size="13" lengthAdjust="spacing" textLength="91" x="51" y="401.395">サイト追加押下</text><line style="stroke:#181818;stroke-width:1.0;" x1="221" x2="263" y1="435.5938" y2="435.5938"/><line style="stroke:#181818;stroke-width:1.0;" x1="263" x2="263" y1="435.5938" y2="448.5938"/><line style="stroke:#181818;stroke-width:1.0;" x1="222" x2="263" y1="448.5938" y2="448.5938"/><polygon fill="#181818" points="232,444.5938,222,448.5938,232,452.5938,228,448.5938" style="stroke:#181818;stroke-width:1.0;"/><text fill="#000000" font-family="sans-serif" font-size="13" lengthAdjust="spacing" textLength="91" x="228" y="430.5278">サイト追加押下</text><line style="stroke:#181818;stroke-width:1.0;" x1="221" x2="263" y1="477.7266" y2="477.7266"/><line style="stroke:#181818;stroke-width:1.0;" x1="263" x2="263" y1="477.7266" y2="490.7266"/><line style="stroke:#181818;stroke-width:1.0;" x1="222" x2="263" y1="490.7266" y2="490.7266"/><polygon fill="#181818" points="232,486.7266,222,490.7266,232,494.7266,228,490.7266" style="stroke:#181818;stroke-width:1.0;"/><text fill="#000000" font-family="sans-serif" font-size="13" lengthAdjust="spacing" textLength="117" x="228" y="472.6606">プラン選択画面表示</text><polygon fill="#181818" points="405,522.8594,415,526.8594,405,530.8594,409,526.8594" style="stroke:#181818;stroke-width:1.0;"/><line style="stroke:#181818;stroke-width:1.0;" x1="221" x2="411" y1="526.8594" y2="526.8594"/><text fill="#000000" font-family="sans-serif" font-size="13" lengthAdjust="spacing" textLength="111" x="228" y="521.7935">プラン情報取得API</text><polygon fill="#181818" points="232,551.9922,222,555.9922,232,559.9922,228,555.9922" style="stroke:#181818;stroke-width:1.0;"/><line style="stroke:#181818;stroke-width:1.0;stroke-dasharray:2.0,2.0;" x1="226" x2="421" y1="555.9922" y2="555.9922"/><text fill="#000000" font-family="sans-serif" font-size="13" lengthAdjust="spacing" textLength="65" x="238" y="550.9263">プラン情報</text><polygon fill="#181818" points="199,581.125,209,585.125,199,589.125,203,585.125" style="stroke:#181818;stroke-width:1.0;"/><line style="stroke:#181818;stroke-width:1.0;" x1="44" x2="205" y1="585.125" y2="585.125"/><text fill="#000000" font-family="sans-serif" font-size="13" lengthAdjust="spacing" textLength="65" x="51" y="580.0591">プラン選択</text><polygon fill="#181818" points="405,610.2578,415,614.2578,405,618.2578,409,614.2578" style="stroke:#181818;stroke-width:1.0;"/><line style="stroke:#181818;stroke-width:1.0;" x1="221" x2="411" y1="614.2578" y2="614.2578"/><text fill="#000000" font-family="sans-serif" font-size="13" lengthAdjust="spacing" textLength="85" x="228" y="609.1919">プラン登録API</text><polygon fill="#181818" points="232,624.2578,222,628.2578,232,632.2578,228,628.2578" style="stroke:#181818;stroke-width:1.0;"/><line style="stroke:#181818;stroke-width:1.0;stroke-dasharray:2.0,2.0;" x1="226" x2="421" y1="628.2578" y2="628.2578"/><path d="M10,643.2578 L76,643.2578 L76,650.3906 L66,660.3906 L10,660.3906 L10,643.2578 " fill="#EEEEEE" style="stroke:#000000;stroke-width:1.5;"/><rect fill="none" height="202.7969" style="stroke:#000000;stroke-width:1.5;" width="497.5" x="10" y="643.2578"/><text fill="#000000" font-family="sans-serif" font-size="13" font-weight="bold" lengthAdjust="spacing" textLength="21" x="25" y="656.3247">alt</text><text fill="#000000" font-family="sans-serif" font-size="11" font-weight="bold" lengthAdjust="spacing" textLength="131" x="91" y="655.4683">[カード情報未入力の場合]</text><line style="stroke:#181818;stroke-width:1.0;" x1="221" x2="263" y1="681.5234" y2="681.5234"/><line style="stroke:#181818;stroke-width:1.0;" x1="263" x2="263" y1="681.5234" y2="694.5234"/><line style="stroke:#181818;stroke-width:1.0;" x1="222" x2="263" y1="694.5234" y2="694.5234"/><polygon fill="#181818" points="232,690.5234,222,694.5234,232,698.5234,228,694.5234" style="stroke:#181818;stroke-width:1.0;"/><text fill="#000000" font-family="sans-serif" font-size="13" lengthAdjust="spacing" textLength="167" x="228" y="676.4575">カード登録画面表示：Stripe</text><polygon fill="#181818" points="199,719.6563,209,723.6563,199,727.6563,203,723.6563" style="stroke:#181818;stroke-width:1.0;"/><line style="stroke:#181818;stroke-width:1.0;" x1="44" x2="205" y1="723.6563" y2="723.6563"/><text fill="#000000" font-family="sans-serif" font-size="13" lengthAdjust="spacing" textLength="91" x="51" y="718.5903">カード情報入力</text><polygon fill="#181818" points="405,748.7891,415,752.7891,405,756.7891,409,752.7891" style="stroke:#181818;stroke-width:1.0;"/><line style="stroke:#181818;stroke-width:1.0;" x1="221" x2="411" y1="752.7891" y2="752.7891"/><text fill="#000000" font-family="sans-serif" font-size="13" lengthAdjust="spacing" textLength="56" x="228" y="747.7231">stripeAPI</text><polygon fill="#181818" points="232,762.7891,222,766.7891,232,770.7891,228,766.7891" style="stroke:#181818;stroke-width:1.0;"/><line style="stroke:#181818;stroke-width:1.0;stroke-dasharray:2.0,2.0;" x1="226" x2="421" y1="766.7891" y2="766.7891"/><line style="stroke:#181818;stroke-width:1.0;" x1="221" x2="263" y1="795.9219" y2="795.9219"/><line style="stroke:#181818;stroke-width:1.0;" x1="263" x2="263" y1="795.9219" y2="808.9219"/><line style="stroke:#181818;stroke-width:1.0;" x1="222" x2="263" y1="808.9219" y2="808.9219"/><polygon fill="#181818" points="232,804.9219,222,808.9219,232,812.9219,228,808.9219" style="stroke:#181818;stroke-width:1.0;"/><text fill="#000000" font-family="sans-serif" font-size="13" lengthAdjust="spacing" textLength="104" x="228" y="790.856">登録完了画面表示</text><polygon fill="#181818" points="199,834.0547,209,838.0547,199,842.0547,203,838.0547" style="stroke:#181818;stroke-width:1.0;"/><line style="stroke:#181818;stroke-width:1.0;" x1="44" x2="205" y1="838.0547" y2="838.0547"/><text fill="#000000" font-family="sans-serif" font-size="13" lengthAdjust="spacing" textLength="143" x="51" y="832.9888">「サイト情報登録」押下</text><line style="stroke:#181818;stroke-width:1.0;" x1="221" x2="263" y1="874.1875" y2="874.1875"/><line style="stroke:#181818;stroke-width:1.0;" x1="263" x2="263" y1="874.1875" y2="887.1875"/><line style="stroke:#181818;stroke-width:1.0;" x1="222" x2="263" y1="887.1875" y2="887.1875"/><polygon fill="#181818" points="232,883.1875,222,887.1875,232,891.1875,228,887.1875" style="stroke:#181818;stroke-width:1.0;"/><text fill="#000000" font-family="sans-serif" font-size="13" lengthAdjust="spacing" textLength="130" x="228" y="869.1216">サイト名入力画面表示</text><polygon fill="#181818" points="199,912.3203,209,916.3203,199,920.3203,203,916.3203" style="stroke:#181818;stroke-width:1.0;"/><line style="stroke:#181818;stroke-width:1.0;" x1="44" x2="205" y1="916.3203" y2="916.3203"/><text fill="#000000" font-family="sans-serif" font-size="13" lengthAdjust="spacing" textLength="78" x="51" y="911.2544">サイト名入力</text><line style="stroke:#181818;stroke-width:1.0;" x1="221" x2="263" y1="945.4531" y2="945.4531"/><line style="stroke:#181818;stroke-width:1.0;" x1="263" x2="263" y1="945.4531" y2="958.4531"/><line style="stroke:#181818;stroke-width:1.0;" x1="222" x2="263" y1="958.4531" y2="958.4531"/><polygon fill="#181818" points="232,954.4531,222,958.4531,232,962.4531,228,958.4531" style="stroke:#181818;stroke-width:1.0;"/><text fill="#000000" font-family="sans-serif" font-size="13" lengthAdjust="spacing" textLength="156" x="228" y="940.3872">ドメイン方式選択画面表示</text><path d="M226,971.4531 L226,1056.4531 L468,1056.4531 L468,981.4531 L458,971.4531 L226,971.4531 " fill="#FEFFDD" style="stroke:#181818;stroke-width:0.5;"/><path d="M458,971.4531 L458,981.4531 L468,981.4531 L458,971.4531 " fill="#FEFFDD" style="stroke:#181818;stroke-width:0.5;"/><text fill="#000000" font-family="sans-serif" font-size="13" lengthAdjust="spacing" textLength="169" x="232" y="988.52">ドメイン方式は以下から選択</text><ellipse cx="237.5" cy="999.2188" fill="#000000" rx="2.5" ry="2.5" style="stroke:#000000;stroke-width:0.0;"/><text fill="#000000" font-family="sans-serif" font-size="13" lengthAdjust="spacing" textLength="143" x="244" y="1003.6528">自分で取得したドメイン</text><ellipse cx="237.5" cy="1014.3516" fill="#000000" rx="2.5" ry="2.5" style="stroke:#000000;stroke-width:0.0;"/><text fill="#000000" font-family="sans-serif" font-size="13" lengthAdjust="spacing" textLength="184" x="244" y="1018.7856">Sonic Host提供のサブドメイン</text><text fill="#000000" font-family="sans-serif" font-size="13" lengthAdjust="spacing" textLength="78" x="232" y="1033.9185">金額かえる？</text><text fill="#000000" font-family="sans-serif" font-size="13" lengthAdjust="spacing" textLength="221" x="232" y="1049.0513">なら、カード入力のタイミング考慮要</text><polygon fill="#181818" points="199,1079.25,209,1083.25,199,1087.25,203,1083.25" style="stroke:#181818;stroke-width:1.0;"/><line style="stroke:#181818;stroke-width:1.0;" x1="44" x2="205" y1="1083.25" y2="1083.25"/><text fill="#000000" font-family="sans-serif" font-size="13" lengthAdjust="spacing" textLength="104" x="51" y="1078.1841">ドメイン方式選択</text><path d="M10,1098.25 L76,1098.25 L76,1105.3828 L66,1115.3828 L10,1115.3828 L10,1098.25 " fill="#EEEEEE" style="stroke:#000000;stroke-width:1.5;"/><rect fill="none" height="448.5313" style="stroke:#000000;stroke-width:1.5;" width="497.5" x="10" y="1098.25"/><text fill="#000000" font-family="sans-serif" font-size="13" font-weight="bold" lengthAdjust="spacing" textLength="21" x="25" y="1111.3169">alt</text><text fill="#000000" font-family="sans-serif" font-size="11" font-weight="bold" lengthAdjust="spacing" textLength="131" x="91" y="1110.4604">[自前ドメイン方式の場合]</text><line style="stroke:#181818;stroke-width:1.0;" x1="221" x2="263" y1="1136.5156" y2="1136.5156"/><line style="stroke:#181818;stroke-width:1.0;" x1="263" x2="263" y1="1136.5156" y2="1149.5156"/><line style="stroke:#181818;stroke-width:1.0;" x1="222" x2="263" y1="1149.5156" y2="1149.5156"/><polygon fill="#181818" points="232,1145.5156,222,1149.5156,232,1153.5156,228,1149.5156" style="stroke:#181818;stroke-width:1.0;"/><text fill="#000000" font-family="sans-serif" font-size="13" lengthAdjust="spacing" textLength="130" x="228" y="1131.4497">ドメイン入力画面表示</text><polygon fill="#181818" points="199,1174.6484,209,1178.6484,199,1182.6484,203,1178.6484" style="stroke:#181818;stroke-width:1.0;"/><line style="stroke:#181818;stroke-width:1.0;" x1="44" x2="205" y1="1178.6484" y2="1178.6484"/><text fill="#000000" font-family="sans-serif" font-size="13" lengthAdjust="spacing" textLength="91" x="51" y="1173.5825">ドメイン名入力</text><polygon fill="#181818" points="199,1203.7813,209,1207.7813,199,1211.7813,203,1207.7813" style="stroke:#181818;stroke-width:1.0;"/><line style="stroke:#181818;stroke-width:1.0;" x1="44" x2="205" y1="1207.7813" y2="1207.7813"/><text fill="#000000" font-family="sans-serif" font-size="13" lengthAdjust="spacing" textLength="78" x="51" y="1202.7153">「確定」押下</text><polygon fill="#181818" points="405,1232.9141,415,1236.9141,405,1240.9141,409,1236.9141" style="stroke:#181818;stroke-width:1.0;"/><line style="stroke:#181818;stroke-width:1.0;" x1="221" x2="411" y1="1236.9141" y2="1236.9141"/><text fill="#000000" font-family="sans-serif" font-size="13" lengthAdjust="spacing" textLength="111" x="228" y="1231.8481">ドメイン仮登録API</text><polygon fill="#181818" points="232,1246.9141,222,1250.9141,232,1254.9141,228,1250.9141" style="stroke:#181818;stroke-width:1.0;"/><line style="stroke:#181818;stroke-width:1.0;stroke-dasharray:2.0,2.0;" x1="226" x2="421" y1="1250.9141" y2="1250.9141"/><line style="stroke:#181818;stroke-width:1.0;" x1="221" x2="263" y1="1280.0469" y2="1280.0469"/><line style="stroke:#181818;stroke-width:1.0;" x1="263" x2="263" y1="1280.0469" y2="1293.0469"/><line style="stroke:#181818;stroke-width:1.0;" x1="222" x2="263" y1="1293.0469" y2="1293.0469"/><polygon fill="#181818" points="232,1289.0469,222,1293.0469,232,1297.0469,228,1293.0469" style="stroke:#181818;stroke-width:1.0;"/><text fill="#000000" font-family="sans-serif" font-size="13" lengthAdjust="spacing" textLength="130" x="228" y="1274.981">ネームサーバ表示画面</text><polygon fill="#181818" points="199,1318.1797,209,1322.1797,199,1326.1797,203,1322.1797" style="stroke:#181818;stroke-width:1.0;"/><line style="stroke:#181818;stroke-width:1.0;" x1="44" x2="205" y1="1322.1797" y2="1322.1797"/><text fill="#000000" font-family="sans-serif" font-size="13" lengthAdjust="spacing" textLength="26" x="51" y="1317.1138">確認</text><polygon fill="#181818" points="199,1347.3125,209,1351.3125,199,1355.3125,203,1351.3125" style="stroke:#181818;stroke-width:1.0;"/><line style="stroke:#181818;stroke-width:1.0;" x1="44" x2="205" y1="1351.3125" y2="1351.3125"/><text fill="#000000" font-family="sans-serif" font-size="13" lengthAdjust="spacing" textLength="78" x="51" y="1346.2466">「次へ」押下</text><line style="stroke:#000000;stroke-width:1.0;stroke-dasharray:2.0,2.0;" x1="10" x2="507.5" y1="1360.3125" y2="1360.3125"/><text fill="#000000" font-family="sans-serif" font-size="11" font-weight="bold" lengthAdjust="spacing" textLength="203" x="15" y="1370.5229">[Sonic Hostサブドメイン方式の場合]</text><polygon fill="#181818" points="405,1391.25,415,1395.25,405,1399.25,409,1395.25" style="stroke:#181818;stroke-width:1.0;"/><line style="stroke:#181818;stroke-width:1.0;" x1="221" x2="411" y1="1395.25" y2="1395.25"/><text fill="#000000" font-family="sans-serif" font-size="13" lengthAdjust="spacing" textLength="124" x="228" y="1390.1841">ドメイン一覧取得API</text><polygon fill="#181818" points="232,1405.25,222,1409.25,232,1413.25,228,1409.25" style="stroke:#181818;stroke-width:1.0;"/><line style="stroke:#181818;stroke-width:1.0;stroke-dasharray:2.0,2.0;" x1="226" x2="421" y1="1409.25" y2="1409.25"/><line style="stroke:#181818;stroke-width:1.0;" x1="221" x2="263" y1="1438.3828" y2="1438.3828"/><line style="stroke:#181818;stroke-width:1.0;" x1="263" x2="263" y1="1438.3828" y2="1451.3828"/><line style="stroke:#181818;stroke-width:1.0;" x1="222" x2="263" y1="1451.3828" y2="1451.3828"/><polygon fill="#181818" points="232,1447.3828,222,1451.3828,232,1455.3828,228,1451.3828" style="stroke:#181818;stroke-width:1.0;"/><text fill="#000000" font-family="sans-serif" font-size="13" lengthAdjust="spacing" textLength="169" x="228" y="1433.3169">ドメイン選択・入力画面表示</text><polygon fill="#181818" points="199,1476.5156,209,1480.5156,199,1484.5156,203,1480.5156" style="stroke:#181818;stroke-width:1.0;"/><line style="stroke:#181818;stroke-width:1.0;" x1="44" x2="205" y1="1480.5156" y2="1480.5156"/><text fill="#000000" font-family="sans-serif" font-size="13" lengthAdjust="spacing" textLength="78" x="51" y="1475.4497">ドメイン選択</text><polygon fill="#181818" points="199,1505.6484,209,1509.6484,199,1513.6484,203,1509.6484" style="stroke:#181818;stroke-width:1.0;"/><line style="stroke:#181818;stroke-width:1.0;" x1="44" x2="205" y1="1509.6484" y2="1509.6484"/><text fill="#000000" font-family="sans-serif" font-size="13" lengthAdjust="spacing" textLength="104" x="51" y="1504.5825">サブドメイン入力</text><polygon fill="#181818" points="199,1534.7813,209,1538.7813,199,1542.7813,203,1538.7813" style="stroke:#181818;stroke-width:1.0;"/><line style="stroke:#181818;stroke-width:1.0;" x1="44" x2="205" y1="1538.7813" y2="1538.7813"/><text fill="#000000" font-family="sans-serif" font-size="13" lengthAdjust="spacing" textLength="78" x="51" y="1533.7153">「次へ」押下</text><line style="stroke:#181818;stroke-width:1.0;" x1="221" x2="263" y1="1574.9141" y2="1574.9141"/><line style="stroke:#181818;stroke-width:1.0;" x1="263" x2="263" y1="1574.9141" y2="1587.9141"/><line style="stroke:#181818;stroke-width:1.0;" x1="222" x2="263" y1="1587.9141" y2="1587.9141"/><polygon fill="#181818" points="232,1583.9141,222,1587.9141,232,1591.9141,228,1587.9141" style="stroke:#181818;stroke-width:1.0;"/><text fill="#000000" font-family="sans-serif" font-size="13" lengthAdjust="spacing" textLength="182" x="228" y="1569.8481">サービスドメイン入力画面表示</text><polygon fill="#181818" points="199,1613.0469,209,1617.0469,199,1621.0469,203,1617.0469" style="stroke:#181818;stroke-width:1.0;"/><line style="stroke:#181818;stroke-width:1.0;" x1="44" x2="205" y1="1617.0469" y2="1617.0469"/><text fill="#000000" font-family="sans-serif" font-size="13" lengthAdjust="spacing" textLength="117" x="51" y="1611.981">サイトドメイン入力</text><polygon fill="#181818" points="199,1642.1797,209,1646.1797,199,1650.1797,203,1646.1797" style="stroke:#181818;stroke-width:1.0;"/><line style="stroke:#181818;stroke-width:1.0;" x1="44" x2="205" y1="1646.1797" y2="1646.1797"/><text fill="#000000" font-family="sans-serif" font-size="13" lengthAdjust="spacing" textLength="117" x="51" y="1641.1138">メールドメイン入力</text><polygon fill="#181818" points="199,1671.3125,209,1675.3125,199,1679.3125,203,1675.3125" style="stroke:#181818;stroke-width:1.0;"/><line style="stroke:#181818;stroke-width:1.0;" x1="44" x2="205" y1="1675.3125" y2="1675.3125"/><text fill="#000000" font-family="sans-serif" font-size="13" lengthAdjust="spacing" textLength="78" x="51" y="1670.2466">「確認」押下</text><line style="stroke:#181818;stroke-width:1.0;" x1="221" x2="263" y1="1704.4453" y2="1704.4453"/><line style="stroke:#181818;stroke-width:1.0;" x1="263" x2="263" y1="1704.4453" y2="1717.4453"/><line style="stroke:#181818;stroke-width:1.0;" x1="222" x2="263" y1="1717.4453" y2="1717.4453"/><polygon fill="#181818" points="232,1713.4453,222,1717.4453,232,1721.4453,228,1717.4453" style="stroke:#181818;stroke-width:1.0;"/><text fill="#000000" font-family="sans-serif" font-size="13" lengthAdjust="spacing" textLength="130" x="228" y="1699.3794">入力内容確認画面表示</text><rect fill="#87CEEB" height="53" style="stroke:#181818;stroke-width:0.5;" width="294" x="226" y="1730.4453"/><text fill="#000000" font-family="sans-serif" font-size="13" lengthAdjust="spacing" textLength="286" x="230" y="1746.5122">変更したい項目があれば「変更」ボタンを押下。</text><text fill="#000000" font-family="sans-serif" font-size="13" lengthAdjust="spacing" textLength="260" x="230" y="1761.645">外套の変更画面に遷移し、「確認」ボタンを</text><text fill="#000000" font-family="sans-serif" font-size="13" lengthAdjust="spacing" textLength="156" x="230" y="1776.7778">押下すると今の画面に戻る</text><polygon fill="#181818" points="199,1805.9766,209,1809.9766,199,1813.9766,203,1809.9766" style="stroke:#181818;stroke-width:1.0;"/><line style="stroke:#181818;stroke-width:1.0;" x1="44" x2="205" y1="1809.9766" y2="1809.9766"/><text fill="#000000" font-family="sans-serif" font-size="13" lengthAdjust="spacing" textLength="78" x="51" y="1804.9106">「確定」押下</text><polygon fill="#181818" points="405,1835.1094,415,1839.1094,405,1843.1094,409,1839.1094" style="stroke:#181818;stroke-width:1.0;"/><line style="stroke:#181818;stroke-width:1.0;" x1="221" x2="411" y1="1839.1094" y2="1839.1094"/><text fill="#000000" font-family="sans-serif" font-size="13" lengthAdjust="spacing" textLength="111" x="228" y="1834.0435">サイト情報更新API</text><polygon fill="#181818" points="232,1849.1094,222,1853.1094,232,1857.1094,228,1853.1094" style="stroke:#181818;stroke-width:1.0;"/><line style="stroke:#181818;stroke-width:1.0;stroke-dasharray:2.0,2.0;" x1="226" x2="421" y1="1853.1094" y2="1853.1094"/><path d="M10,1868.1094 L76,1868.1094 L76,1875.2422 L66,1885.2422 L10,1885.2422 L10,1868.1094 " fill="#EEEEEE" style="stroke:#000000;stroke-width:1.5;"/><rect fill="none" height="88.3984" style="stroke:#000000;stroke-width:1.5;" width="342" x="10" y="1868.1094"/><text fill="#000000" font-family="sans-serif" font-size="13" font-weight="bold" lengthAdjust="spacing" textLength="21" x="25" y="1881.1763">alt</text><text fill="#000000" font-family="sans-serif" font-size="11" font-weight="bold" lengthAdjust="spacing" textLength="120" x="91" y="1880.3198">[サイト初回登録の場合]</text><line style="stroke:#181818;stroke-width:1.0;" x1="221" x2="263" y1="1906.375" y2="1906.375"/><line style="stroke:#181818;stroke-width:1.0;" x1="263" x2="263" y1="1906.375" y2="1919.375"/><line style="stroke:#181818;stroke-width:1.0;" x1="222" x2="263" y1="1919.375" y2="1919.375"/><polygon fill="#181818" points="232,1915.375,222,1919.375,232,1923.375,228,1919.375" style="stroke:#181818;stroke-width:1.0;"/><text fill="#000000" font-family="sans-serif" font-size="13" lengthAdjust="spacing" textLength="112" x="228" y="1901.3091">Welcome画面表示</text><polygon fill="#181818" points="199,1944.5078,209,1948.5078,199,1952.5078,203,1948.5078" style="stroke:#181818;stroke-width:1.0;"/><line style="stroke:#181818;stroke-width:1.0;" x1="44" x2="205" y1="1948.5078" y2="1948.5078"/><text fill="#000000" font-family="sans-serif" font-size="13" lengthAdjust="spacing" textLength="129" x="51" y="1943.4419">「Homeへ進む」押下</text><line style="stroke:#181818;stroke-width:1.0;" x1="221" x2="263" y1="1984.6406" y2="1984.6406"/><line style="stroke:#181818;stroke-width:1.0;" x1="263" x2="263" y1="1984.6406" y2="1997.6406"/><line style="stroke:#181818;stroke-width:1.0;" x1="222" x2="263" y1="1997.6406" y2="1997.6406"/><polygon fill="#181818" points="232,1993.6406,222,1997.6406,232,2001.6406,228,1997.6406" style="stroke:#181818;stroke-width:1.0;"/><text fill="#000000" font-family="sans-serif" font-size="13" lengthAdjust="spacing" textLength="89" x="228" y="1979.5747">HOME画面表示</text><rect fill="#87CEEB" height="38" style="stroke:#181818;stroke-width:0.5;" width="227" x="226" y="2010.6406"/><text fill="#000000" font-family="sans-serif" font-size="13" lengthAdjust="spacing" textLength="208" x="230" y="2026.7075">ネームサーバ設定確認中の場合は、</text><text fill="#000000" font-family="sans-serif" font-size="13" lengthAdjust="spacing" textLength="219" x="230" y="2041.8403">確認中であることをHOME画面委表示</text><!--MD5=[fb6ca40941ae62b1ab1fbfcda429efba]
@startuml
title サイト追加

' アクター定義
actor "ユーザ" as user
participant "クライアント端末\n(PCまたはスマホ)" as device
participant "SonicHost API\n(CDN/API-Gateway)" as api


user -> device ++: HOME画面表示
rnote right of device #GreenYellow
    ログインフローを参照
end note
alt サイト未登録の場合
    device -> device : プラン選択画面表示
else サイト登録済みの場合
    device -> device : ＨＯＭＥ画面表示
    user -> device : サイト設定確認選択
    device -> device : サイト設定確認画面表示
    user -> device : サイト追加押下
    device -> device : サイト追加押下
    device -> device : プラン選択画面表示
end
device -> api ++ : プラン情報取得API
device <- - api - - : プラン情報
user -> device : プラン選択
device -> api ++ : プラン登録API
device <- - api - - 
alt カード情報未入力の場合
    device -> device : カード登録画面表示：Stripe
    user -> device : カード情報入力
    device -> api ++ : stripeAPI
    device <- - api - - 
    device -> device : 登録完了画面表示
    user -> device : 「サイト情報登録」押下
end 
device -> device : サイト名入力画面表示
user -> device : サイト名入力
device -> device : ドメイン方式選択画面表示
note right of device 
    ドメイン方式は以下から選択
    * 自分で取得したドメイン
    * Sonic Host提供のサブドメイン
    金額かえる？
    なら、カード入力のタイミング考慮要
end note
user -> device : ドメイン方式選択
alt 自前ドメイン方式の場合
    device -> device :ドメイン入力画面表示
    user -> device : ドメイン名入力
    user -> device : 「確定」押下
    device -> api ++ : ドメイン仮登録API
    device <- - api - - 
    device -> device : ネームサーバ表示画面
    user -> device : 確認
    user -> device : 「次へ」押下
else Sonic Hostサブドメイン方式の場合
    device -> api ++ : ドメイン一覧取得API
    device <- - api - - 
    device -> device : ドメイン選択・入力画面表示
    user -> device : ドメイン選択
    user -> device : サブドメイン入力
    user -> device : 「次へ」押下
end 
device -> device : サービスドメイン入力画面表示
user -> device : サイトドメイン入力
user -> device : メールドメイン入力
user -> device : 「確認」押下
device -> device : 入力内容確認画面表示
rnote right of device #SkyBlue
    変更したい項目があれば「変更」ボタンを押下。
    外套の変更画面に遷移し、「確認」ボタンを
    押下すると今の画面に戻る
end note
user -> device : 「確定」押下
device -> api ++ : サイト情報更新API
device <- - api - - 
alt サイト初回登録の場合
    device -> device : Welcome画面表示
    user -> device : 「Homeへ進む」押下
end 
device -> device : HOME画面表示
rnote right of device #SkyBlue
    ネームサーバ設定確認中の場合は、
    確認中であることをHOME画面委表示
end note
@enduml

@startuml
title サイト追加

actor "ユーザ" as user
participant "クライアント端末\n(PCまたはスマホ)" as device
participant "SonicHost API\n(CDN/API-Gateway)" as api


user -> device ++: HOME画面表示
rnote right of device #GreenYellow
    ログインフローを参照
end note
alt サイト未登録の場合
    device -> device : プラン選択画面表示
else サイト登録済みの場合
    device -> device : ＨＯＭＥ画面表示
    user -> device : サイト設定確認選択
    device -> device : サイト設定確認画面表示
    user -> device : サイト追加押下
    device -> device : サイト追加押下
    device -> device : プラン選択画面表示
end
device -> api ++ : プラン情報取得API
device <- - api - - : プラン情報
user -> device : プラン選択
device -> api ++ : プラン登録API
device <- - api - - 
alt カード情報未入力の場合
    device -> device : カード登録画面表示：Stripe
    user -> device : カード情報入力
    device -> api ++ : stripeAPI
    device <- - api - - 
    device -> device : 登録完了画面表示
    user -> device : 「サイト情報登録」押下
end 
device -> device : サイト名入力画面表示
user -> device : サイト名入力
device -> device : ドメイン方式選択画面表示
note right of device 
    ドメイン方式は以下から選択
    * 自分で取得したドメイン
    * Sonic Host提供のサブドメイン
    金額かえる？
    なら、カード入力のタイミング考慮要
end note
user -> device : ドメイン方式選択
alt 自前ドメイン方式の場合
    device -> device :ドメイン入力画面表示
    user -> device : ドメイン名入力
    user -> device : 「確定」押下
    device -> api ++ : ドメイン仮登録API
    device <- - api - - 
    device -> device : ネームサーバ表示画面
    user -> device : 確認
    user -> device : 「次へ」押下
else Sonic Hostサブドメイン方式の場合
    device -> api ++ : ドメイン一覧取得API
    device <- - api - - 
    device -> device : ドメイン選択・入力画面表示
    user -> device : ドメイン選択
    user -> device : サブドメイン入力
    user -> device : 「次へ」押下
end 
device -> device : サービスドメイン入力画面表示
user -> device : サイトドメイン入力
user -> device : メールドメイン入力
user -> device : 「確認」押下
device -> device : 入力内容確認画面表示
rnote right of device #SkyBlue
    変更したい項目があれば「変更」ボタンを押下。
    外套の変更画面に遷移し、「確認」ボタンを
    押下すると今の画面に戻る
end note
user -> device : 「確定」押下
device -> api ++ : サイト情報更新API
device <- - api - - 
alt サイト初回登録の場合
    device -> device : Welcome画面表示
    user -> device : 「Homeへ進む」押下
end 
device -> device : HOME画面表示
rnote right of device #SkyBlue
    ネームサーバ設定確認中の場合は、
    確認中であることをHOME画面委表示
end note
@enduml

PlantUML version 1.2022.14beta4(Unknown compile time)
(GPL source distribution)
Java Runtime: Java(TM) SE Runtime Environment
JVM: Java HotSpot(TM) 64-Bit Server VM
Default Encoding: UTF-8
Language: en
Country: US
--></g></svg>