<?xml version="1.0" encoding="UTF-8" standalone="no"?><svg xmlns="http://www.w3.org/2000/svg" xmlns:xlink="http://www.w3.org/1999/xlink" contentStyleType="text/css" height="1901px" preserveAspectRatio="none" style="width:526px;height:1901px;background:#FFFFFF;" version="1.1" viewBox="0 0 526 1901" width="526px" zoomAndPan="magnify"><defs/><g><text fill="#000000" font-family="sans-serif" font-size="14" font-weight="bold" lengthAdjust="spacing" textLength="75" x="224.5" y="27.9951">サイト追加</text><rect fill="#FFFFFF" height="1661.5781" style="stroke:#181818;stroke-width:1.0;" width="10" x="211" y="149.7266"/><rect fill="#FFFFFF" height="29.1328" style="stroke:#181818;stroke-width:1.0;" width="10" x="404" y="283.2578"/><rect fill="#FFFFFF" height="14" style="stroke:#181818;stroke-width:1.0;" width="10" x="404" y="370.6563"/><rect fill="#FFFFFF" height="14" style="stroke:#181818;stroke-width:1.0;" width="10" x="404" y="509.1875"/><rect fill="#FFFFFF" height="14" style="stroke:#181818;stroke-width:1.0;" width="10" x="404" y="993.3125"/><rect fill="#FFFFFF" height="14" style="stroke:#181818;stroke-width:1.0;" width="10" x="404" y="1151.6484"/><rect fill="#FFFFFF" height="14" style="stroke:#181818;stroke-width:1.0;" width="10" x="404" y="1595.5078"/><rect fill="none" height="202.7969" style="stroke:#000000;stroke-width:1.5;" width="484.5" x="10" y="399.6563"/><rect fill="none" height="448.5313" style="stroke:#000000;stroke-width:1.5;" width="484.5" x="10" y="854.6484"/><rect fill="none" height="88.3984" style="stroke:#000000;stroke-width:1.5;" width="342" x="10" y="1624.5078"/><line style="stroke:#181818;stroke-width:0.5;stroke-dasharray:5.0,5.0;" x1="44" x2="44" y1="118.5938" y2="1820.3047"/><line style="stroke:#181818;stroke-width:0.5;stroke-dasharray:5.0,5.0;" x1="215.5" x2="215.5" y1="118.5938" y2="1820.3047"/><line style="stroke:#181818;stroke-width:0.5;stroke-dasharray:5.0,5.0;" x1="408.5" x2="408.5" y1="118.5938" y2="1820.3047"/><text fill="#000000" font-family="sans-serif" font-size="14" lengthAdjust="spacing" textLength="42" x="20" y="115.292">ユーザ</text><ellipse cx="44" cy="50.7969" fill="#E2E2F0" rx="8" ry="8" style="stroke:#181818;stroke-width:0.5;"/><path d="M44,58.7969 L44,85.7969 M31,66.7969 L57,66.7969 M44,85.7969 L31,100.7969 M44,85.7969 L57,100.7969 " fill="none" style="stroke:#181818;stroke-width:0.5;"/><text fill="#000000" font-family="sans-serif" font-size="14" lengthAdjust="spacing" textLength="42" x="20" y="1832.2998">ユーザ</text><ellipse cx="44" cy="1844.1016" fill="#E2E2F0" rx="8" ry="8" style="stroke:#181818;stroke-width:0.5;"/><path d="M44,1852.1016 L44,1879.1016 M31,1860.1016 L57,1860.1016 M44,1879.1016 L31,1894.1016 M44,1879.1016 L57,1894.1016 " fill="none" style="stroke:#181818;stroke-width:0.5;"/><rect fill="#E2E2F0" height="46.5938" rx="2.5" ry="2.5" style="stroke:#181818;stroke-width:0.5;" width="127" x="152.5" y="71"/><text fill="#000000" font-family="sans-serif" font-size="14" lengthAdjust="spacing" textLength="112" x="160" y="90.9951">クライアント端末</text><text fill="#000000" font-family="sans-serif" font-size="14" lengthAdjust="spacing" textLength="113" x="159.5" y="107.292">(PCまたはスマホ)</text><rect fill="#E2E2F0" height="46.5938" rx="2.5" ry="2.5" style="stroke:#181818;stroke-width:0.5;" width="127" x="152.5" y="1819.3047"/><text fill="#000000" font-family="sans-serif" font-size="14" lengthAdjust="spacing" textLength="112" x="160" y="1839.2998">クライアント端末</text><text fill="#000000" font-family="sans-serif" font-size="14" lengthAdjust="spacing" textLength="113" x="159.5" y="1855.5967">(PCまたはスマホ)</text><rect fill="#E2E2F0" height="46.5938" rx="2.5" ry="2.5" style="stroke:#181818;stroke-width:0.5;" width="151" x="333.5" y="71"/><text fill="#000000" font-family="sans-serif" font-size="14" lengthAdjust="spacing" textLength="99" x="359.5" y="90.9951">SonicHost API</text><text fill="#000000" font-family="sans-serif" font-size="14" lengthAdjust="spacing" textLength="137" x="340.5" y="107.292">(CDN/API-Gateway)</text><rect fill="#E2E2F0" height="46.5938" rx="2.5" ry="2.5" style="stroke:#181818;stroke-width:0.5;" width="151" x="333.5" y="1819.3047"/><text fill="#000000" font-family="sans-serif" font-size="14" lengthAdjust="spacing" textLength="99" x="359.5" y="1839.2998">SonicHost API</text><text fill="#000000" font-family="sans-serif" font-size="14" lengthAdjust="spacing" textLength="137" x="340.5" y="1855.5967">(CDN/API-Gateway)</text><rect fill="#FFFFFF" height="1661.5781" style="stroke:#181818;stroke-width:1.0;" width="10" x="211" y="149.7266"/><rect fill="#FFFFFF" height="29.1328" style="stroke:#181818;stroke-width:1.0;" width="10" x="404" y="283.2578"/><rect fill="#FFFFFF" height="14" style="stroke:#181818;stroke-width:1.0;" width="10" x="404" y="370.6563"/><rect fill="#FFFFFF" height="14" style="stroke:#181818;stroke-width:1.0;" width="10" x="404" y="509.1875"/><rect fill="#FFFFFF" height="14" style="stroke:#181818;stroke-width:1.0;" width="10" x="404" y="993.3125"/><rect fill="#FFFFFF" height="14" style="stroke:#181818;stroke-width:1.0;" width="10" x="404" y="1151.6484"/><rect fill="#FFFFFF" height="14" style="stroke:#181818;stroke-width:1.0;" width="10" x="404" y="1595.5078"/><polygon fill="#181818" points="199,145.7266,209,149.7266,199,153.7266,203,149.7266" style="stroke:#181818;stroke-width:1.0;"/><line style="stroke:#181818;stroke-width:1.0;" x1="44" x2="205" y1="149.7266" y2="149.7266"/><text fill="#000000" font-family="sans-serif" font-size="13" lengthAdjust="spacing" textLength="89" x="51" y="144.6606">HOME画面表示</text><rect fill="#ADFF2F" height="23" style="stroke:#181818;stroke-width:0.5;" width="138" x="226" y="162.7266"/><text fill="#000000" font-family="sans-serif" font-size="13" lengthAdjust="spacing" textLength="130" x="230" y="178.7935">ログインフローを参照</text><polygon fill="#181818" points="199,207.9922,209,211.9922,199,215.9922,203,211.9922" style="stroke:#181818;stroke-width:1.0;"/><line style="stroke:#181818;stroke-width:1.0;" x1="44" x2="205" y1="211.9922" y2="211.9922"/><text fill="#000000" font-family="sans-serif" font-size="13" lengthAdjust="spacing" textLength="91" x="51" y="206.9263">サイト追加選択</text><line style="stroke:#181818;stroke-width:1.0;" x1="221" x2="263" y1="241.125" y2="241.125"/><line style="stroke:#181818;stroke-width:1.0;" x1="263" x2="263" y1="241.125" y2="254.125"/><line style="stroke:#181818;stroke-width:1.0;" x1="222" x2="263" y1="254.125" y2="254.125"/><polygon fill="#181818" points="232,250.125,222,254.125,232,258.125,228,254.125" style="stroke:#181818;stroke-width:1.0;"/><text fill="#000000" font-family="sans-serif" font-size="13" lengthAdjust="spacing" textLength="117" x="228" y="236.0591">プラン選択画面表示</text><polygon fill="#181818" points="392,279.2578,402,283.2578,392,287.2578,396,283.2578" style="stroke:#181818;stroke-width:1.0;"/><line style="stroke:#181818;stroke-width:1.0;" x1="221" x2="398" y1="283.2578" y2="283.2578"/><text fill="#000000" font-family="sans-serif" font-size="13" lengthAdjust="spacing" textLength="111" x="228" y="278.1919">プラン情報取得API</text><polygon fill="#181818" points="232,308.3906,222,312.3906,232,316.3906,228,312.3906" style="stroke:#181818;stroke-width:1.0;"/><line style="stroke:#181818;stroke-width:1.0;stroke-dasharray:2.0,2.0;" x1="226" x2="408" y1="312.3906" y2="312.3906"/><text fill="#000000" font-family="sans-serif" font-size="13" lengthAdjust="spacing" textLength="65" x="238" y="307.3247">プラン情報</text><polygon fill="#181818" points="199,337.5234,209,341.5234,199,345.5234,203,341.5234" style="stroke:#181818;stroke-width:1.0;"/><line style="stroke:#181818;stroke-width:1.0;" x1="44" x2="205" y1="341.5234" y2="341.5234"/><text fill="#000000" font-family="sans-serif" font-size="13" lengthAdjust="spacing" textLength="65" x="51" y="336.4575">プラン選択</text><polygon fill="#181818" points="392,366.6563,402,370.6563,392,374.6563,396,370.6563" style="stroke:#181818;stroke-width:1.0;"/><line style="stroke:#181818;stroke-width:1.0;" x1="221" x2="398" y1="370.6563" y2="370.6563"/><text fill="#000000" font-family="sans-serif" font-size="13" lengthAdjust="spacing" textLength="85" x="228" y="365.5903">プラン登録API</text><polygon fill="#181818" points="232,380.6563,222,384.6563,232,388.6563,228,384.6563" style="stroke:#181818;stroke-width:1.0;"/><line style="stroke:#181818;stroke-width:1.0;stroke-dasharray:2.0,2.0;" x1="226" x2="408" y1="384.6563" y2="384.6563"/><path d="M10,399.6563 L76,399.6563 L76,406.7891 L66,416.7891 L10,416.7891 L10,399.6563 " fill="#EEEEEE" style="stroke:#000000;stroke-width:1.5;"/><rect fill="none" height="202.7969" style="stroke:#000000;stroke-width:1.5;" width="484.5" x="10" y="399.6563"/><text fill="#000000" font-family="sans-serif" font-size="13" font-weight="bold" lengthAdjust="spacing" textLength="21" x="25" y="412.7231">alt</text><text fill="#000000" font-family="sans-serif" font-size="11" font-weight="bold" lengthAdjust="spacing" textLength="131" x="91" y="411.8667">[カード情報未入力の場合]</text><line style="stroke:#181818;stroke-width:1.0;" x1="221" x2="263" y1="437.9219" y2="437.9219"/><line style="stroke:#181818;stroke-width:1.0;" x1="263" x2="263" y1="437.9219" y2="450.9219"/><line style="stroke:#181818;stroke-width:1.0;" x1="222" x2="263" y1="450.9219" y2="450.9219"/><polygon fill="#181818" points="232,446.9219,222,450.9219,232,454.9219,228,450.9219" style="stroke:#181818;stroke-width:1.0;"/><text fill="#000000" font-family="sans-serif" font-size="13" lengthAdjust="spacing" textLength="167" x="228" y="432.856">カード登録画面表示：Stripe</text><polygon fill="#181818" points="199,476.0547,209,480.0547,199,484.0547,203,480.0547" style="stroke:#181818;stroke-width:1.0;"/><line style="stroke:#181818;stroke-width:1.0;" x1="44" x2="205" y1="480.0547" y2="480.0547"/><text fill="#000000" font-family="sans-serif" font-size="13" lengthAdjust="spacing" textLength="91" x="51" y="474.9888">カード情報入力</text><polygon fill="#181818" points="392,505.1875,402,509.1875,392,513.1875,396,509.1875" style="stroke:#181818;stroke-width:1.0;"/><line style="stroke:#181818;stroke-width:1.0;" x1="221" x2="398" y1="509.1875" y2="509.1875"/><text fill="#000000" font-family="sans-serif" font-size="13" lengthAdjust="spacing" textLength="56" x="228" y="504.1216">stripeAPI</text><polygon fill="#181818" points="232,519.1875,222,523.1875,232,527.1875,228,523.1875" style="stroke:#181818;stroke-width:1.0;"/><line style="stroke:#181818;stroke-width:1.0;stroke-dasharray:2.0,2.0;" x1="226" x2="408" y1="523.1875" y2="523.1875"/><line style="stroke:#181818;stroke-width:1.0;" x1="221" x2="263" y1="552.3203" y2="552.3203"/><line style="stroke:#181818;stroke-width:1.0;" x1="263" x2="263" y1="552.3203" y2="565.3203"/><line style="stroke:#181818;stroke-width:1.0;" x1="222" x2="263" y1="565.3203" y2="565.3203"/><polygon fill="#181818" points="232,561.3203,222,565.3203,232,569.3203,228,565.3203" style="stroke:#181818;stroke-width:1.0;"/><text fill="#000000" font-family="sans-serif" font-size="13" lengthAdjust="spacing" textLength="104" x="228" y="547.2544">登録完了画面表示</text><polygon fill="#181818" points="199,590.4531,209,594.4531,199,598.4531,203,594.4531" style="stroke:#181818;stroke-width:1.0;"/><line style="stroke:#181818;stroke-width:1.0;" x1="44" x2="205" y1="594.4531" y2="594.4531"/><text fill="#000000" font-family="sans-serif" font-size="13" lengthAdjust="spacing" textLength="143" x="51" y="589.3872">「サイト情報登録」押下</text><line style="stroke:#181818;stroke-width:1.0;" x1="221" x2="263" y1="630.5859" y2="630.5859"/><line style="stroke:#181818;stroke-width:1.0;" x1="263" x2="263" y1="630.5859" y2="643.5859"/><line style="stroke:#181818;stroke-width:1.0;" x1="222" x2="263" y1="643.5859" y2="643.5859"/><polygon fill="#181818" points="232,639.5859,222,643.5859,232,647.5859,228,643.5859" style="stroke:#181818;stroke-width:1.0;"/><text fill="#000000" font-family="sans-serif" font-size="13" lengthAdjust="spacing" textLength="130" x="228" y="625.52">サイト名入力画面表示</text><polygon fill="#181818" points="199,668.7188,209,672.7188,199,676.7188,203,672.7188" style="stroke:#181818;stroke-width:1.0;"/><line style="stroke:#181818;stroke-width:1.0;" x1="44" x2="205" y1="672.7188" y2="672.7188"/><text fill="#000000" font-family="sans-serif" font-size="13" lengthAdjust="spacing" textLength="78" x="51" y="667.6528">サイト名入力</text><line style="stroke:#181818;stroke-width:1.0;" x1="221" x2="263" y1="701.8516" y2="701.8516"/><line style="stroke:#181818;stroke-width:1.0;" x1="263" x2="263" y1="701.8516" y2="714.8516"/><line style="stroke:#181818;stroke-width:1.0;" x1="222" x2="263" y1="714.8516" y2="714.8516"/><polygon fill="#181818" points="232,710.8516,222,714.8516,232,718.8516,228,714.8516" style="stroke:#181818;stroke-width:1.0;"/><text fill="#000000" font-family="sans-serif" font-size="13" lengthAdjust="spacing" textLength="156" x="228" y="696.7856">ドメイン方式選択画面表示</text><path d="M226,727.8516 L226,812.8516 L468,812.8516 L468,737.8516 L458,727.8516 L226,727.8516 " fill="#FEFFDD" style="stroke:#181818;stroke-width:0.5;"/><path d="M458,727.8516 L458,737.8516 L468,737.8516 L458,727.8516 " fill="#FEFFDD" style="stroke:#181818;stroke-width:0.5;"/><text fill="#000000" font-family="sans-serif" font-size="13" lengthAdjust="spacing" textLength="169" x="232" y="744.9185">ドメイン方式は以下から選択</text><ellipse cx="237.5" cy="755.6172" fill="#000000" rx="2.5" ry="2.5" style="stroke:#000000;stroke-width:0.0;"/><text fill="#000000" font-family="sans-serif" font-size="13" lengthAdjust="spacing" textLength="143" x="244" y="760.0513">自分で取得したドメイン</text><ellipse cx="237.5" cy="770.75" fill="#000000" rx="2.5" ry="2.5" style="stroke:#000000;stroke-width:0.0;"/><text fill="#000000" font-family="sans-serif" font-size="13" lengthAdjust="spacing" textLength="184" x="244" y="775.1841">Sonic Host提供のサブドメイン</text><text fill="#000000" font-family="sans-serif" font-size="13" lengthAdjust="spacing" textLength="78" x="232" y="790.3169">金額かえる？</text><text fill="#000000" font-family="sans-serif" font-size="13" lengthAdjust="spacing" textLength="221" x="232" y="805.4497">なら、カード入力のタイミング考慮要</text><polygon fill="#181818" points="199,835.6484,209,839.6484,199,843.6484,203,839.6484" style="stroke:#181818;stroke-width:1.0;"/><line style="stroke:#181818;stroke-width:1.0;" x1="44" x2="205" y1="839.6484" y2="839.6484"/><text fill="#000000" font-family="sans-serif" font-size="13" lengthAdjust="spacing" textLength="104" x="51" y="834.5825">ドメイン方式選択</text><path d="M10,854.6484 L76,854.6484 L76,861.7813 L66,871.7813 L10,871.7813 L10,854.6484 " fill="#EEEEEE" style="stroke:#000000;stroke-width:1.5;"/><rect fill="none" height="448.5313" style="stroke:#000000;stroke-width:1.5;" width="484.5" x="10" y="854.6484"/><text fill="#000000" font-family="sans-serif" font-size="13" font-weight="bold" lengthAdjust="spacing" textLength="21" x="25" y="867.7153">alt</text><text fill="#000000" font-family="sans-serif" font-size="11" font-weight="bold" lengthAdjust="spacing" textLength="131" x="91" y="866.8589">[自前ドメイン方式の場合]</text><line style="stroke:#181818;stroke-width:1.0;" x1="221" x2="263" y1="892.9141" y2="892.9141"/><line style="stroke:#181818;stroke-width:1.0;" x1="263" x2="263" y1="892.9141" y2="905.9141"/><line style="stroke:#181818;stroke-width:1.0;" x1="222" x2="263" y1="905.9141" y2="905.9141"/><polygon fill="#181818" points="232,901.9141,222,905.9141,232,909.9141,228,905.9141" style="stroke:#181818;stroke-width:1.0;"/><text fill="#000000" font-family="sans-serif" font-size="13" lengthAdjust="spacing" textLength="130" x="228" y="887.8481">ドメイン入力画面表示</text><polygon fill="#181818" points="199,931.0469,209,935.0469,199,939.0469,203,935.0469" style="stroke:#181818;stroke-width:1.0;"/><line style="stroke:#181818;stroke-width:1.0;" x1="44" x2="205" y1="935.0469" y2="935.0469"/><text fill="#000000" font-family="sans-serif" font-size="13" lengthAdjust="spacing" textLength="91" x="51" y="929.981">ドメイン名入力</text><polygon fill="#181818" points="199,960.1797,209,964.1797,199,968.1797,203,964.1797" style="stroke:#181818;stroke-width:1.0;"/><line style="stroke:#181818;stroke-width:1.0;" x1="44" x2="205" y1="964.1797" y2="964.1797"/><text fill="#000000" font-family="sans-serif" font-size="13" lengthAdjust="spacing" textLength="78" x="51" y="959.1138">「確定」押下</text><polygon fill="#181818" points="392,989.3125,402,993.3125,392,997.3125,396,993.3125" style="stroke:#181818;stroke-width:1.0;"/><line style="stroke:#181818;stroke-width:1.0;" x1="221" x2="398" y1="993.3125" y2="993.3125"/><text fill="#000000" font-family="sans-serif" font-size="13" lengthAdjust="spacing" textLength="111" x="228" y="988.2466">ドメイン仮登録API</text><polygon fill="#181818" points="232,1003.3125,222,1007.3125,232,1011.3125,228,1007.3125" style="stroke:#181818;stroke-width:1.0;"/><line style="stroke:#181818;stroke-width:1.0;stroke-dasharray:2.0,2.0;" x1="226" x2="408" y1="1007.3125" y2="1007.3125"/><line style="stroke:#181818;stroke-width:1.0;" x1="221" x2="263" y1="1036.4453" y2="1036.4453"/><line style="stroke:#181818;stroke-width:1.0;" x1="263" x2="263" y1="1036.4453" y2="1049.4453"/><line style="stroke:#181818;stroke-width:1.0;" x1="222" x2="263" y1="1049.4453" y2="1049.4453"/><polygon fill="#181818" points="232,1045.4453,222,1049.4453,232,1053.4453,228,1049.4453" style="stroke:#181818;stroke-width:1.0;"/><text fill="#000000" font-family="sans-serif" font-size="13" lengthAdjust="spacing" textLength="130" x="228" y="1031.3794">ネームサーバ表示画面</text><polygon fill="#181818" points="199,1074.5781,209,1078.5781,199,1082.5781,203,1078.5781" style="stroke:#181818;stroke-width:1.0;"/><line style="stroke:#181818;stroke-width:1.0;" x1="44" x2="205" y1="1078.5781" y2="1078.5781"/><text fill="#000000" font-family="sans-serif" font-size="13" lengthAdjust="spacing" textLength="26" x="51" y="1073.5122">確認</text><polygon fill="#181818" points="199,1103.7109,209,1107.7109,199,1111.7109,203,1107.7109" style="stroke:#181818;stroke-width:1.0;"/><line style="stroke:#181818;stroke-width:1.0;" x1="44" x2="205" y1="1107.7109" y2="1107.7109"/><text fill="#000000" font-family="sans-serif" font-size="13" lengthAdjust="spacing" textLength="78" x="51" y="1102.645">「次へ」押下</text><line style="stroke:#000000;stroke-width:1.0;stroke-dasharray:2.0,2.0;" x1="10" x2="494.5" y1="1116.7109" y2="1116.7109"/><text fill="#000000" font-family="sans-serif" font-size="11" font-weight="bold" lengthAdjust="spacing" textLength="203" x="15" y="1126.9214">[Sonic Hostサブドメイン方式の場合]</text><polygon fill="#181818" points="392,1147.6484,402,1151.6484,392,1155.6484,396,1151.6484" style="stroke:#181818;stroke-width:1.0;"/><line style="stroke:#181818;stroke-width:1.0;" x1="221" x2="398" y1="1151.6484" y2="1151.6484"/><text fill="#000000" font-family="sans-serif" font-size="13" lengthAdjust="spacing" textLength="124" x="228" y="1146.5825">ドメイン一覧取得API</text><polygon fill="#181818" points="232,1161.6484,222,1165.6484,232,1169.6484,228,1165.6484" style="stroke:#181818;stroke-width:1.0;"/><line style="stroke:#181818;stroke-width:1.0;stroke-dasharray:2.0,2.0;" x1="226" x2="408" y1="1165.6484" y2="1165.6484"/><line style="stroke:#181818;stroke-width:1.0;" x1="221" x2="263" y1="1194.7813" y2="1194.7813"/><line style="stroke:#181818;stroke-width:1.0;" x1="263" x2="263" y1="1194.7813" y2="1207.7813"/><line style="stroke:#181818;stroke-width:1.0;" x1="222" x2="263" y1="1207.7813" y2="1207.7813"/><polygon fill="#181818" points="232,1203.7813,222,1207.7813,232,1211.7813,228,1207.7813" style="stroke:#181818;stroke-width:1.0;"/><text fill="#000000" font-family="sans-serif" font-size="13" lengthAdjust="spacing" textLength="169" x="228" y="1189.7153">ドメイン選択・入力画面表示</text><polygon fill="#181818" points="199,1232.9141,209,1236.9141,199,1240.9141,203,1236.9141" style="stroke:#181818;stroke-width:1.0;"/><line style="stroke:#181818;stroke-width:1.0;" x1="44" x2="205" y1="1236.9141" y2="1236.9141"/><text fill="#000000" font-family="sans-serif" font-size="13" lengthAdjust="spacing" textLength="78" x="51" y="1231.8481">ドメイン選択</text><polygon fill="#181818" points="199,1262.0469,209,1266.0469,199,1270.0469,203,1266.0469" style="stroke:#181818;stroke-width:1.0;"/><line style="stroke:#181818;stroke-width:1.0;" x1="44" x2="205" y1="1266.0469" y2="1266.0469"/><text fill="#000000" font-family="sans-serif" font-size="13" lengthAdjust="spacing" textLength="104" x="51" y="1260.981">サブドメイン入力</text><polygon fill="#181818" points="199,1291.1797,209,1295.1797,199,1299.1797,203,1295.1797" style="stroke:#181818;stroke-width:1.0;"/><line style="stroke:#181818;stroke-width:1.0;" x1="44" x2="205" y1="1295.1797" y2="1295.1797"/><text fill="#000000" font-family="sans-serif" font-size="13" lengthAdjust="spacing" textLength="78" x="51" y="1290.1138">「次へ」押下</text><line style="stroke:#181818;stroke-width:1.0;" x1="221" x2="263" y1="1331.3125" y2="1331.3125"/><line style="stroke:#181818;stroke-width:1.0;" x1="263" x2="263" y1="1331.3125" y2="1344.3125"/><line style="stroke:#181818;stroke-width:1.0;" x1="222" x2="263" y1="1344.3125" y2="1344.3125"/><polygon fill="#181818" points="232,1340.3125,222,1344.3125,232,1348.3125,228,1344.3125" style="stroke:#181818;stroke-width:1.0;"/><text fill="#000000" font-family="sans-serif" font-size="13" lengthAdjust="spacing" textLength="143" x="228" y="1326.2466">サブドメインズ入力画面</text><polygon fill="#181818" points="199,1369.4453,209,1373.4453,199,1377.4453,203,1373.4453" style="stroke:#181818;stroke-width:1.0;"/><line style="stroke:#181818;stroke-width:1.0;" x1="44" x2="205" y1="1373.4453" y2="1373.4453"/><text fill="#000000" font-family="sans-serif" font-size="13" lengthAdjust="spacing" textLength="117" x="51" y="1368.3794">サイトドメイン入力</text><polygon fill="#181818" points="199,1398.5781,209,1402.5781,199,1406.5781,203,1402.5781" style="stroke:#181818;stroke-width:1.0;"/><line style="stroke:#181818;stroke-width:1.0;" x1="44" x2="205" y1="1402.5781" y2="1402.5781"/><text fill="#000000" font-family="sans-serif" font-size="13" lengthAdjust="spacing" textLength="117" x="51" y="1397.5122">メールドメイン入力</text><polygon fill="#181818" points="199,1427.7109,209,1431.7109,199,1435.7109,203,1431.7109" style="stroke:#181818;stroke-width:1.0;"/><line style="stroke:#181818;stroke-width:1.0;" x1="44" x2="205" y1="1431.7109" y2="1431.7109"/><text fill="#000000" font-family="sans-serif" font-size="13" lengthAdjust="spacing" textLength="78" x="51" y="1426.645">「確認」押下</text><line style="stroke:#181818;stroke-width:1.0;" x1="221" x2="263" y1="1460.8438" y2="1460.8438"/><line style="stroke:#181818;stroke-width:1.0;" x1="263" x2="263" y1="1460.8438" y2="1473.8438"/><line style="stroke:#181818;stroke-width:1.0;" x1="222" x2="263" y1="1473.8438" y2="1473.8438"/><polygon fill="#181818" points="232,1469.8438,222,1473.8438,232,1477.8438,228,1473.8438" style="stroke:#181818;stroke-width:1.0;"/><text fill="#000000" font-family="sans-serif" font-size="13" lengthAdjust="spacing" textLength="130" x="228" y="1455.7778">入力内容確認画面表示</text><rect fill="#87CEEB" height="53" style="stroke:#181818;stroke-width:0.5;" width="294" x="226" y="1486.8438"/><text fill="#000000" font-family="sans-serif" font-size="13" lengthAdjust="spacing" textLength="286" x="230" y="1502.9106">変更したい項目があれば「変更」ボタンを押下。</text><text fill="#000000" font-family="sans-serif" font-size="13" lengthAdjust="spacing" textLength="260" x="230" y="1518.0435">外套の変更画面に遷移し、「確認」ボタンを</text><text fill="#000000" font-family="sans-serif" font-size="13" lengthAdjust="spacing" textLength="156" x="230" y="1533.1763">押下すると今の画面に戻る</text><polygon fill="#181818" points="199,1562.375,209,1566.375,199,1570.375,203,1566.375" style="stroke:#181818;stroke-width:1.0;"/><line style="stroke:#181818;stroke-width:1.0;" x1="44" x2="205" y1="1566.375" y2="1566.375"/><text fill="#000000" font-family="sans-serif" font-size="13" lengthAdjust="spacing" textLength="78" x="51" y="1561.3091">「確定」押下</text><polygon fill="#181818" points="392,1591.5078,402,1595.5078,392,1599.5078,396,1595.5078" style="stroke:#181818;stroke-width:1.0;"/><line style="stroke:#181818;stroke-width:1.0;" x1="221" x2="398" y1="1595.5078" y2="1595.5078"/><text fill="#000000" font-family="sans-serif" font-size="13" lengthAdjust="spacing" textLength="111" x="228" y="1590.4419">サイト情報更新API</text><polygon fill="#181818" points="232,1605.5078,222,1609.5078,232,1613.5078,228,1609.5078" style="stroke:#181818;stroke-width:1.0;"/><line style="stroke:#181818;stroke-width:1.0;stroke-dasharray:2.0,2.0;" x1="226" x2="408" y1="1609.5078" y2="1609.5078"/><path d="M10,1624.5078 L76,1624.5078 L76,1631.6406 L66,1641.6406 L10,1641.6406 L10,1624.5078 " fill="#EEEEEE" style="stroke:#000000;stroke-width:1.5;"/><rect fill="none" height="88.3984" style="stroke:#000000;stroke-width:1.5;" width="342" x="10" y="1624.5078"/><text fill="#000000" font-family="sans-serif" font-size="13" font-weight="bold" lengthAdjust="spacing" textLength="21" x="25" y="1637.5747">alt</text><text fill="#000000" font-family="sans-serif" font-size="11" font-weight="bold" lengthAdjust="spacing" textLength="120" x="91" y="1636.7183">[サイト初回登録の場合]</text><line style="stroke:#181818;stroke-width:1.0;" x1="221" x2="263" y1="1662.7734" y2="1662.7734"/><line style="stroke:#181818;stroke-width:1.0;" x1="263" x2="263" y1="1662.7734" y2="1675.7734"/><line style="stroke:#181818;stroke-width:1.0;" x1="222" x2="263" y1="1675.7734" y2="1675.7734"/><polygon fill="#181818" points="232,1671.7734,222,1675.7734,232,1679.7734,228,1675.7734" style="stroke:#181818;stroke-width:1.0;"/><text fill="#000000" font-family="sans-serif" font-size="13" lengthAdjust="spacing" textLength="112" x="228" y="1657.7075">Welcome画面表示</text><polygon fill="#181818" points="199,1700.9063,209,1704.9063,199,1708.9063,203,1704.9063" style="stroke:#181818;stroke-width:1.0;"/><line style="stroke:#181818;stroke-width:1.0;" x1="44" x2="205" y1="1704.9063" y2="1704.9063"/><text fill="#000000" font-family="sans-serif" font-size="13" lengthAdjust="spacing" textLength="129" x="51" y="1699.8403">「Homeへ進む」押下</text><line style="stroke:#181818;stroke-width:1.0;" x1="221" x2="263" y1="1741.0391" y2="1741.0391"/><line style="stroke:#181818;stroke-width:1.0;" x1="263" x2="263" y1="1741.0391" y2="1754.0391"/><line style="stroke:#181818;stroke-width:1.0;" x1="222" x2="263" y1="1754.0391" y2="1754.0391"/><polygon fill="#181818" points="232,1750.0391,222,1754.0391,232,1758.0391,228,1754.0391" style="stroke:#181818;stroke-width:1.0;"/><text fill="#000000" font-family="sans-serif" font-size="13" lengthAdjust="spacing" textLength="89" x="228" y="1735.9731">HOME画面表示</text><rect fill="#87CEEB" height="38" style="stroke:#181818;stroke-width:0.5;" width="227" x="226" y="1767.0391"/><text fill="#000000" font-family="sans-serif" font-size="13" lengthAdjust="spacing" textLength="208" x="230" y="1783.106">ネームサーバ設定確認中の場合は、</text><text fill="#000000" font-family="sans-serif" font-size="13" lengthAdjust="spacing" textLength="219" x="230" y="1798.2388">確認中であることをHOME画面委表示</text><!--MD5=[6296938c4c63a8109b5973e2079c7468]
@startuml
title サイト追加

' アクター定義
actor "ユーザ" as user
participant "クライアント端末\n(PCまたはスマホ)" as device
participant "SonicHost API\n(CDN/API-Gateway)" as api


user -> device ++: HOME画面表示
rnote right of device #GreenYellow
    ログインフローを参照
end note
user -> device : サイト追加選択

device -> device : プラン選択画面表示
device -> api ++ : プラン情報取得API
device <- - api - - : プラン情報
user -> device : プラン選択
device -> api ++ : プラン登録API
device <- - api - - 
alt カード情報未入力の場合
    device -> device : カード登録画面表示：Stripe
    user -> device : カード情報入力
    device -> api ++ : stripeAPI
    device <- - api - - 
    device -> device : 登録完了画面表示
    user -> device : 「サイト情報登録」押下
end 
device -> device : サイト名入力画面表示
user -> device : サイト名入力
device -> device : ドメイン方式選択画面表示
note right of device 
    ドメイン方式は以下から選択
    * 自分で取得したドメイン
    * Sonic Host提供のサブドメイン
    金額かえる？
    なら、カード入力のタイミング考慮要
end note
user -> device : ドメイン方式選択
alt 自前ドメイン方式の場合
    device -> device :ドメイン入力画面表示
    user -> device : ドメイン名入力
    user -> device : 「確定」押下
    device -> api ++ : ドメイン仮登録API
    device <- - api - - 
    device -> device : ネームサーバ表示画面
    user -> device : 確認
    user -> device : 「次へ」押下
else Sonic Hostサブドメイン方式の場合
    device -> api ++ : ドメイン一覧取得API
    device <- - api - - 
    device -> device : ドメイン選択・入力画面表示
    user -> device : ドメイン選択
    user -> device : サブドメイン入力
    user -> device : 「次へ」押下
end 
device -> device : サブドメインズ入力画面
user -> device : サイトドメイン入力
user -> device : メールドメイン入力
user -> device : 「確認」押下
device -> device : 入力内容確認画面表示
rnote right of device #SkyBlue
    変更したい項目があれば「変更」ボタンを押下。
    外套の変更画面に遷移し、「確認」ボタンを
    押下すると今の画面に戻る
end note
user -> device : 「確定」押下
device -> api ++ : サイト情報更新API
device <- - api - - 
alt サイト初回登録の場合
    device -> device : Welcome画面表示
    user -> device : 「Homeへ進む」押下
end 
device -> device : HOME画面表示
rnote right of device #SkyBlue
    ネームサーバ設定確認中の場合は、
    確認中であることをHOME画面委表示
end note
@enduml

@startuml
title サイト追加

actor "ユーザ" as user
participant "クライアント端末\n(PCまたはスマホ)" as device
participant "SonicHost API\n(CDN/API-Gateway)" as api


user -> device ++: HOME画面表示
rnote right of device #GreenYellow
    ログインフローを参照
end note
user -> device : サイト追加選択

device -> device : プラン選択画面表示
device -> api ++ : プラン情報取得API
device <- - api - - : プラン情報
user -> device : プラン選択
device -> api ++ : プラン登録API
device <- - api - - 
alt カード情報未入力の場合
    device -> device : カード登録画面表示：Stripe
    user -> device : カード情報入力
    device -> api ++ : stripeAPI
    device <- - api - - 
    device -> device : 登録完了画面表示
    user -> device : 「サイト情報登録」押下
end 
device -> device : サイト名入力画面表示
user -> device : サイト名入力
device -> device : ドメイン方式選択画面表示
note right of device 
    ドメイン方式は以下から選択
    * 自分で取得したドメイン
    * Sonic Host提供のサブドメイン
    金額かえる？
    なら、カード入力のタイミング考慮要
end note
user -> device : ドメイン方式選択
alt 自前ドメイン方式の場合
    device -> device :ドメイン入力画面表示
    user -> device : ドメイン名入力
    user -> device : 「確定」押下
    device -> api ++ : ドメイン仮登録API
    device <- - api - - 
    device -> device : ネームサーバ表示画面
    user -> device : 確認
    user -> device : 「次へ」押下
else Sonic Hostサブドメイン方式の場合
    device -> api ++ : ドメイン一覧取得API
    device <- - api - - 
    device -> device : ドメイン選択・入力画面表示
    user -> device : ドメイン選択
    user -> device : サブドメイン入力
    user -> device : 「次へ」押下
end 
device -> device : サブドメインズ入力画面
user -> device : サイトドメイン入力
user -> device : メールドメイン入力
user -> device : 「確認」押下
device -> device : 入力内容確認画面表示
rnote right of device #SkyBlue
    変更したい項目があれば「変更」ボタンを押下。
    外套の変更画面に遷移し、「確認」ボタンを
    押下すると今の画面に戻る
end note
user -> device : 「確定」押下
device -> api ++ : サイト情報更新API
device <- - api - - 
alt サイト初回登録の場合
    device -> device : Welcome画面表示
    user -> device : 「Homeへ進む」押下
end 
device -> device : HOME画面表示
rnote right of device #SkyBlue
    ネームサーバ設定確認中の場合は、
    確認中であることをHOME画面委表示
end note
@enduml

PlantUML version 1.2022.14beta4(Unknown compile time)
(GPL source distribution)
Java Runtime: Java(TM) SE Runtime Environment
JVM: Java HotSpot(TM) 64-Bit Server VM
Default Encoding: UTF-8
Language: en
Country: US
--></g></svg>