<?xml version="1.0" encoding="us-ascii" standalone="no"?><svg xmlns="http://www.w3.org/2000/svg" xmlns:xlink="http://www.w3.org/1999/xlink" contentStyleType="text/css" height="2721px" preserveAspectRatio="none" style="width:893px;height:2721px;background:#FFFFFF;" version="1.1" viewBox="0 0 893 2721" width="893px" zoomAndPan="magnify"><defs/><g><text fill="#000000" font-family="sans-serif" font-size="14" font-weight="bold" lengthAdjust="spacing" textLength="75" x="408" y="27.9951">&#12469;&#12452;&#12488;&#36861;&#21152;</text><rect fill="#FFFFFF" height="2482.1719" style="stroke:#181818;stroke-width:1.0;" width="10" x="237" y="149.7266"/><rect fill="#FFFFFF" height="884.3906" style="stroke:#181818;stroke-width:1.0;" width="10" x="242" y="1747.5078"/><rect fill="#FFFFFF" height="14" style="stroke:#181818;stroke-width:1.0;" width="10" x="486" y="664.5938"/><rect fill="#FFFFFF" height="217.0625" style="stroke:#181818;stroke-width:1.0;" width="10" x="486" y="931.6563"/><rect fill="#FFFFFF" height="162.6641" style="stroke:#181818;stroke-width:1.0;" width="10" x="486" y="1235.1172"/><rect fill="#FFFFFF" height="218.0625" style="stroke:#181818;stroke-width:1.0;" width="10" x="486" y="1471.1797"/><rect fill="#FFFFFF" height="286.1953" style="stroke:#181818;stroke-width:1.0;" width="10" x="486" y="1903.0391"/><rect fill="#FFFFFF" height="44.2656" style="stroke:#181818;stroke-width:1.0;" width="10" x="486" y="2305.5703"/><rect fill="#FFFFFF" height="14" style="stroke:#181818;stroke-width:1.0;" width="10" x="770" y="1033.1875"/><rect fill="#FFFFFF" height="29.1328" style="stroke:#181818;stroke-width:1.0;" width="10" x="770" y="1500.3125"/><rect fill="#FFFFFF" height="44.2656" style="stroke:#181818;stroke-width:1.0;" width="10" x="770" y="1558.5781"/><rect fill="#FFFFFF" height="59.1328" style="stroke:#181818;stroke-width:1.0;" width="10" x="770" y="1718.375"/><rect fill="#FFFFFF" height="14" style="stroke:#181818;stroke-width:1.0;" width="10" x="770" y="1835.7734"/><rect fill="#FFFFFF" height="14" style="stroke:#181818;stroke-width:1.0;" width="10" x="770" y="1989.4375"/><rect fill="#FFFFFF" height="14" style="stroke:#181818;stroke-width:1.0;" width="10" x="855.5" y="1306.3828"/><rect fill="none" height="216.6016" style="stroke:#000000;stroke-width:1.5;" width="399" x="10" y="197.8594"/><rect fill="none" height="162.4688" style="stroke:#000000;stroke-width:1.5;" width="566.5" x="10" y="582.3906"/><rect fill="none" height="639.5938" style="stroke:#000000;stroke-width:1.5;" width="824" x="10" y="1864.7734"/><line style="stroke:#181818;stroke-width:0.5;stroke-dasharray:5.0,5.0;" x1="44" x2="44" y1="118.5938" y2="2640.8984"/><line style="stroke:#181818;stroke-width:0.5;stroke-dasharray:5.0,5.0;" x1="241.5" x2="241.5" y1="118.5938" y2="2640.8984"/><line style="stroke:#181818;stroke-width:0.5;stroke-dasharray:5.0,5.0;" x1="490.5" x2="490.5" y1="118.5938" y2="2640.8984"/><line style="stroke:#181818;stroke-width:0.5;stroke-dasharray:5.0,5.0;" x1="775" x2="775" y1="118.5938" y2="2640.8984"/><line style="stroke:#181818;stroke-width:0.5;stroke-dasharray:5.0,5.0;" x1="860" x2="860" y1="118.5938" y2="2640.8984"/><text fill="#000000" font-family="sans-serif" font-size="14" lengthAdjust="spacing" textLength="42" x="20" y="115.292">&#12518;&#12540;&#12470;</text><ellipse cx="44" cy="50.7969" fill="#E2E2F0" rx="8" ry="8" style="stroke:#181818;stroke-width:0.5;"/><path d="M44,58.7969 L44,85.7969 M31,66.7969 L57,66.7969 M44,85.7969 L31,100.7969 M44,85.7969 L57,100.7969 " fill="none" style="stroke:#181818;stroke-width:0.5;"/><text fill="#000000" font-family="sans-serif" font-size="14" lengthAdjust="spacing" textLength="42" x="20" y="2652.8936">&#12518;&#12540;&#12470;</text><ellipse cx="44" cy="2664.6953" fill="#E2E2F0" rx="8" ry="8" style="stroke:#181818;stroke-width:0.5;"/><path d="M44,2672.6953 L44,2699.6953 M31,2680.6953 L57,2680.6953 M44,2699.6953 L31,2714.6953 M44,2699.6953 L57,2714.6953 " fill="none" style="stroke:#181818;stroke-width:0.5;"/><rect fill="#E2E2F0" height="46.5938" rx="2.5" ry="2.5" style="stroke:#181818;stroke-width:0.5;" width="127" x="178.5" y="71"/><text fill="#000000" font-family="sans-serif" font-size="14" lengthAdjust="spacing" textLength="112" x="186" y="90.9951">&#12463;&#12521;&#12452;&#12450;&#12531;&#12488;&#31471;&#26411;</text><text fill="#000000" font-family="sans-serif" font-size="14" lengthAdjust="spacing" textLength="113" x="185.5" y="107.292">(PC&#12414;&#12383;&#12399;&#12473;&#12510;&#12507;)</text><rect fill="#E2E2F0" height="46.5938" rx="2.5" ry="2.5" style="stroke:#181818;stroke-width:0.5;" width="127" x="178.5" y="2639.8984"/><text fill="#000000" font-family="sans-serif" font-size="14" lengthAdjust="spacing" textLength="112" x="186" y="2659.8936">&#12463;&#12521;&#12452;&#12450;&#12531;&#12488;&#31471;&#26411;</text><text fill="#000000" font-family="sans-serif" font-size="14" lengthAdjust="spacing" textLength="113" x="185.5" y="2676.1904">(PC&#12414;&#12383;&#12399;&#12473;&#12510;&#12507;)</text><rect fill="#E2E2F0" height="46.5938" rx="2.5" ry="2.5" style="stroke:#181818;stroke-width:0.5;" width="151" x="415.5" y="71"/><text fill="#000000" font-family="sans-serif" font-size="14" lengthAdjust="spacing" textLength="99" x="441.5" y="90.9951">SonicHost API</text><text fill="#000000" font-family="sans-serif" font-size="14" lengthAdjust="spacing" textLength="137" x="422.5" y="107.292">(CDN/API-Gateway)</text><rect fill="#E2E2F0" height="46.5938" rx="2.5" ry="2.5" style="stroke:#181818;stroke-width:0.5;" width="151" x="415.5" y="2639.8984"/><text fill="#000000" font-family="sans-serif" font-size="14" lengthAdjust="spacing" textLength="99" x="441.5" y="2659.8936">SonicHost API</text><text fill="#000000" font-family="sans-serif" font-size="14" lengthAdjust="spacing" textLength="137" x="422.5" y="2676.1904">(CDN/API-Gateway)</text><rect fill="#E2E2F0" height="46.5938" rx="2.5" ry="2.5" style="stroke:#181818;stroke-width:0.5;" width="98" x="726" y="71"/><text fill="#000000" font-family="sans-serif" font-size="14" lengthAdjust="spacing" textLength="84" x="733" y="90.9951">&#27770;&#28168;&#12469;&#12540;&#12499;&#12473;</text><text fill="#000000" font-family="sans-serif" font-size="14" lengthAdjust="spacing" textLength="55" x="747.5" y="107.292">(Stripe)</text><rect fill="#E2E2F0" height="46.5938" rx="2.5" ry="2.5" style="stroke:#181818;stroke-width:0.5;" width="98" x="726" y="2639.8984"/><text fill="#000000" font-family="sans-serif" font-size="14" lengthAdjust="spacing" textLength="84" x="733" y="2659.8936">&#27770;&#28168;&#12469;&#12540;&#12499;&#12473;</text><text fill="#000000" font-family="sans-serif" font-size="14" lengthAdjust="spacing" textLength="55" x="747.5" y="2676.1904">(Stripe)</text><rect fill="#E2E2F0" height="30.2969" rx="2.5" ry="2.5" style="stroke:#181818;stroke-width:0.5;" width="53" x="834" y="87.2969"/><text fill="#000000" font-family="sans-serif" font-size="14" lengthAdjust="spacing" textLength="39" x="841" y="107.292">strpe</text><rect fill="#E2E2F0" height="30.2969" rx="2.5" ry="2.5" style="stroke:#181818;stroke-width:0.5;" width="53" x="834" y="2639.8984"/><text fill="#000000" font-family="sans-serif" font-size="14" lengthAdjust="spacing" textLength="39" x="841" y="2659.8936">strpe</text><rect fill="#FFFFFF" height="2482.1719" style="stroke:#181818;stroke-width:1.0;" width="10" x="237" y="149.7266"/><rect fill="#FFFFFF" height="884.3906" style="stroke:#181818;stroke-width:1.0;" width="10" x="242" y="1747.5078"/><rect fill="#FFFFFF" height="14" style="stroke:#181818;stroke-width:1.0;" width="10" x="486" y="664.5938"/><rect fill="#FFFFFF" height="217.0625" style="stroke:#181818;stroke-width:1.0;" width="10" x="486" y="931.6563"/><rect fill="#FFFFFF" height="162.6641" style="stroke:#181818;stroke-width:1.0;" width="10" x="486" y="1235.1172"/><rect fill="#FFFFFF" height="218.0625" style="stroke:#181818;stroke-width:1.0;" width="10" x="486" y="1471.1797"/><rect fill="#FFFFFF" height="286.1953" style="stroke:#181818;stroke-width:1.0;" width="10" x="486" y="1903.0391"/><rect fill="#FFFFFF" height="44.2656" style="stroke:#181818;stroke-width:1.0;" width="10" x="486" y="2305.5703"/><rect fill="#FFFFFF" height="14" style="stroke:#181818;stroke-width:1.0;" width="10" x="770" y="1033.1875"/><rect fill="#FFFFFF" height="29.1328" style="stroke:#181818;stroke-width:1.0;" width="10" x="770" y="1500.3125"/><rect fill="#FFFFFF" height="44.2656" style="stroke:#181818;stroke-width:1.0;" width="10" x="770" y="1558.5781"/><rect fill="#FFFFFF" height="59.1328" style="stroke:#181818;stroke-width:1.0;" width="10" x="770" y="1718.375"/><rect fill="#FFFFFF" height="14" style="stroke:#181818;stroke-width:1.0;" width="10" x="770" y="1835.7734"/><rect fill="#FFFFFF" height="14" style="stroke:#181818;stroke-width:1.0;" width="10" x="770" y="1989.4375"/><rect fill="#FFFFFF" height="14" style="stroke:#181818;stroke-width:1.0;" width="10" x="855.5" y="1306.3828"/><polygon fill="#181818" points="225,145.7266,235,149.7266,225,153.7266,229,149.7266" style="stroke:#181818;stroke-width:1.0;"/><line style="stroke:#181818;stroke-width:1.0;" x1="44" x2="231" y1="149.7266" y2="149.7266"/><text fill="#000000" font-family="sans-serif" font-size="13" lengthAdjust="spacing" textLength="143" x="51" y="144.6606">&#12467;&#12531;&#12486;&#12531;&#12484;&#26356;&#26032;&#30011;&#38754;&#34920;&#31034;</text><rect fill="#ADFF2F" height="23" style="stroke:#181818;stroke-width:0.5;" width="138" x="252" y="162.7266"/><text fill="#000000" font-family="sans-serif" font-size="13" lengthAdjust="spacing" textLength="130" x="256" y="178.7935">&#12525;&#12464;&#12452;&#12531;&#12501;&#12525;&#12540;&#12434;&#21442;&#29031;</text><path d="M10,197.8594 L76,197.8594 L76,204.9922 L66,214.9922 L10,214.9922 L10,197.8594 " fill="#EEEEEE" style="stroke:#000000;stroke-width:1.5;"/><rect fill="none" height="216.6016" style="stroke:#000000;stroke-width:1.5;" width="399" x="10" y="197.8594"/><text fill="#000000" font-family="sans-serif" font-size="13" font-weight="bold" lengthAdjust="spacing" textLength="21" x="25" y="210.9263">alt</text><text fill="#000000" font-family="sans-serif" font-size="11" font-weight="bold" lengthAdjust="spacing" textLength="109" x="91" y="210.0698">[&#12469;&#12452;&#12488;&#26410;&#30331;&#37682;&#12398;&#22580;&#21512;]</text><line style="stroke:#181818;stroke-width:1.0;" x1="247" x2="289" y1="236.125" y2="236.125"/><line style="stroke:#181818;stroke-width:1.0;" x1="289" x2="289" y1="236.125" y2="249.125"/><line style="stroke:#181818;stroke-width:1.0;" x1="248" x2="289" y1="249.125" y2="249.125"/><polygon fill="#181818" points="258,245.125,248,249.125,258,253.125,254,249.125" style="stroke:#181818;stroke-width:1.0;"/><text fill="#000000" font-family="sans-serif" font-size="13" lengthAdjust="spacing" textLength="143" x="254" y="231.0591">&#12469;&#12452;&#12488;&#24773;&#22577;&#20837;&#21147;&#30011;&#38754;&#34920;&#31034;</text><line style="stroke:#000000;stroke-width:1.0;stroke-dasharray:2.0,2.0;" x1="10" x2="409" y1="258.125" y2="258.125"/><text fill="#000000" font-family="sans-serif" font-size="11" font-weight="bold" lengthAdjust="spacing" textLength="120" x="15" y="268.3354">[&#12469;&#12452;&#12488;&#30331;&#37682;&#28168;&#12415;&#12398;&#22580;&#21512;]</text><line style="stroke:#181818;stroke-width:1.0;" x1="247" x2="289" y1="293.0625" y2="293.0625"/><line style="stroke:#181818;stroke-width:1.0;" x1="289" x2="289" y1="293.0625" y2="306.0625"/><line style="stroke:#181818;stroke-width:1.0;" x1="248" x2="289" y1="306.0625" y2="306.0625"/><polygon fill="#181818" points="258,302.0625,248,306.0625,258,310.0625,254,306.0625" style="stroke:#181818;stroke-width:1.0;"/><text fill="#000000" font-family="sans-serif" font-size="13" lengthAdjust="spacing" textLength="143" x="254" y="287.9966">&#12467;&#12531;&#12486;&#12531;&#12484;&#26356;&#26032;&#30011;&#38754;&#34920;&#31034;</text><polygon fill="#181818" points="225,331.1953,235,335.1953,225,339.1953,229,335.1953" style="stroke:#181818;stroke-width:1.0;"/><line style="stroke:#181818;stroke-width:1.0;" x1="44" x2="231" y1="335.1953" y2="335.1953"/><text fill="#000000" font-family="sans-serif" font-size="13" lengthAdjust="spacing" textLength="117" x="51" y="330.1294">&#12518;&#12540;&#12470;&#12513;&#12491;&#12517;&#12540;&#25276;&#19979;</text><polygon fill="#181818" points="225,360.3281,235,364.3281,225,368.3281,229,364.3281" style="stroke:#181818;stroke-width:1.0;"/><line style="stroke:#181818;stroke-width:1.0;" x1="44" x2="231" y1="364.3281" y2="364.3281"/><text fill="#000000" font-family="sans-serif" font-size="13" lengthAdjust="spacing" textLength="104" x="51" y="359.2622">&#12469;&#12452;&#12488;&#12434;&#36861;&#21152;&#25276;&#19979;</text><line style="stroke:#181818;stroke-width:1.0;" x1="247" x2="289" y1="393.4609" y2="393.4609"/><line style="stroke:#181818;stroke-width:1.0;" x1="289" x2="289" y1="393.4609" y2="406.4609"/><line style="stroke:#181818;stroke-width:1.0;" x1="248" x2="289" y1="406.4609" y2="406.4609"/><polygon fill="#181818" points="258,402.4609,248,406.4609,258,410.4609,254,406.4609" style="stroke:#181818;stroke-width:1.0;"/><text fill="#000000" font-family="sans-serif" font-size="13" lengthAdjust="spacing" textLength="143" x="254" y="388.395">&#12469;&#12452;&#12488;&#24773;&#22577;&#20837;&#21147;&#30011;&#38754;&#34920;&#31034;</text><polygon fill="#181818" points="225,438.5938,235,442.5938,225,446.5938,229,442.5938" style="stroke:#181818;stroke-width:1.0;"/><line style="stroke:#181818;stroke-width:1.0;" x1="44" x2="231" y1="442.5938" y2="442.5938"/><text fill="#000000" font-family="sans-serif" font-size="13" lengthAdjust="spacing" textLength="78" x="51" y="437.5278">&#12469;&#12452;&#12488;&#21517;&#20837;&#21147;</text><polygon fill="#181818" points="225,467.7266,235,471.7266,225,475.7266,229,471.7266" style="stroke:#181818;stroke-width:1.0;"/><line style="stroke:#181818;stroke-width:1.0;" x1="44" x2="231" y1="471.7266" y2="471.7266"/><text fill="#000000" font-family="sans-serif" font-size="13" lengthAdjust="spacing" textLength="104" x="51" y="466.6606">&#12489;&#12513;&#12452;&#12531;&#26041;&#24335;&#36984;&#25246;</text><path d="M252,484.7266 L252,569.7266 L494,569.7266 L494,494.7266 L484,484.7266 L252,484.7266 " fill="#FEFFDD" style="stroke:#181818;stroke-width:0.5;"/><path d="M484,484.7266 L484,494.7266 L494,494.7266 L484,484.7266 " fill="#FEFFDD" style="stroke:#181818;stroke-width:0.5;"/><text fill="#000000" font-family="sans-serif" font-size="13" lengthAdjust="spacing" textLength="169" x="258" y="501.7935">&#12489;&#12513;&#12452;&#12531;&#26041;&#24335;&#12399;&#20197;&#19979;&#12363;&#12425;&#36984;&#25246;</text><ellipse cx="263.5" cy="512.4922" fill="#000000" rx="2.5" ry="2.5" style="stroke:#000000;stroke-width:0.0;"/><text fill="#000000" font-family="sans-serif" font-size="13" lengthAdjust="spacing" textLength="143" x="270" y="516.9263">&#33258;&#20998;&#12391;&#21462;&#24471;&#12375;&#12383;&#12489;&#12513;&#12452;&#12531;</text><ellipse cx="263.5" cy="527.625" fill="#000000" rx="2.5" ry="2.5" style="stroke:#000000;stroke-width:0.0;"/><text fill="#000000" font-family="sans-serif" font-size="13" lengthAdjust="spacing" textLength="184" x="270" y="532.0591">Sonic Host&#25552;&#20379;&#12398;&#12469;&#12502;&#12489;&#12513;&#12452;&#12531;</text><text fill="#000000" font-family="sans-serif" font-size="13" lengthAdjust="spacing" textLength="78" x="258" y="547.1919">&#37329;&#38989;&#12363;&#12360;&#12427;&#65311;</text><text fill="#000000" font-family="sans-serif" font-size="13" lengthAdjust="spacing" textLength="221" x="258" y="562.3247">&#12394;&#12425;&#12289;&#12459;&#12540;&#12489;&#20837;&#21147;&#12398;&#12479;&#12452;&#12511;&#12531;&#12464;&#32771;&#24942;&#35201;</text><path d="M10,582.3906 L76,582.3906 L76,589.5234 L66,599.5234 L10,599.5234 L10,582.3906 " fill="#EEEEEE" style="stroke:#000000;stroke-width:1.5;"/><rect fill="none" height="162.4688" style="stroke:#000000;stroke-width:1.5;" width="566.5" x="10" y="582.3906"/><text fill="#000000" font-family="sans-serif" font-size="13" font-weight="bold" lengthAdjust="spacing" textLength="21" x="25" y="595.4575">alt</text><text fill="#000000" font-family="sans-serif" font-size="11" font-weight="bold" lengthAdjust="spacing" textLength="131" x="91" y="594.6011">[&#33258;&#21069;&#12489;&#12513;&#12452;&#12531;&#26041;&#24335;&#12398;&#22580;&#21512;]</text><polygon fill="#181818" points="225,616.6563,235,620.6563,225,624.6563,229,620.6563" style="stroke:#181818;stroke-width:1.0;"/><line style="stroke:#181818;stroke-width:1.0;" x1="44" x2="231" y1="620.6563" y2="620.6563"/><text fill="#000000" font-family="sans-serif" font-size="13" lengthAdjust="spacing" textLength="91" x="51" y="615.5903">&#12489;&#12513;&#12452;&#12531;&#21517;&#20837;&#21147;</text><line style="stroke:#000000;stroke-width:1.0;stroke-dasharray:2.0,2.0;" x1="10" x2="576.5" y1="629.6563" y2="629.6563"/><text fill="#000000" font-family="sans-serif" font-size="11" font-weight="bold" lengthAdjust="spacing" textLength="203" x="15" y="639.8667">[Sonic Host&#12469;&#12502;&#12489;&#12513;&#12452;&#12531;&#26041;&#24335;&#12398;&#22580;&#21512;]</text><polygon fill="#181818" points="474,660.5938,484,664.5938,474,668.5938,478,664.5938" style="stroke:#181818;stroke-width:1.0;"/><line style="stroke:#181818;stroke-width:1.0;" x1="247" x2="480" y1="664.5938" y2="664.5938"/><text fill="#000000" font-family="sans-serif" font-size="13" lengthAdjust="spacing" textLength="124" x="254" y="659.5278">&#12489;&#12513;&#12452;&#12531;&#19968;&#35239;&#21462;&#24471;API</text><polygon fill="#181818" points="258,674.5938,248,678.5938,258,682.5938,254,678.5938" style="stroke:#181818;stroke-width:1.0;"/><line style="stroke:#181818;stroke-width:1.0;stroke-dasharray:2.0,2.0;" x1="252" x2="490" y1="678.5938" y2="678.5938"/><polygon fill="#181818" points="225,703.7266,235,707.7266,225,711.7266,229,707.7266" style="stroke:#181818;stroke-width:1.0;"/><line style="stroke:#181818;stroke-width:1.0;" x1="44" x2="231" y1="707.7266" y2="707.7266"/><text fill="#000000" font-family="sans-serif" font-size="13" lengthAdjust="spacing" textLength="78" x="51" y="702.6606">&#12489;&#12513;&#12452;&#12531;&#36984;&#25246;</text><polygon fill="#181818" points="225,732.8594,235,736.8594,225,740.8594,229,736.8594" style="stroke:#181818;stroke-width:1.0;"/><line style="stroke:#181818;stroke-width:1.0;" x1="44" x2="231" y1="736.8594" y2="736.8594"/><text fill="#000000" font-family="sans-serif" font-size="13" lengthAdjust="spacing" textLength="104" x="51" y="731.7935">&#12469;&#12502;&#12489;&#12513;&#12452;&#12531;&#20837;&#21147;</text><polygon fill="#181818" points="225,768.9922,235,772.9922,225,776.9922,229,772.9922" style="stroke:#181818;stroke-width:1.0;"/><line style="stroke:#181818;stroke-width:1.0;" x1="44" x2="231" y1="772.9922" y2="772.9922"/><text fill="#000000" font-family="sans-serif" font-size="13" lengthAdjust="spacing" textLength="117" x="51" y="767.9263">&#12469;&#12452;&#12488;&#12489;&#12513;&#12452;&#12531;&#20837;&#21147;</text><polygon fill="#181818" points="225,798.125,235,802.125,225,806.125,229,802.125" style="stroke:#181818;stroke-width:1.0;"/><line style="stroke:#181818;stroke-width:1.0;" x1="44" x2="231" y1="802.125" y2="802.125"/><text fill="#000000" font-family="sans-serif" font-size="13" lengthAdjust="spacing" textLength="117" x="51" y="797.0591">&#12513;&#12540;&#12523;&#12489;&#12513;&#12452;&#12531;&#20837;&#21147;</text><polygon fill="#181818" points="225,827.2578,235,831.2578,225,835.2578,229,831.2578" style="stroke:#181818;stroke-width:1.0;"/><line style="stroke:#181818;stroke-width:1.0;" x1="44" x2="231" y1="831.2578" y2="831.2578"/><text fill="#000000" font-family="sans-serif" font-size="13" lengthAdjust="spacing" textLength="91" x="51" y="826.1919">&#12300;&#30906;&#35469;&#12408;&#12301;&#25276;&#19979;</text><line style="stroke:#181818;stroke-width:1.0;" x1="247" x2="289" y1="860.3906" y2="860.3906"/><line style="stroke:#181818;stroke-width:1.0;" x1="289" x2="289" y1="860.3906" y2="873.3906"/><line style="stroke:#181818;stroke-width:1.0;" x1="248" x2="289" y1="873.3906" y2="873.3906"/><polygon fill="#181818" points="258,869.3906,248,873.3906,258,877.3906,254,873.3906" style="stroke:#181818;stroke-width:1.0;"/><text fill="#000000" font-family="sans-serif" font-size="13" lengthAdjust="spacing" textLength="130" x="254" y="855.3247">&#20837;&#21147;&#20869;&#23481;&#30906;&#35469;&#30011;&#38754;&#34920;&#31034;</text><polygon fill="#181818" points="225,898.5234,235,902.5234,225,906.5234,229,902.5234" style="stroke:#181818;stroke-width:1.0;"/><line style="stroke:#181818;stroke-width:1.0;" x1="44" x2="231" y1="902.5234" y2="902.5234"/><text fill="#000000" font-family="sans-serif" font-size="13" lengthAdjust="spacing" textLength="130" x="51" y="897.4575">&#12300;&#30906;&#23450;&#12375;&#12390;&#27425;&#12408;&#12301;&#25276;&#19979;</text><polygon fill="#181818" points="474,927.6563,484,931.6563,474,935.6563,478,931.6563" style="stroke:#181818;stroke-width:1.0;"/><line style="stroke:#181818;stroke-width:1.0;" x1="247" x2="480" y1="931.6563" y2="931.6563"/><text fill="#000000" font-family="sans-serif" font-size="13" lengthAdjust="spacing" textLength="124" x="254" y="926.5903">&#12469;&#12452;&#12488;&#24773;&#22577;&#20206;&#30331;&#37682;API</text><line style="stroke:#181818;stroke-width:1.0;" x1="496" x2="538" y1="975.9219" y2="975.9219"/><line style="stroke:#181818;stroke-width:1.0;" x1="538" x2="538" y1="975.9219" y2="988.9219"/><line style="stroke:#181818;stroke-width:1.0;" x1="497" x2="538" y1="988.9219" y2="988.9219"/><polygon fill="#181818" points="507,984.9219,497,988.9219,507,992.9219,503,988.9219" style="stroke:#181818;stroke-width:1.0;"/><text fill="#000000" font-family="sans-serif" font-size="13" lengthAdjust="spacing" textLength="130" x="503" y="955.7231">&#12469;&#12452;&#12488;&#24773;&#22577;&#12434;&#19968;&#26178;&#30331;&#37682;</text><text fill="#000000" font-family="sans-serif" font-size="13" lengthAdjust="spacing" textLength="169" x="503" y="970.856">deletedAt&#12434;24&#26178;&#38291;&#24460;&#12395;&#35373;&#23450;</text><polygon fill="#181818" points="758,1029.1875,768,1033.1875,758,1037.1875,762,1033.1875" style="stroke:#181818;stroke-width:1.0;"/><line style="stroke:#181818;stroke-width:1.0;" x1="496" x2="764" y1="1033.1875" y2="1033.1875"/><text fill="#000000" font-family="sans-serif" font-size="13" lengthAdjust="spacing" textLength="127" x="503" y="1012.9888">MetaData&#12434;&#12418;&#12392;&#12395;&#12289;</text><text fill="#000000" font-family="sans-serif" font-size="13" lengthAdjust="spacing" textLength="140" x="503" y="1028.1216">&#21512;&#33268;&#12377;&#12427;product&#12398;&#26908;&#32034;</text><polygon fill="#181818" points="507,1043.1875,497,1047.1875,507,1051.1875,503,1047.1875" style="stroke:#181818;stroke-width:1.0;"/><line style="stroke:#181818;stroke-width:1.0;stroke-dasharray:2.0,2.0;" x1="501" x2="774" y1="1047.1875" y2="1047.1875"/><line style="stroke:#181818;stroke-width:1.0;" x1="496" x2="538" y1="1121.7188" y2="1121.7188"/><line style="stroke:#181818;stroke-width:1.0;" x1="538" x2="538" y1="1121.7188" y2="1134.7188"/><line style="stroke:#181818;stroke-width:1.0;" x1="497" x2="538" y1="1134.7188" y2="1134.7188"/><polygon fill="#181818" points="507,1130.7188,497,1134.7188,507,1138.7188,503,1134.7188" style="stroke:#181818;stroke-width:1.0;"/><text fill="#000000" font-family="sans-serif" font-size="13" lengthAdjust="spacing" textLength="130" x="503" y="1071.2544">Payments&#12486;&#12540;&#12502;&#12523;&#12395;</text><text fill="#000000" font-family="sans-serif" font-size="13" lengthAdjust="spacing" textLength="257" x="503" y="1086.3872">Product&#12398;&#12461;&#12540;&#65288;&#25903;&#25173;&#12356;&#26399;&#38291;&#12372;&#12392;&#12395;&#35079;&#25968;&#65289;&#12392;</text><text fill="#000000" font-family="sans-serif" font-size="13" lengthAdjust="spacing" textLength="169" x="503" y="1101.52">&#12469;&#12452;&#12488;&#12398;&#12461;&#12540;&#12434;&#32016;&#12389;&#12369;&#12390;&#20445;&#31649;</text><text fill="#000000" font-family="sans-serif" font-size="13" lengthAdjust="spacing" textLength="205" x="503" y="1116.6528">deletedAt&#12434;&#12469;&#12452;&#12488;&#12392;&#21512;&#12431;&#12379;&#12390;&#35373;&#23450;</text><polygon fill="#181818" points="258,1144.7188,248,1148.7188,258,1152.7188,254,1148.7188" style="stroke:#181818;stroke-width:1.0;"/><line style="stroke:#181818;stroke-width:1.0;stroke-dasharray:2.0,2.0;" x1="252" x2="490" y1="1148.7188" y2="1148.7188"/><line style="stroke:#181818;stroke-width:1.0;" x1="247" x2="289" y1="1177.8516" y2="1177.8516"/><line style="stroke:#181818;stroke-width:1.0;" x1="289" x2="289" y1="1177.8516" y2="1190.8516"/><line style="stroke:#181818;stroke-width:1.0;" x1="248" x2="289" y1="1190.8516" y2="1190.8516"/><polygon fill="#181818" points="258,1186.8516,248,1190.8516,258,1194.8516,254,1190.8516" style="stroke:#181818;stroke-width:1.0;"/><text fill="#000000" font-family="sans-serif" font-size="13" lengthAdjust="spacing" textLength="156" x="254" y="1172.7856">&#25903;&#25173;&#12356;&#12503;&#12521;&#12531;&#24773;&#22577;&#30011;&#38754;&#34920;&#31034;</text><polygon fill="#181818" points="474,1231.1172,484,1235.1172,474,1239.1172,478,1235.1172" style="stroke:#181818;stroke-width:1.0;"/><line style="stroke:#181818;stroke-width:1.0;" x1="247" x2="480" y1="1235.1172" y2="1235.1172"/><text fill="#000000" font-family="sans-serif" font-size="13" lengthAdjust="spacing" textLength="150" x="254" y="1214.9185">&#25903;&#25173;&#12356;&#12503;&#12521;&#12531;&#24773;&#22577;&#21462;&#24471;API</text><text fill="#000000" font-family="sans-serif" font-size="13" lengthAdjust="spacing" textLength="156" x="254" y="1230.0513">&#12469;&#12452;&#12488;ID&#12434;&#12497;&#12473;&#12497;&#12521;&#12391;&#20351;&#29992;</text><line style="stroke:#181818;stroke-width:1.0;" x1="496" x2="538" y1="1264.25" y2="1264.25"/><line style="stroke:#181818;stroke-width:1.0;" x1="538" x2="538" y1="1264.25" y2="1277.25"/><line style="stroke:#181818;stroke-width:1.0;" x1="497" x2="538" y1="1277.25" y2="1277.25"/><polygon fill="#181818" points="507,1273.25,497,1277.25,507,1281.25,503,1277.25" style="stroke:#181818;stroke-width:1.0;"/><text fill="#000000" font-family="sans-serif" font-size="13" lengthAdjust="spacing" textLength="257" x="503" y="1259.1841">&#12469;&#12452;&#12488;ID&#12395;&#32016;&#12389;&#12367;Product&#12398;&#12461;&#12540;&#12383;&#12385;&#12434;&#21462;&#24471;</text><polygon fill="#181818" points="843.5,1302.3828,853.5,1306.3828,843.5,1310.3828,847.5,1306.3828" style="stroke:#181818;stroke-width:1.0;"/><line style="stroke:#181818;stroke-width:1.0;" x1="496" x2="849.5" y1="1306.3828" y2="1306.3828"/><text fill="#000000" font-family="sans-serif" font-size="13" lengthAdjust="spacing" textLength="218" x="503" y="1301.3169">Product&#12461;&#12540;&#12395;&#32016;&#12389;&#12367;&#21830;&#21697;&#24773;&#22577;&#12434;&#26908;&#32034;</text><polygon fill="#181818" points="507,1316.3828,497,1320.3828,507,1324.3828,503,1320.3828" style="stroke:#181818;stroke-width:1.0;"/><line style="stroke:#181818;stroke-width:1.0;" x1="501" x2="859.5" y1="1320.3828" y2="1320.3828"/><rect fill="#FEFFDD" height="38" style="stroke:#181818;stroke-width:0.5;" width="164" x="501" y="1333.3828"/><text fill="#000000" font-family="sans-serif" font-size="13" lengthAdjust="spacing" textLength="156" x="505" y="1349.4497">&#65297;&#12363;&#26376;&#12372;&#12392;&#12289;&#65299;&#24180;&#22865;&#32004;&#12394;&#12393;</text><text fill="#000000" font-family="sans-serif" font-size="13" lengthAdjust="spacing" textLength="156" x="505" y="1364.5825">&#22865;&#32004;&#24418;&#24907;&#12434;&#36984;&#12409;&#12427;&#12398;&#12364;&#29702;&#24819;</text><polygon fill="#181818" points="258,1393.7813,248,1397.7813,258,1401.7813,254,1397.7813" style="stroke:#181818;stroke-width:1.0;"/><line style="stroke:#181818;stroke-width:1.0;stroke-dasharray:2.0,2.0;" x1="252" x2="490" y1="1397.7813" y2="1397.7813"/><text fill="#000000" font-family="sans-serif" font-size="13" lengthAdjust="spacing" textLength="104" x="264" y="1392.7153">&#25903;&#25173;&#12356;&#12503;&#12521;&#12531;&#24773;&#22577;</text><polygon fill="#181818" points="225,1422.9141,235,1426.9141,225,1430.9141,229,1426.9141" style="stroke:#181818;stroke-width:1.0;"/><line style="stroke:#181818;stroke-width:1.0;" x1="44" x2="231" y1="1426.9141" y2="1426.9141"/><text fill="#000000" font-family="sans-serif" font-size="13" lengthAdjust="spacing" textLength="117" x="51" y="1421.8481">&#25903;&#25173;&#12356;&#24773;&#22577;&#20837;&#21147;&#25276;&#19979;</text><polygon fill="#181818" points="474,1467.1797,484,1471.1797,474,1475.1797,478,1471.1797" style="stroke:#181818;stroke-width:1.0;"/><line style="stroke:#181818;stroke-width:1.0;" x1="247" x2="480" y1="1471.1797" y2="1471.1797"/><text fill="#000000" font-family="sans-serif" font-size="13" lengthAdjust="spacing" textLength="143" x="254" y="1450.981">&#25903;&#25173;&#12356;&#24773;&#22577;&#30331;&#37682;&#38283;&#22987;&#35201;&#27714;</text><text fill="#000000" font-family="sans-serif" font-size="13" lengthAdjust="spacing" textLength="160" x="254" y="1466.1138">products&#12398;&#12461;&#12540;&#12392;&#12469;&#12452;&#12488;ID</text><polygon fill="#181818" points="758,1496.3125,768,1500.3125,758,1504.3125,762,1500.3125" style="stroke:#181818;stroke-width:1.0;"/><line style="stroke:#181818;stroke-width:1.0;" x1="496" x2="764" y1="1500.3125" y2="1500.3125"/><text fill="#000000" font-family="sans-serif" font-size="13" lengthAdjust="spacing" textLength="91" x="503" y="1495.2466">&#12503;&#12521;&#12531;&#24773;&#22577;&#21462;&#24471;</text><polygon fill="#181818" points="507,1525.4453,497,1529.4453,507,1533.4453,503,1529.4453" style="stroke:#181818;stroke-width:1.0;"/><line style="stroke:#181818;stroke-width:1.0;stroke-dasharray:2.0,2.0;" x1="501" x2="774" y1="1529.4453" y2="1529.4453"/><text fill="#000000" font-family="sans-serif" font-size="13" lengthAdjust="spacing" textLength="65" x="513" y="1524.3794">&#12503;&#12521;&#12531;&#24773;&#22577;</text><polygon fill="#181818" points="758,1554.5781,768,1558.5781,758,1562.5781,762,1558.5781" style="stroke:#181818;stroke-width:1.0;"/><line style="stroke:#181818;stroke-width:1.0;" x1="496" x2="764" y1="1558.5781" y2="1558.5781"/><text fill="#000000" font-family="sans-serif" font-size="13" lengthAdjust="spacing" textLength="91" x="503" y="1553.5122">&#12475;&#12483;&#12471;&#12519;&#12531;&#29983;&#25104;</text><polygon fill="#181818" points="507,1598.8438,497,1602.8438,507,1606.8438,503,1602.8438" style="stroke:#181818;stroke-width:1.0;"/><line style="stroke:#181818;stroke-width:1.0;stroke-dasharray:2.0,2.0;" x1="501" x2="774" y1="1602.8438" y2="1602.8438"/><text fill="#000000" font-family="sans-serif" font-size="13" lengthAdjust="spacing" textLength="91" x="513" y="1582.645">&#12475;&#12483;&#12471;&#12519;&#12531;&#24773;&#22577;</text><text fill="#000000" font-family="sans-serif" font-size="13" lengthAdjust="spacing" textLength="191" x="513" y="1597.7778">(&#12475;&#12483;&#12471;&#12519;&#12531;&#12392;&#12522;&#12480;&#12452;&#12524;&#12463;&#12488;URL)</text><line style="stroke:#181818;stroke-width:1.0;" x1="496" x2="538" y1="1631.9766" y2="1631.9766"/><line style="stroke:#181818;stroke-width:1.0;" x1="538" x2="538" y1="1631.9766" y2="1644.9766"/><line style="stroke:#181818;stroke-width:1.0;" x1="497" x2="538" y1="1644.9766" y2="1644.9766"/><polygon fill="#181818" points="507,1640.9766,497,1644.9766,507,1648.9766,503,1644.9766" style="stroke:#181818;stroke-width:1.0;"/><text fill="#000000" font-family="sans-serif" font-size="13" lengthAdjust="spacing" textLength="260" x="503" y="1626.9106">&#12475;&#12483;&#12471;&#12519;&#12531;&#24773;&#22577;&#12434;Payments&#12486;&#12540;&#12502;&#12523;&#12395;&#20445;&#31649;</text><polygon fill="#181818" points="258,1685.2422,248,1689.2422,258,1693.2422,254,1689.2422" style="stroke:#181818;stroke-width:1.0;"/><line style="stroke:#181818;stroke-width:1.0;stroke-dasharray:2.0,2.0;" x1="252" x2="490" y1="1689.2422" y2="1689.2422"/><text fill="#000000" font-family="sans-serif" font-size="13" lengthAdjust="spacing" textLength="103" x="264" y="1669.0435">&#12522;&#12480;&#12452;&#12524;&#12463;&#12488;URL</text><text fill="#000000" font-family="sans-serif" font-size="13" lengthAdjust="spacing" textLength="34" x="264" y="1684.1763">(301)</text><polygon fill="#181818" points="758,1714.375,768,1718.375,758,1722.375,762,1718.375" style="stroke:#181818;stroke-width:1.0;"/><line style="stroke:#181818;stroke-width:1.0;" x1="247" x2="764" y1="1718.375" y2="1718.375"/><text fill="#000000" font-family="sans-serif" font-size="13" lengthAdjust="spacing" textLength="78" x="254" y="1713.3091">&#12522;&#12480;&#12452;&#12524;&#12463;&#12488;</text><polygon fill="#181818" points="263,1743.5078,253,1747.5078,263,1751.5078,259,1747.5078" style="stroke:#181818;stroke-width:1.0;"/><line style="stroke:#181818;stroke-width:1.0;stroke-dasharray:2.0,2.0;" x1="257" x2="769" y1="1747.5078" y2="1747.5078"/><text fill="#000000" font-family="sans-serif" font-size="13" lengthAdjust="spacing" textLength="117" x="269" y="1742.4419">&#12503;&#12521;&#12531;&#30331;&#37682;&#30011;&#38754;&#34920;&#31034;</text><polygon fill="#181818" points="230,1802.6406,240,1806.6406,230,1810.6406,234,1806.6406" style="stroke:#181818;stroke-width:1.0;"/><line style="stroke:#181818;stroke-width:1.0;" x1="44" x2="236" y1="1806.6406" y2="1806.6406"/><text fill="#000000" font-family="sans-serif" font-size="13" lengthAdjust="spacing" textLength="91" x="51" y="1801.5747">&#12459;&#12540;&#12489;&#24773;&#22577;&#20837;&#21147;</text><polygon fill="#181818" points="758,1831.7734,768,1835.7734,758,1839.7734,762,1835.7734" style="stroke:#181818;stroke-width:1.0;"/><line style="stroke:#181818;stroke-width:1.0;" x1="252" x2="764" y1="1835.7734" y2="1835.7734"/><text fill="#000000" font-family="sans-serif" font-size="13" lengthAdjust="spacing" textLength="85" x="259" y="1830.7075">&#12503;&#12521;&#12531;&#30331;&#37682;API</text><polygon fill="#181818" points="263,1845.7734,253,1849.7734,263,1853.7734,259,1849.7734" style="stroke:#181818;stroke-width:1.0;"/><line style="stroke:#181818;stroke-width:1.0;stroke-dasharray:2.0,2.0;" x1="257" x2="774" y1="1849.7734" y2="1849.7734"/><path d="M10,1864.7734 L76,1864.7734 L76,1871.9063 L66,1881.9063 L10,1881.9063 L10,1864.7734 " fill="#EEEEEE" style="stroke:#000000;stroke-width:1.5;"/><rect fill="none" height="639.5938" style="stroke:#000000;stroke-width:1.5;" width="824" x="10" y="1864.7734"/><text fill="#000000" font-family="sans-serif" font-size="13" font-weight="bold" lengthAdjust="spacing" textLength="21" x="25" y="1877.8403">alt</text><text fill="#000000" font-family="sans-serif" font-size="11" font-weight="bold" lengthAdjust="spacing" textLength="142" x="91" y="1876.9839">[&#12503;&#12521;&#12531;&#30331;&#37682;&#12395;&#25104;&#21151;&#12375;&#12383;&#22580;&#21512;]</text><polygon fill="#181818" points="474,1899.0391,484,1903.0391,474,1907.0391,478,1903.0391" style="stroke:#181818;stroke-width:1.0;"/><line style="stroke:#181818;stroke-width:1.0;" x1="252" x2="480" y1="1903.0391" y2="1903.0391"/><text fill="#000000" font-family="sans-serif" font-size="13" lengthAdjust="spacing" textLength="111" x="259" y="1897.9731">&#12503;&#12521;&#12531;&#30331;&#37682;&#32080;&#26524;API</text><line style="stroke:#181818;stroke-width:1.0;" x1="496" x2="538" y1="1932.1719" y2="1932.1719"/><line style="stroke:#181818;stroke-width:1.0;" x1="538" x2="538" y1="1932.1719" y2="1945.1719"/><line style="stroke:#181818;stroke-width:1.0;" x1="497" x2="538" y1="1945.1719" y2="1945.1719"/><polygon fill="#181818" points="507,1941.1719,497,1945.1719,507,1949.1719,503,1945.1719" style="stroke:#181818;stroke-width:1.0;"/><text fill="#000000" font-family="sans-serif" font-size="13" lengthAdjust="spacing" textLength="182" x="503" y="1927.106">&#12475;&#12483;&#12471;&#12519;&#12531;ID&#12434;&#12418;&#12392;&#12395;&#12481;&#12455;&#12483;&#12463;</text><polygon fill="#181818" points="758,1985.4375,768,1989.4375,758,1993.4375,762,1989.4375" style="stroke:#181818;stroke-width:1.0;"/><line style="stroke:#181818;stroke-width:1.0;" x1="496" x2="764" y1="1989.4375" y2="1989.4375"/><text fill="#000000" font-family="sans-serif" font-size="13" lengthAdjust="spacing" textLength="130" x="503" y="1969.2388">&#12475;&#12483;&#12471;&#12519;&#12531;ID&#12434;&#12418;&#12392;&#12395;</text><text fill="#000000" font-family="sans-serif" font-size="13" lengthAdjust="spacing" textLength="101" x="503" y="1984.3716">stripe&#12395;&#12481;&#12455;&#12483;&#12463;</text><polygon fill="#181818" points="507,1999.4375,497,2003.4375,507,2007.4375,503,2003.4375" style="stroke:#181818;stroke-width:1.0;"/><line style="stroke:#181818;stroke-width:1.0;stroke-dasharray:2.0,2.0;" x1="501" x2="774" y1="2003.4375" y2="2003.4375"/><line style="stroke:#181818;stroke-width:1.0;" x1="496" x2="538" y1="2047.7031" y2="2047.7031"/><line style="stroke:#181818;stroke-width:1.0;" x1="538" x2="538" y1="2047.7031" y2="2060.7031"/><line style="stroke:#181818;stroke-width:1.0;" x1="497" x2="538" y1="2060.7031" y2="2060.7031"/><polygon fill="#181818" points="507,2056.7031,497,2060.7031,507,2064.7031,503,2060.7031" style="stroke:#181818;stroke-width:1.0;"/><text fill="#000000" font-family="sans-serif" font-size="13" lengthAdjust="spacing" textLength="91" x="503" y="2027.5044">&#12503;&#12521;&#12531;&#32080;&#26524;&#30331;&#37682;</text><text fill="#000000" font-family="sans-serif" font-size="13" lengthAdjust="spacing" textLength="130" x="503" y="2042.6372">&#12459;&#12540;&#12489;&#24773;&#22577;&#65288;ID&#65289;&#30331;&#37682;</text><line style="stroke:#181818;stroke-width:1.0;" x1="496" x2="538" y1="2089.8359" y2="2089.8359"/><line style="stroke:#181818;stroke-width:1.0;" x1="538" x2="538" y1="2089.8359" y2="2102.8359"/><line style="stroke:#181818;stroke-width:1.0;" x1="497" x2="538" y1="2102.8359" y2="2102.8359"/><polygon fill="#181818" points="507,2098.8359,497,2102.8359,507,2106.8359,503,2102.8359" style="stroke:#181818;stroke-width:1.0;"/><text fill="#000000" font-family="sans-serif" font-size="13" lengthAdjust="spacing" textLength="130" x="503" y="2084.77">&#20206;&#30331;&#37682;&#12375;&#12383;&#20869;&#23481;&#12434;&#30906;&#23450;</text><line style="stroke:#181818;stroke-width:1.0;" x1="496" x2="538" y1="2131.9688" y2="2131.9688"/><line style="stroke:#181818;stroke-width:1.0;" x1="538" x2="538" y1="2131.9688" y2="2144.9688"/><line style="stroke:#181818;stroke-width:1.0;" x1="497" x2="538" y1="2144.9688" y2="2144.9688"/><polygon fill="#181818" points="507,2140.9688,497,2144.9688,507,2148.9688,503,2144.9688" style="stroke:#181818;stroke-width:1.0;"/><text fill="#000000" font-family="sans-serif" font-size="13" lengthAdjust="spacing" textLength="101" x="503" y="2126.9028">deletedAt&#12434;&#21066;&#38500;</text><polygon fill="#181818" points="263,2185.2344,253,2189.2344,263,2193.2344,259,2189.2344" style="stroke:#181818;stroke-width:1.0;"/><line style="stroke:#181818;stroke-width:1.0;stroke-dasharray:2.0,2.0;" x1="257" x2="490" y1="2189.2344" y2="2189.2344"/><text fill="#000000" font-family="sans-serif" font-size="13" lengthAdjust="spacing" textLength="156" x="269" y="2169.0356">&#25104;&#21151;&#30011;&#38754;&#12408;&#12398;&#12522;&#12480;&#12452;&#12524;&#12463;&#12488;</text><text fill="#000000" font-family="sans-serif" font-size="13" lengthAdjust="spacing" textLength="34" x="269" y="2184.1685">(301)</text><line style="stroke:#181818;stroke-width:1.0;" x1="252" x2="294" y1="2233.5" y2="2233.5"/><line style="stroke:#181818;stroke-width:1.0;" x1="294" x2="294" y1="2233.5" y2="2246.5"/><line style="stroke:#181818;stroke-width:1.0;" x1="253" x2="294" y1="2246.5" y2="2246.5"/><polygon fill="#181818" points="263,2242.5,253,2246.5,263,2250.5,259,2246.5" style="stroke:#181818;stroke-width:1.0;"/><text fill="#000000" font-family="sans-serif" font-size="13" lengthAdjust="spacing" textLength="143" x="259" y="2213.3013">&#12503;&#12521;&#12531;&#30331;&#37682;&#25104;&#21151;&#30011;&#38754;&#34920;&#31034;</text><text fill="#000000" font-family="sans-serif" font-size="13" lengthAdjust="spacing" textLength="220" x="259" y="2228.4341">(&#23455;&#38555;&#12395;&#12399;CDN&#12395;&#23550;&#12375;&#12390;&#12522;&#12480;&#12452;&#12524;&#12463;&#12488;)</text><line style="stroke:#000000;stroke-width:1.0;stroke-dasharray:2.0,2.0;" x1="10" x2="834" y1="2255.5" y2="2255.5"/><text fill="#000000" font-family="sans-serif" font-size="11" font-weight="bold" lengthAdjust="spacing" textLength="142" x="15" y="2265.7104">[&#12503;&#12521;&#12531;&#30331;&#37682;&#12395;&#22833;&#25943;&#12375;&#12383;&#22580;&#21512;]</text><polygon fill="#181818" points="474,2301.5703,484,2305.5703,474,2309.5703,478,2305.5703" style="stroke:#181818;stroke-width:1.0;"/><line style="stroke:#181818;stroke-width:1.0;" x1="252" x2="480" y1="2305.5703" y2="2305.5703"/><text fill="#000000" font-family="sans-serif" font-size="13" lengthAdjust="spacing" textLength="111" x="259" y="2285.3716">&#12503;&#12521;&#12531;&#30331;&#37682;&#32080;&#26524;API</text><text fill="#000000" font-family="sans-serif" font-size="13" lengthAdjust="spacing" textLength="192" x="259" y="2300.5044">(&#12463;&#12456;&#12522;&#12497;&#12521;&#12513;&#12540;&#12479;&#12391;&#22833;&#25943;&#12434;&#36899;&#25658;)</text><polygon fill="#181818" points="263,2345.8359,253,2349.8359,263,2353.8359,259,2349.8359" style="stroke:#181818;stroke-width:1.0;"/><line style="stroke:#181818;stroke-width:1.0;stroke-dasharray:2.0,2.0;" x1="257" x2="490" y1="2349.8359" y2="2349.8359"/><text fill="#000000" font-family="sans-serif" font-size="13" lengthAdjust="spacing" textLength="156" x="269" y="2329.6372">&#22833;&#25943;&#30011;&#38754;&#12408;&#12398;&#12522;&#12480;&#12452;&#12524;&#12463;&#12488;</text><text fill="#000000" font-family="sans-serif" font-size="13" lengthAdjust="spacing" textLength="34" x="269" y="2344.77">(301)</text><line style="stroke:#181818;stroke-width:1.0;" x1="252" x2="294" y1="2378.9688" y2="2378.9688"/><line style="stroke:#181818;stroke-width:1.0;" x1="294" x2="294" y1="2378.9688" y2="2391.9688"/><line style="stroke:#181818;stroke-width:1.0;" x1="253" x2="294" y1="2391.9688" y2="2391.9688"/><polygon fill="#181818" points="263,2387.9688,253,2391.9688,263,2395.9688,259,2391.9688" style="stroke:#181818;stroke-width:1.0;"/><text fill="#000000" font-family="sans-serif" font-size="13" lengthAdjust="spacing" textLength="143" x="259" y="2373.9028">&#12503;&#12521;&#12531;&#30331;&#37682;&#22833;&#25943;&#30011;&#38754;&#34920;&#31034;</text><polygon fill="#181818" points="230,2417.1016,240,2421.1016,230,2425.1016,234,2421.1016" style="stroke:#181818;stroke-width:1.0;"/><line style="stroke:#181818;stroke-width:1.0;" x1="44" x2="236" y1="2421.1016" y2="2421.1016"/><text fill="#000000" font-family="sans-serif" font-size="13" lengthAdjust="spacing" textLength="169" x="51" y="2416.0356">&#12300;&#20877;&#24230;&#12503;&#12521;&#12531;&#12434;&#36984;&#25246;&#12301;&#12434;&#25276;&#19979;</text><line style="stroke:#181818;stroke-width:1.0;" x1="252" x2="294" y1="2450.2344" y2="2450.2344"/><line style="stroke:#181818;stroke-width:1.0;" x1="294" x2="294" y1="2450.2344" y2="2463.2344"/><line style="stroke:#181818;stroke-width:1.0;" x1="253" x2="294" y1="2463.2344" y2="2463.2344"/><polygon fill="#181818" points="263,2459.2344,253,2463.2344,263,2467.2344,259,2463.2344" style="stroke:#181818;stroke-width:1.0;"/><text fill="#000000" font-family="sans-serif" font-size="13" lengthAdjust="spacing" textLength="117" x="259" y="2445.1685">&#12503;&#12521;&#12531;&#30331;&#37682;&#30011;&#38754;&#34920;&#31034;</text><rect fill="#FEFFDD" height="23" style="stroke:#181818;stroke-width:0.5;" width="112" x="257" y="2476.2344"/><text fill="#000000" font-family="sans-serif" font-size="13" lengthAdjust="spacing" textLength="104" x="261" y="2492.3013">&#12503;&#12521;&#12531;&#30331;&#37682;&#12408;&#25147;&#12427;</text><polygon fill="#181818" points="230,2528.5,240,2532.5,230,2536.5,234,2532.5" style="stroke:#181818;stroke-width:1.0;"/><line style="stroke:#181818;stroke-width:1.0;" x1="44" x2="236" y1="2532.5" y2="2532.5"/><text fill="#000000" font-family="sans-serif" font-size="13" lengthAdjust="spacing" textLength="104" x="51" y="2527.4341">&#12300;&#30906;&#35469;&#12375;&#12383;&#12301;&#25276;&#19979;</text><line style="stroke:#181818;stroke-width:1.0;" x1="252" x2="294" y1="2561.6328" y2="2561.6328"/><line style="stroke:#181818;stroke-width:1.0;" x1="294" x2="294" y1="2561.6328" y2="2574.6328"/><line style="stroke:#181818;stroke-width:1.0;" x1="253" x2="294" y1="2574.6328" y2="2574.6328"/><polygon fill="#181818" points="263,2570.6328,253,2574.6328,263,2578.6328,259,2574.6328" style="stroke:#181818;stroke-width:1.0;"/><text fill="#000000" font-family="sans-serif" font-size="13" lengthAdjust="spacing" textLength="143" x="259" y="2556.5669">&#12467;&#12531;&#12486;&#12531;&#12484;&#26356;&#26032;&#30011;&#38754;&#34920;&#31034;</text><rect fill="#87CEEB" height="38" style="stroke:#181818;stroke-width:0.5;" width="281" x="257" y="2587.6328"/><text fill="#000000" font-family="sans-serif" font-size="13" lengthAdjust="spacing" textLength="208" x="261" y="2603.6997">&#12493;&#12540;&#12512;&#12469;&#12540;&#12496;&#35373;&#23450;&#30906;&#35469;&#20013;&#12398;&#22580;&#21512;&#12399;&#12289;</text><text fill="#000000" font-family="sans-serif" font-size="13" lengthAdjust="spacing" textLength="273" x="261" y="2618.8325">&#30906;&#35469;&#20013;&#12391;&#12354;&#12427;&#12371;&#12392;&#12434;&#12467;&#12531;&#12486;&#12531;&#12484;&#26356;&#26032;&#30011;&#38754;&#12391;&#34920;&#31034;</text><!--SRC=[hLXRJ-D657xthx2s3orTeLwVK5LfkqXRfBP2HVjGAIyHSTkegOCIqnLl6PjBGa24Mn0BImW54iYIG3VR1WZmOoOpJfxu2pqpOoTsR8VLjZn0Of_ppRbyvp9eKIsco5X_Y_L3RAJRTpTaSL-IFeH71rYlOVqE6qrIVMdUdaZXIIsUa1zXunYUOVtlHt8uAKydbOGq5KveqSdeL5ZLu3se6ISC3o2CDu1gLcfqjn9IFnf_Yj4jHWMC0FaI6tlOs1dYC17bZ-YauWQQYAlHoM_ZIKr-CZu6saz7V_W4FWq_2slAY_2CK0nFHTrQzEAADjBC8p3IM8TpG7L2IqId5A6Hv9ybIMAcoyDVMsVBZn-FWDTlkCdp_FSitQdJ_BcvSTrvTT0kbit3AocXnZL5JaH_-LMJup_RkXyyIoYA-fCIYyLVI3ByOECCw-Syg02qoRwocAsH5TsSAqcA6f4Pa1IEQRteqzrJS_kwi_GNHbMoNoUvDCUopkXPEk9GCUR8_WMPEoABEouxbLZIaLS1o-A2xju1_A4WCCM-w86QpGji5B6HnSOHVAMBpLOZ6w1WMmTn4SHpIB-Vqsf42Zw6v9Q5Ze-CaM5MytJH_2LfhdHGWoxkIRxPjZBShmAiRbqVWGCOPR6UiH2OxCToU-6KfESnAf6LFBdTmcYBbO43mfBZd9SPwUbAhdMx0ydYLCvxP3iBgvtYCZiAGG2pzys2C0kTmjauXR1UuHMG4Jvpe3kkNs1vrS_RAOFELTl7oCr6PcbcsSyx9sq6Hh0NQCx2dazUL_omUwc7ueQox4DlDLBjOokEq0wSAbyD3tCT-FEmbOxy-7B6RQZj48Hg0CLyD7niAFB4LDv9EBLa7borJo7H3PnQjWh4fpW409cV8zLBeU6gZ21aQEsSYyVqTJ7WY5uItFNNkgwAjiAImACkPBsIKD-GDBgj2_cG6b5YYgP4dW0XrZx_4bvqyklaTWcZIhjy1YRPSA9LYzE_LxJmQ5WBWmhMTOpA80qq3wb0c_P27QDjg8AfH3moFQa1d-ZXhba_u42C5HRIyB3JqX5vF3ppkw9gITxicZpb5S0DgUDT8AoprdtVJDED6iriOZHBTmjWBqORmeZsuGBTFBzlPk1hIErHmLO5Wyrw3gCZZ5OXqAsxLsQrw8w1GwaCxc0TAW8gzjYAXW-xVHZGjGyRMsm0Gt7nwBjuu9FM8BrkXJcS6XjbrXghV7glCcbKQjtScHjbTroT2gXYkx_I7rM-2XJvM6HdET9kPztMiCHxK6HpdgoZBhzSwRO08Dbzqvej2wpUxvkGYIpTJLj9JA7xvZgvh9EZLRC-oreeEk62uW6vEQ1pqDBNe6LWT0ayOnwW9JCtJw4RTzkdDq_1qVKMP8zVZl4MN8rzugAqElaiAMMXfzCBFQHQrP1qnBlio8nVbVbom5j5NabVCFqQ6mRM_y562GJDZG9Dv_p1t9824lQslkVCVkCK6odkmck-QQQV__ZTK3_xVD0WVG7LBYhIDtk-fu5TNtpwsP0ZAUu8zgiuaRkIxXYAxBagrMV8M0FToOz08rp0h4DxZM1zXE-VRc682AI9B1R4alBGO7Pxy3P7ztRjgJmeAQAJT1kv0VjAYR-lELK7iCaD45A5Q12MUmPuZUkwmHsmvrHVo648Z8r2enUllIZTYMX5ZWzZrlxvdFNAEqS0oInsjWy3bXceTfuHGH0sfw6YFJopUHcqFhjJvKGKb0DzKYrqNkwm8A8QNBVW0wdTYWN1UzwGTSdmq8SSNj3DhVz27rxwS4SKvSu7ZTYQO8M57LhWGpzE_KbpLqE1KHE2_sVKd8W3BqEf9JA_JAwEk_fYVC362JiM6rY3hpe36WDJIGJVIyJTf2yb3Pg-Xh751RhZAc2NxMsS_8uoQEbyx-lon6yptyIc5UiYjSoBRD- -i-V4sYEiQ3NEkhS3zc-35E9AZfSbZ7G-ajVvU5iRO1G8zswAF0Z_0W00]--></g></svg>