<?xml version="1.0" encoding="UTF-8" standalone="no"?><svg xmlns="http://www.w3.org/2000/svg" xmlns:xlink="http://www.w3.org/1999/xlink" contentStyleType="text/css" height="2876px" preserveAspectRatio="none" style="width:787px;height:2876px;background:#FFFFFF;" version="1.1" viewBox="0 0 787 2876" width="787px" zoomAndPan="magnify"><defs/><g><text fill="#000000" font-family="sans-serif" font-size="14" font-weight="bold" lengthAdjust="spacing" textLength="75" x="357.5" y="27.9951">サイト追加</text><rect fill="#FFFFFF" height="2637.4375" style="stroke:#181818;stroke-width:1.0;" width="10" x="247" y="149.7266"/><rect fill="#FFFFFF" height="14" style="stroke:#181818;stroke-width:1.0;" width="10" x="491" y="847.4531"/><rect fill="#FFFFFF" height="14" style="stroke:#181818;stroke-width:1.0;" width="10" x="491" y="1005.7891"/><rect fill="#FFFFFF" height="99.2656" style="stroke:#181818;stroke-width:1.0;" width="10" x="491" y="1449.6484"/><rect fill="#FFFFFF" height="29.1328" style="stroke:#181818;stroke-width:1.0;" width="10" x="491" y="1620.1797"/><rect fill="#FFFFFF" height="175.9297" style="stroke:#181818;stroke-width:1.0;" width="10" x="491" y="1731.7109"/><rect fill="#FFFFFF" height="143.6641" style="stroke:#181818;stroke-width:1.0;" width="10" x="491" y="2091.4375"/><rect fill="#FFFFFF" height="44.2656" style="stroke:#181818;stroke-width:1.0;" width="10" x="491" y="2351.4375"/><rect fill="#FFFFFF" height="14" style="stroke:#181818;stroke-width:1.0;" width="10" x="717" y="1520.9141"/><rect fill="#FFFFFF" height="29.1328" style="stroke:#181818;stroke-width:1.0;" width="10" x="717" y="1760.8438"/><rect fill="#FFFFFF" height="44.2656" style="stroke:#181818;stroke-width:1.0;" width="10" x="717" y="1819.1094"/><rect fill="#FFFFFF" height="29.1328" style="stroke:#181818;stroke-width:1.0;" width="10" x="717" y="1936.7734"/><rect fill="#FFFFFF" height="14" style="stroke:#181818;stroke-width:1.0;" width="10" x="717" y="2024.1719"/><rect fill="none" height="300.8672" style="stroke:#000000;stroke-width:1.5;" width="399" x="20" y="197.8594"/><rect fill="none" height="448.5313" style="stroke:#000000;stroke-width:1.5;" width="561.5" x="20" y="708.7891"/><rect fill="none" height="892.9219" style="stroke:#000000;stroke-width:1.5;" width="771" x="10" y="1693.4453"/><rect fill="none" height="497.0625" style="stroke:#000000;stroke-width:1.5;" width="630" x="20" y="2053.1719"/><rect fill="none" height="88.3984" style="stroke:#000000;stroke-width:1.5;" width="368" x="20" y="2600.3672"/><line style="stroke:#181818;stroke-width:0.5;stroke-dasharray:5.0,5.0;" x1="54" x2="54" y1="118.5938" y2="2796.1641"/><line style="stroke:#181818;stroke-width:0.5;stroke-dasharray:5.0,5.0;" x1="251.5" x2="251.5" y1="118.5938" y2="2796.1641"/><line style="stroke:#181818;stroke-width:0.5;stroke-dasharray:5.0,5.0;" x1="495.5" x2="495.5" y1="118.5938" y2="2796.1641"/><line style="stroke:#181818;stroke-width:0.5;stroke-dasharray:5.0,5.0;" x1="722" x2="722" y1="118.5938" y2="2796.1641"/><text fill="#000000" font-family="sans-serif" font-size="14" lengthAdjust="spacing" textLength="42" x="30" y="115.292">ユーザ</text><ellipse cx="54" cy="50.7969" fill="#E2E2F0" rx="8" ry="8" style="stroke:#181818;stroke-width:0.5;"/><path d="M54,58.7969 L54,85.7969 M41,66.7969 L67,66.7969 M54,85.7969 L41,100.7969 M54,85.7969 L67,100.7969 " fill="none" style="stroke:#181818;stroke-width:0.5;"/><text fill="#000000" font-family="sans-serif" font-size="14" lengthAdjust="spacing" textLength="42" x="30" y="2808.1592">ユーザ</text><ellipse cx="54" cy="2819.9609" fill="#E2E2F0" rx="8" ry="8" style="stroke:#181818;stroke-width:0.5;"/><path d="M54,2827.9609 L54,2854.9609 M41,2835.9609 L67,2835.9609 M54,2854.9609 L41,2869.9609 M54,2854.9609 L67,2869.9609 " fill="none" style="stroke:#181818;stroke-width:0.5;"/><rect fill="#E2E2F0" height="46.5938" rx="2.5" ry="2.5" style="stroke:#181818;stroke-width:0.5;" width="127" x="188.5" y="71"/><text fill="#000000" font-family="sans-serif" font-size="14" lengthAdjust="spacing" textLength="112" x="196" y="90.9951">クライアント端末</text><text fill="#000000" font-family="sans-serif" font-size="14" lengthAdjust="spacing" textLength="113" x="195.5" y="107.292">(PCまたはスマホ)</text><rect fill="#E2E2F0" height="46.5938" rx="2.5" ry="2.5" style="stroke:#181818;stroke-width:0.5;" width="127" x="188.5" y="2795.1641"/><text fill="#000000" font-family="sans-serif" font-size="14" lengthAdjust="spacing" textLength="112" x="196" y="2815.1592">クライアント端末</text><text fill="#000000" font-family="sans-serif" font-size="14" lengthAdjust="spacing" textLength="113" x="195.5" y="2831.4561">(PCまたはスマホ)</text><rect fill="#E2E2F0" height="46.5938" rx="2.5" ry="2.5" style="stroke:#181818;stroke-width:0.5;" width="151" x="420.5" y="71"/><text fill="#000000" font-family="sans-serif" font-size="14" lengthAdjust="spacing" textLength="99" x="446.5" y="90.9951">SonicHost API</text><text fill="#000000" font-family="sans-serif" font-size="14" lengthAdjust="spacing" textLength="137" x="427.5" y="107.292">(CDN/API-Gateway)</text><rect fill="#E2E2F0" height="46.5938" rx="2.5" ry="2.5" style="stroke:#181818;stroke-width:0.5;" width="151" x="420.5" y="2795.1641"/><text fill="#000000" font-family="sans-serif" font-size="14" lengthAdjust="spacing" textLength="99" x="446.5" y="2815.1592">SonicHost API</text><text fill="#000000" font-family="sans-serif" font-size="14" lengthAdjust="spacing" textLength="137" x="427.5" y="2831.4561">(CDN/API-Gateway)</text><rect fill="#E2E2F0" height="46.5938" rx="2.5" ry="2.5" style="stroke:#181818;stroke-width:0.5;" width="98" x="673" y="71"/><text fill="#000000" font-family="sans-serif" font-size="14" lengthAdjust="spacing" textLength="84" x="680" y="90.9951">決済サービス</text><text fill="#000000" font-family="sans-serif" font-size="14" lengthAdjust="spacing" textLength="55" x="694.5" y="107.292">(Stripe)</text><rect fill="#E2E2F0" height="46.5938" rx="2.5" ry="2.5" style="stroke:#181818;stroke-width:0.5;" width="98" x="673" y="2795.1641"/><text fill="#000000" font-family="sans-serif" font-size="14" lengthAdjust="spacing" textLength="84" x="680" y="2815.1592">決済サービス</text><text fill="#000000" font-family="sans-serif" font-size="14" lengthAdjust="spacing" textLength="55" x="694.5" y="2831.4561">(Stripe)</text><rect fill="#FFFFFF" height="2637.4375" style="stroke:#181818;stroke-width:1.0;" width="10" x="247" y="149.7266"/><rect fill="#FFFFFF" height="14" style="stroke:#181818;stroke-width:1.0;" width="10" x="491" y="847.4531"/><rect fill="#FFFFFF" height="14" style="stroke:#181818;stroke-width:1.0;" width="10" x="491" y="1005.7891"/><rect fill="#FFFFFF" height="99.2656" style="stroke:#181818;stroke-width:1.0;" width="10" x="491" y="1449.6484"/><rect fill="#FFFFFF" height="29.1328" style="stroke:#181818;stroke-width:1.0;" width="10" x="491" y="1620.1797"/><rect fill="#FFFFFF" height="175.9297" style="stroke:#181818;stroke-width:1.0;" width="10" x="491" y="1731.7109"/><rect fill="#FFFFFF" height="143.6641" style="stroke:#181818;stroke-width:1.0;" width="10" x="491" y="2091.4375"/><rect fill="#FFFFFF" height="44.2656" style="stroke:#181818;stroke-width:1.0;" width="10" x="491" y="2351.4375"/><rect fill="#FFFFFF" height="14" style="stroke:#181818;stroke-width:1.0;" width="10" x="717" y="1520.9141"/><rect fill="#FFFFFF" height="29.1328" style="stroke:#181818;stroke-width:1.0;" width="10" x="717" y="1760.8438"/><rect fill="#FFFFFF" height="44.2656" style="stroke:#181818;stroke-width:1.0;" width="10" x="717" y="1819.1094"/><rect fill="#FFFFFF" height="29.1328" style="stroke:#181818;stroke-width:1.0;" width="10" x="717" y="1936.7734"/><rect fill="#FFFFFF" height="14" style="stroke:#181818;stroke-width:1.0;" width="10" x="717" y="2024.1719"/><polygon fill="#181818" points="235,145.7266,245,149.7266,235,153.7266,239,149.7266" style="stroke:#181818;stroke-width:1.0;"/><line style="stroke:#181818;stroke-width:1.0;" x1="54" x2="241" y1="149.7266" y2="149.7266"/><text fill="#000000" font-family="sans-serif" font-size="13" lengthAdjust="spacing" textLength="89" x="61" y="144.6606">HOME画面表示</text><rect fill="#ADFF2F" height="23" style="stroke:#181818;stroke-width:0.5;" width="138" x="262" y="162.7266"/><text fill="#000000" font-family="sans-serif" font-size="13" lengthAdjust="spacing" textLength="130" x="266" y="178.7935">ログインフローを参照</text><path d="M20,197.8594 L86,197.8594 L86,204.9922 L76,214.9922 L20,214.9922 L20,197.8594 " fill="#EEEEEE" style="stroke:#000000;stroke-width:1.5;"/><rect fill="none" height="300.8672" style="stroke:#000000;stroke-width:1.5;" width="399" x="20" y="197.8594"/><text fill="#000000" font-family="sans-serif" font-size="13" font-weight="bold" lengthAdjust="spacing" textLength="21" x="35" y="210.9263">alt</text><text fill="#000000" font-family="sans-serif" font-size="11" font-weight="bold" lengthAdjust="spacing" textLength="109" x="101" y="210.0698">[サイト未登録の場合]</text><line style="stroke:#181818;stroke-width:1.0;" x1="257" x2="299" y1="236.125" y2="236.125"/><line style="stroke:#181818;stroke-width:1.0;" x1="299" x2="299" y1="236.125" y2="249.125"/><line style="stroke:#181818;stroke-width:1.0;" x1="258" x2="299" y1="249.125" y2="249.125"/><polygon fill="#181818" points="268,245.125,258,249.125,268,253.125,264,249.125" style="stroke:#181818;stroke-width:1.0;"/><text fill="#000000" font-family="sans-serif" font-size="13" lengthAdjust="spacing" textLength="130" x="264" y="231.0591">サイト名入力画面表示</text><line style="stroke:#000000;stroke-width:1.0;stroke-dasharray:2.0,2.0;" x1="20" x2="419" y1="258.125" y2="258.125"/><text fill="#000000" font-family="sans-serif" font-size="11" font-weight="bold" lengthAdjust="spacing" textLength="120" x="25" y="268.3354">[サイト登録済みの場合]</text><line style="stroke:#181818;stroke-width:1.0;" x1="257" x2="299" y1="293.0625" y2="293.0625"/><line style="stroke:#181818;stroke-width:1.0;" x1="299" x2="299" y1="293.0625" y2="306.0625"/><line style="stroke:#181818;stroke-width:1.0;" x1="258" x2="299" y1="306.0625" y2="306.0625"/><polygon fill="#181818" points="268,302.0625,258,306.0625,268,310.0625,264,306.0625" style="stroke:#181818;stroke-width:1.0;"/><text fill="#000000" font-family="sans-serif" font-size="13" lengthAdjust="spacing" textLength="104" x="264" y="287.9966">ＨＯＭＥ画面表示</text><polygon fill="#181818" points="235,331.1953,245,335.1953,235,339.1953,239,335.1953" style="stroke:#181818;stroke-width:1.0;"/><line style="stroke:#181818;stroke-width:1.0;" x1="54" x2="241" y1="335.1953" y2="335.1953"/><text fill="#000000" font-family="sans-serif" font-size="13" lengthAdjust="spacing" textLength="117" x="61" y="330.1294">サイト設定確認選択</text><line style="stroke:#181818;stroke-width:1.0;" x1="257" x2="299" y1="364.3281" y2="364.3281"/><line style="stroke:#181818;stroke-width:1.0;" x1="299" x2="299" y1="364.3281" y2="377.3281"/><line style="stroke:#181818;stroke-width:1.0;" x1="258" x2="299" y1="377.3281" y2="377.3281"/><polygon fill="#181818" points="268,373.3281,258,377.3281,268,381.3281,264,377.3281" style="stroke:#181818;stroke-width:1.0;"/><text fill="#000000" font-family="sans-serif" font-size="13" lengthAdjust="spacing" textLength="143" x="264" y="359.2622">サイト設定確認画面表示</text><polygon fill="#181818" points="235,402.4609,245,406.4609,235,410.4609,239,406.4609" style="stroke:#181818;stroke-width:1.0;"/><line style="stroke:#181818;stroke-width:1.0;" x1="54" x2="241" y1="406.4609" y2="406.4609"/><text fill="#000000" font-family="sans-serif" font-size="13" lengthAdjust="spacing" textLength="91" x="61" y="401.395">サイト追加押下</text><line style="stroke:#181818;stroke-width:1.0;" x1="257" x2="299" y1="435.5938" y2="435.5938"/><line style="stroke:#181818;stroke-width:1.0;" x1="299" x2="299" y1="435.5938" y2="448.5938"/><line style="stroke:#181818;stroke-width:1.0;" x1="258" x2="299" y1="448.5938" y2="448.5938"/><polygon fill="#181818" points="268,444.5938,258,448.5938,268,452.5938,264,448.5938" style="stroke:#181818;stroke-width:1.0;"/><text fill="#000000" font-family="sans-serif" font-size="13" lengthAdjust="spacing" textLength="91" x="264" y="430.5278">サイト追加押下</text><line style="stroke:#181818;stroke-width:1.0;" x1="257" x2="299" y1="477.7266" y2="477.7266"/><line style="stroke:#181818;stroke-width:1.0;" x1="299" x2="299" y1="477.7266" y2="490.7266"/><line style="stroke:#181818;stroke-width:1.0;" x1="258" x2="299" y1="490.7266" y2="490.7266"/><polygon fill="#181818" points="268,486.7266,258,490.7266,268,494.7266,264,490.7266" style="stroke:#181818;stroke-width:1.0;"/><text fill="#000000" font-family="sans-serif" font-size="13" lengthAdjust="spacing" textLength="130" x="264" y="472.6606">サイト名入力画面表示</text><polygon fill="#181818" points="235,522.8594,245,526.8594,235,530.8594,239,526.8594" style="stroke:#181818;stroke-width:1.0;"/><line style="stroke:#181818;stroke-width:1.0;" x1="54" x2="241" y1="526.8594" y2="526.8594"/><text fill="#000000" font-family="sans-serif" font-size="13" lengthAdjust="spacing" textLength="78" x="61" y="521.7935">サイト名入力</text><line style="stroke:#181818;stroke-width:1.0;" x1="257" x2="299" y1="555.9922" y2="555.9922"/><line style="stroke:#181818;stroke-width:1.0;" x1="299" x2="299" y1="555.9922" y2="568.9922"/><line style="stroke:#181818;stroke-width:1.0;" x1="258" x2="299" y1="568.9922" y2="568.9922"/><polygon fill="#181818" points="268,564.9922,258,568.9922,268,572.9922,264,568.9922" style="stroke:#181818;stroke-width:1.0;"/><text fill="#000000" font-family="sans-serif" font-size="13" lengthAdjust="spacing" textLength="156" x="264" y="550.9263">ドメイン方式選択画面表示</text><path d="M262,581.9922 L262,666.9922 L504,666.9922 L504,591.9922 L494,581.9922 L262,581.9922 " fill="#FEFFDD" style="stroke:#181818;stroke-width:0.5;"/><path d="M494,581.9922 L494,591.9922 L504,591.9922 L494,581.9922 " fill="#FEFFDD" style="stroke:#181818;stroke-width:0.5;"/><text fill="#000000" font-family="sans-serif" font-size="13" lengthAdjust="spacing" textLength="169" x="268" y="599.0591">ドメイン方式は以下から選択</text><ellipse cx="273.5" cy="609.7578" fill="#000000" rx="2.5" ry="2.5" style="stroke:#000000;stroke-width:0.0;"/><text fill="#000000" font-family="sans-serif" font-size="13" lengthAdjust="spacing" textLength="143" x="280" y="614.1919">自分で取得したドメイン</text><ellipse cx="273.5" cy="624.8906" fill="#000000" rx="2.5" ry="2.5" style="stroke:#000000;stroke-width:0.0;"/><text fill="#000000" font-family="sans-serif" font-size="13" lengthAdjust="spacing" textLength="184" x="280" y="629.3247">Sonic Host提供のサブドメイン</text><text fill="#000000" font-family="sans-serif" font-size="13" lengthAdjust="spacing" textLength="78" x="268" y="644.4575">金額かえる？</text><text fill="#000000" font-family="sans-serif" font-size="13" lengthAdjust="spacing" textLength="221" x="268" y="659.5903">なら、カード入力のタイミング考慮要</text><polygon fill="#181818" points="235,689.7891,245,693.7891,235,697.7891,239,693.7891" style="stroke:#181818;stroke-width:1.0;"/><line style="stroke:#181818;stroke-width:1.0;" x1="54" x2="241" y1="693.7891" y2="693.7891"/><text fill="#000000" font-family="sans-serif" font-size="13" lengthAdjust="spacing" textLength="104" x="61" y="688.7231">ドメイン方式選択</text><path d="M20,708.7891 L86,708.7891 L86,715.9219 L76,725.9219 L20,725.9219 L20,708.7891 " fill="#EEEEEE" style="stroke:#000000;stroke-width:1.5;"/><rect fill="none" height="448.5313" style="stroke:#000000;stroke-width:1.5;" width="561.5" x="20" y="708.7891"/><text fill="#000000" font-family="sans-serif" font-size="13" font-weight="bold" lengthAdjust="spacing" textLength="21" x="35" y="721.856">alt</text><text fill="#000000" font-family="sans-serif" font-size="11" font-weight="bold" lengthAdjust="spacing" textLength="131" x="101" y="720.9995">[自前ドメイン方式の場合]</text><line style="stroke:#181818;stroke-width:1.0;" x1="257" x2="299" y1="747.0547" y2="747.0547"/><line style="stroke:#181818;stroke-width:1.0;" x1="299" x2="299" y1="747.0547" y2="760.0547"/><line style="stroke:#181818;stroke-width:1.0;" x1="258" x2="299" y1="760.0547" y2="760.0547"/><polygon fill="#181818" points="268,756.0547,258,760.0547,268,764.0547,264,760.0547" style="stroke:#181818;stroke-width:1.0;"/><text fill="#000000" font-family="sans-serif" font-size="13" lengthAdjust="spacing" textLength="130" x="264" y="741.9888">ドメイン入力画面表示</text><polygon fill="#181818" points="235,785.1875,245,789.1875,235,793.1875,239,789.1875" style="stroke:#181818;stroke-width:1.0;"/><line style="stroke:#181818;stroke-width:1.0;" x1="54" x2="241" y1="789.1875" y2="789.1875"/><text fill="#000000" font-family="sans-serif" font-size="13" lengthAdjust="spacing" textLength="91" x="61" y="784.1216">ドメイン名入力</text><polygon fill="#181818" points="235,814.3203,245,818.3203,235,822.3203,239,818.3203" style="stroke:#181818;stroke-width:1.0;"/><line style="stroke:#181818;stroke-width:1.0;" x1="54" x2="241" y1="818.3203" y2="818.3203"/><text fill="#000000" font-family="sans-serif" font-size="13" lengthAdjust="spacing" textLength="78" x="61" y="813.2544">「確定」押下</text><polygon fill="#181818" points="479,843.4531,489,847.4531,479,851.4531,483,847.4531" style="stroke:#181818;stroke-width:1.0;"/><line style="stroke:#181818;stroke-width:1.0;" x1="257" x2="485" y1="847.4531" y2="847.4531"/><text fill="#000000" font-family="sans-serif" font-size="13" lengthAdjust="spacing" textLength="111" x="264" y="842.3872">ドメイン仮登録API</text><polygon fill="#181818" points="268,857.4531,258,861.4531,268,865.4531,264,861.4531" style="stroke:#181818;stroke-width:1.0;"/><line style="stroke:#181818;stroke-width:1.0;stroke-dasharray:2.0,2.0;" x1="262" x2="495" y1="861.4531" y2="861.4531"/><line style="stroke:#181818;stroke-width:1.0;" x1="257" x2="299" y1="890.5859" y2="890.5859"/><line style="stroke:#181818;stroke-width:1.0;" x1="299" x2="299" y1="890.5859" y2="903.5859"/><line style="stroke:#181818;stroke-width:1.0;" x1="258" x2="299" y1="903.5859" y2="903.5859"/><polygon fill="#181818" points="268,899.5859,258,903.5859,268,907.5859,264,903.5859" style="stroke:#181818;stroke-width:1.0;"/><text fill="#000000" font-family="sans-serif" font-size="13" lengthAdjust="spacing" textLength="130" x="264" y="885.52">ネームサーバ表示画面</text><polygon fill="#181818" points="235,928.7188,245,932.7188,235,936.7188,239,932.7188" style="stroke:#181818;stroke-width:1.0;"/><line style="stroke:#181818;stroke-width:1.0;" x1="54" x2="241" y1="932.7188" y2="932.7188"/><text fill="#000000" font-family="sans-serif" font-size="13" lengthAdjust="spacing" textLength="26" x="61" y="927.6528">確認</text><polygon fill="#181818" points="235,957.8516,245,961.8516,235,965.8516,239,961.8516" style="stroke:#181818;stroke-width:1.0;"/><line style="stroke:#181818;stroke-width:1.0;" x1="54" x2="241" y1="961.8516" y2="961.8516"/><text fill="#000000" font-family="sans-serif" font-size="13" lengthAdjust="spacing" textLength="78" x="61" y="956.7856">「次へ」押下</text><line style="stroke:#000000;stroke-width:1.0;stroke-dasharray:2.0,2.0;" x1="20" x2="581.5" y1="970.8516" y2="970.8516"/><text fill="#000000" font-family="sans-serif" font-size="11" font-weight="bold" lengthAdjust="spacing" textLength="203" x="25" y="981.062">[Sonic Hostサブドメイン方式の場合]</text><polygon fill="#181818" points="479,1001.7891,489,1005.7891,479,1009.7891,483,1005.7891" style="stroke:#181818;stroke-width:1.0;"/><line style="stroke:#181818;stroke-width:1.0;" x1="257" x2="485" y1="1005.7891" y2="1005.7891"/><text fill="#000000" font-family="sans-serif" font-size="13" lengthAdjust="spacing" textLength="124" x="264" y="1000.7231">ドメイン一覧取得API</text><polygon fill="#181818" points="268,1015.7891,258,1019.7891,268,1023.7891,264,1019.7891" style="stroke:#181818;stroke-width:1.0;"/><line style="stroke:#181818;stroke-width:1.0;stroke-dasharray:2.0,2.0;" x1="262" x2="495" y1="1019.7891" y2="1019.7891"/><line style="stroke:#181818;stroke-width:1.0;" x1="257" x2="299" y1="1048.9219" y2="1048.9219"/><line style="stroke:#181818;stroke-width:1.0;" x1="299" x2="299" y1="1048.9219" y2="1061.9219"/><line style="stroke:#181818;stroke-width:1.0;" x1="258" x2="299" y1="1061.9219" y2="1061.9219"/><polygon fill="#181818" points="268,1057.9219,258,1061.9219,268,1065.9219,264,1061.9219" style="stroke:#181818;stroke-width:1.0;"/><text fill="#000000" font-family="sans-serif" font-size="13" lengthAdjust="spacing" textLength="169" x="264" y="1043.856">ドメイン選択・入力画面表示</text><polygon fill="#181818" points="235,1087.0547,245,1091.0547,235,1095.0547,239,1091.0547" style="stroke:#181818;stroke-width:1.0;"/><line style="stroke:#181818;stroke-width:1.0;" x1="54" x2="241" y1="1091.0547" y2="1091.0547"/><text fill="#000000" font-family="sans-serif" font-size="13" lengthAdjust="spacing" textLength="78" x="61" y="1085.9888">ドメイン選択</text><polygon fill="#181818" points="235,1116.1875,245,1120.1875,235,1124.1875,239,1120.1875" style="stroke:#181818;stroke-width:1.0;"/><line style="stroke:#181818;stroke-width:1.0;" x1="54" x2="241" y1="1120.1875" y2="1120.1875"/><text fill="#000000" font-family="sans-serif" font-size="13" lengthAdjust="spacing" textLength="104" x="61" y="1115.1216">サブドメイン入力</text><polygon fill="#181818" points="235,1145.3203,245,1149.3203,235,1153.3203,239,1149.3203" style="stroke:#181818;stroke-width:1.0;"/><line style="stroke:#181818;stroke-width:1.0;" x1="54" x2="241" y1="1149.3203" y2="1149.3203"/><text fill="#000000" font-family="sans-serif" font-size="13" lengthAdjust="spacing" textLength="78" x="61" y="1144.2544">「次へ」押下</text><line style="stroke:#181818;stroke-width:1.0;" x1="257" x2="299" y1="1185.4531" y2="1185.4531"/><line style="stroke:#181818;stroke-width:1.0;" x1="299" x2="299" y1="1185.4531" y2="1198.4531"/><line style="stroke:#181818;stroke-width:1.0;" x1="258" x2="299" y1="1198.4531" y2="1198.4531"/><polygon fill="#181818" points="268,1194.4531,258,1198.4531,268,1202.4531,264,1198.4531" style="stroke:#181818;stroke-width:1.0;"/><text fill="#000000" font-family="sans-serif" font-size="13" lengthAdjust="spacing" textLength="182" x="264" y="1180.3872">サービスドメイン入力画面表示</text><polygon fill="#181818" points="235,1223.5859,245,1227.5859,235,1231.5859,239,1227.5859" style="stroke:#181818;stroke-width:1.0;"/><line style="stroke:#181818;stroke-width:1.0;" x1="54" x2="241" y1="1227.5859" y2="1227.5859"/><text fill="#000000" font-family="sans-serif" font-size="13" lengthAdjust="spacing" textLength="117" x="61" y="1222.52">サイトドメイン入力</text><polygon fill="#181818" points="235,1252.7188,245,1256.7188,235,1260.7188,239,1256.7188" style="stroke:#181818;stroke-width:1.0;"/><line style="stroke:#181818;stroke-width:1.0;" x1="54" x2="241" y1="1256.7188" y2="1256.7188"/><text fill="#000000" font-family="sans-serif" font-size="13" lengthAdjust="spacing" textLength="117" x="61" y="1251.6528">メールドメイン入力</text><polygon fill="#181818" points="235,1281.8516,245,1285.8516,235,1289.8516,239,1285.8516" style="stroke:#181818;stroke-width:1.0;"/><line style="stroke:#181818;stroke-width:1.0;" x1="54" x2="241" y1="1285.8516" y2="1285.8516"/><text fill="#000000" font-family="sans-serif" font-size="13" lengthAdjust="spacing" textLength="78" x="61" y="1280.7856">「確認」押下</text><line style="stroke:#181818;stroke-width:1.0;" x1="257" x2="299" y1="1314.9844" y2="1314.9844"/><line style="stroke:#181818;stroke-width:1.0;" x1="299" x2="299" y1="1314.9844" y2="1327.9844"/><line style="stroke:#181818;stroke-width:1.0;" x1="258" x2="299" y1="1327.9844" y2="1327.9844"/><polygon fill="#181818" points="268,1323.9844,258,1327.9844,268,1331.9844,264,1327.9844" style="stroke:#181818;stroke-width:1.0;"/><text fill="#000000" font-family="sans-serif" font-size="13" lengthAdjust="spacing" textLength="130" x="264" y="1309.9185">入力内容確認画面表示</text><rect fill="#87CEEB" height="53" style="stroke:#181818;stroke-width:0.5;" width="294" x="262" y="1340.9844"/><text fill="#000000" font-family="sans-serif" font-size="13" lengthAdjust="spacing" textLength="286" x="266" y="1357.0513">変更したい項目があれば「変更」ボタンを押下。</text><text fill="#000000" font-family="sans-serif" font-size="13" lengthAdjust="spacing" textLength="260" x="266" y="1372.1841">外套の変更画面に遷移し、「確認」ボタンを</text><text fill="#000000" font-family="sans-serif" font-size="13" lengthAdjust="spacing" textLength="156" x="266" y="1387.3169">押下すると今の画面に戻る</text><polygon fill="#181818" points="235,1416.5156,245,1420.5156,235,1424.5156,239,1420.5156" style="stroke:#181818;stroke-width:1.0;"/><line style="stroke:#181818;stroke-width:1.0;" x1="54" x2="241" y1="1420.5156" y2="1420.5156"/><text fill="#000000" font-family="sans-serif" font-size="13" lengthAdjust="spacing" textLength="78" x="61" y="1415.4497">「確定」押下</text><polygon fill="#181818" points="479,1445.6484,489,1449.6484,479,1453.6484,483,1449.6484" style="stroke:#181818;stroke-width:1.0;"/><line style="stroke:#181818;stroke-width:1.0;" x1="257" x2="485" y1="1449.6484" y2="1449.6484"/><text fill="#000000" font-family="sans-serif" font-size="13" lengthAdjust="spacing" textLength="124" x="264" y="1444.5825">サイト情報仮登録API</text><line style="stroke:#181818;stroke-width:1.0;" x1="501" x2="543" y1="1478.7813" y2="1478.7813"/><line style="stroke:#181818;stroke-width:1.0;" x1="543" x2="543" y1="1478.7813" y2="1491.7813"/><line style="stroke:#181818;stroke-width:1.0;" x1="502" x2="543" y1="1491.7813" y2="1491.7813"/><polygon fill="#181818" points="512,1487.7813,502,1491.7813,512,1495.7813,508,1491.7813" style="stroke:#181818;stroke-width:1.0;"/><text fill="#000000" font-family="sans-serif" font-size="13" lengthAdjust="spacing" textLength="130" x="508" y="1473.7153">サイト情報を一次登録</text><polygon fill="#181818" points="705,1516.9141,715,1520.9141,705,1524.9141,709,1520.9141" style="stroke:#181818;stroke-width:1.0;"/><line style="stroke:#181818;stroke-width:1.0;" x1="501" x2="711" y1="1520.9141" y2="1520.9141"/><text fill="#000000" font-family="sans-serif" font-size="13" lengthAdjust="spacing" textLength="197" x="508" y="1515.8481">Stripeで作成するProductsの登録</text><polygon fill="#181818" points="512,1530.9141,502,1534.9141,512,1538.9141,508,1534.9141" style="stroke:#181818;stroke-width:1.0;"/><line style="stroke:#181818;stroke-width:1.0;stroke-dasharray:2.0,2.0;" x1="506" x2="721" y1="1534.9141" y2="1534.9141"/><polygon fill="#181818" points="268,1544.9141,258,1548.9141,268,1552.9141,264,1548.9141" style="stroke:#181818;stroke-width:1.0;"/><line style="stroke:#181818;stroke-width:1.0;stroke-dasharray:2.0,2.0;" x1="262" x2="495" y1="1548.9141" y2="1548.9141"/><line style="stroke:#181818;stroke-width:1.0;" x1="257" x2="299" y1="1578.0469" y2="1578.0469"/><line style="stroke:#181818;stroke-width:1.0;" x1="299" x2="299" y1="1578.0469" y2="1591.0469"/><line style="stroke:#181818;stroke-width:1.0;" x1="258" x2="299" y1="1591.0469" y2="1591.0469"/><polygon fill="#181818" points="268,1587.0469,258,1591.0469,268,1595.0469,264,1591.0469" style="stroke:#181818;stroke-width:1.0;"/><text fill="#000000" font-family="sans-serif" font-size="13" lengthAdjust="spacing" textLength="156" x="264" y="1572.981">支払いプラン情報画面表示</text><polygon fill="#181818" points="479,1616.1797,489,1620.1797,479,1624.1797,483,1620.1797" style="stroke:#181818;stroke-width:1.0;"/><line style="stroke:#181818;stroke-width:1.0;" x1="257" x2="485" y1="1620.1797" y2="1620.1797"/><text fill="#000000" font-family="sans-serif" font-size="13" lengthAdjust="spacing" textLength="150" x="264" y="1615.1138">支払いプラン情報取得API</text><polygon fill="#181818" points="268,1645.3125,258,1649.3125,268,1653.3125,264,1649.3125" style="stroke:#181818;stroke-width:1.0;"/><line style="stroke:#181818;stroke-width:1.0;stroke-dasharray:2.0,2.0;" x1="262" x2="495" y1="1649.3125" y2="1649.3125"/><text fill="#000000" font-family="sans-serif" font-size="13" lengthAdjust="spacing" textLength="104" x="274" y="1644.2466">支払いプラン情報</text><polygon fill="#181818" points="235,1674.4453,245,1678.4453,235,1682.4453,239,1678.4453" style="stroke:#181818;stroke-width:1.0;"/><line style="stroke:#181818;stroke-width:1.0;" x1="54" x2="241" y1="1678.4453" y2="1678.4453"/><text fill="#000000" font-family="sans-serif" font-size="13" lengthAdjust="spacing" textLength="117" x="61" y="1673.3794">支払い情報入力押下</text><path d="M10,1693.4453 L76,1693.4453 L76,1700.5781 L66,1710.5781 L10,1710.5781 L10,1693.4453 " fill="#EEEEEE" style="stroke:#000000;stroke-width:1.5;"/><rect fill="none" height="892.9219" style="stroke:#000000;stroke-width:1.5;" width="771" x="10" y="1693.4453"/><text fill="#000000" font-family="sans-serif" font-size="13" font-weight="bold" lengthAdjust="spacing" textLength="21" x="25" y="1706.5122">alt</text><text fill="#000000" font-family="sans-serif" font-size="11" font-weight="bold" lengthAdjust="spacing" textLength="131" x="91" y="1705.6558">[カード情報未入力の場合]</text><polygon fill="#181818" points="479,1727.7109,489,1731.7109,479,1735.7109,483,1731.7109" style="stroke:#181818;stroke-width:1.0;"/><line style="stroke:#181818;stroke-width:1.0;" x1="257" x2="485" y1="1731.7109" y2="1731.7109"/><text fill="#000000" font-family="sans-serif" font-size="13" lengthAdjust="spacing" textLength="143" x="264" y="1726.645">支払い情報登録開始要求</text><polygon fill="#181818" points="705,1756.8438,715,1760.8438,705,1764.8438,709,1760.8438" style="stroke:#181818;stroke-width:1.0;"/><line style="stroke:#181818;stroke-width:1.0;" x1="501" x2="711" y1="1760.8438" y2="1760.8438"/><text fill="#000000" font-family="sans-serif" font-size="13" lengthAdjust="spacing" textLength="91" x="508" y="1755.7778">プラン情報取得</text><polygon fill="#181818" points="512,1785.9766,502,1789.9766,512,1793.9766,508,1789.9766" style="stroke:#181818;stroke-width:1.0;"/><line style="stroke:#181818;stroke-width:1.0;stroke-dasharray:2.0,2.0;" x1="506" x2="721" y1="1789.9766" y2="1789.9766"/><text fill="#000000" font-family="sans-serif" font-size="13" lengthAdjust="spacing" textLength="65" x="518" y="1784.9106">プラン情報</text><polygon fill="#181818" points="705,1815.1094,715,1819.1094,705,1823.1094,709,1819.1094" style="stroke:#181818;stroke-width:1.0;"/><line style="stroke:#181818;stroke-width:1.0;" x1="501" x2="711" y1="1819.1094" y2="1819.1094"/><text fill="#000000" font-family="sans-serif" font-size="13" lengthAdjust="spacing" textLength="91" x="508" y="1814.0435">セッション生成</text><polygon fill="#181818" points="512,1859.375,502,1863.375,512,1867.375,508,1863.375" style="stroke:#181818;stroke-width:1.0;"/><line style="stroke:#181818;stroke-width:1.0;stroke-dasharray:2.0,2.0;" x1="506" x2="721" y1="1863.375" y2="1863.375"/><text fill="#000000" font-family="sans-serif" font-size="13" lengthAdjust="spacing" textLength="91" x="518" y="1843.1763">セッション情報</text><text fill="#000000" font-family="sans-serif" font-size="13" lengthAdjust="spacing" textLength="191" x="518" y="1858.3091">(セッションとリダイレクトURL)</text><polygon fill="#181818" points="268,1903.6406,258,1907.6406,268,1911.6406,264,1907.6406" style="stroke:#181818;stroke-width:1.0;"/><line style="stroke:#181818;stroke-width:1.0;stroke-dasharray:2.0,2.0;" x1="262" x2="495" y1="1907.6406" y2="1907.6406"/><text fill="#000000" font-family="sans-serif" font-size="13" lengthAdjust="spacing" textLength="103" x="274" y="1887.4419">リダイレクトURL</text><text fill="#000000" font-family="sans-serif" font-size="13" lengthAdjust="spacing" textLength="34" x="274" y="1902.5747">(301)</text><polygon fill="#181818" points="705,1932.7734,715,1936.7734,705,1940.7734,709,1936.7734" style="stroke:#181818;stroke-width:1.0;"/><line style="stroke:#181818;stroke-width:1.0;" x1="257" x2="711" y1="1936.7734" y2="1936.7734"/><text fill="#000000" font-family="sans-serif" font-size="13" lengthAdjust="spacing" textLength="78" x="264" y="1931.7075">リダイレクト</text><polygon fill="#181818" points="268,1961.9063,258,1965.9063,268,1969.9063,264,1965.9063" style="stroke:#181818;stroke-width:1.0;"/><line style="stroke:#181818;stroke-width:1.0;stroke-dasharray:2.0,2.0;" x1="262" x2="721" y1="1965.9063" y2="1965.9063"/><text fill="#000000" font-family="sans-serif" font-size="13" lengthAdjust="spacing" textLength="117" x="274" y="1960.8403">プラン登録画面表示</text><polygon fill="#181818" points="235,1991.0391,245,1995.0391,235,1999.0391,239,1995.0391" style="stroke:#181818;stroke-width:1.0;"/><line style="stroke:#181818;stroke-width:1.0;" x1="54" x2="241" y1="1995.0391" y2="1995.0391"/><text fill="#000000" font-family="sans-serif" font-size="13" lengthAdjust="spacing" textLength="91" x="61" y="1989.9731">カード情報入力</text><polygon fill="#181818" points="705,2020.1719,715,2024.1719,705,2028.1719,709,2024.1719" style="stroke:#181818;stroke-width:1.0;"/><line style="stroke:#181818;stroke-width:1.0;" x1="257" x2="711" y1="2024.1719" y2="2024.1719"/><text fill="#000000" font-family="sans-serif" font-size="13" lengthAdjust="spacing" textLength="85" x="264" y="2019.106">プラン登録API</text><polygon fill="#181818" points="268,2034.1719,258,2038.1719,268,2042.1719,264,2038.1719" style="stroke:#181818;stroke-width:1.0;"/><line style="stroke:#181818;stroke-width:1.0;stroke-dasharray:2.0,2.0;" x1="262" x2="721" y1="2038.1719" y2="2038.1719"/><path d="M20,2053.1719 L86,2053.1719 L86,2060.3047 L76,2070.3047 L20,2070.3047 L20,2053.1719 " fill="#EEEEEE" style="stroke:#000000;stroke-width:1.5;"/><rect fill="none" height="497.0625" style="stroke:#000000;stroke-width:1.5;" width="630" x="20" y="2053.1719"/><text fill="#000000" font-family="sans-serif" font-size="13" font-weight="bold" lengthAdjust="spacing" textLength="21" x="35" y="2066.2388">alt</text><text fill="#000000" font-family="sans-serif" font-size="11" font-weight="bold" lengthAdjust="spacing" textLength="142" x="101" y="2065.3823">[プラン登録に成功した場合]</text><polygon fill="#181818" points="479,2087.4375,489,2091.4375,479,2095.4375,483,2091.4375" style="stroke:#181818;stroke-width:1.0;"/><line style="stroke:#181818;stroke-width:1.0;" x1="257" x2="485" y1="2091.4375" y2="2091.4375"/><text fill="#000000" font-family="sans-serif" font-size="13" lengthAdjust="spacing" textLength="111" x="264" y="2086.3716">プラン登録結果API</text><line style="stroke:#181818;stroke-width:1.0;" x1="501" x2="543" y1="2135.7031" y2="2135.7031"/><line style="stroke:#181818;stroke-width:1.0;" x1="543" x2="543" y1="2135.7031" y2="2148.7031"/><line style="stroke:#181818;stroke-width:1.0;" x1="502" x2="543" y1="2148.7031" y2="2148.7031"/><polygon fill="#181818" points="512,2144.7031,502,2148.7031,512,2152.7031,508,2148.7031" style="stroke:#181818;stroke-width:1.0;"/><text fill="#000000" font-family="sans-serif" font-size="13" lengthAdjust="spacing" textLength="91" x="508" y="2115.5044">プラン結果登録</text><text fill="#000000" font-family="sans-serif" font-size="13" lengthAdjust="spacing" textLength="130" x="508" y="2130.6372">カード情報（ID）登録</text><line style="stroke:#181818;stroke-width:1.0;" x1="501" x2="543" y1="2177.8359" y2="2177.8359"/><line style="stroke:#181818;stroke-width:1.0;" x1="543" x2="543" y1="2177.8359" y2="2190.8359"/><line style="stroke:#181818;stroke-width:1.0;" x1="502" x2="543" y1="2190.8359" y2="2190.8359"/><polygon fill="#181818" points="512,2186.8359,502,2190.8359,512,2194.8359,508,2190.8359" style="stroke:#181818;stroke-width:1.0;"/><text fill="#000000" font-family="sans-serif" font-size="13" lengthAdjust="spacing" textLength="130" x="508" y="2172.77">仮登録した内容を確定</text><polygon fill="#181818" points="268,2231.1016,258,2235.1016,268,2239.1016,264,2235.1016" style="stroke:#181818;stroke-width:1.0;"/><line style="stroke:#181818;stroke-width:1.0;stroke-dasharray:2.0,2.0;" x1="262" x2="495" y1="2235.1016" y2="2235.1016"/><text fill="#000000" font-family="sans-serif" font-size="13" lengthAdjust="spacing" textLength="156" x="274" y="2214.9028">成功画面へのリダイレクト</text><text fill="#000000" font-family="sans-serif" font-size="13" lengthAdjust="spacing" textLength="34" x="274" y="2230.0356">(301)</text><line style="stroke:#181818;stroke-width:1.0;" x1="257" x2="299" y1="2279.3672" y2="2279.3672"/><line style="stroke:#181818;stroke-width:1.0;" x1="299" x2="299" y1="2279.3672" y2="2292.3672"/><line style="stroke:#181818;stroke-width:1.0;" x1="258" x2="299" y1="2292.3672" y2="2292.3672"/><polygon fill="#181818" points="268,2288.3672,258,2292.3672,268,2296.3672,264,2292.3672" style="stroke:#181818;stroke-width:1.0;"/><text fill="#000000" font-family="sans-serif" font-size="13" lengthAdjust="spacing" textLength="78" x="264" y="2259.1685">登録画面表示</text><text fill="#000000" font-family="sans-serif" font-size="13" lengthAdjust="spacing" textLength="220" x="264" y="2274.3013">(実際にはCDNに対してリダイレクト)</text><line style="stroke:#000000;stroke-width:1.0;stroke-dasharray:2.0,2.0;" x1="20" x2="650" y1="2301.3672" y2="2301.3672"/><text fill="#000000" font-family="sans-serif" font-size="11" font-weight="bold" lengthAdjust="spacing" textLength="142" x="25" y="2311.5776">[プラン登録に失敗した場合]</text><polygon fill="#181818" points="479,2347.4375,489,2351.4375,479,2355.4375,483,2351.4375" style="stroke:#181818;stroke-width:1.0;"/><line style="stroke:#181818;stroke-width:1.0;" x1="257" x2="485" y1="2351.4375" y2="2351.4375"/><text fill="#000000" font-family="sans-serif" font-size="13" lengthAdjust="spacing" textLength="111" x="264" y="2331.2388">プラン登録結果API</text><text fill="#000000" font-family="sans-serif" font-size="13" lengthAdjust="spacing" textLength="192" x="264" y="2346.3716">(クエリパラメータで失敗を連携)</text><polygon fill="#181818" points="268,2391.7031,258,2395.7031,268,2399.7031,264,2395.7031" style="stroke:#181818;stroke-width:1.0;"/><line style="stroke:#181818;stroke-width:1.0;stroke-dasharray:2.0,2.0;" x1="262" x2="495" y1="2395.7031" y2="2395.7031"/><text fill="#000000" font-family="sans-serif" font-size="13" lengthAdjust="spacing" textLength="156" x="274" y="2375.5044">失敗画面へのリダイレクト</text><text fill="#000000" font-family="sans-serif" font-size="13" lengthAdjust="spacing" textLength="34" x="274" y="2390.6372">(301)</text><line style="stroke:#181818;stroke-width:1.0;" x1="257" x2="299" y1="2424.8359" y2="2424.8359"/><line style="stroke:#181818;stroke-width:1.0;" x1="299" x2="299" y1="2424.8359" y2="2437.8359"/><line style="stroke:#181818;stroke-width:1.0;" x1="258" x2="299" y1="2437.8359" y2="2437.8359"/><polygon fill="#181818" points="268,2433.8359,258,2437.8359,268,2441.8359,264,2437.8359" style="stroke:#181818;stroke-width:1.0;"/><text fill="#000000" font-family="sans-serif" font-size="13" lengthAdjust="spacing" textLength="78" x="264" y="2419.77">失敗画面表示</text><polygon fill="#181818" points="235,2462.9688,245,2466.9688,235,2470.9688,239,2466.9688" style="stroke:#181818;stroke-width:1.0;"/><line style="stroke:#181818;stroke-width:1.0;" x1="54" x2="241" y1="2466.9688" y2="2466.9688"/><text fill="#000000" font-family="sans-serif" font-size="13" lengthAdjust="spacing" textLength="169" x="61" y="2461.9028">「再度プランを選択」を押下</text><line style="stroke:#181818;stroke-width:1.0;" x1="257" x2="299" y1="2496.1016" y2="2496.1016"/><line style="stroke:#181818;stroke-width:1.0;" x1="299" x2="299" y1="2496.1016" y2="2509.1016"/><line style="stroke:#181818;stroke-width:1.0;" x1="258" x2="299" y1="2509.1016" y2="2509.1016"/><polygon fill="#181818" points="268,2505.1016,258,2509.1016,268,2513.1016,264,2509.1016" style="stroke:#181818;stroke-width:1.0;"/><text fill="#000000" font-family="sans-serif" font-size="13" lengthAdjust="spacing" textLength="117" x="264" y="2491.0356">プラン登録画面表示</text><rect fill="#FEFFDD" height="23" style="stroke:#181818;stroke-width:0.5;" width="112" x="262" y="2522.1016"/><text fill="#000000" font-family="sans-serif" font-size="13" lengthAdjust="spacing" textLength="104" x="266" y="2538.1685">プラン登録へ戻る</text><polygon fill="#181818" points="235,2574.3672,245,2578.3672,235,2582.3672,239,2578.3672" style="stroke:#181818;stroke-width:1.0;"/><line style="stroke:#181818;stroke-width:1.0;" x1="54" x2="241" y1="2578.3672" y2="2578.3672"/><text fill="#000000" font-family="sans-serif" font-size="13" lengthAdjust="spacing" textLength="104" x="61" y="2573.3013">「確認した」押下</text><path d="M20,2600.3672 L86,2600.3672 L86,2607.5 L76,2617.5 L20,2617.5 L20,2600.3672 " fill="#EEEEEE" style="stroke:#000000;stroke-width:1.5;"/><rect fill="none" height="88.3984" style="stroke:#000000;stroke-width:1.5;" width="368" x="20" y="2600.3672"/><text fill="#000000" font-family="sans-serif" font-size="13" font-weight="bold" lengthAdjust="spacing" textLength="21" x="35" y="2613.4341">alt</text><text fill="#000000" font-family="sans-serif" font-size="11" font-weight="bold" lengthAdjust="spacing" textLength="120" x="101" y="2612.5776">[サイト初回登録の場合]</text><line style="stroke:#181818;stroke-width:1.0;" x1="257" x2="299" y1="2638.6328" y2="2638.6328"/><line style="stroke:#181818;stroke-width:1.0;" x1="299" x2="299" y1="2638.6328" y2="2651.6328"/><line style="stroke:#181818;stroke-width:1.0;" x1="258" x2="299" y1="2651.6328" y2="2651.6328"/><polygon fill="#181818" points="268,2647.6328,258,2651.6328,268,2655.6328,264,2651.6328" style="stroke:#181818;stroke-width:1.0;"/><text fill="#000000" font-family="sans-serif" font-size="13" lengthAdjust="spacing" textLength="112" x="264" y="2633.5669">Welcome画面表示</text><polygon fill="#181818" points="235,2676.7656,245,2680.7656,235,2684.7656,239,2680.7656" style="stroke:#181818;stroke-width:1.0;"/><line style="stroke:#181818;stroke-width:1.0;" x1="54" x2="241" y1="2680.7656" y2="2680.7656"/><text fill="#000000" font-family="sans-serif" font-size="13" lengthAdjust="spacing" textLength="129" x="61" y="2675.6997">「Homeへ進む」押下</text><line style="stroke:#181818;stroke-width:1.0;" x1="257" x2="299" y1="2716.8984" y2="2716.8984"/><line style="stroke:#181818;stroke-width:1.0;" x1="299" x2="299" y1="2716.8984" y2="2729.8984"/><line style="stroke:#181818;stroke-width:1.0;" x1="258" x2="299" y1="2729.8984" y2="2729.8984"/><polygon fill="#181818" points="268,2725.8984,258,2729.8984,268,2733.8984,264,2729.8984" style="stroke:#181818;stroke-width:1.0;"/><text fill="#000000" font-family="sans-serif" font-size="13" lengthAdjust="spacing" textLength="89" x="264" y="2711.8325">HOME画面表示</text><rect fill="#87CEEB" height="38" style="stroke:#181818;stroke-width:0.5;" width="227" x="262" y="2742.8984"/><text fill="#000000" font-family="sans-serif" font-size="13" lengthAdjust="spacing" textLength="208" x="266" y="2758.9653">ネームサーバ設定確認中の場合は、</text><text fill="#000000" font-family="sans-serif" font-size="13" lengthAdjust="spacing" textLength="219" x="266" y="2774.0981">確認中であることをHOME画面委表示</text><!--MD5=[f5e9d627e2ea44b8b4c46052e38dc7a4]
@startuml
title サイト追加

' アクター定義
actor "ユーザ" as user
participant "クライアント端末\n(PCまたはスマホ)" as device
participant "SonicHost API\n(CDN/API-Gateway)" as api
participant "決済サービス\n(Stripe)" as stripe


user -> device ++: HOME画面表示
rnote right of device #GreenYellow
    ログインフローを参照
end note
alt サイト未登録の場合
    device -> device : サイト名入力画面表示
else サイト登録済みの場合
    device -> device : ＨＯＭＥ画面表示
    user -> device : サイト設定確認選択
    device -> device : サイト設定確認画面表示
    user -> device : サイト追加押下
    device -> device : サイト追加押下
    device -> device : サイト名入力画面表示
end
user -> device : サイト名入力
device -> device : ドメイン方式選択画面表示
note right of device 
    ドメイン方式は以下から選択
    * 自分で取得したドメイン
    * Sonic Host提供のサブドメイン
    金額かえる？
    なら、カード入力のタイミング考慮要
end note
user -> device : ドメイン方式選択
alt 自前ドメイン方式の場合
    device -> device :ドメイン入力画面表示
    user -> device : ドメイン名入力
    user -> device : 「確定」押下
    device -> api ++ : ドメイン仮登録API
    device <- - api - - 
    device -> device : ネームサーバ表示画面
    user -> device : 確認
    user -> device : 「次へ」押下
else Sonic Hostサブドメイン方式の場合
    device -> api ++ : ドメイン一覧取得API
    device <- - api - - 
    device -> device : ドメイン選択・入力画面表示
    user -> device : ドメイン選択
    user -> device : サブドメイン入力
    user -> device : 「次へ」押下
end 
device -> device : サービスドメイン入力画面表示
user -> device : サイトドメイン入力
user -> device : メールドメイン入力
user -> device : 「確認」押下
device -> device : 入力内容確認画面表示
rnote right of device #SkyBlue
    変更したい項目があれば「変更」ボタンを押下。
    外套の変更画面に遷移し、「確認」ボタンを
    押下すると今の画面に戻る
end note
user -> device : 「確定」押下
device -> api ++ : サイト情報仮登録API
api -> api  : サイト情報を一次登録
api -> stripe ++ : Stripeで作成するProductsの登録
api <- - stripe - -
device <- - api - - 
device -> device : 支払いプラン情報画面表示
device -> api ++ : 支払いプラン情報取得API
device <- - api - - : 支払いプラン情報
user -> device : 支払い情報入力押下
alt カード情報未入力の場合
    device -> api ++ : 支払い情報登録開始要求
    api -> stripe ++ : プラン情報取得
    api <- - stripe - - : プラン情報
    api -> stripe ++ : セッション生成
    api <- - stripe - - : セッション情報\n(セッションとリダイレクトURL)
    device <- - api - - : リダイレクトURL\n(301)
    device -> stripe ++ : リダイレクト
    device <- - stripe - - : プラン登録画面表示
    user -> device : カード情報入力
    device -> stripe ++ : プラン登録API
    device <- - stripe - - 
    alt プラン登録に成功した場合
        device -> api ++ : プラン登録結果API
        api -> api : プラン結果登録\nカード情報（ID）登録
        api -> api : 仮登録した内容を確定
        device <- - api - - : 成功画面へのリダイレクト\n(301)
        device -> device : 登録画面表示\n(実際にはCDNに対してリダイレクト)
    else プラン登録に失敗した場合
        device -> api ++ : プラン登録結果API\n(クエリパラメータで失敗を連携)
        device <- - api - - : 失敗画面へのリダイレクト\n(301)
        device -> device : 失敗画面表示
        user -> device : 「再度プランを選択」を押下
        device -> device : プラン登録画面表示
        rnote right of device 
            プラン登録へ戻る
        end note
    end 
    user -> device : 「確認した」押下
end 
alt サイト初回登録の場合
    device -> device : Welcome画面表示
    user -> device : 「Homeへ進む」押下
end 
device -> device : HOME画面表示
rnote right of device #SkyBlue
    ネームサーバ設定確認中の場合は、
    確認中であることをHOME画面委表示
end note
@enduml

@startuml
title サイト追加

actor "ユーザ" as user
participant "クライアント端末\n(PCまたはスマホ)" as device
participant "SonicHost API\n(CDN/API-Gateway)" as api
participant "決済サービス\n(Stripe)" as stripe


user -> device ++: HOME画面表示
rnote right of device #GreenYellow
    ログインフローを参照
end note
alt サイト未登録の場合
    device -> device : サイト名入力画面表示
else サイト登録済みの場合
    device -> device : ＨＯＭＥ画面表示
    user -> device : サイト設定確認選択
    device -> device : サイト設定確認画面表示
    user -> device : サイト追加押下
    device -> device : サイト追加押下
    device -> device : サイト名入力画面表示
end
user -> device : サイト名入力
device -> device : ドメイン方式選択画面表示
note right of device 
    ドメイン方式は以下から選択
    * 自分で取得したドメイン
    * Sonic Host提供のサブドメイン
    金額かえる？
    なら、カード入力のタイミング考慮要
end note
user -> device : ドメイン方式選択
alt 自前ドメイン方式の場合
    device -> device :ドメイン入力画面表示
    user -> device : ドメイン名入力
    user -> device : 「確定」押下
    device -> api ++ : ドメイン仮登録API
    device <- - api - - 
    device -> device : ネームサーバ表示画面
    user -> device : 確認
    user -> device : 「次へ」押下
else Sonic Hostサブドメイン方式の場合
    device -> api ++ : ドメイン一覧取得API
    device <- - api - - 
    device -> device : ドメイン選択・入力画面表示
    user -> device : ドメイン選択
    user -> device : サブドメイン入力
    user -> device : 「次へ」押下
end 
device -> device : サービスドメイン入力画面表示
user -> device : サイトドメイン入力
user -> device : メールドメイン入力
user -> device : 「確認」押下
device -> device : 入力内容確認画面表示
rnote right of device #SkyBlue
    変更したい項目があれば「変更」ボタンを押下。
    外套の変更画面に遷移し、「確認」ボタンを
    押下すると今の画面に戻る
end note
user -> device : 「確定」押下
device -> api ++ : サイト情報仮登録API
api -> api  : サイト情報を一次登録
api -> stripe ++ : Stripeで作成するProductsの登録
api <- - stripe - -
device <- - api - - 
device -> device : 支払いプラン情報画面表示
device -> api ++ : 支払いプラン情報取得API
device <- - api - - : 支払いプラン情報
user -> device : 支払い情報入力押下
alt カード情報未入力の場合
    device -> api ++ : 支払い情報登録開始要求
    api -> stripe ++ : プラン情報取得
    api <- - stripe - - : プラン情報
    api -> stripe ++ : セッション生成
    api <- - stripe - - : セッション情報\n(セッションとリダイレクトURL)
    device <- - api - - : リダイレクトURL\n(301)
    device -> stripe ++ : リダイレクト
    device <- - stripe - - : プラン登録画面表示
    user -> device : カード情報入力
    device -> stripe ++ : プラン登録API
    device <- - stripe - - 
    alt プラン登録に成功した場合
        device -> api ++ : プラン登録結果API
        api -> api : プラン結果登録\nカード情報（ID）登録
        api -> api : 仮登録した内容を確定
        device <- - api - - : 成功画面へのリダイレクト\n(301)
        device -> device : 登録画面表示\n(実際にはCDNに対してリダイレクト)
    else プラン登録に失敗した場合
        device -> api ++ : プラン登録結果API\n(クエリパラメータで失敗を連携)
        device <- - api - - : 失敗画面へのリダイレクト\n(301)
        device -> device : 失敗画面表示
        user -> device : 「再度プランを選択」を押下
        device -> device : プラン登録画面表示
        rnote right of device 
            プラン登録へ戻る
        end note
    end 
    user -> device : 「確認した」押下
end 
alt サイト初回登録の場合
    device -> device : Welcome画面表示
    user -> device : 「Homeへ進む」押下
end 
device -> device : HOME画面表示
rnote right of device #SkyBlue
    ネームサーバ設定確認中の場合は、
    確認中であることをHOME画面委表示
end note
@enduml

PlantUML version 1.2022.14beta6(Unknown compile time)
(GPL source distribution)
Java Runtime: Java(TM) SE Runtime Environment
JVM: Java HotSpot(TM) 64-Bit Server VM
Default Encoding: UTF-8
Language: en
Country: US
--></g></svg>