<?xml version="1.0" encoding="UTF-8" standalone="no"?><svg xmlns="http://www.w3.org/2000/svg" xmlns:xlink="http://www.w3.org/1999/xlink" contentStyleType="text/css" height="785px" preserveAspectRatio="none" style="width:542px;height:785px;background:#FFFFFF;" version="1.1" viewBox="0 0 542 785" width="542px" zoomAndPan="magnify"><defs/><g><text fill="#000000" font-family="sans-serif" font-size="14" font-weight="bold" lengthAdjust="spacing" textLength="90" x="225.25" y="27.9951">お知らせ削除</text><rect fill="#FFFFFF" height="545.9922" style="stroke:#181818;stroke-width:1.0;" width="10" x="183" y="149.7266"/><rect fill="#FFFFFF" height="57.1328" style="stroke:#181818;stroke-width:1.0;" width="10" x="363" y="283.2578"/><rect fill="#FFFFFF" height="14" style="stroke:#181818;stroke-width:1.0;" width="10" x="363" y="480.0547"/><rect fill="#FFFFFF" height="14" style="stroke:#181818;stroke-width:1.0;" width="10" x="363" y="630.5859"/><rect fill="#FFFFFF" height="14" style="stroke:#181818;stroke-width:1.0;" width="10" x="496" y="312.3906"/><rect fill="none" height="60.2656" style="stroke:#000000;stroke-width:1.5;" width="339" x="114.5" y="441.7891"/><line style="stroke:#181818;stroke-width:0.5;stroke-dasharray:5.0,5.0;" x1="29" x2="29" y1="118.5938" y2="704.7188"/><line style="stroke:#181818;stroke-width:0.5;stroke-dasharray:5.0,5.0;" x1="187.5" x2="187.5" y1="118.5938" y2="704.7188"/><line style="stroke:#181818;stroke-width:0.5;stroke-dasharray:5.0,5.0;" x1="367.5" x2="367.5" y1="118.5938" y2="704.7188"/><line style="stroke:#181818;stroke-width:0.5;stroke-dasharray:5.0,5.0;" x1="500.5" x2="500.5" y1="118.5938" y2="704.7188"/><text fill="#000000" font-family="sans-serif" font-size="14" lengthAdjust="spacing" textLength="42" x="5" y="115.292">ユーザ</text><ellipse cx="29" cy="50.7969" fill="#E2E2F0" rx="8" ry="8" style="stroke:#181818;stroke-width:0.5;"/><path d="M29,58.7969 L29,85.7969 M16,66.7969 L42,66.7969 M29,85.7969 L16,100.7969 M29,85.7969 L42,100.7969 " fill="none" style="stroke:#181818;stroke-width:0.5;"/><text fill="#000000" font-family="sans-serif" font-size="14" lengthAdjust="spacing" textLength="42" x="5" y="716.7139">ユーザ</text><ellipse cx="29" cy="728.5156" fill="#E2E2F0" rx="8" ry="8" style="stroke:#181818;stroke-width:0.5;"/><path d="M29,736.5156 L29,763.5156 M16,744.5156 L42,744.5156 M29,763.5156 L16,778.5156 M29,763.5156 L42,778.5156 " fill="none" style="stroke:#181818;stroke-width:0.5;"/><rect fill="#E2E2F0" height="46.5938" rx="2.5" ry="2.5" style="stroke:#181818;stroke-width:0.5;" width="127" x="124.5" y="71"/><text fill="#000000" font-family="sans-serif" font-size="14" lengthAdjust="spacing" textLength="112" x="132" y="90.9951">クライアント端末</text><text fill="#000000" font-family="sans-serif" font-size="14" lengthAdjust="spacing" textLength="113" x="131.5" y="107.292">(PCまたはスマホ)</text><rect fill="#E2E2F0" height="46.5938" rx="2.5" ry="2.5" style="stroke:#181818;stroke-width:0.5;" width="127" x="124.5" y="703.7188"/><text fill="#000000" font-family="sans-serif" font-size="14" lengthAdjust="spacing" textLength="112" x="132" y="723.7139">クライアント端末</text><text fill="#000000" font-family="sans-serif" font-size="14" lengthAdjust="spacing" textLength="113" x="131.5" y="740.0107">(PCまたはスマホ)</text><rect fill="#E2E2F0" height="46.5938" rx="2.5" ry="2.5" style="stroke:#181818;stroke-width:0.5;" width="151" x="292.5" y="71"/><text fill="#000000" font-family="sans-serif" font-size="14" lengthAdjust="spacing" textLength="99" x="318.5" y="90.9951">SonicHost API</text><text fill="#000000" font-family="sans-serif" font-size="14" lengthAdjust="spacing" textLength="137" x="299.5" y="107.292">(CDN/API-Gateway)</text><rect fill="#E2E2F0" height="46.5938" rx="2.5" ry="2.5" style="stroke:#181818;stroke-width:0.5;" width="151" x="292.5" y="703.7188"/><text fill="#000000" font-family="sans-serif" font-size="14" lengthAdjust="spacing" textLength="99" x="318.5" y="723.7139">SonicHost API</text><text fill="#000000" font-family="sans-serif" font-size="14" lengthAdjust="spacing" textLength="137" x="299.5" y="740.0107">(CDN/API-Gateway)</text><rect fill="#E2E2F0" height="30.2969" rx="2.5" ry="2.5" style="stroke:#181818;stroke-width:0.5;" width="71" x="465.5" y="87.2969"/><text fill="#000000" font-family="sans-serif" font-size="14" lengthAdjust="spacing" textLength="57" x="472.5" y="107.292">dynamo</text><rect fill="#E2E2F0" height="30.2969" rx="2.5" ry="2.5" style="stroke:#181818;stroke-width:0.5;" width="71" x="465.5" y="703.7188"/><text fill="#000000" font-family="sans-serif" font-size="14" lengthAdjust="spacing" textLength="57" x="472.5" y="723.7139">dynamo</text><rect fill="#FFFFFF" height="545.9922" style="stroke:#181818;stroke-width:1.0;" width="10" x="183" y="149.7266"/><rect fill="#FFFFFF" height="57.1328" style="stroke:#181818;stroke-width:1.0;" width="10" x="363" y="283.2578"/><rect fill="#FFFFFF" height="14" style="stroke:#181818;stroke-width:1.0;" width="10" x="363" y="480.0547"/><rect fill="#FFFFFF" height="14" style="stroke:#181818;stroke-width:1.0;" width="10" x="363" y="630.5859"/><rect fill="#FFFFFF" height="14" style="stroke:#181818;stroke-width:1.0;" width="10" x="496" y="312.3906"/><polygon fill="#181818" points="171,145.7266,181,149.7266,171,153.7266,175,149.7266" style="stroke:#181818;stroke-width:1.0;"/><line style="stroke:#181818;stroke-width:1.0;" x1="29" x2="177" y1="149.7266" y2="149.7266"/><text fill="#000000" font-family="sans-serif" font-size="13" lengthAdjust="spacing" textLength="117" x="36" y="144.6606">コンテンツ画面表示</text><rect fill="#ADFF2F" height="23" style="stroke:#181818;stroke-width:0.5;" width="138" x="198" y="162.7266"/><text fill="#000000" font-family="sans-serif" font-size="13" lengthAdjust="spacing" textLength="130" x="202" y="178.7935">ログインフローを参照</text><polygon fill="#181818" points="171,207.9922,181,211.9922,171,215.9922,175,211.9922" style="stroke:#181818;stroke-width:1.0;"/><line style="stroke:#181818;stroke-width:1.0;" x1="29" x2="177" y1="211.9922" y2="211.9922"/><text fill="#000000" font-family="sans-serif" font-size="13" lengthAdjust="spacing" textLength="130" x="36" y="206.9263">お知らせアイコン押下</text><line style="stroke:#181818;stroke-width:1.0;" x1="193" x2="235" y1="241.125" y2="241.125"/><line style="stroke:#181818;stroke-width:1.0;" x1="235" x2="235" y1="241.125" y2="254.125"/><line style="stroke:#181818;stroke-width:1.0;" x1="194" x2="235" y1="254.125" y2="254.125"/><polygon fill="#181818" points="204,250.125,194,254.125,204,258.125,200,254.125" style="stroke:#181818;stroke-width:1.0;"/><text fill="#000000" font-family="sans-serif" font-size="13" lengthAdjust="spacing" textLength="104" x="200" y="236.0591">お知らせ一覧表示</text><polygon fill="#181818" points="351,279.2578,361,283.2578,351,287.2578,355,283.2578" style="stroke:#181818;stroke-width:1.0;"/><line style="stroke:#181818;stroke-width:1.0;" x1="193" x2="357" y1="283.2578" y2="283.2578"/><text fill="#000000" font-family="sans-serif" font-size="13" lengthAdjust="spacing" textLength="124" x="200" y="278.1919">お知らせ一覧取得API</text><polygon fill="#181818" points="484,308.3906,494,312.3906,484,316.3906,488,312.3906" style="stroke:#181818;stroke-width:1.0;"/><line style="stroke:#181818;stroke-width:1.0;" x1="373" x2="490" y1="312.3906" y2="312.3906"/><text fill="#000000" font-family="sans-serif" font-size="13" lengthAdjust="spacing" textLength="104" x="380" y="307.3247">お知らせ一覧取得</text><polygon fill="#181818" points="384,322.3906,374,326.3906,384,330.3906,380,326.3906" style="stroke:#181818;stroke-width:1.0;"/><line style="stroke:#181818;stroke-width:1.0;stroke-dasharray:2.0,2.0;" x1="378" x2="500" y1="326.3906" y2="326.3906"/><polygon fill="#181818" points="204,336.3906,194,340.3906,204,344.3906,200,340.3906" style="stroke:#181818;stroke-width:1.0;"/><line style="stroke:#181818;stroke-width:1.0;stroke-dasharray:2.0,2.0;" x1="198" x2="367" y1="340.3906" y2="340.3906"/><polygon fill="#181818" points="171,365.5234,181,369.5234,171,373.5234,175,369.5234" style="stroke:#181818;stroke-width:1.0;"/><line style="stroke:#181818;stroke-width:1.0;" x1="29" x2="177" y1="369.5234" y2="369.5234"/><text fill="#000000" font-family="sans-serif" font-size="13" lengthAdjust="spacing" textLength="78" x="36" y="364.4575">お知らせ押下</text><line style="stroke:#181818;stroke-width:1.0;" x1="193" x2="235" y1="413.7891" y2="413.7891"/><line style="stroke:#181818;stroke-width:1.0;" x1="235" x2="235" y1="413.7891" y2="426.7891"/><line style="stroke:#181818;stroke-width:1.0;" x1="194" x2="235" y1="426.7891" y2="426.7891"/><polygon fill="#181818" points="204,422.7891,194,426.7891,204,430.7891,200,426.7891" style="stroke:#181818;stroke-width:1.0;"/><text fill="#000000" font-family="sans-serif" font-size="13" lengthAdjust="spacing" textLength="104" x="200" y="393.5903">お知らせ内容表示</text><text fill="#000000" font-family="sans-serif" font-size="13" lengthAdjust="spacing" textLength="127" x="200" y="408.7231">(アコーディオン表示)</text><path d="M114.5,441.7891 L180.5,441.7891 L180.5,448.9219 L170.5,458.9219 L114.5,458.9219 L114.5,441.7891 " fill="#EEEEEE" style="stroke:#000000;stroke-width:1.5;"/><rect fill="none" height="60.2656" style="stroke:#000000;stroke-width:1.5;" width="339" x="114.5" y="441.7891"/><text fill="#000000" font-family="sans-serif" font-size="13" font-weight="bold" lengthAdjust="spacing" textLength="21" x="129.5" y="454.856">alt</text><text fill="#000000" font-family="sans-serif" font-size="11" font-weight="bold" lengthAdjust="spacing" textLength="164" x="195.5" y="453.9995">[ユーザが未読のお知らせの場合]</text><polygon fill="#181818" points="351,476.0547,361,480.0547,351,484.0547,355,480.0547" style="stroke:#181818;stroke-width:1.0;"/><line style="stroke:#181818;stroke-width:1.0;" x1="193" x2="357" y1="480.0547" y2="480.0547"/><text fill="#000000" font-family="sans-serif" font-size="13" lengthAdjust="spacing" textLength="98" x="200" y="474.9888">お知らせ既読API</text><polygon fill="#181818" points="204,490.0547,194,494.0547,204,498.0547,200,494.0547" style="stroke:#181818;stroke-width:1.0;"/><line style="stroke:#181818;stroke-width:1.0;stroke-dasharray:2.0,2.0;" x1="198" x2="367" y1="494.0547" y2="494.0547"/><polygon fill="#181818" points="171,526.1875,181,530.1875,171,534.1875,175,530.1875" style="stroke:#181818;stroke-width:1.0;"/><line style="stroke:#181818;stroke-width:1.0;" x1="29" x2="177" y1="530.1875" y2="530.1875"/><text fill="#000000" font-family="sans-serif" font-size="13" lengthAdjust="spacing" textLength="104" x="36" y="525.1216">お知らせ削除押下</text><line style="stroke:#181818;stroke-width:1.0;" x1="193" x2="235" y1="559.3203" y2="559.3203"/><line style="stroke:#181818;stroke-width:1.0;" x1="235" x2="235" y1="559.3203" y2="572.3203"/><line style="stroke:#181818;stroke-width:1.0;" x1="194" x2="235" y1="572.3203" y2="572.3203"/><polygon fill="#181818" points="204,568.3203,194,572.3203,204,576.3203,200,572.3203" style="stroke:#181818;stroke-width:1.0;"/><text fill="#000000" font-family="sans-serif" font-size="13" lengthAdjust="spacing" textLength="156" x="200" y="554.2544">お知らせ削除確認画面表示</text><polygon fill="#181818" points="171,597.4531,181,601.4531,171,605.4531,175,601.4531" style="stroke:#181818;stroke-width:1.0;"/><line style="stroke:#181818;stroke-width:1.0;" x1="29" x2="177" y1="601.4531" y2="601.4531"/><text fill="#000000" font-family="sans-serif" font-size="13" lengthAdjust="spacing" textLength="52" x="36" y="596.3872">削除押下</text><polygon fill="#181818" points="351,626.5859,361,630.5859,351,634.5859,355,630.5859" style="stroke:#181818;stroke-width:1.0;"/><line style="stroke:#181818;stroke-width:1.0;" x1="193" x2="357" y1="630.5859" y2="630.5859"/><text fill="#000000" font-family="sans-serif" font-size="13" lengthAdjust="spacing" textLength="98" x="200" y="625.52">お知らせ削除API</text><polygon fill="#181818" points="204,640.5859,194,644.5859,204,648.5859,200,644.5859" style="stroke:#181818;stroke-width:1.0;"/><line style="stroke:#181818;stroke-width:1.0;stroke-dasharray:2.0,2.0;" x1="198" x2="367" y1="644.5859" y2="644.5859"/><line style="stroke:#181818;stroke-width:1.0;" x1="193" x2="235" y1="673.7188" y2="673.7188"/><line style="stroke:#181818;stroke-width:1.0;" x1="235" x2="235" y1="673.7188" y2="686.7188"/><line style="stroke:#181818;stroke-width:1.0;" x1="194" x2="235" y1="686.7188" y2="686.7188"/><polygon fill="#181818" points="204,682.7188,194,686.7188,204,690.7188,200,686.7188" style="stroke:#181818;stroke-width:1.0;"/><text fill="#000000" font-family="sans-serif" font-size="13" lengthAdjust="spacing" textLength="130" x="200" y="668.6528">お知らせ一覧画面表示</text><!--SRC=[ZLDTInj157sVNp741mso-1v4A16iBoBu9FHbYDDs8Uw6pQZuvixKgB75KjfA_QXjZ5yHen0HFqByCTV99l_2cTb4ashIxCEoEtFkkUUSkSDibgGO_6omTm1y3VnjkPQj_yeZr8-1vu2V0xy7KPR5hQ1oWaY2kHwEW3XKQy2l8fYayLoQUYX5F6Odx1HncDfNPU84U5vJY1A8rU3qlBfp-iuPc8o3Nm5_3tp5V0FYDuZjgA6PeVDsWhOJJRcEdNZhfXb-CpckgkEZ4qFgoneZZ2wGnR2Gf6o4j0XiZJHOyE1WJEalcUOPy_uKVB-hx-PgVu-3_2to79THxDaVFZBilczMzOrvb3hJD9bq5n1M3uWpu1VQYARueN-rxszoWmVBHuWwCrWJ_TizrfQeoJ4Vggbcom_NwwY1wrJnSBrKEpngI7t6AgFAsAjOkV5JLZPLD4Y3DE-YGsRTxd237RQi9jYocitqeY6okblhpOxCBClYJMX77QB9ewI352l0zu4NL33XRXIH9CDFumN-v-fEeLOu0x_ObgXVb7ykvTTLSqZ_2QYwcLCCEfeMS8j1TOZTJOOteaUh1XlaRck5Bsq3zw931zPNBOHORU6b_9v6gLNA8m00]--></g></svg>