<?xml version="1.0" encoding="us-ascii" standalone="no"?><svg xmlns="http://www.w3.org/2000/svg" xmlns:xlink="http://www.w3.org/1999/xlink" contentStyleType="text/css" height="830px" preserveAspectRatio="none" style="width:559px;height:830px;background:#FFFFFF;" version="1.1" viewBox="0 0 559 830" width="559px" zoomAndPan="magnify"><defs/><g><text fill="#000000" font-family="sans-serif" font-size="14" font-weight="bold" lengthAdjust="spacing" textLength="90" x="233.75" y="27.9951">&#12362;&#30693;&#12425;&#12379;&#21066;&#38500;</text><rect fill="#FFFFFF" height="591.3906" style="stroke:#181818;stroke-width:1.0;" width="10" x="183" y="149.7266"/><rect fill="#FFFFFF" height="57.1328" style="stroke:#181818;stroke-width:1.0;" width="10" x="380" y="298.3906"/><rect fill="#FFFFFF" height="14" style="stroke:#181818;stroke-width:1.0;" width="10" x="380" y="510.3203"/><rect fill="#FFFFFF" height="14" style="stroke:#181818;stroke-width:1.0;" width="10" x="380" y="675.9844"/><rect fill="#FFFFFF" height="14" style="stroke:#181818;stroke-width:1.0;" width="10" x="513" y="327.5234"/><rect fill="none" height="75.3984" style="stroke:#000000;stroke-width:1.5;" width="356" x="114.5" y="456.9219"/><line style="stroke:#181818;stroke-width:0.5;stroke-dasharray:5.0,5.0;" x1="29" x2="29" y1="118.5938" y2="750.1172"/><line style="stroke:#181818;stroke-width:0.5;stroke-dasharray:5.0,5.0;" x1="187.5" x2="187.5" y1="118.5938" y2="750.1172"/><line style="stroke:#181818;stroke-width:0.5;stroke-dasharray:5.0,5.0;" x1="384.5" x2="384.5" y1="118.5938" y2="750.1172"/><line style="stroke:#181818;stroke-width:0.5;stroke-dasharray:5.0,5.0;" x1="517.5" x2="517.5" y1="118.5938" y2="750.1172"/><text fill="#000000" font-family="sans-serif" font-size="14" lengthAdjust="spacing" textLength="42" x="5" y="115.292">&#12518;&#12540;&#12470;</text><ellipse cx="29" cy="50.7969" fill="#E2E2F0" rx="8" ry="8" style="stroke:#181818;stroke-width:0.5;"/><path d="M29,58.7969 L29,85.7969 M16,66.7969 L42,66.7969 M29,85.7969 L16,100.7969 M29,85.7969 L42,100.7969 " fill="none" style="stroke:#181818;stroke-width:0.5;"/><text fill="#000000" font-family="sans-serif" font-size="14" lengthAdjust="spacing" textLength="42" x="5" y="762.1123">&#12518;&#12540;&#12470;</text><ellipse cx="29" cy="773.9141" fill="#E2E2F0" rx="8" ry="8" style="stroke:#181818;stroke-width:0.5;"/><path d="M29,781.9141 L29,808.9141 M16,789.9141 L42,789.9141 M29,808.9141 L16,823.9141 M29,808.9141 L42,823.9141 " fill="none" style="stroke:#181818;stroke-width:0.5;"/><rect fill="#E2E2F0" height="46.5938" rx="2.5" ry="2.5" style="stroke:#181818;stroke-width:0.5;" width="127" x="124.5" y="71"/><text fill="#000000" font-family="sans-serif" font-size="14" lengthAdjust="spacing" textLength="112" x="132" y="90.9951">&#12463;&#12521;&#12452;&#12450;&#12531;&#12488;&#31471;&#26411;</text><text fill="#000000" font-family="sans-serif" font-size="14" lengthAdjust="spacing" textLength="113" x="131.5" y="107.292">(PC&#12414;&#12383;&#12399;&#12473;&#12510;&#12507;)</text><rect fill="#E2E2F0" height="46.5938" rx="2.5" ry="2.5" style="stroke:#181818;stroke-width:0.5;" width="127" x="124.5" y="749.1172"/><text fill="#000000" font-family="sans-serif" font-size="14" lengthAdjust="spacing" textLength="112" x="132" y="769.1123">&#12463;&#12521;&#12452;&#12450;&#12531;&#12488;&#31471;&#26411;</text><text fill="#000000" font-family="sans-serif" font-size="14" lengthAdjust="spacing" textLength="113" x="131.5" y="785.4092">(PC&#12414;&#12383;&#12399;&#12473;&#12510;&#12507;)</text><rect fill="#E2E2F0" height="46.5938" rx="2.5" ry="2.5" style="stroke:#181818;stroke-width:0.5;" width="151" x="309.5" y="71"/><text fill="#000000" font-family="sans-serif" font-size="14" lengthAdjust="spacing" textLength="99" x="335.5" y="90.9951">SonicHost API</text><text fill="#000000" font-family="sans-serif" font-size="14" lengthAdjust="spacing" textLength="137" x="316.5" y="107.292">(CDN/API-Gateway)</text><rect fill="#E2E2F0" height="46.5938" rx="2.5" ry="2.5" style="stroke:#181818;stroke-width:0.5;" width="151" x="309.5" y="749.1172"/><text fill="#000000" font-family="sans-serif" font-size="14" lengthAdjust="spacing" textLength="99" x="335.5" y="769.1123">SonicHost API</text><text fill="#000000" font-family="sans-serif" font-size="14" lengthAdjust="spacing" textLength="137" x="316.5" y="785.4092">(CDN/API-Gateway)</text><rect fill="#E2E2F0" height="30.2969" rx="2.5" ry="2.5" style="stroke:#181818;stroke-width:0.5;" width="71" x="482.5" y="87.2969"/><text fill="#000000" font-family="sans-serif" font-size="14" lengthAdjust="spacing" textLength="57" x="489.5" y="107.292">dynamo</text><rect fill="#E2E2F0" height="30.2969" rx="2.5" ry="2.5" style="stroke:#181818;stroke-width:0.5;" width="71" x="482.5" y="749.1172"/><text fill="#000000" font-family="sans-serif" font-size="14" lengthAdjust="spacing" textLength="57" x="489.5" y="769.1123">dynamo</text><rect fill="#FFFFFF" height="591.3906" style="stroke:#181818;stroke-width:1.0;" width="10" x="183" y="149.7266"/><rect fill="#FFFFFF" height="57.1328" style="stroke:#181818;stroke-width:1.0;" width="10" x="380" y="298.3906"/><rect fill="#FFFFFF" height="14" style="stroke:#181818;stroke-width:1.0;" width="10" x="380" y="510.3203"/><rect fill="#FFFFFF" height="14" style="stroke:#181818;stroke-width:1.0;" width="10" x="380" y="675.9844"/><rect fill="#FFFFFF" height="14" style="stroke:#181818;stroke-width:1.0;" width="10" x="513" y="327.5234"/><polygon fill="#181818" points="171,145.7266,181,149.7266,171,153.7266,175,149.7266" style="stroke:#181818;stroke-width:1.0;"/><line style="stroke:#181818;stroke-width:1.0;" x1="29" x2="177" y1="149.7266" y2="149.7266"/><text fill="#000000" font-family="sans-serif" font-size="13" lengthAdjust="spacing" textLength="117" x="36" y="144.6606">&#12467;&#12531;&#12486;&#12531;&#12484;&#30011;&#38754;&#34920;&#31034;</text><rect fill="#ADFF2F" height="23" style="stroke:#181818;stroke-width:0.5;" width="138" x="198" y="162.7266"/><text fill="#000000" font-family="sans-serif" font-size="13" lengthAdjust="spacing" textLength="130" x="202" y="178.7935">&#12525;&#12464;&#12452;&#12531;&#12501;&#12525;&#12540;&#12434;&#21442;&#29031;</text><polygon fill="#181818" points="171,207.9922,181,211.9922,171,215.9922,175,211.9922" style="stroke:#181818;stroke-width:1.0;"/><line style="stroke:#181818;stroke-width:1.0;" x1="29" x2="177" y1="211.9922" y2="211.9922"/><text fill="#000000" font-family="sans-serif" font-size="13" lengthAdjust="spacing" textLength="130" x="36" y="206.9263">&#12362;&#30693;&#12425;&#12379;&#12450;&#12452;&#12467;&#12531;&#25276;&#19979;</text><line style="stroke:#181818;stroke-width:1.0;" x1="193" x2="235" y1="241.125" y2="241.125"/><line style="stroke:#181818;stroke-width:1.0;" x1="235" x2="235" y1="241.125" y2="254.125"/><line style="stroke:#181818;stroke-width:1.0;" x1="194" x2="235" y1="254.125" y2="254.125"/><polygon fill="#181818" points="204,250.125,194,254.125,204,258.125,200,254.125" style="stroke:#181818;stroke-width:1.0;"/><text fill="#000000" font-family="sans-serif" font-size="13" lengthAdjust="spacing" textLength="104" x="200" y="236.0591">&#12362;&#30693;&#12425;&#12379;&#19968;&#35239;&#34920;&#31034;</text><polygon fill="#181818" points="368,294.3906,378,298.3906,368,302.3906,372,298.3906" style="stroke:#181818;stroke-width:1.0;"/><line style="stroke:#181818;stroke-width:1.0;" x1="193" x2="374" y1="298.3906" y2="298.3906"/><text fill="#000000" font-family="sans-serif" font-size="13" lengthAdjust="spacing" textLength="150" x="200" y="278.1919">&#12362;&#30693;&#12425;&#12379;&#36890;&#30693;&#19968;&#35239;&#21462;&#24471;API</text><text fill="#000000" font-family="sans-serif" font-size="13" lengthAdjust="spacing" textLength="112" x="200" y="293.3247">/notifications GET</text><polygon fill="#181818" points="501,323.5234,511,327.5234,501,331.5234,505,327.5234" style="stroke:#181818;stroke-width:1.0;"/><line style="stroke:#181818;stroke-width:1.0;" x1="390" x2="507" y1="327.5234" y2="327.5234"/><text fill="#000000" font-family="sans-serif" font-size="13" lengthAdjust="spacing" textLength="104" x="397" y="322.4575">&#12362;&#30693;&#12425;&#12379;&#19968;&#35239;&#21462;&#24471;</text><polygon fill="#181818" points="401,337.5234,391,341.5234,401,345.5234,397,341.5234" style="stroke:#181818;stroke-width:1.0;"/><line style="stroke:#181818;stroke-width:1.0;stroke-dasharray:2.0,2.0;" x1="395" x2="517" y1="341.5234" y2="341.5234"/><polygon fill="#181818" points="204,351.5234,194,355.5234,204,359.5234,200,355.5234" style="stroke:#181818;stroke-width:1.0;"/><line style="stroke:#181818;stroke-width:1.0;stroke-dasharray:2.0,2.0;" x1="198" x2="384" y1="355.5234" y2="355.5234"/><polygon fill="#181818" points="171,380.6563,181,384.6563,171,388.6563,175,384.6563" style="stroke:#181818;stroke-width:1.0;"/><line style="stroke:#181818;stroke-width:1.0;" x1="29" x2="177" y1="384.6563" y2="384.6563"/><text fill="#000000" font-family="sans-serif" font-size="13" lengthAdjust="spacing" textLength="78" x="36" y="379.5903">&#12362;&#30693;&#12425;&#12379;&#25276;&#19979;</text><line style="stroke:#181818;stroke-width:1.0;" x1="193" x2="235" y1="428.9219" y2="428.9219"/><line style="stroke:#181818;stroke-width:1.0;" x1="235" x2="235" y1="428.9219" y2="441.9219"/><line style="stroke:#181818;stroke-width:1.0;" x1="194" x2="235" y1="441.9219" y2="441.9219"/><polygon fill="#181818" points="204,437.9219,194,441.9219,204,445.9219,200,441.9219" style="stroke:#181818;stroke-width:1.0;"/><text fill="#000000" font-family="sans-serif" font-size="13" lengthAdjust="spacing" textLength="104" x="200" y="408.7231">&#12362;&#30693;&#12425;&#12379;&#20869;&#23481;&#34920;&#31034;</text><text fill="#000000" font-family="sans-serif" font-size="13" lengthAdjust="spacing" textLength="127" x="200" y="423.856">(&#12450;&#12467;&#12540;&#12487;&#12451;&#12458;&#12531;&#34920;&#31034;)</text><path d="M114.5,456.9219 L180.5,456.9219 L180.5,464.0547 L170.5,474.0547 L114.5,474.0547 L114.5,456.9219 " fill="#EEEEEE" style="stroke:#000000;stroke-width:1.5;"/><rect fill="none" height="75.3984" style="stroke:#000000;stroke-width:1.5;" width="356" x="114.5" y="456.9219"/><text fill="#000000" font-family="sans-serif" font-size="13" font-weight="bold" lengthAdjust="spacing" textLength="21" x="129.5" y="469.9888">alt</text><text fill="#000000" font-family="sans-serif" font-size="11" font-weight="bold" lengthAdjust="spacing" textLength="164" x="195.5" y="469.1323">[&#12518;&#12540;&#12470;&#12364;&#26410;&#35501;&#12398;&#12362;&#30693;&#12425;&#12379;&#12398;&#22580;&#21512;]</text><polygon fill="#181818" points="368,506.3203,378,510.3203,368,514.3203,372,510.3203" style="stroke:#181818;stroke-width:1.0;"/><line style="stroke:#181818;stroke-width:1.0;" x1="193" x2="374" y1="510.3203" y2="510.3203"/><text fill="#000000" font-family="sans-serif" font-size="13" lengthAdjust="spacing" textLength="150" x="200" y="490.1216">&#12362;&#30693;&#12425;&#12379;&#36890;&#30693;&#35443;&#32048;&#26356;&#26032;API</text><text fill="#000000" font-family="sans-serif" font-size="13" lengthAdjust="spacing" textLength="140" x="200" y="505.2544">/notifications{id} PUT</text><polygon fill="#181818" points="204,520.3203,194,524.3203,204,528.3203,200,524.3203" style="stroke:#181818;stroke-width:1.0;"/><line style="stroke:#181818;stroke-width:1.0;stroke-dasharray:2.0,2.0;" x1="198" x2="384" y1="524.3203" y2="524.3203"/><polygon fill="#181818" points="171,556.4531,181,560.4531,171,564.4531,175,560.4531" style="stroke:#181818;stroke-width:1.0;"/><line style="stroke:#181818;stroke-width:1.0;" x1="29" x2="177" y1="560.4531" y2="560.4531"/><text fill="#000000" font-family="sans-serif" font-size="13" lengthAdjust="spacing" textLength="104" x="36" y="555.3872">&#12362;&#30693;&#12425;&#12379;&#21066;&#38500;&#25276;&#19979;</text><line style="stroke:#181818;stroke-width:1.0;" x1="193" x2="235" y1="589.5859" y2="589.5859"/><line style="stroke:#181818;stroke-width:1.0;" x1="235" x2="235" y1="589.5859" y2="602.5859"/><line style="stroke:#181818;stroke-width:1.0;" x1="194" x2="235" y1="602.5859" y2="602.5859"/><polygon fill="#181818" points="204,598.5859,194,602.5859,204,606.5859,200,602.5859" style="stroke:#181818;stroke-width:1.0;"/><text fill="#000000" font-family="sans-serif" font-size="13" lengthAdjust="spacing" textLength="156" x="200" y="584.52">&#12362;&#30693;&#12425;&#12379;&#21066;&#38500;&#30906;&#35469;&#30011;&#38754;&#34920;&#31034;</text><polygon fill="#181818" points="171,627.7188,181,631.7188,171,635.7188,175,631.7188" style="stroke:#181818;stroke-width:1.0;"/><line style="stroke:#181818;stroke-width:1.0;" x1="29" x2="177" y1="631.7188" y2="631.7188"/><text fill="#000000" font-family="sans-serif" font-size="13" lengthAdjust="spacing" textLength="52" x="36" y="626.6528">&#21066;&#38500;&#25276;&#19979;</text><polygon fill="#181818" points="368,671.9844,378,675.9844,368,679.9844,372,675.9844" style="stroke:#181818;stroke-width:1.0;"/><line style="stroke:#181818;stroke-width:1.0;" x1="193" x2="374" y1="675.9844" y2="675.9844"/><text fill="#000000" font-family="sans-serif" font-size="13" lengthAdjust="spacing" textLength="150" x="200" y="655.7856">&#12362;&#30693;&#12425;&#12379;&#36890;&#30693;&#35443;&#32048;&#21066;&#38500;API</text><text fill="#000000" font-family="sans-serif" font-size="13" lengthAdjust="spacing" textLength="168" x="200" y="670.9185">/notifications/{id} DELETE</text><polygon fill="#181818" points="204,685.9844,194,689.9844,204,693.9844,200,689.9844" style="stroke:#181818;stroke-width:1.0;"/><line style="stroke:#181818;stroke-width:1.0;stroke-dasharray:2.0,2.0;" x1="198" x2="384" y1="689.9844" y2="689.9844"/><line style="stroke:#181818;stroke-width:1.0;" x1="193" x2="235" y1="719.1172" y2="719.1172"/><line style="stroke:#181818;stroke-width:1.0;" x1="235" x2="235" y1="719.1172" y2="732.1172"/><line style="stroke:#181818;stroke-width:1.0;" x1="194" x2="235" y1="732.1172" y2="732.1172"/><polygon fill="#181818" points="204,728.1172,194,732.1172,204,736.1172,200,732.1172" style="stroke:#181818;stroke-width:1.0;"/><text fill="#000000" font-family="sans-serif" font-size="13" lengthAdjust="spacing" textLength="130" x="200" y="714.0513">&#12362;&#30693;&#12425;&#12379;&#19968;&#35239;&#30011;&#38754;&#34920;&#31034;</text><!--SRC=[ZLDTQnD157sVNp7K1orboNiHGTeG1P60yK7eox2Pre6u6pQZfOZGdRMrZKf5RCMcMesnDIbD0mdIrX9_pEr-v5yuCvjeqgPjzc6PdRddt7FEtEMCvoW6jnXk_m2n2cx9NorsFbKGkev1b44SWFW3tebVtmpRLKHCRZju3BmTkGVYrnWc1VoqG1sK9mvd9iiJYyjp2VEg82gAmck2jnBk7GHRUpFMZVGKk6rmjy6Lp4VWVG6lDAvfilGPC-aWqGFROkOTky3nxVHTYPwQlf-GAoD5E9qd2p6Gv1b2IWGsRdLPyCJ4fDJVrCsNzVjb-E5tvtCv-lOph1mZnx8vnGwRUyonFTj3NKivb5gFQ2vdpoCi7_3sGJIK4KMnhZwLx_V-cWYNTX6ribWHdUq-EP2eph4IgmcA9wU7hr6txYB4wU5YjBFRbVg_LXgLnixKTXOtvJf6-6iRVlkZ30ZFM0afZCqoat1cMmMSIcQGmgkM2nPvOfzdwkVGjJSDerTi63qTQbCJ6PUx7isflxparuzYf_9-TLHDbR7t2iHt43MPMNmwZaYEut-J1-wROAiMrVR1hG-4xTRzhot_tOg-lv6oYwhDiDK8IgrWep4ik-Si-mAd7sRw6VjIa4DmUHBn7pLY7hesB1z7jRS30tkkmmMiL_gCSSDy9hJHwUIzP2OvvBP7cjb-pNy1]--></g></svg>