<?xml version="1.0" encoding="UTF-8" standalone="no"?><svg xmlns="http://www.w3.org/2000/svg" xmlns:xlink="http://www.w3.org/1999/xlink" contentStyleType="text/css" height="684px" preserveAspectRatio="none" style="width:459px;height:684px;background:#FFFFFF;" version="1.1" viewBox="0 0 459 684" width="459px" zoomAndPan="magnify"><defs/><g><text fill="#000000" font-family="sans-serif" font-size="14" font-weight="bold" lengthAdjust="spacing" textLength="90" x="186.25" y="27.9951">お知らせ削除</text><rect fill="#FFFFFF" height="444.5938" style="stroke:#181818;stroke-width:1.0;" width="10" x="183" y="149.7266"/><rect fill="#FFFFFF" height="14" style="stroke:#181818;stroke-width:1.0;" width="10" x="363" y="378.6563"/><rect fill="#FFFFFF" height="14" style="stroke:#181818;stroke-width:1.0;" width="10" x="363" y="529.1875"/><rect fill="none" height="60.2656" style="stroke:#000000;stroke-width:1.5;" width="339" x="114.5" y="340.3906"/><line style="stroke:#181818;stroke-width:0.5;stroke-dasharray:5.0,5.0;" x1="29" x2="29" y1="118.5938" y2="603.3203"/><line style="stroke:#181818;stroke-width:0.5;stroke-dasharray:5.0,5.0;" x1="187.5" x2="187.5" y1="118.5938" y2="603.3203"/><line style="stroke:#181818;stroke-width:0.5;stroke-dasharray:5.0,5.0;" x1="367.5" x2="367.5" y1="118.5938" y2="603.3203"/><text fill="#000000" font-family="sans-serif" font-size="14" lengthAdjust="spacing" textLength="42" x="5" y="115.292">ユーザ</text><ellipse cx="29" cy="50.7969" fill="#E2E2F0" rx="8" ry="8" style="stroke:#181818;stroke-width:0.5;"/><path d="M29,58.7969 L29,85.7969 M16,66.7969 L42,66.7969 M29,85.7969 L16,100.7969 M29,85.7969 L42,100.7969 " fill="none" style="stroke:#181818;stroke-width:0.5;"/><text fill="#000000" font-family="sans-serif" font-size="14" lengthAdjust="spacing" textLength="42" x="5" y="615.3154">ユーザ</text><ellipse cx="29" cy="627.1172" fill="#E2E2F0" rx="8" ry="8" style="stroke:#181818;stroke-width:0.5;"/><path d="M29,635.1172 L29,662.1172 M16,643.1172 L42,643.1172 M29,662.1172 L16,677.1172 M29,662.1172 L42,677.1172 " fill="none" style="stroke:#181818;stroke-width:0.5;"/><rect fill="#E2E2F0" height="46.5938" rx="2.5" ry="2.5" style="stroke:#181818;stroke-width:0.5;" width="127" x="124.5" y="71"/><text fill="#000000" font-family="sans-serif" font-size="14" lengthAdjust="spacing" textLength="112" x="132" y="90.9951">クライアント端末</text><text fill="#000000" font-family="sans-serif" font-size="14" lengthAdjust="spacing" textLength="113" x="131.5" y="107.292">(PCまたはスマホ)</text><rect fill="#E2E2F0" height="46.5938" rx="2.5" ry="2.5" style="stroke:#181818;stroke-width:0.5;" width="127" x="124.5" y="602.3203"/><text fill="#000000" font-family="sans-serif" font-size="14" lengthAdjust="spacing" textLength="112" x="132" y="622.3154">クライアント端末</text><text fill="#000000" font-family="sans-serif" font-size="14" lengthAdjust="spacing" textLength="113" x="131.5" y="638.6123">(PCまたはスマホ)</text><rect fill="#E2E2F0" height="46.5938" rx="2.5" ry="2.5" style="stroke:#181818;stroke-width:0.5;" width="151" x="292.5" y="71"/><text fill="#000000" font-family="sans-serif" font-size="14" lengthAdjust="spacing" textLength="99" x="318.5" y="90.9951">SonicHost API</text><text fill="#000000" font-family="sans-serif" font-size="14" lengthAdjust="spacing" textLength="137" x="299.5" y="107.292">(CDN/API-Gateway)</text><rect fill="#E2E2F0" height="46.5938" rx="2.5" ry="2.5" style="stroke:#181818;stroke-width:0.5;" width="151" x="292.5" y="602.3203"/><text fill="#000000" font-family="sans-serif" font-size="14" lengthAdjust="spacing" textLength="99" x="318.5" y="622.3154">SonicHost API</text><text fill="#000000" font-family="sans-serif" font-size="14" lengthAdjust="spacing" textLength="137" x="299.5" y="638.6123">(CDN/API-Gateway)</text><rect fill="#FFFFFF" height="444.5938" style="stroke:#181818;stroke-width:1.0;" width="10" x="183" y="149.7266"/><rect fill="#FFFFFF" height="14" style="stroke:#181818;stroke-width:1.0;" width="10" x="363" y="378.6563"/><rect fill="#FFFFFF" height="14" style="stroke:#181818;stroke-width:1.0;" width="10" x="363" y="529.1875"/><polygon fill="#181818" points="171,145.7266,181,149.7266,171,153.7266,175,149.7266" style="stroke:#181818;stroke-width:1.0;"/><line style="stroke:#181818;stroke-width:1.0;" x1="29" x2="177" y1="149.7266" y2="149.7266"/><text fill="#000000" font-family="sans-serif" font-size="13" lengthAdjust="spacing" textLength="89" x="36" y="144.6606">HOME画面表示</text><rect fill="#ADFF2F" height="23" style="stroke:#181818;stroke-width:0.5;" width="138" x="198" y="162.7266"/><text fill="#000000" font-family="sans-serif" font-size="13" lengthAdjust="spacing" textLength="130" x="202" y="178.7935">ログインフローを参照</text><polygon fill="#181818" points="171,207.9922,181,211.9922,171,215.9922,175,211.9922" style="stroke:#181818;stroke-width:1.0;"/><line style="stroke:#181818;stroke-width:1.0;" x1="29" x2="177" y1="211.9922" y2="211.9922"/><text fill="#000000" font-family="sans-serif" font-size="13" lengthAdjust="spacing" textLength="130" x="36" y="206.9263">お知らせアイコン押下</text><line style="stroke:#181818;stroke-width:1.0;" x1="193" x2="235" y1="241.125" y2="241.125"/><line style="stroke:#181818;stroke-width:1.0;" x1="235" x2="235" y1="241.125" y2="254.125"/><line style="stroke:#181818;stroke-width:1.0;" x1="194" x2="235" y1="254.125" y2="254.125"/><polygon fill="#181818" points="204,250.125,194,254.125,204,258.125,200,254.125" style="stroke:#181818;stroke-width:1.0;"/><text fill="#000000" font-family="sans-serif" font-size="13" lengthAdjust="spacing" textLength="104" x="200" y="236.0591">お知らせ一覧表示</text><polygon fill="#181818" points="171,279.2578,181,283.2578,171,287.2578,175,283.2578" style="stroke:#181818;stroke-width:1.0;"/><line style="stroke:#181818;stroke-width:1.0;" x1="29" x2="177" y1="283.2578" y2="283.2578"/><text fill="#000000" font-family="sans-serif" font-size="13" lengthAdjust="spacing" textLength="78" x="36" y="278.1919">お知らせ押下</text><line style="stroke:#181818;stroke-width:1.0;" x1="193" x2="235" y1="312.3906" y2="312.3906"/><line style="stroke:#181818;stroke-width:1.0;" x1="235" x2="235" y1="312.3906" y2="325.3906"/><line style="stroke:#181818;stroke-width:1.0;" x1="194" x2="235" y1="325.3906" y2="325.3906"/><polygon fill="#181818" points="204,321.3906,194,325.3906,204,329.3906,200,325.3906" style="stroke:#181818;stroke-width:1.0;"/><text fill="#000000" font-family="sans-serif" font-size="13" lengthAdjust="spacing" textLength="104" x="200" y="307.3247">お知らせ内容表示</text><path d="M114.5,340.3906 L180.5,340.3906 L180.5,347.5234 L170.5,357.5234 L114.5,357.5234 L114.5,340.3906 " fill="#EEEEEE" style="stroke:#000000;stroke-width:1.5;"/><rect fill="none" height="60.2656" style="stroke:#000000;stroke-width:1.5;" width="339" x="114.5" y="340.3906"/><text fill="#000000" font-family="sans-serif" font-size="13" font-weight="bold" lengthAdjust="spacing" textLength="21" x="129.5" y="353.4575">alt</text><text fill="#000000" font-family="sans-serif" font-size="11" font-weight="bold" lengthAdjust="spacing" textLength="164" x="195.5" y="352.6011">[ユーザが未読のお知らせの場合]</text><polygon fill="#181818" points="351,374.6563,361,378.6563,351,382.6563,355,378.6563" style="stroke:#181818;stroke-width:1.0;"/><line style="stroke:#181818;stroke-width:1.0;" x1="193" x2="357" y1="378.6563" y2="378.6563"/><text fill="#000000" font-family="sans-serif" font-size="13" lengthAdjust="spacing" textLength="98" x="200" y="373.5903">お知らせ既読API</text><polygon fill="#181818" points="204,388.6563,194,392.6563,204,396.6563,200,392.6563" style="stroke:#181818;stroke-width:1.0;"/><line style="stroke:#181818;stroke-width:1.0;" x1="198" x2="367" y1="392.6563" y2="392.6563"/><polygon fill="#181818" points="171,424.7891,181,428.7891,171,432.7891,175,428.7891" style="stroke:#181818;stroke-width:1.0;"/><line style="stroke:#181818;stroke-width:1.0;" x1="29" x2="177" y1="428.7891" y2="428.7891"/><text fill="#000000" font-family="sans-serif" font-size="13" lengthAdjust="spacing" textLength="104" x="36" y="423.7231">お知らせ削除押下</text><line style="stroke:#181818;stroke-width:1.0;" x1="193" x2="235" y1="457.9219" y2="457.9219"/><line style="stroke:#181818;stroke-width:1.0;" x1="235" x2="235" y1="457.9219" y2="470.9219"/><line style="stroke:#181818;stroke-width:1.0;" x1="194" x2="235" y1="470.9219" y2="470.9219"/><polygon fill="#181818" points="204,466.9219,194,470.9219,204,474.9219,200,470.9219" style="stroke:#181818;stroke-width:1.0;"/><text fill="#000000" font-family="sans-serif" font-size="13" lengthAdjust="spacing" textLength="156" x="200" y="452.856">お知らせ削除確認画面表示</text><polygon fill="#181818" points="171,496.0547,181,500.0547,171,504.0547,175,500.0547" style="stroke:#181818;stroke-width:1.0;"/><line style="stroke:#181818;stroke-width:1.0;" x1="29" x2="177" y1="500.0547" y2="500.0547"/><text fill="#000000" font-family="sans-serif" font-size="13" lengthAdjust="spacing" textLength="52" x="36" y="494.9888">削除押下</text><polygon fill="#181818" points="351,525.1875,361,529.1875,351,533.1875,355,529.1875" style="stroke:#181818;stroke-width:1.0;"/><line style="stroke:#181818;stroke-width:1.0;" x1="193" x2="357" y1="529.1875" y2="529.1875"/><text fill="#000000" font-family="sans-serif" font-size="13" lengthAdjust="spacing" textLength="98" x="200" y="524.1216">お知らせ削除API</text><polygon fill="#181818" points="204,539.1875,194,543.1875,204,547.1875,200,543.1875" style="stroke:#181818;stroke-width:1.0;"/><line style="stroke:#181818;stroke-width:1.0;" x1="198" x2="367" y1="543.1875" y2="543.1875"/><line style="stroke:#181818;stroke-width:1.0;" x1="193" x2="235" y1="572.3203" y2="572.3203"/><line style="stroke:#181818;stroke-width:1.0;" x1="235" x2="235" y1="572.3203" y2="585.3203"/><line style="stroke:#181818;stroke-width:1.0;" x1="194" x2="235" y1="585.3203" y2="585.3203"/><polygon fill="#181818" points="204,581.3203,194,585.3203,204,589.3203,200,585.3203" style="stroke:#181818;stroke-width:1.0;"/><text fill="#000000" font-family="sans-serif" font-size="13" lengthAdjust="spacing" textLength="130" x="200" y="567.2544">お知らせ一覧画面表示</text><!--MD5=[d05a792ebc9dbb4f74070390dc9478b9]
@startuml
title お知らせ削除

' アクター定義
actor "ユーザ" as user
participant "クライアント端末\n(PCまたはスマホ)" as device
participant "SonicHost API\n(CDN/API-Gateway)" as api

user -> device ++: HOME画面表示
rnote right of device #GreenYellow
    ログインフローを参照
end note
user -> device : お知らせアイコン押下
device -> device : お知らせ一覧表示
user -> device : お知らせ押下
device -> device : お知らせ内容表示
alt ユーザが未読のお知らせの場合
    device -> api ++ : お知らせ既読API
    device <- api - -
end
user -> device : お知らせ削除押下
device -> device : お知らせ削除確認画面表示
user -> device : 削除押下
device -> api ++ : お知らせ削除API
device <- api - -
device -> device : お知らせ一覧画面表示
@enduml

@startuml
title お知らせ削除

actor "ユーザ" as user
participant "クライアント端末\n(PCまたはスマホ)" as device
participant "SonicHost API\n(CDN/API-Gateway)" as api

user -> device ++: HOME画面表示
rnote right of device #GreenYellow
    ログインフローを参照
end note
user -> device : お知らせアイコン押下
device -> device : お知らせ一覧表示
user -> device : お知らせ押下
device -> device : お知らせ内容表示
alt ユーザが未読のお知らせの場合
    device -> api ++ : お知らせ既読API
    device <- api - -
end
user -> device : お知らせ削除押下
device -> device : お知らせ削除確認画面表示
user -> device : 削除押下
device -> api ++ : お知らせ削除API
device <- api - -
device -> device : お知らせ一覧画面表示
@enduml

PlantUML version 1.2022.14beta4(Unknown compile time)
(GPL source distribution)
Java Runtime: Java(TM) SE Runtime Environment
JVM: Java HotSpot(TM) 64-Bit Server VM
Default Encoding: UTF-8
Language: en
Country: US
--></g></svg>