<?xml version="1.0" encoding="UTF-8" standalone="no"?><svg xmlns="http://www.w3.org/2000/svg" xmlns:xlink="http://www.w3.org/1999/xlink" contentStyleType="text/css" height="956px" preserveAspectRatio="none" style="width:734px;height:956px;background:#FFFFFF;" version="1.1" viewBox="0 0 734 956" width="734px" zoomAndPan="magnify"><defs/><g><text fill="#000000" font-family="sans-serif" font-size="14" font-weight="bold" lengthAdjust="spacing" textLength="32" x="352.75" y="27.9951">FAQ</text><rect fill="#FFFFFF" height="372.4609" style="stroke:#181818;stroke-width:1.0;" width="10" x="170" y="494.0547"/><rect fill="#FFFFFF" height="57.1328" style="stroke:#181818;stroke-width:1.0;" width="10" x="337" y="713.9844"/><rect fill="#FFFFFF" height="14" style="stroke:#181818;stroke-width:1.0;" width="10" x="464" y="408.7891"/><rect fill="#FFFFFF" height="14" style="stroke:#181818;stroke-width:1.0;" width="10" x="464" y="743.1172"/><rect fill="#FFFFFF" height="716.7891" style="stroke:#181818;stroke-width:1.0;" width="10" x="550.5" y="149.7266"/><line style="stroke:#181818;stroke-width:0.5;stroke-dasharray:5.0,5.0;" x1="29" x2="29" y1="118.5938" y2="875.5156"/><line style="stroke:#181818;stroke-width:0.5;stroke-dasharray:5.0,5.0;" x1="174.5" x2="174.5" y1="118.5938" y2="875.5156"/><line style="stroke:#181818;stroke-width:0.5;stroke-dasharray:5.0,5.0;" x1="341.5" x2="341.5" y1="118.5938" y2="875.5156"/><line style="stroke:#181818;stroke-width:0.5;stroke-dasharray:5.0,5.0;" x1="468.5" x2="468.5" y1="118.5938" y2="875.5156"/><line style="stroke:#181818;stroke-width:0.5;stroke-dasharray:5.0,5.0;" x1="555.5" x2="555.5" y1="118.5938" y2="875.5156"/><line style="stroke:#181818;stroke-width:0.5;stroke-dasharray:5.0,5.0;" x1="709.5" x2="709.5" y1="118.5938" y2="875.5156"/><text fill="#000000" font-family="sans-serif" font-size="14" lengthAdjust="spacing" textLength="42" x="5" y="115.292">ユーザ</text><ellipse cx="29" cy="50.7969" fill="#E2E2F0" rx="8" ry="8" style="stroke:#181818;stroke-width:0.5;"/><path d="M29,58.7969 L29,85.7969 M16,66.7969 L42,66.7969 M29,85.7969 L16,100.7969 M29,85.7969 L42,100.7969 " fill="none" style="stroke:#181818;stroke-width:0.5;"/><text fill="#000000" font-family="sans-serif" font-size="14" lengthAdjust="spacing" textLength="42" x="5" y="887.5107">ユーザ</text><ellipse cx="29" cy="899.3125" fill="#E2E2F0" rx="8" ry="8" style="stroke:#181818;stroke-width:0.5;"/><path d="M29,907.3125 L29,934.3125 M16,915.3125 L42,915.3125 M29,934.3125 L16,949.3125 M29,934.3125 L42,949.3125 " fill="none" style="stroke:#181818;stroke-width:0.5;"/><rect fill="#E2E2F0" height="46.5938" rx="2.5" ry="2.5" style="stroke:#181818;stroke-width:0.5;" width="127" x="111.5" y="71"/><text fill="#000000" font-family="sans-serif" font-size="14" lengthAdjust="spacing" textLength="112" x="119" y="90.9951">クライアント端末</text><text fill="#000000" font-family="sans-serif" font-size="14" lengthAdjust="spacing" textLength="113" x="118.5" y="107.292">(PCまたはスマホ)</text><rect fill="#E2E2F0" height="46.5938" rx="2.5" ry="2.5" style="stroke:#181818;stroke-width:0.5;" width="127" x="111.5" y="874.5156"/><text fill="#000000" font-family="sans-serif" font-size="14" lengthAdjust="spacing" textLength="112" x="119" y="894.5107">クライアント端末</text><text fill="#000000" font-family="sans-serif" font-size="14" lengthAdjust="spacing" textLength="113" x="118.5" y="910.8076">(PCまたはスマホ)</text><rect fill="#E2E2F0" height="46.5938" rx="2.5" ry="2.5" style="stroke:#181818;stroke-width:0.5;" width="151" x="266.5" y="71"/><text fill="#000000" font-family="sans-serif" font-size="14" lengthAdjust="spacing" textLength="99" x="292.5" y="90.9951">SonicHost API</text><text fill="#000000" font-family="sans-serif" font-size="14" lengthAdjust="spacing" textLength="137" x="273.5" y="107.292">(CDN/API-Gateway)</text><rect fill="#E2E2F0" height="46.5938" rx="2.5" ry="2.5" style="stroke:#181818;stroke-width:0.5;" width="151" x="266.5" y="874.5156"/><text fill="#000000" font-family="sans-serif" font-size="14" lengthAdjust="spacing" textLength="99" x="292.5" y="894.5107">SonicHost API</text><text fill="#000000" font-family="sans-serif" font-size="14" lengthAdjust="spacing" textLength="137" x="273.5" y="910.8076">(CDN/API-Gateway)</text><rect fill="#E2E2F0" height="46.5938" rx="2.5" ry="2.5" style="stroke:#181818;stroke-width:0.5;" width="83" x="427.5" y="71"/><text fill="#000000" font-family="sans-serif" font-size="14" lengthAdjust="spacing" textLength="57" x="440.5" y="90.9951">FAQ管理</text><text fill="#000000" font-family="sans-serif" font-size="14" lengthAdjust="spacing" textLength="69" x="434.5" y="107.292">(Dynamo)</text><rect fill="#E2E2F0" height="46.5938" rx="2.5" ry="2.5" style="stroke:#181818;stroke-width:0.5;" width="83" x="427.5" y="874.5156"/><text fill="#000000" font-family="sans-serif" font-size="14" lengthAdjust="spacing" textLength="57" x="440.5" y="894.5107">FAQ管理</text><text fill="#000000" font-family="sans-serif" font-size="14" lengthAdjust="spacing" textLength="69" x="434.5" y="910.8076">(Dynamo)</text><rect fill="#E2E2F0" height="30.2969" rx="2.5" ry="2.5" style="stroke:#181818;stroke-width:0.5;" width="70" x="520.5" y="87.2969"/><text fill="#000000" font-family="sans-serif" font-size="14" lengthAdjust="spacing" textLength="56" x="527.5" y="107.292">管理画面</text><rect fill="#E2E2F0" height="30.2969" rx="2.5" ry="2.5" style="stroke:#181818;stroke-width:0.5;" width="70" x="520.5" y="874.5156"/><text fill="#000000" font-family="sans-serif" font-size="14" lengthAdjust="spacing" textLength="56" x="527.5" y="894.5107">管理画面</text><text fill="#000000" font-family="sans-serif" font-size="14" lengthAdjust="spacing" textLength="42" x="685.5" y="115.292">管理者</text><ellipse cx="709.5" cy="50.7969" fill="#E2E2F0" rx="8" ry="8" style="stroke:#181818;stroke-width:0.5;"/><path d="M709.5,58.7969 L709.5,85.7969 M696.5,66.7969 L722.5,66.7969 M709.5,85.7969 L696.5,100.7969 M709.5,85.7969 L722.5,100.7969 " fill="none" style="stroke:#181818;stroke-width:0.5;"/><text fill="#000000" font-family="sans-serif" font-size="14" lengthAdjust="spacing" textLength="42" x="685.5" y="887.5107">管理者</text><ellipse cx="709.5" cy="899.3125" fill="#E2E2F0" rx="8" ry="8" style="stroke:#181818;stroke-width:0.5;"/><path d="M709.5,907.3125 L709.5,934.3125 M696.5,915.3125 L722.5,915.3125 M709.5,934.3125 L696.5,949.3125 M709.5,934.3125 L722.5,949.3125 " fill="none" style="stroke:#181818;stroke-width:0.5;"/><rect fill="#FFFFFF" height="372.4609" style="stroke:#181818;stroke-width:1.0;" width="10" x="170" y="494.0547"/><rect fill="#FFFFFF" height="57.1328" style="stroke:#181818;stroke-width:1.0;" width="10" x="337" y="713.9844"/><rect fill="#FFFFFF" height="14" style="stroke:#181818;stroke-width:1.0;" width="10" x="464" y="408.7891"/><rect fill="#FFFFFF" height="14" style="stroke:#181818;stroke-width:1.0;" width="10" x="464" y="743.1172"/><rect fill="#FFFFFF" height="716.7891" style="stroke:#181818;stroke-width:1.0;" width="10" x="550.5" y="149.7266"/><polygon fill="#181818" points="571.5,145.7266,561.5,149.7266,571.5,153.7266,567.5,149.7266" style="stroke:#181818;stroke-width:1.0;"/><line style="stroke:#181818;stroke-width:1.0;" x1="565.5" x2="708.5" y1="149.7266" y2="149.7266"/><text fill="#000000" font-family="sans-serif" font-size="13" lengthAdjust="spacing" textLength="78" x="577.5" y="144.6606">管理画面起動</text><polygon fill="#181818" points="571.5,174.8594,561.5,178.8594,571.5,182.8594,567.5,178.8594" style="stroke:#181818;stroke-width:1.0;"/><line style="stroke:#181818;stroke-width:1.0;" x1="565.5" x2="708.5" y1="178.8594" y2="178.8594"/><text fill="#000000" font-family="sans-serif" font-size="13" lengthAdjust="spacing" textLength="117" x="577.5" y="173.7935">ログイン＆FAQ表示</text><polygon fill="#181818" points="571.5,203.9922,561.5,207.9922,571.5,211.9922,567.5,207.9922" style="stroke:#181818;stroke-width:1.0;"/><line style="stroke:#181818;stroke-width:1.0;" x1="565.5" x2="708.5" y1="207.9922" y2="207.9922"/><text fill="#000000" font-family="sans-serif" font-size="13" lengthAdjust="spacing" textLength="104" x="577.5" y="202.9263">新規FAQ追加押下</text><line style="stroke:#181818;stroke-width:1.0;" x1="560.5" x2="602.5" y1="237.125" y2="237.125"/><line style="stroke:#181818;stroke-width:1.0;" x1="602.5" x2="602.5" y1="237.125" y2="250.125"/><line style="stroke:#181818;stroke-width:1.0;" x1="561.5" x2="602.5" y1="250.125" y2="250.125"/><polygon fill="#181818" points="571.5,246.125,561.5,250.125,571.5,254.125,567.5,250.125" style="stroke:#181818;stroke-width:1.0;"/><text fill="#000000" font-family="sans-serif" font-size="13" lengthAdjust="spacing" textLength="104" x="567.5" y="232.0591">FAQ追加画面表示</text><polygon fill="#181818" points="571.5,275.2578,561.5,279.2578,571.5,283.2578,567.5,279.2578" style="stroke:#181818;stroke-width:1.0;"/><line style="stroke:#181818;stroke-width:1.0;" x1="565.5" x2="708.5" y1="279.2578" y2="279.2578"/><text fill="#000000" font-family="sans-serif" font-size="13" lengthAdjust="spacing" textLength="78" x="577.5" y="274.1919">FAQ情報入力</text><polygon fill="#181818" points="571.5,304.3906,561.5,308.3906,571.5,312.3906,567.5,308.3906" style="stroke:#181818;stroke-width:1.0;"/><line style="stroke:#181818;stroke-width:1.0;" x1="565.5" x2="708.5" y1="308.3906" y2="308.3906"/><text fill="#000000" font-family="sans-serif" font-size="13" lengthAdjust="spacing" textLength="91" x="577.5" y="303.3247">確認ボタン押下</text><line style="stroke:#181818;stroke-width:1.0;" x1="560.5" x2="602.5" y1="337.5234" y2="337.5234"/><line style="stroke:#181818;stroke-width:1.0;" x1="602.5" x2="602.5" y1="337.5234" y2="350.5234"/><line style="stroke:#181818;stroke-width:1.0;" x1="561.5" x2="602.5" y1="350.5234" y2="350.5234"/><polygon fill="#181818" points="571.5,346.5234,561.5,350.5234,571.5,354.5234,567.5,350.5234" style="stroke:#181818;stroke-width:1.0;"/><text fill="#000000" font-family="sans-serif" font-size="13" lengthAdjust="spacing" textLength="104" x="567.5" y="332.4575">FAQ確認画面表示</text><polygon fill="#181818" points="571.5,375.6563,561.5,379.6563,571.5,383.6563,567.5,379.6563" style="stroke:#181818;stroke-width:1.0;"/><line style="stroke:#181818;stroke-width:1.0;" x1="565.5" x2="708.5" y1="379.6563" y2="379.6563"/><text fill="#000000" font-family="sans-serif" font-size="13" lengthAdjust="spacing" textLength="104" x="577.5" y="374.5903">確定ボタンを押下</text><polygon fill="#181818" points="485,404.7891,475,408.7891,485,412.7891,481,408.7891" style="stroke:#181818;stroke-width:1.0;"/><line style="stroke:#181818;stroke-width:1.0;" x1="479" x2="549.5" y1="408.7891" y2="408.7891"/><text fill="#000000" font-family="sans-serif" font-size="13" lengthAdjust="spacing" textLength="52" x="491" y="403.7231">FAQ追加</text><polygon fill="#181818" points="538.5,418.7891,548.5,422.7891,538.5,426.7891,542.5,422.7891" style="stroke:#181818;stroke-width:1.0;"/><line style="stroke:#181818;stroke-width:1.0;stroke-dasharray:2.0,2.0;" x1="469" x2="544.5" y1="422.7891" y2="422.7891"/><line style="stroke:#181818;stroke-width:1.0;" x1="560.5" x2="602.5" y1="451.9219" y2="451.9219"/><line style="stroke:#181818;stroke-width:1.0;" x1="602.5" x2="602.5" y1="451.9219" y2="464.9219"/><line style="stroke:#181818;stroke-width:1.0;" x1="561.5" x2="602.5" y1="464.9219" y2="464.9219"/><polygon fill="#181818" points="571.5,460.9219,561.5,464.9219,571.5,468.9219,567.5,464.9219" style="stroke:#181818;stroke-width:1.0;"/><text fill="#000000" font-family="sans-serif" font-size="13" lengthAdjust="spacing" textLength="130" x="567.5" y="446.856">FAQ追加完了画面表示</text><polygon fill="#181818" points="158,490.0547,168,494.0547,158,498.0547,162,494.0547" style="stroke:#181818;stroke-width:1.0;"/><line style="stroke:#181818;stroke-width:1.0;" x1="29" x2="164" y1="494.0547" y2="494.0547"/><text fill="#000000" font-family="sans-serif" font-size="13" lengthAdjust="spacing" textLength="117" x="36" y="488.9888">コンテンツ画面表示</text><rect fill="#ADFF2F" height="23" style="stroke:#181818;stroke-width:0.5;" width="138" x="185" y="507.0547"/><text fill="#000000" font-family="sans-serif" font-size="13" lengthAdjust="spacing" textLength="130" x="189" y="523.1216">ログインフローを参照</text><polygon fill="#181818" points="158,567.4531,168,571.4531,158,575.4531,162,571.4531" style="stroke:#181818;stroke-width:1.0;"/><line style="stroke:#181818;stroke-width:1.0;" x1="29" x2="164" y1="571.4531" y2="571.4531"/><text fill="#000000" font-family="sans-serif" font-size="13" lengthAdjust="spacing" textLength="117" x="36" y="551.2544">設定・その他を選択</text><text fill="#000000" font-family="sans-serif" font-size="13" lengthAdjust="spacing" textLength="117" x="36" y="566.3872">サイドメニューより</text><line style="stroke:#181818;stroke-width:1.0;" x1="180" x2="222" y1="600.5859" y2="600.5859"/><line style="stroke:#181818;stroke-width:1.0;" x1="222" x2="222" y1="600.5859" y2="613.5859"/><line style="stroke:#181818;stroke-width:1.0;" x1="181" x2="222" y1="613.5859" y2="613.5859"/><polygon fill="#181818" points="191,609.5859,181,613.5859,191,617.5859,187,613.5859" style="stroke:#181818;stroke-width:1.0;"/><text fill="#000000" font-family="sans-serif" font-size="13" lengthAdjust="spacing" textLength="143" x="187" y="595.52">設定・その他画面を表示</text><polygon fill="#181818" points="158,638.7188,168,642.7188,158,646.7188,162,642.7188" style="stroke:#181818;stroke-width:1.0;"/><line style="stroke:#181818;stroke-width:1.0;" x1="29" x2="164" y1="642.7188" y2="642.7188"/><text fill="#000000" font-family="sans-serif" font-size="13" lengthAdjust="spacing" textLength="65" x="36" y="637.6528">FAQを選択</text><line style="stroke:#181818;stroke-width:1.0;" x1="180" x2="222" y1="671.8516" y2="671.8516"/><line style="stroke:#181818;stroke-width:1.0;" x1="222" x2="222" y1="671.8516" y2="684.8516"/><line style="stroke:#181818;stroke-width:1.0;" x1="181" x2="222" y1="684.8516" y2="684.8516"/><polygon fill="#181818" points="191,680.8516,181,684.8516,191,688.8516,187,684.8516" style="stroke:#181818;stroke-width:1.0;"/><text fill="#000000" font-family="sans-serif" font-size="13" lengthAdjust="spacing" textLength="91" x="187" y="666.7856">FAQ画面を表示</text><polygon fill="#181818" points="325,709.9844,335,713.9844,325,717.9844,329,713.9844" style="stroke:#181818;stroke-width:1.0;"/><line style="stroke:#181818;stroke-width:1.0;" x1="180" x2="331" y1="713.9844" y2="713.9844"/><text fill="#000000" font-family="sans-serif" font-size="13" lengthAdjust="spacing" textLength="124" x="187" y="708.9185">FAQ一覧取得API打鍵</text><polygon fill="#181818" points="452,739.1172,462,743.1172,452,747.1172,456,743.1172" style="stroke:#181818;stroke-width:1.0;"/><line style="stroke:#181818;stroke-width:1.0;" x1="347" x2="458" y1="743.1172" y2="743.1172"/><text fill="#000000" font-family="sans-serif" font-size="13" lengthAdjust="spacing" textLength="78" x="354" y="738.0513">FAQ一覧取得</text><polygon fill="#181818" points="358,753.1172,348,757.1172,358,761.1172,354,757.1172" style="stroke:#181818;stroke-width:1.0;"/><line style="stroke:#181818;stroke-width:1.0;stroke-dasharray:2.0,2.0;" x1="352" x2="468" y1="757.1172" y2="757.1172"/><polygon fill="#181818" points="191,767.1172,181,771.1172,191,775.1172,187,771.1172" style="stroke:#181818;stroke-width:1.0;"/><line style="stroke:#181818;stroke-width:1.0;stroke-dasharray:2.0,2.0;" x1="185" x2="341" y1="771.1172" y2="771.1172"/><polygon fill="#181818" points="158,811.3828,168,815.3828,158,819.3828,162,815.3828" style="stroke:#181818;stroke-width:1.0;"/><line style="stroke:#181818;stroke-width:1.0;" x1="29" x2="164" y1="815.3828" y2="815.3828"/><text fill="#000000" font-family="sans-serif" font-size="13" lengthAdjust="spacing" textLength="108" x="36" y="795.1841">カテゴリを選択 or</text><text fill="#000000" font-family="sans-serif" font-size="13" lengthAdjust="spacing" textLength="26" x="40" y="810.3169">検索</text><line style="stroke:#181818;stroke-width:1.0;" x1="180" x2="222" y1="844.5156" y2="844.5156"/><line style="stroke:#181818;stroke-width:1.0;" x1="222" x2="222" y1="844.5156" y2="857.5156"/><line style="stroke:#181818;stroke-width:1.0;" x1="181" x2="222" y1="857.5156" y2="857.5156"/><polygon fill="#181818" points="191,853.5156,181,857.5156,191,861.5156,187,857.5156" style="stroke:#181818;stroke-width:1.0;"/><text fill="#000000" font-family="sans-serif" font-size="13" lengthAdjust="spacing" textLength="65" x="187" y="839.4497">結果を表示</text><!--SRC=[ZPDDRn916CVlyoaczQ2csNWdneIqiNenDSQ32PSDhBe9tINBrgQtxeoG5cnegiN4KYo4qXTIMaDH1AGVvc5VEFaLd7rXOGkqxc4pE_lx_v-t6LLKum9-6dw9q7qCf0pa0iWrqAvU_sRsJX4VLMK5pm6jiZqWF-SmdyIhIK512LvHnQYOu2ML_MSoUWgaOblG1j1DitPX56eHwS7o0cWzqBw3nfn_0oq2tN_esCI43s9K21gzaYKn-anEgZYy_9of5nPVF68hRebNXJL-tHNo2H45PQm0iruoTz9CihWkyIko5y9P1raNDBzq1WTbrows8ahXH69Oh0jO6wdHtzTsnSXVOkw9hyBpypY4nqsjvYyzkpU33c6Wvq0kxLxHnjzkcgLkbKxCIdkcmCXVMjMSpLt_qJE7HgRRRsMH3mHX7_DokTsQqGPDwOS_zDIHdjcVoPdbjdMs3RJW78x6dIcu_7-bm51srdnh8BjJtDqvkgtsAnmHZpbkY73SdPtHwv_wxNGWERJg9UQUIHQ8pOaqdAESTjuV0xmYoQg05V7TUnNBRuUgUqkA84XlX7XSNaEOFUEZ1hfdVzgtQ5VF4JDrZ0GfXcsZcz53s3evTvhI0Uq0j7g_asUgWTOoCiM81AJfM6u1BG7D0ZroN3U1P93dSBkNMmfpzAgP2CzQvSURPcbF-8R7Y6AtqnzKlxLXLO_rN5xlVMNNsDZwFDXk8fkO7Eeuwo31gNe1x4r7pqsc3QHcZujS0JtpyyViIaSaR5GAvbLvMZ5cSySe5lnA_W40]--></g></svg>