<?xml version="1.0" encoding="UTF-8" standalone="no"?><svg xmlns="http://www.w3.org/2000/svg" xmlns:xlink="http://www.w3.org/1999/xlink" contentStyleType="text/css" height="941px" preserveAspectRatio="none" style="width:729px;height:941px;background:#FFFFFF;" version="1.1" viewBox="0 0 729 941" width="729px" zoomAndPan="magnify"><defs/><g><text fill="#000000" font-family="sans-serif" font-size="14" font-weight="bold" lengthAdjust="spacing" textLength="32" x="350.25" y="27.9951">FAQ</text><rect fill="#FFFFFF" height="357.3281" style="stroke:#181818;stroke-width:1.0;" width="10" x="165" y="494.0547"/><rect fill="#FFFFFF" height="57.1328" style="stroke:#181818;stroke-width:1.0;" width="10" x="332" y="698.8516"/><rect fill="#FFFFFF" height="14" style="stroke:#181818;stroke-width:1.0;" width="10" x="459" y="408.7891"/><rect fill="#FFFFFF" height="14" style="stroke:#181818;stroke-width:1.0;" width="10" x="459" y="727.9844"/><rect fill="#FFFFFF" height="701.6563" style="stroke:#181818;stroke-width:1.0;" width="10" x="545.5" y="149.7266"/><line style="stroke:#181818;stroke-width:0.5;stroke-dasharray:5.0,5.0;" x1="29" x2="29" y1="118.5938" y2="860.3828"/><line style="stroke:#181818;stroke-width:0.5;stroke-dasharray:5.0,5.0;" x1="169.5" x2="169.5" y1="118.5938" y2="860.3828"/><line style="stroke:#181818;stroke-width:0.5;stroke-dasharray:5.0,5.0;" x1="336.5" x2="336.5" y1="118.5938" y2="860.3828"/><line style="stroke:#181818;stroke-width:0.5;stroke-dasharray:5.0,5.0;" x1="463.5" x2="463.5" y1="118.5938" y2="860.3828"/><line style="stroke:#181818;stroke-width:0.5;stroke-dasharray:5.0,5.0;" x1="550.5" x2="550.5" y1="118.5938" y2="860.3828"/><line style="stroke:#181818;stroke-width:0.5;stroke-dasharray:5.0,5.0;" x1="704.5" x2="704.5" y1="118.5938" y2="860.3828"/><text fill="#000000" font-family="sans-serif" font-size="14" lengthAdjust="spacing" textLength="42" x="5" y="115.292">ユーザ</text><ellipse cx="29" cy="50.7969" fill="#E2E2F0" rx="8" ry="8" style="stroke:#181818;stroke-width:0.5;"/><path d="M29,58.7969 L29,85.7969 M16,66.7969 L42,66.7969 M29,85.7969 L16,100.7969 M29,85.7969 L42,100.7969 " fill="none" style="stroke:#181818;stroke-width:0.5;"/><text fill="#000000" font-family="sans-serif" font-size="14" lengthAdjust="spacing" textLength="42" x="5" y="872.3779">ユーザ</text><ellipse cx="29" cy="884.1797" fill="#E2E2F0" rx="8" ry="8" style="stroke:#181818;stroke-width:0.5;"/><path d="M29,892.1797 L29,919.1797 M16,900.1797 L42,900.1797 M29,919.1797 L16,934.1797 M29,919.1797 L42,934.1797 " fill="none" style="stroke:#181818;stroke-width:0.5;"/><rect fill="#E2E2F0" height="46.5938" rx="2.5" ry="2.5" style="stroke:#181818;stroke-width:0.5;" width="127" x="106.5" y="71"/><text fill="#000000" font-family="sans-serif" font-size="14" lengthAdjust="spacing" textLength="112" x="114" y="90.9951">クライアント端末</text><text fill="#000000" font-family="sans-serif" font-size="14" lengthAdjust="spacing" textLength="113" x="113.5" y="107.292">(PCまたはスマホ)</text><rect fill="#E2E2F0" height="46.5938" rx="2.5" ry="2.5" style="stroke:#181818;stroke-width:0.5;" width="127" x="106.5" y="859.3828"/><text fill="#000000" font-family="sans-serif" font-size="14" lengthAdjust="spacing" textLength="112" x="114" y="879.3779">クライアント端末</text><text fill="#000000" font-family="sans-serif" font-size="14" lengthAdjust="spacing" textLength="113" x="113.5" y="895.6748">(PCまたはスマホ)</text><rect fill="#E2E2F0" height="46.5938" rx="2.5" ry="2.5" style="stroke:#181818;stroke-width:0.5;" width="151" x="261.5" y="71"/><text fill="#000000" font-family="sans-serif" font-size="14" lengthAdjust="spacing" textLength="99" x="287.5" y="90.9951">SonicHost API</text><text fill="#000000" font-family="sans-serif" font-size="14" lengthAdjust="spacing" textLength="137" x="268.5" y="107.292">(CDN/API-Gateway)</text><rect fill="#E2E2F0" height="46.5938" rx="2.5" ry="2.5" style="stroke:#181818;stroke-width:0.5;" width="151" x="261.5" y="859.3828"/><text fill="#000000" font-family="sans-serif" font-size="14" lengthAdjust="spacing" textLength="99" x="287.5" y="879.3779">SonicHost API</text><text fill="#000000" font-family="sans-serif" font-size="14" lengthAdjust="spacing" textLength="137" x="268.5" y="895.6748">(CDN/API-Gateway)</text><rect fill="#E2E2F0" height="46.5938" rx="2.5" ry="2.5" style="stroke:#181818;stroke-width:0.5;" width="83" x="422.5" y="71"/><text fill="#000000" font-family="sans-serif" font-size="14" lengthAdjust="spacing" textLength="57" x="435.5" y="90.9951">FAQ管理</text><text fill="#000000" font-family="sans-serif" font-size="14" lengthAdjust="spacing" textLength="69" x="429.5" y="107.292">(Dynamo)</text><rect fill="#E2E2F0" height="46.5938" rx="2.5" ry="2.5" style="stroke:#181818;stroke-width:0.5;" width="83" x="422.5" y="859.3828"/><text fill="#000000" font-family="sans-serif" font-size="14" lengthAdjust="spacing" textLength="57" x="435.5" y="879.3779">FAQ管理</text><text fill="#000000" font-family="sans-serif" font-size="14" lengthAdjust="spacing" textLength="69" x="429.5" y="895.6748">(Dynamo)</text><rect fill="#E2E2F0" height="30.2969" rx="2.5" ry="2.5" style="stroke:#181818;stroke-width:0.5;" width="70" x="515.5" y="87.2969"/><text fill="#000000" font-family="sans-serif" font-size="14" lengthAdjust="spacing" textLength="56" x="522.5" y="107.292">管理画面</text><rect fill="#E2E2F0" height="30.2969" rx="2.5" ry="2.5" style="stroke:#181818;stroke-width:0.5;" width="70" x="515.5" y="859.3828"/><text fill="#000000" font-family="sans-serif" font-size="14" lengthAdjust="spacing" textLength="56" x="522.5" y="879.3779">管理画面</text><text fill="#000000" font-family="sans-serif" font-size="14" lengthAdjust="spacing" textLength="42" x="680.5" y="115.292">管理者</text><ellipse cx="704.5" cy="50.7969" fill="#E2E2F0" rx="8" ry="8" style="stroke:#181818;stroke-width:0.5;"/><path d="M704.5,58.7969 L704.5,85.7969 M691.5,66.7969 L717.5,66.7969 M704.5,85.7969 L691.5,100.7969 M704.5,85.7969 L717.5,100.7969 " fill="none" style="stroke:#181818;stroke-width:0.5;"/><text fill="#000000" font-family="sans-serif" font-size="14" lengthAdjust="spacing" textLength="42" x="680.5" y="872.3779">管理者</text><ellipse cx="704.5" cy="884.1797" fill="#E2E2F0" rx="8" ry="8" style="stroke:#181818;stroke-width:0.5;"/><path d="M704.5,892.1797 L704.5,919.1797 M691.5,900.1797 L717.5,900.1797 M704.5,919.1797 L691.5,934.1797 M704.5,919.1797 L717.5,934.1797 " fill="none" style="stroke:#181818;stroke-width:0.5;"/><rect fill="#FFFFFF" height="357.3281" style="stroke:#181818;stroke-width:1.0;" width="10" x="165" y="494.0547"/><rect fill="#FFFFFF" height="57.1328" style="stroke:#181818;stroke-width:1.0;" width="10" x="332" y="698.8516"/><rect fill="#FFFFFF" height="14" style="stroke:#181818;stroke-width:1.0;" width="10" x="459" y="408.7891"/><rect fill="#FFFFFF" height="14" style="stroke:#181818;stroke-width:1.0;" width="10" x="459" y="727.9844"/><rect fill="#FFFFFF" height="701.6563" style="stroke:#181818;stroke-width:1.0;" width="10" x="545.5" y="149.7266"/><polygon fill="#181818" points="566.5,145.7266,556.5,149.7266,566.5,153.7266,562.5,149.7266" style="stroke:#181818;stroke-width:1.0;"/><line style="stroke:#181818;stroke-width:1.0;" x1="560.5" x2="703.5" y1="149.7266" y2="149.7266"/><text fill="#000000" font-family="sans-serif" font-size="13" lengthAdjust="spacing" textLength="78" x="572.5" y="144.6606">管理画面起動</text><polygon fill="#181818" points="566.5,174.8594,556.5,178.8594,566.5,182.8594,562.5,178.8594" style="stroke:#181818;stroke-width:1.0;"/><line style="stroke:#181818;stroke-width:1.0;" x1="560.5" x2="703.5" y1="178.8594" y2="178.8594"/><text fill="#000000" font-family="sans-serif" font-size="13" lengthAdjust="spacing" textLength="117" x="572.5" y="173.7935">ログイン＆FAQ表示</text><polygon fill="#181818" points="566.5,203.9922,556.5,207.9922,566.5,211.9922,562.5,207.9922" style="stroke:#181818;stroke-width:1.0;"/><line style="stroke:#181818;stroke-width:1.0;" x1="560.5" x2="703.5" y1="207.9922" y2="207.9922"/><text fill="#000000" font-family="sans-serif" font-size="13" lengthAdjust="spacing" textLength="104" x="572.5" y="202.9263">新規FAQ追加押下</text><line style="stroke:#181818;stroke-width:1.0;" x1="555.5" x2="597.5" y1="237.125" y2="237.125"/><line style="stroke:#181818;stroke-width:1.0;" x1="597.5" x2="597.5" y1="237.125" y2="250.125"/><line style="stroke:#181818;stroke-width:1.0;" x1="556.5" x2="597.5" y1="250.125" y2="250.125"/><polygon fill="#181818" points="566.5,246.125,556.5,250.125,566.5,254.125,562.5,250.125" style="stroke:#181818;stroke-width:1.0;"/><text fill="#000000" font-family="sans-serif" font-size="13" lengthAdjust="spacing" textLength="104" x="562.5" y="232.0591">FAQ追加画面表示</text><polygon fill="#181818" points="566.5,275.2578,556.5,279.2578,566.5,283.2578,562.5,279.2578" style="stroke:#181818;stroke-width:1.0;"/><line style="stroke:#181818;stroke-width:1.0;" x1="560.5" x2="703.5" y1="279.2578" y2="279.2578"/><text fill="#000000" font-family="sans-serif" font-size="13" lengthAdjust="spacing" textLength="78" x="572.5" y="274.1919">FAQ情報入力</text><polygon fill="#181818" points="566.5,304.3906,556.5,308.3906,566.5,312.3906,562.5,308.3906" style="stroke:#181818;stroke-width:1.0;"/><line style="stroke:#181818;stroke-width:1.0;" x1="560.5" x2="703.5" y1="308.3906" y2="308.3906"/><text fill="#000000" font-family="sans-serif" font-size="13" lengthAdjust="spacing" textLength="91" x="572.5" y="303.3247">確認ボタン押下</text><line style="stroke:#181818;stroke-width:1.0;" x1="555.5" x2="597.5" y1="337.5234" y2="337.5234"/><line style="stroke:#181818;stroke-width:1.0;" x1="597.5" x2="597.5" y1="337.5234" y2="350.5234"/><line style="stroke:#181818;stroke-width:1.0;" x1="556.5" x2="597.5" y1="350.5234" y2="350.5234"/><polygon fill="#181818" points="566.5,346.5234,556.5,350.5234,566.5,354.5234,562.5,350.5234" style="stroke:#181818;stroke-width:1.0;"/><text fill="#000000" font-family="sans-serif" font-size="13" lengthAdjust="spacing" textLength="104" x="562.5" y="332.4575">FAQ確認画面表示</text><polygon fill="#181818" points="566.5,375.6563,556.5,379.6563,566.5,383.6563,562.5,379.6563" style="stroke:#181818;stroke-width:1.0;"/><line style="stroke:#181818;stroke-width:1.0;" x1="560.5" x2="703.5" y1="379.6563" y2="379.6563"/><text fill="#000000" font-family="sans-serif" font-size="13" lengthAdjust="spacing" textLength="104" x="572.5" y="374.5903">確定ボタンを押下</text><polygon fill="#181818" points="480,404.7891,470,408.7891,480,412.7891,476,408.7891" style="stroke:#181818;stroke-width:1.0;"/><line style="stroke:#181818;stroke-width:1.0;" x1="474" x2="544.5" y1="408.7891" y2="408.7891"/><text fill="#000000" font-family="sans-serif" font-size="13" lengthAdjust="spacing" textLength="52" x="486" y="403.7231">FAQ追加</text><polygon fill="#181818" points="533.5,418.7891,543.5,422.7891,533.5,426.7891,537.5,422.7891" style="stroke:#181818;stroke-width:1.0;"/><line style="stroke:#181818;stroke-width:1.0;" x1="464" x2="539.5" y1="422.7891" y2="422.7891"/><line style="stroke:#181818;stroke-width:1.0;" x1="555.5" x2="597.5" y1="451.9219" y2="451.9219"/><line style="stroke:#181818;stroke-width:1.0;" x1="597.5" x2="597.5" y1="451.9219" y2="464.9219"/><line style="stroke:#181818;stroke-width:1.0;" x1="556.5" x2="597.5" y1="464.9219" y2="464.9219"/><polygon fill="#181818" points="566.5,460.9219,556.5,464.9219,566.5,468.9219,562.5,464.9219" style="stroke:#181818;stroke-width:1.0;"/><text fill="#000000" font-family="sans-serif" font-size="13" lengthAdjust="spacing" textLength="130" x="562.5" y="446.856">FAQ追加完了画面表示</text><polygon fill="#181818" points="153,490.0547,163,494.0547,153,498.0547,157,494.0547" style="stroke:#181818;stroke-width:1.0;"/><line style="stroke:#181818;stroke-width:1.0;" x1="29" x2="159" y1="494.0547" y2="494.0547"/><text fill="#000000" font-family="sans-serif" font-size="13" lengthAdjust="spacing" textLength="89" x="36" y="488.9888">HOME画面表示</text><rect fill="#ADFF2F" height="23" style="stroke:#181818;stroke-width:0.5;" width="138" x="180" y="507.0547"/><text fill="#000000" font-family="sans-serif" font-size="13" lengthAdjust="spacing" textLength="130" x="184" y="523.1216">ログインフローを参照</text><polygon fill="#181818" points="153,552.3203,163,556.3203,153,560.3203,157,556.3203" style="stroke:#181818;stroke-width:1.0;"/><line style="stroke:#181818;stroke-width:1.0;" x1="29" x2="159" y1="556.3203" y2="556.3203"/><text fill="#000000" font-family="sans-serif" font-size="13" lengthAdjust="spacing" textLength="78" x="36" y="551.2544">その他を選択</text><line style="stroke:#181818;stroke-width:1.0;" x1="175" x2="217" y1="585.4531" y2="585.4531"/><line style="stroke:#181818;stroke-width:1.0;" x1="217" x2="217" y1="585.4531" y2="598.4531"/><line style="stroke:#181818;stroke-width:1.0;" x1="176" x2="217" y1="598.4531" y2="598.4531"/><polygon fill="#181818" points="186,594.4531,176,598.4531,186,602.4531,182,598.4531" style="stroke:#181818;stroke-width:1.0;"/><text fill="#000000" font-family="sans-serif" font-size="13" lengthAdjust="spacing" textLength="143" x="182" y="580.3872">メニュー一覧画面を表示</text><polygon fill="#181818" points="153,623.5859,163,627.5859,153,631.5859,157,627.5859" style="stroke:#181818;stroke-width:1.0;"/><line style="stroke:#181818;stroke-width:1.0;" x1="29" x2="159" y1="627.5859" y2="627.5859"/><text fill="#000000" font-family="sans-serif" font-size="13" lengthAdjust="spacing" textLength="65" x="36" y="622.52">FAQを選択</text><line style="stroke:#181818;stroke-width:1.0;" x1="175" x2="217" y1="656.7188" y2="656.7188"/><line style="stroke:#181818;stroke-width:1.0;" x1="217" x2="217" y1="656.7188" y2="669.7188"/><line style="stroke:#181818;stroke-width:1.0;" x1="176" x2="217" y1="669.7188" y2="669.7188"/><polygon fill="#181818" points="186,665.7188,176,669.7188,186,673.7188,182,669.7188" style="stroke:#181818;stroke-width:1.0;"/><text fill="#000000" font-family="sans-serif" font-size="13" lengthAdjust="spacing" textLength="91" x="182" y="651.6528">FAQ画面を表示</text><polygon fill="#181818" points="320,694.8516,330,698.8516,320,702.8516,324,698.8516" style="stroke:#181818;stroke-width:1.0;"/><line style="stroke:#181818;stroke-width:1.0;" x1="175" x2="326" y1="698.8516" y2="698.8516"/><text fill="#000000" font-family="sans-serif" font-size="13" lengthAdjust="spacing" textLength="124" x="182" y="693.7856">FAQ一覧取得API打鍵</text><polygon fill="#181818" points="447,723.9844,457,727.9844,447,731.9844,451,727.9844" style="stroke:#181818;stroke-width:1.0;"/><line style="stroke:#181818;stroke-width:1.0;" x1="342" x2="453" y1="727.9844" y2="727.9844"/><text fill="#000000" font-family="sans-serif" font-size="13" lengthAdjust="spacing" textLength="78" x="349" y="722.9185">FAQ一覧取得</text><polygon fill="#181818" points="353,737.9844,343,741.9844,353,745.9844,349,741.9844" style="stroke:#181818;stroke-width:1.0;"/><line style="stroke:#181818;stroke-width:1.0;" x1="347" x2="463" y1="741.9844" y2="741.9844"/><polygon fill="#181818" points="186,751.9844,176,755.9844,186,759.9844,182,755.9844" style="stroke:#181818;stroke-width:1.0;"/><line style="stroke:#181818;stroke-width:1.0;" x1="180" x2="336" y1="755.9844" y2="755.9844"/><polygon fill="#181818" points="153,796.25,163,800.25,153,804.25,157,800.25" style="stroke:#181818;stroke-width:1.0;"/><line style="stroke:#181818;stroke-width:1.0;" x1="29" x2="159" y1="800.25" y2="800.25"/><text fill="#000000" font-family="sans-serif" font-size="13" lengthAdjust="spacing" textLength="108" x="36" y="780.0513">カテゴリを選択 or</text><text fill="#000000" font-family="sans-serif" font-size="13" lengthAdjust="spacing" textLength="26" x="40" y="795.1841">検索</text><line style="stroke:#181818;stroke-width:1.0;" x1="175" x2="217" y1="829.3828" y2="829.3828"/><line style="stroke:#181818;stroke-width:1.0;" x1="217" x2="217" y1="829.3828" y2="842.3828"/><line style="stroke:#181818;stroke-width:1.0;" x1="176" x2="217" y1="842.3828" y2="842.3828"/><polygon fill="#181818" points="186,838.3828,176,842.3828,186,846.3828,182,842.3828" style="stroke:#181818;stroke-width:1.0;"/><text fill="#000000" font-family="sans-serif" font-size="13" lengthAdjust="spacing" textLength="65" x="182" y="824.3169">結果を表示</text><!--MD5=[564df0dbd83b36771b0eb5f884fed0a9]
@startuml
title FAQ

' アクター定義
actor "ユーザ" as user
participant "クライアント端末\n(PCまたはスマホ)" as device
participant "SonicHost API\n(CDN/API-Gateway)" as api

participant "FAQ管理\n(Dynamo)" as dynamo
participant "管理画面" as adminApp
actor "管理者" as adminUser

adminUser -> adminApp ++ : 管理画面起動
adminUser -> adminApp : ログイン＆FAQ表示
adminUser -> adminApp : 新規FAQ追加押下
adminApp -> adminApp : FAQ追加画面表示
adminUser -> adminApp : FAQ情報入力
adminUser -> adminApp : 確認ボタン押下
adminApp -> adminApp : FAQ確認画面表示
adminUser -> adminApp : 確定ボタンを押下
adminApp -> dynamo ++ : FAQ追加
adminApp <- dynamo - -
adminApp -> adminApp : FAQ追加完了画面表示

user -> device ++: HOME画面表示
rnote right of device #GreenYellow
    ログインフローを参照
end note
user -> device : その他を選択
device -> device : メニュー一覧画面を表示
user -> device : FAQを選択
device -> device : FAQ画面を表示
device -> api ++ : FAQ一覧取得API打鍵
api -> dynamo ++ : FAQ一覧取得
api <- dynamo - -
device <- api - -
user -> device : カテゴリを選択 or \n 検索
device -> device : 結果を表示
@enduml

@startuml
title FAQ

actor "ユーザ" as user
participant "クライアント端末\n(PCまたはスマホ)" as device
participant "SonicHost API\n(CDN/API-Gateway)" as api

participant "FAQ管理\n(Dynamo)" as dynamo
participant "管理画面" as adminApp
actor "管理者" as adminUser

adminUser -> adminApp ++ : 管理画面起動
adminUser -> adminApp : ログイン＆FAQ表示
adminUser -> adminApp : 新規FAQ追加押下
adminApp -> adminApp : FAQ追加画面表示
adminUser -> adminApp : FAQ情報入力
adminUser -> adminApp : 確認ボタン押下
adminApp -> adminApp : FAQ確認画面表示
adminUser -> adminApp : 確定ボタンを押下
adminApp -> dynamo ++ : FAQ追加
adminApp <- dynamo - -
adminApp -> adminApp : FAQ追加完了画面表示

user -> device ++: HOME画面表示
rnote right of device #GreenYellow
    ログインフローを参照
end note
user -> device : その他を選択
device -> device : メニュー一覧画面を表示
user -> device : FAQを選択
device -> device : FAQ画面を表示
device -> api ++ : FAQ一覧取得API打鍵
api -> dynamo ++ : FAQ一覧取得
api <- dynamo - -
device <- api - -
user -> device : カテゴリを選択 or \n 検索
device -> device : 結果を表示
@enduml

PlantUML version 1.2022.14beta4(Unknown compile time)
(GPL source distribution)
Java Runtime: Java(TM) SE Runtime Environment
JVM: Java HotSpot(TM) 64-Bit Server VM
Default Encoding: UTF-8
Language: en
Country: US
--></g></svg>