<?xml version="1.0" encoding="us-ascii" standalone="no"?><svg xmlns="http://www.w3.org/2000/svg" xmlns:xlink="http://www.w3.org/1999/xlink" contentStyleType="text/css" height="986px" preserveAspectRatio="none" style="width:734px;height:986px;background:#FFFFFF;" version="1.1" viewBox="0 0 734 986" width="734px" zoomAndPan="magnify"><defs/><g><text fill="#000000" font-family="sans-serif" font-size="14" font-weight="bold" lengthAdjust="spacing" textLength="32" x="352.75" y="27.9951">FAQ</text><rect fill="#FFFFFF" height="402.7266" style="stroke:#181818;stroke-width:1.0;" width="10" x="170" y="494.0547"/><rect fill="#FFFFFF" height="57.1328" style="stroke:#181818;stroke-width:1.0;" width="10" x="337" y="744.25"/><rect fill="#FFFFFF" height="14" style="stroke:#181818;stroke-width:1.0;" width="10" x="464" y="408.7891"/><rect fill="#FFFFFF" height="14" style="stroke:#181818;stroke-width:1.0;" width="10" x="464" y="773.3828"/><rect fill="#FFFFFF" height="747.0547" style="stroke:#181818;stroke-width:1.0;" width="10" x="550.5" y="149.7266"/><line style="stroke:#181818;stroke-width:0.5;stroke-dasharray:5.0,5.0;" x1="29" x2="29" y1="118.5938" y2="905.7813"/><line style="stroke:#181818;stroke-width:0.5;stroke-dasharray:5.0,5.0;" x1="174.5" x2="174.5" y1="118.5938" y2="905.7813"/><line style="stroke:#181818;stroke-width:0.5;stroke-dasharray:5.0,5.0;" x1="341.5" x2="341.5" y1="118.5938" y2="905.7813"/><line style="stroke:#181818;stroke-width:0.5;stroke-dasharray:5.0,5.0;" x1="468.5" x2="468.5" y1="118.5938" y2="905.7813"/><line style="stroke:#181818;stroke-width:0.5;stroke-dasharray:5.0,5.0;" x1="555.5" x2="555.5" y1="118.5938" y2="905.7813"/><line style="stroke:#181818;stroke-width:0.5;stroke-dasharray:5.0,5.0;" x1="709.5" x2="709.5" y1="118.5938" y2="905.7813"/><text fill="#000000" font-family="sans-serif" font-size="14" lengthAdjust="spacing" textLength="42" x="5" y="115.292">&#12518;&#12540;&#12470;</text><ellipse cx="29" cy="50.7969" fill="#E2E2F0" rx="8" ry="8" style="stroke:#181818;stroke-width:0.5;"/><path d="M29,58.7969 L29,85.7969 M16,66.7969 L42,66.7969 M29,85.7969 L16,100.7969 M29,85.7969 L42,100.7969 " fill="none" style="stroke:#181818;stroke-width:0.5;"/><text fill="#000000" font-family="sans-serif" font-size="14" lengthAdjust="spacing" textLength="42" x="5" y="917.7764">&#12518;&#12540;&#12470;</text><ellipse cx="29" cy="929.5781" fill="#E2E2F0" rx="8" ry="8" style="stroke:#181818;stroke-width:0.5;"/><path d="M29,937.5781 L29,964.5781 M16,945.5781 L42,945.5781 M29,964.5781 L16,979.5781 M29,964.5781 L42,979.5781 " fill="none" style="stroke:#181818;stroke-width:0.5;"/><rect fill="#E2E2F0" height="46.5938" rx="2.5" ry="2.5" style="stroke:#181818;stroke-width:0.5;" width="127" x="111.5" y="71"/><text fill="#000000" font-family="sans-serif" font-size="14" lengthAdjust="spacing" textLength="112" x="119" y="90.9951">&#12463;&#12521;&#12452;&#12450;&#12531;&#12488;&#31471;&#26411;</text><text fill="#000000" font-family="sans-serif" font-size="14" lengthAdjust="spacing" textLength="113" x="118.5" y="107.292">(PC&#12414;&#12383;&#12399;&#12473;&#12510;&#12507;)</text><rect fill="#E2E2F0" height="46.5938" rx="2.5" ry="2.5" style="stroke:#181818;stroke-width:0.5;" width="127" x="111.5" y="904.7813"/><text fill="#000000" font-family="sans-serif" font-size="14" lengthAdjust="spacing" textLength="112" x="119" y="924.7764">&#12463;&#12521;&#12452;&#12450;&#12531;&#12488;&#31471;&#26411;</text><text fill="#000000" font-family="sans-serif" font-size="14" lengthAdjust="spacing" textLength="113" x="118.5" y="941.0732">(PC&#12414;&#12383;&#12399;&#12473;&#12510;&#12507;)</text><rect fill="#E2E2F0" height="46.5938" rx="2.5" ry="2.5" style="stroke:#181818;stroke-width:0.5;" width="151" x="266.5" y="71"/><text fill="#000000" font-family="sans-serif" font-size="14" lengthAdjust="spacing" textLength="99" x="292.5" y="90.9951">SonicHost API</text><text fill="#000000" font-family="sans-serif" font-size="14" lengthAdjust="spacing" textLength="137" x="273.5" y="107.292">(CDN/API-Gateway)</text><rect fill="#E2E2F0" height="46.5938" rx="2.5" ry="2.5" style="stroke:#181818;stroke-width:0.5;" width="151" x="266.5" y="904.7813"/><text fill="#000000" font-family="sans-serif" font-size="14" lengthAdjust="spacing" textLength="99" x="292.5" y="924.7764">SonicHost API</text><text fill="#000000" font-family="sans-serif" font-size="14" lengthAdjust="spacing" textLength="137" x="273.5" y="941.0732">(CDN/API-Gateway)</text><rect fill="#E2E2F0" height="46.5938" rx="2.5" ry="2.5" style="stroke:#181818;stroke-width:0.5;" width="83" x="427.5" y="71"/><text fill="#000000" font-family="sans-serif" font-size="14" lengthAdjust="spacing" textLength="57" x="440.5" y="90.9951">FAQ&#31649;&#29702;</text><text fill="#000000" font-family="sans-serif" font-size="14" lengthAdjust="spacing" textLength="69" x="434.5" y="107.292">(Dynamo)</text><rect fill="#E2E2F0" height="46.5938" rx="2.5" ry="2.5" style="stroke:#181818;stroke-width:0.5;" width="83" x="427.5" y="904.7813"/><text fill="#000000" font-family="sans-serif" font-size="14" lengthAdjust="spacing" textLength="57" x="440.5" y="924.7764">FAQ&#31649;&#29702;</text><text fill="#000000" font-family="sans-serif" font-size="14" lengthAdjust="spacing" textLength="69" x="434.5" y="941.0732">(Dynamo)</text><rect fill="#E2E2F0" height="30.2969" rx="2.5" ry="2.5" style="stroke:#181818;stroke-width:0.5;" width="70" x="520.5" y="87.2969"/><text fill="#000000" font-family="sans-serif" font-size="14" lengthAdjust="spacing" textLength="56" x="527.5" y="107.292">&#31649;&#29702;&#30011;&#38754;</text><rect fill="#E2E2F0" height="30.2969" rx="2.5" ry="2.5" style="stroke:#181818;stroke-width:0.5;" width="70" x="520.5" y="904.7813"/><text fill="#000000" font-family="sans-serif" font-size="14" lengthAdjust="spacing" textLength="56" x="527.5" y="924.7764">&#31649;&#29702;&#30011;&#38754;</text><text fill="#000000" font-family="sans-serif" font-size="14" lengthAdjust="spacing" textLength="42" x="685.5" y="115.292">&#31649;&#29702;&#32773;</text><ellipse cx="709.5" cy="50.7969" fill="#E2E2F0" rx="8" ry="8" style="stroke:#181818;stroke-width:0.5;"/><path d="M709.5,58.7969 L709.5,85.7969 M696.5,66.7969 L722.5,66.7969 M709.5,85.7969 L696.5,100.7969 M709.5,85.7969 L722.5,100.7969 " fill="none" style="stroke:#181818;stroke-width:0.5;"/><text fill="#000000" font-family="sans-serif" font-size="14" lengthAdjust="spacing" textLength="42" x="685.5" y="917.7764">&#31649;&#29702;&#32773;</text><ellipse cx="709.5" cy="929.5781" fill="#E2E2F0" rx="8" ry="8" style="stroke:#181818;stroke-width:0.5;"/><path d="M709.5,937.5781 L709.5,964.5781 M696.5,945.5781 L722.5,945.5781 M709.5,964.5781 L696.5,979.5781 M709.5,964.5781 L722.5,979.5781 " fill="none" style="stroke:#181818;stroke-width:0.5;"/><rect fill="#FFFFFF" height="402.7266" style="stroke:#181818;stroke-width:1.0;" width="10" x="170" y="494.0547"/><rect fill="#FFFFFF" height="57.1328" style="stroke:#181818;stroke-width:1.0;" width="10" x="337" y="744.25"/><rect fill="#FFFFFF" height="14" style="stroke:#181818;stroke-width:1.0;" width="10" x="464" y="408.7891"/><rect fill="#FFFFFF" height="14" style="stroke:#181818;stroke-width:1.0;" width="10" x="464" y="773.3828"/><rect fill="#FFFFFF" height="747.0547" style="stroke:#181818;stroke-width:1.0;" width="10" x="550.5" y="149.7266"/><polygon fill="#181818" points="571.5,145.7266,561.5,149.7266,571.5,153.7266,567.5,149.7266" style="stroke:#181818;stroke-width:1.0;"/><line style="stroke:#181818;stroke-width:1.0;" x1="565.5" x2="708.5" y1="149.7266" y2="149.7266"/><text fill="#000000" font-family="sans-serif" font-size="13" lengthAdjust="spacing" textLength="78" x="577.5" y="144.6606">&#31649;&#29702;&#30011;&#38754;&#36215;&#21205;</text><polygon fill="#181818" points="571.5,174.8594,561.5,178.8594,571.5,182.8594,567.5,178.8594" style="stroke:#181818;stroke-width:1.0;"/><line style="stroke:#181818;stroke-width:1.0;" x1="565.5" x2="708.5" y1="178.8594" y2="178.8594"/><text fill="#000000" font-family="sans-serif" font-size="13" lengthAdjust="spacing" textLength="117" x="577.5" y="173.7935">&#12525;&#12464;&#12452;&#12531;&#65286;FAQ&#34920;&#31034;</text><polygon fill="#181818" points="571.5,203.9922,561.5,207.9922,571.5,211.9922,567.5,207.9922" style="stroke:#181818;stroke-width:1.0;"/><line style="stroke:#181818;stroke-width:1.0;" x1="565.5" x2="708.5" y1="207.9922" y2="207.9922"/><text fill="#000000" font-family="sans-serif" font-size="13" lengthAdjust="spacing" textLength="104" x="577.5" y="202.9263">&#26032;&#35215;FAQ&#36861;&#21152;&#25276;&#19979;</text><line style="stroke:#181818;stroke-width:1.0;" x1="560.5" x2="602.5" y1="237.125" y2="237.125"/><line style="stroke:#181818;stroke-width:1.0;" x1="602.5" x2="602.5" y1="237.125" y2="250.125"/><line style="stroke:#181818;stroke-width:1.0;" x1="561.5" x2="602.5" y1="250.125" y2="250.125"/><polygon fill="#181818" points="571.5,246.125,561.5,250.125,571.5,254.125,567.5,250.125" style="stroke:#181818;stroke-width:1.0;"/><text fill="#000000" font-family="sans-serif" font-size="13" lengthAdjust="spacing" textLength="104" x="567.5" y="232.0591">FAQ&#36861;&#21152;&#30011;&#38754;&#34920;&#31034;</text><polygon fill="#181818" points="571.5,275.2578,561.5,279.2578,571.5,283.2578,567.5,279.2578" style="stroke:#181818;stroke-width:1.0;"/><line style="stroke:#181818;stroke-width:1.0;" x1="565.5" x2="708.5" y1="279.2578" y2="279.2578"/><text fill="#000000" font-family="sans-serif" font-size="13" lengthAdjust="spacing" textLength="78" x="577.5" y="274.1919">FAQ&#24773;&#22577;&#20837;&#21147;</text><polygon fill="#181818" points="571.5,304.3906,561.5,308.3906,571.5,312.3906,567.5,308.3906" style="stroke:#181818;stroke-width:1.0;"/><line style="stroke:#181818;stroke-width:1.0;" x1="565.5" x2="708.5" y1="308.3906" y2="308.3906"/><text fill="#000000" font-family="sans-serif" font-size="13" lengthAdjust="spacing" textLength="91" x="577.5" y="303.3247">&#30906;&#35469;&#12508;&#12479;&#12531;&#25276;&#19979;</text><line style="stroke:#181818;stroke-width:1.0;" x1="560.5" x2="602.5" y1="337.5234" y2="337.5234"/><line style="stroke:#181818;stroke-width:1.0;" x1="602.5" x2="602.5" y1="337.5234" y2="350.5234"/><line style="stroke:#181818;stroke-width:1.0;" x1="561.5" x2="602.5" y1="350.5234" y2="350.5234"/><polygon fill="#181818" points="571.5,346.5234,561.5,350.5234,571.5,354.5234,567.5,350.5234" style="stroke:#181818;stroke-width:1.0;"/><text fill="#000000" font-family="sans-serif" font-size="13" lengthAdjust="spacing" textLength="104" x="567.5" y="332.4575">FAQ&#30906;&#35469;&#30011;&#38754;&#34920;&#31034;</text><polygon fill="#181818" points="571.5,375.6563,561.5,379.6563,571.5,383.6563,567.5,379.6563" style="stroke:#181818;stroke-width:1.0;"/><line style="stroke:#181818;stroke-width:1.0;" x1="565.5" x2="708.5" y1="379.6563" y2="379.6563"/><text fill="#000000" font-family="sans-serif" font-size="13" lengthAdjust="spacing" textLength="104" x="577.5" y="374.5903">&#30906;&#23450;&#12508;&#12479;&#12531;&#12434;&#25276;&#19979;</text><polygon fill="#181818" points="485,404.7891,475,408.7891,485,412.7891,481,408.7891" style="stroke:#181818;stroke-width:1.0;"/><line style="stroke:#181818;stroke-width:1.0;" x1="479" x2="549.5" y1="408.7891" y2="408.7891"/><text fill="#000000" font-family="sans-serif" font-size="13" lengthAdjust="spacing" textLength="52" x="491" y="403.7231">FAQ&#36861;&#21152;</text><polygon fill="#181818" points="538.5,418.7891,548.5,422.7891,538.5,426.7891,542.5,422.7891" style="stroke:#181818;stroke-width:1.0;"/><line style="stroke:#181818;stroke-width:1.0;stroke-dasharray:2.0,2.0;" x1="469" x2="544.5" y1="422.7891" y2="422.7891"/><line style="stroke:#181818;stroke-width:1.0;" x1="560.5" x2="602.5" y1="451.9219" y2="451.9219"/><line style="stroke:#181818;stroke-width:1.0;" x1="602.5" x2="602.5" y1="451.9219" y2="464.9219"/><line style="stroke:#181818;stroke-width:1.0;" x1="561.5" x2="602.5" y1="464.9219" y2="464.9219"/><polygon fill="#181818" points="571.5,460.9219,561.5,464.9219,571.5,468.9219,567.5,464.9219" style="stroke:#181818;stroke-width:1.0;"/><text fill="#000000" font-family="sans-serif" font-size="13" lengthAdjust="spacing" textLength="130" x="567.5" y="446.856">FAQ&#36861;&#21152;&#23436;&#20102;&#30011;&#38754;&#34920;&#31034;</text><polygon fill="#181818" points="158,490.0547,168,494.0547,158,498.0547,162,494.0547" style="stroke:#181818;stroke-width:1.0;"/><line style="stroke:#181818;stroke-width:1.0;" x1="29" x2="164" y1="494.0547" y2="494.0547"/><text fill="#000000" font-family="sans-serif" font-size="13" lengthAdjust="spacing" textLength="117" x="36" y="488.9888">&#12467;&#12531;&#12486;&#12531;&#12484;&#30011;&#38754;&#34920;&#31034;</text><rect fill="#ADFF2F" height="23" style="stroke:#181818;stroke-width:0.5;" width="138" x="185" y="507.0547"/><text fill="#000000" font-family="sans-serif" font-size="13" lengthAdjust="spacing" textLength="130" x="189" y="523.1216">&#12525;&#12464;&#12452;&#12531;&#12501;&#12525;&#12540;&#12434;&#21442;&#29031;</text><polygon fill="#181818" points="158,567.4531,168,571.4531,158,575.4531,162,571.4531" style="stroke:#181818;stroke-width:1.0;"/><line style="stroke:#181818;stroke-width:1.0;" x1="29" x2="164" y1="571.4531" y2="571.4531"/><text fill="#000000" font-family="sans-serif" font-size="13" lengthAdjust="spacing" textLength="117" x="36" y="551.2544">&#35373;&#23450;&#12539;&#12381;&#12398;&#20182;&#12434;&#36984;&#25246;</text><text fill="#000000" font-family="sans-serif" font-size="13" lengthAdjust="spacing" textLength="117" x="36" y="566.3872">&#12469;&#12452;&#12489;&#12513;&#12491;&#12517;&#12540;&#12424;&#12426;</text><line style="stroke:#181818;stroke-width:1.0;" x1="180" x2="222" y1="600.5859" y2="600.5859"/><line style="stroke:#181818;stroke-width:1.0;" x1="222" x2="222" y1="600.5859" y2="613.5859"/><line style="stroke:#181818;stroke-width:1.0;" x1="181" x2="222" y1="613.5859" y2="613.5859"/><polygon fill="#181818" points="191,609.5859,181,613.5859,191,617.5859,187,613.5859" style="stroke:#181818;stroke-width:1.0;"/><text fill="#000000" font-family="sans-serif" font-size="13" lengthAdjust="spacing" textLength="143" x="187" y="595.52">&#35373;&#23450;&#12539;&#12381;&#12398;&#20182;&#30011;&#38754;&#12434;&#34920;&#31034;</text><polygon fill="#181818" points="158,638.7188,168,642.7188,158,646.7188,162,642.7188" style="stroke:#181818;stroke-width:1.0;"/><line style="stroke:#181818;stroke-width:1.0;" x1="29" x2="164" y1="642.7188" y2="642.7188"/><text fill="#000000" font-family="sans-serif" font-size="13" lengthAdjust="spacing" textLength="65" x="36" y="637.6528">FAQ&#12434;&#36984;&#25246;</text><line style="stroke:#181818;stroke-width:1.0;" x1="180" x2="222" y1="671.8516" y2="671.8516"/><line style="stroke:#181818;stroke-width:1.0;" x1="222" x2="222" y1="671.8516" y2="684.8516"/><line style="stroke:#181818;stroke-width:1.0;" x1="181" x2="222" y1="684.8516" y2="684.8516"/><polygon fill="#181818" points="191,680.8516,181,684.8516,191,688.8516,187,684.8516" style="stroke:#181818;stroke-width:1.0;"/><text fill="#000000" font-family="sans-serif" font-size="13" lengthAdjust="spacing" textLength="91" x="187" y="666.7856">FAQ&#30011;&#38754;&#12434;&#34920;&#31034;</text><polygon fill="#181818" points="325,740.25,335,744.25,325,748.25,329,744.25" style="stroke:#181818;stroke-width:1.0;"/><line style="stroke:#181818;stroke-width:1.0;" x1="180" x2="331" y1="744.25" y2="744.25"/><text fill="#000000" font-family="sans-serif" font-size="13" lengthAdjust="spacing" textLength="98" x="187" y="708.9185">FAQ&#19968;&#35239;&#21462;&#24471;API</text><text fill="#000000" font-family="sans-serif" font-size="13" lengthAdjust="spacing" textLength="55" x="187" y="724.0513">/faq GET</text><text fill="#000000" font-family="sans-serif" font-size="13" lengthAdjust="spacing" textLength="78" x="187" y="739.1841">&#20844;&#38283;&#12489;&#12513;&#12452;&#12531;</text><polygon fill="#181818" points="452,769.3828,462,773.3828,452,777.3828,456,773.3828" style="stroke:#181818;stroke-width:1.0;"/><line style="stroke:#181818;stroke-width:1.0;" x1="347" x2="458" y1="773.3828" y2="773.3828"/><text fill="#000000" font-family="sans-serif" font-size="13" lengthAdjust="spacing" textLength="78" x="354" y="768.3169">FAQ&#19968;&#35239;&#21462;&#24471;</text><polygon fill="#181818" points="358,783.3828,348,787.3828,358,791.3828,354,787.3828" style="stroke:#181818;stroke-width:1.0;"/><line style="stroke:#181818;stroke-width:1.0;stroke-dasharray:2.0,2.0;" x1="352" x2="468" y1="787.3828" y2="787.3828"/><polygon fill="#181818" points="191,797.3828,181,801.3828,191,805.3828,187,801.3828" style="stroke:#181818;stroke-width:1.0;"/><line style="stroke:#181818;stroke-width:1.0;stroke-dasharray:2.0,2.0;" x1="185" x2="341" y1="801.3828" y2="801.3828"/><polygon fill="#181818" points="158,841.6484,168,845.6484,158,849.6484,162,845.6484" style="stroke:#181818;stroke-width:1.0;"/><line style="stroke:#181818;stroke-width:1.0;" x1="29" x2="164" y1="845.6484" y2="845.6484"/><text fill="#000000" font-family="sans-serif" font-size="13" lengthAdjust="spacing" textLength="108" x="36" y="825.4497">&#12459;&#12486;&#12468;&#12522;&#12434;&#36984;&#25246; or</text><text fill="#000000" font-family="sans-serif" font-size="13" lengthAdjust="spacing" textLength="26" x="40" y="840.5825">&#26908;&#32034;</text><line style="stroke:#181818;stroke-width:1.0;" x1="180" x2="222" y1="874.7813" y2="874.7813"/><line style="stroke:#181818;stroke-width:1.0;" x1="222" x2="222" y1="874.7813" y2="887.7813"/><line style="stroke:#181818;stroke-width:1.0;" x1="181" x2="222" y1="887.7813" y2="887.7813"/><polygon fill="#181818" points="191,883.7813,181,887.7813,191,891.7813,187,887.7813" style="stroke:#181818;stroke-width:1.0;"/><text fill="#000000" font-family="sans-serif" font-size="13" lengthAdjust="spacing" textLength="65" x="187" y="869.7153">&#32080;&#26524;&#12434;&#34920;&#31034;</text><!--SRC=[ZLDBRn9H6DtFhxYf2pNDf7jYJ4YhwCRKg0iJDXCwrKde7OIfJNUTUuLKqD0q5XDBiH1A7rXQGr44f3_cOnwi_0lUUJ0m1ThEOdBdpZdd-yxtK2GbAgB7mUSSTnS1AG4v0t89jAFLlXdTOqw8A78SpG2ji3iWlsQGa42h2J7EnOIu8aMac80Lzf_Hw36GiYL1wq0tZUgPdg-6yRt5UL2xe7u7bId_0Le0kdlVbbaItqiHqI_qGiPIv8cSK51myIbZpoyycsCdFYGeufgmxX25cCJvQSo0KIiQMob6MLZ7mehiXh3FVgm3DBwq-tibHsvfHSB1M6nWrW6O6ydXtrUMOyux8lwXnqApioY0HaNDncyjipC57K10Ju6SMxMYzN-T54lTB1uPvTPKWfuxDojP2tVvLqllw-bEhvdXF80VxC7SNAwNPcYT9hNzdrhoG4llJiKPfPPvyXbetXwE-eqfEFXRfS2WRDOyQI3R4zITFZgbzXmE4GzuVW3X-HihezK-zLefNtBSgfkOCvCi4EiJgTkZdBBV7tpuE9OL4SMbDsyL92yFM7T2SL74hyLeL5xZ47j6Mmrqn_gqjcXRon8ZUSY9U0bPGbUZ1v1vT6eNfGtg7gYrNZl7M7srgQSBOGoaOKj-15e4cW5wOAjk0abphiBrMeuLfkYw6GlFIkN5coHfTVYAnX35jjDhLA-vOLOEjMnEwtvbQup2U6vPU8T2Zrw6iPRyqSzbN1jsYJYBEjxjKH4Ruc-t6zcwjFdyk1yWLQkFv0BeYMSCiLqFOwINyyP5QP9Bex6b5_AUnVy0]--></g></svg>