<?xml version="1.0" encoding="UTF-8" standalone="no"?><svg xmlns="http://www.w3.org/2000/svg" xmlns:xlink="http://www.w3.org/1999/xlink" contentStyleType="text/css" height="971px" preserveAspectRatio="none" style="width:501px;height:971px;background:#FFFFFF;" version="1.1" viewBox="0 0 501 971" width="501px" zoomAndPan="magnify"><defs/><g><text fill="#000000" font-family="sans-serif" font-size="14" font-weight="bold" lengthAdjust="spacing" textLength="105" x="199.25" y="27.9951">サイト設定変更</text><rect fill="#FFFFFF" height="732.4609" style="stroke:#181818;stroke-width:1.0;" width="10" x="198" y="149.7266"/><rect fill="#FFFFFF" height="14" style="stroke:#181818;stroke-width:1.0;" width="10" x="404" y="407.7891"/><rect fill="#FFFFFF" height="14" style="stroke:#181818;stroke-width:1.0;" width="10" x="404" y="622.5859"/><rect fill="#FFFFFF" height="14" style="stroke:#181818;stroke-width:1.0;" width="10" x="404" y="810.0547"/><rect fill="none" height="491.6641" style="stroke:#000000;stroke-width:1.5;" width="484.5" x="10" y="340.3906"/><line style="stroke:#181818;stroke-width:0.5;stroke-dasharray:5.0,5.0;" x1="44" x2="44" y1="118.5938" y2="891.1875"/><line style="stroke:#181818;stroke-width:0.5;stroke-dasharray:5.0,5.0;" x1="202.5" x2="202.5" y1="118.5938" y2="891.1875"/><line style="stroke:#181818;stroke-width:0.5;stroke-dasharray:5.0,5.0;" x1="408.5" x2="408.5" y1="118.5938" y2="891.1875"/><text fill="#000000" font-family="sans-serif" font-size="14" lengthAdjust="spacing" textLength="42" x="20" y="115.292">ユーザ</text><ellipse cx="44" cy="50.7969" fill="#E2E2F0" rx="8" ry="8" style="stroke:#181818;stroke-width:0.5;"/><path d="M44,58.7969 L44,85.7969 M31,66.7969 L57,66.7969 M44,85.7969 L31,100.7969 M44,85.7969 L57,100.7969 " fill="none" style="stroke:#181818;stroke-width:0.5;"/><text fill="#000000" font-family="sans-serif" font-size="14" lengthAdjust="spacing" textLength="42" x="20" y="903.1826">ユーザ</text><ellipse cx="44" cy="914.9844" fill="#E2E2F0" rx="8" ry="8" style="stroke:#181818;stroke-width:0.5;"/><path d="M44,922.9844 L44,949.9844 M31,930.9844 L57,930.9844 M44,949.9844 L31,964.9844 M44,949.9844 L57,964.9844 " fill="none" style="stroke:#181818;stroke-width:0.5;"/><rect fill="#E2E2F0" height="46.5938" rx="2.5" ry="2.5" style="stroke:#181818;stroke-width:0.5;" width="127" x="139.5" y="71"/><text fill="#000000" font-family="sans-serif" font-size="14" lengthAdjust="spacing" textLength="112" x="147" y="90.9951">クライアント端末</text><text fill="#000000" font-family="sans-serif" font-size="14" lengthAdjust="spacing" textLength="113" x="146.5" y="107.292">(PCまたはスマホ)</text><rect fill="#E2E2F0" height="46.5938" rx="2.5" ry="2.5" style="stroke:#181818;stroke-width:0.5;" width="127" x="139.5" y="890.1875"/><text fill="#000000" font-family="sans-serif" font-size="14" lengthAdjust="spacing" textLength="112" x="147" y="910.1826">クライアント端末</text><text fill="#000000" font-family="sans-serif" font-size="14" lengthAdjust="spacing" textLength="113" x="146.5" y="926.4795">(PCまたはスマホ)</text><rect fill="#E2E2F0" height="46.5938" rx="2.5" ry="2.5" style="stroke:#181818;stroke-width:0.5;" width="151" x="333.5" y="71"/><text fill="#000000" font-family="sans-serif" font-size="14" lengthAdjust="spacing" textLength="99" x="359.5" y="90.9951">SonicHost API</text><text fill="#000000" font-family="sans-serif" font-size="14" lengthAdjust="spacing" textLength="137" x="340.5" y="107.292">(CDN/API-Gateway)</text><rect fill="#E2E2F0" height="46.5938" rx="2.5" ry="2.5" style="stroke:#181818;stroke-width:0.5;" width="151" x="333.5" y="890.1875"/><text fill="#000000" font-family="sans-serif" font-size="14" lengthAdjust="spacing" textLength="99" x="359.5" y="910.1826">SonicHost API</text><text fill="#000000" font-family="sans-serif" font-size="14" lengthAdjust="spacing" textLength="137" x="340.5" y="926.4795">(CDN/API-Gateway)</text><rect fill="#FFFFFF" height="732.4609" style="stroke:#181818;stroke-width:1.0;" width="10" x="198" y="149.7266"/><rect fill="#FFFFFF" height="14" style="stroke:#181818;stroke-width:1.0;" width="10" x="404" y="407.7891"/><rect fill="#FFFFFF" height="14" style="stroke:#181818;stroke-width:1.0;" width="10" x="404" y="622.5859"/><rect fill="#FFFFFF" height="14" style="stroke:#181818;stroke-width:1.0;" width="10" x="404" y="810.0547"/><polygon fill="#181818" points="186,145.7266,196,149.7266,186,153.7266,190,149.7266" style="stroke:#181818;stroke-width:1.0;"/><line style="stroke:#181818;stroke-width:1.0;" x1="44" x2="192" y1="149.7266" y2="149.7266"/><text fill="#000000" font-family="sans-serif" font-size="13" lengthAdjust="spacing" textLength="89" x="51" y="144.6606">HOME画面表示</text><rect fill="#ADFF2F" height="23" style="stroke:#181818;stroke-width:0.5;" width="138" x="213" y="162.7266"/><text fill="#000000" font-family="sans-serif" font-size="13" lengthAdjust="spacing" textLength="130" x="217" y="178.7935">ログインフローを参照</text><polygon fill="#181818" points="186,207.9922,196,211.9922,186,215.9922,190,211.9922" style="stroke:#181818;stroke-width:1.0;"/><line style="stroke:#181818;stroke-width:1.0;" x1="44" x2="192" y1="211.9922" y2="211.9922"/><text fill="#000000" font-family="sans-serif" font-size="13" lengthAdjust="spacing" textLength="117" x="51" y="206.9263">サイト設定確認選択</text><line style="stroke:#181818;stroke-width:1.0;" x1="208" x2="250" y1="241.125" y2="241.125"/><line style="stroke:#181818;stroke-width:1.0;" x1="250" x2="250" y1="241.125" y2="254.125"/><line style="stroke:#181818;stroke-width:1.0;" x1="209" x2="250" y1="254.125" y2="254.125"/><polygon fill="#181818" points="219,250.125,209,254.125,219,258.125,215,254.125" style="stroke:#181818;stroke-width:1.0;"/><text fill="#000000" font-family="sans-serif" font-size="13" lengthAdjust="spacing" textLength="143" x="215" y="236.0591">サイト設定情報画面表示</text><polygon fill="#181818" points="186,279.2578,196,283.2578,186,287.2578,190,283.2578" style="stroke:#181818;stroke-width:1.0;"/><line style="stroke:#181818;stroke-width:1.0;" x1="44" x2="192" y1="283.2578" y2="283.2578"/><text fill="#000000" font-family="sans-serif" font-size="13" lengthAdjust="spacing" textLength="78" x="51" y="278.1919">「更新」押下</text><line style="stroke:#181818;stroke-width:1.0;" x1="208" x2="250" y1="312.3906" y2="312.3906"/><line style="stroke:#181818;stroke-width:1.0;" x1="250" x2="250" y1="312.3906" y2="325.3906"/><line style="stroke:#181818;stroke-width:1.0;" x1="209" x2="250" y1="325.3906" y2="325.3906"/><polygon fill="#181818" points="219,321.3906,209,325.3906,219,329.3906,215,325.3906" style="stroke:#181818;stroke-width:1.0;"/><text fill="#000000" font-family="sans-serif" font-size="13" lengthAdjust="spacing" textLength="143" x="215" y="307.3247">サイト設定更新画面表示</text><path d="M10,340.3906 L82,340.3906 L82,347.5234 L72,357.5234 L10,357.5234 L10,340.3906 " fill="#EEEEEE" style="stroke:#000000;stroke-width:1.5;"/><rect fill="none" height="491.6641" style="stroke:#000000;stroke-width:1.5;" width="484.5" x="10" y="340.3906"/><text fill="#000000" font-family="sans-serif" font-size="13" font-weight="bold" lengthAdjust="spacing" textLength="27" x="25" y="353.4575">opt</text><text fill="#000000" font-family="sans-serif" font-size="11" font-weight="bold" lengthAdjust="spacing" textLength="164" x="97" y="352.6011">[ドメイン情報を変更したい場合]</text><polygon fill="#181818" points="186,374.6563,196,378.6563,186,382.6563,190,378.6563" style="stroke:#181818;stroke-width:1.0;"/><line style="stroke:#181818;stroke-width:1.0;" x1="44" x2="192" y1="378.6563" y2="378.6563"/><text fill="#000000" font-family="sans-serif" font-size="13" lengthAdjust="spacing" textLength="117" x="51" y="373.5903">ドメイン変更を押下</text><polygon fill="#181818" points="392,403.7891,402,407.7891,392,411.7891,396,407.7891" style="stroke:#181818;stroke-width:1.0;"/><line style="stroke:#181818;stroke-width:1.0;" x1="208" x2="398" y1="407.7891" y2="407.7891"/><text fill="#000000" font-family="sans-serif" font-size="13" lengthAdjust="spacing" textLength="124" x="215" y="402.7231">ドメイン情報取得API</text><polygon fill="#181818" points="219,417.7891,209,421.7891,219,425.7891,215,421.7891" style="stroke:#181818;stroke-width:1.0;"/><line style="stroke:#181818;stroke-width:1.0;" x1="213" x2="408" y1="421.7891" y2="421.7891"/><line style="stroke:#181818;stroke-width:1.0;" x1="208" x2="250" y1="450.9219" y2="450.9219"/><line style="stroke:#181818;stroke-width:1.0;" x1="250" x2="250" y1="450.9219" y2="463.9219"/><line style="stroke:#181818;stroke-width:1.0;" x1="209" x2="250" y1="463.9219" y2="463.9219"/><polygon fill="#181818" points="219,459.9219,209,463.9219,219,467.9219,215,463.9219" style="stroke:#181818;stroke-width:1.0;"/><text fill="#000000" font-family="sans-serif" font-size="13" lengthAdjust="spacing" textLength="143" x="215" y="445.856">ドメイン変更画面を表示</text><polygon fill="#181818" points="186,489.0547,196,493.0547,186,497.0547,190,493.0547" style="stroke:#181818;stroke-width:1.0;"/><line style="stroke:#181818;stroke-width:1.0;" x1="44" x2="192" y1="493.0547" y2="493.0547"/><text fill="#000000" font-family="sans-serif" font-size="13" lengthAdjust="spacing" textLength="130" x="51" y="487.9888">変更したい項目を入力</text><polygon fill="#181818" points="186,518.1875,196,522.1875,186,526.1875,190,522.1875" style="stroke:#181818;stroke-width:1.0;"/><line style="stroke:#181818;stroke-width:1.0;" x1="44" x2="192" y1="522.1875" y2="522.1875"/><text fill="#000000" font-family="sans-serif" font-size="13" lengthAdjust="spacing" textLength="91" x="51" y="517.1216">確認ボタン押下</text><line style="stroke:#181818;stroke-width:1.0;" x1="208" x2="250" y1="551.3203" y2="551.3203"/><line style="stroke:#181818;stroke-width:1.0;" x1="250" x2="250" y1="551.3203" y2="564.3203"/><line style="stroke:#181818;stroke-width:1.0;" x1="209" x2="250" y1="564.3203" y2="564.3203"/><polygon fill="#181818" points="219,560.3203,209,564.3203,219,568.3203,215,564.3203" style="stroke:#181818;stroke-width:1.0;"/><text fill="#000000" font-family="sans-serif" font-size="13" lengthAdjust="spacing" textLength="156" x="215" y="546.2544">ドメイン変更確認画面表示</text><polygon fill="#181818" points="186,589.4531,196,593.4531,186,597.4531,190,593.4531" style="stroke:#181818;stroke-width:1.0;"/><line style="stroke:#181818;stroke-width:1.0;" x1="44" x2="192" y1="593.4531" y2="593.4531"/><text fill="#000000" font-family="sans-serif" font-size="13" lengthAdjust="spacing" textLength="91" x="51" y="588.3872">確定ボタン押下</text><polygon fill="#181818" points="392,618.5859,402,622.5859,392,626.5859,396,622.5859" style="stroke:#181818;stroke-width:1.0;"/><line style="stroke:#181818;stroke-width:1.0;" x1="208" x2="398" y1="622.5859" y2="622.5859"/><text fill="#000000" font-family="sans-serif" font-size="13" lengthAdjust="spacing" textLength="124" x="215" y="617.52">ドメイン情報更新API</text><polygon fill="#181818" points="219,632.5859,209,636.5859,219,640.5859,215,636.5859" style="stroke:#181818;stroke-width:1.0;"/><line style="stroke:#181818;stroke-width:1.0;" x1="213" x2="408" y1="636.5859" y2="636.5859"/><line style="stroke:#000000;stroke-width:1.0;stroke-dasharray:2.0,2.0;" x1="10" x2="494.5" y1="645.5859" y2="645.5859"/><text fill="#000000" font-family="sans-serif" font-size="11" font-weight="bold" lengthAdjust="spacing" textLength="197" x="15" y="655.7964">[ドメイン以外の除法を更新したい場合]</text><polygon fill="#181818" points="186,676.5234,196,680.5234,186,684.5234,190,680.5234" style="stroke:#181818;stroke-width:1.0;"/><line style="stroke:#181818;stroke-width:1.0;" x1="44" x2="192" y1="680.5234" y2="680.5234"/><text fill="#000000" font-family="sans-serif" font-size="13" lengthAdjust="spacing" textLength="130" x="51" y="675.4575">変更したい項目を入力</text><polygon fill="#181818" points="186,705.6563,196,709.6563,186,713.6563,190,709.6563" style="stroke:#181818;stroke-width:1.0;"/><line style="stroke:#181818;stroke-width:1.0;" x1="44" x2="192" y1="709.6563" y2="709.6563"/><text fill="#000000" font-family="sans-serif" font-size="13" lengthAdjust="spacing" textLength="104" x="51" y="704.5903">確認ボタンを押下</text><line style="stroke:#181818;stroke-width:1.0;" x1="208" x2="250" y1="738.7891" y2="738.7891"/><line style="stroke:#181818;stroke-width:1.0;" x1="250" x2="250" y1="738.7891" y2="751.7891"/><line style="stroke:#181818;stroke-width:1.0;" x1="209" x2="250" y1="751.7891" y2="751.7891"/><polygon fill="#181818" points="219,747.7891,209,751.7891,219,755.7891,215,751.7891" style="stroke:#181818;stroke-width:1.0;"/><text fill="#000000" font-family="sans-serif" font-size="13" lengthAdjust="spacing" textLength="182" x="215" y="733.7231">サイト情報更新確認画面を表示</text><polygon fill="#181818" points="186,776.9219,196,780.9219,186,784.9219,190,780.9219" style="stroke:#181818;stroke-width:1.0;"/><line style="stroke:#181818;stroke-width:1.0;" x1="44" x2="192" y1="780.9219" y2="780.9219"/><text fill="#000000" font-family="sans-serif" font-size="13" lengthAdjust="spacing" textLength="91" x="51" y="775.856">確定ボタン押下</text><polygon fill="#181818" points="392,806.0547,402,810.0547,392,814.0547,396,810.0547" style="stroke:#181818;stroke-width:1.0;"/><line style="stroke:#181818;stroke-width:1.0;" x1="208" x2="398" y1="810.0547" y2="810.0547"/><text fill="#000000" font-family="sans-serif" font-size="13" lengthAdjust="spacing" textLength="111" x="215" y="804.9888">サイト情報更新API</text><polygon fill="#181818" points="219,820.0547,209,824.0547,219,828.0547,215,824.0547" style="stroke:#181818;stroke-width:1.0;"/><line style="stroke:#181818;stroke-width:1.0;" x1="213" x2="408" y1="824.0547" y2="824.0547"/><line style="stroke:#181818;stroke-width:1.0;" x1="208" x2="250" y1="860.1875" y2="860.1875"/><line style="stroke:#181818;stroke-width:1.0;" x1="250" x2="250" y1="860.1875" y2="873.1875"/><line style="stroke:#181818;stroke-width:1.0;" x1="209" x2="250" y1="873.1875" y2="873.1875"/><polygon fill="#181818" points="219,869.1875,209,873.1875,219,877.1875,215,873.1875" style="stroke:#181818;stroke-width:1.0;"/><text fill="#000000" font-family="sans-serif" font-size="13" lengthAdjust="spacing" textLength="143" x="215" y="855.1216">サイト設定情報画面表示</text><!--MD5=[e7454dd18024f85a70f83336c234ee80]
@startuml
title サイト設定変更

' アクター定義
actor "ユーザ" as user
participant "クライアント端末\n(PCまたはスマホ)" as device
participant "SonicHost API\n(CDN/API-Gateway)" as api

user -> device ++: HOME画面表示
rnote right of device #GreenYellow
    ログインフローを参照
end note
user -> device : サイト設定確認選択
device -> device : サイト設定情報画面表示
user -> device : 「更新」押下
device -> device : サイト設定更新画面表示

opt ドメイン情報を変更したい場合
    user -> device : ドメイン変更を押下
    device -> api ++ : ドメイン情報取得API
    device <- api - -
    device -> device : ドメイン変更画面を表示
    user -> device : 変更したい項目を入力
    user -> device : 確認ボタン押下
    device -> device : ドメイン変更確認画面表示
    user -> device : 確定ボタン押下
    device -> api ++ : ドメイン情報更新API
    device <- api - -
else ドメイン以外の除法を更新したい場合
    user -> device : 変更したい項目を入力
    user -> device : 確認ボタンを押下
    device -> device : サイト情報更新確認画面を表示
    user -> device : 確定ボタン押下
    device -> api ++ : サイト情報更新API
    device <- api - -
end
device -> device : サイト設定情報画面表示
@enduml

@startuml
title サイト設定変更

actor "ユーザ" as user
participant "クライアント端末\n(PCまたはスマホ)" as device
participant "SonicHost API\n(CDN/API-Gateway)" as api

user -> device ++: HOME画面表示
rnote right of device #GreenYellow
    ログインフローを参照
end note
user -> device : サイト設定確認選択
device -> device : サイト設定情報画面表示
user -> device : 「更新」押下
device -> device : サイト設定更新画面表示

opt ドメイン情報を変更したい場合
    user -> device : ドメイン変更を押下
    device -> api ++ : ドメイン情報取得API
    device <- api - -
    device -> device : ドメイン変更画面を表示
    user -> device : 変更したい項目を入力
    user -> device : 確認ボタン押下
    device -> device : ドメイン変更確認画面表示
    user -> device : 確定ボタン押下
    device -> api ++ : ドメイン情報更新API
    device <- api - -
else ドメイン以外の除法を更新したい場合
    user -> device : 変更したい項目を入力
    user -> device : 確認ボタンを押下
    device -> device : サイト情報更新確認画面を表示
    user -> device : 確定ボタン押下
    device -> api ++ : サイト情報更新API
    device <- api - -
end
device -> device : サイト設定情報画面表示
@enduml

PlantUML version 1.2022.14beta4(Unknown compile time)
(GPL source distribution)
Java Runtime: Java(TM) SE Runtime Environment
JVM: Java HotSpot(TM) 64-Bit Server VM
Default Encoding: UTF-8
Language: en
Country: US
--></g></svg>