<?xml version="1.0" encoding="UTF-8" standalone="no"?><svg xmlns="http://www.w3.org/2000/svg" xmlns:xlink="http://www.w3.org/1999/xlink" contentStyleType="text/css" height="773px" preserveAspectRatio="none" style="width:475px;height:773px;background:#FFFFFF;" version="1.1" viewBox="0 0 475 773" width="475px" zoomAndPan="magnify"><defs/><g><text fill="#000000" font-family="sans-serif" font-size="14" font-weight="bold" lengthAdjust="spacing" textLength="105" x="186.25" y="27.9951">サイト設定変更</text><rect fill="#FFFFFF" height="533.7969" style="stroke:#181818;stroke-width:1.0;" width="10" x="211" y="149.7266"/><rect fill="#FFFFFF" height="14" style="stroke:#181818;stroke-width:1.0;" width="10" x="378" y="351.6563"/><rect fill="#FFFFFF" height="14" style="stroke:#181818;stroke-width:1.0;" width="10" x="378" y="495.1875"/><rect fill="#FFFFFF" height="14" style="stroke:#181818;stroke-width:1.0;" width="10" x="378" y="611.3906"/><rect fill="none" height="349.1328" style="stroke:#000000;stroke-width:1.5;" width="458.5" x="10" y="284.2578"/><line style="stroke:#181818;stroke-width:0.5;stroke-dasharray:5.0,5.0;" x1="44" x2="44" y1="118.5938" y2="692.5234"/><line style="stroke:#181818;stroke-width:0.5;stroke-dasharray:5.0,5.0;" x1="215.5" x2="215.5" y1="118.5938" y2="692.5234"/><line style="stroke:#181818;stroke-width:0.5;stroke-dasharray:5.0,5.0;" x1="382.5" x2="382.5" y1="118.5938" y2="692.5234"/><text fill="#000000" font-family="sans-serif" font-size="14" lengthAdjust="spacing" textLength="42" x="20" y="115.292">ユーザ</text><ellipse cx="44" cy="50.7969" fill="#E2E2F0" rx="8" ry="8" style="stroke:#181818;stroke-width:0.5;"/><path d="M44,58.7969 L44,85.7969 M31,66.7969 L57,66.7969 M44,85.7969 L31,100.7969 M44,85.7969 L57,100.7969 " fill="none" style="stroke:#181818;stroke-width:0.5;"/><text fill="#000000" font-family="sans-serif" font-size="14" lengthAdjust="spacing" textLength="42" x="20" y="704.5186">ユーザ</text><ellipse cx="44" cy="716.3203" fill="#E2E2F0" rx="8" ry="8" style="stroke:#181818;stroke-width:0.5;"/><path d="M44,724.3203 L44,751.3203 M31,732.3203 L57,732.3203 M44,751.3203 L31,766.3203 M44,751.3203 L57,766.3203 " fill="none" style="stroke:#181818;stroke-width:0.5;"/><rect fill="#E2E2F0" height="46.5938" rx="2.5" ry="2.5" style="stroke:#181818;stroke-width:0.5;" width="127" x="152.5" y="71"/><text fill="#000000" font-family="sans-serif" font-size="14" lengthAdjust="spacing" textLength="112" x="160" y="90.9951">クライアント端末</text><text fill="#000000" font-family="sans-serif" font-size="14" lengthAdjust="spacing" textLength="113" x="159.5" y="107.292">(PCまたはスマホ)</text><rect fill="#E2E2F0" height="46.5938" rx="2.5" ry="2.5" style="stroke:#181818;stroke-width:0.5;" width="127" x="152.5" y="691.5234"/><text fill="#000000" font-family="sans-serif" font-size="14" lengthAdjust="spacing" textLength="112" x="160" y="711.5186">クライアント端末</text><text fill="#000000" font-family="sans-serif" font-size="14" lengthAdjust="spacing" textLength="113" x="159.5" y="727.8154">(PCまたはスマホ)</text><rect fill="#E2E2F0" height="46.5938" rx="2.5" ry="2.5" style="stroke:#181818;stroke-width:0.5;" width="151" x="307.5" y="71"/><text fill="#000000" font-family="sans-serif" font-size="14" lengthAdjust="spacing" textLength="99" x="333.5" y="90.9951">SonicHost API</text><text fill="#000000" font-family="sans-serif" font-size="14" lengthAdjust="spacing" textLength="137" x="314.5" y="107.292">(CDN/API-Gateway)</text><rect fill="#E2E2F0" height="46.5938" rx="2.5" ry="2.5" style="stroke:#181818;stroke-width:0.5;" width="151" x="307.5" y="691.5234"/><text fill="#000000" font-family="sans-serif" font-size="14" lengthAdjust="spacing" textLength="99" x="333.5" y="711.5186">SonicHost API</text><text fill="#000000" font-family="sans-serif" font-size="14" lengthAdjust="spacing" textLength="137" x="314.5" y="727.8154">(CDN/API-Gateway)</text><rect fill="#FFFFFF" height="533.7969" style="stroke:#181818;stroke-width:1.0;" width="10" x="211" y="149.7266"/><rect fill="#FFFFFF" height="14" style="stroke:#181818;stroke-width:1.0;" width="10" x="378" y="351.6563"/><rect fill="#FFFFFF" height="14" style="stroke:#181818;stroke-width:1.0;" width="10" x="378" y="495.1875"/><rect fill="#FFFFFF" height="14" style="stroke:#181818;stroke-width:1.0;" width="10" x="378" y="611.3906"/><polygon fill="#181818" points="199,145.7266,209,149.7266,199,153.7266,203,149.7266" style="stroke:#181818;stroke-width:1.0;"/><line style="stroke:#181818;stroke-width:1.0;" x1="44" x2="205" y1="149.7266" y2="149.7266"/><text fill="#000000" font-family="sans-serif" font-size="13" lengthAdjust="spacing" textLength="143" x="51" y="144.6606">コンテンツ更新画面表示</text><rect fill="#ADFF2F" height="23" style="stroke:#181818;stroke-width:0.5;" width="138" x="226" y="162.7266"/><text fill="#000000" font-family="sans-serif" font-size="13" lengthAdjust="spacing" textLength="130" x="230" y="178.7935">ログインフローを参照</text><polygon fill="#181818" points="199,223.125,209,227.125,199,231.125,203,227.125" style="stroke:#181818;stroke-width:1.0;"/><line style="stroke:#181818;stroke-width:1.0;" x1="44" x2="205" y1="227.125" y2="227.125"/><text fill="#000000" font-family="sans-serif" font-size="13" lengthAdjust="spacing" textLength="91" x="51" y="206.9263">サイト情報選択</text><text fill="#000000" font-family="sans-serif" font-size="13" lengthAdjust="spacing" textLength="143" x="51" y="222.0591">サイドメニューより選択</text><line style="stroke:#181818;stroke-width:1.0;" x1="221" x2="263" y1="256.2578" y2="256.2578"/><line style="stroke:#181818;stroke-width:1.0;" x1="263" x2="263" y1="256.2578" y2="269.2578"/><line style="stroke:#181818;stroke-width:1.0;" x1="222" x2="263" y1="269.2578" y2="269.2578"/><polygon fill="#181818" points="232,265.2578,222,269.2578,232,273.2578,228,269.2578" style="stroke:#181818;stroke-width:1.0;"/><text fill="#000000" font-family="sans-serif" font-size="13" lengthAdjust="spacing" textLength="143" x="228" y="251.1919">サイト設定確認画面表示</text><path d="M10,284.2578 L82,284.2578 L82,291.3906 L72,301.3906 L10,301.3906 L10,284.2578 " fill="#EEEEEE" style="stroke:#000000;stroke-width:1.5;"/><rect fill="none" height="349.1328" style="stroke:#000000;stroke-width:1.5;" width="458.5" x="10" y="284.2578"/><text fill="#000000" font-family="sans-serif" font-size="13" font-weight="bold" lengthAdjust="spacing" textLength="27" x="25" y="297.3247">opt</text><text fill="#000000" font-family="sans-serif" font-size="11" font-weight="bold" lengthAdjust="spacing" textLength="164" x="97" y="296.4683">[ドメイン情報を変更したい場合]</text><polygon fill="#181818" points="199,318.5234,209,322.5234,199,326.5234,203,322.5234" style="stroke:#181818;stroke-width:1.0;"/><line style="stroke:#181818;stroke-width:1.0;" x1="44" x2="205" y1="322.5234" y2="322.5234"/><text fill="#000000" font-family="sans-serif" font-size="13" lengthAdjust="spacing" textLength="117" x="51" y="317.4575">ドメイン変更を押下</text><polygon fill="#181818" points="366,347.6563,376,351.6563,366,355.6563,370,351.6563" style="stroke:#181818;stroke-width:1.0;"/><line style="stroke:#181818;stroke-width:1.0;" x1="221" x2="372" y1="351.6563" y2="351.6563"/><text fill="#000000" font-family="sans-serif" font-size="13" lengthAdjust="spacing" textLength="124" x="228" y="346.5903">ドメイン情報取得API</text><polygon fill="#181818" points="232,361.6563,222,365.6563,232,369.6563,228,365.6563" style="stroke:#181818;stroke-width:1.0;"/><line style="stroke:#181818;stroke-width:1.0;stroke-dasharray:2.0,2.0;" x1="226" x2="382" y1="365.6563" y2="365.6563"/><line style="stroke:#181818;stroke-width:1.0;" x1="221" x2="263" y1="394.7891" y2="394.7891"/><line style="stroke:#181818;stroke-width:1.0;" x1="263" x2="263" y1="394.7891" y2="407.7891"/><line style="stroke:#181818;stroke-width:1.0;" x1="222" x2="263" y1="407.7891" y2="407.7891"/><polygon fill="#181818" points="232,403.7891,222,407.7891,232,411.7891,228,407.7891" style="stroke:#181818;stroke-width:1.0;"/><text fill="#000000" font-family="sans-serif" font-size="13" lengthAdjust="spacing" textLength="143" x="228" y="389.7231">ドメイン変更画面を表示</text><polygon fill="#181818" points="199,432.9219,209,436.9219,199,440.9219,203,436.9219" style="stroke:#181818;stroke-width:1.0;"/><line style="stroke:#181818;stroke-width:1.0;" x1="44" x2="205" y1="436.9219" y2="436.9219"/><text fill="#000000" font-family="sans-serif" font-size="13" lengthAdjust="spacing" textLength="130" x="51" y="431.856">変更したい項目を入力</text><polygon fill="#181818" points="199,462.0547,209,466.0547,199,470.0547,203,466.0547" style="stroke:#181818;stroke-width:1.0;"/><line style="stroke:#181818;stroke-width:1.0;" x1="44" x2="205" y1="466.0547" y2="466.0547"/><text fill="#000000" font-family="sans-serif" font-size="13" lengthAdjust="spacing" textLength="91" x="51" y="460.9888">変更ボタン押下</text><polygon fill="#181818" points="366,491.1875,376,495.1875,366,499.1875,370,495.1875" style="stroke:#181818;stroke-width:1.0;"/><line style="stroke:#181818;stroke-width:1.0;" x1="221" x2="372" y1="495.1875" y2="495.1875"/><text fill="#000000" font-family="sans-serif" font-size="13" lengthAdjust="spacing" textLength="124" x="228" y="490.1216">ドメイン情報更新API</text><polygon fill="#181818" points="232,505.1875,222,509.1875,232,513.1875,228,509.1875" style="stroke:#181818;stroke-width:1.0;"/><line style="stroke:#181818;stroke-width:1.0;stroke-dasharray:2.0,2.0;" x1="226" x2="382" y1="509.1875" y2="509.1875"/><line style="stroke:#000000;stroke-width:1.0;stroke-dasharray:2.0,2.0;" x1="10" x2="468.5" y1="518.1875" y2="518.1875"/><text fill="#000000" font-family="sans-serif" font-size="11" font-weight="bold" lengthAdjust="spacing" textLength="197" x="15" y="528.3979">[ドメイン以外の情報を更新したい場合]</text><polygon fill="#181818" points="199,549.125,209,553.125,199,557.125,203,553.125" style="stroke:#181818;stroke-width:1.0;"/><line style="stroke:#181818;stroke-width:1.0;" x1="44" x2="205" y1="553.125" y2="553.125"/><text fill="#000000" font-family="sans-serif" font-size="13" lengthAdjust="spacing" textLength="130" x="51" y="548.0591">変更したい項目を入力</text><polygon fill="#181818" points="199,578.2578,209,582.2578,199,586.2578,203,582.2578" style="stroke:#181818;stroke-width:1.0;"/><line style="stroke:#181818;stroke-width:1.0;" x1="44" x2="205" y1="582.2578" y2="582.2578"/><text fill="#000000" font-family="sans-serif" font-size="13" lengthAdjust="spacing" textLength="91" x="51" y="577.1919">変更ボタン押下</text><polygon fill="#181818" points="366,607.3906,376,611.3906,366,615.3906,370,611.3906" style="stroke:#181818;stroke-width:1.0;"/><line style="stroke:#181818;stroke-width:1.0;" x1="221" x2="372" y1="611.3906" y2="611.3906"/><text fill="#000000" font-family="sans-serif" font-size="13" lengthAdjust="spacing" textLength="111" x="228" y="606.3247">サイト情報更新API</text><polygon fill="#181818" points="232,621.3906,222,625.3906,232,629.3906,228,625.3906" style="stroke:#181818;stroke-width:1.0;"/><line style="stroke:#181818;stroke-width:1.0;stroke-dasharray:2.0,2.0;" x1="226" x2="382" y1="625.3906" y2="625.3906"/><line style="stroke:#181818;stroke-width:1.0;" x1="221" x2="263" y1="661.5234" y2="661.5234"/><line style="stroke:#181818;stroke-width:1.0;" x1="263" x2="263" y1="661.5234" y2="674.5234"/><line style="stroke:#181818;stroke-width:1.0;" x1="222" x2="263" y1="674.5234" y2="674.5234"/><polygon fill="#181818" points="232,670.5234,222,674.5234,232,678.5234,228,674.5234" style="stroke:#181818;stroke-width:1.0;"/><text fill="#000000" font-family="sans-serif" font-size="13" lengthAdjust="spacing" textLength="143" x="228" y="656.4575">サイト設定確認画面表示</text><!--SRC=[jP9TInj158RlvrSCzaABBBqN4Og2zaO4hmhUBCbe5y9ks8nABtV6I8mKYzG8neyO4ZynAh75Bz8VSvpTv5zuTdQj9hLg1VTYsTtPzpdlUyxX5ayn2k8dY0h8N7FlIDNML6N1BvuHqeq7PH3787w3lCQ3eB5Fp0HtNDe5SWU_WVZLHSqCdSumbwHDbri9AstQ7CzH9lT3AY9a7Td1uR6_VZXXzumDWjS0Rmiy95-0t0HPVAynIJPZ9LWxQDonhSI8a-7quzWdL0yEZNx09sFOv6pM_1e9pRH5I6Y26WCnXVRszg7_kYu-h-zpcCeld0G_hbeRvURsNb2v9AxjS4PTQ-eBfyxadVRTiCkO_PcbKiuieNY1F09nefk4e9NmDKo_h9P4aDqbp4xI4DJfeU- -jRxCgj9fopltyviJzjtd1P3R81T1LZKl1o8V_K9YmgEiQ4n1-R9vyAqj3N7IdCPKxJMg6XhLCmLlLJT-JfNErFUSZlQtvGVwM2QM_VprpVcY5jmxmxPZcpiaKKcrL52DLHpKGqc_OMYDONI0dgWTvKC7SSH7BNUaQvMoGR4MfivMLRxuf4Qkw_Mk_s_0Q9V-7P2bCgnDTdDLLPK2UBK_CuaGBvh9smTitzDdqzd9LsteBG00]--></g></svg>