<?xml version="1.0" encoding="us-ascii" standalone="no"?><svg xmlns="http://www.w3.org/2000/svg" xmlns:xlink="http://www.w3.org/1999/xlink" contentStyleType="text/css" height="818px" preserveAspectRatio="none" style="width:517px;height:818px;background:#FFFFFF;" version="1.1" viewBox="0 0 517 818" width="517px" zoomAndPan="magnify"><defs/><g><text fill="#000000" font-family="sans-serif" font-size="14" font-weight="bold" lengthAdjust="spacing" textLength="105" x="207.25" y="27.9951">&#12469;&#12452;&#12488;&#35373;&#23450;&#22793;&#26356;</text><rect fill="#FFFFFF" height="579.1953" style="stroke:#181818;stroke-width:1.0;" width="10" x="211" y="149.7266"/><rect fill="#FFFFFF" height="14" style="stroke:#181818;stroke-width:1.0;" width="10" x="420" y="366.7891"/><rect fill="#FFFFFF" height="14" style="stroke:#181818;stroke-width:1.0;" width="10" x="420" y="525.4531"/><rect fill="#FFFFFF" height="14" style="stroke:#181818;stroke-width:1.0;" width="10" x="420" y="656.7891"/><rect fill="none" height="394.5313" style="stroke:#000000;stroke-width:1.5;" width="500.5" x="10" y="284.2578"/><line style="stroke:#181818;stroke-width:0.5;stroke-dasharray:5.0,5.0;" x1="44" x2="44" y1="118.5938" y2="737.9219"/><line style="stroke:#181818;stroke-width:0.5;stroke-dasharray:5.0,5.0;" x1="215.5" x2="215.5" y1="118.5938" y2="737.9219"/><line style="stroke:#181818;stroke-width:0.5;stroke-dasharray:5.0,5.0;" x1="424.5" x2="424.5" y1="118.5938" y2="737.9219"/><text fill="#000000" font-family="sans-serif" font-size="14" lengthAdjust="spacing" textLength="42" x="20" y="115.292">&#12518;&#12540;&#12470;</text><ellipse cx="44" cy="50.7969" fill="#E2E2F0" rx="8" ry="8" style="stroke:#181818;stroke-width:0.5;"/><path d="M44,58.7969 L44,85.7969 M31,66.7969 L57,66.7969 M44,85.7969 L31,100.7969 M44,85.7969 L57,100.7969 " fill="none" style="stroke:#181818;stroke-width:0.5;"/><text fill="#000000" font-family="sans-serif" font-size="14" lengthAdjust="spacing" textLength="42" x="20" y="749.917">&#12518;&#12540;&#12470;</text><ellipse cx="44" cy="761.7188" fill="#E2E2F0" rx="8" ry="8" style="stroke:#181818;stroke-width:0.5;"/><path d="M44,769.7188 L44,796.7188 M31,777.7188 L57,777.7188 M44,796.7188 L31,811.7188 M44,796.7188 L57,811.7188 " fill="none" style="stroke:#181818;stroke-width:0.5;"/><rect fill="#E2E2F0" height="46.5938" rx="2.5" ry="2.5" style="stroke:#181818;stroke-width:0.5;" width="127" x="152.5" y="71"/><text fill="#000000" font-family="sans-serif" font-size="14" lengthAdjust="spacing" textLength="112" x="160" y="90.9951">&#12463;&#12521;&#12452;&#12450;&#12531;&#12488;&#31471;&#26411;</text><text fill="#000000" font-family="sans-serif" font-size="14" lengthAdjust="spacing" textLength="113" x="159.5" y="107.292">(PC&#12414;&#12383;&#12399;&#12473;&#12510;&#12507;)</text><rect fill="#E2E2F0" height="46.5938" rx="2.5" ry="2.5" style="stroke:#181818;stroke-width:0.5;" width="127" x="152.5" y="736.9219"/><text fill="#000000" font-family="sans-serif" font-size="14" lengthAdjust="spacing" textLength="112" x="160" y="756.917">&#12463;&#12521;&#12452;&#12450;&#12531;&#12488;&#31471;&#26411;</text><text fill="#000000" font-family="sans-serif" font-size="14" lengthAdjust="spacing" textLength="113" x="159.5" y="773.2139">(PC&#12414;&#12383;&#12399;&#12473;&#12510;&#12507;)</text><rect fill="#E2E2F0" height="46.5938" rx="2.5" ry="2.5" style="stroke:#181818;stroke-width:0.5;" width="151" x="349.5" y="71"/><text fill="#000000" font-family="sans-serif" font-size="14" lengthAdjust="spacing" textLength="99" x="375.5" y="90.9951">SonicHost API</text><text fill="#000000" font-family="sans-serif" font-size="14" lengthAdjust="spacing" textLength="137" x="356.5" y="107.292">(CDN/API-Gateway)</text><rect fill="#E2E2F0" height="46.5938" rx="2.5" ry="2.5" style="stroke:#181818;stroke-width:0.5;" width="151" x="349.5" y="736.9219"/><text fill="#000000" font-family="sans-serif" font-size="14" lengthAdjust="spacing" textLength="99" x="375.5" y="756.917">SonicHost API</text><text fill="#000000" font-family="sans-serif" font-size="14" lengthAdjust="spacing" textLength="137" x="356.5" y="773.2139">(CDN/API-Gateway)</text><rect fill="#FFFFFF" height="579.1953" style="stroke:#181818;stroke-width:1.0;" width="10" x="211" y="149.7266"/><rect fill="#FFFFFF" height="14" style="stroke:#181818;stroke-width:1.0;" width="10" x="420" y="366.7891"/><rect fill="#FFFFFF" height="14" style="stroke:#181818;stroke-width:1.0;" width="10" x="420" y="525.4531"/><rect fill="#FFFFFF" height="14" style="stroke:#181818;stroke-width:1.0;" width="10" x="420" y="656.7891"/><polygon fill="#181818" points="199,145.7266,209,149.7266,199,153.7266,203,149.7266" style="stroke:#181818;stroke-width:1.0;"/><line style="stroke:#181818;stroke-width:1.0;" x1="44" x2="205" y1="149.7266" y2="149.7266"/><text fill="#000000" font-family="sans-serif" font-size="13" lengthAdjust="spacing" textLength="143" x="51" y="144.6606">&#12467;&#12531;&#12486;&#12531;&#12484;&#26356;&#26032;&#30011;&#38754;&#34920;&#31034;</text><rect fill="#ADFF2F" height="23" style="stroke:#181818;stroke-width:0.5;" width="138" x="226" y="162.7266"/><text fill="#000000" font-family="sans-serif" font-size="13" lengthAdjust="spacing" textLength="130" x="230" y="178.7935">&#12525;&#12464;&#12452;&#12531;&#12501;&#12525;&#12540;&#12434;&#21442;&#29031;</text><polygon fill="#181818" points="199,223.125,209,227.125,199,231.125,203,227.125" style="stroke:#181818;stroke-width:1.0;"/><line style="stroke:#181818;stroke-width:1.0;" x1="44" x2="205" y1="227.125" y2="227.125"/><text fill="#000000" font-family="sans-serif" font-size="13" lengthAdjust="spacing" textLength="91" x="51" y="206.9263">&#12469;&#12452;&#12488;&#24773;&#22577;&#36984;&#25246;</text><text fill="#000000" font-family="sans-serif" font-size="13" lengthAdjust="spacing" textLength="143" x="51" y="222.0591">&#12469;&#12452;&#12489;&#12513;&#12491;&#12517;&#12540;&#12424;&#12426;&#36984;&#25246;</text><line style="stroke:#181818;stroke-width:1.0;" x1="221" x2="263" y1="256.2578" y2="256.2578"/><line style="stroke:#181818;stroke-width:1.0;" x1="263" x2="263" y1="256.2578" y2="269.2578"/><line style="stroke:#181818;stroke-width:1.0;" x1="222" x2="263" y1="269.2578" y2="269.2578"/><polygon fill="#181818" points="232,265.2578,222,269.2578,232,273.2578,228,269.2578" style="stroke:#181818;stroke-width:1.0;"/><text fill="#000000" font-family="sans-serif" font-size="13" lengthAdjust="spacing" textLength="143" x="228" y="251.1919">&#12469;&#12452;&#12488;&#35373;&#23450;&#30906;&#35469;&#30011;&#38754;&#34920;&#31034;</text><path d="M10,284.2578 L82,284.2578 L82,291.3906 L72,301.3906 L10,301.3906 L10,284.2578 " fill="#EEEEEE" style="stroke:#000000;stroke-width:1.5;"/><rect fill="none" height="394.5313" style="stroke:#000000;stroke-width:1.5;" width="500.5" x="10" y="284.2578"/><text fill="#000000" font-family="sans-serif" font-size="13" font-weight="bold" lengthAdjust="spacing" textLength="27" x="25" y="297.3247">opt</text><text fill="#000000" font-family="sans-serif" font-size="11" font-weight="bold" lengthAdjust="spacing" textLength="164" x="97" y="296.4683">[&#12489;&#12513;&#12452;&#12531;&#24773;&#22577;&#12434;&#22793;&#26356;&#12375;&#12383;&#12356;&#22580;&#21512;]</text><polygon fill="#181818" points="199,318.5234,209,322.5234,199,326.5234,203,322.5234" style="stroke:#181818;stroke-width:1.0;"/><line style="stroke:#181818;stroke-width:1.0;" x1="44" x2="205" y1="322.5234" y2="322.5234"/><text fill="#000000" font-family="sans-serif" font-size="13" lengthAdjust="spacing" textLength="117" x="51" y="317.4575">&#12489;&#12513;&#12452;&#12531;&#22793;&#26356;&#12434;&#25276;&#19979;</text><polygon fill="#181818" points="408,362.7891,418,366.7891,408,370.7891,412,366.7891" style="stroke:#181818;stroke-width:1.0;"/><line style="stroke:#181818;stroke-width:1.0;" x1="221" x2="414" y1="366.7891" y2="366.7891"/><text fill="#000000" font-family="sans-serif" font-size="13" lengthAdjust="spacing" textLength="176" x="228" y="346.5903">&#12469;&#12452;&#12488;&#29992;&#12469;&#12502;&#12489;&#12513;&#12452;&#12531;&#21462;&#24471;API</text><text fill="#000000" font-family="sans-serif" font-size="13" lengthAdjust="spacing" textLength="167" x="228" y="361.7231">/site/{id}/subDomain GET</text><polygon fill="#181818" points="232,376.7891,222,380.7891,232,384.7891,228,380.7891" style="stroke:#181818;stroke-width:1.0;"/><line style="stroke:#181818;stroke-width:1.0;stroke-dasharray:2.0,2.0;" x1="226" x2="424" y1="380.7891" y2="380.7891"/><line style="stroke:#181818;stroke-width:1.0;" x1="221" x2="263" y1="409.9219" y2="409.9219"/><line style="stroke:#181818;stroke-width:1.0;" x1="263" x2="263" y1="409.9219" y2="422.9219"/><line style="stroke:#181818;stroke-width:1.0;" x1="222" x2="263" y1="422.9219" y2="422.9219"/><polygon fill="#181818" points="232,418.9219,222,422.9219,232,426.9219,228,422.9219" style="stroke:#181818;stroke-width:1.0;"/><text fill="#000000" font-family="sans-serif" font-size="13" lengthAdjust="spacing" textLength="143" x="228" y="404.856">&#12489;&#12513;&#12452;&#12531;&#22793;&#26356;&#30011;&#38754;&#12434;&#34920;&#31034;</text><polygon fill="#181818" points="199,448.0547,209,452.0547,199,456.0547,203,452.0547" style="stroke:#181818;stroke-width:1.0;"/><line style="stroke:#181818;stroke-width:1.0;" x1="44" x2="205" y1="452.0547" y2="452.0547"/><text fill="#000000" font-family="sans-serif" font-size="13" lengthAdjust="spacing" textLength="130" x="51" y="446.9888">&#22793;&#26356;&#12375;&#12383;&#12356;&#38917;&#30446;&#12434;&#20837;&#21147;</text><polygon fill="#181818" points="199,477.1875,209,481.1875,199,485.1875,203,481.1875" style="stroke:#181818;stroke-width:1.0;"/><line style="stroke:#181818;stroke-width:1.0;" x1="44" x2="205" y1="481.1875" y2="481.1875"/><text fill="#000000" font-family="sans-serif" font-size="13" lengthAdjust="spacing" textLength="91" x="51" y="476.1216">&#22793;&#26356;&#12508;&#12479;&#12531;&#25276;&#19979;</text><polygon fill="#181818" points="408,521.4531,418,525.4531,408,529.4531,412,525.4531" style="stroke:#181818;stroke-width:1.0;"/><line style="stroke:#181818;stroke-width:1.0;" x1="221" x2="414" y1="525.4531" y2="525.4531"/><text fill="#000000" font-family="sans-serif" font-size="13" lengthAdjust="spacing" textLength="176" x="228" y="505.2544">&#12469;&#12452;&#12488;&#29992;&#12469;&#12502;&#12489;&#12513;&#12452;&#12531;&#26356;&#26032;API</text><text fill="#000000" font-family="sans-serif" font-size="13" lengthAdjust="spacing" textLength="166" x="228" y="520.3872">/site/{id}/subDomain PUT</text><polygon fill="#181818" points="232,535.4531,222,539.4531,232,543.4531,228,539.4531" style="stroke:#181818;stroke-width:1.0;"/><line style="stroke:#181818;stroke-width:1.0;stroke-dasharray:2.0,2.0;" x1="226" x2="424" y1="539.4531" y2="539.4531"/><line style="stroke:#000000;stroke-width:1.0;stroke-dasharray:2.0,2.0;" x1="10" x2="510.5" y1="548.4531" y2="548.4531"/><text fill="#000000" font-family="sans-serif" font-size="11" font-weight="bold" lengthAdjust="spacing" textLength="197" x="15" y="558.6636">[&#12489;&#12513;&#12452;&#12531;&#20197;&#22806;&#12398;&#24773;&#22577;&#12434;&#26356;&#26032;&#12375;&#12383;&#12356;&#22580;&#21512;]</text><polygon fill="#181818" points="199,579.3906,209,583.3906,199,587.3906,203,583.3906" style="stroke:#181818;stroke-width:1.0;"/><line style="stroke:#181818;stroke-width:1.0;" x1="44" x2="205" y1="583.3906" y2="583.3906"/><text fill="#000000" font-family="sans-serif" font-size="13" lengthAdjust="spacing" textLength="130" x="51" y="578.3247">&#22793;&#26356;&#12375;&#12383;&#12356;&#38917;&#30446;&#12434;&#20837;&#21147;</text><polygon fill="#181818" points="199,608.5234,209,612.5234,199,616.5234,203,612.5234" style="stroke:#181818;stroke-width:1.0;"/><line style="stroke:#181818;stroke-width:1.0;" x1="44" x2="205" y1="612.5234" y2="612.5234"/><text fill="#000000" font-family="sans-serif" font-size="13" lengthAdjust="spacing" textLength="91" x="51" y="607.4575">&#22793;&#26356;&#12508;&#12479;&#12531;&#25276;&#19979;</text><polygon fill="#181818" points="408,652.7891,418,656.7891,408,660.7891,412,656.7891" style="stroke:#181818;stroke-width:1.0;"/><line style="stroke:#181818;stroke-width:1.0;" x1="221" x2="414" y1="656.7891" y2="656.7891"/><text fill="#000000" font-family="sans-serif" font-size="13" lengthAdjust="spacing" textLength="85" x="228" y="636.5903">&#12469;&#12452;&#12488;&#26356;&#26032;API</text><text fill="#000000" font-family="sans-serif" font-size="13" lengthAdjust="spacing" textLength="89" x="228" y="651.7231">/site/{id} PUT</text><polygon fill="#181818" points="232,666.7891,222,670.7891,232,674.7891,228,670.7891" style="stroke:#181818;stroke-width:1.0;"/><line style="stroke:#181818;stroke-width:1.0;stroke-dasharray:2.0,2.0;" x1="226" x2="424" y1="670.7891" y2="670.7891"/><line style="stroke:#181818;stroke-width:1.0;" x1="221" x2="263" y1="706.9219" y2="706.9219"/><line style="stroke:#181818;stroke-width:1.0;" x1="263" x2="263" y1="706.9219" y2="719.9219"/><line style="stroke:#181818;stroke-width:1.0;" x1="222" x2="263" y1="719.9219" y2="719.9219"/><polygon fill="#181818" points="232,715.9219,222,719.9219,232,723.9219,228,719.9219" style="stroke:#181818;stroke-width:1.0;"/><text fill="#000000" font-family="sans-serif" font-size="13" lengthAdjust="spacing" textLength="143" x="228" y="701.856">&#12469;&#12452;&#12488;&#35373;&#23450;&#30906;&#35469;&#30011;&#38754;&#34920;&#31034;</text><!--SRC=[lPFHQzD07CVVxwyujWUL4Ve-H91Dwbwae3u8VOdjgGVrKfARGyI7v5RfEcGoPWTspgwqM-TOD-cKkOtwn_nsIVjVUBbahgsrYCBo499Slf_xVh-_X5EU8nYyh-3LGHIxpNtP-Y3hItxb2A5hQg46tW5uFq2SgOMWiulC3BTiF05YMpq3xzi4DXqyxn0RvKsRqmpDcuohTIKJko5L8KHRiOEz0tzZByskfsR0xO3x2Ln5_WvY4qJbXiPaoGkQ8OEW-nQZcRkMm_7jr9nIpypUIwWh8sboic2-Z8HcdY8Kci36hPY2fwQcbV-stloDFY-gL7xvC5WxxNsiTRUQGVq4sSpY1DlqwJEEhISNsicaJGXxH78vQm5XTO3O1-zGbwH0xyFRCFsgNF62mWuYB8j3qB27wSjgVL6GrIyzzzWlRQRPnUCb45iWba4qDAy8NYbw1SM4aQneJ47jfFlvxK0QPEKvZgdQQxHhQ5JF5DnrNVoYh1x9TqKTxNVBVVfOvgtwfRFpusKjk7IcQbSrzpiBrfhXjIWFG5RAihEkXeRJBE5GJXAlQFPrmfb_F6izDod3oJiF-iat3KEZ3MDelp4MengKqRY9aSc6IkXL2q6b5PPJQCXIPQn6REY_eFq_FKIVtvWUKW__r0F9EMGWzVbfGzRBuBP-JJYY_zM4hww7qP771MNPV_hqVm80]--></g></svg>