<?xml version="1.0" encoding="UTF-8" standalone="no"?><svg xmlns="http://www.w3.org/2000/svg" xmlns:xlink="http://www.w3.org/1999/xlink" contentStyleType="text/css" height="812px" preserveAspectRatio="none" style="width:479px;height:812px;background:#FFFFFF;" version="1.1" viewBox="0 0 479 812" width="479px" zoomAndPan="magnify"><defs/><g><text fill="#000000" font-family="sans-serif" font-size="14" font-weight="bold" lengthAdjust="spacing" textLength="165" x="156.25" y="27.9951">登録メールアドレス変更</text><rect fill="#FFFFFF" height="573.2578" style="stroke:#181818;stroke-width:1.0;" width="10" x="209" y="149.7266"/><rect fill="#FFFFFF" height="43.1328" style="stroke:#181818;stroke-width:1.0;" width="10" x="428" y="499.1875"/><line style="stroke:#181818;stroke-width:0.5;stroke-dasharray:5.0,5.0;" x1="29" x2="29" y1="118.5938" y2="731.9844"/><line style="stroke:#181818;stroke-width:0.5;stroke-dasharray:5.0,5.0;" x1="213.5" x2="213.5" y1="118.5938" y2="731.9844"/><line style="stroke:#181818;stroke-width:0.5;stroke-dasharray:5.0,5.0;" x1="432.5" x2="432.5" y1="118.5938" y2="731.9844"/><text fill="#000000" font-family="sans-serif" font-size="14" lengthAdjust="spacing" textLength="42" x="5" y="115.292">ユーザ</text><ellipse cx="29" cy="50.7969" fill="#E2E2F0" rx="8" ry="8" style="stroke:#181818;stroke-width:0.5;"/><path d="M29,58.7969 L29,85.7969 M16,66.7969 L42,66.7969 M29,85.7969 L16,100.7969 M29,85.7969 L42,100.7969 " fill="none" style="stroke:#181818;stroke-width:0.5;"/><text fill="#000000" font-family="sans-serif" font-size="14" lengthAdjust="spacing" textLength="42" x="5" y="743.9795">ユーザ</text><ellipse cx="29" cy="755.7813" fill="#E2E2F0" rx="8" ry="8" style="stroke:#181818;stroke-width:0.5;"/><path d="M29,763.7813 L29,790.7813 M16,771.7813 L42,771.7813 M29,790.7813 L16,805.7813 M29,790.7813 L42,805.7813 " fill="none" style="stroke:#181818;stroke-width:0.5;"/><rect fill="#E2E2F0" height="46.5938" rx="2.5" ry="2.5" style="stroke:#181818;stroke-width:0.5;" width="127" x="150.5" y="71"/><text fill="#000000" font-family="sans-serif" font-size="14" lengthAdjust="spacing" textLength="112" x="158" y="90.9951">クライアント端末</text><text fill="#000000" font-family="sans-serif" font-size="14" lengthAdjust="spacing" textLength="113" x="157.5" y="107.292">(PCまたはスマホ)</text><rect fill="#E2E2F0" height="46.5938" rx="2.5" ry="2.5" style="stroke:#181818;stroke-width:0.5;" width="127" x="150.5" y="730.9844"/><text fill="#000000" font-family="sans-serif" font-size="14" lengthAdjust="spacing" textLength="112" x="158" y="750.9795">クライアント端末</text><text fill="#000000" font-family="sans-serif" font-size="14" lengthAdjust="spacing" textLength="113" x="157.5" y="767.2764">(PCまたはスマホ)</text><rect fill="#E2E2F0" height="46.5938" rx="2.5" ry="2.5" style="stroke:#181818;stroke-width:0.5;" width="81" x="392.5" y="71"/><text fill="#000000" font-family="sans-serif" font-size="14" lengthAdjust="spacing" textLength="56" x="405" y="90.9951">認証基盤</text><text fill="#000000" font-family="sans-serif" font-size="14" lengthAdjust="spacing" textLength="67" x="399.5" y="107.292">(Cognito)</text><rect fill="#E2E2F0" height="46.5938" rx="2.5" ry="2.5" style="stroke:#181818;stroke-width:0.5;" width="81" x="392.5" y="730.9844"/><text fill="#000000" font-family="sans-serif" font-size="14" lengthAdjust="spacing" textLength="56" x="405" y="750.9795">認証基盤</text><text fill="#000000" font-family="sans-serif" font-size="14" lengthAdjust="spacing" textLength="67" x="399.5" y="767.2764">(Cognito)</text><rect fill="#FFFFFF" height="573.2578" style="stroke:#181818;stroke-width:1.0;" width="10" x="209" y="149.7266"/><rect fill="#FFFFFF" height="43.1328" style="stroke:#181818;stroke-width:1.0;" width="10" x="428" y="499.1875"/><polygon fill="#181818" points="197,145.7266,207,149.7266,197,153.7266,201,149.7266" style="stroke:#181818;stroke-width:1.0;"/><line style="stroke:#181818;stroke-width:1.0;" x1="29" x2="203" y1="149.7266" y2="149.7266"/><text fill="#000000" font-family="sans-serif" font-size="13" lengthAdjust="spacing" textLength="89" x="36" y="144.6606">HOME画面表示</text><rect fill="#ADFF2F" height="23" style="stroke:#181818;stroke-width:0.5;" width="138" x="224" y="162.7266"/><text fill="#000000" font-family="sans-serif" font-size="13" lengthAdjust="spacing" textLength="130" x="228" y="178.7935">ログインフローを参照</text><polygon fill="#181818" points="197,207.9922,207,211.9922,197,215.9922,201,211.9922" style="stroke:#181818;stroke-width:1.0;"/><line style="stroke:#181818;stroke-width:1.0;" x1="29" x2="203" y1="211.9922" y2="211.9922"/><text fill="#000000" font-family="sans-serif" font-size="13" lengthAdjust="spacing" textLength="117" x="36" y="206.9263">ユーザアイコン押下</text><line style="stroke:#181818;stroke-width:1.0;" x1="219" x2="261" y1="241.125" y2="241.125"/><line style="stroke:#181818;stroke-width:1.0;" x1="261" x2="261" y1="241.125" y2="254.125"/><line style="stroke:#181818;stroke-width:1.0;" x1="220" x2="261" y1="254.125" y2="254.125"/><polygon fill="#181818" points="230,250.125,220,254.125,230,258.125,226,254.125" style="stroke:#181818;stroke-width:1.0;"/><text fill="#000000" font-family="sans-serif" font-size="13" lengthAdjust="spacing" textLength="130" x="226" y="236.0591">ユーザメニューを表示</text><polygon fill="#181818" points="197,279.2578,207,283.2578,197,287.2578,201,283.2578" style="stroke:#181818;stroke-width:1.0;"/><line style="stroke:#181818;stroke-width:1.0;" x1="29" x2="203" y1="283.2578" y2="283.2578"/><text fill="#000000" font-family="sans-serif" font-size="13" lengthAdjust="spacing" textLength="143" x="36" y="278.1919">セキュリティ確認を押下</text><line style="stroke:#181818;stroke-width:1.0;" x1="219" x2="261" y1="312.3906" y2="312.3906"/><line style="stroke:#181818;stroke-width:1.0;" x1="261" x2="261" y1="312.3906" y2="325.3906"/><line style="stroke:#181818;stroke-width:1.0;" x1="220" x2="261" y1="325.3906" y2="325.3906"/><polygon fill="#181818" points="230,321.3906,220,325.3906,230,329.3906,226,325.3906" style="stroke:#181818;stroke-width:1.0;"/><text fill="#000000" font-family="sans-serif" font-size="13" lengthAdjust="spacing" textLength="169" x="226" y="307.3247">セキュリティ設定画面を表示</text><polygon fill="#181818" points="197,350.5234,207,354.5234,197,358.5234,201,354.5234" style="stroke:#181818;stroke-width:1.0;"/><line style="stroke:#181818;stroke-width:1.0;" x1="29" x2="203" y1="354.5234" y2="354.5234"/><text fill="#000000" font-family="sans-serif" font-size="13" lengthAdjust="spacing" textLength="156" x="36" y="349.4575">メールアドレス変更を押下</text><line style="stroke:#181818;stroke-width:1.0;" x1="219" x2="261" y1="383.6563" y2="383.6563"/><line style="stroke:#181818;stroke-width:1.0;" x1="261" x2="261" y1="383.6563" y2="396.6563"/><line style="stroke:#181818;stroke-width:1.0;" x1="220" x2="261" y1="396.6563" y2="396.6563"/><polygon fill="#181818" points="230,392.6563,220,396.6563,230,400.6563,226,396.6563" style="stroke:#181818;stroke-width:1.0;"/><text fill="#000000" font-family="sans-serif" font-size="13" lengthAdjust="spacing" textLength="182" x="226" y="378.5903">メールアドレス変更画面を表示</text><polygon fill="#181818" points="197,421.7891,207,425.7891,197,429.7891,201,425.7891" style="stroke:#181818;stroke-width:1.0;"/><line style="stroke:#181818;stroke-width:1.0;" x1="29" x2="203" y1="425.7891" y2="425.7891"/><text fill="#000000" font-family="sans-serif" font-size="13" lengthAdjust="spacing" textLength="143" x="36" y="420.7231">新メールアドレスを入力</text><polygon fill="#181818" points="197,450.9219,207,454.9219,197,458.9219,201,454.9219" style="stroke:#181818;stroke-width:1.0;"/><line style="stroke:#181818;stroke-width:1.0;" x1="29" x2="203" y1="454.9219" y2="454.9219"/><text fill="#000000" font-family="sans-serif" font-size="13" lengthAdjust="spacing" textLength="78" x="36" y="449.856">「送信」押下</text><polygon fill="#181818" points="416,495.1875,426,499.1875,416,503.1875,420,499.1875" style="stroke:#181818;stroke-width:1.0;"/><line style="stroke:#181818;stroke-width:1.0;" x1="219" x2="422" y1="499.1875" y2="499.1875"/><text fill="#000000" font-family="sans-serif" font-size="13" lengthAdjust="spacing" textLength="111" x="226" y="478.9888">ユーザ情報更新API</text><text fill="#000000" font-family="sans-serif" font-size="13" lengthAdjust="spacing" textLength="163" x="226" y="494.1216">（updateUserAttributes）</text><polygon fill="#181818" points="40,524.3203,30,528.3203,40,532.3203,36,528.3203" style="stroke:#181818;stroke-width:1.0;"/><line style="stroke:#181818;stroke-width:1.0;" x1="34" x2="427" y1="528.3203" y2="528.3203"/><text fill="#000000" font-family="sans-serif" font-size="13" lengthAdjust="spacing" textLength="169" x="46" y="523.2544">検証コード付きメールを送信</text><polygon fill="#181818" points="230,538.3203,220,542.3203,230,546.3203,226,542.3203" style="stroke:#181818;stroke-width:1.0;"/><line style="stroke:#181818;stroke-width:1.0;stroke-dasharray:2.0,2.0;" x1="224" x2="432" y1="542.3203" y2="542.3203"/><polygon fill="#181818" points="197,567.4531,207,571.4531,197,575.4531,201,571.4531" style="stroke:#181818;stroke-width:1.0;"/><line style="stroke:#181818;stroke-width:1.0;" x1="29" x2="203" y1="571.4531" y2="571.4531"/><text fill="#000000" font-family="sans-serif" font-size="13" lengthAdjust="spacing" textLength="91" x="36" y="566.3872">検証コード入力</text><polygon fill="#181818" points="197,596.5859,207,600.5859,197,604.5859,201,600.5859" style="stroke:#181818;stroke-width:1.0;"/><line style="stroke:#181818;stroke-width:1.0;" x1="29" x2="203" y1="600.5859" y2="600.5859"/><text fill="#000000" font-family="sans-serif" font-size="13" lengthAdjust="spacing" textLength="52" x="36" y="595.52">変更押下</text><line style="stroke:#181818;stroke-width:1.0;" x1="219" x2="261" y1="629.7188" y2="629.7188"/><line style="stroke:#181818;stroke-width:1.0;" x1="261" x2="261" y1="629.7188" y2="642.7188"/><line style="stroke:#181818;stroke-width:1.0;" x1="220" x2="261" y1="642.7188" y2="642.7188"/><polygon fill="#181818" points="230,638.7188,220,642.7188,230,646.7188,226,642.7188" style="stroke:#181818;stroke-width:1.0;"/><text fill="#000000" font-family="sans-serif" font-size="13" lengthAdjust="spacing" textLength="195" x="226" y="624.6528">メールアドレス変更完了画面表示</text><polygon fill="#181818" points="197,667.8516,207,671.8516,197,675.8516,201,671.8516" style="stroke:#181818;stroke-width:1.0;"/><line style="stroke:#181818;stroke-width:1.0;" x1="29" x2="203" y1="671.8516" y2="671.8516"/><text fill="#000000" font-family="sans-serif" font-size="13" lengthAdjust="spacing" textLength="78" x="36" y="666.7856">確認完了押下</text><line style="stroke:#181818;stroke-width:1.0;" x1="219" x2="261" y1="700.9844" y2="700.9844"/><line style="stroke:#181818;stroke-width:1.0;" x1="261" x2="261" y1="700.9844" y2="713.9844"/><line style="stroke:#181818;stroke-width:1.0;" x1="220" x2="261" y1="713.9844" y2="713.9844"/><polygon fill="#181818" points="230,709.9844,220,713.9844,230,717.9844,226,713.9844" style="stroke:#181818;stroke-width:1.0;"/><text fill="#000000" font-family="sans-serif" font-size="13" lengthAdjust="spacing" textLength="89" x="226" y="695.9185">HOME画面表示</text><!--SRC=[dLFFJXD16B_FKqpme8Ri2n1ZGeXH3qOk7aouhEs8cpIxpNOgr-vCIYYqCI5grABOkcYX5X08aNO33_DrTziJh-0tkosXtRO7zpQxlt_VRxxb1iym6dxkzCid86iWFP1D47MG9P2_GLpuRYcedX5obwgtuWZ45OBymo_XvJxHKzoowHp8dueepkUedgFv7BD9LhUvaJAokidnEzBaFWWt4Zu5kH4sZuATvefvRta9d4jmTi51vGkGtq1MxqSoQVRMIB5HeTv1fTVm_DrsM7MHl6IjcWQtOdmgFX2Y_AdsS210v-SNw9Fdpnw5xplzh_LUhH6wRMAR5cVKDbRVS6gz7aBlFBOPCr-oJCPQ8nGVa2qGnoguIlr17TMSs_ux4HP_4MQcgH8QjroWDur4fU7SI3yDDhtktoqo04s6golO0haN-mpI9kL51qGhWXs0N0Vn8wotiHoap319a7gDbhh8g9XPRjFtOhRXTDwO9qsQ1X-F9_9L-yKzVxCw8MUXt2yutQiQ52g9L8Frm7MutNSWY_xtFnW8xHQNdwwOrzv6FflMENk1wekSsyQhF6UvQwz4XWee5bbZHdS7rp6wN8nPwdO-WLEvbNexZZDCyK3JRc9eseIHH-McZHat-5-r-uVbRdjzv4z8oCUR52Edcup_KVy0]--></g></svg>