<?xml version="1.0" encoding="UTF-8" standalone="no"?><svg xmlns="http://www.w3.org/2000/svg" xmlns:xlink="http://www.w3.org/1999/xlink" contentStyleType="text/css" height="783px" preserveAspectRatio="none" style="width:492px;height:783px;background:#FFFFFF;" version="1.1" viewBox="0 0 492 783" width="492px" zoomAndPan="magnify"><defs/><g><text fill="#000000" font-family="sans-serif" font-size="14" font-weight="bold" lengthAdjust="spacing" textLength="165" x="162.75" y="27.9951">登録メールアドレス変更</text><rect fill="#FFFFFF" height="544.125" style="stroke:#181818;stroke-width:1.0;" width="10" x="209" y="149.7266"/><rect fill="#FFFFFF" height="43.1328" style="stroke:#181818;stroke-width:1.0;" width="10" x="441" y="499.1875"/><line style="stroke:#181818;stroke-width:0.5;stroke-dasharray:5.0,5.0;" x1="29" x2="29" y1="118.5938" y2="702.8516"/><line style="stroke:#181818;stroke-width:0.5;stroke-dasharray:5.0,5.0;" x1="213.5" x2="213.5" y1="118.5938" y2="702.8516"/><line style="stroke:#181818;stroke-width:0.5;stroke-dasharray:5.0,5.0;" x1="445.5" x2="445.5" y1="118.5938" y2="702.8516"/><text fill="#000000" font-family="sans-serif" font-size="14" lengthAdjust="spacing" textLength="42" x="5" y="115.292">ユーザ</text><ellipse cx="29" cy="50.7969" fill="#E2E2F0" rx="8" ry="8" style="stroke:#181818;stroke-width:0.5;"/><path d="M29,58.7969 L29,85.7969 M16,66.7969 L42,66.7969 M29,85.7969 L16,100.7969 M29,85.7969 L42,100.7969 " fill="none" style="stroke:#181818;stroke-width:0.5;"/><text fill="#000000" font-family="sans-serif" font-size="14" lengthAdjust="spacing" textLength="42" x="5" y="714.8467">ユーザ</text><ellipse cx="29" cy="726.6484" fill="#E2E2F0" rx="8" ry="8" style="stroke:#181818;stroke-width:0.5;"/><path d="M29,734.6484 L29,761.6484 M16,742.6484 L42,742.6484 M29,761.6484 L16,776.6484 M29,761.6484 L42,776.6484 " fill="none" style="stroke:#181818;stroke-width:0.5;"/><rect fill="#E2E2F0" height="46.5938" rx="2.5" ry="2.5" style="stroke:#181818;stroke-width:0.5;" width="127" x="150.5" y="71"/><text fill="#000000" font-family="sans-serif" font-size="14" lengthAdjust="spacing" textLength="112" x="158" y="90.9951">クライアント端末</text><text fill="#000000" font-family="sans-serif" font-size="14" lengthAdjust="spacing" textLength="113" x="157.5" y="107.292">(PCまたはスマホ)</text><rect fill="#E2E2F0" height="46.5938" rx="2.5" ry="2.5" style="stroke:#181818;stroke-width:0.5;" width="127" x="150.5" y="701.8516"/><text fill="#000000" font-family="sans-serif" font-size="14" lengthAdjust="spacing" textLength="112" x="158" y="721.8467">クライアント端末</text><text fill="#000000" font-family="sans-serif" font-size="14" lengthAdjust="spacing" textLength="113" x="157.5" y="738.1436">(PCまたはスマホ)</text><rect fill="#E2E2F0" height="46.5938" rx="2.5" ry="2.5" style="stroke:#181818;stroke-width:0.5;" width="81" x="405.5" y="71"/><text fill="#000000" font-family="sans-serif" font-size="14" lengthAdjust="spacing" textLength="56" x="418" y="90.9951">認証基盤</text><text fill="#000000" font-family="sans-serif" font-size="14" lengthAdjust="spacing" textLength="67" x="412.5" y="107.292">(Cognito)</text><rect fill="#E2E2F0" height="46.5938" rx="2.5" ry="2.5" style="stroke:#181818;stroke-width:0.5;" width="81" x="405.5" y="701.8516"/><text fill="#000000" font-family="sans-serif" font-size="14" lengthAdjust="spacing" textLength="56" x="418" y="721.8467">認証基盤</text><text fill="#000000" font-family="sans-serif" font-size="14" lengthAdjust="spacing" textLength="67" x="412.5" y="738.1436">(Cognito)</text><rect fill="#FFFFFF" height="544.125" style="stroke:#181818;stroke-width:1.0;" width="10" x="209" y="149.7266"/><rect fill="#FFFFFF" height="43.1328" style="stroke:#181818;stroke-width:1.0;" width="10" x="441" y="499.1875"/><polygon fill="#181818" points="197,145.7266,207,149.7266,197,153.7266,201,149.7266" style="stroke:#181818;stroke-width:1.0;"/><line style="stroke:#181818;stroke-width:1.0;" x1="29" x2="203" y1="149.7266" y2="149.7266"/><text fill="#000000" font-family="sans-serif" font-size="13" lengthAdjust="spacing" textLength="89" x="36" y="144.6606">HOME画面表示</text><rect fill="#ADFF2F" height="23" style="stroke:#181818;stroke-width:0.5;" width="138" x="224" y="162.7266"/><text fill="#000000" font-family="sans-serif" font-size="13" lengthAdjust="spacing" textLength="130" x="228" y="178.7935">ログインフローを参照</text><polygon fill="#181818" points="197,207.9922,207,211.9922,197,215.9922,201,211.9922" style="stroke:#181818;stroke-width:1.0;"/><line style="stroke:#181818;stroke-width:1.0;" x1="29" x2="203" y1="211.9922" y2="211.9922"/><text fill="#000000" font-family="sans-serif" font-size="13" lengthAdjust="spacing" textLength="117" x="36" y="206.9263">ユーザアイコン押下</text><line style="stroke:#181818;stroke-width:1.0;" x1="219" x2="261" y1="241.125" y2="241.125"/><line style="stroke:#181818;stroke-width:1.0;" x1="261" x2="261" y1="241.125" y2="254.125"/><line style="stroke:#181818;stroke-width:1.0;" x1="220" x2="261" y1="254.125" y2="254.125"/><polygon fill="#181818" points="230,250.125,220,254.125,230,258.125,226,254.125" style="stroke:#181818;stroke-width:1.0;"/><text fill="#000000" font-family="sans-serif" font-size="13" lengthAdjust="spacing" textLength="130" x="226" y="236.0591">ユーザメニューを表示</text><polygon fill="#181818" points="197,279.2578,207,283.2578,197,287.2578,201,283.2578" style="stroke:#181818;stroke-width:1.0;"/><line style="stroke:#181818;stroke-width:1.0;" x1="29" x2="203" y1="283.2578" y2="283.2578"/><text fill="#000000" font-family="sans-serif" font-size="13" lengthAdjust="spacing" textLength="130" x="36" y="278.1919">ユーザ登録状況を押下</text><line style="stroke:#181818;stroke-width:1.0;" x1="219" x2="261" y1="312.3906" y2="312.3906"/><line style="stroke:#181818;stroke-width:1.0;" x1="261" x2="261" y1="312.3906" y2="325.3906"/><line style="stroke:#181818;stroke-width:1.0;" x1="220" x2="261" y1="325.3906" y2="325.3906"/><polygon fill="#181818" points="230,321.3906,220,325.3906,230,329.3906,226,325.3906" style="stroke:#181818;stroke-width:1.0;"/><text fill="#000000" font-family="sans-serif" font-size="13" lengthAdjust="spacing" textLength="156" x="226" y="307.3247">ユーザ登録状況画面を表示</text><polygon fill="#181818" points="197,350.5234,207,354.5234,197,358.5234,201,354.5234" style="stroke:#181818;stroke-width:1.0;"/><line style="stroke:#181818;stroke-width:1.0;" x1="29" x2="203" y1="354.5234" y2="354.5234"/><text fill="#000000" font-family="sans-serif" font-size="13" lengthAdjust="spacing" textLength="156" x="36" y="349.4575">メールアドレス変更を押下</text><line style="stroke:#181818;stroke-width:1.0;" x1="219" x2="261" y1="383.6563" y2="383.6563"/><line style="stroke:#181818;stroke-width:1.0;" x1="261" x2="261" y1="383.6563" y2="396.6563"/><line style="stroke:#181818;stroke-width:1.0;" x1="220" x2="261" y1="396.6563" y2="396.6563"/><polygon fill="#181818" points="230,392.6563,220,396.6563,230,400.6563,226,396.6563" style="stroke:#181818;stroke-width:1.0;"/><text fill="#000000" font-family="sans-serif" font-size="13" lengthAdjust="spacing" textLength="182" x="226" y="378.5903">メールアドレス変更画面を表示</text><polygon fill="#181818" points="197,421.7891,207,425.7891,197,429.7891,201,425.7891" style="stroke:#181818;stroke-width:1.0;"/><line style="stroke:#181818;stroke-width:1.0;" x1="29" x2="203" y1="425.7891" y2="425.7891"/><text fill="#000000" font-family="sans-serif" font-size="13" lengthAdjust="spacing" textLength="143" x="36" y="420.7231">新メールアドレスを入力</text><polygon fill="#181818" points="197,450.9219,207,454.9219,197,458.9219,201,454.9219" style="stroke:#181818;stroke-width:1.0;"/><line style="stroke:#181818;stroke-width:1.0;" x1="29" x2="203" y1="454.9219" y2="454.9219"/><text fill="#000000" font-family="sans-serif" font-size="13" lengthAdjust="spacing" textLength="78" x="36" y="449.856">「変更」押下</text><polygon fill="#181818" points="429,495.1875,439,499.1875,429,503.1875,433,499.1875" style="stroke:#181818;stroke-width:1.0;"/><line style="stroke:#181818;stroke-width:1.0;" x1="219" x2="435" y1="499.1875" y2="499.1875"/><text fill="#000000" font-family="sans-serif" font-size="13" lengthAdjust="spacing" textLength="111" x="226" y="478.9888">ユーザ情報更新API</text><text fill="#000000" font-family="sans-serif" font-size="13" lengthAdjust="spacing" textLength="163" x="226" y="494.1216">（updateUserAttributes）</text><polygon fill="#181818" points="40,524.3203,30,528.3203,40,532.3203,36,528.3203" style="stroke:#181818;stroke-width:1.0;"/><line style="stroke:#181818;stroke-width:1.0;" x1="34" x2="440" y1="528.3203" y2="528.3203"/><text fill="#000000" font-family="sans-serif" font-size="13" lengthAdjust="spacing" textLength="169" x="46" y="523.2544">検証コード付きメールを送信</text><polygon fill="#181818" points="230,538.3203,220,542.3203,230,546.3203,226,542.3203" style="stroke:#181818;stroke-width:1.0;"/><line style="stroke:#181818;stroke-width:1.0;stroke-dasharray:2.0,2.0;" x1="224" x2="445" y1="542.3203" y2="542.3203"/><line style="stroke:#181818;stroke-width:1.0;" x1="219" x2="261" y1="571.4531" y2="571.4531"/><line style="stroke:#181818;stroke-width:1.0;" x1="261" x2="261" y1="571.4531" y2="584.4531"/><line style="stroke:#181818;stroke-width:1.0;" x1="220" x2="261" y1="584.4531" y2="584.4531"/><polygon fill="#181818" points="230,580.4531,220,584.4531,230,588.4531,226,584.4531" style="stroke:#181818;stroke-width:1.0;"/><text fill="#000000" font-family="sans-serif" font-size="13" lengthAdjust="spacing" textLength="208" x="226" y="566.3872">メールアドレス変更確認画面を表示</text><polygon fill="#181818" points="197,609.5859,207,613.5859,197,617.5859,201,613.5859" style="stroke:#181818;stroke-width:1.0;"/><line style="stroke:#181818;stroke-width:1.0;" x1="29" x2="203" y1="613.5859" y2="613.5859"/><text fill="#000000" font-family="sans-serif" font-size="13" lengthAdjust="spacing" textLength="91" x="36" y="608.52">検証コード入力</text><polygon fill="#181818" points="197,638.7188,207,642.7188,197,646.7188,201,642.7188" style="stroke:#181818;stroke-width:1.0;"/><line style="stroke:#181818;stroke-width:1.0;" x1="29" x2="203" y1="642.7188" y2="642.7188"/><text fill="#000000" font-family="sans-serif" font-size="13" lengthAdjust="spacing" textLength="78" x="36" y="637.6528">変更する押下</text><line style="stroke:#181818;stroke-width:1.0;" x1="219" x2="261" y1="671.8516" y2="671.8516"/><line style="stroke:#181818;stroke-width:1.0;" x1="261" x2="261" y1="671.8516" y2="684.8516"/><line style="stroke:#181818;stroke-width:1.0;" x1="220" x2="261" y1="684.8516" y2="684.8516"/><polygon fill="#181818" points="230,680.8516,220,684.8516,230,688.8516,226,684.8516" style="stroke:#181818;stroke-width:1.0;"/><text fill="#000000" font-family="sans-serif" font-size="13" lengthAdjust="spacing" textLength="143" x="226" y="666.7856">ユーザ登録状況画面表示</text><!--SRC=[dL9DJnD16BxFhvZW0GtPFq082I56FHYvU33XihOZRjBiDjkfNhipQK9R6XC2HYoARPOlguBM46aty6FUxcvxuY_mpkwMrD8AkBVPURxcULzky0oZuLQdl_OBP1sa1x89eW6o1F8RY5FVBGMrtuHCK_LN784uHv3_usDuTaZq5BTiEWLoJn75oHJLSpIVOpR9wZOtKaPMDpdU8qqUWd0ZuHR8rR1v56mtbytxIulWd86p0mugduBy3BBs8999ipT6YlqjrFjQxHru_auxhBb8NhHMJ8DRCJuL7mXH_bIRJmJepCmiVVpiwSDmezF_rEZL3qAtJMpJuepQnifhJgrN0-YzHpPZvWkMoLXl2SKFv7SGnoguIhsfZkgTw_ux4HRt2JFJL0cDMixIgqQYql3TI6y5PQ_xfq8Iq7Yu6a45v6xiawITB1yFBYoV12q7yRTm66R4bVpJP-96tE0saJVYIQ-R1k-Fn_9LxyLTlrmRaxEmbgGgLA-bIXO35s6uXq0M_Iy_aO9s2qjFbiqBRpMVJUkSFKVr1SvjusMUizo5Lo831HIBh36ZkusB68qLOvQwdG_WL8TIh_SBJlUyFaWnfsbNCJJjheqrshZtDyvg9DAagfAUd2qGbVzQbzZ_4W00]--></g></svg>