<?xml version="1.0" encoding="UTF-8" standalone="no"?><svg xmlns="http://www.w3.org/2000/svg" xmlns:xlink="http://www.w3.org/1999/xlink" contentStyleType="text/css" height="832px" preserveAspectRatio="none" style="width:457px;height:832px;background:#FFFFFF;" version="1.1" viewBox="0 0 457 832" width="457px" zoomAndPan="magnify"><defs/><g><text fill="#000000" font-family="sans-serif" font-size="14" font-weight="bold" lengthAdjust="spacing" textLength="105" x="175" y="27.9951">支払い方法変更</text><rect fill="#FFFFFF" height="593.3906" style="stroke:#181818;stroke-width:1.0;" width="10" x="170" y="149.7266"/><rect fill="#FFFFFF" height="29.1328" style="stroke:#181818;stroke-width:1.0;" width="10" x="417.5" y="383.6563"/><rect fill="#FFFFFF" height="58.2656" style="stroke:#181818;stroke-width:1.0;" width="10" x="417.5" y="471.0547"/><rect fill="#FFFFFF" height="29.1328" style="stroke:#181818;stroke-width:1.0;" width="10" x="417.5" y="629.7188"/><line style="stroke:#181818;stroke-width:0.5;stroke-dasharray:5.0,5.0;" x1="29" x2="29" y1="118.5938" y2="752.1172"/><line style="stroke:#181818;stroke-width:0.5;stroke-dasharray:5.0,5.0;" x1="174.5" x2="174.5" y1="118.5938" y2="752.1172"/><line style="stroke:#181818;stroke-width:0.5;stroke-dasharray:5.0,5.0;" x1="342" x2="342" y1="118.5938" y2="752.1172"/><line style="stroke:#181818;stroke-width:0.5;stroke-dasharray:5.0,5.0;" x1="422" x2="422" y1="118.5938" y2="752.1172"/><text fill="#000000" font-family="sans-serif" font-size="14" lengthAdjust="spacing" textLength="42" x="5" y="115.292">ユーザ</text><ellipse cx="29" cy="50.7969" fill="#E2E2F0" rx="8" ry="8" style="stroke:#181818;stroke-width:0.5;"/><path d="M29,58.7969 L29,85.7969 M16,66.7969 L42,66.7969 M29,85.7969 L16,100.7969 M29,85.7969 L42,100.7969 " fill="none" style="stroke:#181818;stroke-width:0.5;"/><text fill="#000000" font-family="sans-serif" font-size="14" lengthAdjust="spacing" textLength="42" x="5" y="764.1123">ユーザ</text><ellipse cx="29" cy="775.9141" fill="#E2E2F0" rx="8" ry="8" style="stroke:#181818;stroke-width:0.5;"/><path d="M29,783.9141 L29,810.9141 M16,791.9141 L42,791.9141 M29,810.9141 L16,825.9141 M29,810.9141 L42,825.9141 " fill="none" style="stroke:#181818;stroke-width:0.5;"/><rect fill="#E2E2F0" height="46.5938" rx="2.5" ry="2.5" style="stroke:#181818;stroke-width:0.5;" width="127" x="111.5" y="71"/><text fill="#000000" font-family="sans-serif" font-size="14" lengthAdjust="spacing" textLength="112" x="119" y="90.9951">クライアント端末</text><text fill="#000000" font-family="sans-serif" font-size="14" lengthAdjust="spacing" textLength="113" x="118.5" y="107.292">(PCまたはスマホ)</text><rect fill="#E2E2F0" height="46.5938" rx="2.5" ry="2.5" style="stroke:#181818;stroke-width:0.5;" width="127" x="111.5" y="751.1172"/><text fill="#000000" font-family="sans-serif" font-size="14" lengthAdjust="spacing" textLength="112" x="119" y="771.1123">クライアント端末</text><text fill="#000000" font-family="sans-serif" font-size="14" lengthAdjust="spacing" textLength="113" x="118.5" y="787.4092">(PCまたはスマホ)</text><rect fill="#E2E2F0" height="46.5938" rx="2.5" ry="2.5" style="stroke:#181818;stroke-width:0.5;" width="84" x="300" y="71"/><text fill="#000000" font-family="sans-serif" font-size="14" lengthAdjust="spacing" textLength="70" x="307" y="90.9951">決済サーバ</text><text fill="#000000" font-family="sans-serif" font-size="14" lengthAdjust="spacing" textLength="55" x="314.5" y="107.292">(Stripe)</text><rect fill="#E2E2F0" height="46.5938" rx="2.5" ry="2.5" style="stroke:#181818;stroke-width:0.5;" width="84" x="300" y="751.1172"/><text fill="#000000" font-family="sans-serif" font-size="14" lengthAdjust="spacing" textLength="70" x="307" y="771.1123">決済サーバ</text><text fill="#000000" font-family="sans-serif" font-size="14" lengthAdjust="spacing" textLength="55" x="314.5" y="787.4092">(Stripe)</text><rect fill="#E2E2F0" height="30.2969" rx="2.5" ry="2.5" style="stroke:#181818;stroke-width:0.5;" width="57" x="394" y="87.2969"/><text fill="#000000" font-family="sans-serif" font-size="14" lengthAdjust="spacing" textLength="43" x="401" y="107.292">stripe</text><rect fill="#E2E2F0" height="30.2969" rx="2.5" ry="2.5" style="stroke:#181818;stroke-width:0.5;" width="57" x="394" y="751.1172"/><text fill="#000000" font-family="sans-serif" font-size="14" lengthAdjust="spacing" textLength="43" x="401" y="771.1123">stripe</text><rect fill="#FFFFFF" height="593.3906" style="stroke:#181818;stroke-width:1.0;" width="10" x="170" y="149.7266"/><rect fill="#FFFFFF" height="29.1328" style="stroke:#181818;stroke-width:1.0;" width="10" x="417.5" y="383.6563"/><rect fill="#FFFFFF" height="58.2656" style="stroke:#181818;stroke-width:1.0;" width="10" x="417.5" y="471.0547"/><rect fill="#FFFFFF" height="29.1328" style="stroke:#181818;stroke-width:1.0;" width="10" x="417.5" y="629.7188"/><polygon fill="#181818" points="158,145.7266,168,149.7266,158,153.7266,162,149.7266" style="stroke:#181818;stroke-width:1.0;"/><line style="stroke:#181818;stroke-width:1.0;" x1="29" x2="164" y1="149.7266" y2="149.7266"/><text fill="#000000" font-family="sans-serif" font-size="13" lengthAdjust="spacing" textLength="89" x="36" y="144.6606">HOME画面表示</text><rect fill="#ADFF2F" height="23" style="stroke:#181818;stroke-width:0.5;" width="138" x="185" y="162.7266"/><text fill="#000000" font-family="sans-serif" font-size="13" lengthAdjust="spacing" textLength="130" x="189" y="178.7935">ログインフローを参照</text><polygon fill="#181818" points="158,207.9922,168,211.9922,158,215.9922,162,211.9922" style="stroke:#181818;stroke-width:1.0;"/><line style="stroke:#181818;stroke-width:1.0;" x1="29" x2="164" y1="211.9922" y2="211.9922"/><text fill="#000000" font-family="sans-serif" font-size="13" lengthAdjust="spacing" textLength="117" x="36" y="206.9263">ユーザアイコン押下</text><line style="stroke:#181818;stroke-width:1.0;" x1="180" x2="222" y1="241.125" y2="241.125"/><line style="stroke:#181818;stroke-width:1.0;" x1="222" x2="222" y1="241.125" y2="254.125"/><line style="stroke:#181818;stroke-width:1.0;" x1="181" x2="222" y1="254.125" y2="254.125"/><polygon fill="#181818" points="191,250.125,181,254.125,191,258.125,187,254.125" style="stroke:#181818;stroke-width:1.0;"/><text fill="#000000" font-family="sans-serif" font-size="13" lengthAdjust="spacing" textLength="130" x="187" y="236.0591">ユーザメニューを表示</text><polygon fill="#181818" points="158,279.2578,168,283.2578,158,287.2578,162,283.2578" style="stroke:#181818;stroke-width:1.0;"/><line style="stroke:#181818;stroke-width:1.0;" x1="29" x2="164" y1="283.2578" y2="283.2578"/><text fill="#000000" font-family="sans-serif" font-size="13" lengthAdjust="spacing" textLength="104" x="36" y="278.1919">支払い方法を押下</text><line style="stroke:#181818;stroke-width:1.0;" x1="180" x2="222" y1="312.3906" y2="312.3906"/><line style="stroke:#181818;stroke-width:1.0;" x1="222" x2="222" y1="312.3906" y2="325.3906"/><line style="stroke:#181818;stroke-width:1.0;" x1="181" x2="222" y1="325.3906" y2="325.3906"/><polygon fill="#181818" points="191,321.3906,181,325.3906,191,329.3906,187,325.3906" style="stroke:#181818;stroke-width:1.0;"/><text fill="#000000" font-family="sans-serif" font-size="13" lengthAdjust="spacing" textLength="141" x="187" y="307.3247">Stripe遷移確認画面表示</text><polygon fill="#181818" points="158,350.5234,168,354.5234,158,358.5234,162,354.5234" style="stroke:#181818;stroke-width:1.0;"/><line style="stroke:#181818;stroke-width:1.0;" x1="29" x2="164" y1="354.5234" y2="354.5234"/><text fill="#000000" font-family="sans-serif" font-size="13" lengthAdjust="spacing" textLength="52" x="36" y="349.4575">確認押下</text><polygon fill="#181818" points="405.5,379.6563,415.5,383.6563,405.5,387.6563,409.5,383.6563" style="stroke:#181818;stroke-width:1.0;"/><line style="stroke:#181818;stroke-width:1.0;" x1="180" x2="411.5" y1="383.6563" y2="383.6563"/><text fill="#000000" font-family="sans-serif" font-size="13" lengthAdjust="spacing" textLength="143" x="187" y="378.5903">支払い状況確認画面要求</text><polygon fill="#181818" points="191,408.7891,181,412.7891,191,416.7891,187,412.7891" style="stroke:#181818;stroke-width:1.0;"/><line style="stroke:#181818;stroke-width:1.0;stroke-dasharray:2.0,2.0;" x1="185" x2="421.5" y1="412.7891" y2="412.7891"/><text fill="#000000" font-family="sans-serif" font-size="13" lengthAdjust="spacing" textLength="78" x="197" y="407.7231">ログイン画面</text><polygon fill="#181818" points="158,437.9219,168,441.9219,158,445.9219,162,441.9219" style="stroke:#181818;stroke-width:1.0;"/><line style="stroke:#181818;stroke-width:1.0;" x1="29" x2="164" y1="441.9219" y2="441.9219"/><text fill="#000000" font-family="sans-serif" font-size="13" lengthAdjust="spacing" textLength="117" x="36" y="436.856">メールアドレス入力</text><polygon fill="#181818" points="405.5,467.0547,415.5,471.0547,405.5,475.0547,409.5,471.0547" style="stroke:#181818;stroke-width:1.0;"/><line style="stroke:#181818;stroke-width:1.0;" x1="180" x2="411.5" y1="471.0547" y2="471.0547"/><text fill="#000000" font-family="sans-serif" font-size="13" lengthAdjust="spacing" textLength="111" x="187" y="465.9888">認証コード発行API</text><polygon fill="#181818" points="40,496.1875,30,500.1875,40,504.1875,36,500.1875" style="stroke:#181818;stroke-width:1.0;"/><line style="stroke:#181818;stroke-width:1.0;" x1="34" x2="416.5" y1="500.1875" y2="500.1875"/><text fill="#000000" font-family="sans-serif" font-size="13" lengthAdjust="spacing" textLength="143" x="46" y="495.1216">メールで認証コード送信</text><polygon fill="#181818" points="191,525.3203,181,529.3203,191,533.3203,187,529.3203" style="stroke:#181818;stroke-width:1.0;"/><line style="stroke:#181818;stroke-width:1.0;stroke-dasharray:2.0,2.0;" x1="185" x2="421.5" y1="529.3203" y2="529.3203"/><text fill="#000000" font-family="sans-serif" font-size="13" lengthAdjust="spacing" textLength="52" x="197" y="524.2544">送信完了</text><line style="stroke:#181818;stroke-width:1.0;" x1="180" x2="222" y1="558.4531" y2="558.4531"/><line style="stroke:#181818;stroke-width:1.0;" x1="222" x2="222" y1="558.4531" y2="571.4531"/><line style="stroke:#181818;stroke-width:1.0;" x1="181" x2="222" y1="571.4531" y2="571.4531"/><polygon fill="#181818" points="191,567.4531,181,571.4531,191,575.4531,187,571.4531" style="stroke:#181818;stroke-width:1.0;"/><text fill="#000000" font-family="sans-serif" font-size="13" lengthAdjust="spacing" textLength="143" x="187" y="553.3872">認証コード入力画面表示</text><polygon fill="#181818" points="158,596.5859,168,600.5859,158,604.5859,162,600.5859" style="stroke:#181818;stroke-width:1.0;"/><line style="stroke:#181818;stroke-width:1.0;" x1="29" x2="164" y1="600.5859" y2="600.5859"/><text fill="#000000" font-family="sans-serif" font-size="13" lengthAdjust="spacing" textLength="91" x="36" y="595.52">認証コード入力</text><polygon fill="#181818" points="405.5,625.7188,415.5,629.7188,405.5,633.7188,409.5,629.7188" style="stroke:#181818;stroke-width:1.0;"/><line style="stroke:#181818;stroke-width:1.0;" x1="180" x2="411.5" y1="629.7188" y2="629.7188"/><text fill="#000000" font-family="sans-serif" font-size="13" lengthAdjust="spacing" textLength="91" x="187" y="624.6528">認証コード検証</text><polygon fill="#181818" points="191,654.8516,181,658.8516,191,662.8516,187,658.8516" style="stroke:#181818;stroke-width:1.0;"/><line style="stroke:#181818;stroke-width:1.0;stroke-dasharray:2.0,2.0;" x1="185" x2="421.5" y1="658.8516" y2="658.8516"/><text fill="#000000" font-family="sans-serif" font-size="13" lengthAdjust="spacing" textLength="52" x="197" y="653.7856">検証結果</text><line style="stroke:#181818;stroke-width:1.0;" x1="180" x2="222" y1="687.9844" y2="687.9844"/><line style="stroke:#181818;stroke-width:1.0;" x1="222" x2="222" y1="687.9844" y2="700.9844"/><line style="stroke:#181818;stroke-width:1.0;" x1="181" x2="222" y1="700.9844" y2="700.9844"/><polygon fill="#181818" points="191,696.9844,181,700.9844,191,704.9844,187,700.9844" style="stroke:#181818;stroke-width:1.0;"/><text fill="#000000" font-family="sans-serif" font-size="13" lengthAdjust="spacing" textLength="78" x="187" y="682.9185">照会画面表示</text><rect fill="#FEFFDD" height="23" style="stroke:#181818;stroke-width:0.5;" width="253" x="185" y="713.9844"/><text fill="#000000" font-family="sans-serif" font-size="13" lengthAdjust="spacing" textLength="245" x="189" y="730.0513">あとはStripeの画面に従って決済方法編集</text><!--MD5=[7bdbc34194a8ba5d70ea13d6ad9fa830]
@startuml
title 支払い方法変更

' アクター定義
actor "ユーザ" as user
participant "クライアント端末\n(PCまたはスマホ)" as device
participant "決済サーバ\n(Stripe)" as stipe

user -> device ++: HOME画面表示
rnote right of device #GreenYellow
    ログインフローを参照
end note
user -> device : ユーザアイコン押下
device -> device : ユーザメニューを表示
user -> device : 支払い方法を押下
device -> device : Stripe遷移確認画面表示
user -> device : 確認押下
device -> stripe ++ : 支払い状況確認画面要求
device <- - stripe - - : ログイン画面
user -> device : メールアドレス入力
device -> stripe ++ : 認証コード発行API
stripe -> user : メールで認証コード送信
device <- - stripe - - : 送信完了
device -> device : 認証コード入力画面表示
user -> device : 認証コード入力
device -> stripe ++ : 認証コード検証
device <- - stripe - - : 検証結果
device -> device : 照会画面表示
rnote right of device 
    あとはStripeの画面に従って決済方法編集
end note
@enduml

@startuml
title 支払い方法変更

actor "ユーザ" as user
participant "クライアント端末\n(PCまたはスマホ)" as device
participant "決済サーバ\n(Stripe)" as stipe

user -> device ++: HOME画面表示
rnote right of device #GreenYellow
    ログインフローを参照
end note
user -> device : ユーザアイコン押下
device -> device : ユーザメニューを表示
user -> device : 支払い方法を押下
device -> device : Stripe遷移確認画面表示
user -> device : 確認押下
device -> stripe ++ : 支払い状況確認画面要求
device <- - stripe - - : ログイン画面
user -> device : メールアドレス入力
device -> stripe ++ : 認証コード発行API
stripe -> user : メールで認証コード送信
device <- - stripe - - : 送信完了
device -> device : 認証コード入力画面表示
user -> device : 認証コード入力
device -> stripe ++ : 認証コード検証
device <- - stripe - - : 検証結果
device -> device : 照会画面表示
rnote right of device 
    あとはStripeの画面に従って決済方法編集
end note
@enduml

PlantUML version 1.2022.14beta7(Unknown compile time)
(GPL source distribution)
Java Runtime: Java(TM) SE Runtime Environment
JVM: Java HotSpot(TM) 64-Bit Server VM
Default Encoding: UTF-8
Language: en
Country: US
--></g></svg>