<?xml version="1.0" encoding="UTF-8" standalone="no"?><svg xmlns="http://www.w3.org/2000/svg" xmlns:xlink="http://www.w3.org/1999/xlink" contentStyleType="text/css" height="862px" preserveAspectRatio="none" style="width:548px;height:862px;background:#FFFFFF;" version="1.1" viewBox="0 0 548 862" width="548px" zoomAndPan="magnify"><defs/><g><text fill="#000000" font-family="sans-serif" font-size="14" font-weight="bold" lengthAdjust="spacing" textLength="105" x="220.5" y="27.9951">支払い方法変更</text><rect fill="#FFFFFF" height="623.3906" style="stroke:#181818;stroke-width:1.0;" width="10" x="248" y="149.7266"/><rect fill="#FFFFFF" height="360.3281" style="stroke:#181818;stroke-width:1.0;" width="10" x="253" y="412.7891"/><rect fill="#FFFFFF" height="59.1328" style="stroke:#181818;stroke-width:1.0;" width="10" x="508.5" y="383.6563"/><rect fill="#FFFFFF" height="58.2656" style="stroke:#181818;stroke-width:1.0;" width="10" x="508.5" y="501.0547"/><rect fill="#FFFFFF" height="29.1328" style="stroke:#181818;stroke-width:1.0;" width="10" x="508.5" y="659.7188"/><line style="stroke:#181818;stroke-width:0.5;stroke-dasharray:5.0,5.0;" x1="29" x2="29" y1="118.5938" y2="782.1172"/><line style="stroke:#181818;stroke-width:0.5;stroke-dasharray:5.0,5.0;" x1="252.5" x2="252.5" y1="118.5938" y2="782.1172"/><line style="stroke:#181818;stroke-width:0.5;stroke-dasharray:5.0,5.0;" x1="433" x2="433" y1="118.5938" y2="782.1172"/><line style="stroke:#181818;stroke-width:0.5;stroke-dasharray:5.0,5.0;" x1="513" x2="513" y1="118.5938" y2="782.1172"/><text fill="#000000" font-family="sans-serif" font-size="14" lengthAdjust="spacing" textLength="42" x="5" y="115.292">ユーザ</text><ellipse cx="29" cy="50.7969" fill="#E2E2F0" rx="8" ry="8" style="stroke:#181818;stroke-width:0.5;"/><path d="M29,58.7969 L29,85.7969 M16,66.7969 L42,66.7969 M29,85.7969 L16,100.7969 M29,85.7969 L42,100.7969 " fill="none" style="stroke:#181818;stroke-width:0.5;"/><text fill="#000000" font-family="sans-serif" font-size="14" lengthAdjust="spacing" textLength="42" x="5" y="794.1123">ユーザ</text><ellipse cx="29" cy="805.9141" fill="#E2E2F0" rx="8" ry="8" style="stroke:#181818;stroke-width:0.5;"/><path d="M29,813.9141 L29,840.9141 M16,821.9141 L42,821.9141 M29,840.9141 L16,855.9141 M29,840.9141 L42,855.9141 " fill="none" style="stroke:#181818;stroke-width:0.5;"/><rect fill="#E2E2F0" height="46.5938" rx="2.5" ry="2.5" style="stroke:#181818;stroke-width:0.5;" width="127" x="189.5" y="71"/><text fill="#000000" font-family="sans-serif" font-size="14" lengthAdjust="spacing" textLength="112" x="197" y="90.9951">クライアント端末</text><text fill="#000000" font-family="sans-serif" font-size="14" lengthAdjust="spacing" textLength="113" x="196.5" y="107.292">(PCまたはスマホ)</text><rect fill="#E2E2F0" height="46.5938" rx="2.5" ry="2.5" style="stroke:#181818;stroke-width:0.5;" width="127" x="189.5" y="781.1172"/><text fill="#000000" font-family="sans-serif" font-size="14" lengthAdjust="spacing" textLength="112" x="197" y="801.1123">クライアント端末</text><text fill="#000000" font-family="sans-serif" font-size="14" lengthAdjust="spacing" textLength="113" x="196.5" y="817.4092">(PCまたはスマホ)</text><rect fill="#E2E2F0" height="46.5938" rx="2.5" ry="2.5" style="stroke:#181818;stroke-width:0.5;" width="84" x="391" y="71"/><text fill="#000000" font-family="sans-serif" font-size="14" lengthAdjust="spacing" textLength="70" x="398" y="90.9951">決済サーバ</text><text fill="#000000" font-family="sans-serif" font-size="14" lengthAdjust="spacing" textLength="55" x="405.5" y="107.292">(Stripe)</text><rect fill="#E2E2F0" height="46.5938" rx="2.5" ry="2.5" style="stroke:#181818;stroke-width:0.5;" width="84" x="391" y="781.1172"/><text fill="#000000" font-family="sans-serif" font-size="14" lengthAdjust="spacing" textLength="70" x="398" y="801.1123">決済サーバ</text><text fill="#000000" font-family="sans-serif" font-size="14" lengthAdjust="spacing" textLength="55" x="405.5" y="817.4092">(Stripe)</text><rect fill="#E2E2F0" height="30.2969" rx="2.5" ry="2.5" style="stroke:#181818;stroke-width:0.5;" width="57" x="485" y="87.2969"/><text fill="#000000" font-family="sans-serif" font-size="14" lengthAdjust="spacing" textLength="43" x="492" y="107.292">stripe</text><rect fill="#E2E2F0" height="30.2969" rx="2.5" ry="2.5" style="stroke:#181818;stroke-width:0.5;" width="57" x="485" y="781.1172"/><text fill="#000000" font-family="sans-serif" font-size="14" lengthAdjust="spacing" textLength="43" x="492" y="801.1123">stripe</text><rect fill="#FFFFFF" height="623.3906" style="stroke:#181818;stroke-width:1.0;" width="10" x="248" y="149.7266"/><rect fill="#FFFFFF" height="360.3281" style="stroke:#181818;stroke-width:1.0;" width="10" x="253" y="412.7891"/><rect fill="#FFFFFF" height="59.1328" style="stroke:#181818;stroke-width:1.0;" width="10" x="508.5" y="383.6563"/><rect fill="#FFFFFF" height="58.2656" style="stroke:#181818;stroke-width:1.0;" width="10" x="508.5" y="501.0547"/><rect fill="#FFFFFF" height="29.1328" style="stroke:#181818;stroke-width:1.0;" width="10" x="508.5" y="659.7188"/><polygon fill="#181818" points="236,145.7266,246,149.7266,236,153.7266,240,149.7266" style="stroke:#181818;stroke-width:1.0;"/><line style="stroke:#181818;stroke-width:1.0;" x1="29" x2="242" y1="149.7266" y2="149.7266"/><text fill="#000000" font-family="sans-serif" font-size="13" lengthAdjust="spacing" textLength="89" x="36" y="144.6606">HOME画面表示</text><rect fill="#ADFF2F" height="23" style="stroke:#181818;stroke-width:0.5;" width="138" x="263" y="162.7266"/><text fill="#000000" font-family="sans-serif" font-size="13" lengthAdjust="spacing" textLength="130" x="267" y="178.7935">ログインフローを参照</text><polygon fill="#181818" points="236,207.9922,246,211.9922,236,215.9922,240,211.9922" style="stroke:#181818;stroke-width:1.0;"/><line style="stroke:#181818;stroke-width:1.0;" x1="29" x2="242" y1="211.9922" y2="211.9922"/><text fill="#000000" font-family="sans-serif" font-size="13" lengthAdjust="spacing" textLength="117" x="36" y="206.9263">ユーザアイコン押下</text><line style="stroke:#181818;stroke-width:1.0;" x1="258" x2="300" y1="241.125" y2="241.125"/><line style="stroke:#181818;stroke-width:1.0;" x1="300" x2="300" y1="241.125" y2="254.125"/><line style="stroke:#181818;stroke-width:1.0;" x1="259" x2="300" y1="254.125" y2="254.125"/><polygon fill="#181818" points="269,250.125,259,254.125,269,258.125,265,254.125" style="stroke:#181818;stroke-width:1.0;"/><text fill="#000000" font-family="sans-serif" font-size="13" lengthAdjust="spacing" textLength="130" x="265" y="236.0591">ユーザメニューを表示</text><polygon fill="#181818" points="236,279.2578,246,283.2578,236,287.2578,240,283.2578" style="stroke:#181818;stroke-width:1.0;"/><line style="stroke:#181818;stroke-width:1.0;" x1="29" x2="242" y1="283.2578" y2="283.2578"/><text fill="#000000" font-family="sans-serif" font-size="13" lengthAdjust="spacing" textLength="130" x="36" y="278.1919">ユーザ登録状況を押下</text><line style="stroke:#181818;stroke-width:1.0;" x1="258" x2="300" y1="312.3906" y2="312.3906"/><line style="stroke:#181818;stroke-width:1.0;" x1="300" x2="300" y1="312.3906" y2="325.3906"/><line style="stroke:#181818;stroke-width:1.0;" x1="259" x2="300" y1="325.3906" y2="325.3906"/><polygon fill="#181818" points="269,321.3906,259,325.3906,269,329.3906,265,325.3906" style="stroke:#181818;stroke-width:1.0;"/><text fill="#000000" font-family="sans-serif" font-size="13" lengthAdjust="spacing" textLength="156" x="265" y="307.3247">ユーザ登録状況画面を表示</text><polygon fill="#181818" points="236,350.5234,246,354.5234,236,358.5234,240,354.5234" style="stroke:#181818;stroke-width:1.0;"/><line style="stroke:#181818;stroke-width:1.0;" x1="29" x2="242" y1="354.5234" y2="354.5234"/><text fill="#000000" font-family="sans-serif" font-size="13" lengthAdjust="spacing" textLength="195" x="36" y="349.4575">クレジットカードの登録状況押下</text><polygon fill="#181818" points="496.5,379.6563,506.5,383.6563,496.5,387.6563,500.5,383.6563" style="stroke:#181818;stroke-width:1.0;"/><line style="stroke:#181818;stroke-width:1.0;" x1="258" x2="502.5" y1="383.6563" y2="383.6563"/><text fill="#000000" font-family="sans-serif" font-size="13" lengthAdjust="spacing" textLength="143" x="265" y="378.5903">支払い状況確認画面要求</text><polygon fill="#181818" points="274,408.7891,264,412.7891,274,416.7891,270,412.7891" style="stroke:#181818;stroke-width:1.0;"/><line style="stroke:#181818;stroke-width:1.0;stroke-dasharray:2.0,2.0;" x1="268" x2="507.5" y1="412.7891" y2="412.7891"/><text fill="#000000" font-family="sans-serif" font-size="13" lengthAdjust="spacing" textLength="78" x="280" y="407.7231">ログイン画面</text><polygon fill="#181818" points="241,467.9219,251,471.9219,241,475.9219,245,471.9219" style="stroke:#181818;stroke-width:1.0;"/><line style="stroke:#181818;stroke-width:1.0;" x1="29" x2="247" y1="471.9219" y2="471.9219"/><text fill="#000000" font-family="sans-serif" font-size="13" lengthAdjust="spacing" textLength="117" x="36" y="466.856">メールアドレス入力</text><polygon fill="#181818" points="496.5,497.0547,506.5,501.0547,496.5,505.0547,500.5,501.0547" style="stroke:#181818;stroke-width:1.0;"/><line style="stroke:#181818;stroke-width:1.0;" x1="263" x2="502.5" y1="501.0547" y2="501.0547"/><text fill="#000000" font-family="sans-serif" font-size="13" lengthAdjust="spacing" textLength="111" x="270" y="495.9888">認証コード発行API</text><polygon fill="#181818" points="40,526.1875,30,530.1875,40,534.1875,36,530.1875" style="stroke:#181818;stroke-width:1.0;"/><line style="stroke:#181818;stroke-width:1.0;" x1="34" x2="507.5" y1="530.1875" y2="530.1875"/><text fill="#000000" font-family="sans-serif" font-size="13" lengthAdjust="spacing" textLength="143" x="46" y="525.1216">メールで認証コード送信</text><polygon fill="#181818" points="274,555.3203,264,559.3203,274,563.3203,270,559.3203" style="stroke:#181818;stroke-width:1.0;"/><line style="stroke:#181818;stroke-width:1.0;stroke-dasharray:2.0,2.0;" x1="268" x2="512.5" y1="559.3203" y2="559.3203"/><text fill="#000000" font-family="sans-serif" font-size="13" lengthAdjust="spacing" textLength="52" x="280" y="554.2544">送信完了</text><line style="stroke:#181818;stroke-width:1.0;" x1="263" x2="305" y1="588.4531" y2="588.4531"/><line style="stroke:#181818;stroke-width:1.0;" x1="305" x2="305" y1="588.4531" y2="601.4531"/><line style="stroke:#181818;stroke-width:1.0;" x1="264" x2="305" y1="601.4531" y2="601.4531"/><polygon fill="#181818" points="274,597.4531,264,601.4531,274,605.4531,270,601.4531" style="stroke:#181818;stroke-width:1.0;"/><text fill="#000000" font-family="sans-serif" font-size="13" lengthAdjust="spacing" textLength="143" x="270" y="583.3872">認証コード入力画面表示</text><polygon fill="#181818" points="241,626.5859,251,630.5859,241,634.5859,245,630.5859" style="stroke:#181818;stroke-width:1.0;"/><line style="stroke:#181818;stroke-width:1.0;" x1="29" x2="247" y1="630.5859" y2="630.5859"/><text fill="#000000" font-family="sans-serif" font-size="13" lengthAdjust="spacing" textLength="91" x="36" y="625.52">認証コード入力</text><polygon fill="#181818" points="496.5,655.7188,506.5,659.7188,496.5,663.7188,500.5,659.7188" style="stroke:#181818;stroke-width:1.0;"/><line style="stroke:#181818;stroke-width:1.0;" x1="263" x2="502.5" y1="659.7188" y2="659.7188"/><text fill="#000000" font-family="sans-serif" font-size="13" lengthAdjust="spacing" textLength="91" x="270" y="654.6528">認証コード検証</text><polygon fill="#181818" points="274,684.8516,264,688.8516,274,692.8516,270,688.8516" style="stroke:#181818;stroke-width:1.0;"/><line style="stroke:#181818;stroke-width:1.0;stroke-dasharray:2.0,2.0;" x1="268" x2="512.5" y1="688.8516" y2="688.8516"/><text fill="#000000" font-family="sans-serif" font-size="13" lengthAdjust="spacing" textLength="52" x="280" y="683.7856">検証結果</text><line style="stroke:#181818;stroke-width:1.0;" x1="263" x2="305" y1="717.9844" y2="717.9844"/><line style="stroke:#181818;stroke-width:1.0;" x1="305" x2="305" y1="717.9844" y2="730.9844"/><line style="stroke:#181818;stroke-width:1.0;" x1="264" x2="305" y1="730.9844" y2="730.9844"/><polygon fill="#181818" points="274,726.9844,264,730.9844,274,734.9844,270,730.9844" style="stroke:#181818;stroke-width:1.0;"/><text fill="#000000" font-family="sans-serif" font-size="13" lengthAdjust="spacing" textLength="78" x="270" y="712.9185">照会画面表示</text><rect fill="#FEFFDD" height="23" style="stroke:#181818;stroke-width:0.5;" width="253" x="268" y="743.9844"/><text fill="#000000" font-family="sans-serif" font-size="13" lengthAdjust="spacing" textLength="245" x="272" y="760.0513">あとはStripeの画面に従って決済方法編集</text><!--SRC=[ZLJFRX916B_FKqpgGKt32n1ZOepH7enDF9bu8NJLJGYGPTMhCsERGZ4sManQQCqYfRIhOCLMs1BwC1yx0s_XpCuMWIw6FStkVBy_tx-rJJjbOBxJulaIaFVyIvUtItujpyk_4Rg9WLQ1je1U0klvpJtHFqQ9f9sny1Amklm6z7m99tBuTSwmK3PXsMRIp2RIjhoNC7OCjAOeM1lOfd1RlE8-JzzQlG-a3-Gh4CdS1NO0h7mxe5aptfX9Ovg8dtgyimdqJCcnROb_Qbjcrj28d2sF22bz7BiR4k3bvJX-zEJn0x5pCTgl3fs6g7d8IcTi0rlcorSsphou2htnq3ACz3CZbSgyHLW-m7u0_QcCAzSbzQho_EH_f6Bz21dfDQo8PYNZU5oHe6WoRmblyq9lqDb2OL1qE7E0RG4xr3gXs_dqOlTYLFmb2kUyJMJy0WgJ25sI_-cendq7sW76PDU0ka7Xyq2QappNP7D1LsJf9STudaBDgZSy-H0seqxuARt2tOd5_W7bEJvLVes8AeKJU7A3sSe7Thl- -g5VACyn9EM7ZLxG4fMBsFM6Jl7UwWeAWsHue3B9JOvcKADtP73fH5WFZEjRlraSU1jHtPWXqtQd1lHQdf6GnJBajOfydUTLtugpRNvGYV8g1ttGsrjWU_J640ga8RTPBwOQ53ranFNxdu5y0rBNMwn_B-9FOrJU66_INm00]--></g></svg>