<?xml version="1.0" encoding="us-ascii" standalone="no"?><svg xmlns="http://www.w3.org/2000/svg" xmlns:xlink="http://www.w3.org/1999/xlink" contentStyleType="text/css" height="825px" preserveAspectRatio="none" style="width:637px;height:825px;background:#FFFFFF;" version="1.1" viewBox="0 0 637 825" width="637px" zoomAndPan="magnify"><defs/><g><text fill="#000000" font-family="sans-serif" font-size="14" font-weight="bold" lengthAdjust="spacing" textLength="90" x="272.75" y="27.9951">&#12469;&#12540;&#12499;&#12473;&#35299;&#32004;</text><rect fill="#FFFFFF" height="586.2578" style="stroke:#181818;stroke-width:1.0;" width="10" x="170" y="149.7266"/><rect fill="#FFFFFF" height="143.5313" style="stroke:#181818;stroke-width:1.0;" width="10" x="337" y="470.0547"/><rect fill="#FFFFFF" height="14" style="stroke:#181818;stroke-width:1.0;" width="10" x="577.5" y="499.1875"/><line style="stroke:#181818;stroke-width:0.5;stroke-dasharray:5.0,5.0;" x1="29" x2="29" y1="118.5938" y2="744.9844"/><line style="stroke:#181818;stroke-width:0.5;stroke-dasharray:5.0,5.0;" x1="174.5" x2="174.5" y1="118.5938" y2="744.9844"/><line style="stroke:#181818;stroke-width:0.5;stroke-dasharray:5.0,5.0;" x1="341.5" x2="341.5" y1="118.5938" y2="744.9844"/><line style="stroke:#181818;stroke-width:0.5;stroke-dasharray:5.0,5.0;" x1="482.5" x2="482.5" y1="118.5938" y2="744.9844"/><line style="stroke:#181818;stroke-width:0.5;stroke-dasharray:5.0,5.0;" x1="582.5" x2="582.5" y1="118.5938" y2="744.9844"/><text fill="#000000" font-family="sans-serif" font-size="14" lengthAdjust="spacing" textLength="42" x="5" y="115.292">&#12518;&#12540;&#12470;</text><ellipse cx="29" cy="50.7969" fill="#E2E2F0" rx="8" ry="8" style="stroke:#181818;stroke-width:0.5;"/><path d="M29,58.7969 L29,85.7969 M16,66.7969 L42,66.7969 M29,85.7969 L16,100.7969 M29,85.7969 L42,100.7969 " fill="none" style="stroke:#181818;stroke-width:0.5;"/><text fill="#000000" font-family="sans-serif" font-size="14" lengthAdjust="spacing" textLength="42" x="5" y="756.9795">&#12518;&#12540;&#12470;</text><ellipse cx="29" cy="768.7813" fill="#E2E2F0" rx="8" ry="8" style="stroke:#181818;stroke-width:0.5;"/><path d="M29,776.7813 L29,803.7813 M16,784.7813 L42,784.7813 M29,803.7813 L16,818.7813 M29,803.7813 L42,818.7813 " fill="none" style="stroke:#181818;stroke-width:0.5;"/><rect fill="#E2E2F0" height="46.5938" rx="2.5" ry="2.5" style="stroke:#181818;stroke-width:0.5;" width="127" x="111.5" y="71"/><text fill="#000000" font-family="sans-serif" font-size="14" lengthAdjust="spacing" textLength="112" x="119" y="90.9951">&#12463;&#12521;&#12452;&#12450;&#12531;&#12488;&#31471;&#26411;</text><text fill="#000000" font-family="sans-serif" font-size="14" lengthAdjust="spacing" textLength="113" x="118.5" y="107.292">(PC&#12414;&#12383;&#12399;&#12473;&#12510;&#12507;)</text><rect fill="#E2E2F0" height="46.5938" rx="2.5" ry="2.5" style="stroke:#181818;stroke-width:0.5;" width="127" x="111.5" y="743.9844"/><text fill="#000000" font-family="sans-serif" font-size="14" lengthAdjust="spacing" textLength="112" x="119" y="763.9795">&#12463;&#12521;&#12452;&#12450;&#12531;&#12488;&#31471;&#26411;</text><text fill="#000000" font-family="sans-serif" font-size="14" lengthAdjust="spacing" textLength="113" x="118.5" y="780.2764">(PC&#12414;&#12383;&#12399;&#12473;&#12510;&#12507;)</text><rect fill="#E2E2F0" height="46.5938" rx="2.5" ry="2.5" style="stroke:#181818;stroke-width:0.5;" width="151" x="266.5" y="71"/><text fill="#000000" font-family="sans-serif" font-size="14" lengthAdjust="spacing" textLength="99" x="292.5" y="90.9951">SonicHost API</text><text fill="#000000" font-family="sans-serif" font-size="14" lengthAdjust="spacing" textLength="137" x="273.5" y="107.292">(CDN/API-Gateway)</text><rect fill="#E2E2F0" height="46.5938" rx="2.5" ry="2.5" style="stroke:#181818;stroke-width:0.5;" width="151" x="266.5" y="743.9844"/><text fill="#000000" font-family="sans-serif" font-size="14" lengthAdjust="spacing" textLength="99" x="292.5" y="763.9795">SonicHost API</text><text fill="#000000" font-family="sans-serif" font-size="14" lengthAdjust="spacing" textLength="137" x="273.5" y="780.2764">(CDN/API-Gateway)</text><rect fill="#E2E2F0" height="46.5938" rx="2.5" ry="2.5" style="stroke:#181818;stroke-width:0.5;" width="81" x="442.5" y="71"/><text fill="#000000" font-family="sans-serif" font-size="14" lengthAdjust="spacing" textLength="56" x="455" y="90.9951">&#35469;&#35388;&#22522;&#30436;</text><text fill="#000000" font-family="sans-serif" font-size="14" lengthAdjust="spacing" textLength="67" x="449.5" y="107.292">(Cognito)</text><rect fill="#E2E2F0" height="46.5938" rx="2.5" ry="2.5" style="stroke:#181818;stroke-width:0.5;" width="81" x="442.5" y="743.9844"/><text fill="#000000" font-family="sans-serif" font-size="14" lengthAdjust="spacing" textLength="56" x="455" y="763.9795">&#35469;&#35388;&#22522;&#30436;</text><text fill="#000000" font-family="sans-serif" font-size="14" lengthAdjust="spacing" textLength="67" x="449.5" y="780.2764">(Cognito)</text><rect fill="#E2E2F0" height="46.5938" rx="2.5" ry="2.5" style="stroke:#181818;stroke-width:0.5;" width="98" x="533.5" y="71"/><text fill="#000000" font-family="sans-serif" font-size="14" lengthAdjust="spacing" textLength="84" x="540.5" y="90.9951">&#27770;&#28168;&#12469;&#12540;&#12499;&#12473;</text><text fill="#000000" font-family="sans-serif" font-size="14" lengthAdjust="spacing" textLength="55" x="555" y="107.292">(Stripe)</text><rect fill="#E2E2F0" height="46.5938" rx="2.5" ry="2.5" style="stroke:#181818;stroke-width:0.5;" width="98" x="533.5" y="743.9844"/><text fill="#000000" font-family="sans-serif" font-size="14" lengthAdjust="spacing" textLength="84" x="540.5" y="763.9795">&#27770;&#28168;&#12469;&#12540;&#12499;&#12473;</text><text fill="#000000" font-family="sans-serif" font-size="14" lengthAdjust="spacing" textLength="55" x="555" y="780.2764">(Stripe)</text><rect fill="#FFFFFF" height="586.2578" style="stroke:#181818;stroke-width:1.0;" width="10" x="170" y="149.7266"/><rect fill="#FFFFFF" height="143.5313" style="stroke:#181818;stroke-width:1.0;" width="10" x="337" y="470.0547"/><rect fill="#FFFFFF" height="14" style="stroke:#181818;stroke-width:1.0;" width="10" x="577.5" y="499.1875"/><polygon fill="#181818" points="158,145.7266,168,149.7266,158,153.7266,162,149.7266" style="stroke:#181818;stroke-width:1.0;"/><line style="stroke:#181818;stroke-width:1.0;" x1="29" x2="164" y1="149.7266" y2="149.7266"/><text fill="#000000" font-family="sans-serif" font-size="13" lengthAdjust="spacing" textLength="89" x="36" y="144.6606">HOME&#30011;&#38754;&#34920;&#31034;</text><rect fill="#ADFF2F" height="23" style="stroke:#181818;stroke-width:0.5;" width="138" x="185" y="162.7266"/><text fill="#000000" font-family="sans-serif" font-size="13" lengthAdjust="spacing" textLength="130" x="189" y="178.7935">&#12525;&#12464;&#12452;&#12531;&#12501;&#12525;&#12540;&#12434;&#21442;&#29031;</text><polygon fill="#181818" points="158,207.9922,168,211.9922,158,215.9922,162,211.9922" style="stroke:#181818;stroke-width:1.0;"/><line style="stroke:#181818;stroke-width:1.0;" x1="29" x2="164" y1="211.9922" y2="211.9922"/><text fill="#000000" font-family="sans-serif" font-size="13" lengthAdjust="spacing" textLength="117" x="36" y="206.9263">&#12518;&#12540;&#12470;&#12450;&#12452;&#12467;&#12531;&#25276;&#19979;</text><line style="stroke:#181818;stroke-width:1.0;" x1="180" x2="222" y1="241.125" y2="241.125"/><line style="stroke:#181818;stroke-width:1.0;" x1="222" x2="222" y1="241.125" y2="254.125"/><line style="stroke:#181818;stroke-width:1.0;" x1="181" x2="222" y1="254.125" y2="254.125"/><polygon fill="#181818" points="191,250.125,181,254.125,191,258.125,187,254.125" style="stroke:#181818;stroke-width:1.0;"/><text fill="#000000" font-family="sans-serif" font-size="13" lengthAdjust="spacing" textLength="130" x="187" y="236.0591">&#12518;&#12540;&#12470;&#12513;&#12491;&#12517;&#12540;&#12434;&#34920;&#31034;</text><polygon fill="#181818" points="158,279.2578,168,283.2578,158,287.2578,162,283.2578" style="stroke:#181818;stroke-width:1.0;"/><line style="stroke:#181818;stroke-width:1.0;" x1="29" x2="164" y1="283.2578" y2="283.2578"/><text fill="#000000" font-family="sans-serif" font-size="13" lengthAdjust="spacing" textLength="91" x="36" y="278.1919">&#30331;&#37682;&#29366;&#27841;&#12434;&#25276;&#19979;</text><line style="stroke:#181818;stroke-width:1.0;" x1="180" x2="222" y1="312.3906" y2="312.3906"/><line style="stroke:#181818;stroke-width:1.0;" x1="222" x2="222" y1="312.3906" y2="325.3906"/><line style="stroke:#181818;stroke-width:1.0;" x1="181" x2="222" y1="325.3906" y2="325.3906"/><polygon fill="#181818" points="191,321.3906,181,325.3906,191,329.3906,187,325.3906" style="stroke:#181818;stroke-width:1.0;"/><text fill="#000000" font-family="sans-serif" font-size="13" lengthAdjust="spacing" textLength="143" x="187" y="307.3247">&#12518;&#12540;&#12470;&#30331;&#37682;&#29366;&#27841;&#30011;&#38754;&#34920;&#31034;</text><polygon fill="#181818" points="158,350.5234,168,354.5234,158,358.5234,162,354.5234" style="stroke:#181818;stroke-width:1.0;"/><line style="stroke:#181818;stroke-width:1.0;" x1="29" x2="164" y1="354.5234" y2="354.5234"/><text fill="#000000" font-family="sans-serif" font-size="13" lengthAdjust="spacing" textLength="52" x="36" y="349.4575">&#35299;&#32004;&#25276;&#19979;</text><line style="stroke:#181818;stroke-width:1.0;" x1="180" x2="222" y1="383.6563" y2="383.6563"/><line style="stroke:#181818;stroke-width:1.0;" x1="222" x2="222" y1="383.6563" y2="396.6563"/><line style="stroke:#181818;stroke-width:1.0;" x1="181" x2="222" y1="396.6563" y2="396.6563"/><polygon fill="#181818" points="191,392.6563,181,396.6563,191,400.6563,187,396.6563" style="stroke:#181818;stroke-width:1.0;"/><text fill="#000000" font-family="sans-serif" font-size="13" lengthAdjust="spacing" textLength="104" x="187" y="378.5903">&#35299;&#32004;&#30906;&#35469;&#30011;&#38754;&#34920;&#31034;</text><polygon fill="#181818" points="158,421.7891,168,425.7891,158,429.7891,162,425.7891" style="stroke:#181818;stroke-width:1.0;"/><line style="stroke:#181818;stroke-width:1.0;" x1="29" x2="164" y1="425.7891" y2="425.7891"/><text fill="#000000" font-family="sans-serif" font-size="13" lengthAdjust="spacing" textLength="52" x="36" y="420.7231">&#35299;&#32004;&#25276;&#19979;</text><polygon fill="#181818" points="325,466.0547,335,470.0547,325,474.0547,329,470.0547" style="stroke:#181818;stroke-width:1.0;"/><line style="stroke:#181818;stroke-width:1.0;" x1="180" x2="331" y1="470.0547" y2="470.0547"/><text fill="#000000" font-family="sans-serif" font-size="13" lengthAdjust="spacing" textLength="46" x="187" y="449.856">&#35299;&#32004;API</text><text fill="#000000" font-family="sans-serif" font-size="13" lengthAdjust="spacing" textLength="85" x="191" y="464.9888">/user DELETE</text><polygon fill="#181818" points="565.5,495.1875,575.5,499.1875,565.5,503.1875,569.5,499.1875" style="stroke:#181818;stroke-width:1.0;"/><line style="stroke:#181818;stroke-width:1.0;" x1="347" x2="571.5" y1="499.1875" y2="499.1875"/><text fill="#000000" font-family="sans-serif" font-size="13" lengthAdjust="spacing" textLength="208" x="354" y="494.1216">&#12463;&#12524;&#12459;&#24773;&#22577;&#12394;&#12393;&#12518;&#12540;&#12470;&#12398;&#24773;&#22577;&#12434;&#21066;&#38500;</text><polygon fill="#181818" points="358,509.1875,348,513.1875,358,517.1875,354,513.1875" style="stroke:#181818;stroke-width:1.0;"/><line style="stroke:#181818;stroke-width:1.0;stroke-dasharray:2.0,2.0;" x1="352" x2="581.5" y1="513.1875" y2="513.1875"/><line style="stroke:#181818;stroke-width:1.0;" x1="347" x2="389" y1="542.3203" y2="542.3203"/><line style="stroke:#181818;stroke-width:1.0;" x1="389" x2="389" y1="542.3203" y2="555.3203"/><line style="stroke:#181818;stroke-width:1.0;" x1="348" x2="389" y1="555.3203" y2="555.3203"/><polygon fill="#181818" points="358,551.3203,348,555.3203,358,559.3203,354,555.3203" style="stroke:#181818;stroke-width:1.0;"/><text fill="#000000" font-family="sans-serif" font-size="13" lengthAdjust="spacing" textLength="117" x="354" y="537.2544">&#12518;&#12540;&#12470;&#30331;&#37682;&#24773;&#22577;&#21066;&#38500;</text><polygon fill="#181818" points="471,595.5859,481,599.5859,471,603.5859,475,599.5859" style="stroke:#181818;stroke-width:1.0;"/><line style="stroke:#181818;stroke-width:1.0;" x1="347" x2="477" y1="599.5859" y2="599.5859"/><text fill="#000000" font-family="sans-serif" font-size="13" lengthAdjust="spacing" textLength="65" x="354" y="579.3872">&#12518;&#12540;&#12470;&#21066;&#38500;</text><text fill="#000000" font-family="sans-serif" font-size="13" lengthAdjust="spacing" textLength="101" x="354" y="594.52">(&#12488;&#12540;&#12463;&#12531;&#28961;&#21177;&#21270;)</text><polygon fill="#181818" points="191,609.5859,181,613.5859,191,617.5859,187,613.5859" style="stroke:#181818;stroke-width:1.0;"/><line style="stroke:#181818;stroke-width:1.0;stroke-dasharray:2.0,2.0;" x1="185" x2="341" y1="613.5859" y2="613.5859"/><line style="stroke:#181818;stroke-width:1.0;" x1="180" x2="222" y1="642.7188" y2="642.7188"/><line style="stroke:#181818;stroke-width:1.0;" x1="222" x2="222" y1="642.7188" y2="655.7188"/><line style="stroke:#181818;stroke-width:1.0;" x1="181" x2="222" y1="655.7188" y2="655.7188"/><polygon fill="#181818" points="191,651.7188,181,655.7188,191,659.7188,187,655.7188" style="stroke:#181818;stroke-width:1.0;"/><text fill="#000000" font-family="sans-serif" font-size="13" lengthAdjust="spacing" textLength="104" x="187" y="637.6528">&#35299;&#32004;&#23436;&#20102;&#30011;&#38754;&#34920;&#31034;</text><polygon fill="#181818" points="158,680.8516,168,684.8516,158,688.8516,162,684.8516" style="stroke:#181818;stroke-width:1.0;"/><line style="stroke:#181818;stroke-width:1.0;" x1="29" x2="164" y1="684.8516" y2="684.8516"/><text fill="#000000" font-family="sans-serif" font-size="13" lengthAdjust="spacing" textLength="117" x="36" y="679.7856">&#12300;&#30331;&#37682;&#30011;&#38754;&#12408;&#12301;&#25276;&#19979;</text><line style="stroke:#181818;stroke-width:1.0;" x1="180" x2="222" y1="713.9844" y2="713.9844"/><line style="stroke:#181818;stroke-width:1.0;" x1="222" x2="222" y1="713.9844" y2="726.9844"/><line style="stroke:#181818;stroke-width:1.0;" x1="181" x2="222" y1="726.9844" y2="726.9844"/><polygon fill="#181818" points="191,722.9844,181,726.9844,191,730.9844,187,726.9844" style="stroke:#181818;stroke-width:1.0;"/><text fill="#000000" font-family="sans-serif" font-size="13" lengthAdjust="spacing" textLength="104" x="187" y="708.9185">&#12525;&#12464;&#12452;&#12531;&#30011;&#38754;&#34920;&#31034;</text><!--SRC=[dPDTJnD158RlvrTCy489sN1FZ8c11apy8C4R4susouYRDBlDTfHun-w0mL9YubU2gDXQXL8jOfMqfS4VSzYTzbzuPcSBMol4k3UxC_E-pyoyvootUPPH27w2w81u0K6hk_DH_bWXv3BEbY7OX-0NheNrD_AuIaoBknuT0V5PwOF34MhcwSCyyqZEzBXjsJdJuRYEDb65eA8GeW5YJTRsexUrUUVAx2Jun-1lWu_a5eZt8BP6Oym2UsHRR10qvpgsDUFcERq-UmFTarEtn_7Bc3OvMp8VQwEPimTTtRsDxcudt6xBhOeokOkEpLqjjlHWq10TjAFcMZe5jCrnpyunxSh7tuGGTLTgN4iEIyV69kZCdLiP-VAezwxSBUtAIfjuZiiPzUp51vowz_lIIzCUOyuzbiswIuJY0-8h1DzKI2gXLsgeCdqUFWlawWvXpW9Le3-tdA2dwSS5mepHteWAdPFcEab4VvUB4eXr49_qFibfX_1oywXN_2uBXr73Hza_WDEEWII6sBgvpaVgTLbkOmd_YuIzW4KvNSTUeVCE7O_jKvcRcRiPeYIer2NLuhXVlq1GYyHg-E40_3tmgsUv-VLa7elpjD3RhCICguRHXnX6dwfUGybeTygAmgGFqs8jmCx3_oMUmKCrv4efBBJ2uklH_YtLlZ74E3_1i5uyQJ-vE45OBYQ5YsNWDs5vuw9gdxLh6lmR]--></g></svg>