<?xml version="1.0" encoding="UTF-8" standalone="no"?><svg xmlns="http://www.w3.org/2000/svg" xmlns:xlink="http://www.w3.org/1999/xlink" contentStyleType="text/css" height="846px" preserveAspectRatio="none" style="width:566px;height:846px;background:#FFFFFF;" version="1.1" viewBox="0 0 566 846" width="566px" zoomAndPan="magnify"><defs/><g><text fill="#000000" font-family="sans-serif" font-size="14" font-weight="bold" lengthAdjust="spacing" textLength="90" x="239.5" y="27.9951">サービス解約</text><rect fill="#FFFFFF" height="607.3906" style="stroke:#181818;stroke-width:1.0;" width="10" x="170" y="149.7266"/><rect fill="#FFFFFF" height="179.7969" style="stroke:#181818;stroke-width:1.0;" width="10" x="337" y="454.9219"/><rect fill="none" height="65.3984" style="stroke:#000000;stroke-width:1.5;" width="218" x="342" y="469.9219"/><line style="stroke:#181818;stroke-width:0.5;stroke-dasharray:5.0,5.0;" x1="29" x2="29" y1="118.5938" y2="766.1172"/><line style="stroke:#181818;stroke-width:0.5;stroke-dasharray:5.0,5.0;" x1="174.5" x2="174.5" y1="118.5938" y2="766.1172"/><line style="stroke:#181818;stroke-width:0.5;stroke-dasharray:5.0,5.0;" x1="341.5" x2="341.5" y1="118.5938" y2="766.1172"/><line style="stroke:#181818;stroke-width:0.5;stroke-dasharray:5.0,5.0;" x1="482.5" x2="482.5" y1="118.5938" y2="766.1172"/><text fill="#000000" font-family="sans-serif" font-size="14" lengthAdjust="spacing" textLength="42" x="5" y="115.292">ユーザ</text><ellipse cx="29" cy="50.7969" fill="#E2E2F0" rx="8" ry="8" style="stroke:#181818;stroke-width:0.5;"/><path d="M29,58.7969 L29,85.7969 M16,66.7969 L42,66.7969 M29,85.7969 L16,100.7969 M29,85.7969 L42,100.7969 " fill="none" style="stroke:#181818;stroke-width:0.5;"/><text fill="#000000" font-family="sans-serif" font-size="14" lengthAdjust="spacing" textLength="42" x="5" y="778.1123">ユーザ</text><ellipse cx="29" cy="789.9141" fill="#E2E2F0" rx="8" ry="8" style="stroke:#181818;stroke-width:0.5;"/><path d="M29,797.9141 L29,824.9141 M16,805.9141 L42,805.9141 M29,824.9141 L16,839.9141 M29,824.9141 L42,839.9141 " fill="none" style="stroke:#181818;stroke-width:0.5;"/><rect fill="#E2E2F0" height="46.5938" rx="2.5" ry="2.5" style="stroke:#181818;stroke-width:0.5;" width="127" x="111.5" y="71"/><text fill="#000000" font-family="sans-serif" font-size="14" lengthAdjust="spacing" textLength="112" x="119" y="90.9951">クライアント端末</text><text fill="#000000" font-family="sans-serif" font-size="14" lengthAdjust="spacing" textLength="113" x="118.5" y="107.292">(PCまたはスマホ)</text><rect fill="#E2E2F0" height="46.5938" rx="2.5" ry="2.5" style="stroke:#181818;stroke-width:0.5;" width="127" x="111.5" y="765.1172"/><text fill="#000000" font-family="sans-serif" font-size="14" lengthAdjust="spacing" textLength="112" x="119" y="785.1123">クライアント端末</text><text fill="#000000" font-family="sans-serif" font-size="14" lengthAdjust="spacing" textLength="113" x="118.5" y="801.4092">(PCまたはスマホ)</text><rect fill="#E2E2F0" height="46.5938" rx="2.5" ry="2.5" style="stroke:#181818;stroke-width:0.5;" width="151" x="266.5" y="71"/><text fill="#000000" font-family="sans-serif" font-size="14" lengthAdjust="spacing" textLength="99" x="292.5" y="90.9951">SonicHost API</text><text fill="#000000" font-family="sans-serif" font-size="14" lengthAdjust="spacing" textLength="137" x="273.5" y="107.292">(CDN/API-Gateway)</text><rect fill="#E2E2F0" height="46.5938" rx="2.5" ry="2.5" style="stroke:#181818;stroke-width:0.5;" width="151" x="266.5" y="765.1172"/><text fill="#000000" font-family="sans-serif" font-size="14" lengthAdjust="spacing" textLength="99" x="292.5" y="785.1123">SonicHost API</text><text fill="#000000" font-family="sans-serif" font-size="14" lengthAdjust="spacing" textLength="137" x="273.5" y="801.4092">(CDN/API-Gateway)</text><rect fill="#E2E2F0" height="46.5938" rx="2.5" ry="2.5" style="stroke:#181818;stroke-width:0.5;" width="81" x="442.5" y="71"/><text fill="#000000" font-family="sans-serif" font-size="14" lengthAdjust="spacing" textLength="56" x="455" y="90.9951">認証基盤</text><text fill="#000000" font-family="sans-serif" font-size="14" lengthAdjust="spacing" textLength="67" x="449.5" y="107.292">(Cognito)</text><rect fill="#E2E2F0" height="46.5938" rx="2.5" ry="2.5" style="stroke:#181818;stroke-width:0.5;" width="81" x="442.5" y="765.1172"/><text fill="#000000" font-family="sans-serif" font-size="14" lengthAdjust="spacing" textLength="56" x="455" y="785.1123">認証基盤</text><text fill="#000000" font-family="sans-serif" font-size="14" lengthAdjust="spacing" textLength="67" x="449.5" y="801.4092">(Cognito)</text><rect fill="#FFFFFF" height="607.3906" style="stroke:#181818;stroke-width:1.0;" width="10" x="170" y="149.7266"/><rect fill="#FFFFFF" height="179.7969" style="stroke:#181818;stroke-width:1.0;" width="10" x="337" y="454.9219"/><polygon fill="#181818" points="158,145.7266,168,149.7266,158,153.7266,162,149.7266" style="stroke:#181818;stroke-width:1.0;"/><line style="stroke:#181818;stroke-width:1.0;" x1="29" x2="164" y1="149.7266" y2="149.7266"/><text fill="#000000" font-family="sans-serif" font-size="13" lengthAdjust="spacing" textLength="89" x="36" y="144.6606">HOME画面表示</text><rect fill="#ADFF2F" height="23" style="stroke:#181818;stroke-width:0.5;" width="138" x="185" y="162.7266"/><text fill="#000000" font-family="sans-serif" font-size="13" lengthAdjust="spacing" textLength="130" x="189" y="178.7935">ログインフローを参照</text><polygon fill="#181818" points="158,207.9922,168,211.9922,158,215.9922,162,211.9922" style="stroke:#181818;stroke-width:1.0;"/><line style="stroke:#181818;stroke-width:1.0;" x1="29" x2="164" y1="211.9922" y2="211.9922"/><text fill="#000000" font-family="sans-serif" font-size="13" lengthAdjust="spacing" textLength="117" x="36" y="206.9263">ユーザアイコン押下</text><line style="stroke:#181818;stroke-width:1.0;" x1="180" x2="222" y1="241.125" y2="241.125"/><line style="stroke:#181818;stroke-width:1.0;" x1="222" x2="222" y1="241.125" y2="254.125"/><line style="stroke:#181818;stroke-width:1.0;" x1="181" x2="222" y1="254.125" y2="254.125"/><polygon fill="#181818" points="191,250.125,181,254.125,191,258.125,187,254.125" style="stroke:#181818;stroke-width:1.0;"/><text fill="#000000" font-family="sans-serif" font-size="13" lengthAdjust="spacing" textLength="130" x="187" y="236.0591">ユーザメニューを表示</text><polygon fill="#181818" points="158,279.2578,168,283.2578,158,287.2578,162,283.2578" style="stroke:#181818;stroke-width:1.0;"/><line style="stroke:#181818;stroke-width:1.0;" x1="29" x2="164" y1="283.2578" y2="283.2578"/><text fill="#000000" font-family="sans-serif" font-size="13" lengthAdjust="spacing" textLength="91" x="36" y="278.1919">登録状況を押下</text><line style="stroke:#181818;stroke-width:1.0;" x1="180" x2="222" y1="312.3906" y2="312.3906"/><line style="stroke:#181818;stroke-width:1.0;" x1="222" x2="222" y1="312.3906" y2="325.3906"/><line style="stroke:#181818;stroke-width:1.0;" x1="181" x2="222" y1="325.3906" y2="325.3906"/><polygon fill="#181818" points="191,321.3906,181,325.3906,191,329.3906,187,325.3906" style="stroke:#181818;stroke-width:1.0;"/><text fill="#000000" font-family="sans-serif" font-size="13" lengthAdjust="spacing" textLength="143" x="187" y="307.3247">ユーザ登録状況画面表示</text><polygon fill="#181818" points="158,350.5234,168,354.5234,158,358.5234,162,354.5234" style="stroke:#181818;stroke-width:1.0;"/><line style="stroke:#181818;stroke-width:1.0;" x1="29" x2="164" y1="354.5234" y2="354.5234"/><text fill="#000000" font-family="sans-serif" font-size="13" lengthAdjust="spacing" textLength="52" x="36" y="349.4575">解約押下</text><line style="stroke:#181818;stroke-width:1.0;" x1="180" x2="222" y1="383.6563" y2="383.6563"/><line style="stroke:#181818;stroke-width:1.0;" x1="222" x2="222" y1="383.6563" y2="396.6563"/><line style="stroke:#181818;stroke-width:1.0;" x1="181" x2="222" y1="396.6563" y2="396.6563"/><polygon fill="#181818" points="191,392.6563,181,396.6563,191,400.6563,187,396.6563" style="stroke:#181818;stroke-width:1.0;"/><text fill="#000000" font-family="sans-serif" font-size="13" lengthAdjust="spacing" textLength="104" x="187" y="378.5903">解約確認画面表示</text><polygon fill="#181818" points="158,421.7891,168,425.7891,158,429.7891,162,425.7891" style="stroke:#181818;stroke-width:1.0;"/><line style="stroke:#181818;stroke-width:1.0;" x1="29" x2="164" y1="425.7891" y2="425.7891"/><text fill="#000000" font-family="sans-serif" font-size="13" lengthAdjust="spacing" textLength="52" x="36" y="420.7231">解約押下</text><polygon fill="#181818" points="325,450.9219,335,454.9219,325,458.9219,329,454.9219" style="stroke:#181818;stroke-width:1.0;"/><line style="stroke:#181818;stroke-width:1.0;" x1="180" x2="331" y1="454.9219" y2="454.9219"/><text fill="#000000" font-family="sans-serif" font-size="13" lengthAdjust="spacing" textLength="46" x="187" y="449.856">解約API</text><path d="M342,469.9219 L420,469.9219 L420,477.0547 L410,487.0547 L342,487.0547 L342,469.9219 " fill="#EEEEEE" style="stroke:#000000;stroke-width:1.5;"/><rect fill="none" height="65.3984" style="stroke:#000000;stroke-width:1.5;" width="218" x="342" y="469.9219"/><text fill="#000000" font-family="sans-serif" font-size="13" font-weight="bold" lengthAdjust="spacing" textLength="33" x="357" y="482.9888">loop</text><text fill="#000000" font-family="sans-serif" font-size="11" font-weight="bold" lengthAdjust="spacing" textLength="120" x="435" y="482.1323">[登録サイト毎にループ]</text><rect fill="#FEFFDD" height="38" style="stroke:#181818;stroke-width:0.5;" width="132" x="352" y="492.0547"/><text fill="#000000" font-family="sans-serif" font-size="13" lengthAdjust="spacing" textLength="117" x="356" y="508.1216">サイト削除フローの</text><text fill="#000000" font-family="sans-serif" font-size="13" lengthAdjust="spacing" textLength="124" x="356" y="523.2544">サイト削除APIを参考</text><line style="stroke:#181818;stroke-width:1.0;" x1="347" x2="389" y1="563.4531" y2="563.4531"/><line style="stroke:#181818;stroke-width:1.0;" x1="389" x2="389" y1="563.4531" y2="576.4531"/><line style="stroke:#181818;stroke-width:1.0;" x1="348" x2="389" y1="576.4531" y2="576.4531"/><polygon fill="#181818" points="358,572.4531,348,576.4531,358,580.4531,354,576.4531" style="stroke:#181818;stroke-width:1.0;"/><text fill="#000000" font-family="sans-serif" font-size="13" lengthAdjust="spacing" textLength="117" x="354" y="558.3872">ユーザ登録情報削除</text><polygon fill="#181818" points="471,616.7188,481,620.7188,471,624.7188,475,620.7188" style="stroke:#181818;stroke-width:1.0;"/><line style="stroke:#181818;stroke-width:1.0;" x1="347" x2="477" y1="620.7188" y2="620.7188"/><text fill="#000000" font-family="sans-serif" font-size="13" lengthAdjust="spacing" textLength="65" x="354" y="600.52">ユーザ削除</text><text fill="#000000" font-family="sans-serif" font-size="13" lengthAdjust="spacing" textLength="101" x="354" y="615.6528">(トークン無効化)</text><polygon fill="#181818" points="191,630.7188,181,634.7188,191,638.7188,187,634.7188" style="stroke:#181818;stroke-width:1.0;"/><line style="stroke:#181818;stroke-width:1.0;stroke-dasharray:2.0,2.0;" x1="185" x2="341" y1="634.7188" y2="634.7188"/><line style="stroke:#181818;stroke-width:1.0;" x1="180" x2="222" y1="663.8516" y2="663.8516"/><line style="stroke:#181818;stroke-width:1.0;" x1="222" x2="222" y1="663.8516" y2="676.8516"/><line style="stroke:#181818;stroke-width:1.0;" x1="181" x2="222" y1="676.8516" y2="676.8516"/><polygon fill="#181818" points="191,672.8516,181,676.8516,191,680.8516,187,676.8516" style="stroke:#181818;stroke-width:1.0;"/><text fill="#000000" font-family="sans-serif" font-size="13" lengthAdjust="spacing" textLength="104" x="187" y="658.7856">解約完了画面表示</text><polygon fill="#181818" points="158,701.9844,168,705.9844,158,709.9844,162,705.9844" style="stroke:#181818;stroke-width:1.0;"/><line style="stroke:#181818;stroke-width:1.0;" x1="29" x2="164" y1="705.9844" y2="705.9844"/><text fill="#000000" font-family="sans-serif" font-size="13" lengthAdjust="spacing" textLength="117" x="36" y="700.9185">「登録画面へ」押下</text><line style="stroke:#181818;stroke-width:1.0;" x1="180" x2="222" y1="735.1172" y2="735.1172"/><line style="stroke:#181818;stroke-width:1.0;" x1="222" x2="222" y1="735.1172" y2="748.1172"/><line style="stroke:#181818;stroke-width:1.0;" x1="181" x2="222" y1="748.1172" y2="748.1172"/><polygon fill="#181818" points="191,744.1172,181,748.1172,191,752.1172,187,748.1172" style="stroke:#181818;stroke-width:1.0;"/><text fill="#000000" font-family="sans-serif" font-size="13" lengthAdjust="spacing" textLength="104" x="187" y="730.0513">ログイン画面表示</text><!--SRC=[dLDTJnD157sVNp611oLaupin9WOD-A2I-6JYosOPSPDcfzcE4j-wEs2m54qKDOYABUNBnbQj4beQ_36NtTd-2-_iRajBBJ7kqtoSU-wTSyuAMsGO1VyNo3R8r-0texrjzNE9a4juMWQ_3lvll0jgxzN90J4jmLqw1d9Nu_t3CMhcwECSSqdMT8LjsLdJ4NYFPV80_8gca0sGAwfQ3pzK7pYNvwR1Em5l2pnaReBy179p8gQPPqziYmqItUEERStodA3NvsvXzVIDErTmPSoOWYsQJvD2CsiFLaLVrgBzTh3LKfiLNSGN75lm16mb6qA87fiQrzA-T79oYixUlNrJhHztFfQZqhwgj8ZhSC6eQoyy4fG_x4B7Prp6dFiia-6BXE87yYlut_HxzMFVwAsMvrNmqbVBUuGvyrGJdMyvHNj2nbgZN5ZU20ljqwDLaeB-3fSbaAiWTv8-wRH3z6hZk5FyeGg7OSD3s3yGzrSCA374dUHaD6LohyejTEE_cD1MDALtZxQJ3EVPz54wibhlbR3-0hmgo6gSu7Un7-Tiqm6XwTUh2vuNEXkLCxUysYWCTawyZF8onlJyn0NHOwRJ3kaOokNWy_U4fGjC0zWFJW2OL6mPd-3Vqr1BfQ3G38fl9xgQN3MCk8rXZDOxg1LFMyykrXlonTJc60RU4UJNBih6MRZxYVy0]--></g></svg>