<?xml version="1.0" encoding="us-ascii" standalone="no"?><svg xmlns="http://www.w3.org/2000/svg" xmlns:xlink="http://www.w3.org/1999/xlink" contentStyleType="text/css" height="2451px" preserveAspectRatio="none" style="width:1299px;height:2451px;background:#FFFFFF;" version="1.1" viewBox="0 0 1299 2451" width="1299px" zoomAndPan="magnify"><defs/><g><text fill="#000000" font-family="sans-serif" font-size="14" font-weight="bold" lengthAdjust="spacing" textLength="90" x="600.75" y="27.9951">&#12362;&#21839;&#12356;&#21512;&#12431;&#12379;</text><rect fill="#FFFFFF" height="2211.5703" style="stroke:#181818;stroke-width:1.0;" width="10" x="224" y="149.7266"/><rect fill="#FFFFFF" height="14" style="stroke:#181818;stroke-width:1.0;" width="10" x="430" y="384.7891"/><rect fill="#FFFFFF" height="57.1328" style="stroke:#181818;stroke-width:1.0;" width="10" x="430" y="587.7188"/><rect fill="#FFFFFF" height="14" style="stroke:#181818;stroke-width:1.0;" width="10" x="430" y="1346.5078"/><rect fill="#FFFFFF" height="14" style="stroke:#181818;stroke-width:1.0;" width="10" x="430" y="1476.0391"/><rect fill="#FFFFFF" height="57.1328" style="stroke:#181818;stroke-width:1.0;" width="10" x="430" y="1687.9688"/><rect fill="#FFFFFF" height="57.1328" style="stroke:#181818;stroke-width:1.0;" width="10" x="430" y="1952.8359"/><rect fill="#FFFFFF" height="2232.7031" style="stroke:#181818;stroke-width:1.0;" width="10" x="609.5" y="128.5938"/><rect fill="#FFFFFF" height="14" style="stroke:#181818;stroke-width:1.0;" width="10" x="893.5" y="616.8516"/><rect fill="#FFFFFF" height="14" style="stroke:#181818;stroke-width:1.0;" width="10" x="893.5" y="1131.7109"/><rect fill="#FFFFFF" height="14" style="stroke:#181818;stroke-width:1.0;" width="10" x="893.5" y="1717.1016"/><rect fill="#FFFFFF" height="14" style="stroke:#181818;stroke-width:1.0;" width="10" x="893.5" y="1981.9688"/><rect fill="#FFFFFF" height="29.1328" style="stroke:#181818;stroke-width:1.0;" width="10" x="893.5" y="2179.6328"/><rect fill="#FFFFFF" height="14" style="stroke:#181818;stroke-width:1.0;" width="10" x="893.5" y="2280.0313"/><rect fill="#FFFFFF" height="14" style="stroke:#181818;stroke-width:1.0;" width="10" x="893.5" y="2338.2969"/><rect fill="#FFFFFF" height="1530.7813" style="stroke:#181818;stroke-width:1.0;" width="10" x="1052.5" y="830.5156"/><rect fill="none" height="512.9297" style="stroke:#000000;stroke-width:1.5;" width="989.5" x="10" y="1547.1719"/><line style="stroke:#181818;stroke-width:0.5;stroke-dasharray:5.0,5.0;" x1="44" x2="44" y1="118.5938" y2="2370.2969"/><line style="stroke:#181818;stroke-width:0.5;stroke-dasharray:5.0,5.0;" x1="228.5" x2="228.5" y1="118.5938" y2="2370.2969"/><line style="stroke:#181818;stroke-width:0.5;stroke-dasharray:5.0,5.0;" x1="434.5" x2="434.5" y1="118.5938" y2="2370.2969"/><line style="stroke:#181818;stroke-width:0.5;stroke-dasharray:5.0,5.0;" x1="614.5" x2="614.5" y1="118.5938" y2="2370.2969"/><line style="stroke:#181818;stroke-width:0.5;stroke-dasharray:5.0,5.0;" x1="898.5" x2="898.5" y1="118.5938" y2="2370.2969"/><line style="stroke:#181818;stroke-width:0.5;stroke-dasharray:5.0,5.0;" x1="1057.5" x2="1057.5" y1="118.5938" y2="2370.2969"/><line style="stroke:#181818;stroke-width:0.5;stroke-dasharray:5.0,5.0;" x1="1263.5" x2="1263.5" y1="118.5938" y2="2370.2969"/><text fill="#000000" font-family="sans-serif" font-size="14" lengthAdjust="spacing" textLength="42" x="20" y="115.292">&#12518;&#12540;&#12470;</text><ellipse cx="44" cy="50.7969" fill="#E2E2F0" rx="8" ry="8" style="stroke:#181818;stroke-width:0.5;"/><path d="M44,58.7969 L44,85.7969 M31,66.7969 L57,66.7969 M44,85.7969 L31,100.7969 M44,85.7969 L57,100.7969 " fill="none" style="stroke:#181818;stroke-width:0.5;"/><text fill="#000000" font-family="sans-serif" font-size="14" lengthAdjust="spacing" textLength="42" x="20" y="2382.292">&#12518;&#12540;&#12470;</text><ellipse cx="44" cy="2394.0938" fill="#E2E2F0" rx="8" ry="8" style="stroke:#181818;stroke-width:0.5;"/><path d="M44,2402.0938 L44,2429.0938 M31,2410.0938 L57,2410.0938 M44,2429.0938 L31,2444.0938 M44,2429.0938 L57,2444.0938 " fill="none" style="stroke:#181818;stroke-width:0.5;"/><rect fill="#E2E2F0" height="46.5938" rx="2.5" ry="2.5" style="stroke:#181818;stroke-width:0.5;" width="127" x="165.5" y="71"/><text fill="#000000" font-family="sans-serif" font-size="14" lengthAdjust="spacing" textLength="112" x="173" y="90.9951">&#12463;&#12521;&#12452;&#12450;&#12531;&#12488;&#31471;&#26411;</text><text fill="#000000" font-family="sans-serif" font-size="14" lengthAdjust="spacing" textLength="113" x="172.5" y="107.292">(PC&#12414;&#12383;&#12399;&#12473;&#12510;&#12507;)</text><rect fill="#E2E2F0" height="46.5938" rx="2.5" ry="2.5" style="stroke:#181818;stroke-width:0.5;" width="127" x="165.5" y="2369.2969"/><text fill="#000000" font-family="sans-serif" font-size="14" lengthAdjust="spacing" textLength="112" x="173" y="2389.292">&#12463;&#12521;&#12452;&#12450;&#12531;&#12488;&#31471;&#26411;</text><text fill="#000000" font-family="sans-serif" font-size="14" lengthAdjust="spacing" textLength="113" x="172.5" y="2405.5889">(PC&#12414;&#12383;&#12399;&#12473;&#12510;&#12507;)</text><rect fill="#E2E2F0" height="46.5938" rx="2.5" ry="2.5" style="stroke:#181818;stroke-width:0.5;" width="151" x="359.5" y="71"/><text fill="#000000" font-family="sans-serif" font-size="14" lengthAdjust="spacing" textLength="99" x="385.5" y="90.9951">SonicHost API</text><text fill="#000000" font-family="sans-serif" font-size="14" lengthAdjust="spacing" textLength="137" x="366.5" y="107.292">(CDN/API-Gateway)</text><rect fill="#E2E2F0" height="46.5938" rx="2.5" ry="2.5" style="stroke:#181818;stroke-width:0.5;" width="151" x="359.5" y="2369.2969"/><text fill="#000000" font-family="sans-serif" font-size="14" lengthAdjust="spacing" textLength="99" x="385.5" y="2389.292">SonicHost API</text><text fill="#000000" font-family="sans-serif" font-size="14" lengthAdjust="spacing" textLength="137" x="366.5" y="2405.5889">(CDN/API-Gateway)</text><rect fill="#E2E2F0" height="46.5938" rx="2.5" ry="2.5" style="stroke:#181818;stroke-width:0.5;" width="188" x="520.5" y="71"/><text fill="#000000" font-family="sans-serif" font-size="14" lengthAdjust="spacing" textLength="84" x="572.5" y="90.9951">&#12496;&#12483;&#12481;&#12469;&#12540;&#12496;</text><text fill="#000000" font-family="sans-serif" font-size="14" lengthAdjust="spacing" textLength="174" x="527.5" y="107.292">(CloudWatch&#12392;Lambda?)</text><rect fill="#E2E2F0" height="46.5938" rx="2.5" ry="2.5" style="stroke:#181818;stroke-width:0.5;" width="188" x="520.5" y="2369.2969"/><text fill="#000000" font-family="sans-serif" font-size="14" lengthAdjust="spacing" textLength="84" x="572.5" y="2389.292">&#12496;&#12483;&#12481;&#12469;&#12540;&#12496;</text><text fill="#000000" font-family="sans-serif" font-size="14" lengthAdjust="spacing" textLength="174" x="527.5" y="2405.5889">(CloudWatch&#12392;Lambda?)</text><rect fill="#E2E2F0" height="46.5938" rx="2.5" ry="2.5" style="stroke:#181818;stroke-width:0.5;" width="182" x="807.5" y="71"/><text fill="#000000" font-family="sans-serif" font-size="14" lengthAdjust="spacing" textLength="168" x="814.5" y="90.9951">&#12362;&#21839;&#12356;&#21512;&#12431;&#12379;&#31649;&#29702;&#12486;&#12540;&#12502;&#12523;</text><text fill="#000000" font-family="sans-serif" font-size="14" lengthAdjust="spacing" textLength="69" x="864" y="107.292">(Dynamo)</text><rect fill="#E2E2F0" height="46.5938" rx="2.5" ry="2.5" style="stroke:#181818;stroke-width:0.5;" width="182" x="807.5" y="2369.2969"/><text fill="#000000" font-family="sans-serif" font-size="14" lengthAdjust="spacing" textLength="168" x="814.5" y="2389.292">&#12362;&#21839;&#12356;&#21512;&#12431;&#12379;&#31649;&#29702;&#12486;&#12540;&#12502;&#12523;</text><text fill="#000000" font-family="sans-serif" font-size="14" lengthAdjust="spacing" textLength="69" x="864" y="2405.5889">(Dynamo)</text><rect fill="#E2E2F0" height="30.2969" rx="2.5" ry="2.5" style="stroke:#181818;stroke-width:0.5;" width="70" x="1022.5" y="87.2969"/><text fill="#000000" font-family="sans-serif" font-size="14" lengthAdjust="spacing" textLength="56" x="1029.5" y="107.292">&#31649;&#29702;&#30011;&#38754;</text><rect fill="#E2E2F0" height="30.2969" rx="2.5" ry="2.5" style="stroke:#181818;stroke-width:0.5;" width="70" x="1022.5" y="2369.2969"/><text fill="#000000" font-family="sans-serif" font-size="14" lengthAdjust="spacing" textLength="56" x="1029.5" y="2389.292">&#31649;&#29702;&#30011;&#38754;</text><text fill="#000000" font-family="sans-serif" font-size="14" lengthAdjust="spacing" textLength="42" x="1239.5" y="115.292">&#31649;&#29702;&#32773;</text><ellipse cx="1263.5" cy="50.7969" fill="#E2E2F0" rx="8" ry="8" style="stroke:#181818;stroke-width:0.5;"/><path d="M1263.5,58.7969 L1263.5,85.7969 M1250.5,66.7969 L1276.5,66.7969 M1263.5,85.7969 L1250.5,100.7969 M1263.5,85.7969 L1276.5,100.7969 " fill="none" style="stroke:#181818;stroke-width:0.5;"/><text fill="#000000" font-family="sans-serif" font-size="14" lengthAdjust="spacing" textLength="42" x="1239.5" y="2382.292">&#31649;&#29702;&#32773;</text><ellipse cx="1263.5" cy="2394.0938" fill="#E2E2F0" rx="8" ry="8" style="stroke:#181818;stroke-width:0.5;"/><path d="M1263.5,2402.0938 L1263.5,2429.0938 M1250.5,2410.0938 L1276.5,2410.0938 M1263.5,2429.0938 L1250.5,2444.0938 M1263.5,2429.0938 L1276.5,2444.0938 " fill="none" style="stroke:#181818;stroke-width:0.5;"/><rect fill="#FFFFFF" height="2211.5703" style="stroke:#181818;stroke-width:1.0;" width="10" x="224" y="149.7266"/><rect fill="#FFFFFF" height="14" style="stroke:#181818;stroke-width:1.0;" width="10" x="430" y="384.7891"/><rect fill="#FFFFFF" height="57.1328" style="stroke:#181818;stroke-width:1.0;" width="10" x="430" y="587.7188"/><rect fill="#FFFFFF" height="14" style="stroke:#181818;stroke-width:1.0;" width="10" x="430" y="1346.5078"/><rect fill="#FFFFFF" height="14" style="stroke:#181818;stroke-width:1.0;" width="10" x="430" y="1476.0391"/><rect fill="#FFFFFF" height="57.1328" style="stroke:#181818;stroke-width:1.0;" width="10" x="430" y="1687.9688"/><rect fill="#FFFFFF" height="57.1328" style="stroke:#181818;stroke-width:1.0;" width="10" x="430" y="1952.8359"/><rect fill="#FFFFFF" height="2232.7031" style="stroke:#181818;stroke-width:1.0;" width="10" x="609.5" y="128.5938"/><rect fill="#FFFFFF" height="14" style="stroke:#181818;stroke-width:1.0;" width="10" x="893.5" y="616.8516"/><rect fill="#FFFFFF" height="14" style="stroke:#181818;stroke-width:1.0;" width="10" x="893.5" y="1131.7109"/><rect fill="#FFFFFF" height="14" style="stroke:#181818;stroke-width:1.0;" width="10" x="893.5" y="1717.1016"/><rect fill="#FFFFFF" height="14" style="stroke:#181818;stroke-width:1.0;" width="10" x="893.5" y="1981.9688"/><rect fill="#FFFFFF" height="29.1328" style="stroke:#181818;stroke-width:1.0;" width="10" x="893.5" y="2179.6328"/><rect fill="#FFFFFF" height="14" style="stroke:#181818;stroke-width:1.0;" width="10" x="893.5" y="2280.0313"/><rect fill="#FFFFFF" height="14" style="stroke:#181818;stroke-width:1.0;" width="10" x="893.5" y="2338.2969"/><rect fill="#FFFFFF" height="1530.7813" style="stroke:#181818;stroke-width:1.0;" width="10" x="1052.5" y="830.5156"/><polygon fill="#181818" points="212,145.7266,222,149.7266,212,153.7266,216,149.7266" style="stroke:#181818;stroke-width:1.0;"/><line style="stroke:#181818;stroke-width:1.0;" x1="44" x2="218" y1="149.7266" y2="149.7266"/><text fill="#000000" font-family="sans-serif" font-size="13" lengthAdjust="spacing" textLength="143" x="51" y="144.6606">&#12467;&#12531;&#12486;&#12531;&#12484;&#26356;&#26032;&#30011;&#38754;&#34920;&#31034;</text><rect fill="#ADFF2F" height="23" style="stroke:#181818;stroke-width:0.5;" width="138" x="239" y="162.7266"/><text fill="#000000" font-family="sans-serif" font-size="13" lengthAdjust="spacing" textLength="130" x="243" y="178.7935">&#12525;&#12464;&#12452;&#12531;&#12501;&#12525;&#12540;&#12434;&#21442;&#29031;</text><polygon fill="#181818" points="212,223.125,222,227.125,212,231.125,216,227.125" style="stroke:#181818;stroke-width:1.0;"/><line style="stroke:#181818;stroke-width:1.0;" x1="44" x2="218" y1="227.125" y2="227.125"/><text fill="#000000" font-family="sans-serif" font-size="13" lengthAdjust="spacing" textLength="117" x="51" y="206.9263">&#35373;&#23450;&#12539;&#12381;&#12398;&#20182;&#12434;&#36984;&#25246;</text><text fill="#000000" font-family="sans-serif" font-size="13" lengthAdjust="spacing" textLength="117" x="51" y="222.0591">&#12469;&#12452;&#12489;&#12513;&#12491;&#12517;&#12540;&#12424;&#12426;</text><line style="stroke:#181818;stroke-width:1.0;" x1="234" x2="276" y1="256.2578" y2="256.2578"/><line style="stroke:#181818;stroke-width:1.0;" x1="276" x2="276" y1="256.2578" y2="269.2578"/><line style="stroke:#181818;stroke-width:1.0;" x1="235" x2="276" y1="269.2578" y2="269.2578"/><polygon fill="#181818" points="245,265.2578,235,269.2578,245,273.2578,241,269.2578" style="stroke:#181818;stroke-width:1.0;"/><text fill="#000000" font-family="sans-serif" font-size="13" lengthAdjust="spacing" textLength="143" x="241" y="251.1919">&#35373;&#23450;&#12539;&#12381;&#12398;&#20182;&#30011;&#38754;&#12434;&#34920;&#31034;</text><polygon fill="#181818" points="212,294.3906,222,298.3906,212,302.3906,216,298.3906" style="stroke:#181818;stroke-width:1.0;"/><line style="stroke:#181818;stroke-width:1.0;" x1="44" x2="218" y1="298.3906" y2="298.3906"/><text fill="#000000" font-family="sans-serif" font-size="13" lengthAdjust="spacing" textLength="156" x="51" y="293.3247">&#12362;&#21839;&#12356;&#21512;&#12431;&#12379;&#12408;&#36983;&#31227;&#12434;&#36984;&#25246;</text><line style="stroke:#181818;stroke-width:1.0;" x1="234" x2="276" y1="327.5234" y2="327.5234"/><line style="stroke:#181818;stroke-width:1.0;" x1="276" x2="276" y1="327.5234" y2="340.5234"/><line style="stroke:#181818;stroke-width:1.0;" x1="235" x2="276" y1="340.5234" y2="340.5234"/><polygon fill="#181818" points="245,336.5234,235,340.5234,245,344.5234,241,340.5234" style="stroke:#181818;stroke-width:1.0;"/><text fill="#000000" font-family="sans-serif" font-size="13" lengthAdjust="spacing" textLength="143" x="241" y="322.4575">&#12362;&#21839;&#12356;&#21512;&#12431;&#12379;&#30011;&#38754;&#12434;&#34920;&#31034;</text><polygon fill="#181818" points="418,380.7891,428,384.7891,418,388.7891,422,384.7891" style="stroke:#181818;stroke-width:1.0;"/><line style="stroke:#181818;stroke-width:1.0;" x1="234" x2="424" y1="384.7891" y2="384.7891"/><text fill="#000000" font-family="sans-serif" font-size="13" lengthAdjust="spacing" textLength="150" x="241" y="364.5903">&#12362;&#21839;&#12356;&#21512;&#12431;&#12379;&#19968;&#35239;&#21462;&#24471;API</text><text fill="#000000" font-family="sans-serif" font-size="13" lengthAdjust="spacing" textLength="89" x="241" y="379.7231">/contacts GET</text><polygon fill="#181818" points="245,394.7891,235,398.7891,245,402.7891,241,398.7891" style="stroke:#181818;stroke-width:1.0;"/><line style="stroke:#181818;stroke-width:1.0;stroke-dasharray:2.0,2.0;" x1="239" x2="434" y1="398.7891" y2="398.7891"/><polygon fill="#181818" points="212,423.9219,222,427.9219,212,431.9219,216,427.9219" style="stroke:#181818;stroke-width:1.0;"/><line style="stroke:#181818;stroke-width:1.0;" x1="44" x2="218" y1="427.9219" y2="427.9219"/><text fill="#000000" font-family="sans-serif" font-size="13" lengthAdjust="spacing" textLength="156" x="51" y="422.856">&#12362;&#21839;&#12356;&#21512;&#12431;&#12379;&#12434;&#36861;&#21152;&#12434;&#25276;&#19979;</text><line style="stroke:#181818;stroke-width:1.0;" x1="234" x2="276" y1="457.0547" y2="457.0547"/><line style="stroke:#181818;stroke-width:1.0;" x1="276" x2="276" y1="457.0547" y2="470.0547"/><line style="stroke:#181818;stroke-width:1.0;" x1="235" x2="276" y1="470.0547" y2="470.0547"/><polygon fill="#181818" points="245,466.0547,235,470.0547,245,474.0547,241,470.0547" style="stroke:#181818;stroke-width:1.0;"/><text fill="#000000" font-family="sans-serif" font-size="13" lengthAdjust="spacing" textLength="169" x="241" y="451.9888">&#12362;&#21839;&#12356;&#21512;&#12431;&#12379;&#20837;&#21147;&#30011;&#38754;&#12434;&#34920;&#31034;</text><polygon fill="#181818" points="212,510.3203,222,514.3203,212,518.3203,216,514.3203" style="stroke:#181818;stroke-width:1.0;"/><line style="stroke:#181818;stroke-width:1.0;" x1="44" x2="218" y1="514.3203" y2="514.3203"/><text fill="#000000" font-family="sans-serif" font-size="13" lengthAdjust="spacing" textLength="117" x="51" y="494.1216">&#21839;&#12356;&#21512;&#12431;&#12379;&#12459;&#12486;&#12468;&#12522;</text><text fill="#000000" font-family="sans-serif" font-size="13" lengthAdjust="spacing" textLength="143" x="51" y="509.2544">&#12362;&#21839;&#12356;&#21512;&#12431;&#12379;&#20869;&#23481;&#12434;&#20837;&#21147;</text><polygon fill="#181818" points="212,539.4531,222,543.4531,212,547.4531,216,543.4531" style="stroke:#181818;stroke-width:1.0;"/><line style="stroke:#181818;stroke-width:1.0;" x1="44" x2="218" y1="543.4531" y2="543.4531"/><text fill="#000000" font-family="sans-serif" font-size="13" lengthAdjust="spacing" textLength="52" x="51" y="538.3872">&#36865;&#20449;&#25276;&#19979;</text><polygon fill="#181818" points="418,583.7188,428,587.7188,418,591.7188,422,587.7188" style="stroke:#181818;stroke-width:1.0;"/><line style="stroke:#181818;stroke-width:1.0;" x1="234" x2="424" y1="587.7188" y2="587.7188"/><text fill="#000000" font-family="sans-serif" font-size="13" lengthAdjust="spacing" textLength="150" x="241" y="567.52">&#12362;&#21839;&#12356;&#21512;&#12431;&#12379;&#26032;&#35215;&#36861;&#21152;API</text><text fill="#000000" font-family="sans-serif" font-size="13" lengthAdjust="spacing" textLength="97" x="241" y="582.6528">/contacts POST</text><polygon fill="#181818" points="881.5,612.8516,891.5,616.8516,881.5,620.8516,885.5,616.8516" style="stroke:#181818;stroke-width:1.0;"/><line style="stroke:#181818;stroke-width:1.0;" x1="440" x2="887.5" y1="616.8516" y2="616.8516"/><text fill="#000000" font-family="sans-serif" font-size="13" lengthAdjust="spacing" textLength="117" x="447" y="611.7856">&#12362;&#21839;&#12356;&#21512;&#12431;&#12379;&#12434;&#36861;&#21152;</text><polygon fill="#181818" points="451,626.8516,441,630.8516,451,634.8516,447,630.8516" style="stroke:#181818;stroke-width:1.0;"/><line style="stroke:#181818;stroke-width:1.0;" x1="445" x2="897.5" y1="630.8516" y2="630.8516"/><polygon fill="#181818" points="245,640.8516,235,644.8516,245,648.8516,241,644.8516" style="stroke:#181818;stroke-width:1.0;"/><line style="stroke:#181818;stroke-width:1.0;" x1="239" x2="434" y1="644.8516" y2="644.8516"/><line style="stroke:#181818;stroke-width:1.0;" x1="234" x2="276" y1="673.9844" y2="673.9844"/><line style="stroke:#181818;stroke-width:1.0;" x1="276" x2="276" y1="673.9844" y2="686.9844"/><line style="stroke:#181818;stroke-width:1.0;" x1="235" x2="276" y1="686.9844" y2="686.9844"/><polygon fill="#181818" points="245,682.9844,235,686.9844,245,690.9844,241,686.9844" style="stroke:#181818;stroke-width:1.0;"/><text fill="#000000" font-family="sans-serif" font-size="13" lengthAdjust="spacing" textLength="169" x="241" y="668.9185">&#12362;&#21839;&#12356;&#21512;&#12431;&#12379;&#35443;&#32048;&#30011;&#38754;&#12434;&#34920;&#31034;</text><polygon fill="#181818" points="212,712.1172,222,716.1172,212,720.1172,216,716.1172" style="stroke:#181818;stroke-width:1.0;"/><line style="stroke:#181818;stroke-width:1.0;" x1="44" x2="218" y1="716.1172" y2="716.1172"/><text fill="#000000" font-family="sans-serif" font-size="13" lengthAdjust="spacing" textLength="52" x="51" y="711.0513">&#25147;&#12427;&#25276;&#19979;</text><line style="stroke:#181818;stroke-width:1.0;" x1="234" x2="276" y1="745.25" y2="745.25"/><line style="stroke:#181818;stroke-width:1.0;" x1="276" x2="276" y1="745.25" y2="758.25"/><line style="stroke:#181818;stroke-width:1.0;" x1="235" x2="276" y1="758.25" y2="758.25"/><polygon fill="#181818" points="245,754.25,235,758.25,245,762.25,241,758.25" style="stroke:#181818;stroke-width:1.0;"/><text fill="#000000" font-family="sans-serif" font-size="13" lengthAdjust="spacing" textLength="143" x="241" y="740.1841">&#12362;&#21839;&#12356;&#21512;&#12431;&#12379;&#30011;&#38754;&#12434;&#34920;&#31034;</text><rect fill="#EEEEEE" height="3" style="stroke:#EEEEEE;stroke-width:1.0;" width="1292.5" x="0" y="786.8164"/><line style="stroke:#000000;stroke-width:1.0;" x1="0" x2="1292.5" y1="786.8164" y2="786.8164"/><line style="stroke:#000000;stroke-width:1.0;" x1="0" x2="1292.5" y1="789.8164" y2="789.8164"/><rect fill="#EEEEEE" height="23.1328" style="stroke:#000000;stroke-width:2.0;" width="103" x="594.75" y="776.25"/><text fill="#000000" font-family="sans-serif" font-size="13" font-weight="bold" lengthAdjust="spacing" textLength="84" x="600.75" y="792.3169">&#12375;&#12400;&#12425;&#12367;&#32076;&#36942;</text><polygon fill="#181818" points="1073.5,826.5156,1063.5,830.5156,1073.5,834.5156,1069.5,830.5156" style="stroke:#181818;stroke-width:1.0;"/><line style="stroke:#181818;stroke-width:1.0;" x1="1067.5" x2="1262.5" y1="830.5156" y2="830.5156"/><text fill="#000000" font-family="sans-serif" font-size="13" lengthAdjust="spacing" textLength="78" x="1079.5" y="825.4497">&#31649;&#29702;&#30011;&#38754;&#36215;&#21205;</text><polygon fill="#181818" points="1073.5,855.6484,1063.5,859.6484,1073.5,863.6484,1069.5,859.6484" style="stroke:#181818;stroke-width:1.0;"/><line style="stroke:#181818;stroke-width:1.0;" x1="1067.5" x2="1262.5" y1="859.6484" y2="859.6484"/><text fill="#000000" font-family="sans-serif" font-size="13" lengthAdjust="spacing" textLength="169" x="1079.5" y="854.5825">&#12525;&#12464;&#12452;&#12531;&#65286;&#12362;&#21839;&#12356;&#21512;&#12431;&#12379;&#34920;&#31034;</text><line style="stroke:#181818;stroke-width:1.0;" x1="1062.5" x2="1104.5" y1="888.7813" y2="888.7813"/><line style="stroke:#181818;stroke-width:1.0;" x1="1104.5" x2="1104.5" y1="888.7813" y2="901.7813"/><line style="stroke:#181818;stroke-width:1.0;" x1="1063.5" x2="1104.5" y1="901.7813" y2="901.7813"/><polygon fill="#181818" points="1073.5,897.7813,1063.5,901.7813,1073.5,905.7813,1069.5,901.7813" style="stroke:#181818;stroke-width:1.0;"/><text fill="#000000" font-family="sans-serif" font-size="13" lengthAdjust="spacing" textLength="169" x="1069.5" y="883.7153">&#12362;&#21839;&#12356;&#21512;&#12431;&#12379;&#31649;&#29702;&#30011;&#38754;&#12434;&#34920;&#31034;</text><polygon fill="#181818" points="1073.5,926.9141,1063.5,930.9141,1073.5,934.9141,1069.5,930.9141" style="stroke:#181818;stroke-width:1.0;"/><line style="stroke:#181818;stroke-width:1.0;" x1="1067.5" x2="1262.5" y1="930.9141" y2="930.9141"/><text fill="#000000" font-family="sans-serif" font-size="13" lengthAdjust="spacing" textLength="104" x="1079.5" y="925.8481">&#12362;&#21839;&#12356;&#21512;&#12431;&#12379;&#36984;&#25246;</text><line style="stroke:#181818;stroke-width:1.0;" x1="1062.5" x2="1104.5" y1="960.0469" y2="960.0469"/><line style="stroke:#181818;stroke-width:1.0;" x1="1104.5" x2="1104.5" y1="960.0469" y2="973.0469"/><line style="stroke:#181818;stroke-width:1.0;" x1="1063.5" x2="1104.5" y1="973.0469" y2="973.0469"/><polygon fill="#181818" points="1073.5,969.0469,1063.5,973.0469,1073.5,977.0469,1069.5,973.0469" style="stroke:#181818;stroke-width:1.0;"/><text fill="#000000" font-family="sans-serif" font-size="13" lengthAdjust="spacing" textLength="156" x="1069.5" y="954.981">&#12362;&#21839;&#12356;&#21512;&#12431;&#12379;&#35443;&#32048;&#30011;&#38754;&#34920;&#31034;</text><polygon fill="#181818" points="1073.5,998.1797,1063.5,1002.1797,1073.5,1006.1797,1069.5,1002.1797" style="stroke:#181818;stroke-width:1.0;"/><line style="stroke:#181818;stroke-width:1.0;" x1="1067.5" x2="1262.5" y1="1002.1797" y2="1002.1797"/><text fill="#000000" font-family="sans-serif" font-size="13" lengthAdjust="spacing" textLength="130" x="1079.5" y="997.1138">&#12362;&#21839;&#12356;&#21512;&#12431;&#12379;&#36820;&#20449;&#20837;&#21147;</text><polygon fill="#181818" points="1073.5,1027.3125,1063.5,1031.3125,1073.5,1035.3125,1069.5,1031.3125" style="stroke:#181818;stroke-width:1.0;"/><line style="stroke:#181818;stroke-width:1.0;" x1="1067.5" x2="1262.5" y1="1031.3125" y2="1031.3125"/><text fill="#000000" font-family="sans-serif" font-size="13" lengthAdjust="spacing" textLength="52" x="1079.5" y="1026.2466">&#30906;&#35469;&#25276;&#19979;</text><line style="stroke:#181818;stroke-width:1.0;" x1="1062.5" x2="1104.5" y1="1060.4453" y2="1060.4453"/><line style="stroke:#181818;stroke-width:1.0;" x1="1104.5" x2="1104.5" y1="1060.4453" y2="1073.4453"/><line style="stroke:#181818;stroke-width:1.0;" x1="1063.5" x2="1104.5" y1="1073.4453" y2="1073.4453"/><polygon fill="#181818" points="1073.5,1069.4453,1063.5,1073.4453,1073.5,1077.4453,1069.5,1073.4453" style="stroke:#181818;stroke-width:1.0;"/><text fill="#000000" font-family="sans-serif" font-size="13" lengthAdjust="spacing" textLength="182" x="1069.5" y="1055.3794">&#12362;&#21839;&#12356;&#21512;&#12431;&#12379;&#36820;&#20449;&#30906;&#35469;&#30011;&#38754;&#34920;&#31034;</text><polygon fill="#181818" points="1073.5,1098.5781,1063.5,1102.5781,1073.5,1106.5781,1069.5,1102.5781" style="stroke:#181818;stroke-width:1.0;"/><line style="stroke:#181818;stroke-width:1.0;" x1="1067.5" x2="1262.5" y1="1102.5781" y2="1102.5781"/><text fill="#000000" font-family="sans-serif" font-size="13" lengthAdjust="spacing" textLength="52" x="1079.5" y="1097.5122">&#36865;&#20449;&#25276;&#19979;</text><polygon fill="#181818" points="914.5,1127.7109,904.5,1131.7109,914.5,1135.7109,910.5,1131.7109" style="stroke:#181818;stroke-width:1.0;"/><line style="stroke:#181818;stroke-width:1.0;" x1="908.5" x2="1051.5" y1="1131.7109" y2="1131.7109"/><text fill="#000000" font-family="sans-serif" font-size="13" lengthAdjust="spacing" textLength="130" x="920.5" y="1126.645">&#12362;&#21839;&#12356;&#21512;&#12431;&#12379;&#36820;&#20449;&#36861;&#21152;</text><polygon fill="#181818" points="1040.5,1141.7109,1050.5,1145.7109,1040.5,1149.7109,1044.5,1145.7109" style="stroke:#181818;stroke-width:1.0;"/><line style="stroke:#181818;stroke-width:1.0;stroke-dasharray:2.0,2.0;" x1="898.5" x2="1046.5" y1="1145.7109" y2="1145.7109"/><line style="stroke:#181818;stroke-width:1.0;" x1="1062.5" x2="1104.5" y1="1174.8438" y2="1174.8438"/><line style="stroke:#181818;stroke-width:1.0;" x1="1104.5" x2="1104.5" y1="1174.8438" y2="1187.8438"/><line style="stroke:#181818;stroke-width:1.0;" x1="1063.5" x2="1104.5" y1="1187.8438" y2="1187.8438"/><polygon fill="#181818" points="1073.5,1183.8438,1063.5,1187.8438,1073.5,1191.8438,1069.5,1187.8438" style="stroke:#181818;stroke-width:1.0;"/><text fill="#000000" font-family="sans-serif" font-size="13" lengthAdjust="spacing" textLength="182" x="1069.5" y="1169.7778">&#12362;&#21839;&#12356;&#21512;&#12431;&#12379;&#36820;&#20449;&#23436;&#20102;&#30011;&#38754;&#34920;&#31034;</text><rect fill="#EEEEEE" height="3" style="stroke:#EEEEEE;stroke-width:1.0;" width="1292.5" x="0" y="1216.4102"/><line style="stroke:#000000;stroke-width:1.0;" x1="0" x2="1292.5" y1="1216.4102" y2="1216.4102"/><line style="stroke:#000000;stroke-width:1.0;" x1="0" x2="1292.5" y1="1219.4102" y2="1219.4102"/><rect fill="#EEEEEE" height="23.1328" style="stroke:#000000;stroke-width:2.0;" width="103" x="594.75" y="1205.8438"/><text fill="#000000" font-family="sans-serif" font-size="13" font-weight="bold" lengthAdjust="spacing" textLength="84" x="600.75" y="1221.9106">&#12375;&#12400;&#12425;&#12367;&#32076;&#36942;</text><polygon fill="#181818" points="212,1256.1094,222,1260.1094,212,1264.1094,216,1260.1094" style="stroke:#181818;stroke-width:1.0;"/><line style="stroke:#181818;stroke-width:1.0;" x1="44" x2="218" y1="1260.1094" y2="1260.1094"/><text fill="#000000" font-family="sans-serif" font-size="13" lengthAdjust="spacing" textLength="104" x="51" y="1255.0435">&#12362;&#21839;&#12356;&#21512;&#12431;&#12379;&#36984;&#25246;</text><line style="stroke:#181818;stroke-width:1.0;" x1="234" x2="276" y1="1289.2422" y2="1289.2422"/><line style="stroke:#181818;stroke-width:1.0;" x1="276" x2="276" y1="1289.2422" y2="1302.2422"/><line style="stroke:#181818;stroke-width:1.0;" x1="235" x2="276" y1="1302.2422" y2="1302.2422"/><polygon fill="#181818" points="245,1298.2422,235,1302.2422,245,1306.2422,241,1302.2422" style="stroke:#181818;stroke-width:1.0;"/><text fill="#000000" font-family="sans-serif" font-size="13" lengthAdjust="spacing" textLength="130" x="241" y="1284.1763">&#12362;&#21839;&#12356;&#21512;&#12431;&#12379;&#30011;&#38754;&#34920;&#31034;</text><polygon fill="#181818" points="418,1342.5078,428,1346.5078,418,1350.5078,422,1346.5078" style="stroke:#181818;stroke-width:1.0;"/><line style="stroke:#181818;stroke-width:1.0;" x1="234" x2="424" y1="1346.5078" y2="1346.5078"/><text fill="#000000" font-family="sans-serif" font-size="13" lengthAdjust="spacing" textLength="150" x="241" y="1326.3091">&#12362;&#21839;&#12356;&#21512;&#12431;&#12379;&#19968;&#35239;&#21462;&#24471;API</text><text fill="#000000" font-family="sans-serif" font-size="13" lengthAdjust="spacing" textLength="89" x="241" y="1341.4419">/contacts GET</text><polygon fill="#181818" points="245,1356.5078,235,1360.5078,245,1364.5078,241,1360.5078" style="stroke:#181818;stroke-width:1.0;"/><line style="stroke:#181818;stroke-width:1.0;stroke-dasharray:2.0,2.0;" x1="239" x2="434" y1="1360.5078" y2="1360.5078"/><polygon fill="#181818" points="212,1385.6406,222,1389.6406,212,1393.6406,216,1389.6406" style="stroke:#181818;stroke-width:1.0;"/><line style="stroke:#181818;stroke-width:1.0;" x1="44" x2="218" y1="1389.6406" y2="1389.6406"/><text fill="#000000" font-family="sans-serif" font-size="13" lengthAdjust="spacing" textLength="104" x="51" y="1384.5747">&#12362;&#21839;&#12356;&#21512;&#12431;&#12379;&#36984;&#25246;</text><line style="stroke:#181818;stroke-width:1.0;" x1="234" x2="276" y1="1433.9063" y2="1433.9063"/><line style="stroke:#181818;stroke-width:1.0;" x1="276" x2="276" y1="1433.9063" y2="1446.9063"/><line style="stroke:#181818;stroke-width:1.0;" x1="235" x2="276" y1="1446.9063" y2="1446.9063"/><polygon fill="#181818" points="245,1442.9063,235,1446.9063,245,1450.9063,241,1446.9063" style="stroke:#181818;stroke-width:1.0;"/><text fill="#000000" font-family="sans-serif" font-size="13" lengthAdjust="spacing" textLength="130" x="241" y="1413.7075">&#12362;&#21839;&#12356;&#21512;&#12431;&#12379;&#35443;&#32048;&#34920;&#31034;</text><text fill="#000000" font-family="sans-serif" font-size="13" lengthAdjust="spacing" textLength="127" x="241" y="1428.8403">(&#12450;&#12467;&#12540;&#12487;&#12451;&#12458;&#12531;&#38283;&#12367;)</text><polygon fill="#181818" points="418,1472.0391,428,1476.0391,418,1480.0391,422,1476.0391" style="stroke:#181818;stroke-width:1.0;"/><line style="stroke:#181818;stroke-width:1.0;" x1="234" x2="424" y1="1476.0391" y2="1476.0391"/><text fill="#000000" font-family="sans-serif" font-size="13" lengthAdjust="spacing" textLength="150" x="241" y="1470.9731">&#12362;&#21839;&#12356;&#21512;&#12431;&#12379;&#35443;&#32048;&#21462;&#24471;API</text><polygon fill="#181818" points="245,1486.0391,235,1490.0391,245,1494.0391,241,1490.0391" style="stroke:#181818;stroke-width:1.0;"/><line style="stroke:#181818;stroke-width:1.0;stroke-dasharray:2.0,2.0;" x1="239" x2="434" y1="1490.0391" y2="1490.0391"/><line style="stroke:#181818;stroke-width:1.0;" x1="234" x2="276" y1="1519.1719" y2="1519.1719"/><line style="stroke:#181818;stroke-width:1.0;" x1="276" x2="276" y1="1519.1719" y2="1532.1719"/><line style="stroke:#181818;stroke-width:1.0;" x1="235" x2="276" y1="1532.1719" y2="1532.1719"/><polygon fill="#181818" points="245,1528.1719,235,1532.1719,245,1536.1719,241,1532.1719" style="stroke:#181818;stroke-width:1.0;"/><text fill="#000000" font-family="sans-serif" font-size="13" lengthAdjust="spacing" textLength="91" x="241" y="1514.106">&#36820;&#20449;&#24773;&#22577;&#12434;&#34920;&#31034;</text><path d="M10,1547.1719 L76,1547.1719 L76,1554.3047 L66,1564.3047 L10,1564.3047 L10,1547.1719 " fill="#EEEEEE" style="stroke:#000000;stroke-width:1.5;"/><rect fill="none" height="512.9297" style="stroke:#000000;stroke-width:1.5;" width="989.5" x="10" y="1547.1719"/><text fill="#000000" font-family="sans-serif" font-size="13" font-weight="bold" lengthAdjust="spacing" textLength="21" x="25" y="1560.2388">alt</text><text fill="#000000" font-family="sans-serif" font-size="11" font-weight="bold" lengthAdjust="spacing" textLength="120" x="91" y="1559.3823">[&#36861;&#21152;&#12391;&#36820;&#20449;&#12375;&#12383;&#12356;&#22580;&#21512;]</text><polygon fill="#181818" points="212,1581.4375,222,1585.4375,212,1589.4375,216,1585.4375" style="stroke:#181818;stroke-width:1.0;"/><line style="stroke:#181818;stroke-width:1.0;" x1="44" x2="218" y1="1585.4375" y2="1585.4375"/><text fill="#000000" font-family="sans-serif" font-size="13" lengthAdjust="spacing" textLength="78" x="51" y="1580.3716">&#36820;&#20449;&#12377;&#12427;&#25276;&#19979;</text><polygon fill="#181818" points="212,1610.5703,222,1614.5703,212,1618.5703,216,1614.5703" style="stroke:#181818;stroke-width:1.0;"/><line style="stroke:#181818;stroke-width:1.0;" x1="44" x2="218" y1="1614.5703" y2="1614.5703"/><text fill="#000000" font-family="sans-serif" font-size="13" lengthAdjust="spacing" textLength="78" x="51" y="1609.5044">&#36820;&#20449;&#20869;&#23481;&#20837;&#21147;</text><polygon fill="#181818" points="212,1639.7031,222,1643.7031,212,1647.7031,216,1643.7031" style="stroke:#181818;stroke-width:1.0;"/><line style="stroke:#181818;stroke-width:1.0;" x1="44" x2="218" y1="1643.7031" y2="1643.7031"/><text fill="#000000" font-family="sans-serif" font-size="13" lengthAdjust="spacing" textLength="91" x="51" y="1638.6372">&#36865;&#20449;&#12508;&#12479;&#12531;&#25276;&#19979;</text><polygon fill="#181818" points="418,1683.9688,428,1687.9688,418,1691.9688,422,1687.9688" style="stroke:#181818;stroke-width:1.0;"/><line style="stroke:#181818;stroke-width:1.0;" x1="234" x2="424" y1="1687.9688" y2="1687.9688"/><text fill="#000000" font-family="sans-serif" font-size="13" lengthAdjust="spacing" textLength="150" x="241" y="1667.77">&#12362;&#21839;&#12356;&#21512;&#12431;&#12379;&#36820;&#20449;&#36861;&#21152;API</text><text fill="#000000" font-family="sans-serif" font-size="13" lengthAdjust="spacing" textLength="130" x="241" y="1682.9028">/contacts/{id} POST</text><polygon fill="#181818" points="881.5,1713.1016,891.5,1717.1016,881.5,1721.1016,885.5,1717.1016" style="stroke:#181818;stroke-width:1.0;"/><line style="stroke:#181818;stroke-width:1.0;" x1="440" x2="887.5" y1="1717.1016" y2="1717.1016"/><text fill="#000000" font-family="sans-serif" font-size="13" lengthAdjust="spacing" textLength="130" x="447" y="1712.0356">&#12362;&#21839;&#12356;&#21512;&#12431;&#12379;&#36820;&#20449;&#36861;&#21152;</text><polygon fill="#181818" points="451,1727.1016,441,1731.1016,451,1735.1016,447,1731.1016" style="stroke:#181818;stroke-width:1.0;"/><line style="stroke:#181818;stroke-width:1.0;stroke-dasharray:2.0,2.0;" x1="445" x2="897.5" y1="1731.1016" y2="1731.1016"/><polygon fill="#181818" points="245,1741.1016,235,1745.1016,245,1749.1016,241,1745.1016" style="stroke:#181818;stroke-width:1.0;"/><line style="stroke:#181818;stroke-width:1.0;stroke-dasharray:2.0,2.0;" x1="239" x2="434" y1="1745.1016" y2="1745.1016"/><line style="stroke:#000000;stroke-width:1.0;stroke-dasharray:2.0,2.0;" x1="10" x2="999.5" y1="1754.1016" y2="1754.1016"/><text fill="#000000" font-family="sans-serif" font-size="11" font-weight="bold" lengthAdjust="spacing" textLength="153" x="15" y="1764.312">[&#12362;&#21839;&#12356;&#21512;&#12431;&#12379;&#12434;&#21066;&#38500;&#12377;&#12427;&#22580;&#21512;]</text><polygon fill="#181818" points="212,1785.0391,222,1789.0391,212,1793.0391,216,1789.0391" style="stroke:#181818;stroke-width:1.0;"/><line style="stroke:#181818;stroke-width:1.0;" x1="44" x2="218" y1="1789.0391" y2="1789.0391"/><text fill="#000000" font-family="sans-serif" font-size="13" lengthAdjust="spacing" textLength="52" x="51" y="1783.9731">&#21066;&#38500;&#25276;&#19979;</text><line style="stroke:#181818;stroke-width:1.0;" x1="234" x2="276" y1="1818.1719" y2="1818.1719"/><line style="stroke:#181818;stroke-width:1.0;" x1="276" x2="276" y1="1818.1719" y2="1831.1719"/><line style="stroke:#181818;stroke-width:1.0;" x1="235" x2="276" y1="1831.1719" y2="1831.1719"/><polygon fill="#181818" points="245,1827.1719,235,1831.1719,245,1835.1719,241,1831.1719" style="stroke:#181818;stroke-width:1.0;"/><text fill="#000000" font-family="sans-serif" font-size="13" lengthAdjust="spacing" textLength="182" x="241" y="1813.106">&#12362;&#21839;&#12356;&#21512;&#12431;&#12379;&#21066;&#38500;&#30906;&#35469;&#30011;&#38754;&#34920;&#31034;</text><rect fill="#87CEEB" height="38" style="stroke:#181818;stroke-width:0.5;" width="216" x="239" y="1844.1719"/><text fill="#000000" font-family="sans-serif" font-size="13" lengthAdjust="spacing" textLength="182" x="243" y="1860.2388">&#12393;&#12371;&#12363;&#12391;&#12362;&#21839;&#12356;&#21512;&#12431;&#12379;&#12398;&#23550;&#24540;&#12364;</text><text fill="#000000" font-family="sans-serif" font-size="13" lengthAdjust="spacing" textLength="208" x="243" y="1875.3716">&#12393;&#12358;&#12384;&#12387;&#12383;&#12363;&#12398;&#32080;&#26524;&#12434;&#20837;&#21147;&#12373;&#12379;&#12383;&#12356;</text><polygon fill="#181818" points="212,1904.5703,222,1908.5703,212,1912.5703,216,1908.5703" style="stroke:#181818;stroke-width:1.0;"/><line style="stroke:#181818;stroke-width:1.0;" x1="44" x2="218" y1="1908.5703" y2="1908.5703"/><text fill="#000000" font-family="sans-serif" font-size="13" lengthAdjust="spacing" textLength="44" x="51" y="1903.5044">OK&#25276;&#19979;</text><polygon fill="#181818" points="418,1948.8359,428,1952.8359,418,1956.8359,422,1952.8359" style="stroke:#181818;stroke-width:1.0;"/><line style="stroke:#181818;stroke-width:1.0;" x1="234" x2="424" y1="1952.8359" y2="1952.8359"/><text fill="#000000" font-family="sans-serif" font-size="13" lengthAdjust="spacing" textLength="124" x="241" y="1932.6372">&#12362;&#21839;&#12356;&#21512;&#12431;&#12379;&#21066;&#38500;API</text><text fill="#000000" font-family="sans-serif" font-size="13" lengthAdjust="spacing" textLength="145" x="241" y="1947.77">/contacts/{id} DELETE</text><polygon fill="#181818" points="881.5,1977.9688,891.5,1981.9688,881.5,1985.9688,885.5,1981.9688" style="stroke:#181818;stroke-width:1.0;"/><line style="stroke:#181818;stroke-width:1.0;" x1="440" x2="887.5" y1="1981.9688" y2="1981.9688"/><text fill="#000000" font-family="sans-serif" font-size="13" lengthAdjust="spacing" textLength="162" x="447" y="1976.9028">&#12362;&#21839;&#12356;&#21512;&#12431;&#12379;&#32066;&#20102;&#12501;&#12521;&#12464;ON</text><polygon fill="#181818" points="451,1991.9688,441,1995.9688,451,1999.9688,447,1995.9688" style="stroke:#181818;stroke-width:1.0;"/><line style="stroke:#181818;stroke-width:1.0;stroke-dasharray:2.0,2.0;" x1="445" x2="897.5" y1="1995.9688" y2="1995.9688"/><polygon fill="#181818" points="245,2005.9688,235,2009.9688,245,2013.9688,241,2009.9688" style="stroke:#181818;stroke-width:1.0;"/><line style="stroke:#181818;stroke-width:1.0;stroke-dasharray:2.0,2.0;" x1="239" x2="434" y1="2009.9688" y2="2009.9688"/><line style="stroke:#181818;stroke-width:1.0;" x1="234" x2="276" y1="2039.1016" y2="2039.1016"/><line style="stroke:#181818;stroke-width:1.0;" x1="276" x2="276" y1="2039.1016" y2="2052.1016"/><line style="stroke:#181818;stroke-width:1.0;" x1="235" x2="276" y1="2052.1016" y2="2052.1016"/><polygon fill="#181818" points="245,2048.1016,235,2052.1016,245,2056.1016,241,2052.1016" style="stroke:#181818;stroke-width:1.0;"/><text fill="#000000" font-family="sans-serif" font-size="13" lengthAdjust="spacing" textLength="130" x="241" y="2034.0356">&#12362;&#21839;&#12356;&#21512;&#12431;&#12379;&#30011;&#38754;&#34920;&#31034;</text><rect fill="#EEEEEE" height="3" style="stroke:#EEEEEE;stroke-width:1.0;" width="1292.5" x="0" y="2087.668"/><line style="stroke:#000000;stroke-width:1.0;" x1="0" x2="1292.5" y1="2087.668" y2="2087.668"/><line style="stroke:#000000;stroke-width:1.0;" x1="0" x2="1292.5" y1="2090.668" y2="2090.668"/><rect fill="#EEEEEE" height="23.1328" style="stroke:#000000;stroke-width:2.0;" width="89" x="601.75" y="2077.1016"/><text fill="#000000" font-family="sans-serif" font-size="13" font-weight="bold" lengthAdjust="spacing" textLength="70" x="607.75" y="2093.1685">&#12496;&#12483;&#12481;&#20966;&#29702;</text><rect fill="#87CEEB" height="23" style="stroke:#181818;stroke-width:0.5;" width="164" x="624" y="2115.2344"/><text fill="#000000" font-family="sans-serif" font-size="13" lengthAdjust="spacing" textLength="156" x="628" y="2131.3013">&#27598;&#26085;&#23455;&#26045;&#12373;&#12428;&#12427;&#12496;&#12483;&#12481;&#20966;&#29702;</text><polygon fill="#181818" points="881.5,2175.6328,891.5,2179.6328,881.5,2183.6328,885.5,2179.6328" style="stroke:#181818;stroke-width:1.0;"/><line style="stroke:#181818;stroke-width:1.0;" x1="619.5" x2="887.5" y1="2179.6328" y2="2179.6328"/><text fill="#000000" font-family="sans-serif" font-size="13" lengthAdjust="spacing" textLength="182" x="626.5" y="2159.4341">&#31649;&#29702;&#32773;&#12364;&#26368;&#24460;&#12395;&#36865;&#20449;&#12375;&#12383;&#20013;&#12363;&#12425;</text><text fill="#000000" font-family="sans-serif" font-size="13" lengthAdjust="spacing" textLength="156" x="626.5" y="2174.5669">&#65297;&#36913;&#38291;&#32076;&#36942;&#12375;&#12383;&#12418;&#12398;&#12434;&#21462;&#24471;</text><polygon fill="#181818" points="630.5,2204.7656,620.5,2208.7656,630.5,2212.7656,626.5,2208.7656" style="stroke:#181818;stroke-width:1.0;"/><line style="stroke:#181818;stroke-width:1.0;stroke-dasharray:2.0,2.0;" x1="624.5" x2="897.5" y1="2208.7656" y2="2208.7656"/><text fill="#000000" font-family="sans-serif" font-size="13" lengthAdjust="spacing" textLength="117" x="636.5" y="2203.6997">&#23550;&#35937;&#12398;&#12362;&#30693;&#12425;&#12379;&#19968;&#35239;</text><line style="stroke:#181818;stroke-width:1.0;" x1="619.5" x2="661.5" y1="2237.8984" y2="2237.8984"/><line style="stroke:#181818;stroke-width:1.0;" x1="661.5" x2="661.5" y1="2237.8984" y2="2250.8984"/><line style="stroke:#181818;stroke-width:1.0;" x1="620.5" x2="661.5" y1="2250.8984" y2="2250.8984"/><polygon fill="#181818" points="630.5,2246.8984,620.5,2250.8984,630.5,2254.8984,626.5,2250.8984" style="stroke:#181818;stroke-width:1.0;"/><text fill="#000000" font-family="sans-serif" font-size="13" lengthAdjust="spacing" textLength="260" x="626.5" y="2232.8325">&#19968;&#35239;&#12434;&#20840;&#37096;&#23436;&#20102;&#28168;&#12415;&#12395;&#22793;&#26356;&#12377;&#12427;&#12487;&#12540;&#12479;&#12434;&#20316;&#25104;</text><polygon fill="#181818" points="881.5,2276.0313,891.5,2280.0313,881.5,2284.0313,885.5,2280.0313" style="stroke:#181818;stroke-width:1.0;"/><line style="stroke:#181818;stroke-width:1.0;" x1="619.5" x2="887.5" y1="2280.0313" y2="2280.0313"/><text fill="#000000" font-family="sans-serif" font-size="13" lengthAdjust="spacing" textLength="208" x="626.5" y="2274.9653">&#12362;&#30693;&#12425;&#12379;&#19968;&#35239;&#12434;&#20840;&#12390;&#23436;&#20102;&#28168;&#12415;&#12395;&#26356;&#26032;</text><polygon fill="#181818" points="630.5,2290.0313,620.5,2294.0313,630.5,2298.0313,626.5,2294.0313" style="stroke:#181818;stroke-width:1.0;"/><line style="stroke:#181818;stroke-width:1.0;stroke-dasharray:2.0,2.0;" x1="624.5" x2="897.5" y1="2294.0313" y2="2294.0313"/><polygon fill="#181818" points="881.5,2334.2969,891.5,2338.2969,881.5,2342.2969,885.5,2338.2969" style="stroke:#181818;stroke-width:1.0;"/><line style="stroke:#181818;stroke-width:1.0;" x1="619.5" x2="887.5" y1="2338.2969" y2="2338.2969"/><text fill="#000000" font-family="sans-serif" font-size="13" lengthAdjust="spacing" textLength="182" x="626.5" y="2318.0981">&#19968;&#35239;&#12395;&#23550;&#12375;&#12390;&#20840;&#37096;&#24375;&#21046;&#32066;&#20102;&#12375;&#12383;</text><text fill="#000000" font-family="sans-serif" font-size="13" lengthAdjust="spacing" textLength="104" x="626.5" y="2333.231">&#12513;&#12483;&#12475;&#12540;&#12472;&#12434;&#36861;&#21152;</text><polygon fill="#181818" points="630.5,2348.2969,620.5,2352.2969,630.5,2356.2969,626.5,2352.2969" style="stroke:#181818;stroke-width:1.0;"/><line style="stroke:#181818;stroke-width:1.0;stroke-dasharray:2.0,2.0;" x1="624.5" x2="897.5" y1="2352.2969" y2="2352.2969"/><!--SRC=[nLTRJnjN47xVNx5A7zeeidX78LKQ4AqQ1IIegagyEFQsiMhMo2o9K5M9ioSunj3WDi4enU4MC3TXWu3WSB5_p7XtxQVyXSuvPxssrsjd_LG_MElrp3SptzpEqI9QL961f8oLPI0lZNGIT7nOawIlPT2tGI-0NWPwO-J_jKe7KZ2anUBo7Q0vV0VwnpjoS5gUcLRYqbGmhaL2aQcWgk7_g4OFGDzX4FGCQD8wAfZPemdrcz57G4f0De0WyYUWwq3NxdAOiF8y4b9QWSPYQYJqVMnQan-E_e3QZmQVzE5JO3YeAI-2iq8nE1MHNFPf6YW5Ia2_O8xIDDEDncR2FmUrq3CW-u-3aq_3mMy5m5FsqWtHHecLtxBI2Q09ZfW1oi8Pd5M3ap4x0FxS2YEKhBVNjVVRmjdmP4HzE3LLfr88LEVc6__-nFYK6Ajou85DYtplNZycv8opcU3VBysrSpDp8h2hM_lMpfKKLsEQ8iSZlptJvDYlTTslXkEAelwYHAEn5vAC7w37e9-m_32W5VQJfVCVOrctvlSaHGtB3CZjGxzStJ_6IW1w3UGza7pbEeDQDL8qK-iJAYERGIu0tGAw27INeo9zASb6w8ubGa54Evesy-r90LAiaKjhxzhnmykKHp9TfXfAM4r8jgTIfJXNpUqPoncZj8fLA4-eVQ6Ogc4cf-NXeV4woFr0WAC40huYG1_AjqPg4n_Cr4sbkEWl0cD-rqYjVP6oDcj7h7xqSw27cB5srCIyaV_4Ie73j-FLvaYblDNcQ1VMi4QhkMKHevkrqP6nSObpzS1kdque3arS_7wWBeuaExJNMVV5N_NWp3e_-I9_PX9BQx6NnBWXfO41b5e5WWst06JPkbYgaTVom80aEUtEARGdWs2WUN1KBowDnPKEqlqjtVpv9k4Hgd34KN6fTvXqxZWwcc_JjnlHjxtcLFHih5f-YmLfbsidDMlxgdhubvr5_tvnQA7hoxkMvcWsqxssXPrwUTVLs1XnYbpkrMiZlrIvIhHutQKGVSoftgVh_pvQUt5PrA1m6VSwF_kSyKt_2lGFe1zYSzKoYqZRNNyH2K0d8ey8l7OYpvr9vutDqwREYsgolIF8dX3XUTnWzZRFqIJVwktRsXPzrvXWNUJ4w1UDX5BUegB2WMRviV2i2TKVAKsLxafptn-Hy9zY8J0uNqkXfN7gMgw-QVAjYNibEgruRnbZ8LLxjoD8wqQkaFCaeDlMvbeU8uKXT3YzZVq- -rrqHX6XyECREG3o1WXMuvxNaIXl54f6EGjagLK5LmDMq0TUEAYRjoxIvdhMMVP0LhWwAokkw9m3FGaO-R7Nx8lWFVC-EFHuQ7p8V-Qj2nt76p-xuZtZPEI9T_exPDztkbfIX7I86Lg_NHYlShWdsG1rPOvVA9p4SNDcuRMvkclaDypCBIDQNyBwSY4r3jv8JEGvtd7igud0Sv7Yt1mmpsPspYWj0Jco-vDFXqhncELPNvXGFz_yNPixhMNUY9blJmzTnoBWntusf6mhhUs3TLueLK-tc219MHkxV7NOuxhXbtZebyLxNb7xDRelbf1PJ08fetF6pWBUMKHhiRdARWTb5AxSPirasZlATgi27KZEXIwkGrvHU2FRQEXMeSG9oTbEtrmQoOzsWN6YyA3CRZGKz6lkSx5n6FMmzXy0]--></g></svg>