<?xml version="1.0" encoding="UTF-8" standalone="no"?><svg xmlns="http://www.w3.org/2000/svg" xmlns:xlink="http://www.w3.org/1999/xlink" contentStyleType="text/css" height="2456px" preserveAspectRatio="none" style="width:1299px;height:2456px;background:#FFFFFF;" version="1.1" viewBox="0 0 1299 2456" width="1299px" zoomAndPan="magnify"><defs/><g><text fill="#000000" font-family="sans-serif" font-size="14" font-weight="bold" lengthAdjust="spacing" textLength="90" x="600.75" y="27.9951">お問い合わせ</text><rect fill="#FFFFFF" height="2217.0391" style="stroke:#181818;stroke-width:1.0;" width="10" x="211" y="149.7266"/><rect fill="#FFFFFF" height="57.1328" style="stroke:#181818;stroke-width:1.0;" width="10" x="430" y="555.3203"/><rect fill="#FFFFFF" height="57.1328" style="stroke:#181818;stroke-width:1.0;" width="10" x="430" y="1595.1719"/><rect fill="#FFFFFF" height="57.1328" style="stroke:#181818;stroke-width:1.0;" width="10" x="430" y="1958.3047"/><rect fill="#FFFFFF" height="2238.1719" style="stroke:#181818;stroke-width:1.0;" width="10" x="609.5" y="128.5938"/><rect fill="#FFFFFF" height="14" style="stroke:#181818;stroke-width:1.0;" width="10" x="893.5" y="584.4531"/><rect fill="#FFFFFF" height="14" style="stroke:#181818;stroke-width:1.0;" width="10" x="893.5" y="1099.3125"/><rect fill="#FFFFFF" height="14" style="stroke:#181818;stroke-width:1.0;" width="10" x="893.5" y="1624.3047"/><rect fill="#FFFFFF" height="14" style="stroke:#181818;stroke-width:1.0;" width="10" x="893.5" y="1987.4375"/><rect fill="#FFFFFF" height="29.1328" style="stroke:#181818;stroke-width:1.0;" width="10" x="893.5" y="2185.1016"/><rect fill="#FFFFFF" height="14" style="stroke:#181818;stroke-width:1.0;" width="10" x="893.5" y="2285.5"/><rect fill="#FFFFFF" height="14" style="stroke:#181818;stroke-width:1.0;" width="10" x="893.5" y="2343.7656"/><rect fill="#FFFFFF" height="1568.6484" style="stroke:#181818;stroke-width:1.0;" width="10" x="1052.5" y="798.1172"/><rect fill="none" height="709.4609" style="stroke:#000000;stroke-width:1.5;" width="989.5" x="10" y="1356.1094"/><line style="stroke:#181818;stroke-width:0.5;stroke-dasharray:5.0,5.0;" x1="44" x2="44" y1="118.5938" y2="2375.7656"/><line style="stroke:#181818;stroke-width:0.5;stroke-dasharray:5.0,5.0;" x1="215.5" x2="215.5" y1="118.5938" y2="2375.7656"/><line style="stroke:#181818;stroke-width:0.5;stroke-dasharray:5.0,5.0;" x1="434.5" x2="434.5" y1="118.5938" y2="2375.7656"/><line style="stroke:#181818;stroke-width:0.5;stroke-dasharray:5.0,5.0;" x1="614.5" x2="614.5" y1="118.5938" y2="2375.7656"/><line style="stroke:#181818;stroke-width:0.5;stroke-dasharray:5.0,5.0;" x1="898.5" x2="898.5" y1="118.5938" y2="2375.7656"/><line style="stroke:#181818;stroke-width:0.5;stroke-dasharray:5.0,5.0;" x1="1057.5" x2="1057.5" y1="118.5938" y2="2375.7656"/><line style="stroke:#181818;stroke-width:0.5;stroke-dasharray:5.0,5.0;" x1="1263.5" x2="1263.5" y1="118.5938" y2="2375.7656"/><text fill="#000000" font-family="sans-serif" font-size="14" lengthAdjust="spacing" textLength="42" x="20" y="115.292">ユーザ</text><ellipse cx="44" cy="50.7969" fill="#E2E2F0" rx="8" ry="8" style="stroke:#181818;stroke-width:0.5;"/><path d="M44,58.7969 L44,85.7969 M31,66.7969 L57,66.7969 M44,85.7969 L31,100.7969 M44,85.7969 L57,100.7969 " fill="none" style="stroke:#181818;stroke-width:0.5;"/><text fill="#000000" font-family="sans-serif" font-size="14" lengthAdjust="spacing" textLength="42" x="20" y="2387.7607">ユーザ</text><ellipse cx="44" cy="2399.5625" fill="#E2E2F0" rx="8" ry="8" style="stroke:#181818;stroke-width:0.5;"/><path d="M44,2407.5625 L44,2434.5625 M31,2415.5625 L57,2415.5625 M44,2434.5625 L31,2449.5625 M44,2434.5625 L57,2449.5625 " fill="none" style="stroke:#181818;stroke-width:0.5;"/><rect fill="#E2E2F0" height="46.5938" rx="2.5" ry="2.5" style="stroke:#181818;stroke-width:0.5;" width="127" x="152.5" y="71"/><text fill="#000000" font-family="sans-serif" font-size="14" lengthAdjust="spacing" textLength="112" x="160" y="90.9951">クライアント端末</text><text fill="#000000" font-family="sans-serif" font-size="14" lengthAdjust="spacing" textLength="113" x="159.5" y="107.292">(PCまたはスマホ)</text><rect fill="#E2E2F0" height="46.5938" rx="2.5" ry="2.5" style="stroke:#181818;stroke-width:0.5;" width="127" x="152.5" y="2374.7656"/><text fill="#000000" font-family="sans-serif" font-size="14" lengthAdjust="spacing" textLength="112" x="160" y="2394.7607">クライアント端末</text><text fill="#000000" font-family="sans-serif" font-size="14" lengthAdjust="spacing" textLength="113" x="159.5" y="2411.0576">(PCまたはスマホ)</text><rect fill="#E2E2F0" height="46.5938" rx="2.5" ry="2.5" style="stroke:#181818;stroke-width:0.5;" width="151" x="359.5" y="71"/><text fill="#000000" font-family="sans-serif" font-size="14" lengthAdjust="spacing" textLength="99" x="385.5" y="90.9951">SonicHost API</text><text fill="#000000" font-family="sans-serif" font-size="14" lengthAdjust="spacing" textLength="137" x="366.5" y="107.292">(CDN/API-Gateway)</text><rect fill="#E2E2F0" height="46.5938" rx="2.5" ry="2.5" style="stroke:#181818;stroke-width:0.5;" width="151" x="359.5" y="2374.7656"/><text fill="#000000" font-family="sans-serif" font-size="14" lengthAdjust="spacing" textLength="99" x="385.5" y="2394.7607">SonicHost API</text><text fill="#000000" font-family="sans-serif" font-size="14" lengthAdjust="spacing" textLength="137" x="366.5" y="2411.0576">(CDN/API-Gateway)</text><rect fill="#E2E2F0" height="46.5938" rx="2.5" ry="2.5" style="stroke:#181818;stroke-width:0.5;" width="188" x="520.5" y="71"/><text fill="#000000" font-family="sans-serif" font-size="14" lengthAdjust="spacing" textLength="84" x="572.5" y="90.9951">バッチサーバ</text><text fill="#000000" font-family="sans-serif" font-size="14" lengthAdjust="spacing" textLength="174" x="527.5" y="107.292">(CloudWatchとLambda?)</text><rect fill="#E2E2F0" height="46.5938" rx="2.5" ry="2.5" style="stroke:#181818;stroke-width:0.5;" width="188" x="520.5" y="2374.7656"/><text fill="#000000" font-family="sans-serif" font-size="14" lengthAdjust="spacing" textLength="84" x="572.5" y="2394.7607">バッチサーバ</text><text fill="#000000" font-family="sans-serif" font-size="14" lengthAdjust="spacing" textLength="174" x="527.5" y="2411.0576">(CloudWatchとLambda?)</text><rect fill="#E2E2F0" height="46.5938" rx="2.5" ry="2.5" style="stroke:#181818;stroke-width:0.5;" width="182" x="807.5" y="71"/><text fill="#000000" font-family="sans-serif" font-size="14" lengthAdjust="spacing" textLength="168" x="814.5" y="90.9951">お問い合わせ管理テーブル</text><text fill="#000000" font-family="sans-serif" font-size="14" lengthAdjust="spacing" textLength="69" x="864" y="107.292">(Dynamo)</text><rect fill="#E2E2F0" height="46.5938" rx="2.5" ry="2.5" style="stroke:#181818;stroke-width:0.5;" width="182" x="807.5" y="2374.7656"/><text fill="#000000" font-family="sans-serif" font-size="14" lengthAdjust="spacing" textLength="168" x="814.5" y="2394.7607">お問い合わせ管理テーブル</text><text fill="#000000" font-family="sans-serif" font-size="14" lengthAdjust="spacing" textLength="69" x="864" y="2411.0576">(Dynamo)</text><rect fill="#E2E2F0" height="30.2969" rx="2.5" ry="2.5" style="stroke:#181818;stroke-width:0.5;" width="70" x="1022.5" y="87.2969"/><text fill="#000000" font-family="sans-serif" font-size="14" lengthAdjust="spacing" textLength="56" x="1029.5" y="107.292">管理画面</text><rect fill="#E2E2F0" height="30.2969" rx="2.5" ry="2.5" style="stroke:#181818;stroke-width:0.5;" width="70" x="1022.5" y="2374.7656"/><text fill="#000000" font-family="sans-serif" font-size="14" lengthAdjust="spacing" textLength="56" x="1029.5" y="2394.7607">管理画面</text><text fill="#000000" font-family="sans-serif" font-size="14" lengthAdjust="spacing" textLength="42" x="1239.5" y="115.292">管理者</text><ellipse cx="1263.5" cy="50.7969" fill="#E2E2F0" rx="8" ry="8" style="stroke:#181818;stroke-width:0.5;"/><path d="M1263.5,58.7969 L1263.5,85.7969 M1250.5,66.7969 L1276.5,66.7969 M1263.5,85.7969 L1250.5,100.7969 M1263.5,85.7969 L1276.5,100.7969 " fill="none" style="stroke:#181818;stroke-width:0.5;"/><text fill="#000000" font-family="sans-serif" font-size="14" lengthAdjust="spacing" textLength="42" x="1239.5" y="2387.7607">管理者</text><ellipse cx="1263.5" cy="2399.5625" fill="#E2E2F0" rx="8" ry="8" style="stroke:#181818;stroke-width:0.5;"/><path d="M1263.5,2407.5625 L1263.5,2434.5625 M1250.5,2415.5625 L1276.5,2415.5625 M1263.5,2434.5625 L1250.5,2449.5625 M1263.5,2434.5625 L1276.5,2449.5625 " fill="none" style="stroke:#181818;stroke-width:0.5;"/><rect fill="#FFFFFF" height="2217.0391" style="stroke:#181818;stroke-width:1.0;" width="10" x="211" y="149.7266"/><rect fill="#FFFFFF" height="57.1328" style="stroke:#181818;stroke-width:1.0;" width="10" x="430" y="555.3203"/><rect fill="#FFFFFF" height="57.1328" style="stroke:#181818;stroke-width:1.0;" width="10" x="430" y="1595.1719"/><rect fill="#FFFFFF" height="57.1328" style="stroke:#181818;stroke-width:1.0;" width="10" x="430" y="1958.3047"/><rect fill="#FFFFFF" height="2238.1719" style="stroke:#181818;stroke-width:1.0;" width="10" x="609.5" y="128.5938"/><rect fill="#FFFFFF" height="14" style="stroke:#181818;stroke-width:1.0;" width="10" x="893.5" y="584.4531"/><rect fill="#FFFFFF" height="14" style="stroke:#181818;stroke-width:1.0;" width="10" x="893.5" y="1099.3125"/><rect fill="#FFFFFF" height="14" style="stroke:#181818;stroke-width:1.0;" width="10" x="893.5" y="1624.3047"/><rect fill="#FFFFFF" height="14" style="stroke:#181818;stroke-width:1.0;" width="10" x="893.5" y="1987.4375"/><rect fill="#FFFFFF" height="29.1328" style="stroke:#181818;stroke-width:1.0;" width="10" x="893.5" y="2185.1016"/><rect fill="#FFFFFF" height="14" style="stroke:#181818;stroke-width:1.0;" width="10" x="893.5" y="2285.5"/><rect fill="#FFFFFF" height="14" style="stroke:#181818;stroke-width:1.0;" width="10" x="893.5" y="2343.7656"/><rect fill="#FFFFFF" height="1568.6484" style="stroke:#181818;stroke-width:1.0;" width="10" x="1052.5" y="798.1172"/><polygon fill="#181818" points="199,145.7266,209,149.7266,199,153.7266,203,149.7266" style="stroke:#181818;stroke-width:1.0;"/><line style="stroke:#181818;stroke-width:1.0;" x1="44" x2="205" y1="149.7266" y2="149.7266"/><text fill="#000000" font-family="sans-serif" font-size="13" lengthAdjust="spacing" textLength="89" x="51" y="144.6606">HOME画面表示</text><rect fill="#ADFF2F" height="23" style="stroke:#181818;stroke-width:0.5;" width="138" x="226" y="162.7266"/><text fill="#000000" font-family="sans-serif" font-size="13" lengthAdjust="spacing" textLength="130" x="230" y="178.7935">ログインフローを参照</text><polygon fill="#181818" points="199,207.9922,209,211.9922,199,215.9922,203,211.9922" style="stroke:#181818;stroke-width:1.0;"/><line style="stroke:#181818;stroke-width:1.0;" x1="44" x2="205" y1="211.9922" y2="211.9922"/><text fill="#000000" font-family="sans-serif" font-size="13" lengthAdjust="spacing" textLength="78" x="51" y="206.9263">その他を選択</text><line style="stroke:#181818;stroke-width:1.0;" x1="221" x2="263" y1="241.125" y2="241.125"/><line style="stroke:#181818;stroke-width:1.0;" x1="263" x2="263" y1="241.125" y2="254.125"/><line style="stroke:#181818;stroke-width:1.0;" x1="222" x2="263" y1="254.125" y2="254.125"/><polygon fill="#181818" points="232,250.125,222,254.125,232,258.125,228,254.125" style="stroke:#181818;stroke-width:1.0;"/><text fill="#000000" font-family="sans-serif" font-size="13" lengthAdjust="spacing" textLength="143" x="228" y="236.0591">メニュー一覧画面を表示</text><polygon fill="#181818" points="199,279.2578,209,283.2578,199,287.2578,203,283.2578" style="stroke:#181818;stroke-width:1.0;"/><line style="stroke:#181818;stroke-width:1.0;" x1="44" x2="205" y1="283.2578" y2="283.2578"/><text fill="#000000" font-family="sans-serif" font-size="13" lengthAdjust="spacing" textLength="117" x="51" y="278.1919">お問い合わせを選択</text><line style="stroke:#181818;stroke-width:1.0;" x1="221" x2="263" y1="312.3906" y2="312.3906"/><line style="stroke:#181818;stroke-width:1.0;" x1="263" x2="263" y1="312.3906" y2="325.3906"/><line style="stroke:#181818;stroke-width:1.0;" x1="222" x2="263" y1="325.3906" y2="325.3906"/><polygon fill="#181818" points="232,321.3906,222,325.3906,232,329.3906,228,325.3906" style="stroke:#181818;stroke-width:1.0;"/><text fill="#000000" font-family="sans-serif" font-size="13" lengthAdjust="spacing" textLength="143" x="228" y="307.3247">お問い合わせ画面を表示</text><polygon fill="#181818" points="199,350.5234,209,354.5234,199,358.5234,203,354.5234" style="stroke:#181818;stroke-width:1.0;"/><line style="stroke:#181818;stroke-width:1.0;" x1="44" x2="205" y1="354.5234" y2="354.5234"/><text fill="#000000" font-family="sans-serif" font-size="13" lengthAdjust="spacing" textLength="143" x="51" y="349.4575">新規お問い合わせを押下</text><line style="stroke:#181818;stroke-width:1.0;" x1="221" x2="263" y1="383.6563" y2="383.6563"/><line style="stroke:#181818;stroke-width:1.0;" x1="263" x2="263" y1="383.6563" y2="396.6563"/><line style="stroke:#181818;stroke-width:1.0;" x1="222" x2="263" y1="396.6563" y2="396.6563"/><polygon fill="#181818" points="232,392.6563,222,396.6563,232,400.6563,228,396.6563" style="stroke:#181818;stroke-width:1.0;"/><text fill="#000000" font-family="sans-serif" font-size="13" lengthAdjust="spacing" textLength="169" x="228" y="378.5903">お問い合わせ入力画面を表示</text><polygon fill="#181818" points="199,421.7891,209,425.7891,199,429.7891,203,425.7891" style="stroke:#181818;stroke-width:1.0;"/><line style="stroke:#181818;stroke-width:1.0;" x1="44" x2="205" y1="425.7891" y2="425.7891"/><text fill="#000000" font-family="sans-serif" font-size="13" lengthAdjust="spacing" textLength="143" x="51" y="420.7231">お問い合わせ内容を入力</text><polygon fill="#181818" points="199,450.9219,209,454.9219,199,458.9219,203,454.9219" style="stroke:#181818;stroke-width:1.0;"/><line style="stroke:#181818;stroke-width:1.0;" x1="44" x2="205" y1="454.9219" y2="454.9219"/><text fill="#000000" font-family="sans-serif" font-size="13" lengthAdjust="spacing" textLength="52" x="51" y="449.856">確認押下</text><line style="stroke:#181818;stroke-width:1.0;" x1="221" x2="263" y1="484.0547" y2="484.0547"/><line style="stroke:#181818;stroke-width:1.0;" x1="263" x2="263" y1="484.0547" y2="497.0547"/><line style="stroke:#181818;stroke-width:1.0;" x1="222" x2="263" y1="497.0547" y2="497.0547"/><polygon fill="#181818" points="232,493.0547,222,497.0547,232,501.0547,228,497.0547" style="stroke:#181818;stroke-width:1.0;"/><text fill="#000000" font-family="sans-serif" font-size="13" lengthAdjust="spacing" textLength="169" x="228" y="478.9888">お問い合わせ確認画面を表示</text><polygon fill="#181818" points="199,522.1875,209,526.1875,199,530.1875,203,526.1875" style="stroke:#181818;stroke-width:1.0;"/><line style="stroke:#181818;stroke-width:1.0;" x1="44" x2="205" y1="526.1875" y2="526.1875"/><text fill="#000000" font-family="sans-serif" font-size="13" lengthAdjust="spacing" textLength="65" x="51" y="521.1216">送信を押下</text><polygon fill="#181818" points="418,551.3203,428,555.3203,418,559.3203,422,555.3203" style="stroke:#181818;stroke-width:1.0;"/><line style="stroke:#181818;stroke-width:1.0;" x1="221" x2="424" y1="555.3203" y2="555.3203"/><text fill="#000000" font-family="sans-serif" font-size="13" lengthAdjust="spacing" textLength="124" x="228" y="550.2544">お問い合わせ送信API</text><polygon fill="#181818" points="881.5,580.4531,891.5,584.4531,881.5,588.4531,885.5,584.4531" style="stroke:#181818;stroke-width:1.0;"/><line style="stroke:#181818;stroke-width:1.0;" x1="440" x2="887.5" y1="584.4531" y2="584.4531"/><text fill="#000000" font-family="sans-serif" font-size="13" lengthAdjust="spacing" textLength="117" x="447" y="579.3872">お問い合わせを追加</text><polygon fill="#181818" points="451,594.4531,441,598.4531,451,602.4531,447,598.4531" style="stroke:#181818;stroke-width:1.0;"/><line style="stroke:#181818;stroke-width:1.0;" x1="445" x2="897.5" y1="598.4531" y2="598.4531"/><polygon fill="#181818" points="232,608.4531,222,612.4531,232,616.4531,228,612.4531" style="stroke:#181818;stroke-width:1.0;"/><line style="stroke:#181818;stroke-width:1.0;" x1="226" x2="434" y1="612.4531" y2="612.4531"/><line style="stroke:#181818;stroke-width:1.0;" x1="221" x2="263" y1="641.5859" y2="641.5859"/><line style="stroke:#181818;stroke-width:1.0;" x1="263" x2="263" y1="641.5859" y2="654.5859"/><line style="stroke:#181818;stroke-width:1.0;" x1="222" x2="263" y1="654.5859" y2="654.5859"/><polygon fill="#181818" points="232,650.5859,222,654.5859,232,658.5859,228,654.5859" style="stroke:#181818;stroke-width:1.0;"/><text fill="#000000" font-family="sans-serif" font-size="13" lengthAdjust="spacing" textLength="195" x="228" y="636.52">お問い合わせ送信完了画面を表示</text><polygon fill="#181818" points="199,679.7188,209,683.7188,199,687.7188,203,683.7188" style="stroke:#181818;stroke-width:1.0;"/><line style="stroke:#181818;stroke-width:1.0;" x1="44" x2="205" y1="683.7188" y2="683.7188"/><text fill="#000000" font-family="sans-serif" font-size="13" lengthAdjust="spacing" textLength="52" x="51" y="678.6528">確認押下</text><line style="stroke:#181818;stroke-width:1.0;" x1="221" x2="263" y1="712.8516" y2="712.8516"/><line style="stroke:#181818;stroke-width:1.0;" x1="263" x2="263" y1="712.8516" y2="725.8516"/><line style="stroke:#181818;stroke-width:1.0;" x1="222" x2="263" y1="725.8516" y2="725.8516"/><polygon fill="#181818" points="232,721.8516,222,725.8516,232,729.8516,228,725.8516" style="stroke:#181818;stroke-width:1.0;"/><text fill="#000000" font-family="sans-serif" font-size="13" lengthAdjust="spacing" textLength="143" x="228" y="707.7856">お問い合わせ画面を表示</text><rect fill="#EEEEEE" height="3" style="stroke:#EEEEEE;stroke-width:1.0;" width="1292.5" x="0" y="754.418"/><line style="stroke:#000000;stroke-width:1.0;" x1="0" x2="1292.5" y1="754.418" y2="754.418"/><line style="stroke:#000000;stroke-width:1.0;" x1="0" x2="1292.5" y1="757.418" y2="757.418"/><rect fill="#EEEEEE" height="23.1328" style="stroke:#000000;stroke-width:2.0;" width="103" x="594.75" y="743.8516"/><text fill="#000000" font-family="sans-serif" font-size="13" font-weight="bold" lengthAdjust="spacing" textLength="84" x="600.75" y="759.9185">しばらく経過</text><polygon fill="#181818" points="1073.5,794.1172,1063.5,798.1172,1073.5,802.1172,1069.5,798.1172" style="stroke:#181818;stroke-width:1.0;"/><line style="stroke:#181818;stroke-width:1.0;" x1="1067.5" x2="1262.5" y1="798.1172" y2="798.1172"/><text fill="#000000" font-family="sans-serif" font-size="13" lengthAdjust="spacing" textLength="78" x="1079.5" y="793.0513">管理画面起動</text><polygon fill="#181818" points="1073.5,823.25,1063.5,827.25,1073.5,831.25,1069.5,827.25" style="stroke:#181818;stroke-width:1.0;"/><line style="stroke:#181818;stroke-width:1.0;" x1="1067.5" x2="1262.5" y1="827.25" y2="827.25"/><text fill="#000000" font-family="sans-serif" font-size="13" lengthAdjust="spacing" textLength="169" x="1079.5" y="822.1841">ログイン＆お問い合わせ表示</text><line style="stroke:#181818;stroke-width:1.0;" x1="1062.5" x2="1104.5" y1="856.3828" y2="856.3828"/><line style="stroke:#181818;stroke-width:1.0;" x1="1104.5" x2="1104.5" y1="856.3828" y2="869.3828"/><line style="stroke:#181818;stroke-width:1.0;" x1="1063.5" x2="1104.5" y1="869.3828" y2="869.3828"/><polygon fill="#181818" points="1073.5,865.3828,1063.5,869.3828,1073.5,873.3828,1069.5,869.3828" style="stroke:#181818;stroke-width:1.0;"/><text fill="#000000" font-family="sans-serif" font-size="13" lengthAdjust="spacing" textLength="169" x="1069.5" y="851.3169">お問い合わせ管理画面を表示</text><polygon fill="#181818" points="1073.5,894.5156,1063.5,898.5156,1073.5,902.5156,1069.5,898.5156" style="stroke:#181818;stroke-width:1.0;"/><line style="stroke:#181818;stroke-width:1.0;" x1="1067.5" x2="1262.5" y1="898.5156" y2="898.5156"/><text fill="#000000" font-family="sans-serif" font-size="13" lengthAdjust="spacing" textLength="104" x="1079.5" y="893.4497">お問い合わせ選択</text><line style="stroke:#181818;stroke-width:1.0;" x1="1062.5" x2="1104.5" y1="927.6484" y2="927.6484"/><line style="stroke:#181818;stroke-width:1.0;" x1="1104.5" x2="1104.5" y1="927.6484" y2="940.6484"/><line style="stroke:#181818;stroke-width:1.0;" x1="1063.5" x2="1104.5" y1="940.6484" y2="940.6484"/><polygon fill="#181818" points="1073.5,936.6484,1063.5,940.6484,1073.5,944.6484,1069.5,940.6484" style="stroke:#181818;stroke-width:1.0;"/><text fill="#000000" font-family="sans-serif" font-size="13" lengthAdjust="spacing" textLength="156" x="1069.5" y="922.5825">お問い合わせ詳細画面表示</text><polygon fill="#181818" points="1073.5,965.7813,1063.5,969.7813,1073.5,973.7813,1069.5,969.7813" style="stroke:#181818;stroke-width:1.0;"/><line style="stroke:#181818;stroke-width:1.0;" x1="1067.5" x2="1262.5" y1="969.7813" y2="969.7813"/><text fill="#000000" font-family="sans-serif" font-size="13" lengthAdjust="spacing" textLength="130" x="1079.5" y="964.7153">お問い合わせ返信入力</text><polygon fill="#181818" points="1073.5,994.9141,1063.5,998.9141,1073.5,1002.9141,1069.5,998.9141" style="stroke:#181818;stroke-width:1.0;"/><line style="stroke:#181818;stroke-width:1.0;" x1="1067.5" x2="1262.5" y1="998.9141" y2="998.9141"/><text fill="#000000" font-family="sans-serif" font-size="13" lengthAdjust="spacing" textLength="52" x="1079.5" y="993.8481">確認押下</text><line style="stroke:#181818;stroke-width:1.0;" x1="1062.5" x2="1104.5" y1="1028.0469" y2="1028.0469"/><line style="stroke:#181818;stroke-width:1.0;" x1="1104.5" x2="1104.5" y1="1028.0469" y2="1041.0469"/><line style="stroke:#181818;stroke-width:1.0;" x1="1063.5" x2="1104.5" y1="1041.0469" y2="1041.0469"/><polygon fill="#181818" points="1073.5,1037.0469,1063.5,1041.0469,1073.5,1045.0469,1069.5,1041.0469" style="stroke:#181818;stroke-width:1.0;"/><text fill="#000000" font-family="sans-serif" font-size="13" lengthAdjust="spacing" textLength="182" x="1069.5" y="1022.981">お問い合わせ返信確認画面表示</text><polygon fill="#181818" points="1073.5,1066.1797,1063.5,1070.1797,1073.5,1074.1797,1069.5,1070.1797" style="stroke:#181818;stroke-width:1.0;"/><line style="stroke:#181818;stroke-width:1.0;" x1="1067.5" x2="1262.5" y1="1070.1797" y2="1070.1797"/><text fill="#000000" font-family="sans-serif" font-size="13" lengthAdjust="spacing" textLength="52" x="1079.5" y="1065.1138">送信押下</text><polygon fill="#181818" points="914.5,1095.3125,904.5,1099.3125,914.5,1103.3125,910.5,1099.3125" style="stroke:#181818;stroke-width:1.0;"/><line style="stroke:#181818;stroke-width:1.0;" x1="908.5" x2="1051.5" y1="1099.3125" y2="1099.3125"/><text fill="#000000" font-family="sans-serif" font-size="13" lengthAdjust="spacing" textLength="130" x="920.5" y="1094.2466">お問い合わせ返信追加</text><polygon fill="#181818" points="1040.5,1109.3125,1050.5,1113.3125,1040.5,1117.3125,1044.5,1113.3125" style="stroke:#181818;stroke-width:1.0;"/><line style="stroke:#181818;stroke-width:1.0;stroke-dasharray:2.0,2.0;" x1="898.5" x2="1046.5" y1="1113.3125" y2="1113.3125"/><line style="stroke:#181818;stroke-width:1.0;" x1="1062.5" x2="1104.5" y1="1142.4453" y2="1142.4453"/><line style="stroke:#181818;stroke-width:1.0;" x1="1104.5" x2="1104.5" y1="1142.4453" y2="1155.4453"/><line style="stroke:#181818;stroke-width:1.0;" x1="1063.5" x2="1104.5" y1="1155.4453" y2="1155.4453"/><polygon fill="#181818" points="1073.5,1151.4453,1063.5,1155.4453,1073.5,1159.4453,1069.5,1155.4453" style="stroke:#181818;stroke-width:1.0;"/><text fill="#000000" font-family="sans-serif" font-size="13" lengthAdjust="spacing" textLength="182" x="1069.5" y="1137.3794">お問い合わせ返信完了画面表示</text><rect fill="#EEEEEE" height="3" style="stroke:#EEEEEE;stroke-width:1.0;" width="1292.5" x="0" y="1184.0117"/><line style="stroke:#000000;stroke-width:1.0;" x1="0" x2="1292.5" y1="1184.0117" y2="1184.0117"/><line style="stroke:#000000;stroke-width:1.0;" x1="0" x2="1292.5" y1="1187.0117" y2="1187.0117"/><rect fill="#EEEEEE" height="23.1328" style="stroke:#000000;stroke-width:2.0;" width="103" x="594.75" y="1173.4453"/><text fill="#000000" font-family="sans-serif" font-size="13" font-weight="bold" lengthAdjust="spacing" textLength="84" x="600.75" y="1189.5122">しばらく経過</text><polygon fill="#181818" points="199,1223.7109,209,1227.7109,199,1231.7109,203,1227.7109" style="stroke:#181818;stroke-width:1.0;"/><line style="stroke:#181818;stroke-width:1.0;" x1="44" x2="205" y1="1227.7109" y2="1227.7109"/><text fill="#000000" font-family="sans-serif" font-size="13" lengthAdjust="spacing" textLength="104" x="51" y="1222.645">お問い合わせ選択</text><line style="stroke:#181818;stroke-width:1.0;" x1="221" x2="263" y1="1256.8438" y2="1256.8438"/><line style="stroke:#181818;stroke-width:1.0;" x1="263" x2="263" y1="1256.8438" y2="1269.8438"/><line style="stroke:#181818;stroke-width:1.0;" x1="222" x2="263" y1="1269.8438" y2="1269.8438"/><polygon fill="#181818" points="232,1265.8438,222,1269.8438,232,1273.8438,228,1269.8438" style="stroke:#181818;stroke-width:1.0;"/><text fill="#000000" font-family="sans-serif" font-size="13" lengthAdjust="spacing" textLength="130" x="228" y="1251.7778">お問い合わせ画面表示</text><polygon fill="#181818" points="199,1294.9766,209,1298.9766,199,1302.9766,203,1298.9766" style="stroke:#181818;stroke-width:1.0;"/><line style="stroke:#181818;stroke-width:1.0;" x1="44" x2="205" y1="1298.9766" y2="1298.9766"/><text fill="#000000" font-family="sans-serif" font-size="13" lengthAdjust="spacing" textLength="104" x="51" y="1293.9106">お問い合わせ選択</text><line style="stroke:#181818;stroke-width:1.0;" x1="221" x2="263" y1="1328.1094" y2="1328.1094"/><line style="stroke:#181818;stroke-width:1.0;" x1="263" x2="263" y1="1328.1094" y2="1341.1094"/><line style="stroke:#181818;stroke-width:1.0;" x1="222" x2="263" y1="1341.1094" y2="1341.1094"/><polygon fill="#181818" points="232,1337.1094,222,1341.1094,232,1345.1094,228,1341.1094" style="stroke:#181818;stroke-width:1.0;"/><text fill="#000000" font-family="sans-serif" font-size="13" lengthAdjust="spacing" textLength="156" x="228" y="1323.0435">お問い合わせ詳細画面表示</text><path d="M10,1356.1094 L76,1356.1094 L76,1363.2422 L66,1373.2422 L10,1373.2422 L10,1356.1094 " fill="#EEEEEE" style="stroke:#000000;stroke-width:1.5;"/><rect fill="none" height="709.4609" style="stroke:#000000;stroke-width:1.5;" width="989.5" x="10" y="1356.1094"/><text fill="#000000" font-family="sans-serif" font-size="13" font-weight="bold" lengthAdjust="spacing" textLength="21" x="25" y="1369.1763">alt</text><text fill="#000000" font-family="sans-serif" font-size="11" font-weight="bold" lengthAdjust="spacing" textLength="120" x="91" y="1368.3198">[追加で返信したい場合]</text><polygon fill="#181818" points="199,1390.375,209,1394.375,199,1398.375,203,1394.375" style="stroke:#181818;stroke-width:1.0;"/><line style="stroke:#181818;stroke-width:1.0;" x1="44" x2="205" y1="1394.375" y2="1394.375"/><text fill="#000000" font-family="sans-serif" font-size="13" lengthAdjust="spacing" textLength="52" x="51" y="1389.3091">返信押下</text><line style="stroke:#181818;stroke-width:1.0;" x1="221" x2="263" y1="1423.5078" y2="1423.5078"/><line style="stroke:#181818;stroke-width:1.0;" x1="263" x2="263" y1="1423.5078" y2="1436.5078"/><line style="stroke:#181818;stroke-width:1.0;" x1="222" x2="263" y1="1436.5078" y2="1436.5078"/><polygon fill="#181818" points="232,1432.5078,222,1436.5078,232,1440.5078,228,1436.5078" style="stroke:#181818;stroke-width:1.0;"/><text fill="#000000" font-family="sans-serif" font-size="13" lengthAdjust="spacing" textLength="156" x="228" y="1418.4419">お問い合わせ入力画面表示</text><polygon fill="#181818" points="199,1461.6406,209,1465.6406,199,1469.6406,203,1465.6406" style="stroke:#181818;stroke-width:1.0;"/><line style="stroke:#181818;stroke-width:1.0;" x1="44" x2="205" y1="1465.6406" y2="1465.6406"/><text fill="#000000" font-family="sans-serif" font-size="13" lengthAdjust="spacing" textLength="78" x="51" y="1460.5747">返信内容入力</text><polygon fill="#181818" points="199,1490.7734,209,1494.7734,199,1498.7734,203,1494.7734" style="stroke:#181818;stroke-width:1.0;"/><line style="stroke:#181818;stroke-width:1.0;" x1="44" x2="205" y1="1494.7734" y2="1494.7734"/><text fill="#000000" font-family="sans-serif" font-size="13" lengthAdjust="spacing" textLength="91" x="51" y="1489.7075">確認ボタン押下</text><line style="stroke:#181818;stroke-width:1.0;" x1="221" x2="263" y1="1523.9063" y2="1523.9063"/><line style="stroke:#181818;stroke-width:1.0;" x1="263" x2="263" y1="1523.9063" y2="1536.9063"/><line style="stroke:#181818;stroke-width:1.0;" x1="222" x2="263" y1="1536.9063" y2="1536.9063"/><polygon fill="#181818" points="232,1532.9063,222,1536.9063,232,1540.9063,228,1536.9063" style="stroke:#181818;stroke-width:1.0;"/><text fill="#000000" font-family="sans-serif" font-size="13" lengthAdjust="spacing" textLength="156" x="228" y="1518.8403">お問い合わせ確認画面表示</text><polygon fill="#181818" points="199,1562.0391,209,1566.0391,199,1570.0391,203,1566.0391" style="stroke:#181818;stroke-width:1.0;"/><line style="stroke:#181818;stroke-width:1.0;" x1="44" x2="205" y1="1566.0391" y2="1566.0391"/><text fill="#000000" font-family="sans-serif" font-size="13" lengthAdjust="spacing" textLength="91" x="51" y="1560.9731">送信ボタン押下</text><polygon fill="#181818" points="418,1591.1719,428,1595.1719,418,1599.1719,422,1595.1719" style="stroke:#181818;stroke-width:1.0;"/><line style="stroke:#181818;stroke-width:1.0;" x1="221" x2="424" y1="1595.1719" y2="1595.1719"/><text fill="#000000" font-family="sans-serif" font-size="13" lengthAdjust="spacing" textLength="124" x="228" y="1590.106">お問い合わせ送信API</text><polygon fill="#181818" points="881.5,1620.3047,891.5,1624.3047,881.5,1628.3047,885.5,1624.3047" style="stroke:#181818;stroke-width:1.0;"/><line style="stroke:#181818;stroke-width:1.0;" x1="440" x2="887.5" y1="1624.3047" y2="1624.3047"/><text fill="#000000" font-family="sans-serif" font-size="13" lengthAdjust="spacing" textLength="130" x="447" y="1619.2388">お問い合わせ返信追加</text><polygon fill="#181818" points="451,1634.3047,441,1638.3047,451,1642.3047,447,1638.3047" style="stroke:#181818;stroke-width:1.0;"/><line style="stroke:#181818;stroke-width:1.0;stroke-dasharray:2.0,2.0;" x1="445" x2="897.5" y1="1638.3047" y2="1638.3047"/><polygon fill="#181818" points="232,1648.3047,222,1652.3047,232,1656.3047,228,1652.3047" style="stroke:#181818;stroke-width:1.0;"/><line style="stroke:#181818;stroke-width:1.0;stroke-dasharray:2.0,2.0;" x1="226" x2="434" y1="1652.3047" y2="1652.3047"/><line style="stroke:#181818;stroke-width:1.0;" x1="221" x2="263" y1="1681.4375" y2="1681.4375"/><line style="stroke:#181818;stroke-width:1.0;" x1="263" x2="263" y1="1681.4375" y2="1694.4375"/><line style="stroke:#181818;stroke-width:1.0;" x1="222" x2="263" y1="1694.4375" y2="1694.4375"/><polygon fill="#181818" points="232,1690.4375,222,1694.4375,232,1698.4375,228,1694.4375" style="stroke:#181818;stroke-width:1.0;"/><text fill="#000000" font-family="sans-serif" font-size="13" lengthAdjust="spacing" textLength="182" x="228" y="1676.3716">お問い合わせ送信完了画面表示</text><polygon fill="#181818" points="199,1719.5703,209,1723.5703,199,1727.5703,203,1723.5703" style="stroke:#181818;stroke-width:1.0;"/><line style="stroke:#181818;stroke-width:1.0;" x1="44" x2="205" y1="1723.5703" y2="1723.5703"/><text fill="#000000" font-family="sans-serif" font-size="13" lengthAdjust="spacing" textLength="91" x="51" y="1718.5044">確認ボタン押下</text><line style="stroke:#181818;stroke-width:1.0;" x1="221" x2="263" y1="1752.7031" y2="1752.7031"/><line style="stroke:#181818;stroke-width:1.0;" x1="263" x2="263" y1="1752.7031" y2="1765.7031"/><line style="stroke:#181818;stroke-width:1.0;" x1="222" x2="263" y1="1765.7031" y2="1765.7031"/><polygon fill="#181818" points="232,1761.7031,222,1765.7031,232,1769.7031,228,1765.7031" style="stroke:#181818;stroke-width:1.0;"/><text fill="#000000" font-family="sans-serif" font-size="13" lengthAdjust="spacing" textLength="130" x="228" y="1747.6372">お問い合わせ画面表示</text><line style="stroke:#000000;stroke-width:1.0;stroke-dasharray:2.0,2.0;" x1="10" x2="999.5" y1="1774.7031" y2="1774.7031"/><text fill="#000000" font-family="sans-serif" font-size="11" font-weight="bold" lengthAdjust="spacing" textLength="153" x="15" y="1784.9136">[お問い合わせを完了する場合]</text><polygon fill="#181818" points="199,1805.6406,209,1809.6406,199,1813.6406,203,1809.6406" style="stroke:#181818;stroke-width:1.0;"/><line style="stroke:#181818;stroke-width:1.0;" x1="44" x2="205" y1="1809.6406" y2="1809.6406"/><text fill="#000000" font-family="sans-serif" font-size="13" lengthAdjust="spacing" textLength="130" x="51" y="1804.5747">お問い合わせ完了押下</text><line style="stroke:#181818;stroke-width:1.0;" x1="221" x2="263" y1="1838.7734" y2="1838.7734"/><line style="stroke:#181818;stroke-width:1.0;" x1="263" x2="263" y1="1838.7734" y2="1851.7734"/><line style="stroke:#181818;stroke-width:1.0;" x1="222" x2="263" y1="1851.7734" y2="1851.7734"/><polygon fill="#181818" points="232,1847.7734,222,1851.7734,232,1855.7734,228,1851.7734" style="stroke:#181818;stroke-width:1.0;"/><text fill="#000000" font-family="sans-serif" font-size="13" lengthAdjust="spacing" textLength="182" x="228" y="1833.7075">お問い合わせ完了確認画面表示</text><rect fill="#87CEEB" height="38" style="stroke:#181818;stroke-width:0.5;" width="216" x="226" y="1864.7734"/><text fill="#000000" font-family="sans-serif" font-size="13" lengthAdjust="spacing" textLength="169" x="230" y="1880.8403">ここでお問い合わせの対応が</text><text fill="#000000" font-family="sans-serif" font-size="13" lengthAdjust="spacing" textLength="208" x="230" y="1895.9731">どうだったかの結果を入力させたい</text><polygon fill="#181818" points="199,1925.1719,209,1929.1719,199,1933.1719,203,1929.1719" style="stroke:#181818;stroke-width:1.0;"/><line style="stroke:#181818;stroke-width:1.0;" x1="44" x2="205" y1="1929.1719" y2="1929.1719"/><text fill="#000000" font-family="sans-serif" font-size="13" lengthAdjust="spacing" textLength="78" x="51" y="1924.106">確認完了押下</text><polygon fill="#181818" points="418,1954.3047,428,1958.3047,418,1962.3047,422,1958.3047" style="stroke:#181818;stroke-width:1.0;"/><line style="stroke:#181818;stroke-width:1.0;" x1="221" x2="424" y1="1958.3047" y2="1958.3047"/><text fill="#000000" font-family="sans-serif" font-size="13" lengthAdjust="spacing" textLength="150" x="228" y="1953.2388">お問い合わせ終了API送信</text><polygon fill="#181818" points="881.5,1983.4375,891.5,1987.4375,881.5,1991.4375,885.5,1987.4375" style="stroke:#181818;stroke-width:1.0;"/><line style="stroke:#181818;stroke-width:1.0;" x1="440" x2="887.5" y1="1987.4375" y2="1987.4375"/><text fill="#000000" font-family="sans-serif" font-size="13" lengthAdjust="spacing" textLength="162" x="447" y="1982.3716">お問い合わせ終了フラグON</text><polygon fill="#181818" points="451,1997.4375,441,2001.4375,451,2005.4375,447,2001.4375" style="stroke:#181818;stroke-width:1.0;"/><line style="stroke:#181818;stroke-width:1.0;stroke-dasharray:2.0,2.0;" x1="445" x2="897.5" y1="2001.4375" y2="2001.4375"/><polygon fill="#181818" points="232,2011.4375,222,2015.4375,232,2019.4375,228,2015.4375" style="stroke:#181818;stroke-width:1.0;"/><line style="stroke:#181818;stroke-width:1.0;stroke-dasharray:2.0,2.0;" x1="226" x2="434" y1="2015.4375" y2="2015.4375"/><line style="stroke:#181818;stroke-width:1.0;" x1="221" x2="263" y1="2044.5703" y2="2044.5703"/><line style="stroke:#181818;stroke-width:1.0;" x1="263" x2="263" y1="2044.5703" y2="2057.5703"/><line style="stroke:#181818;stroke-width:1.0;" x1="222" x2="263" y1="2057.5703" y2="2057.5703"/><polygon fill="#181818" points="232,2053.5703,222,2057.5703,232,2061.5703,228,2057.5703" style="stroke:#181818;stroke-width:1.0;"/><text fill="#000000" font-family="sans-serif" font-size="13" lengthAdjust="spacing" textLength="130" x="228" y="2039.5044">お問い合わせ画面表示</text><rect fill="#EEEEEE" height="3" style="stroke:#EEEEEE;stroke-width:1.0;" width="1292.5" x="0" y="2093.1367"/><line style="stroke:#000000;stroke-width:1.0;" x1="0" x2="1292.5" y1="2093.1367" y2="2093.1367"/><line style="stroke:#000000;stroke-width:1.0;" x1="0" x2="1292.5" y1="2096.1367" y2="2096.1367"/><rect fill="#EEEEEE" height="23.1328" style="stroke:#000000;stroke-width:2.0;" width="89" x="601.75" y="2082.5703"/><text fill="#000000" font-family="sans-serif" font-size="13" font-weight="bold" lengthAdjust="spacing" textLength="70" x="607.75" y="2098.6372">バッチ処理</text><rect fill="#87CEEB" height="23" style="stroke:#181818;stroke-width:0.5;" width="164" x="624" y="2120.7031"/><text fill="#000000" font-family="sans-serif" font-size="13" lengthAdjust="spacing" textLength="156" x="628" y="2136.77">毎日実施されるバッチ処理</text><polygon fill="#181818" points="881.5,2181.1016,891.5,2185.1016,881.5,2189.1016,885.5,2185.1016" style="stroke:#181818;stroke-width:1.0;"/><line style="stroke:#181818;stroke-width:1.0;" x1="619.5" x2="887.5" y1="2185.1016" y2="2185.1016"/><text fill="#000000" font-family="sans-serif" font-size="13" lengthAdjust="spacing" textLength="182" x="626.5" y="2164.9028">管理者が最後に送信した中から</text><text fill="#000000" font-family="sans-serif" font-size="13" lengthAdjust="spacing" textLength="156" x="626.5" y="2180.0356">１週間経過したものを取得</text><polygon fill="#181818" points="630.5,2210.2344,620.5,2214.2344,630.5,2218.2344,626.5,2214.2344" style="stroke:#181818;stroke-width:1.0;"/><line style="stroke:#181818;stroke-width:1.0;stroke-dasharray:2.0,2.0;" x1="624.5" x2="897.5" y1="2214.2344" y2="2214.2344"/><text fill="#000000" font-family="sans-serif" font-size="13" lengthAdjust="spacing" textLength="117" x="636.5" y="2209.1685">対象のお知らせ一覧</text><line style="stroke:#181818;stroke-width:1.0;" x1="619.5" x2="661.5" y1="2243.3672" y2="2243.3672"/><line style="stroke:#181818;stroke-width:1.0;" x1="661.5" x2="661.5" y1="2243.3672" y2="2256.3672"/><line style="stroke:#181818;stroke-width:1.0;" x1="620.5" x2="661.5" y1="2256.3672" y2="2256.3672"/><polygon fill="#181818" points="630.5,2252.3672,620.5,2256.3672,630.5,2260.3672,626.5,2256.3672" style="stroke:#181818;stroke-width:1.0;"/><text fill="#000000" font-family="sans-serif" font-size="13" lengthAdjust="spacing" textLength="260" x="626.5" y="2238.3013">一覧を全部完了済みに変更するデータを作成</text><polygon fill="#181818" points="881.5,2281.5,891.5,2285.5,881.5,2289.5,885.5,2285.5" style="stroke:#181818;stroke-width:1.0;"/><line style="stroke:#181818;stroke-width:1.0;" x1="619.5" x2="887.5" y1="2285.5" y2="2285.5"/><text fill="#000000" font-family="sans-serif" font-size="13" lengthAdjust="spacing" textLength="208" x="626.5" y="2280.4341">お知らせ一覧を全て完了済みに更新</text><polygon fill="#181818" points="630.5,2295.5,620.5,2299.5,630.5,2303.5,626.5,2299.5" style="stroke:#181818;stroke-width:1.0;"/><line style="stroke:#181818;stroke-width:1.0;stroke-dasharray:2.0,2.0;" x1="624.5" x2="897.5" y1="2299.5" y2="2299.5"/><polygon fill="#181818" points="881.5,2339.7656,891.5,2343.7656,881.5,2347.7656,885.5,2343.7656" style="stroke:#181818;stroke-width:1.0;"/><line style="stroke:#181818;stroke-width:1.0;" x1="619.5" x2="887.5" y1="2343.7656" y2="2343.7656"/><text fill="#000000" font-family="sans-serif" font-size="13" lengthAdjust="spacing" textLength="182" x="626.5" y="2323.5669">一覧に対して全部強制終了した</text><text fill="#000000" font-family="sans-serif" font-size="13" lengthAdjust="spacing" textLength="104" x="626.5" y="2338.6997">メッセージを追加</text><polygon fill="#181818" points="630.5,2353.7656,620.5,2357.7656,630.5,2361.7656,626.5,2357.7656" style="stroke:#181818;stroke-width:1.0;"/><line style="stroke:#181818;stroke-width:1.0;stroke-dasharray:2.0,2.0;" x1="624.5" x2="897.5" y1="2357.7656" y2="2357.7656"/><!--SRC=[fLTBRnfN5DxFhnYbYxQAKFSeRfKcLLAfJI95LHN9cmbC6rGy83nEv1rtRaqmq9WsCLOBiODhOxjMm95DGlo07tEuCx3AN-XzWM4OO4WiBuQPSxxp-iwvvveHCwghW39aVGtGxoIV1ei-51NbSnMiRR1gOBK0dvFgFqxpGD52PYoXNW5SeU_0Udj5rHRLfKKzeSIrX1a9HUAQOTBlL0qVWBN38F0nuBHpMBDBX_F65_Tk06e2sW94aTy3tWHS_9B3XFN7aP0-37G_PaH2jsEBfdhztlTK-yRDEr_Hfy0jpTIVQCj2KOj759Tzd0UC0IEmwinHd6UwqTXI-6VD33q2jF-3jl0mh7qZ01wobsw8aPGurRAJJm5ESSG2O1REpML3MuZ90FZpC8nGSbwSTLzk2sV32n7ZUZpUIwKGw2HNBh_-nFAfiAogWQzbMjIhLuFgxRi_VYUWEkLzP-TKIHWnKrSJaLyVcMhibvxePxSIkcuyqAFHs1D5fN-0NuDrnCh1Qh7EVhBg_KNMB6TbJz6DiCg0t2Q3b1Sl0LNRPmKgt4KDExEfo6z3KhWCE0jubwAs6ybEPKyuIPMadnx0xknEjZ1QZ6aMxC9HfxBcQSVEK3Up_koGbLsIANv4F2IrGghlMP8vmgYAittQ-U-FMNmH6bDzwIPHkrNsYfCs2kMH9xPGegsbC246nyayJfoPRrsGp2ikVYtG4my4UkReEuuKy1URi4-gkVPfQcg47v4w5wGoDqUbDW3HhbW5jERKSrtqJ9sRKvH-2_ACoMuLUHXivaxz7SckZv4E3hNSX_FKg4VIaRwAIttCz777CTRyQ895S_csrpauTawEXgQDVsETrWjMJS7ySMf3LVJl5uSUR8KftWbcUPYPp71XfqVodjgrm03LrLcz7gJtT2Bw63ApJqp_0smMR2-oH4rLP0_GdWYVnxd5z5wTK5L-D8qu8aHbkPZ4p6DQEZ01NSncIKzFES4lm2M-_HpFweu7FJtDo54zqOoleSrKV0tk8Lhtj5oi7h3FliWnxZluqL4-AGMVckb10tfqKVS-h8GtWFu6Apk9VHxCufepyr54xqs3CLlR_T-MluqkwIB_V6r3p_d_daT8g4fgJT8g0SeDo1y0ea7IZlkNDrgMYZdrlBrPwkyXWDQvEcj3hjXV_YPKPq8E9h3JgLjKYx9J4C8_HuKYNrJf7UBexXrledugJuUfOuJ5BExT7CZJ2ZrlsI1sbOjV5lhLukRisZDxOvTKj-p21KkmbQCqSo5TRjbqyOyyflSNUUqGUAwaz6y5jBvsAKcQEK27SbhmATfkl6RrjLRdZG_dVtQJRxg5v-Bia5FMicZn-OvV8CqDQMMuqOCgvL3dJPa9eeopjSkFeA9OuI_z4Wz1LRpdJDhludr9YaOQK8iwHtPMxUA9w330J_a5eqM5snSbEvttZdBKga07L76XKsYwq7j5uOqiqQXRjIPFI4KwVVwEfDzAWl54pHly-eB1EkC-DovNMmzh_mC0]--></g></svg>