<?xml version="1.0" encoding="UTF-8" standalone="no"?><svg xmlns="http://www.w3.org/2000/svg" xmlns:xlink="http://www.w3.org/1999/xlink" contentStyleType="text/css" height="2275px" preserveAspectRatio="none" style="width:1299px;height:2275px;background:#FFFFFF;" version="1.1" viewBox="0 0 1299 2275" width="1299px" zoomAndPan="magnify"><defs/><g><text fill="#000000" font-family="sans-serif" font-size="14" font-weight="bold" lengthAdjust="spacing" textLength="90" x="600.75" y="27.9951">お問い合わせ</text><rect fill="#FFFFFF" height="2035.6406" style="stroke:#181818;stroke-width:1.0;" width="10" x="224" y="149.7266"/><rect fill="#FFFFFF" height="57.1328" style="stroke:#181818;stroke-width:1.0;" width="10" x="430" y="514.3203"/><rect fill="#FFFFFF" height="57.1328" style="stroke:#181818;stroke-width:1.0;" width="10" x="430" y="1527.1719"/><rect fill="#FFFFFF" height="57.1328" style="stroke:#181818;stroke-width:1.0;" width="10" x="430" y="1776.9063"/><rect fill="#FFFFFF" height="2056.7734" style="stroke:#181818;stroke-width:1.0;" width="10" x="609.5" y="128.5938"/><rect fill="#FFFFFF" height="14" style="stroke:#181818;stroke-width:1.0;" width="10" x="893.5" y="543.4531"/><rect fill="#FFFFFF" height="14" style="stroke:#181818;stroke-width:1.0;" width="10" x="893.5" y="1058.3125"/><rect fill="#FFFFFF" height="14" style="stroke:#181818;stroke-width:1.0;" width="10" x="893.5" y="1556.3047"/><rect fill="#FFFFFF" height="14" style="stroke:#181818;stroke-width:1.0;" width="10" x="893.5" y="1806.0391"/><rect fill="#FFFFFF" height="29.1328" style="stroke:#181818;stroke-width:1.0;" width="10" x="893.5" y="2003.7031"/><rect fill="#FFFFFF" height="14" style="stroke:#181818;stroke-width:1.0;" width="10" x="893.5" y="2104.1016"/><rect fill="#FFFFFF" height="14" style="stroke:#181818;stroke-width:1.0;" width="10" x="893.5" y="2162.3672"/><rect fill="#FFFFFF" height="1428.25" style="stroke:#181818;stroke-width:1.0;" width="10" x="1052.5" y="757.1172"/><rect fill="none" height="553.9297" style="stroke:#000000;stroke-width:1.5;" width="989.5" x="10" y="1330.2422"/><line style="stroke:#181818;stroke-width:0.5;stroke-dasharray:5.0,5.0;" x1="44" x2="44" y1="118.5938" y2="2194.3672"/><line style="stroke:#181818;stroke-width:0.5;stroke-dasharray:5.0,5.0;" x1="228.5" x2="228.5" y1="118.5938" y2="2194.3672"/><line style="stroke:#181818;stroke-width:0.5;stroke-dasharray:5.0,5.0;" x1="434.5" x2="434.5" y1="118.5938" y2="2194.3672"/><line style="stroke:#181818;stroke-width:0.5;stroke-dasharray:5.0,5.0;" x1="614.5" x2="614.5" y1="118.5938" y2="2194.3672"/><line style="stroke:#181818;stroke-width:0.5;stroke-dasharray:5.0,5.0;" x1="898.5" x2="898.5" y1="118.5938" y2="2194.3672"/><line style="stroke:#181818;stroke-width:0.5;stroke-dasharray:5.0,5.0;" x1="1057.5" x2="1057.5" y1="118.5938" y2="2194.3672"/><line style="stroke:#181818;stroke-width:0.5;stroke-dasharray:5.0,5.0;" x1="1263.5" x2="1263.5" y1="118.5938" y2="2194.3672"/><text fill="#000000" font-family="sans-serif" font-size="14" lengthAdjust="spacing" textLength="42" x="20" y="115.292">ユーザ</text><ellipse cx="44" cy="50.7969" fill="#E2E2F0" rx="8" ry="8" style="stroke:#181818;stroke-width:0.5;"/><path d="M44,58.7969 L44,85.7969 M31,66.7969 L57,66.7969 M44,85.7969 L31,100.7969 M44,85.7969 L57,100.7969 " fill="none" style="stroke:#181818;stroke-width:0.5;"/><text fill="#000000" font-family="sans-serif" font-size="14" lengthAdjust="spacing" textLength="42" x="20" y="2206.3623">ユーザ</text><ellipse cx="44" cy="2218.1641" fill="#E2E2F0" rx="8" ry="8" style="stroke:#181818;stroke-width:0.5;"/><path d="M44,2226.1641 L44,2253.1641 M31,2234.1641 L57,2234.1641 M44,2253.1641 L31,2268.1641 M44,2253.1641 L57,2268.1641 " fill="none" style="stroke:#181818;stroke-width:0.5;"/><rect fill="#E2E2F0" height="46.5938" rx="2.5" ry="2.5" style="stroke:#181818;stroke-width:0.5;" width="127" x="165.5" y="71"/><text fill="#000000" font-family="sans-serif" font-size="14" lengthAdjust="spacing" textLength="112" x="173" y="90.9951">クライアント端末</text><text fill="#000000" font-family="sans-serif" font-size="14" lengthAdjust="spacing" textLength="113" x="172.5" y="107.292">(PCまたはスマホ)</text><rect fill="#E2E2F0" height="46.5938" rx="2.5" ry="2.5" style="stroke:#181818;stroke-width:0.5;" width="127" x="165.5" y="2193.3672"/><text fill="#000000" font-family="sans-serif" font-size="14" lengthAdjust="spacing" textLength="112" x="173" y="2213.3623">クライアント端末</text><text fill="#000000" font-family="sans-serif" font-size="14" lengthAdjust="spacing" textLength="113" x="172.5" y="2229.6592">(PCまたはスマホ)</text><rect fill="#E2E2F0" height="46.5938" rx="2.5" ry="2.5" style="stroke:#181818;stroke-width:0.5;" width="151" x="359.5" y="71"/><text fill="#000000" font-family="sans-serif" font-size="14" lengthAdjust="spacing" textLength="99" x="385.5" y="90.9951">SonicHost API</text><text fill="#000000" font-family="sans-serif" font-size="14" lengthAdjust="spacing" textLength="137" x="366.5" y="107.292">(CDN/API-Gateway)</text><rect fill="#E2E2F0" height="46.5938" rx="2.5" ry="2.5" style="stroke:#181818;stroke-width:0.5;" width="151" x="359.5" y="2193.3672"/><text fill="#000000" font-family="sans-serif" font-size="14" lengthAdjust="spacing" textLength="99" x="385.5" y="2213.3623">SonicHost API</text><text fill="#000000" font-family="sans-serif" font-size="14" lengthAdjust="spacing" textLength="137" x="366.5" y="2229.6592">(CDN/API-Gateway)</text><rect fill="#E2E2F0" height="46.5938" rx="2.5" ry="2.5" style="stroke:#181818;stroke-width:0.5;" width="188" x="520.5" y="71"/><text fill="#000000" font-family="sans-serif" font-size="14" lengthAdjust="spacing" textLength="84" x="572.5" y="90.9951">バッチサーバ</text><text fill="#000000" font-family="sans-serif" font-size="14" lengthAdjust="spacing" textLength="174" x="527.5" y="107.292">(CloudWatchとLambda?)</text><rect fill="#E2E2F0" height="46.5938" rx="2.5" ry="2.5" style="stroke:#181818;stroke-width:0.5;" width="188" x="520.5" y="2193.3672"/><text fill="#000000" font-family="sans-serif" font-size="14" lengthAdjust="spacing" textLength="84" x="572.5" y="2213.3623">バッチサーバ</text><text fill="#000000" font-family="sans-serif" font-size="14" lengthAdjust="spacing" textLength="174" x="527.5" y="2229.6592">(CloudWatchとLambda?)</text><rect fill="#E2E2F0" height="46.5938" rx="2.5" ry="2.5" style="stroke:#181818;stroke-width:0.5;" width="182" x="807.5" y="71"/><text fill="#000000" font-family="sans-serif" font-size="14" lengthAdjust="spacing" textLength="168" x="814.5" y="90.9951">お問い合わせ管理テーブル</text><text fill="#000000" font-family="sans-serif" font-size="14" lengthAdjust="spacing" textLength="69" x="864" y="107.292">(Dynamo)</text><rect fill="#E2E2F0" height="46.5938" rx="2.5" ry="2.5" style="stroke:#181818;stroke-width:0.5;" width="182" x="807.5" y="2193.3672"/><text fill="#000000" font-family="sans-serif" font-size="14" lengthAdjust="spacing" textLength="168" x="814.5" y="2213.3623">お問い合わせ管理テーブル</text><text fill="#000000" font-family="sans-serif" font-size="14" lengthAdjust="spacing" textLength="69" x="864" y="2229.6592">(Dynamo)</text><rect fill="#E2E2F0" height="30.2969" rx="2.5" ry="2.5" style="stroke:#181818;stroke-width:0.5;" width="70" x="1022.5" y="87.2969"/><text fill="#000000" font-family="sans-serif" font-size="14" lengthAdjust="spacing" textLength="56" x="1029.5" y="107.292">管理画面</text><rect fill="#E2E2F0" height="30.2969" rx="2.5" ry="2.5" style="stroke:#181818;stroke-width:0.5;" width="70" x="1022.5" y="2193.3672"/><text fill="#000000" font-family="sans-serif" font-size="14" lengthAdjust="spacing" textLength="56" x="1029.5" y="2213.3623">管理画面</text><text fill="#000000" font-family="sans-serif" font-size="14" lengthAdjust="spacing" textLength="42" x="1239.5" y="115.292">管理者</text><ellipse cx="1263.5" cy="50.7969" fill="#E2E2F0" rx="8" ry="8" style="stroke:#181818;stroke-width:0.5;"/><path d="M1263.5,58.7969 L1263.5,85.7969 M1250.5,66.7969 L1276.5,66.7969 M1263.5,85.7969 L1250.5,100.7969 M1263.5,85.7969 L1276.5,100.7969 " fill="none" style="stroke:#181818;stroke-width:0.5;"/><text fill="#000000" font-family="sans-serif" font-size="14" lengthAdjust="spacing" textLength="42" x="1239.5" y="2206.3623">管理者</text><ellipse cx="1263.5" cy="2218.1641" fill="#E2E2F0" rx="8" ry="8" style="stroke:#181818;stroke-width:0.5;"/><path d="M1263.5,2226.1641 L1263.5,2253.1641 M1250.5,2234.1641 L1276.5,2234.1641 M1263.5,2253.1641 L1250.5,2268.1641 M1263.5,2253.1641 L1276.5,2268.1641 " fill="none" style="stroke:#181818;stroke-width:0.5;"/><rect fill="#FFFFFF" height="2035.6406" style="stroke:#181818;stroke-width:1.0;" width="10" x="224" y="149.7266"/><rect fill="#FFFFFF" height="57.1328" style="stroke:#181818;stroke-width:1.0;" width="10" x="430" y="514.3203"/><rect fill="#FFFFFF" height="57.1328" style="stroke:#181818;stroke-width:1.0;" width="10" x="430" y="1527.1719"/><rect fill="#FFFFFF" height="57.1328" style="stroke:#181818;stroke-width:1.0;" width="10" x="430" y="1776.9063"/><rect fill="#FFFFFF" height="2056.7734" style="stroke:#181818;stroke-width:1.0;" width="10" x="609.5" y="128.5938"/><rect fill="#FFFFFF" height="14" style="stroke:#181818;stroke-width:1.0;" width="10" x="893.5" y="543.4531"/><rect fill="#FFFFFF" height="14" style="stroke:#181818;stroke-width:1.0;" width="10" x="893.5" y="1058.3125"/><rect fill="#FFFFFF" height="14" style="stroke:#181818;stroke-width:1.0;" width="10" x="893.5" y="1556.3047"/><rect fill="#FFFFFF" height="14" style="stroke:#181818;stroke-width:1.0;" width="10" x="893.5" y="1806.0391"/><rect fill="#FFFFFF" height="29.1328" style="stroke:#181818;stroke-width:1.0;" width="10" x="893.5" y="2003.7031"/><rect fill="#FFFFFF" height="14" style="stroke:#181818;stroke-width:1.0;" width="10" x="893.5" y="2104.1016"/><rect fill="#FFFFFF" height="14" style="stroke:#181818;stroke-width:1.0;" width="10" x="893.5" y="2162.3672"/><rect fill="#FFFFFF" height="1428.25" style="stroke:#181818;stroke-width:1.0;" width="10" x="1052.5" y="757.1172"/><polygon fill="#181818" points="212,145.7266,222,149.7266,212,153.7266,216,149.7266" style="stroke:#181818;stroke-width:1.0;"/><line style="stroke:#181818;stroke-width:1.0;" x1="44" x2="218" y1="149.7266" y2="149.7266"/><text fill="#000000" font-family="sans-serif" font-size="13" lengthAdjust="spacing" textLength="143" x="51" y="144.6606">コンテンツ更新画面表示</text><rect fill="#ADFF2F" height="23" style="stroke:#181818;stroke-width:0.5;" width="138" x="239" y="162.7266"/><text fill="#000000" font-family="sans-serif" font-size="13" lengthAdjust="spacing" textLength="130" x="243" y="178.7935">ログインフローを参照</text><polygon fill="#181818" points="212,223.125,222,227.125,212,231.125,216,227.125" style="stroke:#181818;stroke-width:1.0;"/><line style="stroke:#181818;stroke-width:1.0;" x1="44" x2="218" y1="227.125" y2="227.125"/><text fill="#000000" font-family="sans-serif" font-size="13" lengthAdjust="spacing" textLength="117" x="51" y="206.9263">設定・その他を選択</text><text fill="#000000" font-family="sans-serif" font-size="13" lengthAdjust="spacing" textLength="117" x="51" y="222.0591">サイドメニューより</text><line style="stroke:#181818;stroke-width:1.0;" x1="234" x2="276" y1="256.2578" y2="256.2578"/><line style="stroke:#181818;stroke-width:1.0;" x1="276" x2="276" y1="256.2578" y2="269.2578"/><line style="stroke:#181818;stroke-width:1.0;" x1="235" x2="276" y1="269.2578" y2="269.2578"/><polygon fill="#181818" points="245,265.2578,235,269.2578,245,273.2578,241,269.2578" style="stroke:#181818;stroke-width:1.0;"/><text fill="#000000" font-family="sans-serif" font-size="13" lengthAdjust="spacing" textLength="143" x="241" y="251.1919">設定・その他画面を表示</text><polygon fill="#181818" points="212,294.3906,222,298.3906,212,302.3906,216,298.3906" style="stroke:#181818;stroke-width:1.0;"/><line style="stroke:#181818;stroke-width:1.0;" x1="44" x2="218" y1="298.3906" y2="298.3906"/><text fill="#000000" font-family="sans-serif" font-size="13" lengthAdjust="spacing" textLength="156" x="51" y="293.3247">お問い合わせへ遷移を選択</text><line style="stroke:#181818;stroke-width:1.0;" x1="234" x2="276" y1="327.5234" y2="327.5234"/><line style="stroke:#181818;stroke-width:1.0;" x1="276" x2="276" y1="327.5234" y2="340.5234"/><line style="stroke:#181818;stroke-width:1.0;" x1="235" x2="276" y1="340.5234" y2="340.5234"/><polygon fill="#181818" points="245,336.5234,235,340.5234,245,344.5234,241,340.5234" style="stroke:#181818;stroke-width:1.0;"/><text fill="#000000" font-family="sans-serif" font-size="13" lengthAdjust="spacing" textLength="143" x="241" y="322.4575">お問い合わせ画面を表示</text><polygon fill="#181818" points="212,365.6563,222,369.6563,212,373.6563,216,369.6563" style="stroke:#181818;stroke-width:1.0;"/><line style="stroke:#181818;stroke-width:1.0;" x1="44" x2="218" y1="369.6563" y2="369.6563"/><text fill="#000000" font-family="sans-serif" font-size="13" lengthAdjust="spacing" textLength="156" x="51" y="364.5903">お問い合わせを追加を押下</text><line style="stroke:#181818;stroke-width:1.0;" x1="234" x2="276" y1="398.7891" y2="398.7891"/><line style="stroke:#181818;stroke-width:1.0;" x1="276" x2="276" y1="398.7891" y2="411.7891"/><line style="stroke:#181818;stroke-width:1.0;" x1="235" x2="276" y1="411.7891" y2="411.7891"/><polygon fill="#181818" points="245,407.7891,235,411.7891,245,415.7891,241,411.7891" style="stroke:#181818;stroke-width:1.0;"/><text fill="#000000" font-family="sans-serif" font-size="13" lengthAdjust="spacing" textLength="169" x="241" y="393.7231">お問い合わせ入力画面を表示</text><polygon fill="#181818" points="212,452.0547,222,456.0547,212,460.0547,216,456.0547" style="stroke:#181818;stroke-width:1.0;"/><line style="stroke:#181818;stroke-width:1.0;" x1="44" x2="218" y1="456.0547" y2="456.0547"/><text fill="#000000" font-family="sans-serif" font-size="13" lengthAdjust="spacing" textLength="117" x="51" y="435.856">問い合わせカテゴリ</text><text fill="#000000" font-family="sans-serif" font-size="13" lengthAdjust="spacing" textLength="143" x="51" y="450.9888">お問い合わせ内容を入力</text><polygon fill="#181818" points="212,481.1875,222,485.1875,212,489.1875,216,485.1875" style="stroke:#181818;stroke-width:1.0;"/><line style="stroke:#181818;stroke-width:1.0;" x1="44" x2="218" y1="485.1875" y2="485.1875"/><text fill="#000000" font-family="sans-serif" font-size="13" lengthAdjust="spacing" textLength="52" x="51" y="480.1216">送信押下</text><polygon fill="#181818" points="418,510.3203,428,514.3203,418,518.3203,422,514.3203" style="stroke:#181818;stroke-width:1.0;"/><line style="stroke:#181818;stroke-width:1.0;" x1="234" x2="424" y1="514.3203" y2="514.3203"/><text fill="#000000" font-family="sans-serif" font-size="13" lengthAdjust="spacing" textLength="124" x="241" y="509.2544">お問い合わせ送信API</text><polygon fill="#181818" points="881.5,539.4531,891.5,543.4531,881.5,547.4531,885.5,543.4531" style="stroke:#181818;stroke-width:1.0;"/><line style="stroke:#181818;stroke-width:1.0;" x1="440" x2="887.5" y1="543.4531" y2="543.4531"/><text fill="#000000" font-family="sans-serif" font-size="13" lengthAdjust="spacing" textLength="117" x="447" y="538.3872">お問い合わせを追加</text><polygon fill="#181818" points="451,553.4531,441,557.4531,451,561.4531,447,557.4531" style="stroke:#181818;stroke-width:1.0;"/><line style="stroke:#181818;stroke-width:1.0;" x1="445" x2="897.5" y1="557.4531" y2="557.4531"/><polygon fill="#181818" points="245,567.4531,235,571.4531,245,575.4531,241,571.4531" style="stroke:#181818;stroke-width:1.0;"/><line style="stroke:#181818;stroke-width:1.0;" x1="239" x2="434" y1="571.4531" y2="571.4531"/><line style="stroke:#181818;stroke-width:1.0;" x1="234" x2="276" y1="600.5859" y2="600.5859"/><line style="stroke:#181818;stroke-width:1.0;" x1="276" x2="276" y1="600.5859" y2="613.5859"/><line style="stroke:#181818;stroke-width:1.0;" x1="235" x2="276" y1="613.5859" y2="613.5859"/><polygon fill="#181818" points="245,609.5859,235,613.5859,245,617.5859,241,613.5859" style="stroke:#181818;stroke-width:1.0;"/><text fill="#000000" font-family="sans-serif" font-size="13" lengthAdjust="spacing" textLength="169" x="241" y="595.52">お問い合わせ詳細画面を表示</text><polygon fill="#181818" points="212,638.7188,222,642.7188,212,646.7188,216,642.7188" style="stroke:#181818;stroke-width:1.0;"/><line style="stroke:#181818;stroke-width:1.0;" x1="44" x2="218" y1="642.7188" y2="642.7188"/><text fill="#000000" font-family="sans-serif" font-size="13" lengthAdjust="spacing" textLength="52" x="51" y="637.6528">戻る押下</text><line style="stroke:#181818;stroke-width:1.0;" x1="234" x2="276" y1="671.8516" y2="671.8516"/><line style="stroke:#181818;stroke-width:1.0;" x1="276" x2="276" y1="671.8516" y2="684.8516"/><line style="stroke:#181818;stroke-width:1.0;" x1="235" x2="276" y1="684.8516" y2="684.8516"/><polygon fill="#181818" points="245,680.8516,235,684.8516,245,688.8516,241,684.8516" style="stroke:#181818;stroke-width:1.0;"/><text fill="#000000" font-family="sans-serif" font-size="13" lengthAdjust="spacing" textLength="143" x="241" y="666.7856">お問い合わせ画面を表示</text><rect fill="#EEEEEE" height="3" style="stroke:#EEEEEE;stroke-width:1.0;" width="1292.5" x="0" y="713.418"/><line style="stroke:#000000;stroke-width:1.0;" x1="0" x2="1292.5" y1="713.418" y2="713.418"/><line style="stroke:#000000;stroke-width:1.0;" x1="0" x2="1292.5" y1="716.418" y2="716.418"/><rect fill="#EEEEEE" height="23.1328" style="stroke:#000000;stroke-width:2.0;" width="103" x="594.75" y="702.8516"/><text fill="#000000" font-family="sans-serif" font-size="13" font-weight="bold" lengthAdjust="spacing" textLength="84" x="600.75" y="718.9185">しばらく経過</text><polygon fill="#181818" points="1073.5,753.1172,1063.5,757.1172,1073.5,761.1172,1069.5,757.1172" style="stroke:#181818;stroke-width:1.0;"/><line style="stroke:#181818;stroke-width:1.0;" x1="1067.5" x2="1262.5" y1="757.1172" y2="757.1172"/><text fill="#000000" font-family="sans-serif" font-size="13" lengthAdjust="spacing" textLength="78" x="1079.5" y="752.0513">管理画面起動</text><polygon fill="#181818" points="1073.5,782.25,1063.5,786.25,1073.5,790.25,1069.5,786.25" style="stroke:#181818;stroke-width:1.0;"/><line style="stroke:#181818;stroke-width:1.0;" x1="1067.5" x2="1262.5" y1="786.25" y2="786.25"/><text fill="#000000" font-family="sans-serif" font-size="13" lengthAdjust="spacing" textLength="169" x="1079.5" y="781.1841">ログイン＆お問い合わせ表示</text><line style="stroke:#181818;stroke-width:1.0;" x1="1062.5" x2="1104.5" y1="815.3828" y2="815.3828"/><line style="stroke:#181818;stroke-width:1.0;" x1="1104.5" x2="1104.5" y1="815.3828" y2="828.3828"/><line style="stroke:#181818;stroke-width:1.0;" x1="1063.5" x2="1104.5" y1="828.3828" y2="828.3828"/><polygon fill="#181818" points="1073.5,824.3828,1063.5,828.3828,1073.5,832.3828,1069.5,828.3828" style="stroke:#181818;stroke-width:1.0;"/><text fill="#000000" font-family="sans-serif" font-size="13" lengthAdjust="spacing" textLength="169" x="1069.5" y="810.3169">お問い合わせ管理画面を表示</text><polygon fill="#181818" points="1073.5,853.5156,1063.5,857.5156,1073.5,861.5156,1069.5,857.5156" style="stroke:#181818;stroke-width:1.0;"/><line style="stroke:#181818;stroke-width:1.0;" x1="1067.5" x2="1262.5" y1="857.5156" y2="857.5156"/><text fill="#000000" font-family="sans-serif" font-size="13" lengthAdjust="spacing" textLength="104" x="1079.5" y="852.4497">お問い合わせ選択</text><line style="stroke:#181818;stroke-width:1.0;" x1="1062.5" x2="1104.5" y1="886.6484" y2="886.6484"/><line style="stroke:#181818;stroke-width:1.0;" x1="1104.5" x2="1104.5" y1="886.6484" y2="899.6484"/><line style="stroke:#181818;stroke-width:1.0;" x1="1063.5" x2="1104.5" y1="899.6484" y2="899.6484"/><polygon fill="#181818" points="1073.5,895.6484,1063.5,899.6484,1073.5,903.6484,1069.5,899.6484" style="stroke:#181818;stroke-width:1.0;"/><text fill="#000000" font-family="sans-serif" font-size="13" lengthAdjust="spacing" textLength="156" x="1069.5" y="881.5825">お問い合わせ詳細画面表示</text><polygon fill="#181818" points="1073.5,924.7813,1063.5,928.7813,1073.5,932.7813,1069.5,928.7813" style="stroke:#181818;stroke-width:1.0;"/><line style="stroke:#181818;stroke-width:1.0;" x1="1067.5" x2="1262.5" y1="928.7813" y2="928.7813"/><text fill="#000000" font-family="sans-serif" font-size="13" lengthAdjust="spacing" textLength="130" x="1079.5" y="923.7153">お問い合わせ返信入力</text><polygon fill="#181818" points="1073.5,953.9141,1063.5,957.9141,1073.5,961.9141,1069.5,957.9141" style="stroke:#181818;stroke-width:1.0;"/><line style="stroke:#181818;stroke-width:1.0;" x1="1067.5" x2="1262.5" y1="957.9141" y2="957.9141"/><text fill="#000000" font-family="sans-serif" font-size="13" lengthAdjust="spacing" textLength="52" x="1079.5" y="952.8481">確認押下</text><line style="stroke:#181818;stroke-width:1.0;" x1="1062.5" x2="1104.5" y1="987.0469" y2="987.0469"/><line style="stroke:#181818;stroke-width:1.0;" x1="1104.5" x2="1104.5" y1="987.0469" y2="1000.0469"/><line style="stroke:#181818;stroke-width:1.0;" x1="1063.5" x2="1104.5" y1="1000.0469" y2="1000.0469"/><polygon fill="#181818" points="1073.5,996.0469,1063.5,1000.0469,1073.5,1004.0469,1069.5,1000.0469" style="stroke:#181818;stroke-width:1.0;"/><text fill="#000000" font-family="sans-serif" font-size="13" lengthAdjust="spacing" textLength="182" x="1069.5" y="981.981">お問い合わせ返信確認画面表示</text><polygon fill="#181818" points="1073.5,1025.1797,1063.5,1029.1797,1073.5,1033.1797,1069.5,1029.1797" style="stroke:#181818;stroke-width:1.0;"/><line style="stroke:#181818;stroke-width:1.0;" x1="1067.5" x2="1262.5" y1="1029.1797" y2="1029.1797"/><text fill="#000000" font-family="sans-serif" font-size="13" lengthAdjust="spacing" textLength="52" x="1079.5" y="1024.1138">送信押下</text><polygon fill="#181818" points="914.5,1054.3125,904.5,1058.3125,914.5,1062.3125,910.5,1058.3125" style="stroke:#181818;stroke-width:1.0;"/><line style="stroke:#181818;stroke-width:1.0;" x1="908.5" x2="1051.5" y1="1058.3125" y2="1058.3125"/><text fill="#000000" font-family="sans-serif" font-size="13" lengthAdjust="spacing" textLength="130" x="920.5" y="1053.2466">お問い合わせ返信追加</text><polygon fill="#181818" points="1040.5,1068.3125,1050.5,1072.3125,1040.5,1076.3125,1044.5,1072.3125" style="stroke:#181818;stroke-width:1.0;"/><line style="stroke:#181818;stroke-width:1.0;stroke-dasharray:2.0,2.0;" x1="898.5" x2="1046.5" y1="1072.3125" y2="1072.3125"/><line style="stroke:#181818;stroke-width:1.0;" x1="1062.5" x2="1104.5" y1="1101.4453" y2="1101.4453"/><line style="stroke:#181818;stroke-width:1.0;" x1="1104.5" x2="1104.5" y1="1101.4453" y2="1114.4453"/><line style="stroke:#181818;stroke-width:1.0;" x1="1063.5" x2="1104.5" y1="1114.4453" y2="1114.4453"/><polygon fill="#181818" points="1073.5,1110.4453,1063.5,1114.4453,1073.5,1118.4453,1069.5,1114.4453" style="stroke:#181818;stroke-width:1.0;"/><text fill="#000000" font-family="sans-serif" font-size="13" lengthAdjust="spacing" textLength="182" x="1069.5" y="1096.3794">お問い合わせ返信完了画面表示</text><rect fill="#EEEEEE" height="3" style="stroke:#EEEEEE;stroke-width:1.0;" width="1292.5" x="0" y="1143.0117"/><line style="stroke:#000000;stroke-width:1.0;" x1="0" x2="1292.5" y1="1143.0117" y2="1143.0117"/><line style="stroke:#000000;stroke-width:1.0;" x1="0" x2="1292.5" y1="1146.0117" y2="1146.0117"/><rect fill="#EEEEEE" height="23.1328" style="stroke:#000000;stroke-width:2.0;" width="103" x="594.75" y="1132.4453"/><text fill="#000000" font-family="sans-serif" font-size="13" font-weight="bold" lengthAdjust="spacing" textLength="84" x="600.75" y="1148.5122">しばらく経過</text><polygon fill="#181818" points="212,1182.7109,222,1186.7109,212,1190.7109,216,1186.7109" style="stroke:#181818;stroke-width:1.0;"/><line style="stroke:#181818;stroke-width:1.0;" x1="44" x2="218" y1="1186.7109" y2="1186.7109"/><text fill="#000000" font-family="sans-serif" font-size="13" lengthAdjust="spacing" textLength="104" x="51" y="1181.645">お問い合わせ選択</text><line style="stroke:#181818;stroke-width:1.0;" x1="234" x2="276" y1="1215.8438" y2="1215.8438"/><line style="stroke:#181818;stroke-width:1.0;" x1="276" x2="276" y1="1215.8438" y2="1228.8438"/><line style="stroke:#181818;stroke-width:1.0;" x1="235" x2="276" y1="1228.8438" y2="1228.8438"/><polygon fill="#181818" points="245,1224.8438,235,1228.8438,245,1232.8438,241,1228.8438" style="stroke:#181818;stroke-width:1.0;"/><text fill="#000000" font-family="sans-serif" font-size="13" lengthAdjust="spacing" textLength="130" x="241" y="1210.7778">お問い合わせ画面表示</text><polygon fill="#181818" points="212,1253.9766,222,1257.9766,212,1261.9766,216,1257.9766" style="stroke:#181818;stroke-width:1.0;"/><line style="stroke:#181818;stroke-width:1.0;" x1="44" x2="218" y1="1257.9766" y2="1257.9766"/><text fill="#000000" font-family="sans-serif" font-size="13" lengthAdjust="spacing" textLength="104" x="51" y="1252.9106">お問い合わせ選択</text><line style="stroke:#181818;stroke-width:1.0;" x1="234" x2="276" y1="1302.2422" y2="1302.2422"/><line style="stroke:#181818;stroke-width:1.0;" x1="276" x2="276" y1="1302.2422" y2="1315.2422"/><line style="stroke:#181818;stroke-width:1.0;" x1="235" x2="276" y1="1315.2422" y2="1315.2422"/><polygon fill="#181818" points="245,1311.2422,235,1315.2422,245,1319.2422,241,1315.2422" style="stroke:#181818;stroke-width:1.0;"/><text fill="#000000" font-family="sans-serif" font-size="13" lengthAdjust="spacing" textLength="130" x="241" y="1282.0435">お問い合わせ詳細表示</text><text fill="#000000" font-family="sans-serif" font-size="13" lengthAdjust="spacing" textLength="127" x="241" y="1297.1763">(アコーディオン開く)</text><path d="M10,1330.2422 L76,1330.2422 L76,1337.375 L66,1347.375 L10,1347.375 L10,1330.2422 " fill="#EEEEEE" style="stroke:#000000;stroke-width:1.5;"/><rect fill="none" height="553.9297" style="stroke:#000000;stroke-width:1.5;" width="989.5" x="10" y="1330.2422"/><text fill="#000000" font-family="sans-serif" font-size="13" font-weight="bold" lengthAdjust="spacing" textLength="21" x="25" y="1343.3091">alt</text><text fill="#000000" font-family="sans-serif" font-size="11" font-weight="bold" lengthAdjust="spacing" textLength="120" x="91" y="1342.4526">[追加で返信したい場合]</text><polygon fill="#181818" points="212,1364.5078,222,1368.5078,212,1372.5078,216,1368.5078" style="stroke:#181818;stroke-width:1.0;"/><line style="stroke:#181818;stroke-width:1.0;" x1="44" x2="218" y1="1368.5078" y2="1368.5078"/><text fill="#000000" font-family="sans-serif" font-size="13" lengthAdjust="spacing" textLength="78" x="51" y="1363.4419">全部見る押下</text><line style="stroke:#181818;stroke-width:1.0;" x1="234" x2="276" y1="1397.6406" y2="1397.6406"/><line style="stroke:#181818;stroke-width:1.0;" x1="276" x2="276" y1="1397.6406" y2="1410.6406"/><line style="stroke:#181818;stroke-width:1.0;" x1="235" x2="276" y1="1410.6406" y2="1410.6406"/><polygon fill="#181818" points="245,1406.6406,235,1410.6406,245,1414.6406,241,1410.6406" style="stroke:#181818;stroke-width:1.0;"/><text fill="#000000" font-family="sans-serif" font-size="13" lengthAdjust="spacing" textLength="156" x="241" y="1392.5747">お問い合わせ詳細画面表示</text><polygon fill="#181818" points="212,1435.7734,222,1439.7734,212,1443.7734,216,1439.7734" style="stroke:#181818;stroke-width:1.0;"/><line style="stroke:#181818;stroke-width:1.0;" x1="44" x2="218" y1="1439.7734" y2="1439.7734"/><text fill="#000000" font-family="sans-serif" font-size="13" lengthAdjust="spacing" textLength="78" x="51" y="1434.7075">返信する押下</text><polygon fill="#181818" points="212,1464.9063,222,1468.9063,212,1472.9063,216,1468.9063" style="stroke:#181818;stroke-width:1.0;"/><line style="stroke:#181818;stroke-width:1.0;" x1="44" x2="218" y1="1468.9063" y2="1468.9063"/><text fill="#000000" font-family="sans-serif" font-size="13" lengthAdjust="spacing" textLength="78" x="51" y="1463.8403">返信内容入力</text><polygon fill="#181818" points="212,1494.0391,222,1498.0391,212,1502.0391,216,1498.0391" style="stroke:#181818;stroke-width:1.0;"/><line style="stroke:#181818;stroke-width:1.0;" x1="44" x2="218" y1="1498.0391" y2="1498.0391"/><text fill="#000000" font-family="sans-serif" font-size="13" lengthAdjust="spacing" textLength="91" x="51" y="1492.9731">送信ボタン押下</text><polygon fill="#181818" points="418,1523.1719,428,1527.1719,418,1531.1719,422,1527.1719" style="stroke:#181818;stroke-width:1.0;"/><line style="stroke:#181818;stroke-width:1.0;" x1="234" x2="424" y1="1527.1719" y2="1527.1719"/><text fill="#000000" font-family="sans-serif" font-size="13" lengthAdjust="spacing" textLength="124" x="241" y="1522.106">お問い合わせ送信API</text><polygon fill="#181818" points="881.5,1552.3047,891.5,1556.3047,881.5,1560.3047,885.5,1556.3047" style="stroke:#181818;stroke-width:1.0;"/><line style="stroke:#181818;stroke-width:1.0;" x1="440" x2="887.5" y1="1556.3047" y2="1556.3047"/><text fill="#000000" font-family="sans-serif" font-size="13" lengthAdjust="spacing" textLength="130" x="447" y="1551.2388">お問い合わせ返信追加</text><polygon fill="#181818" points="451,1566.3047,441,1570.3047,451,1574.3047,447,1570.3047" style="stroke:#181818;stroke-width:1.0;"/><line style="stroke:#181818;stroke-width:1.0;stroke-dasharray:2.0,2.0;" x1="445" x2="897.5" y1="1570.3047" y2="1570.3047"/><polygon fill="#181818" points="245,1580.3047,235,1584.3047,245,1588.3047,241,1584.3047" style="stroke:#181818;stroke-width:1.0;"/><line style="stroke:#181818;stroke-width:1.0;stroke-dasharray:2.0,2.0;" x1="239" x2="434" y1="1584.3047" y2="1584.3047"/><line style="stroke:#000000;stroke-width:1.0;stroke-dasharray:2.0,2.0;" x1="10" x2="999.5" y1="1593.3047" y2="1593.3047"/><text fill="#000000" font-family="sans-serif" font-size="11" font-weight="bold" lengthAdjust="spacing" textLength="153" x="15" y="1603.5151">[お問い合わせを削除する場合]</text><polygon fill="#181818" points="212,1624.2422,222,1628.2422,212,1632.2422,216,1628.2422" style="stroke:#181818;stroke-width:1.0;"/><line style="stroke:#181818;stroke-width:1.0;" x1="44" x2="218" y1="1628.2422" y2="1628.2422"/><text fill="#000000" font-family="sans-serif" font-size="13" lengthAdjust="spacing" textLength="52" x="51" y="1623.1763">削除押下</text><line style="stroke:#181818;stroke-width:1.0;" x1="234" x2="276" y1="1657.375" y2="1657.375"/><line style="stroke:#181818;stroke-width:1.0;" x1="276" x2="276" y1="1657.375" y2="1670.375"/><line style="stroke:#181818;stroke-width:1.0;" x1="235" x2="276" y1="1670.375" y2="1670.375"/><polygon fill="#181818" points="245,1666.375,235,1670.375,245,1674.375,241,1670.375" style="stroke:#181818;stroke-width:1.0;"/><text fill="#000000" font-family="sans-serif" font-size="13" lengthAdjust="spacing" textLength="182" x="241" y="1652.3091">お問い合わせ削除確認画面表示</text><rect fill="#87CEEB" height="38" style="stroke:#181818;stroke-width:0.5;" width="216" x="239" y="1683.375"/><text fill="#000000" font-family="sans-serif" font-size="13" lengthAdjust="spacing" textLength="182" x="243" y="1699.4419">どこかでお問い合わせの対応が</text><text fill="#000000" font-family="sans-serif" font-size="13" lengthAdjust="spacing" textLength="208" x="243" y="1714.5747">どうだったかの結果を入力させたい</text><polygon fill="#181818" points="212,1743.7734,222,1747.7734,212,1751.7734,216,1747.7734" style="stroke:#181818;stroke-width:1.0;"/><line style="stroke:#181818;stroke-width:1.0;" x1="44" x2="218" y1="1747.7734" y2="1747.7734"/><text fill="#000000" font-family="sans-serif" font-size="13" lengthAdjust="spacing" textLength="44" x="51" y="1742.7075">OK押下</text><polygon fill="#181818" points="418,1772.9063,428,1776.9063,418,1780.9063,422,1776.9063" style="stroke:#181818;stroke-width:1.0;"/><line style="stroke:#181818;stroke-width:1.0;" x1="234" x2="424" y1="1776.9063" y2="1776.9063"/><text fill="#000000" font-family="sans-serif" font-size="13" lengthAdjust="spacing" textLength="150" x="241" y="1771.8403">お問い合わせ終了API送信</text><polygon fill="#181818" points="881.5,1802.0391,891.5,1806.0391,881.5,1810.0391,885.5,1806.0391" style="stroke:#181818;stroke-width:1.0;"/><line style="stroke:#181818;stroke-width:1.0;" x1="440" x2="887.5" y1="1806.0391" y2="1806.0391"/><text fill="#000000" font-family="sans-serif" font-size="13" lengthAdjust="spacing" textLength="162" x="447" y="1800.9731">お問い合わせ終了フラグON</text><polygon fill="#181818" points="451,1816.0391,441,1820.0391,451,1824.0391,447,1820.0391" style="stroke:#181818;stroke-width:1.0;"/><line style="stroke:#181818;stroke-width:1.0;stroke-dasharray:2.0,2.0;" x1="445" x2="897.5" y1="1820.0391" y2="1820.0391"/><polygon fill="#181818" points="245,1830.0391,235,1834.0391,245,1838.0391,241,1834.0391" style="stroke:#181818;stroke-width:1.0;"/><line style="stroke:#181818;stroke-width:1.0;stroke-dasharray:2.0,2.0;" x1="239" x2="434" y1="1834.0391" y2="1834.0391"/><line style="stroke:#181818;stroke-width:1.0;" x1="234" x2="276" y1="1863.1719" y2="1863.1719"/><line style="stroke:#181818;stroke-width:1.0;" x1="276" x2="276" y1="1863.1719" y2="1876.1719"/><line style="stroke:#181818;stroke-width:1.0;" x1="235" x2="276" y1="1876.1719" y2="1876.1719"/><polygon fill="#181818" points="245,1872.1719,235,1876.1719,245,1880.1719,241,1876.1719" style="stroke:#181818;stroke-width:1.0;"/><text fill="#000000" font-family="sans-serif" font-size="13" lengthAdjust="spacing" textLength="130" x="241" y="1858.106">お問い合わせ画面表示</text><rect fill="#EEEEEE" height="3" style="stroke:#EEEEEE;stroke-width:1.0;" width="1292.5" x="0" y="1911.7383"/><line style="stroke:#000000;stroke-width:1.0;" x1="0" x2="1292.5" y1="1911.7383" y2="1911.7383"/><line style="stroke:#000000;stroke-width:1.0;" x1="0" x2="1292.5" y1="1914.7383" y2="1914.7383"/><rect fill="#EEEEEE" height="23.1328" style="stroke:#000000;stroke-width:2.0;" width="89" x="601.75" y="1901.1719"/><text fill="#000000" font-family="sans-serif" font-size="13" font-weight="bold" lengthAdjust="spacing" textLength="70" x="607.75" y="1917.2388">バッチ処理</text><rect fill="#87CEEB" height="23" style="stroke:#181818;stroke-width:0.5;" width="164" x="624" y="1939.3047"/><text fill="#000000" font-family="sans-serif" font-size="13" lengthAdjust="spacing" textLength="156" x="628" y="1955.3716">毎日実施されるバッチ処理</text><polygon fill="#181818" points="881.5,1999.7031,891.5,2003.7031,881.5,2007.7031,885.5,2003.7031" style="stroke:#181818;stroke-width:1.0;"/><line style="stroke:#181818;stroke-width:1.0;" x1="619.5" x2="887.5" y1="2003.7031" y2="2003.7031"/><text fill="#000000" font-family="sans-serif" font-size="13" lengthAdjust="spacing" textLength="182" x="626.5" y="1983.5044">管理者が最後に送信した中から</text><text fill="#000000" font-family="sans-serif" font-size="13" lengthAdjust="spacing" textLength="156" x="626.5" y="1998.6372">１週間経過したものを取得</text><polygon fill="#181818" points="630.5,2028.8359,620.5,2032.8359,630.5,2036.8359,626.5,2032.8359" style="stroke:#181818;stroke-width:1.0;"/><line style="stroke:#181818;stroke-width:1.0;stroke-dasharray:2.0,2.0;" x1="624.5" x2="897.5" y1="2032.8359" y2="2032.8359"/><text fill="#000000" font-family="sans-serif" font-size="13" lengthAdjust="spacing" textLength="117" x="636.5" y="2027.77">対象のお知らせ一覧</text><line style="stroke:#181818;stroke-width:1.0;" x1="619.5" x2="661.5" y1="2061.9688" y2="2061.9688"/><line style="stroke:#181818;stroke-width:1.0;" x1="661.5" x2="661.5" y1="2061.9688" y2="2074.9688"/><line style="stroke:#181818;stroke-width:1.0;" x1="620.5" x2="661.5" y1="2074.9688" y2="2074.9688"/><polygon fill="#181818" points="630.5,2070.9688,620.5,2074.9688,630.5,2078.9688,626.5,2074.9688" style="stroke:#181818;stroke-width:1.0;"/><text fill="#000000" font-family="sans-serif" font-size="13" lengthAdjust="spacing" textLength="260" x="626.5" y="2056.9028">一覧を全部完了済みに変更するデータを作成</text><polygon fill="#181818" points="881.5,2100.1016,891.5,2104.1016,881.5,2108.1016,885.5,2104.1016" style="stroke:#181818;stroke-width:1.0;"/><line style="stroke:#181818;stroke-width:1.0;" x1="619.5" x2="887.5" y1="2104.1016" y2="2104.1016"/><text fill="#000000" font-family="sans-serif" font-size="13" lengthAdjust="spacing" textLength="208" x="626.5" y="2099.0356">お知らせ一覧を全て完了済みに更新</text><polygon fill="#181818" points="630.5,2114.1016,620.5,2118.1016,630.5,2122.1016,626.5,2118.1016" style="stroke:#181818;stroke-width:1.0;"/><line style="stroke:#181818;stroke-width:1.0;stroke-dasharray:2.0,2.0;" x1="624.5" x2="897.5" y1="2118.1016" y2="2118.1016"/><polygon fill="#181818" points="881.5,2158.3672,891.5,2162.3672,881.5,2166.3672,885.5,2162.3672" style="stroke:#181818;stroke-width:1.0;"/><line style="stroke:#181818;stroke-width:1.0;" x1="619.5" x2="887.5" y1="2162.3672" y2="2162.3672"/><text fill="#000000" font-family="sans-serif" font-size="13" lengthAdjust="spacing" textLength="182" x="626.5" y="2142.1685">一覧に対して全部強制終了した</text><text fill="#000000" font-family="sans-serif" font-size="13" lengthAdjust="spacing" textLength="104" x="626.5" y="2157.3013">メッセージを追加</text><polygon fill="#181818" points="630.5,2172.3672,620.5,2176.3672,630.5,2180.3672,626.5,2176.3672" style="stroke:#181818;stroke-width:1.0;"/><line style="stroke:#181818;stroke-width:1.0;stroke-dasharray:2.0,2.0;" x1="624.5" x2="897.5" y1="2176.3672" y2="2176.3672"/><!--SRC=[dLTTJnjN47tVNx5A7zeeilgEGgiqaTAgLH8fggfAl6nWsrWrjcMMHBpvxeqTVoMuJJ1ASI0GC0Q4JMGS76pi7pFUNVifVw5pxrqRxtfDrkK1BRipP-REcJbtq89QI9M1P8orLI3FZ7mAT7pOaAIlPT1tGA-2tW7QCYh_Mkq3IPdN8Z7v6j0IlWFzupLPMPANbzIO55LYMd0-65N26dv7Dte0-Yw3e3MWAUkeQXQFviBVFBWDf0ra2mWYVmAw2NJZEeTPK9y4vrKdqCD8E3Z_OsH9asyz-0czRz-vzoq-1UugclfKMH6EIZGekUBJF50Ab81UPudIFFCDHPONVbEq-ST0ohyeYuyMbEy5m2FsqWqnLXAhictbaq2J7B40b1tdpafOMOpO1-3FJXZXPBrkzj_kY6GN5eFXMz7ee9J2e1TFN7xzbTLJObML0z_PPP5lt9X1Gcgycad- -vcvSMeMJWHsRxjixPvBiN14K-LOyC_7cXpvO-3xrTsOgeP_LqEXo5D9nX-Wnw2VC7uOq1hxaz7vZx6gMubzIGqlo0p8dSECt2iVOoS0RG9v2wJIRHRGgqyQPcPpBioApI3JGBU1Pe7kSLGiNqQo4Qx64aT1HFiqO-77IG7Iw9CpQxyvpCChb0UP_oCK6dSkZCmxV30phMuZwo-KaTWpCbyEE1RjY16jdm8znDAEeoOJHkKJuup3Z-FruwJRsHvB58S5UyapKU61uoKn8uR56tgI-R0UtFncO60U20p2uJkE5F1NgDv1pJez-MAXp1IIdPs60JUaD3kBLkj0S0JIG5QjUgvFNigpiv8q741UAtjMHGL6HxbNFpEoQnEiPnppzRcLz3YgI6JeudAVe3tkSqmCFqwj60tVyKQfc3fOh_CQ-yZkoqbkrivvx_25pQB_l3YqyFMLdMCAHiDStTiYpg2z1sut0oDDBa-RjL79TS-JZgolQ4GVWZIztlaNkscmHRC8RBmI-TfGuvVaSz3VWtw8Kz0lPF5yroKbfCcsYf9zKHTUW2q6-EuKCVa5DQwEYNAVbdkbxENeCxkfTSMkW6UCGJfld34cs0a15bsELjwcels05laMLVFCt9SYCnTVgkpet86Ngt57uhCljaQheINLM-QDTAR_PbSKvagIkDsqz0WlZvbc21CMceT_hVmGMbR5KVX6Gmw0l0A2NRRljILKZ6hRw1I1v9mkgCtOYUzv0w9lnQhdpStYy5e5iiRTMNjon-5gv5c0-pzFox1Lrr4Ka651jN-UXIDVtd3HFhb_pvli2Lpx9iT121vUIDPWlJQUb_1QOdhbueblr4EQU3Yp-j9StpCgMsRXWfLLps4tkP0kDq_SZeDFSCctTtE1vohAS7L6LirYt6ZdW1pP4ySrfTiuPgpgwRdmvzRV_VY7Vk6La5XRStGTAUTxRy5ehzjHdCE2NLrjzpviCqEIiRRsk59lT1lnNcd_CY_nC2EBzxn_c609pJSRAI0TJCxOJUFIBWQ9gIDRZpjetBqecgcyzod7emfq82KNklX_mEiKtiWs6gPLRVE2bEoaMsT6wgFTOBnGk82obPw2tkGvDovtFuze_m40]--></g></svg>