<?xml version="1.0" encoding="UTF-8" standalone="no"?><svg xmlns="http://www.w3.org/2000/svg" xmlns:xlink="http://www.w3.org/1999/xlink" contentStyleType="text/css" height="1016px" preserveAspectRatio="none" style="width:849px;height:1016px;background:#FFFFFF;" version="1.1" viewBox="0 0 849 1016" width="849px" zoomAndPan="magnify"><defs/><g><text fill="#000000" font-family="sans-serif" font-size="14" font-weight="bold" lengthAdjust="spacing" textLength="90" x="381.25" y="27.9951">お知らせ取得</text><rect fill="#FFFFFF" height="403.4609" style="stroke:#181818;stroke-width:1.0;" width="10" x="191" y="523.1875"/><rect fill="#FFFFFF" height="57.1328" style="stroke:#181818;stroke-width:1.0;" width="10" x="344" y="656.7188"/><rect fill="#FFFFFF" height="57.1328" style="stroke:#181818;stroke-width:1.0;" width="10" x="344" y="853.5156"/><rect fill="#FFFFFF" height="14" style="stroke:#181818;stroke-width:1.0;" width="10" x="506.5" y="480.0547"/><rect fill="#FFFFFF" height="14" style="stroke:#181818;stroke-width:1.0;" width="10" x="506.5" y="685.8516"/><rect fill="#FFFFFF" height="14" style="stroke:#181818;stroke-width:1.0;" width="10" x="506.5" y="882.6484"/><rect fill="#FFFFFF" height="776.9219" style="stroke:#181818;stroke-width:1.0;" width="10" x="639.5" y="149.7266"/><rect fill="none" height="103.3984" style="stroke:#000000;stroke-width:1.5;" width="476" x="122.5" y="815.25"/><line style="stroke:#181818;stroke-width:0.5;stroke-dasharray:5.0,5.0;" x1="29" x2="29" y1="118.5938" y2="935.6484"/><line style="stroke:#181818;stroke-width:0.5;stroke-dasharray:5.0,5.0;" x1="195.5" x2="195.5" y1="118.5938" y2="935.6484"/><line style="stroke:#181818;stroke-width:0.5;stroke-dasharray:5.0,5.0;" x1="348.5" x2="348.5" y1="118.5938" y2="935.6484"/><line style="stroke:#181818;stroke-width:0.5;stroke-dasharray:5.0,5.0;" x1="511.5" x2="511.5" y1="118.5938" y2="935.6484"/><line style="stroke:#181818;stroke-width:0.5;stroke-dasharray:5.0,5.0;" x1="644.5" x2="644.5" y1="118.5938" y2="935.6484"/><line style="stroke:#181818;stroke-width:0.5;stroke-dasharray:5.0,5.0;" x1="824.5" x2="824.5" y1="118.5938" y2="935.6484"/><text fill="#000000" font-family="sans-serif" font-size="14" lengthAdjust="spacing" textLength="42" x="5" y="115.292">ユーザ</text><ellipse cx="29" cy="50.7969" fill="#E2E2F0" rx="8" ry="8" style="stroke:#181818;stroke-width:0.5;"/><path d="M29,58.7969 L29,85.7969 M16,66.7969 L42,66.7969 M29,85.7969 L16,100.7969 M29,85.7969 L42,100.7969 " fill="none" style="stroke:#181818;stroke-width:0.5;"/><text fill="#000000" font-family="sans-serif" font-size="14" lengthAdjust="spacing" textLength="42" x="5" y="947.6436">ユーザ</text><ellipse cx="29" cy="959.4453" fill="#E2E2F0" rx="8" ry="8" style="stroke:#181818;stroke-width:0.5;"/><path d="M29,967.4453 L29,994.4453 M16,975.4453 L42,975.4453 M29,994.4453 L16,1009.4453 M29,994.4453 L42,1009.4453 " fill="none" style="stroke:#181818;stroke-width:0.5;"/><rect fill="#E2E2F0" height="46.5938" rx="2.5" ry="2.5" style="stroke:#181818;stroke-width:0.5;" width="127" x="132.5" y="71"/><text fill="#000000" font-family="sans-serif" font-size="14" lengthAdjust="spacing" textLength="112" x="140" y="90.9951">クライアント端末</text><text fill="#000000" font-family="sans-serif" font-size="14" lengthAdjust="spacing" textLength="113" x="139.5" y="107.292">(PCまたはスマホ)</text><rect fill="#E2E2F0" height="46.5938" rx="2.5" ry="2.5" style="stroke:#181818;stroke-width:0.5;" width="127" x="132.5" y="934.6484"/><text fill="#000000" font-family="sans-serif" font-size="14" lengthAdjust="spacing" textLength="112" x="140" y="954.6436">クライアント端末</text><text fill="#000000" font-family="sans-serif" font-size="14" lengthAdjust="spacing" textLength="113" x="139.5" y="970.9404">(PCまたはスマホ)</text><rect fill="#E2E2F0" height="46.5938" rx="2.5" ry="2.5" style="stroke:#181818;stroke-width:0.5;" width="151" x="273.5" y="71"/><text fill="#000000" font-family="sans-serif" font-size="14" lengthAdjust="spacing" textLength="99" x="299.5" y="90.9951">SonicHost API</text><text fill="#000000" font-family="sans-serif" font-size="14" lengthAdjust="spacing" textLength="137" x="280.5" y="107.292">(CDN/API-Gateway)</text><rect fill="#E2E2F0" height="46.5938" rx="2.5" ry="2.5" style="stroke:#181818;stroke-width:0.5;" width="151" x="273.5" y="934.6484"/><text fill="#000000" font-family="sans-serif" font-size="14" lengthAdjust="spacing" textLength="99" x="299.5" y="954.6436">SonicHost API</text><text fill="#000000" font-family="sans-serif" font-size="14" lengthAdjust="spacing" textLength="137" x="280.5" y="970.9404">(CDN/API-Gateway)</text><rect fill="#E2E2F0" height="46.5938" rx="2.5" ry="2.5" style="stroke:#181818;stroke-width:0.5;" width="154" x="434.5" y="71"/><text fill="#000000" font-family="sans-serif" font-size="14" lengthAdjust="spacing" textLength="140" x="441.5" y="90.9951">お知らせ管理テーブル</text><text fill="#000000" font-family="sans-serif" font-size="14" lengthAdjust="spacing" textLength="69" x="477" y="107.292">(Dynamo)</text><rect fill="#E2E2F0" height="46.5938" rx="2.5" ry="2.5" style="stroke:#181818;stroke-width:0.5;" width="154" x="434.5" y="934.6484"/><text fill="#000000" font-family="sans-serif" font-size="14" lengthAdjust="spacing" textLength="140" x="441.5" y="954.6436">お知らせ管理テーブル</text><text fill="#000000" font-family="sans-serif" font-size="14" lengthAdjust="spacing" textLength="69" x="477" y="970.9404">(Dynamo)</text><rect fill="#E2E2F0" height="30.2969" rx="2.5" ry="2.5" style="stroke:#181818;stroke-width:0.5;" width="70" x="609.5" y="87.2969"/><text fill="#000000" font-family="sans-serif" font-size="14" lengthAdjust="spacing" textLength="56" x="616.5" y="107.292">管理画面</text><rect fill="#E2E2F0" height="30.2969" rx="2.5" ry="2.5" style="stroke:#181818;stroke-width:0.5;" width="70" x="609.5" y="934.6484"/><text fill="#000000" font-family="sans-serif" font-size="14" lengthAdjust="spacing" textLength="56" x="616.5" y="954.6436">管理画面</text><text fill="#000000" font-family="sans-serif" font-size="14" lengthAdjust="spacing" textLength="42" x="800.5" y="115.292">管理者</text><ellipse cx="824.5" cy="50.7969" fill="#E2E2F0" rx="8" ry="8" style="stroke:#181818;stroke-width:0.5;"/><path d="M824.5,58.7969 L824.5,85.7969 M811.5,66.7969 L837.5,66.7969 M824.5,85.7969 L811.5,100.7969 M824.5,85.7969 L837.5,100.7969 " fill="none" style="stroke:#181818;stroke-width:0.5;"/><text fill="#000000" font-family="sans-serif" font-size="14" lengthAdjust="spacing" textLength="42" x="800.5" y="947.6436">管理者</text><ellipse cx="824.5" cy="959.4453" fill="#E2E2F0" rx="8" ry="8" style="stroke:#181818;stroke-width:0.5;"/><path d="M824.5,967.4453 L824.5,994.4453 M811.5,975.4453 L837.5,975.4453 M824.5,994.4453 L811.5,1009.4453 M824.5,994.4453 L837.5,1009.4453 " fill="none" style="stroke:#181818;stroke-width:0.5;"/><rect fill="#FFFFFF" height="403.4609" style="stroke:#181818;stroke-width:1.0;" width="10" x="191" y="523.1875"/><rect fill="#FFFFFF" height="57.1328" style="stroke:#181818;stroke-width:1.0;" width="10" x="344" y="656.7188"/><rect fill="#FFFFFF" height="57.1328" style="stroke:#181818;stroke-width:1.0;" width="10" x="344" y="853.5156"/><rect fill="#FFFFFF" height="14" style="stroke:#181818;stroke-width:1.0;" width="10" x="506.5" y="480.0547"/><rect fill="#FFFFFF" height="14" style="stroke:#181818;stroke-width:1.0;" width="10" x="506.5" y="685.8516"/><rect fill="#FFFFFF" height="14" style="stroke:#181818;stroke-width:1.0;" width="10" x="506.5" y="882.6484"/><rect fill="#FFFFFF" height="776.9219" style="stroke:#181818;stroke-width:1.0;" width="10" x="639.5" y="149.7266"/><polygon fill="#181818" points="660.5,145.7266,650.5,149.7266,660.5,153.7266,656.5,149.7266" style="stroke:#181818;stroke-width:1.0;"/><line style="stroke:#181818;stroke-width:1.0;" x1="654.5" x2="823.5" y1="149.7266" y2="149.7266"/><text fill="#000000" font-family="sans-serif" font-size="13" lengthAdjust="spacing" textLength="78" x="666.5" y="144.6606">管理画面表示</text><polygon fill="#181818" points="660.5,174.8594,650.5,178.8594,660.5,182.8594,656.5,178.8594" style="stroke:#181818;stroke-width:1.0;"/><line style="stroke:#181818;stroke-width:1.0;" x1="654.5" x2="823.5" y1="178.8594" y2="178.8594"/><text fill="#000000" font-family="sans-serif" font-size="13" lengthAdjust="spacing" textLength="52" x="666.5" y="173.7935">ログイン</text><polygon fill="#181818" points="660.5,203.9922,650.5,207.9922,660.5,211.9922,656.5,207.9922" style="stroke:#181818;stroke-width:1.0;"/><line style="stroke:#181818;stroke-width:1.0;" x1="654.5" x2="823.5" y1="207.9922" y2="207.9922"/><text fill="#000000" font-family="sans-serif" font-size="13" lengthAdjust="spacing" textLength="104" x="666.5" y="202.9263">お知らせ管理選択</text><line style="stroke:#181818;stroke-width:1.0;" x1="649.5" x2="691.5" y1="237.125" y2="237.125"/><line style="stroke:#181818;stroke-width:1.0;" x1="691.5" x2="691.5" y1="237.125" y2="250.125"/><line style="stroke:#181818;stroke-width:1.0;" x1="650.5" x2="691.5" y1="250.125" y2="250.125"/><polygon fill="#181818" points="660.5,246.125,650.5,250.125,660.5,254.125,656.5,250.125" style="stroke:#181818;stroke-width:1.0;"/><text fill="#000000" font-family="sans-serif" font-size="13" lengthAdjust="spacing" textLength="104" x="656.5" y="232.0591">お知らせ管理表示</text><polygon fill="#181818" points="660.5,275.2578,650.5,279.2578,660.5,283.2578,656.5,279.2578" style="stroke:#181818;stroke-width:1.0;"/><line style="stroke:#181818;stroke-width:1.0;" x1="654.5" x2="823.5" y1="279.2578" y2="279.2578"/><text fill="#000000" font-family="sans-serif" font-size="13" lengthAdjust="spacing" textLength="104" x="666.5" y="274.1919">お知らせ追加押下</text><line style="stroke:#181818;stroke-width:1.0;" x1="649.5" x2="691.5" y1="308.3906" y2="308.3906"/><line style="stroke:#181818;stroke-width:1.0;" x1="691.5" x2="691.5" y1="308.3906" y2="321.3906"/><line style="stroke:#181818;stroke-width:1.0;" x1="650.5" x2="691.5" y1="321.3906" y2="321.3906"/><polygon fill="#181818" points="660.5,317.3906,650.5,321.3906,660.5,325.3906,656.5,321.3906" style="stroke:#181818;stroke-width:1.0;"/><text fill="#000000" font-family="sans-serif" font-size="13" lengthAdjust="spacing" textLength="130" x="656.5" y="303.3247">お知らせ追加画面表示</text><polygon fill="#181818" points="660.5,346.5234,650.5,350.5234,660.5,354.5234,656.5,350.5234" style="stroke:#181818;stroke-width:1.0;"/><line style="stroke:#181818;stroke-width:1.0;" x1="654.5" x2="823.5" y1="350.5234" y2="350.5234"/><text fill="#000000" font-family="sans-serif" font-size="13" lengthAdjust="spacing" textLength="104" x="666.5" y="345.4575">お知らせ情報入力</text><polygon fill="#181818" points="660.5,375.6563,650.5,379.6563,660.5,383.6563,656.5,379.6563" style="stroke:#181818;stroke-width:1.0;"/><line style="stroke:#181818;stroke-width:1.0;" x1="654.5" x2="823.5" y1="379.6563" y2="379.6563"/><text fill="#000000" font-family="sans-serif" font-size="13" lengthAdjust="spacing" textLength="52" x="666.5" y="374.5903">確認押下</text><line style="stroke:#181818;stroke-width:1.0;" x1="649.5" x2="691.5" y1="408.7891" y2="408.7891"/><line style="stroke:#181818;stroke-width:1.0;" x1="691.5" x2="691.5" y1="408.7891" y2="421.7891"/><line style="stroke:#181818;stroke-width:1.0;" x1="650.5" x2="691.5" y1="421.7891" y2="421.7891"/><polygon fill="#181818" points="660.5,417.7891,650.5,421.7891,660.5,425.7891,656.5,421.7891" style="stroke:#181818;stroke-width:1.0;"/><text fill="#000000" font-family="sans-serif" font-size="13" lengthAdjust="spacing" textLength="156" x="656.5" y="403.7231">お知らせ追加確認画面表示</text><polygon fill="#181818" points="660.5,446.9219,650.5,450.9219,660.5,454.9219,656.5,450.9219" style="stroke:#181818;stroke-width:1.0;"/><line style="stroke:#181818;stroke-width:1.0;" x1="654.5" x2="823.5" y1="450.9219" y2="450.9219"/><text fill="#000000" font-family="sans-serif" font-size="13" lengthAdjust="spacing" textLength="78" x="666.5" y="445.856">確認完了押下</text><polygon fill="#181818" points="527.5,476.0547,517.5,480.0547,527.5,484.0547,523.5,480.0547" style="stroke:#181818;stroke-width:1.0;"/><line style="stroke:#181818;stroke-width:1.0;" x1="521.5" x2="638.5" y1="480.0547" y2="480.0547"/><text fill="#000000" font-family="sans-serif" font-size="13" lengthAdjust="spacing" textLength="104" x="533.5" y="474.9888">お知らせ情報追加</text><polygon fill="#181818" points="627.5,490.0547,637.5,494.0547,627.5,498.0547,631.5,494.0547" style="stroke:#181818;stroke-width:1.0;"/><line style="stroke:#181818;stroke-width:1.0;stroke-dasharray:2.0,2.0;" x1="511.5" x2="633.5" y1="494.0547" y2="494.0547"/><polygon fill="#181818" points="179,519.1875,189,523.1875,179,527.1875,183,523.1875" style="stroke:#181818;stroke-width:1.0;"/><line style="stroke:#181818;stroke-width:1.0;" x1="29" x2="185" y1="523.1875" y2="523.1875"/><text fill="#000000" font-family="sans-serif" font-size="13" lengthAdjust="spacing" textLength="143" x="36" y="518.1216">コンテンツ更新画面表示</text><rect fill="#ADFF2F" height="23" style="stroke:#181818;stroke-width:0.5;" width="138" x="206" y="536.1875"/><text fill="#000000" font-family="sans-serif" font-size="13" lengthAdjust="spacing" textLength="130" x="210" y="552.2544">ログインフローを参照</text><polygon fill="#181818" points="179,581.4531,189,585.4531,179,589.4531,183,585.4531" style="stroke:#181818;stroke-width:1.0;"/><line style="stroke:#181818;stroke-width:1.0;" x1="29" x2="185" y1="585.4531" y2="585.4531"/><text fill="#000000" font-family="sans-serif" font-size="13" lengthAdjust="spacing" textLength="130" x="36" y="580.3872">お知らせアイコン押下</text><line style="stroke:#181818;stroke-width:1.0;" x1="201" x2="243" y1="614.5859" y2="614.5859"/><line style="stroke:#181818;stroke-width:1.0;" x1="243" x2="243" y1="614.5859" y2="627.5859"/><line style="stroke:#181818;stroke-width:1.0;" x1="202" x2="243" y1="627.5859" y2="627.5859"/><polygon fill="#181818" points="212,623.5859,202,627.5859,212,631.5859,208,627.5859" style="stroke:#181818;stroke-width:1.0;"/><text fill="#000000" font-family="sans-serif" font-size="13" lengthAdjust="spacing" textLength="104" x="208" y="609.52">お知らせ一覧表示</text><polygon fill="#181818" points="332,652.7188,342,656.7188,332,660.7188,336,656.7188" style="stroke:#181818;stroke-width:1.0;"/><line style="stroke:#181818;stroke-width:1.0;" x1="201" x2="338" y1="656.7188" y2="656.7188"/><text fill="#000000" font-family="sans-serif" font-size="13" lengthAdjust="spacing" textLength="124" x="208" y="651.6528">お知らせ一覧取得API</text><polygon fill="#181818" points="494.5,681.8516,504.5,685.8516,494.5,689.8516,498.5,685.8516" style="stroke:#181818;stroke-width:1.0;"/><line style="stroke:#181818;stroke-width:1.0;" x1="354" x2="500.5" y1="685.8516" y2="685.8516"/><text fill="#000000" font-family="sans-serif" font-size="13" lengthAdjust="spacing" textLength="104" x="361" y="680.7856">お知らせ一覧取得</text><polygon fill="#181818" points="365,695.8516,355,699.8516,365,703.8516,361,699.8516" style="stroke:#181818;stroke-width:1.0;"/><line style="stroke:#181818;stroke-width:1.0;stroke-dasharray:2.0,2.0;" x1="359" x2="510.5" y1="699.8516" y2="699.8516"/><polygon fill="#181818" points="212,709.8516,202,713.8516,212,717.8516,208,713.8516" style="stroke:#181818;stroke-width:1.0;"/><line style="stroke:#181818;stroke-width:1.0;stroke-dasharray:2.0,2.0;" x1="206" x2="348" y1="713.8516" y2="713.8516"/><polygon fill="#181818" points="179,738.9844,189,742.9844,179,746.9844,183,742.9844" style="stroke:#181818;stroke-width:1.0;"/><line style="stroke:#181818;stroke-width:1.0;" x1="29" x2="185" y1="742.9844" y2="742.9844"/><text fill="#000000" font-family="sans-serif" font-size="13" lengthAdjust="spacing" textLength="78" x="36" y="737.9185">お知らせ押下</text><line style="stroke:#181818;stroke-width:1.0;" x1="201" x2="243" y1="787.25" y2="787.25"/><line style="stroke:#181818;stroke-width:1.0;" x1="243" x2="243" y1="787.25" y2="800.25"/><line style="stroke:#181818;stroke-width:1.0;" x1="202" x2="243" y1="800.25" y2="800.25"/><polygon fill="#181818" points="212,796.25,202,800.25,212,804.25,208,800.25" style="stroke:#181818;stroke-width:1.0;"/><text fill="#000000" font-family="sans-serif" font-size="13" lengthAdjust="spacing" textLength="104" x="208" y="767.0513">お知らせ内容表示</text><text fill="#000000" font-family="sans-serif" font-size="13" lengthAdjust="spacing" textLength="127" x="208" y="782.1841">(アコーディオン表示)</text><path d="M122.5,815.25 L188.5,815.25 L188.5,822.3828 L178.5,832.3828 L122.5,832.3828 L122.5,815.25 " fill="#EEEEEE" style="stroke:#000000;stroke-width:1.5;"/><rect fill="none" height="103.3984" style="stroke:#000000;stroke-width:1.5;" width="476" x="122.5" y="815.25"/><text fill="#000000" font-family="sans-serif" font-size="13" font-weight="bold" lengthAdjust="spacing" textLength="21" x="137.5" y="828.3169">alt</text><text fill="#000000" font-family="sans-serif" font-size="11" font-weight="bold" lengthAdjust="spacing" textLength="164" x="203.5" y="827.4604">[ユーザが未読のお知らせの場合]</text><polygon fill="#181818" points="332,849.5156,342,853.5156,332,857.5156,336,853.5156" style="stroke:#181818;stroke-width:1.0;"/><line style="stroke:#181818;stroke-width:1.0;" x1="201" x2="338" y1="853.5156" y2="853.5156"/><text fill="#000000" font-family="sans-serif" font-size="13" lengthAdjust="spacing" textLength="98" x="208" y="848.4497">お知らせ既読API</text><polygon fill="#181818" points="494.5,878.6484,504.5,882.6484,494.5,886.6484,498.5,882.6484" style="stroke:#181818;stroke-width:1.0;"/><line style="stroke:#181818;stroke-width:1.0;" x1="354" x2="500.5" y1="882.6484" y2="882.6484"/><text fill="#000000" font-family="sans-serif" font-size="13" lengthAdjust="spacing" textLength="130" x="361" y="877.5825">お知らせを既読に変更</text><polygon fill="#181818" points="365,892.6484,355,896.6484,365,900.6484,361,896.6484" style="stroke:#181818;stroke-width:1.0;"/><line style="stroke:#181818;stroke-width:1.0;stroke-dasharray:2.0,2.0;" x1="359" x2="510.5" y1="896.6484" y2="896.6484"/><polygon fill="#181818" points="212,906.6484,202,910.6484,212,914.6484,208,910.6484" style="stroke:#181818;stroke-width:1.0;"/><line style="stroke:#181818;stroke-width:1.0;stroke-dasharray:2.0,2.0;" x1="206" x2="348" y1="910.6484" y2="910.6484"/><!--SRC=[bLHHJzDG57w_l-867vIGndTYJ0Waw8iXCJwO-D9iLPkCjkcAX3VQwoPC3CJ8I1p2c0Da2mKpOiR4yMFERbl-XVVsTblB79jzQ6vxl-yxvtptd6kfLaR1O1Vy_KDmri4kqSqYRUyWT1-3Km7d39nh85VK_UgtJv2SidGJJm0vOl_0-JM1vInUoYecCcJJKbEg8MiMssSqSW9EbKkG1f0rltxcxTPVQGyMPi5kWxqFDbE-1B87f3GPogILTsfAIGezrpKrzKJFMdXcuIbZpyuzUyXMqhniASloYY3AXefknO_Luxi7_bOUI9vdJ8f0U1PpAvgyg4TnmtLIG93yBxzllbL4ZFIYgiqOHjS10GXMS_tT5zm6X7fhB3tkqV3K59x6STNWu8TVRGr1JsCWf-2SSmT9OpXeeCmRk-aLzb0FCme_AeiO8RZ-Gmjbht3LQNuS9u30ZrTiZEQH72t_fBb3MYWD9VYLLb3xzD-vXAonCX9GwcvqMlb_X14j8mvrC7aHhKzu94bTXYIn3bcAuec6PofCn6c4Sv8Ft- -zqeLNF4zaQcgwfM1JVVFMmlhhBlVUlAaesaibaz6N4MPFl6-0RFDFFgYVwQRZvuwHegKn5xgTGxACSF2h8gUe-WWtZD5fhWP7nr6gVIoRp46J15PSCsoM4GVTuMaS7cAJTaR1-CzGIBgxjF7AeVaSTIz5EUos2FreXFV71t2-WrDZneZTIIHdBDox3y7Uy7PhGUqKR3VXgEtIyWNTMWiFQOH1taw5AN1hE7Y4FUni1HxiEgskiyxfiP96nGB7p68DyHS0]--></g></svg>