<?xml version="1.0" encoding="us-ascii" standalone="no"?><svg xmlns="http://www.w3.org/2000/svg" xmlns:xlink="http://www.w3.org/1999/xlink" contentStyleType="text/css" height="1991px" preserveAspectRatio="none" style="width:1290px;height:1991px;background:#FFFFFF;" version="1.1" viewBox="0 0 1290 1991" width="1290px" zoomAndPan="magnify"><defs/><g><text fill="#000000" font-family="sans-serif" font-size="14" font-weight="bold" lengthAdjust="spacing" textLength="60" x="616.5" y="27.9951">&#12525;&#12464;&#12452;&#12531;</text><rect fill="#FFFFFF" height="1752.0469" style="stroke:#181818;stroke-width:1.0;" width="10" x="299" y="149.7266"/><rect fill="#FFFFFF" height="29.1328" style="stroke:#181818;stroke-width:1.0;" width="10" x="700" y="292.125"/><rect fill="#FFFFFF" height="29.1328" style="stroke:#181818;stroke-width:1.0;" width="10" x="700" y="674.6563"/><rect fill="#FFFFFF" height="72.2656" style="stroke:#181818;stroke-width:1.0;" width="10" x="700" y="777.1875"/><rect fill="#FFFFFF" height="14" style="stroke:#181818;stroke-width:1.0;" width="10" x="705" y="806.3203"/><rect fill="#FFFFFF" height="57.1328" style="stroke:#181818;stroke-width:1.0;" width="10" x="802" y="163.7266"/><rect fill="#FFFFFF" height="14" style="stroke:#181818;stroke-width:1.0;" width="10" x="921" y="1021.3828"/><rect fill="#FFFFFF" height="14" style="stroke:#181818;stroke-width:1.0;" width="10" x="921" y="1267.1172"/><rect fill="#FFFFFF" height="161.6641" style="stroke:#181818;stroke-width:1.0;" width="10" x="921" y="1325.3828"/><rect fill="#FFFFFF" height="42" style="stroke:#181818;stroke-width:1.0;" width="10" x="921" y="1669.9766"/><rect fill="#FFFFFF" height="14" style="stroke:#181818;stroke-width:1.0;" width="10" x="921" y="1829.6406"/><rect fill="#FFFFFF" height="14" style="stroke:#181818;stroke-width:1.0;" width="10" x="1070" y="192.8594"/><rect fill="#FFFFFF" height="14" style="stroke:#181818;stroke-width:1.0;" width="10" x="1199" y="1683.9766"/><rect fill="none" height="521.1953" style="stroke:#000000;stroke-width:1.5;" width="745.5" x="10" y="378.3906"/><rect fill="none" height="186.7344" style="stroke:#000000;stroke-width:1.5;" width="520" x="20" y="444.6563"/><rect fill="none" height="131.3359" style="stroke:#000000;stroke-width:1.5;" width="537" x="230.5" y="1092.5156"/><rect fill="none" height="349.5938" style="stroke:#000000;stroke-width:1.5;" width="1264" x="20" y="1544.1797"/><line style="stroke:#181818;stroke-width:0.5;stroke-dasharray:5.0,5.0;" x1="54" x2="54" y1="118.5938" y2="1910.7734"/><line style="stroke:#181818;stroke-width:0.5;stroke-dasharray:5.0,5.0;" x1="303.5" x2="303.5" y1="118.5938" y2="1910.7734"/><line style="stroke:#181818;stroke-width:0.5;stroke-dasharray:5.0,5.0;" x1="704.5" x2="704.5" y1="118.5938" y2="1910.7734"/><line style="stroke:#181818;stroke-width:0.5;stroke-dasharray:5.0,5.0;" x1="806.5" x2="806.5" y1="118.5938" y2="1910.7734"/><line style="stroke:#181818;stroke-width:0.5;stroke-dasharray:5.0,5.0;" x1="925.5" x2="925.5" y1="118.5938" y2="1910.7734"/><line style="stroke:#181818;stroke-width:0.5;stroke-dasharray:5.0,5.0;" x1="1075" x2="1075" y1="118.5938" y2="1910.7734"/><line style="stroke:#181818;stroke-width:0.5;stroke-dasharray:5.0,5.0;" x1="1204" x2="1204" y1="118.5938" y2="1910.7734"/><text fill="#000000" font-family="sans-serif" font-size="14" lengthAdjust="spacing" textLength="42" x="30" y="115.292">&#12518;&#12540;&#12470;</text><ellipse cx="54" cy="50.7969" fill="#E2E2F0" rx="8" ry="8" style="stroke:#181818;stroke-width:0.5;"/><path d="M54,58.7969 L54,85.7969 M41,66.7969 L67,66.7969 M54,85.7969 L41,100.7969 M54,85.7969 L67,100.7969 " fill="none" style="stroke:#181818;stroke-width:0.5;"/><text fill="#000000" font-family="sans-serif" font-size="14" lengthAdjust="spacing" textLength="42" x="30" y="1922.7686">&#12518;&#12540;&#12470;</text><ellipse cx="54" cy="1934.5703" fill="#E2E2F0" rx="8" ry="8" style="stroke:#181818;stroke-width:0.5;"/><path d="M54,1942.5703 L54,1969.5703 M41,1950.5703 L67,1950.5703 M54,1969.5703 L41,1984.5703 M54,1969.5703 L67,1984.5703 " fill="none" style="stroke:#181818;stroke-width:0.5;"/><rect fill="#E2E2F0" height="46.5938" rx="2.5" ry="2.5" style="stroke:#181818;stroke-width:0.5;" width="127" x="240.5" y="71"/><text fill="#000000" font-family="sans-serif" font-size="14" lengthAdjust="spacing" textLength="112" x="248" y="90.9951">&#12463;&#12521;&#12452;&#12450;&#12531;&#12488;&#31471;&#26411;</text><text fill="#000000" font-family="sans-serif" font-size="14" lengthAdjust="spacing" textLength="113" x="247.5" y="107.292">(PC&#12414;&#12383;&#12399;&#12473;&#12510;&#12507;)</text><rect fill="#E2E2F0" height="46.5938" rx="2.5" ry="2.5" style="stroke:#181818;stroke-width:0.5;" width="127" x="240.5" y="1909.7734"/><text fill="#000000" font-family="sans-serif" font-size="14" lengthAdjust="spacing" textLength="112" x="248" y="1929.7686">&#12463;&#12521;&#12452;&#12450;&#12531;&#12488;&#31471;&#26411;</text><text fill="#000000" font-family="sans-serif" font-size="14" lengthAdjust="spacing" textLength="113" x="247.5" y="1946.0654">(PC&#12414;&#12383;&#12399;&#12473;&#12510;&#12507;)</text><rect fill="#E2E2F0" height="46.5938" rx="2.5" ry="2.5" style="stroke:#181818;stroke-width:0.5;" width="81" x="664.5" y="71"/><text fill="#000000" font-family="sans-serif" font-size="14" lengthAdjust="spacing" textLength="56" x="677" y="90.9951">&#35469;&#35388;&#22522;&#30436;</text><text fill="#000000" font-family="sans-serif" font-size="14" lengthAdjust="spacing" textLength="67" x="671.5" y="107.292">(Cognito)</text><rect fill="#E2E2F0" height="46.5938" rx="2.5" ry="2.5" style="stroke:#181818;stroke-width:0.5;" width="81" x="664.5" y="1909.7734"/><text fill="#000000" font-family="sans-serif" font-size="14" lengthAdjust="spacing" textLength="56" x="677" y="1929.7686">&#35469;&#35388;&#22522;&#30436;</text><text fill="#000000" font-family="sans-serif" font-size="14" lengthAdjust="spacing" textLength="67" x="671.5" y="1946.0654">(Cognito)</text><rect fill="#E2E2F0" height="46.5938" rx="2.5" ry="2.5" style="stroke:#181818;stroke-width:0.5;" width="103" x="755.5" y="71"/><text fill="#000000" font-family="sans-serif" font-size="14" lengthAdjust="spacing" textLength="31" x="791.5" y="90.9951">CDN</text><text fill="#000000" font-family="sans-serif" font-size="14" lengthAdjust="spacing" textLength="89" x="762.5" y="107.292">(CloudFront)</text><rect fill="#E2E2F0" height="46.5938" rx="2.5" ry="2.5" style="stroke:#181818;stroke-width:0.5;" width="103" x="755.5" y="1909.7734"/><text fill="#000000" font-family="sans-serif" font-size="14" lengthAdjust="spacing" textLength="31" x="791.5" y="1929.7686">CDN</text><text fill="#000000" font-family="sans-serif" font-size="14" lengthAdjust="spacing" textLength="89" x="762.5" y="1946.0654">(CloudFront)</text><rect fill="#E2E2F0" height="46.5938" rx="2.5" ry="2.5" style="stroke:#181818;stroke-width:0.5;" width="115" x="868.5" y="71"/><text fill="#000000" font-family="sans-serif" font-size="14" lengthAdjust="spacing" textLength="99" x="876.5" y="90.9951">SonicHost API</text><text fill="#000000" font-family="sans-serif" font-size="14" lengthAdjust="spacing" textLength="101" x="875.5" y="107.292">(API-Gateway)</text><rect fill="#E2E2F0" height="46.5938" rx="2.5" ry="2.5" style="stroke:#181818;stroke-width:0.5;" width="115" x="868.5" y="1909.7734"/><text fill="#000000" font-family="sans-serif" font-size="14" lengthAdjust="spacing" textLength="99" x="876.5" y="1929.7686">SonicHost API</text><text fill="#000000" font-family="sans-serif" font-size="14" lengthAdjust="spacing" textLength="101" x="875.5" y="1946.0654">(API-Gateway)</text><rect fill="#E2E2F0" height="46.5938" rx="2.5" ry="2.5" style="stroke:#181818;stroke-width:0.5;" width="98" x="1026" y="71"/><text fill="#000000" font-family="sans-serif" font-size="14" lengthAdjust="spacing" textLength="84" x="1033" y="90.9951">SPA&#36039;&#26448;&#26684;&#32013;</text><text fill="#000000" font-family="sans-serif" font-size="14" lengthAdjust="spacing" textLength="28" x="1061" y="107.292">(S3)</text><rect fill="#E2E2F0" height="46.5938" rx="2.5" ry="2.5" style="stroke:#181818;stroke-width:0.5;" width="98" x="1026" y="1909.7734"/><text fill="#000000" font-family="sans-serif" font-size="14" lengthAdjust="spacing" textLength="84" x="1033" y="1929.7686">SPA&#36039;&#26448;&#26684;&#32013;</text><text fill="#000000" font-family="sans-serif" font-size="14" lengthAdjust="spacing" textLength="28" x="1061" y="1946.0654">(S3)</text><rect fill="#E2E2F0" height="46.5938" rx="2.5" ry="2.5" style="stroke:#181818;stroke-width:0.5;" width="140" x="1134" y="71"/><text fill="#000000" font-family="sans-serif" font-size="14" lengthAdjust="spacing" textLength="126" x="1141" y="90.9951">&#38745;&#30340;&#12467;&#12531;&#12486;&#12531;&#12484;&#26684;&#32013;</text><text fill="#000000" font-family="sans-serif" font-size="14" lengthAdjust="spacing" textLength="28" x="1190" y="107.292">(S3)</text><rect fill="#E2E2F0" height="46.5938" rx="2.5" ry="2.5" style="stroke:#181818;stroke-width:0.5;" width="140" x="1134" y="1909.7734"/><text fill="#000000" font-family="sans-serif" font-size="14" lengthAdjust="spacing" textLength="126" x="1141" y="1929.7686">&#38745;&#30340;&#12467;&#12531;&#12486;&#12531;&#12484;&#26684;&#32013;</text><text fill="#000000" font-family="sans-serif" font-size="14" lengthAdjust="spacing" textLength="28" x="1190" y="1946.0654">(S3)</text><rect fill="#FFFFFF" height="1752.0469" style="stroke:#181818;stroke-width:1.0;" width="10" x="299" y="149.7266"/><rect fill="#FFFFFF" height="29.1328" style="stroke:#181818;stroke-width:1.0;" width="10" x="700" y="292.125"/><rect fill="#FFFFFF" height="29.1328" style="stroke:#181818;stroke-width:1.0;" width="10" x="700" y="674.6563"/><rect fill="#FFFFFF" height="72.2656" style="stroke:#181818;stroke-width:1.0;" width="10" x="700" y="777.1875"/><rect fill="#FFFFFF" height="14" style="stroke:#181818;stroke-width:1.0;" width="10" x="705" y="806.3203"/><rect fill="#FFFFFF" height="57.1328" style="stroke:#181818;stroke-width:1.0;" width="10" x="802" y="163.7266"/><rect fill="#FFFFFF" height="14" style="stroke:#181818;stroke-width:1.0;" width="10" x="921" y="1021.3828"/><rect fill="#FFFFFF" height="14" style="stroke:#181818;stroke-width:1.0;" width="10" x="921" y="1267.1172"/><rect fill="#FFFFFF" height="161.6641" style="stroke:#181818;stroke-width:1.0;" width="10" x="921" y="1325.3828"/><rect fill="#FFFFFF" height="42" style="stroke:#181818;stroke-width:1.0;" width="10" x="921" y="1669.9766"/><rect fill="#FFFFFF" height="14" style="stroke:#181818;stroke-width:1.0;" width="10" x="921" y="1829.6406"/><rect fill="#FFFFFF" height="14" style="stroke:#181818;stroke-width:1.0;" width="10" x="1070" y="192.8594"/><rect fill="#FFFFFF" height="14" style="stroke:#181818;stroke-width:1.0;" width="10" x="1199" y="1683.9766"/><polygon fill="#181818" points="287,145.7266,297,149.7266,287,153.7266,291,149.7266" style="stroke:#181818;stroke-width:1.0;"/><line style="stroke:#181818;stroke-width:1.0;" x1="54" x2="293" y1="149.7266" y2="149.7266"/><text fill="#000000" font-family="sans-serif" font-size="13" lengthAdjust="spacing" textLength="78" x="61" y="144.6606">&#31649;&#29702;&#30011;&#38754;&#36215;&#21205;</text><polygon fill="#181818" points="790,159.7266,800,163.7266,790,167.7266,794,163.7266" style="stroke:#181818;stroke-width:1.0;"/><line style="stroke:#181818;stroke-width:1.0;" x1="309" x2="796" y1="163.7266" y2="163.7266"/><polygon fill="#181818" points="1058,188.8594,1068,192.8594,1058,196.8594,1062,192.8594" style="stroke:#181818;stroke-width:1.0;"/><line style="stroke:#181818;stroke-width:1.0;" x1="812" x2="1064" y1="192.8594" y2="192.8594"/><text fill="#000000" font-family="sans-serif" font-size="13" lengthAdjust="spacing" textLength="104" x="819" y="187.7935">&#12496;&#12531;&#12489;&#12523;&#36039;&#26448;&#35201;&#27714;</text><polygon fill="#181818" points="823,202.8594,813,206.8594,823,210.8594,819,206.8594" style="stroke:#181818;stroke-width:1.0;"/><line style="stroke:#181818;stroke-width:1.0;stroke-dasharray:2.0,2.0;" x1="817" x2="1074" y1="206.8594" y2="206.8594"/><polygon fill="#181818" points="320,216.8594,310,220.8594,320,224.8594,316,220.8594" style="stroke:#181818;stroke-width:1.0;"/><line style="stroke:#181818;stroke-width:1.0;" x1="314" x2="806" y1="220.8594" y2="220.8594"/><line style="stroke:#181818;stroke-width:1.0;" x1="309" x2="351" y1="249.9922" y2="249.9922"/><line style="stroke:#181818;stroke-width:1.0;" x1="351" x2="351" y1="249.9922" y2="262.9922"/><line style="stroke:#181818;stroke-width:1.0;" x1="310" x2="351" y1="262.9922" y2="262.9922"/><polygon fill="#181818" points="320,258.9922,310,262.9922,320,266.9922,316,262.9922" style="stroke:#181818;stroke-width:1.0;"/><text fill="#000000" font-family="sans-serif" font-size="13" lengthAdjust="spacing" textLength="130" x="316" y="244.9263">&#12496;&#12531;&#12489;&#12523;&#36039;&#26448;&#35501;&#12415;&#36796;&#12415;</text><polygon fill="#181818" points="688,288.125,698,292.125,688,296.125,692,292.125" style="stroke:#181818;stroke-width:1.0;"/><line style="stroke:#181818;stroke-width:1.0;" x1="309" x2="694" y1="292.125" y2="292.125"/><text fill="#000000" font-family="sans-serif" font-size="13" lengthAdjust="spacing" textLength="169" x="316" y="287.0591">&#12522;&#12501;&#12524;&#12483;&#12471;&#12517;&#12488;&#12540;&#12463;&#12531;&#12501;&#12525;&#12540;</text><polygon fill="#181818" points="320,317.2578,310,321.2578,320,325.2578,316,321.2578" style="stroke:#181818;stroke-width:1.0;"/><line style="stroke:#181818;stroke-width:1.0;stroke-dasharray:2.0,2.0;" x1="314" x2="704" y1="321.2578" y2="321.2578"/><text fill="#000000" font-family="sans-serif" font-size="13" lengthAdjust="spacing" textLength="78" x="326" y="316.1919">&#12488;&#12540;&#12463;&#12531;&#24773;&#22577;</text><line style="stroke:#181818;stroke-width:1.0;" x1="309" x2="351" y1="350.3906" y2="350.3906"/><line style="stroke:#181818;stroke-width:1.0;" x1="351" x2="351" y1="350.3906" y2="363.3906"/><line style="stroke:#181818;stroke-width:1.0;" x1="310" x2="351" y1="363.3906" y2="363.3906"/><polygon fill="#181818" points="320,359.3906,310,363.3906,320,367.3906,316,363.3906" style="stroke:#181818;stroke-width:1.0;"/><text fill="#000000" font-family="sans-serif" font-size="13" lengthAdjust="spacing" textLength="104" x="316" y="345.3247">&#12488;&#12540;&#12463;&#12531;&#12481;&#12455;&#12483;&#12463;</text><path d="M10,378.3906 L76,378.3906 L76,385.5234 L66,395.5234 L10,395.5234 L10,378.3906 " fill="#EEEEEE" style="stroke:#000000;stroke-width:1.5;"/><rect fill="none" height="521.1953" style="stroke:#000000;stroke-width:1.5;" width="745.5" x="10" y="378.3906"/><text fill="#000000" font-family="sans-serif" font-size="13" font-weight="bold" lengthAdjust="spacing" textLength="21" x="25" y="391.4575">alt</text><text fill="#000000" font-family="sans-serif" font-size="11" font-weight="bold" lengthAdjust="spacing" textLength="231" x="91" y="390.6011">[&#12488;&#12540;&#12463;&#12531;&#21462;&#24471;&#22833;&#25943; or &#12488;&#12540;&#12463;&#12531;&#12481;&#12455;&#12483;&#12463;&#22833;&#25943;]</text><line style="stroke:#181818;stroke-width:1.0;" x1="309" x2="351" y1="416.6563" y2="416.6563"/><line style="stroke:#181818;stroke-width:1.0;" x1="351" x2="351" y1="416.6563" y2="429.6563"/><line style="stroke:#181818;stroke-width:1.0;" x1="310" x2="351" y1="429.6563" y2="429.6563"/><polygon fill="#181818" points="320,425.6563,310,429.6563,320,433.6563,316,429.6563" style="stroke:#181818;stroke-width:1.0;"/><text fill="#000000" font-family="sans-serif" font-size="13" lengthAdjust="spacing" textLength="104" x="316" y="411.5903">&#12525;&#12464;&#12452;&#12531;&#30011;&#38754;&#34920;&#31034;</text><path d="M20,444.6563 L86,444.6563 L86,451.7891 L76,461.7891 L20,461.7891 L20,444.6563 " fill="#EEEEEE" style="stroke:#000000;stroke-width:1.5;"/><rect fill="none" height="186.7344" style="stroke:#000000;stroke-width:1.5;" width="520" x="20" y="444.6563"/><text fill="#000000" font-family="sans-serif" font-size="13" font-weight="bold" lengthAdjust="spacing" textLength="21" x="35" y="457.7231">alt</text><text fill="#000000" font-family="sans-serif" font-size="11" font-weight="bold" lengthAdjust="spacing" textLength="120" x="101" y="456.8667">[&#12497;&#12473;&#12527;&#12540;&#12489;&#24536;&#12428;&#12383;&#22580;&#21512;]</text><polygon fill="#181818" points="287,494.0547,297,498.0547,287,502.0547,291,498.0547" style="stroke:#181818;stroke-width:1.0;"/><line style="stroke:#181818;stroke-width:1.0;" x1="54" x2="293" y1="498.0547" y2="498.0547"/><text fill="#000000" font-family="sans-serif" font-size="13" lengthAdjust="spacing" textLength="221" x="61" y="477.856">&#12300;&#12497;&#12473;&#12527;&#12540;&#12489;&#12434;&#24536;&#12428;&#12383;&#22580;&#21512;&#12399;&#12371;&#12385;&#12425;&#12301;</text><text fill="#000000" font-family="sans-serif" font-size="13" lengthAdjust="spacing" textLength="65" x="61" y="492.9888">&#12434;&#12463;&#12522;&#12483;&#12463;</text><rect fill="#ADFF2F" height="23" style="stroke:#181818;stroke-width:0.5;" width="216" x="314" y="511.0547"/><text fill="#000000" font-family="sans-serif" font-size="13" lengthAdjust="spacing" textLength="208" x="318" y="527.1216">&#12497;&#12473;&#12527;&#12540;&#12489;&#12522;&#12510;&#12452;&#12531;&#12480;&#12501;&#12525;&#12540;&#12434;&#21442;&#29031;</text><line style="stroke:#000000;stroke-width:1.0;stroke-dasharray:2.0,2.0;" x1="20" x2="540" y1="540.1875" y2="540.1875"/><text fill="#000000" font-family="sans-serif" font-size="11" font-weight="bold" lengthAdjust="spacing" textLength="109" x="25" y="550.3979">[&#26032;&#35215;&#20250;&#21729;&#30331;&#37682;&#12398;&#22580;&#21512;]</text><polygon fill="#181818" points="287,586.2578,297,590.2578,287,594.2578,291,590.2578" style="stroke:#181818;stroke-width:1.0;"/><line style="stroke:#181818;stroke-width:1.0;" x1="54" x2="293" y1="590.2578" y2="590.2578"/><text fill="#000000" font-family="sans-serif" font-size="13" lengthAdjust="spacing" textLength="130" x="61" y="570.0591">&#12300;&#20250;&#21729;&#30331;&#37682;&#12399;&#12371;&#12385;&#12425;&#12301;</text><text fill="#000000" font-family="sans-serif" font-size="13" lengthAdjust="spacing" textLength="65" x="61" y="585.1919">&#12434;&#12463;&#12522;&#12483;&#12463;</text><rect fill="#ADFF2F" height="23" style="stroke:#181818;stroke-width:0.5;" width="138" x="314" y="603.2578"/><text fill="#000000" font-family="sans-serif" font-size="13" lengthAdjust="spacing" textLength="130" x="318" y="619.3247">&#20250;&#21729;&#30331;&#37682;&#12501;&#12525;&#12540;&#12434;&#21442;&#29031;</text><polygon fill="#181818" points="688,670.6563,698,674.6563,688,678.6563,692,674.6563" style="stroke:#181818;stroke-width:1.0;"/><line style="stroke:#181818;stroke-width:1.0;" x1="309" x2="694" y1="674.6563" y2="674.6563"/><text fill="#000000" font-family="sans-serif" font-size="13" lengthAdjust="spacing" textLength="104" x="316" y="654.4575">&#12525;&#12464;&#12452;&#12531;&#30906;&#31435;&#35201;&#27714;</text><text fill="#000000" font-family="sans-serif" font-size="13" lengthAdjust="spacing" textLength="87" x="316" y="669.5903">(Initiate Auth)</text><polygon fill="#181818" points="320,699.7891,310,703.7891,320,707.7891,316,703.7891" style="stroke:#181818;stroke-width:1.0;"/><line style="stroke:#181818;stroke-width:1.0;stroke-dasharray:2.0,2.0;" x1="314" x2="704" y1="703.7891" y2="703.7891"/><text fill="#000000" font-family="sans-serif" font-size="13" lengthAdjust="spacing" textLength="61" x="326" y="698.7231">session&#31561;</text><polygon fill="#181818" points="287,728.9219,297,732.9219,287,736.9219,291,732.9219" style="stroke:#181818;stroke-width:1.0;"/><line style="stroke:#181818;stroke-width:1.0;" x1="54" x2="293" y1="732.9219" y2="732.9219"/><text fill="#000000" font-family="sans-serif" font-size="13" lengthAdjust="spacing" textLength="156" x="61" y="727.856">&#12518;&#12540;&#12470;&#21517;&#12539;&#12497;&#12473;&#12527;&#12540;&#12489;&#20837;&#21147;</text><polygon fill="#181818" points="688,773.1875,698,777.1875,688,781.1875,692,777.1875" style="stroke:#181818;stroke-width:1.0;"/><line style="stroke:#181818;stroke-width:1.0;" x1="309" x2="694" y1="777.1875" y2="777.1875"/><text fill="#000000" font-family="sans-serif" font-size="13" lengthAdjust="spacing" textLength="140" x="316" y="756.9888">&#35469;&#35388;(&#12488;&#12540;&#12463;&#12531;&#30330;&#34892;&#20381;&#38972;)</text><text fill="#000000" font-family="sans-serif" font-size="13" lengthAdjust="spacing" textLength="192" x="316" y="772.1216">(Responed to Auth Challenge)</text><polygon fill="#181818" points="693,802.3203,703,806.3203,693,810.3203,697,806.3203" style="stroke:#181818;stroke-width:1.0;"/><line style="stroke:#181818;stroke-width:1.0;" x1="309" x2="699" y1="806.3203" y2="806.3203"/><text fill="#000000" font-family="sans-serif" font-size="13" lengthAdjust="spacing" textLength="182" x="316" y="801.2544">&#12488;&#12540;&#12463;&#12531;&#12481;&#12455;&#12483;&#12463;&#29992;&#20844;&#38283;&#37749;&#35201;&#27714;</text><polygon fill="#181818" points="320,816.3203,310,820.3203,320,824.3203,316,820.3203" style="stroke:#181818;stroke-width:1.0;"/><line style="stroke:#181818;stroke-width:1.0;stroke-dasharray:2.0,2.0;" x1="314" x2="699" y1="820.3203" y2="820.3203"/><polygon fill="#181818" points="320,845.4531,310,849.4531,320,853.4531,316,849.4531" style="stroke:#181818;stroke-width:1.0;"/><line style="stroke:#181818;stroke-width:1.0;stroke-dasharray:2.0,2.0;" x1="314" x2="704" y1="849.4531" y2="849.4531"/><text fill="#000000" font-family="sans-serif" font-size="13" lengthAdjust="spacing" textLength="52" x="326" y="844.3872">&#12488;&#12540;&#12463;&#12531;</text><line style="stroke:#181818;stroke-width:1.0;" x1="309" x2="351" y1="878.5859" y2="878.5859"/><line style="stroke:#181818;stroke-width:1.0;" x1="351" x2="351" y1="878.5859" y2="891.5859"/><line style="stroke:#181818;stroke-width:1.0;" x1="310" x2="351" y1="891.5859" y2="891.5859"/><polygon fill="#181818" points="320,887.5859,310,891.5859,320,895.5859,316,891.5859" style="stroke:#181818;stroke-width:1.0;"/><text fill="#000000" font-family="sans-serif" font-size="13" lengthAdjust="spacing" textLength="104" x="316" y="873.52">&#12488;&#12540;&#12463;&#12531;&#12481;&#12455;&#12483;&#12463;</text><rect fill="#87CEEB" height="68" style="stroke:#181818;stroke-width:0.5;" width="392" x="314" y="911.5859"/><text fill="#000000" font-family="sans-serif" font-size="13" lengthAdjust="spacing" textLength="384" x="318" y="927.6528">&#12525;&#12464;&#12452;&#12531;&#30452;&#24460;&#12399;&#20197;&#19979;&#12398;API&#12434;&#25171;&#37749;&#12375;&#12390;&#12464;&#12525;&#12540;&#12496;&#12523;&#12394;&#24773;&#22577;&#12434;&#21462;&#12426;&#36796;&#12416;</text><ellipse cx="323.5" cy="938.3516" fill="#000000" rx="2.5" ry="2.5" style="stroke:#000000;stroke-width:0.0;"/><text fill="#000000" font-family="sans-serif" font-size="13" lengthAdjust="spacing" textLength="111" x="330" y="942.7856">&#12469;&#12452;&#12488;&#19968;&#35239;&#21462;&#24471;API</text><ellipse cx="323.5" cy="953.4844" fill="#000000" rx="2.5" ry="2.5" style="stroke:#000000;stroke-width:0.0;"/><text fill="#000000" font-family="sans-serif" font-size="13" lengthAdjust="spacing" textLength="150" x="330" y="957.9185">&#12362;&#30693;&#12425;&#12379;&#19968;&#36890;&#30693;&#35239;&#21462;&#24471;API</text><ellipse cx="323.5" cy="968.6172" fill="#000000" rx="2.5" ry="2.5" style="stroke:#000000;stroke-width:0.0;"/><text fill="#000000" font-family="sans-serif" font-size="13" lengthAdjust="spacing" textLength="163" x="330" y="973.0513">&#21033;&#29992;&#35215;&#32004;&#12473;&#12486;&#12540;&#12479;&#12473;&#21462;&#24471;API</text><polygon fill="#181818" points="909,1017.3828,919,1021.3828,909,1025.3828,913,1021.3828" style="stroke:#181818;stroke-width:1.0;"/><line style="stroke:#181818;stroke-width:1.0;" x1="309" x2="915" y1="1021.3828" y2="1021.3828"/><text fill="#000000" font-family="sans-serif" font-size="13" lengthAdjust="spacing" textLength="111" x="316" y="1001.1841">&#12469;&#12452;&#12488;&#19968;&#35239;&#21462;&#24471;API</text><text fill="#000000" font-family="sans-serif" font-size="13" lengthAdjust="spacing" textLength="57" x="320" y="1016.3169">/site GET</text><polygon fill="#181818" points="320,1031.3828,310,1035.3828,320,1039.3828,316,1035.3828" style="stroke:#181818;stroke-width:1.0;"/><line style="stroke:#181818;stroke-width:1.0;stroke-dasharray:2.0,2.0;" x1="314" x2="925" y1="1035.3828" y2="1035.3828"/><line style="stroke:#181818;stroke-width:1.0;" x1="309" x2="351" y1="1064.5156" y2="1064.5156"/><line style="stroke:#181818;stroke-width:1.0;" x1="351" x2="351" y1="1064.5156" y2="1077.5156"/><line style="stroke:#181818;stroke-width:1.0;" x1="310" x2="351" y1="1077.5156" y2="1077.5156"/><polygon fill="#181818" points="320,1073.5156,310,1077.5156,320,1081.5156,316,1077.5156" style="stroke:#181818;stroke-width:1.0;"/><text fill="#000000" font-family="sans-serif" font-size="13" lengthAdjust="spacing" textLength="252" x="316" y="1059.4497">LocalStorage&#12424;&#12426;&#36984;&#25246;&#20013;&#12398;&#12469;&#12452;&#12488;&#12434;&#21462;&#24471;&#12290;</text><path d="M230.5,1092.5156 L296.5,1092.5156 L296.5,1099.6484 L286.5,1109.6484 L230.5,1109.6484 L230.5,1092.5156 " fill="#EEEEEE" style="stroke:#000000;stroke-width:1.5;"/><rect fill="none" height="131.3359" style="stroke:#000000;stroke-width:1.5;" width="537" x="230.5" y="1092.5156"/><text fill="#000000" font-family="sans-serif" font-size="13" font-weight="bold" lengthAdjust="spacing" textLength="21" x="245.5" y="1105.5825">alt</text><text fill="#000000" font-family="sans-serif" font-size="11" font-weight="bold" lengthAdjust="spacing" textLength="451" x="311.5" y="1104.7261">[LocalStorage&#12395;&#36984;&#25246;&#20013;&#12398;&#12469;&#12452;&#12488;&#12364;&#23384;&#22312;&#12288;&#12363;&#12388;&#12288;&#12469;&#12452;&#12488;&#19968;&#35239;&#12395;&#35442;&#24403;&#12398;&#12469;&#12452;&#12488;&#12364;&#12354;&#12427;&#22580;&#21512;]</text><line style="stroke:#181818;stroke-width:1.0;" x1="309" x2="351" y1="1145.9141" y2="1145.9141"/><line style="stroke:#181818;stroke-width:1.0;" x1="351" x2="351" y1="1145.9141" y2="1158.9141"/><line style="stroke:#181818;stroke-width:1.0;" x1="310" x2="351" y1="1158.9141" y2="1158.9141"/><polygon fill="#181818" points="320,1154.9141,310,1158.9141,320,1162.9141,316,1158.9141" style="stroke:#181818;stroke-width:1.0;"/><text fill="#000000" font-family="sans-serif" font-size="13" lengthAdjust="spacing" textLength="143" x="316" y="1125.7153">&#36984;&#25246;&#20013;&#12398;&#12469;&#12452;&#12488;&#12392;&#12375;&#12390;&#12289;</text><text fill="#000000" font-family="sans-serif" font-size="13" lengthAdjust="spacing" textLength="265" x="316" y="1140.8481">LocalStorage&#12395;&#26684;&#32013;&#12373;&#12428;&#12390;&#12356;&#12383;&#12469;&#12452;&#12488;&#12434;&#35373;&#23450;</text><line style="stroke:#000000;stroke-width:1.0;stroke-dasharray:2.0,2.0;" x1="230.5" x2="767.5" y1="1167.9141" y2="1167.9141"/><text fill="#000000" font-family="sans-serif" font-size="11" font-weight="bold" lengthAdjust="spacing" textLength="495" x="235.5" y="1178.1245">[LocalStorage&#12395;&#36984;&#25246;&#20013;&#12398;&#12469;&#12452;&#12488;&#12364;&#12394;&#12356;&#12290;&#12288;&#12418;&#12375;&#12367;&#12399;&#12288;&#12469;&#12452;&#12488;&#19968;&#35239;&#12395;&#35442;&#24403;&#12398;&#12469;&#12452;&#12488;&#12364;&#12394;&#12356;&#22580;&#21512;&#12290;]</text><line style="stroke:#181818;stroke-width:1.0;" x1="309" x2="351" y1="1202.8516" y2="1202.8516"/><line style="stroke:#181818;stroke-width:1.0;" x1="351" x2="351" y1="1202.8516" y2="1215.8516"/><line style="stroke:#181818;stroke-width:1.0;" x1="310" x2="351" y1="1215.8516" y2="1215.8516"/><polygon fill="#181818" points="320,1211.8516,310,1215.8516,320,1219.8516,316,1215.8516" style="stroke:#181818;stroke-width:1.0;"/><text fill="#000000" font-family="sans-serif" font-size="13" lengthAdjust="spacing" textLength="377" x="316" y="1197.7856">&#36984;&#25246;&#20013;&#12398;&#12469;&#12452;&#12488;&#12392;&#12375;&#12390;&#12289;&#12469;&#12452;&#12488;&#19968;&#35239;&#12398;&#19968;&#30058;&#26368;&#21021;&#12398;&#12469;&#12452;&#12488;&#12434;&#36984;&#25246;&#12290;</text><polygon fill="#181818" points="909,1263.1172,919,1267.1172,909,1271.1172,913,1267.1172" style="stroke:#181818;stroke-width:1.0;"/><line style="stroke:#181818;stroke-width:1.0;" x1="309" x2="915" y1="1267.1172" y2="1267.1172"/><text fill="#000000" font-family="sans-serif" font-size="13" lengthAdjust="spacing" textLength="150" x="316" y="1246.9185">&#12362;&#30693;&#12425;&#12379;&#36890;&#30693;&#19968;&#35239;&#21462;&#24471;API</text><text fill="#000000" font-family="sans-serif" font-size="13" lengthAdjust="spacing" textLength="112" x="320" y="1262.0513">/notifications GET</text><polygon fill="#181818" points="320,1277.1172,310,1281.1172,320,1285.1172,316,1281.1172" style="stroke:#181818;stroke-width:1.0;"/><line style="stroke:#181818;stroke-width:1.0;stroke-dasharray:2.0,2.0;" x1="314" x2="925" y1="1281.1172" y2="1281.1172"/><polygon fill="#181818" points="909,1321.3828,919,1325.3828,909,1329.3828,913,1325.3828" style="stroke:#181818;stroke-width:1.0;"/><line style="stroke:#181818;stroke-width:1.0;" x1="309" x2="915" y1="1325.3828" y2="1325.3828"/><text fill="#000000" font-family="sans-serif" font-size="13" lengthAdjust="spacing" textLength="163" x="316" y="1305.1841">&#21033;&#29992;&#35215;&#32004;&#12473;&#12486;&#12540;&#12479;&#12473;&#21462;&#24471;API</text><text fill="#000000" font-family="sans-serif" font-size="13" lengthAdjust="spacing" textLength="106" x="320" y="1320.3169">/termStatus GET</text><rect fill="#87CEEB" height="38" style="stroke:#181818;stroke-width:0.5;" width="445" x="812" y="1338.3828"/><text fill="#000000" font-family="sans-serif" font-size="13" lengthAdjust="spacing" textLength="305" x="816" y="1354.4497">API-GW&#12391;Cognito&#12398;&#12488;&#12540;&#12463;&#12531;&#12481;&#12455;&#12483;&#12463;&#12418;&#23455;&#26045;&#12377;&#12427;&#12290;</text><text fill="#000000" font-family="sans-serif" font-size="13" lengthAdjust="spacing" textLength="437" x="816" y="1369.5825">1&#12388;&#12384;&#12369;&#19969;&#23527;&#12395;&#35352;&#36617;&#12377;&#12427;&#12364;&#12289;&#20197;&#38477;&#12399;&#12488;&#12540;&#12463;&#12531;&#12481;&#12455;&#12483;&#12463;&#31561;&#12398;&#12471;&#12540;&#12465;&#12531;&#12473;&#12434;&#30465;&#30053;</text><line style="stroke:#181818;stroke-width:1.0;" x1="931" x2="973" y1="1402.7813" y2="1402.7813"/><line style="stroke:#181818;stroke-width:1.0;" x1="973" x2="973" y1="1402.7813" y2="1415.7813"/><line style="stroke:#181818;stroke-width:1.0;" x1="932" x2="973" y1="1415.7813" y2="1415.7813"/><polygon fill="#181818" points="942,1411.7813,932,1415.7813,942,1419.7813,938,1415.7813" style="stroke:#181818;stroke-width:1.0;"/><text fill="#000000" font-family="sans-serif" font-size="13" lengthAdjust="spacing" textLength="104" x="938" y="1397.7153">&#12488;&#12540;&#12463;&#12531;&#12481;&#12455;&#12483;&#12463;</text><line style="stroke:#181818;stroke-width:1.0;" x1="931" x2="973" y1="1460.0469" y2="1460.0469"/><line style="stroke:#181818;stroke-width:1.0;" x1="973" x2="973" y1="1460.0469" y2="1473.0469"/><line style="stroke:#181818;stroke-width:1.0;" x1="932" x2="973" y1="1473.0469" y2="1473.0469"/><polygon fill="#181818" points="942,1469.0469,932,1473.0469,942,1477.0469,938,1473.0469" style="stroke:#181818;stroke-width:1.0;"/><text fill="#000000" font-family="sans-serif" font-size="13" lengthAdjust="spacing" textLength="117" x="938" y="1439.8481">&#12518;&#12540;&#12470;&#12398;&#35215;&#32004;&#24773;&#22577;&#12434;</text><text fill="#000000" font-family="sans-serif" font-size="13" lengthAdjust="spacing" textLength="125" x="938" y="1454.981">DynamoDB&#12424;&#12426;&#21462;&#24471;</text><polygon fill="#181818" points="320,1483.0469,310,1487.0469,320,1491.0469,316,1487.0469" style="stroke:#181818;stroke-width:1.0;"/><line style="stroke:#181818;stroke-width:1.0;stroke-dasharray:2.0,2.0;" x1="314" x2="925" y1="1487.0469" y2="1487.0469"/><line style="stroke:#181818;stroke-width:1.0;" x1="309" x2="351" y1="1516.1797" y2="1516.1797"/><line style="stroke:#181818;stroke-width:1.0;" x1="351" x2="351" y1="1516.1797" y2="1529.1797"/><line style="stroke:#181818;stroke-width:1.0;" x1="310" x2="351" y1="1529.1797" y2="1529.1797"/><polygon fill="#181818" points="320,1525.1797,310,1529.1797,320,1533.1797,316,1529.1797" style="stroke:#181818;stroke-width:1.0;"/><text fill="#000000" font-family="sans-serif" font-size="13" lengthAdjust="spacing" textLength="221" x="316" y="1511.1138">&#20803;&#12293;&#34920;&#31034;&#12375;&#12424;&#12358;&#12392;&#12375;&#12390;&#12356;&#12383;&#30011;&#38754;&#12434;&#34920;&#31034;</text><path d="M20,1544.1797 L86,1544.1797 L86,1551.3125 L76,1561.3125 L20,1561.3125 L20,1544.1797 " fill="#EEEEEE" style="stroke:#000000;stroke-width:1.5;"/><rect fill="none" height="349.5938" style="stroke:#000000;stroke-width:1.5;" width="1264" x="20" y="1544.1797"/><text fill="#000000" font-family="sans-serif" font-size="13" font-weight="bold" lengthAdjust="spacing" textLength="21" x="35" y="1557.2466">alt</text><text fill="#000000" font-family="sans-serif" font-size="11" font-weight="bold" lengthAdjust="spacing" textLength="120" x="101" y="1556.3901">[&#26032;&#35215;&#12398;&#35215;&#32004;&#26410;&#30906;&#35469;&#29366;&#24907;]</text><line style="stroke:#181818;stroke-width:1.0;" x1="309" x2="351" y1="1597.5781" y2="1597.5781"/><line style="stroke:#181818;stroke-width:1.0;" x1="351" x2="351" y1="1597.5781" y2="1610.5781"/><line style="stroke:#181818;stroke-width:1.0;" x1="310" x2="351" y1="1610.5781" y2="1610.5781"/><polygon fill="#181818" points="320,1606.5781,310,1610.5781,320,1614.5781,316,1610.5781" style="stroke:#181818;stroke-width:1.0;"/><text fill="#000000" font-family="sans-serif" font-size="13" lengthAdjust="spacing" textLength="78" x="316" y="1577.3794">&#35215;&#32004;&#30011;&#38754;&#34920;&#31034;</text><text fill="#000000" font-family="sans-serif" font-size="13" lengthAdjust="spacing" textLength="65" x="316" y="1592.5122">&#24375;&#21046;&#20877;&#21516;&#24847;</text><polygon fill="#181818" points="909,1665.9766,919,1669.9766,909,1673.9766,913,1669.9766" style="stroke:#181818;stroke-width:1.0;"/><line style="stroke:#181818;stroke-width:1.0;" x1="309" x2="915" y1="1669.9766" y2="1669.9766"/><text fill="#000000" font-family="sans-serif" font-size="13" lengthAdjust="spacing" textLength="52" x="316" y="1634.645">&#35215;&#32004;&#21462;&#24471;</text><text fill="#000000" font-family="sans-serif" font-size="13" lengthAdjust="spacing" textLength="65" x="320" y="1649.7778">/term GET</text><text fill="#000000" font-family="sans-serif" font-size="13" lengthAdjust="spacing" textLength="143" x="316" y="1664.9106">&#12489;&#12513;&#12452;&#12531;&#12399;&#20844;&#38283;&#12489;&#12513;&#12452;&#12531;</text><polygon fill="#181818" points="1187,1679.9766,1197,1683.9766,1187,1687.9766,1191,1683.9766" style="stroke:#181818;stroke-width:1.0;"/><line style="stroke:#181818;stroke-width:1.0;" x1="931" x2="1193" y1="1683.9766" y2="1683.9766"/><polygon fill="#181818" points="942,1693.9766,932,1697.9766,942,1701.9766,938,1697.9766" style="stroke:#181818;stroke-width:1.0;"/><line style="stroke:#181818;stroke-width:1.0;stroke-dasharray:2.0,2.0;" x1="936" x2="1203" y1="1697.9766" y2="1697.9766"/><polygon fill="#181818" points="320,1707.9766,310,1711.9766,320,1715.9766,316,1711.9766" style="stroke:#181818;stroke-width:1.0;"/><line style="stroke:#181818;stroke-width:1.0;stroke-dasharray:2.0,2.0;" x1="314" x2="925" y1="1711.9766" y2="1711.9766"/><polygon fill="#181818" points="287,1752.2422,297,1756.2422,287,1760.2422,291,1756.2422" style="stroke:#181818;stroke-width:1.0;"/><line style="stroke:#181818;stroke-width:1.0;" x1="54" x2="293" y1="1756.2422" y2="1756.2422"/><text fill="#000000" font-family="sans-serif" font-size="13" lengthAdjust="spacing" textLength="52" x="61" y="1736.0435">&#35215;&#32004;&#21516;&#24847;</text><text fill="#000000" font-family="sans-serif" font-size="13" lengthAdjust="spacing" textLength="130" x="61" y="1751.1763">&#12481;&#12455;&#12483;&#12463;&#12508;&#12483;&#12463;&#12473;&#25276;&#19979;</text><polygon fill="#181818" points="287,1781.375,297,1785.375,287,1789.375,291,1785.375" style="stroke:#181818;stroke-width:1.0;"/><line style="stroke:#181818;stroke-width:1.0;" x1="54" x2="293" y1="1785.375" y2="1785.375"/><text fill="#000000" font-family="sans-serif" font-size="13" lengthAdjust="spacing" textLength="143" x="61" y="1780.3091">&#12300;&#30906;&#35469;&#12375;&#12383;&#12301;&#12508;&#12479;&#12531;&#25276;&#19979;</text><polygon fill="#181818" points="909,1825.6406,919,1829.6406,909,1833.6406,913,1829.6406" style="stroke:#181818;stroke-width:1.0;"/><line style="stroke:#181818;stroke-width:1.0;" x1="309" x2="915" y1="1829.6406" y2="1829.6406"/><text fill="#000000" font-family="sans-serif" font-size="13" lengthAdjust="spacing" textLength="215" x="316" y="1809.4419">&#21033;&#29992;&#35215;&#32004;&#12481;&#12455;&#12483;&#12463;&#12473;&#12486;&#12540;&#12479;&#12473;&#26356;&#26032;API</text><text fill="#000000" font-family="sans-serif" font-size="13" lengthAdjust="spacing" textLength="105" x="320" y="1824.5747">/termStatus PUT</text><polygon fill="#181818" points="320,1839.6406,310,1843.6406,320,1847.6406,316,1843.6406" style="stroke:#181818;stroke-width:1.0;"/><line style="stroke:#181818;stroke-width:1.0;stroke-dasharray:2.0,2.0;" x1="314" x2="925" y1="1843.6406" y2="1843.6406"/><line style="stroke:#181818;stroke-width:1.0;" x1="309" x2="351" y1="1872.7734" y2="1872.7734"/><line style="stroke:#181818;stroke-width:1.0;" x1="351" x2="351" y1="1872.7734" y2="1885.7734"/><line style="stroke:#181818;stroke-width:1.0;" x1="310" x2="351" y1="1885.7734" y2="1885.7734"/><polygon fill="#181818" points="320,1881.7734,310,1885.7734,320,1889.7734,316,1885.7734" style="stroke:#181818;stroke-width:1.0;"/><text fill="#000000" font-family="sans-serif" font-size="13" lengthAdjust="spacing" textLength="104" x="316" y="1867.7075">&#35215;&#32004;&#30011;&#38754;&#12434;&#38281;&#12376;&#12427;</text><!--SRC=[jLVTJzjM57_tNs5r3okhecdQsrHLeh1rbQO9ZKxJ95wiu8Arr4Q9MTKtNvlGX82WfQ7bgq058OH2Ig65GWf_pCcra_zYvzxh9BPnA9kqF1X_dE_pExzxC3KpfShWx87z3knDS0ubIVfQ1liDs5MmBy2fqVqbxtn7KfAcaPPlW5F2Ts1_l24h6NayewQbCILjQabjJD5D_8vgpWupXIQSGt1otcxLNTaTqcyEz04v1x8612r_0kSrECiztCom-hUMLCE66fMPHhb6rqwzvKrKxZD6TCqqX7nIF8GL-lf_PN8fOtpufxIXcxxei1uM6pHqBVcpaJ7bte7xg83Nn3t5L1yhJuI6CgP5D0Pw6uTFtTKvTxtc7SsWpk3tGZGpfeH5cwkBtj84s8SyzKb-dRYiPYgemkhS-71C2qM9bL5EtF7h8D-w9VyWU_iRtjoaz-AikVh65_C_eo1cXL8I-uDF68RG0MUEkyo3ioj2RfI8Us1pmTk919TC95g6RYUueSwBn1t_9jPKPG_8HUEyXjTWAA8N8W1Kgu1J1ESjE0xOn-1i8G8uOAhSN951pQbr8aYq3U0jSzkHTfqiNJy8k0e45xH9mDxcxgeCkTq-AIapz97EBj3pbtJpm2s-b17PtHI5X2JZBpQIpkJulTeeUvkdN5wuVCR1NcN6dJozU0NsD0u1NJ-YSpaknduH1A1XQpgY2lRpY3OR938FP0FiF5Y8C1JX2LJyd5lMqxfXgd9Q6narPUDXoybNzzAggl-ffbB6uxOe-qKTCtklHOxWMEqcie1cRI-xtLPMzM6PkU8lr5H6bTs5TutIRBssHEStlCMpvlHx8FjNvivJ3olyFrc6V5mt9to8G264_n0StfnwkmKnW3Zyzr5AGvwHUyVDqPwWaKj3a54p6StGlRsy58-D5WVJkHbmpg8GosxHgUMheXJKUZE8U6_njB4nNJzVRQxNUZ3QtzJCcA6hmpBgi83blb4bbLBr4RNdwlpZXyXxKQRPjys5GdFcWqz9NGjmPMc23hhFP1SAuDr3qYtDUaSJs1wiWzG5D8D_FRcR6XTD3pLr-OYUumHMwsTRzPC2WXdF3mIDcv_7r82y159YmW9CZ4DtWLG4at5iBO0znJZKjhZjR_2e_S1Dv-edLgEqBMW9ZRO-aoblROj1dooZHDDQmiSOEPhRmIABr3WQ9daDBl2-8zh2iXmWLJpk_Dvr2KGUqkLlCnfgtVlnGP2ucMRmxEXqu1SZgQG6SLzGHbImSvXoavouKw_h9tY4xBSTYOAW5x1ipiyXFR8RhqIcwTuhkb86omA27TXaD-7OKRUnyvv-deye0h71BWJe9oRsBaxBVcyjCgH7mXJdEv0Yv-OIa0csv0IIR9JtS8cIE25UCqK43RDZsJmvcpkVPKpuBt9b5lo3mhB_SxgNtEtZZLUik2iMpQr6sYciCNS8jLYG1U0ii1o7DiIezb1BufPaw9busCL2-3f3m1sOQlhH86vXuy9wX0JOKXHY0BuZ_W5aszz2MTPTI0QRHVVNt8NFG1OHQwtAVyTmIjQ1FAkV45hbNIk_QjJolXZsooB8ASt56TRbRZIwb-S5F-PV3zXNpD9-xgqGhxZL7c-9bqZKvGewZ4ZvPmew40LiazQGtlz4LnuP_NV5B8jINey9QDO1Aojs8WOfD40cE_3YeoBs9ZOdOdLYJ23sXauiAnN1rzxKHpTRw0Pcdza3UzYGJcl7DFUHJixGkMbtOZQYseQEK1MfjI72m84FV0VQy1SWKXKdMV2bsFP4ESLopuost_BDMxo-VBpvjOizwFsWUE0iZ03Cd9KMtZwvKpKyYgHkQwGe72_u6kvFJ9FzNtSOKFlIA8Nm7HehT_a8MnKpLWE_FxWYqo_qZZ790a8Tjzq2G_K_]--></g></svg>