<?xml version="1.0" encoding="UTF-8" standalone="no"?><svg xmlns="http://www.w3.org/2000/svg" xmlns:xlink="http://www.w3.org/1999/xlink" contentStyleType="text/css" height="1911px" preserveAspectRatio="none" style="width:1113px;height:1911px;background:#FFFFFF;" version="1.1" viewBox="0 0 1113 1911" width="1113px" zoomAndPan="magnify"><defs/><g><text fill="#000000" font-family="sans-serif" font-size="14" font-weight="bold" lengthAdjust="spacing" textLength="60" x="528" y="27.9951">ログイン</text><rect fill="#FFFFFF" height="1672.0469" style="stroke:#181818;stroke-width:1.0;" width="10" x="299" y="149.7266"/><rect fill="#FFFFFF" height="29.1328" style="stroke:#181818;stroke-width:1.0;" width="10" x="544" y="292.125"/><rect fill="#FFFFFF" height="29.1328" style="stroke:#181818;stroke-width:1.0;" width="10" x="544" y="674.6563"/><rect fill="#FFFFFF" height="72.2656" style="stroke:#181818;stroke-width:1.0;" width="10" x="544" y="777.1875"/><rect fill="#FFFFFF" height="14" style="stroke:#181818;stroke-width:1.0;" width="10" x="549" y="806.3203"/><rect fill="#FFFFFF" height="57.1328" style="stroke:#181818;stroke-width:1.0;" width="10" x="646" y="163.7266"/><rect fill="#FFFFFF" height="42" style="stroke:#181818;stroke-width:1.0;" width="10" x="646" y="1006.25"/><rect fill="#FFFFFF" height="42" style="stroke:#181818;stroke-width:1.0;" width="10" x="646" y="1077.3828"/><rect fill="#FFFFFF" height="42" style="stroke:#181818;stroke-width:1.0;" width="10" x="646" y="1148.5156"/><rect fill="#FFFFFF" height="204.7969" style="stroke:#181818;stroke-width:1.0;" width="10" x="646" y="1219.6484"/><rect fill="#FFFFFF" height="42" style="stroke:#181818;stroke-width:1.0;" width="10" x="646" y="1577.1094"/><rect fill="#FFFFFF" height="42" style="stroke:#181818;stroke-width:1.0;" width="10" x="646" y="1721.6406"/><rect fill="#FFFFFF" height="14" style="stroke:#181818;stroke-width:1.0;" width="10" x="765" y="1020.25"/><rect fill="#FFFFFF" height="14" style="stroke:#181818;stroke-width:1.0;" width="10" x="765" y="1091.3828"/><rect fill="#FFFFFF" height="14" style="stroke:#181818;stroke-width:1.0;" width="10" x="765" y="1162.5156"/><rect fill="#FFFFFF" height="176.7969" style="stroke:#181818;stroke-width:1.0;" width="10" x="765" y="1233.6484"/><rect fill="#FFFFFF" height="14" style="stroke:#181818;stroke-width:1.0;" width="10" x="765" y="1735.6406"/><rect fill="#FFFFFF" height="14" style="stroke:#181818;stroke-width:1.0;" width="10" x="893" y="192.8594"/><rect fill="#FFFFFF" height="14" style="stroke:#181818;stroke-width:1.0;" width="10" x="1022" y="1591.1094"/><rect fill="none" height="521.1953" style="stroke:#000000;stroke-width:1.5;" width="589.5" x="10" y="378.3906"/><rect fill="none" height="186.7344" style="stroke:#000000;stroke-width:1.5;" width="520" x="20" y="444.6563"/><rect fill="none" height="332.1953" style="stroke:#000000;stroke-width:1.5;" width="1087" x="20" y="1481.5781"/><line style="stroke:#181818;stroke-width:0.5;stroke-dasharray:5.0,5.0;" x1="54" x2="54" y1="118.5938" y2="1830.7734"/><line style="stroke:#181818;stroke-width:0.5;stroke-dasharray:5.0,5.0;" x1="303.5" x2="303.5" y1="118.5938" y2="1830.7734"/><line style="stroke:#181818;stroke-width:0.5;stroke-dasharray:5.0,5.0;" x1="548.5" x2="548.5" y1="118.5938" y2="1830.7734"/><line style="stroke:#181818;stroke-width:0.5;stroke-dasharray:5.0,5.0;" x1="650.5" x2="650.5" y1="118.5938" y2="1830.7734"/><line style="stroke:#181818;stroke-width:0.5;stroke-dasharray:5.0,5.0;" x1="769.5" x2="769.5" y1="118.5938" y2="1830.7734"/><line style="stroke:#181818;stroke-width:0.5;stroke-dasharray:5.0,5.0;" x1="898" x2="898" y1="118.5938" y2="1830.7734"/><line style="stroke:#181818;stroke-width:0.5;stroke-dasharray:5.0,5.0;" x1="1027" x2="1027" y1="118.5938" y2="1830.7734"/><text fill="#000000" font-family="sans-serif" font-size="14" lengthAdjust="spacing" textLength="42" x="30" y="115.292">ユーザ</text><ellipse cx="54" cy="50.7969" fill="#E2E2F0" rx="8" ry="8" style="stroke:#181818;stroke-width:0.5;"/><path d="M54,58.7969 L54,85.7969 M41,66.7969 L67,66.7969 M54,85.7969 L41,100.7969 M54,85.7969 L67,100.7969 " fill="none" style="stroke:#181818;stroke-width:0.5;"/><text fill="#000000" font-family="sans-serif" font-size="14" lengthAdjust="spacing" textLength="42" x="30" y="1842.7686">ユーザ</text><ellipse cx="54" cy="1854.5703" fill="#E2E2F0" rx="8" ry="8" style="stroke:#181818;stroke-width:0.5;"/><path d="M54,1862.5703 L54,1889.5703 M41,1870.5703 L67,1870.5703 M54,1889.5703 L41,1904.5703 M54,1889.5703 L67,1904.5703 " fill="none" style="stroke:#181818;stroke-width:0.5;"/><rect fill="#E2E2F0" height="46.5938" rx="2.5" ry="2.5" style="stroke:#181818;stroke-width:0.5;" width="127" x="240.5" y="71"/><text fill="#000000" font-family="sans-serif" font-size="14" lengthAdjust="spacing" textLength="112" x="248" y="90.9951">クライアント端末</text><text fill="#000000" font-family="sans-serif" font-size="14" lengthAdjust="spacing" textLength="113" x="247.5" y="107.292">(PCまたはスマホ)</text><rect fill="#E2E2F0" height="46.5938" rx="2.5" ry="2.5" style="stroke:#181818;stroke-width:0.5;" width="127" x="240.5" y="1829.7734"/><text fill="#000000" font-family="sans-serif" font-size="14" lengthAdjust="spacing" textLength="112" x="248" y="1849.7686">クライアント端末</text><text fill="#000000" font-family="sans-serif" font-size="14" lengthAdjust="spacing" textLength="113" x="247.5" y="1866.0654">(PCまたはスマホ)</text><rect fill="#E2E2F0" height="46.5938" rx="2.5" ry="2.5" style="stroke:#181818;stroke-width:0.5;" width="81" x="508.5" y="71"/><text fill="#000000" font-family="sans-serif" font-size="14" lengthAdjust="spacing" textLength="56" x="521" y="90.9951">認証基盤</text><text fill="#000000" font-family="sans-serif" font-size="14" lengthAdjust="spacing" textLength="67" x="515.5" y="107.292">(Cognito)</text><rect fill="#E2E2F0" height="46.5938" rx="2.5" ry="2.5" style="stroke:#181818;stroke-width:0.5;" width="81" x="508.5" y="1829.7734"/><text fill="#000000" font-family="sans-serif" font-size="14" lengthAdjust="spacing" textLength="56" x="521" y="1849.7686">認証基盤</text><text fill="#000000" font-family="sans-serif" font-size="14" lengthAdjust="spacing" textLength="67" x="515.5" y="1866.0654">(Cognito)</text><rect fill="#E2E2F0" height="46.5938" rx="2.5" ry="2.5" style="stroke:#181818;stroke-width:0.5;" width="103" x="599.5" y="71"/><text fill="#000000" font-family="sans-serif" font-size="14" lengthAdjust="spacing" textLength="31" x="635.5" y="90.9951">CDN</text><text fill="#000000" font-family="sans-serif" font-size="14" lengthAdjust="spacing" textLength="89" x="606.5" y="107.292">(CloudFront)</text><rect fill="#E2E2F0" height="46.5938" rx="2.5" ry="2.5" style="stroke:#181818;stroke-width:0.5;" width="103" x="599.5" y="1829.7734"/><text fill="#000000" font-family="sans-serif" font-size="14" lengthAdjust="spacing" textLength="31" x="635.5" y="1849.7686">CDN</text><text fill="#000000" font-family="sans-serif" font-size="14" lengthAdjust="spacing" textLength="89" x="606.5" y="1866.0654">(CloudFront)</text><rect fill="#E2E2F0" height="46.5938" rx="2.5" ry="2.5" style="stroke:#181818;stroke-width:0.5;" width="115" x="712.5" y="71"/><text fill="#000000" font-family="sans-serif" font-size="14" lengthAdjust="spacing" textLength="99" x="720.5" y="90.9951">SonicHost API</text><text fill="#000000" font-family="sans-serif" font-size="14" lengthAdjust="spacing" textLength="101" x="719.5" y="107.292">(API-Gateway)</text><rect fill="#E2E2F0" height="46.5938" rx="2.5" ry="2.5" style="stroke:#181818;stroke-width:0.5;" width="115" x="712.5" y="1829.7734"/><text fill="#000000" font-family="sans-serif" font-size="14" lengthAdjust="spacing" textLength="99" x="720.5" y="1849.7686">SonicHost API</text><text fill="#000000" font-family="sans-serif" font-size="14" lengthAdjust="spacing" textLength="101" x="719.5" y="1866.0654">(API-Gateway)</text><rect fill="#E2E2F0" height="46.5938" rx="2.5" ry="2.5" style="stroke:#181818;stroke-width:0.5;" width="98" x="849" y="71"/><text fill="#000000" font-family="sans-serif" font-size="14" lengthAdjust="spacing" textLength="84" x="856" y="90.9951">SPA資材格納</text><text fill="#000000" font-family="sans-serif" font-size="14" lengthAdjust="spacing" textLength="28" x="884" y="107.292">(S3)</text><rect fill="#E2E2F0" height="46.5938" rx="2.5" ry="2.5" style="stroke:#181818;stroke-width:0.5;" width="98" x="849" y="1829.7734"/><text fill="#000000" font-family="sans-serif" font-size="14" lengthAdjust="spacing" textLength="84" x="856" y="1849.7686">SPA資材格納</text><text fill="#000000" font-family="sans-serif" font-size="14" lengthAdjust="spacing" textLength="28" x="884" y="1866.0654">(S3)</text><rect fill="#E2E2F0" height="46.5938" rx="2.5" ry="2.5" style="stroke:#181818;stroke-width:0.5;" width="140" x="957" y="71"/><text fill="#000000" font-family="sans-serif" font-size="14" lengthAdjust="spacing" textLength="126" x="964" y="90.9951">静的コンテンツ格納</text><text fill="#000000" font-family="sans-serif" font-size="14" lengthAdjust="spacing" textLength="28" x="1013" y="107.292">(S3)</text><rect fill="#E2E2F0" height="46.5938" rx="2.5" ry="2.5" style="stroke:#181818;stroke-width:0.5;" width="140" x="957" y="1829.7734"/><text fill="#000000" font-family="sans-serif" font-size="14" lengthAdjust="spacing" textLength="126" x="964" y="1849.7686">静的コンテンツ格納</text><text fill="#000000" font-family="sans-serif" font-size="14" lengthAdjust="spacing" textLength="28" x="1013" y="1866.0654">(S3)</text><rect fill="#FFFFFF" height="1672.0469" style="stroke:#181818;stroke-width:1.0;" width="10" x="299" y="149.7266"/><rect fill="#FFFFFF" height="29.1328" style="stroke:#181818;stroke-width:1.0;" width="10" x="544" y="292.125"/><rect fill="#FFFFFF" height="29.1328" style="stroke:#181818;stroke-width:1.0;" width="10" x="544" y="674.6563"/><rect fill="#FFFFFF" height="72.2656" style="stroke:#181818;stroke-width:1.0;" width="10" x="544" y="777.1875"/><rect fill="#FFFFFF" height="14" style="stroke:#181818;stroke-width:1.0;" width="10" x="549" y="806.3203"/><rect fill="#FFFFFF" height="57.1328" style="stroke:#181818;stroke-width:1.0;" width="10" x="646" y="163.7266"/><rect fill="#FFFFFF" height="42" style="stroke:#181818;stroke-width:1.0;" width="10" x="646" y="1006.25"/><rect fill="#FFFFFF" height="42" style="stroke:#181818;stroke-width:1.0;" width="10" x="646" y="1077.3828"/><rect fill="#FFFFFF" height="42" style="stroke:#181818;stroke-width:1.0;" width="10" x="646" y="1148.5156"/><rect fill="#FFFFFF" height="204.7969" style="stroke:#181818;stroke-width:1.0;" width="10" x="646" y="1219.6484"/><rect fill="#FFFFFF" height="42" style="stroke:#181818;stroke-width:1.0;" width="10" x="646" y="1577.1094"/><rect fill="#FFFFFF" height="42" style="stroke:#181818;stroke-width:1.0;" width="10" x="646" y="1721.6406"/><rect fill="#FFFFFF" height="14" style="stroke:#181818;stroke-width:1.0;" width="10" x="765" y="1020.25"/><rect fill="#FFFFFF" height="14" style="stroke:#181818;stroke-width:1.0;" width="10" x="765" y="1091.3828"/><rect fill="#FFFFFF" height="14" style="stroke:#181818;stroke-width:1.0;" width="10" x="765" y="1162.5156"/><rect fill="#FFFFFF" height="176.7969" style="stroke:#181818;stroke-width:1.0;" width="10" x="765" y="1233.6484"/><rect fill="#FFFFFF" height="14" style="stroke:#181818;stroke-width:1.0;" width="10" x="765" y="1735.6406"/><rect fill="#FFFFFF" height="14" style="stroke:#181818;stroke-width:1.0;" width="10" x="893" y="192.8594"/><rect fill="#FFFFFF" height="14" style="stroke:#181818;stroke-width:1.0;" width="10" x="1022" y="1591.1094"/><polygon fill="#181818" points="287,145.7266,297,149.7266,287,153.7266,291,149.7266" style="stroke:#181818;stroke-width:1.0;"/><line style="stroke:#181818;stroke-width:1.0;" x1="54" x2="293" y1="149.7266" y2="149.7266"/><text fill="#000000" font-family="sans-serif" font-size="13" lengthAdjust="spacing" textLength="78" x="61" y="144.6606">管理画面起動</text><polygon fill="#181818" points="634,159.7266,644,163.7266,634,167.7266,638,163.7266" style="stroke:#181818;stroke-width:1.0;"/><line style="stroke:#181818;stroke-width:1.0;" x1="309" x2="640" y1="163.7266" y2="163.7266"/><polygon fill="#181818" points="881,188.8594,891,192.8594,881,196.8594,885,192.8594" style="stroke:#181818;stroke-width:1.0;"/><line style="stroke:#181818;stroke-width:1.0;" x1="656" x2="887" y1="192.8594" y2="192.8594"/><text fill="#000000" font-family="sans-serif" font-size="13" lengthAdjust="spacing" textLength="104" x="663" y="187.7935">バンドル資材要求</text><polygon fill="#181818" points="667,202.8594,657,206.8594,667,210.8594,663,206.8594" style="stroke:#181818;stroke-width:1.0;"/><line style="stroke:#181818;stroke-width:1.0;stroke-dasharray:2.0,2.0;" x1="661" x2="897" y1="206.8594" y2="206.8594"/><polygon fill="#181818" points="320,216.8594,310,220.8594,320,224.8594,316,220.8594" style="stroke:#181818;stroke-width:1.0;"/><line style="stroke:#181818;stroke-width:1.0;" x1="314" x2="650" y1="220.8594" y2="220.8594"/><line style="stroke:#181818;stroke-width:1.0;" x1="309" x2="351" y1="249.9922" y2="249.9922"/><line style="stroke:#181818;stroke-width:1.0;" x1="351" x2="351" y1="249.9922" y2="262.9922"/><line style="stroke:#181818;stroke-width:1.0;" x1="310" x2="351" y1="262.9922" y2="262.9922"/><polygon fill="#181818" points="320,258.9922,310,262.9922,320,266.9922,316,262.9922" style="stroke:#181818;stroke-width:1.0;"/><text fill="#000000" font-family="sans-serif" font-size="13" lengthAdjust="spacing" textLength="130" x="316" y="244.9263">バンドル資材読み込み</text><polygon fill="#181818" points="532,288.125,542,292.125,532,296.125,536,292.125" style="stroke:#181818;stroke-width:1.0;"/><line style="stroke:#181818;stroke-width:1.0;" x1="309" x2="538" y1="292.125" y2="292.125"/><text fill="#000000" font-family="sans-serif" font-size="13" lengthAdjust="spacing" textLength="169" x="316" y="287.0591">リフレッシュトークンフロー</text><polygon fill="#181818" points="320,317.2578,310,321.2578,320,325.2578,316,321.2578" style="stroke:#181818;stroke-width:1.0;"/><line style="stroke:#181818;stroke-width:1.0;stroke-dasharray:2.0,2.0;" x1="314" x2="548" y1="321.2578" y2="321.2578"/><text fill="#000000" font-family="sans-serif" font-size="13" lengthAdjust="spacing" textLength="78" x="326" y="316.1919">トークン情報</text><line style="stroke:#181818;stroke-width:1.0;" x1="309" x2="351" y1="350.3906" y2="350.3906"/><line style="stroke:#181818;stroke-width:1.0;" x1="351" x2="351" y1="350.3906" y2="363.3906"/><line style="stroke:#181818;stroke-width:1.0;" x1="310" x2="351" y1="363.3906" y2="363.3906"/><polygon fill="#181818" points="320,359.3906,310,363.3906,320,367.3906,316,363.3906" style="stroke:#181818;stroke-width:1.0;"/><text fill="#000000" font-family="sans-serif" font-size="13" lengthAdjust="spacing" textLength="104" x="316" y="345.3247">トークンチェック</text><path d="M10,378.3906 L76,378.3906 L76,385.5234 L66,395.5234 L10,395.5234 L10,378.3906 " fill="#EEEEEE" style="stroke:#000000;stroke-width:1.5;"/><rect fill="none" height="521.1953" style="stroke:#000000;stroke-width:1.5;" width="589.5" x="10" y="378.3906"/><text fill="#000000" font-family="sans-serif" font-size="13" font-weight="bold" lengthAdjust="spacing" textLength="21" x="25" y="391.4575">alt</text><text fill="#000000" font-family="sans-serif" font-size="11" font-weight="bold" lengthAdjust="spacing" textLength="231" x="91" y="390.6011">[トークン取得失敗 or トークンチェック失敗]</text><line style="stroke:#181818;stroke-width:1.0;" x1="309" x2="351" y1="416.6563" y2="416.6563"/><line style="stroke:#181818;stroke-width:1.0;" x1="351" x2="351" y1="416.6563" y2="429.6563"/><line style="stroke:#181818;stroke-width:1.0;" x1="310" x2="351" y1="429.6563" y2="429.6563"/><polygon fill="#181818" points="320,425.6563,310,429.6563,320,433.6563,316,429.6563" style="stroke:#181818;stroke-width:1.0;"/><text fill="#000000" font-family="sans-serif" font-size="13" lengthAdjust="spacing" textLength="104" x="316" y="411.5903">ログイン画面表示</text><path d="M20,444.6563 L86,444.6563 L86,451.7891 L76,461.7891 L20,461.7891 L20,444.6563 " fill="#EEEEEE" style="stroke:#000000;stroke-width:1.5;"/><rect fill="none" height="186.7344" style="stroke:#000000;stroke-width:1.5;" width="520" x="20" y="444.6563"/><text fill="#000000" font-family="sans-serif" font-size="13" font-weight="bold" lengthAdjust="spacing" textLength="21" x="35" y="457.7231">alt</text><text fill="#000000" font-family="sans-serif" font-size="11" font-weight="bold" lengthAdjust="spacing" textLength="120" x="101" y="456.8667">[パスワード忘れた場合]</text><polygon fill="#181818" points="287,494.0547,297,498.0547,287,502.0547,291,498.0547" style="stroke:#181818;stroke-width:1.0;"/><line style="stroke:#181818;stroke-width:1.0;" x1="54" x2="293" y1="498.0547" y2="498.0547"/><text fill="#000000" font-family="sans-serif" font-size="13" lengthAdjust="spacing" textLength="221" x="61" y="477.856">「パスワードを忘れた場合はこちら」</text><text fill="#000000" font-family="sans-serif" font-size="13" lengthAdjust="spacing" textLength="65" x="61" y="492.9888">をクリック</text><rect fill="#ADFF2F" height="23" style="stroke:#181818;stroke-width:0.5;" width="216" x="314" y="511.0547"/><text fill="#000000" font-family="sans-serif" font-size="13" lengthAdjust="spacing" textLength="208" x="318" y="527.1216">パスワードリマインダフローを参照</text><line style="stroke:#000000;stroke-width:1.0;stroke-dasharray:2.0,2.0;" x1="20" x2="540" y1="540.1875" y2="540.1875"/><text fill="#000000" font-family="sans-serif" font-size="11" font-weight="bold" lengthAdjust="spacing" textLength="109" x="25" y="550.3979">[新規会員登録の場合]</text><polygon fill="#181818" points="287,586.2578,297,590.2578,287,594.2578,291,590.2578" style="stroke:#181818;stroke-width:1.0;"/><line style="stroke:#181818;stroke-width:1.0;" x1="54" x2="293" y1="590.2578" y2="590.2578"/><text fill="#000000" font-family="sans-serif" font-size="13" lengthAdjust="spacing" textLength="130" x="61" y="570.0591">「会員登録はこちら」</text><text fill="#000000" font-family="sans-serif" font-size="13" lengthAdjust="spacing" textLength="65" x="61" y="585.1919">をクリック</text><rect fill="#ADFF2F" height="23" style="stroke:#181818;stroke-width:0.5;" width="138" x="314" y="603.2578"/><text fill="#000000" font-family="sans-serif" font-size="13" lengthAdjust="spacing" textLength="130" x="318" y="619.3247">会員登録フローを参照</text><polygon fill="#181818" points="532,670.6563,542,674.6563,532,678.6563,536,674.6563" style="stroke:#181818;stroke-width:1.0;"/><line style="stroke:#181818;stroke-width:1.0;" x1="309" x2="538" y1="674.6563" y2="674.6563"/><text fill="#000000" font-family="sans-serif" font-size="13" lengthAdjust="spacing" textLength="104" x="316" y="654.4575">ログイン確立要求</text><text fill="#000000" font-family="sans-serif" font-size="13" lengthAdjust="spacing" textLength="87" x="316" y="669.5903">(Initiate Auth)</text><polygon fill="#181818" points="320,699.7891,310,703.7891,320,707.7891,316,703.7891" style="stroke:#181818;stroke-width:1.0;"/><line style="stroke:#181818;stroke-width:1.0;stroke-dasharray:2.0,2.0;" x1="314" x2="548" y1="703.7891" y2="703.7891"/><text fill="#000000" font-family="sans-serif" font-size="13" lengthAdjust="spacing" textLength="61" x="326" y="698.7231">session等</text><polygon fill="#181818" points="287,728.9219,297,732.9219,287,736.9219,291,732.9219" style="stroke:#181818;stroke-width:1.0;"/><line style="stroke:#181818;stroke-width:1.0;" x1="54" x2="293" y1="732.9219" y2="732.9219"/><text fill="#000000" font-family="sans-serif" font-size="13" lengthAdjust="spacing" textLength="156" x="61" y="727.856">ユーザ名・パスワード入力</text><polygon fill="#181818" points="532,773.1875,542,777.1875,532,781.1875,536,777.1875" style="stroke:#181818;stroke-width:1.0;"/><line style="stroke:#181818;stroke-width:1.0;" x1="309" x2="538" y1="777.1875" y2="777.1875"/><text fill="#000000" font-family="sans-serif" font-size="13" lengthAdjust="spacing" textLength="140" x="316" y="756.9888">認証(トークン発行依頼)</text><text fill="#000000" font-family="sans-serif" font-size="13" lengthAdjust="spacing" textLength="192" x="316" y="772.1216">(Responed to Auth Challenge)</text><polygon fill="#181818" points="537,802.3203,547,806.3203,537,810.3203,541,806.3203" style="stroke:#181818;stroke-width:1.0;"/><line style="stroke:#181818;stroke-width:1.0;" x1="309" x2="543" y1="806.3203" y2="806.3203"/><text fill="#000000" font-family="sans-serif" font-size="13" lengthAdjust="spacing" textLength="182" x="316" y="801.2544">トークンチェック用公開鍵要求</text><polygon fill="#181818" points="320,816.3203,310,820.3203,320,824.3203,316,820.3203" style="stroke:#181818;stroke-width:1.0;"/><line style="stroke:#181818;stroke-width:1.0;stroke-dasharray:2.0,2.0;" x1="314" x2="543" y1="820.3203" y2="820.3203"/><polygon fill="#181818" points="320,845.4531,310,849.4531,320,853.4531,316,849.4531" style="stroke:#181818;stroke-width:1.0;"/><line style="stroke:#181818;stroke-width:1.0;stroke-dasharray:2.0,2.0;" x1="314" x2="548" y1="849.4531" y2="849.4531"/><text fill="#000000" font-family="sans-serif" font-size="13" lengthAdjust="spacing" textLength="52" x="326" y="844.3872">トークン</text><line style="stroke:#181818;stroke-width:1.0;" x1="309" x2="351" y1="878.5859" y2="878.5859"/><line style="stroke:#181818;stroke-width:1.0;" x1="351" x2="351" y1="878.5859" y2="891.5859"/><line style="stroke:#181818;stroke-width:1.0;" x1="310" x2="351" y1="891.5859" y2="891.5859"/><polygon fill="#181818" points="320,887.5859,310,891.5859,320,895.5859,316,891.5859" style="stroke:#181818;stroke-width:1.0;"/><text fill="#000000" font-family="sans-serif" font-size="13" lengthAdjust="spacing" textLength="104" x="316" y="873.52">トークンチェック</text><rect fill="#87CEEB" height="68" style="stroke:#181818;stroke-width:0.5;" width="392" x="314" y="911.5859"/><text fill="#000000" font-family="sans-serif" font-size="13" lengthAdjust="spacing" textLength="384" x="318" y="927.6528">ログイン直後は以下のAPIを打鍵してグローバルな情報を取り込む</text><ellipse cx="323.5" cy="938.3516" fill="#000000" rx="2.5" ry="2.5" style="stroke:#000000;stroke-width:0.0;"/><text fill="#000000" font-family="sans-serif" font-size="13" lengthAdjust="spacing" textLength="111" x="330" y="942.7856">ユーザ情報取得API</text><ellipse cx="323.5" cy="953.4844" fill="#000000" rx="2.5" ry="2.5" style="stroke:#000000;stroke-width:0.0;"/><text fill="#000000" font-family="sans-serif" font-size="13" lengthAdjust="spacing" textLength="111" x="330" y="957.9185">サイト情報取得API</text><ellipse cx="323.5" cy="968.6172" fill="#000000" rx="2.5" ry="2.5" style="stroke:#000000;stroke-width:0.0;"/><text fill="#000000" font-family="sans-serif" font-size="13" lengthAdjust="spacing" textLength="124" x="330" y="973.0513">お知らせ一覧取得API</text><polygon fill="#181818" points="634,1002.25,644,1006.25,634,1010.25,638,1006.25" style="stroke:#181818;stroke-width:1.0;"/><line style="stroke:#181818;stroke-width:1.0;" x1="309" x2="640" y1="1006.25" y2="1006.25"/><text fill="#000000" font-family="sans-serif" font-size="13" lengthAdjust="spacing" textLength="111" x="316" y="1001.1841">ユーザ情報取得API</text><polygon fill="#181818" points="753,1016.25,763,1020.25,753,1024.25,757,1020.25" style="stroke:#181818;stroke-width:1.0;"/><line style="stroke:#181818;stroke-width:1.0;" x1="656" x2="759" y1="1020.25" y2="1020.25"/><polygon fill="#181818" points="667,1030.25,657,1034.25,667,1038.25,663,1034.25" style="stroke:#181818;stroke-width:1.0;"/><line style="stroke:#181818;stroke-width:1.0;stroke-dasharray:2.0,2.0;" x1="661" x2="769" y1="1034.25" y2="1034.25"/><polygon fill="#181818" points="320,1044.25,310,1048.25,320,1052.25,316,1048.25" style="stroke:#181818;stroke-width:1.0;"/><line style="stroke:#181818;stroke-width:1.0;stroke-dasharray:2.0,2.0;" x1="314" x2="650" y1="1048.25" y2="1048.25"/><polygon fill="#181818" points="634,1073.3828,644,1077.3828,634,1081.3828,638,1077.3828" style="stroke:#181818;stroke-width:1.0;"/><line style="stroke:#181818;stroke-width:1.0;" x1="309" x2="640" y1="1077.3828" y2="1077.3828"/><text fill="#000000" font-family="sans-serif" font-size="13" lengthAdjust="spacing" textLength="111" x="316" y="1072.3169">サイト情報取得API</text><polygon fill="#181818" points="753,1087.3828,763,1091.3828,753,1095.3828,757,1091.3828" style="stroke:#181818;stroke-width:1.0;"/><line style="stroke:#181818;stroke-width:1.0;" x1="656" x2="759" y1="1091.3828" y2="1091.3828"/><polygon fill="#181818" points="667,1101.3828,657,1105.3828,667,1109.3828,663,1105.3828" style="stroke:#181818;stroke-width:1.0;"/><line style="stroke:#181818;stroke-width:1.0;stroke-dasharray:2.0,2.0;" x1="661" x2="769" y1="1105.3828" y2="1105.3828"/><polygon fill="#181818" points="320,1115.3828,310,1119.3828,320,1123.3828,316,1119.3828" style="stroke:#181818;stroke-width:1.0;"/><line style="stroke:#181818;stroke-width:1.0;stroke-dasharray:2.0,2.0;" x1="314" x2="650" y1="1119.3828" y2="1119.3828"/><polygon fill="#181818" points="634,1144.5156,644,1148.5156,634,1152.5156,638,1148.5156" style="stroke:#181818;stroke-width:1.0;"/><line style="stroke:#181818;stroke-width:1.0;" x1="309" x2="640" y1="1148.5156" y2="1148.5156"/><text fill="#000000" font-family="sans-serif" font-size="13" lengthAdjust="spacing" textLength="124" x="316" y="1143.4497">お知らせ一覧取得API</text><polygon fill="#181818" points="753,1158.5156,763,1162.5156,753,1166.5156,757,1162.5156" style="stroke:#181818;stroke-width:1.0;"/><line style="stroke:#181818;stroke-width:1.0;" x1="656" x2="759" y1="1162.5156" y2="1162.5156"/><polygon fill="#181818" points="667,1172.5156,657,1176.5156,667,1180.5156,663,1176.5156" style="stroke:#181818;stroke-width:1.0;"/><line style="stroke:#181818;stroke-width:1.0;stroke-dasharray:2.0,2.0;" x1="661" x2="769" y1="1176.5156" y2="1176.5156"/><polygon fill="#181818" points="320,1186.5156,310,1190.5156,320,1194.5156,316,1190.5156" style="stroke:#181818;stroke-width:1.0;"/><line style="stroke:#181818;stroke-width:1.0;stroke-dasharray:2.0,2.0;" x1="314" x2="650" y1="1190.5156" y2="1190.5156"/><polygon fill="#181818" points="634,1215.6484,644,1219.6484,634,1223.6484,638,1219.6484" style="stroke:#181818;stroke-width:1.0;"/><line style="stroke:#181818;stroke-width:1.0;" x1="309" x2="640" y1="1219.6484" y2="1219.6484"/><text fill="#000000" font-family="sans-serif" font-size="13" lengthAdjust="spacing" textLength="98" x="316" y="1214.5825">規約チェックAPI</text><polygon fill="#181818" points="753,1229.6484,763,1233.6484,753,1237.6484,757,1233.6484" style="stroke:#181818;stroke-width:1.0;"/><line style="stroke:#181818;stroke-width:1.0;" x1="656" x2="759" y1="1233.6484" y2="1233.6484"/><rect fill="#87CEEB" height="53" style="stroke:#181818;stroke-width:0.5;" width="445" x="661" y="1246.6484"/><text fill="#000000" font-family="sans-serif" font-size="13" lengthAdjust="spacing" textLength="281" x="665" y="1262.7153">CORS回避のため、API打鍵はCloudFrontを通す</text><text fill="#000000" font-family="sans-serif" font-size="13" lengthAdjust="spacing" textLength="344" x="665" y="1277.8481">また、API-GWでCognitoのトークンチェックも実施する。</text><text fill="#000000" font-family="sans-serif" font-size="13" lengthAdjust="spacing" textLength="437" x="665" y="1292.981">1つだけ丁寧に記載するが、以降はトークンチェック等のシーケンスを省略</text><line style="stroke:#181818;stroke-width:1.0;" x1="775" x2="817" y1="1326.1797" y2="1326.1797"/><line style="stroke:#181818;stroke-width:1.0;" x1="817" x2="817" y1="1326.1797" y2="1339.1797"/><line style="stroke:#181818;stroke-width:1.0;" x1="776" x2="817" y1="1339.1797" y2="1339.1797"/><polygon fill="#181818" points="786,1335.1797,776,1339.1797,786,1343.1797,782,1339.1797" style="stroke:#181818;stroke-width:1.0;"/><text fill="#000000" font-family="sans-serif" font-size="13" lengthAdjust="spacing" textLength="104" x="782" y="1321.1138">トークンチェック</text><line style="stroke:#181818;stroke-width:1.0;" x1="775" x2="817" y1="1383.4453" y2="1383.4453"/><line style="stroke:#181818;stroke-width:1.0;" x1="817" x2="817" y1="1383.4453" y2="1396.4453"/><line style="stroke:#181818;stroke-width:1.0;" x1="776" x2="817" y1="1396.4453" y2="1396.4453"/><polygon fill="#181818" points="786,1392.4453,776,1396.4453,786,1400.4453,782,1396.4453" style="stroke:#181818;stroke-width:1.0;"/><text fill="#000000" font-family="sans-serif" font-size="13" lengthAdjust="spacing" textLength="78" x="782" y="1363.2466">ユーザの規約</text><text fill="#000000" font-family="sans-serif" font-size="13" lengthAdjust="spacing" textLength="65" x="782" y="1378.3794">状態を確認</text><polygon fill="#181818" points="667,1406.4453,657,1410.4453,667,1414.4453,663,1410.4453" style="stroke:#181818;stroke-width:1.0;"/><line style="stroke:#181818;stroke-width:1.0;stroke-dasharray:2.0,2.0;" x1="661" x2="769" y1="1410.4453" y2="1410.4453"/><polygon fill="#181818" points="320,1420.4453,310,1424.4453,320,1428.4453,316,1424.4453" style="stroke:#181818;stroke-width:1.0;"/><line style="stroke:#181818;stroke-width:1.0;stroke-dasharray:2.0,2.0;" x1="314" x2="650" y1="1424.4453" y2="1424.4453"/><line style="stroke:#181818;stroke-width:1.0;" x1="309" x2="351" y1="1453.5781" y2="1453.5781"/><line style="stroke:#181818;stroke-width:1.0;" x1="351" x2="351" y1="1453.5781" y2="1466.5781"/><line style="stroke:#181818;stroke-width:1.0;" x1="310" x2="351" y1="1466.5781" y2="1466.5781"/><polygon fill="#181818" points="320,1462.5781,310,1466.5781,320,1470.5781,316,1466.5781" style="stroke:#181818;stroke-width:1.0;"/><text fill="#000000" font-family="sans-serif" font-size="13" lengthAdjust="spacing" textLength="221" x="316" y="1448.5122">元々表示しようとしていた画面を表示</text><path d="M20,1481.5781 L86,1481.5781 L86,1488.7109 L76,1498.7109 L20,1498.7109 L20,1481.5781 " fill="#EEEEEE" style="stroke:#000000;stroke-width:1.5;"/><rect fill="none" height="332.1953" style="stroke:#000000;stroke-width:1.5;" width="1087" x="20" y="1481.5781"/><text fill="#000000" font-family="sans-serif" font-size="13" font-weight="bold" lengthAdjust="spacing" textLength="21" x="35" y="1494.645">alt</text><text fill="#000000" font-family="sans-serif" font-size="11" font-weight="bold" lengthAdjust="spacing" textLength="120" x="101" y="1493.7886">[新規の規約未確認状態]</text><line style="stroke:#181818;stroke-width:1.0;" x1="309" x2="351" y1="1534.9766" y2="1534.9766"/><line style="stroke:#181818;stroke-width:1.0;" x1="351" x2="351" y1="1534.9766" y2="1547.9766"/><line style="stroke:#181818;stroke-width:1.0;" x1="310" x2="351" y1="1547.9766" y2="1547.9766"/><polygon fill="#181818" points="320,1543.9766,310,1547.9766,320,1551.9766,316,1547.9766" style="stroke:#181818;stroke-width:1.0;"/><text fill="#000000" font-family="sans-serif" font-size="13" lengthAdjust="spacing" textLength="78" x="316" y="1514.7778">規約画面表示</text><text fill="#000000" font-family="sans-serif" font-size="13" lengthAdjust="spacing" textLength="65" x="316" y="1529.9106">強制再同意</text><polygon fill="#181818" points="634,1573.1094,644,1577.1094,634,1581.1094,638,1577.1094" style="stroke:#181818;stroke-width:1.0;"/><line style="stroke:#181818;stroke-width:1.0;" x1="309" x2="640" y1="1577.1094" y2="1577.1094"/><text fill="#000000" font-family="sans-serif" font-size="13" lengthAdjust="spacing" textLength="78" x="316" y="1572.0435">規約情報取得</text><polygon fill="#181818" points="1010,1587.1094,1020,1591.1094,1010,1595.1094,1014,1591.1094" style="stroke:#181818;stroke-width:1.0;"/><line style="stroke:#181818;stroke-width:1.0;" x1="656" x2="1016" y1="1591.1094" y2="1591.1094"/><polygon fill="#181818" points="667,1601.1094,657,1605.1094,667,1609.1094,663,1605.1094" style="stroke:#181818;stroke-width:1.0;"/><line style="stroke:#181818;stroke-width:1.0;stroke-dasharray:2.0,2.0;" x1="661" x2="1026" y1="1605.1094" y2="1605.1094"/><polygon fill="#181818" points="320,1615.1094,310,1619.1094,320,1623.1094,316,1619.1094" style="stroke:#181818;stroke-width:1.0;"/><line style="stroke:#181818;stroke-width:1.0;stroke-dasharray:2.0,2.0;" x1="314" x2="650" y1="1619.1094" y2="1619.1094"/><polygon fill="#181818" points="287,1659.375,297,1663.375,287,1667.375,291,1663.375" style="stroke:#181818;stroke-width:1.0;"/><line style="stroke:#181818;stroke-width:1.0;" x1="54" x2="293" y1="1663.375" y2="1663.375"/><text fill="#000000" font-family="sans-serif" font-size="13" lengthAdjust="spacing" textLength="52" x="61" y="1643.1763">規約同意</text><text fill="#000000" font-family="sans-serif" font-size="13" lengthAdjust="spacing" textLength="130" x="61" y="1658.3091">チェックボックス押下</text><polygon fill="#181818" points="287,1688.5078,297,1692.5078,287,1696.5078,291,1692.5078" style="stroke:#181818;stroke-width:1.0;"/><line style="stroke:#181818;stroke-width:1.0;" x1="54" x2="293" y1="1692.5078" y2="1692.5078"/><text fill="#000000" font-family="sans-serif" font-size="13" lengthAdjust="spacing" textLength="143" x="61" y="1687.4419">「確認した」ボタン押下</text><polygon fill="#181818" points="634,1717.6406,644,1721.6406,634,1725.6406,638,1721.6406" style="stroke:#181818;stroke-width:1.0;"/><line style="stroke:#181818;stroke-width:1.0;" x1="309" x2="640" y1="1721.6406" y2="1721.6406"/><text fill="#000000" font-family="sans-serif" font-size="13" lengthAdjust="spacing" textLength="124" x="316" y="1716.5747">規約同意日時更新API</text><polygon fill="#181818" points="753,1731.6406,763,1735.6406,753,1739.6406,757,1735.6406" style="stroke:#181818;stroke-width:1.0;"/><line style="stroke:#181818;stroke-width:1.0;" x1="656" x2="759" y1="1735.6406" y2="1735.6406"/><polygon fill="#181818" points="667,1745.6406,657,1749.6406,667,1753.6406,663,1749.6406" style="stroke:#181818;stroke-width:1.0;"/><line style="stroke:#181818;stroke-width:1.0;stroke-dasharray:2.0,2.0;" x1="661" x2="769" y1="1749.6406" y2="1749.6406"/><polygon fill="#181818" points="320,1759.6406,310,1763.6406,320,1767.6406,316,1763.6406" style="stroke:#181818;stroke-width:1.0;"/><line style="stroke:#181818;stroke-width:1.0;stroke-dasharray:2.0,2.0;" x1="314" x2="650" y1="1763.6406" y2="1763.6406"/><line style="stroke:#181818;stroke-width:1.0;" x1="309" x2="351" y1="1792.7734" y2="1792.7734"/><line style="stroke:#181818;stroke-width:1.0;" x1="351" x2="351" y1="1792.7734" y2="1805.7734"/><line style="stroke:#181818;stroke-width:1.0;" x1="310" x2="351" y1="1805.7734" y2="1805.7734"/><polygon fill="#181818" points="320,1801.7734,310,1805.7734,320,1809.7734,316,1805.7734" style="stroke:#181818;stroke-width:1.0;"/><text fill="#000000" font-family="sans-serif" font-size="13" lengthAdjust="spacing" textLength="104" x="316" y="1787.7075">規約画面を閉じる</text><!--SRC=[jLVTJzjM57_tNs5r3okhyZ3jRQegCQQnlcoeF4oJ-cA11z4Y6oLcLTzohmaZ915fAQ4XV8i4cXHIncSX2t_CYUtalzYvzpg9RU9qdJG_cFZUt_cyltFEnOWQCLK6ynZe1w07O9v9alIb37GVQ1te7PWDwsJ3QRwJb2b3ZyiFmApW6j3B1xAIaESJQboQK-96T2ewfsW6xgEO-OwfGXNc6PXBJgrkRzQUQmydne0qWUm0GSqVmTm6ipJ2rKohVqIdLB-YTZNNFcfOEpTEwG25n_GPBMhe0ZybFlm2Oz__n70nVNxwXxYk6IvqMlF39dKjElMZdZ3aqOcdA83loBXYg2-Kbq92cOi692P6ssT_sbjvUxVXdETGPl8R0KtCANvePwleR2m0FUEXB_BtmdqnGq4HbkVsnPMLMPDO6kN84pSFygD7yhUoSxBdv1UTDxUThNqNvcuZ4AD2bCJ-u1Uw8MJ0p7EJQJ1hmkLsXTYdb0CVHo8S6Obq5JsES4NzXSWJzyT0LTLZ87VjPWFVNbV4MGW7KAmAvXgOxy4qWLw1MKO6SCBKkRerHZMpqVSWqbE0FvdPFjesKzRkgSUKnpclJWBqa9khC-Q6RIanmxTfhHIivhfrS6glhSl8x311WP1aV0PwqgySzwpsZfo36uuN9bznijUPSZDjtRq5ciKYi7RFhVmIXx4dm01KdCm6H86-3aYpGYAhGFQ0fY6934C83w3gnjpL7jTqGvNZqPbPGzP_wnhvOZokgjglQYocl-X1sHCqpFHjYnZ1JFOEaJcqGftKOKzOrQPbPeelgB64Ajk53-tAIgknOQtkESNRJlOl82T3O-UX-mN-doXzDlvjJFWHe8AF_puwxDyujOmeG2p-fuYAOf-HH-UDsH6ladj5a50JYQYkESTfQJ0tkZtOokV0l0rIB5Msbal3l1IjzQ6NyKxnfhsNRJMtEhkD4VJscPgOqpLrMaOPvh0yDgl4OgeseuuCZtzm4JblZgpK-quXqybTk2qfD053K-Cr45wJ8Is0dnustSgASxw0nuDva498C_dxo-zYy-BGVOTQEhUQM87rrcsvTPr1CkFyGDBOwLKC3SWwa0e32pAn7be3KXMTZ7Eh07IPzL2QvBg_wX-c08csX4gxs_I2MruAsIRBpawPLGOfjQwJxSfX7z5bhdnlS7Wv5DJhpXISWWpOcnpispivxeyEZ-umdtsw_vlg8V5-fkS3qoAuuMNDVRy3b66RFhwC_VniqYfjTyWTqeFTToY1944zNPBK-vSKv4GdkG6aA9WcxaSS71d_1SYXU-rXYa9O3PHQ9pjsuMzK0ZG3IL5QNmCv0B8Bv5NhcbZrGo2rzj7RTYFjmaWMpI29EyKSQx1XTNkSPgRP8CVTKxQBdOQ-TZQ9irRkCKpYEHO96b9_0PHBG3GWilvSSvOlxLI6wHV5-HaCwLM_bJ8XcH9JcDKZnJ6v2EJ8hKsoW1aManhjkCEQ3MengNhEs9jLuOJmAQpNkBt4C_cVQrRZobgwj1PpLZvhBwm4-wMVQjuIuSZkdOxV4JcHkwly0YUM1tH9aP21yq9O4jxW-FIInzpiikYZlTp0ZYQ5tKP4DdWMaQ4v9id-FJZpY8K6AKpRwsMxIEtIEQQwsy42DUiDrJtqy3W_SHoij0f8NxmoPHXJ_m40]--></g></svg>