<?xml version="1.0" encoding="UTF-8" standalone="no"?><svg xmlns="http://www.w3.org/2000/svg" xmlns:xlink="http://www.w3.org/1999/xlink" contentStyleType="text/css" height="2766px" preserveAspectRatio="none" style="width:920px;height:2766px;background:#FFFFFF;" version="1.1" viewBox="0 0 920 2766" width="920px" zoomAndPan="magnify"><defs/><g><text fill="#000000" font-family="sans-serif" font-size="14" font-weight="bold" lengthAdjust="spacing" textLength="105" x="408.75" y="27.9951">会員登録フロー</text><rect fill="#FFFFFF" height="2541.6953" style="stroke:#181818;stroke-width:1.0;" width="10" x="224" y="134.5938"/><rect fill="#FFFFFF" height="29.1328" style="stroke:#181818;stroke-width:1.0;" width="10" x="417" y="163.7266"/><rect fill="#FFFFFF" height="44.2656" style="stroke:#181818;stroke-width:1.0;" width="10" x="512" y="251.125"/><rect fill="#FFFFFF" height="29.1328" style="stroke:#181818;stroke-width:1.0;" width="10" x="512" y="382.7891"/><rect fill="#FFFFFF" height="29.1328" style="stroke:#181818;stroke-width:1.0;" width="10" x="512" y="470.1875"/><rect fill="#FFFFFF" height="29.1328" style="stroke:#181818;stroke-width:1.0;" width="10" x="512" y="557.5859"/><rect fill="#FFFFFF" height="29.1328" style="stroke:#181818;stroke-width:1.0;" width="10" x="512" y="776.6484"/><rect fill="#FFFFFF" height="29.1328" style="stroke:#181818;stroke-width:1.0;" width="10" x="512" y="958.4453"/><rect fill="#FFFFFF" height="29.1328" style="stroke:#181818;stroke-width:1.0;" width="10" x="512" y="1060.9766"/><rect fill="#FFFFFF" height="87.3984" style="stroke:#181818;stroke-width:1.0;" width="10" x="614" y="660.1172"/><rect fill="#FFFFFF" height="29.1328" style="stroke:#181818;stroke-width:1.0;" width="10" x="724.5" y="689.25"/><rect fill="#FFFFFF" height="29.1328" style="stroke:#181818;stroke-width:1.0;" width="10" x="841" y="1258.7734"/><rect fill="#FFFFFF" height="14" style="stroke:#181818;stroke-width:1.0;" width="10" x="841" y="1346.1719"/><rect fill="#FFFFFF" height="14" style="stroke:#181818;stroke-width:1.0;" width="10" x="841" y="1460.5703"/><rect fill="#FFFFFF" height="14" style="stroke:#181818;stroke-width:1.0;" width="10" x="841" y="1937.6953"/><rect fill="#FFFFFF" height="14" style="stroke:#181818;stroke-width:1.0;" width="10" x="841" y="2096.0313"/><rect fill="#FFFFFF" height="14" style="stroke:#181818;stroke-width:1.0;" width="10" x="841" y="2539.8906"/><rect fill="none" height="277.3281" style="stroke:#000000;stroke-width:1.5;" width="557.5" x="10" y="862.9141"/><rect fill="none" height="448.5313" style="stroke:#000000;stroke-width:1.5;" width="903.5" x="10" y="1799.0313"/><line style="stroke:#181818;stroke-width:0.5;stroke-dasharray:5.0,5.0;" x1="44" x2="44" y1="118.5938" y2="2685.2891"/><line style="stroke:#181818;stroke-width:0.5;stroke-dasharray:5.0,5.0;" x1="228.5" x2="228.5" y1="118.5938" y2="2685.2891"/><line style="stroke:#181818;stroke-width:0.5;stroke-dasharray:5.0,5.0;" x1="421.5" x2="421.5" y1="118.5938" y2="2685.2891"/><line style="stroke:#181818;stroke-width:0.5;stroke-dasharray:5.0,5.0;" x1="516.5" x2="516.5" y1="118.5938" y2="2685.2891"/><line style="stroke:#181818;stroke-width:0.5;stroke-dasharray:5.0,5.0;" x1="618.5" x2="618.5" y1="118.5938" y2="2685.2891"/><line style="stroke:#181818;stroke-width:0.5;stroke-dasharray:5.0,5.0;" x1="729.5" x2="729.5" y1="118.5938" y2="2685.2891"/><line style="stroke:#181818;stroke-width:0.5;stroke-dasharray:5.0,5.0;" x1="845.5" x2="845.5" y1="118.5938" y2="2685.2891"/><text fill="#000000" font-family="sans-serif" font-size="14" lengthAdjust="spacing" textLength="42" x="20" y="115.292">ユーザ</text><ellipse cx="44" cy="50.7969" fill="#E2E2F0" rx="8" ry="8" style="stroke:#181818;stroke-width:0.5;"/><path d="M44,58.7969 L44,85.7969 M31,66.7969 L57,66.7969 M44,85.7969 L31,100.7969 M44,85.7969 L57,100.7969 " fill="none" style="stroke:#181818;stroke-width:0.5;"/><text fill="#000000" font-family="sans-serif" font-size="14" lengthAdjust="spacing" textLength="42" x="20" y="2697.2842">ユーザ</text><ellipse cx="44" cy="2709.0859" fill="#E2E2F0" rx="8" ry="8" style="stroke:#181818;stroke-width:0.5;"/><path d="M44,2717.0859 L44,2744.0859 M31,2725.0859 L57,2725.0859 M44,2744.0859 L31,2759.0859 M44,2744.0859 L57,2759.0859 " fill="none" style="stroke:#181818;stroke-width:0.5;"/><rect fill="#E2E2F0" height="46.5938" rx="2.5" ry="2.5" style="stroke:#181818;stroke-width:0.5;" width="127" x="165.5" y="71"/><text fill="#000000" font-family="sans-serif" font-size="14" lengthAdjust="spacing" textLength="112" x="173" y="90.9951">クライアント端末</text><text fill="#000000" font-family="sans-serif" font-size="14" lengthAdjust="spacing" textLength="113" x="172.5" y="107.292">(PCまたはスマホ)</text><rect fill="#E2E2F0" height="46.5938" rx="2.5" ry="2.5" style="stroke:#181818;stroke-width:0.5;" width="127" x="165.5" y="2684.2891"/><text fill="#000000" font-family="sans-serif" font-size="14" lengthAdjust="spacing" textLength="112" x="173" y="2704.2842">クライアント端末</text><text fill="#000000" font-family="sans-serif" font-size="14" lengthAdjust="spacing" textLength="113" x="172.5" y="2720.5811">(PCまたはスマホ)</text><rect fill="#E2E2F0" height="30.2969" rx="2.5" ry="2.5" style="stroke:#181818;stroke-width:0.5;" width="89" x="377.5" y="87.2969"/><text fill="#000000" font-family="sans-serif" font-size="14" lengthAdjust="spacing" textLength="75" x="384.5" y="107.292">Webサーバ</text><rect fill="#E2E2F0" height="30.2969" rx="2.5" ry="2.5" style="stroke:#181818;stroke-width:0.5;" width="89" x="377.5" y="2684.2891"/><text fill="#000000" font-family="sans-serif" font-size="14" lengthAdjust="spacing" textLength="75" x="384.5" y="2704.2842">Webサーバ</text><rect fill="#E2E2F0" height="46.5938" rx="2.5" ry="2.5" style="stroke:#181818;stroke-width:0.5;" width="81" x="476.5" y="71"/><text fill="#000000" font-family="sans-serif" font-size="14" lengthAdjust="spacing" textLength="56" x="489" y="90.9951">認証基盤</text><text fill="#000000" font-family="sans-serif" font-size="14" lengthAdjust="spacing" textLength="67" x="483.5" y="107.292">(Cognito)</text><rect fill="#E2E2F0" height="46.5938" rx="2.5" ry="2.5" style="stroke:#181818;stroke-width:0.5;" width="81" x="476.5" y="2684.2891"/><text fill="#000000" font-family="sans-serif" font-size="14" lengthAdjust="spacing" textLength="56" x="489" y="2704.2842">認証基盤</text><text fill="#000000" font-family="sans-serif" font-size="14" lengthAdjust="spacing" textLength="67" x="483.5" y="2720.5811">(Cognito)</text><rect fill="#E2E2F0" height="46.5938" rx="2.5" ry="2.5" style="stroke:#181818;stroke-width:0.5;" width="103" x="567.5" y="71"/><text fill="#000000" font-family="sans-serif" font-size="14" lengthAdjust="spacing" textLength="31" x="603.5" y="90.9951">CDN</text><text fill="#000000" font-family="sans-serif" font-size="14" lengthAdjust="spacing" textLength="89" x="574.5" y="107.292">(CloudFront)</text><rect fill="#E2E2F0" height="46.5938" rx="2.5" ry="2.5" style="stroke:#181818;stroke-width:0.5;" width="103" x="567.5" y="2684.2891"/><text fill="#000000" font-family="sans-serif" font-size="14" lengthAdjust="spacing" textLength="31" x="603.5" y="2704.2842">CDN</text><text fill="#000000" font-family="sans-serif" font-size="14" lengthAdjust="spacing" textLength="89" x="574.5" y="2720.5811">(CloudFront)</text><rect fill="#E2E2F0" height="46.5938" rx="2.5" ry="2.5" style="stroke:#181818;stroke-width:0.5;" width="98" x="680.5" y="71"/><text fill="#000000" font-family="sans-serif" font-size="14" lengthAdjust="spacing" textLength="84" x="687.5" y="90.9951">SPA資材格納</text><text fill="#000000" font-family="sans-serif" font-size="14" lengthAdjust="spacing" textLength="28" x="715.5" y="107.292">(S3)</text><rect fill="#E2E2F0" height="46.5938" rx="2.5" ry="2.5" style="stroke:#181818;stroke-width:0.5;" width="98" x="680.5" y="2684.2891"/><text fill="#000000" font-family="sans-serif" font-size="14" lengthAdjust="spacing" textLength="84" x="687.5" y="2704.2842">SPA資材格納</text><text fill="#000000" font-family="sans-serif" font-size="14" lengthAdjust="spacing" textLength="28" x="715.5" y="2720.5811">(S3)</text><rect fill="#E2E2F0" height="46.5938" rx="2.5" ry="2.5" style="stroke:#181818;stroke-width:0.5;" width="115" x="788.5" y="71"/><text fill="#000000" font-family="sans-serif" font-size="14" lengthAdjust="spacing" textLength="99" x="796.5" y="90.9951">SonicHost API</text><text fill="#000000" font-family="sans-serif" font-size="14" lengthAdjust="spacing" textLength="101" x="795.5" y="107.292">(API-Gateway)</text><rect fill="#E2E2F0" height="46.5938" rx="2.5" ry="2.5" style="stroke:#181818;stroke-width:0.5;" width="115" x="788.5" y="2684.2891"/><text fill="#000000" font-family="sans-serif" font-size="14" lengthAdjust="spacing" textLength="99" x="796.5" y="2704.2842">SonicHost API</text><text fill="#000000" font-family="sans-serif" font-size="14" lengthAdjust="spacing" textLength="101" x="795.5" y="2720.5811">(API-Gateway)</text><rect fill="#FFFFFF" height="2541.6953" style="stroke:#181818;stroke-width:1.0;" width="10" x="224" y="134.5938"/><rect fill="#FFFFFF" height="29.1328" style="stroke:#181818;stroke-width:1.0;" width="10" x="417" y="163.7266"/><rect fill="#FFFFFF" height="44.2656" style="stroke:#181818;stroke-width:1.0;" width="10" x="512" y="251.125"/><rect fill="#FFFFFF" height="29.1328" style="stroke:#181818;stroke-width:1.0;" width="10" x="512" y="382.7891"/><rect fill="#FFFFFF" height="29.1328" style="stroke:#181818;stroke-width:1.0;" width="10" x="512" y="470.1875"/><rect fill="#FFFFFF" height="29.1328" style="stroke:#181818;stroke-width:1.0;" width="10" x="512" y="557.5859"/><rect fill="#FFFFFF" height="29.1328" style="stroke:#181818;stroke-width:1.0;" width="10" x="512" y="776.6484"/><rect fill="#FFFFFF" height="29.1328" style="stroke:#181818;stroke-width:1.0;" width="10" x="512" y="958.4453"/><rect fill="#FFFFFF" height="29.1328" style="stroke:#181818;stroke-width:1.0;" width="10" x="512" y="1060.9766"/><rect fill="#FFFFFF" height="87.3984" style="stroke:#181818;stroke-width:1.0;" width="10" x="614" y="660.1172"/><rect fill="#FFFFFF" height="29.1328" style="stroke:#181818;stroke-width:1.0;" width="10" x="724.5" y="689.25"/><rect fill="#FFFFFF" height="29.1328" style="stroke:#181818;stroke-width:1.0;" width="10" x="841" y="1258.7734"/><rect fill="#FFFFFF" height="14" style="stroke:#181818;stroke-width:1.0;" width="10" x="841" y="1346.1719"/><rect fill="#FFFFFF" height="14" style="stroke:#181818;stroke-width:1.0;" width="10" x="841" y="1460.5703"/><rect fill="#FFFFFF" height="14" style="stroke:#181818;stroke-width:1.0;" width="10" x="841" y="1937.6953"/><rect fill="#FFFFFF" height="14" style="stroke:#181818;stroke-width:1.0;" width="10" x="841" y="2096.0313"/><rect fill="#FFFFFF" height="14" style="stroke:#181818;stroke-width:1.0;" width="10" x="841" y="2539.8906"/><polygon fill="#181818" points="212,130.5938,222,134.5938,212,138.5938,216,134.5938" style="stroke:#181818;stroke-width:1.0;"/><line style="stroke:#181818;stroke-width:1.0;" x1="44" x2="218" y1="134.5938" y2="134.5938"/><polygon fill="#181818" points="405,159.7266,415,163.7266,405,167.7266,409,163.7266" style="stroke:#181818;stroke-width:1.0;"/><line style="stroke:#181818;stroke-width:1.0;" x1="234" x2="411" y1="163.7266" y2="163.7266"/><text fill="#000000" font-family="sans-serif" font-size="13" lengthAdjust="spacing" textLength="65" x="241" y="158.6606">サイト参照</text><polygon fill="#181818" points="245,188.8594,235,192.8594,245,196.8594,241,192.8594" style="stroke:#181818;stroke-width:1.0;"/><line style="stroke:#181818;stroke-width:1.0;stroke-dasharray:2.0,2.0;" x1="239" x2="421" y1="192.8594" y2="192.8594"/><text fill="#000000" font-family="sans-serif" font-size="13" lengthAdjust="spacing" textLength="65" x="251" y="187.7935">サイト表示</text><polygon fill="#181818" points="212,217.9922,222,221.9922,212,225.9922,216,221.9922" style="stroke:#181818;stroke-width:1.0;"/><line style="stroke:#181818;stroke-width:1.0;" x1="44" x2="218" y1="221.9922" y2="221.9922"/><text fill="#000000" font-family="sans-serif" font-size="13" lengthAdjust="spacing" textLength="78" x="51" y="216.9263">「登録」押下</text><polygon fill="#181818" points="500,247.125,510,251.125,500,255.125,504,251.125" style="stroke:#181818;stroke-width:1.0;"/><line style="stroke:#181818;stroke-width:1.0;" x1="234" x2="506" y1="251.125" y2="251.125"/><text fill="#000000" font-family="sans-serif" font-size="13" lengthAdjust="spacing" textLength="117" x="241" y="246.0591">ユーザ登録画面要求</text><polygon fill="#181818" points="245,291.3906,235,295.3906,245,299.3906,241,295.3906" style="stroke:#181818;stroke-width:1.0;"/><line style="stroke:#181818;stroke-width:1.0;stroke-dasharray:2.0,2.0;" x1="239" x2="516" y1="295.3906" y2="295.3906"/><text fill="#000000" font-family="sans-serif" font-size="13" lengthAdjust="spacing" textLength="78" x="251" y="275.1919">登録画面表示</text><text fill="#000000" font-family="sans-serif" font-size="13" lengthAdjust="spacing" textLength="143" x="251" y="290.3247">メールアドレス入力画面</text><polygon fill="#181818" points="212,320.5234,222,324.5234,212,328.5234,216,324.5234" style="stroke:#181818;stroke-width:1.0;"/><line style="stroke:#181818;stroke-width:1.0;" x1="44" x2="218" y1="324.5234" y2="324.5234"/><text fill="#000000" font-family="sans-serif" font-size="13" lengthAdjust="spacing" textLength="117" x="51" y="319.4575">メールアドレス入力</text><polygon fill="#181818" points="212,349.6563,222,353.6563,212,357.6563,216,353.6563" style="stroke:#181818;stroke-width:1.0;"/><line style="stroke:#181818;stroke-width:1.0;" x1="44" x2="218" y1="353.6563" y2="353.6563"/><text fill="#000000" font-family="sans-serif" font-size="13" lengthAdjust="spacing" textLength="117" x="51" y="348.5903">「メール送信」押下</text><polygon fill="#181818" points="500,378.7891,510,382.7891,500,386.7891,504,382.7891" style="stroke:#181818;stroke-width:1.0;"/><line style="stroke:#181818;stroke-width:1.0;" x1="234" x2="506" y1="382.7891" y2="382.7891"/><text fill="#000000" font-family="sans-serif" font-size="13" lengthAdjust="spacing" textLength="91" x="241" y="377.7231">メール送信依頼</text><polygon fill="#181818" points="245,407.9219,235,411.9219,245,415.9219,241,411.9219" style="stroke:#181818;stroke-width:1.0;"/><line style="stroke:#181818;stroke-width:1.0;stroke-dasharray:2.0,2.0;" x1="239" x2="516" y1="411.9219" y2="411.9219"/><text fill="#000000" font-family="sans-serif" font-size="13" lengthAdjust="spacing" textLength="65" x="251" y="406.856">メール送信</text><polygon fill="#181818" points="212,437.0547,222,441.0547,212,445.0547,216,441.0547" style="stroke:#181818;stroke-width:1.0;"/><line style="stroke:#181818;stroke-width:1.0;" x1="44" x2="218" y1="441.0547" y2="441.0547"/><text fill="#000000" font-family="sans-serif" font-size="13" lengthAdjust="spacing" textLength="65" x="51" y="435.9888">メール承認</text><polygon fill="#181818" points="500,466.1875,510,470.1875,500,474.1875,504,470.1875" style="stroke:#181818;stroke-width:1.0;"/><line style="stroke:#181818;stroke-width:1.0;" x1="234" x2="506" y1="470.1875" y2="470.1875"/><text fill="#000000" font-family="sans-serif" font-size="13" lengthAdjust="spacing" textLength="143" x="241" y="465.1216">承認によるリダイレクト</text><polygon fill="#181818" points="245,495.3203,235,499.3203,245,503.3203,241,499.3203" style="stroke:#181818;stroke-width:1.0;"/><line style="stroke:#181818;stroke-width:1.0;stroke-dasharray:2.0,2.0;" x1="239" x2="516" y1="499.3203" y2="499.3203"/><text fill="#000000" font-family="sans-serif" font-size="13" lengthAdjust="spacing" textLength="208" x="251" y="494.2544">ユーザ名・パスワード入力画面表示</text><polygon fill="#181818" points="212,524.4531,222,528.4531,212,532.4531,216,528.4531" style="stroke:#181818;stroke-width:1.0;"/><line style="stroke:#181818;stroke-width:1.0;" x1="44" x2="218" y1="528.4531" y2="528.4531"/><text fill="#000000" font-family="sans-serif" font-size="13" lengthAdjust="spacing" textLength="156" x="51" y="523.3872">ユーザ名・パスワード入力</text><polygon fill="#181818" points="500,553.5859,510,557.5859,500,561.5859,504,557.5859" style="stroke:#181818;stroke-width:1.0;"/><line style="stroke:#181818;stroke-width:1.0;" x1="234" x2="506" y1="557.5859" y2="557.5859"/><text fill="#000000" font-family="sans-serif" font-size="13" lengthAdjust="spacing" textLength="182" x="241" y="552.52">ユーザ名・パスワード登録依頼</text><polygon fill="#181818" points="55,582.7188,45,586.7188,55,590.7188,51,586.7188" style="stroke:#181818;stroke-width:1.0;"/><line style="stroke:#181818;stroke-width:1.0;stroke-dasharray:2.0,2.0;" x1="49" x2="516" y1="586.7188" y2="586.7188"/><text fill="#000000" font-family="sans-serif" font-size="13" lengthAdjust="spacing" textLength="78" x="61" y="581.6528">登録完了画面</text><polygon fill="#181818" points="212,611.8516,222,615.8516,212,619.8516,216,615.8516" style="stroke:#181818;stroke-width:1.0;"/><line style="stroke:#181818;stroke-width:1.0;" x1="44" x2="218" y1="615.8516" y2="615.8516"/><text fill="#000000" font-family="sans-serif" font-size="13" lengthAdjust="spacing" textLength="156" x="51" y="610.7856">「早速使ってみる」を押下</text><polygon fill="#181818" points="602,656.1172,612,660.1172,602,664.1172,606,660.1172" style="stroke:#181818;stroke-width:1.0;"/><line style="stroke:#181818;stroke-width:1.0;" x1="234" x2="608" y1="660.1172" y2="660.1172"/><text fill="#000000" font-family="sans-serif" font-size="13" lengthAdjust="spacing" textLength="140" x="241" y="639.9185">SPA資材（React）要求</text><text fill="#000000" font-family="sans-serif" font-size="13" lengthAdjust="spacing" textLength="104" x="241" y="655.0513">管理画面資材要求</text><polygon fill="#181818" points="712.5,685.25,722.5,689.25,712.5,693.25,716.5,689.25" style="stroke:#181818;stroke-width:1.0;"/><line style="stroke:#181818;stroke-width:1.0;" x1="624" x2="718.5" y1="689.25" y2="689.25"/><text fill="#000000" font-family="sans-serif" font-size="13" lengthAdjust="spacing" textLength="77" x="631" y="684.1841">SPA資材要求</text><polygon fill="#181818" points="635,714.3828,625,718.3828,635,722.3828,631,718.3828" style="stroke:#181818;stroke-width:1.0;"/><line style="stroke:#181818;stroke-width:1.0;stroke-dasharray:2.0,2.0;" x1="629" x2="728.5" y1="718.3828" y2="718.3828"/><text fill="#000000" font-family="sans-serif" font-size="13" lengthAdjust="spacing" textLength="51" x="641" y="713.3169">SPA資材</text><polygon fill="#181818" points="245,743.5156,235,747.5156,245,751.5156,241,747.5156" style="stroke:#181818;stroke-width:1.0;"/><line style="stroke:#181818;stroke-width:1.0;stroke-dasharray:2.0,2.0;" x1="239" x2="618" y1="747.5156" y2="747.5156"/><text fill="#000000" font-family="sans-serif" font-size="13" lengthAdjust="spacing" textLength="78" x="251" y="742.4497">管理画面表示</text><polygon fill="#181818" points="500,772.6484,510,776.6484,500,780.6484,504,776.6484" style="stroke:#181818;stroke-width:1.0;"/><line style="stroke:#181818;stroke-width:1.0;" x1="234" x2="506" y1="776.6484" y2="776.6484"/><text fill="#000000" font-family="sans-serif" font-size="13" lengthAdjust="spacing" textLength="130" x="241" y="771.5825">トークン用公開鍵要求</text><polygon fill="#181818" points="245,801.7813,235,805.7813,245,809.7813,241,805.7813" style="stroke:#181818;stroke-width:1.0;"/><line style="stroke:#181818;stroke-width:1.0;stroke-dasharray:2.0,2.0;" x1="239" x2="516" y1="805.7813" y2="805.7813"/><text fill="#000000" font-family="sans-serif" font-size="13" lengthAdjust="spacing" textLength="39" x="251" y="800.7153">公開鍵</text><line style="stroke:#181818;stroke-width:1.0;" x1="234" x2="276" y1="834.9141" y2="834.9141"/><line style="stroke:#181818;stroke-width:1.0;" x1="276" x2="276" y1="834.9141" y2="847.9141"/><line style="stroke:#181818;stroke-width:1.0;" x1="235" x2="276" y1="847.9141" y2="847.9141"/><polygon fill="#181818" points="245,843.9141,235,847.9141,245,851.9141,241,847.9141" style="stroke:#181818;stroke-width:1.0;"/><text fill="#000000" font-family="sans-serif" font-size="13" lengthAdjust="spacing" textLength="104" x="241" y="829.8481">トークンチェック</text><path d="M10,862.9141 L76,862.9141 L76,870.0469 L66,880.0469 L10,880.0469 L10,862.9141 " fill="#EEEEEE" style="stroke:#000000;stroke-width:1.5;"/><rect fill="none" height="277.3281" style="stroke:#000000;stroke-width:1.5;" width="557.5" x="10" y="862.9141"/><text fill="#000000" font-family="sans-serif" font-size="13" font-weight="bold" lengthAdjust="spacing" textLength="21" x="25" y="875.981">alt</text><text fill="#000000" font-family="sans-serif" font-size="11" font-weight="bold" lengthAdjust="spacing" textLength="120" x="91" y="875.1245">[トークンチェック失敗]</text><line style="stroke:#181818;stroke-width:1.0;" x1="234" x2="276" y1="901.1797" y2="901.1797"/><line style="stroke:#181818;stroke-width:1.0;" x1="276" x2="276" y1="901.1797" y2="914.1797"/><line style="stroke:#181818;stroke-width:1.0;" x1="235" x2="276" y1="914.1797" y2="914.1797"/><polygon fill="#181818" points="245,910.1797,235,914.1797,245,918.1797,241,914.1797" style="stroke:#181818;stroke-width:1.0;"/><text fill="#000000" font-family="sans-serif" font-size="13" lengthAdjust="spacing" textLength="78" x="241" y="896.1138">ログイン画面</text><polygon fill="#181818" points="500,954.4453,510,958.4453,500,962.4453,504,958.4453" style="stroke:#181818;stroke-width:1.0;"/><line style="stroke:#181818;stroke-width:1.0;" x1="234" x2="506" y1="958.4453" y2="958.4453"/><text fill="#000000" font-family="sans-serif" font-size="13" lengthAdjust="spacing" textLength="104" x="241" y="938.2466">ログイン確立要求</text><text fill="#000000" font-family="sans-serif" font-size="13" lengthAdjust="spacing" textLength="87" x="241" y="953.3794">(Initiate Auth)</text><polygon fill="#181818" points="245,983.5781,235,987.5781,245,991.5781,241,987.5781" style="stroke:#181818;stroke-width:1.0;"/><line style="stroke:#181818;stroke-width:1.0;stroke-dasharray:2.0,2.0;" x1="239" x2="516" y1="987.5781" y2="987.5781"/><text fill="#000000" font-family="sans-serif" font-size="13" lengthAdjust="spacing" textLength="61" x="251" y="982.5122">session等</text><polygon fill="#181818" points="212,1012.7109,222,1016.7109,212,1020.7109,216,1016.7109" style="stroke:#181818;stroke-width:1.0;"/><line style="stroke:#181818;stroke-width:1.0;" x1="44" x2="218" y1="1016.7109" y2="1016.7109"/><text fill="#000000" font-family="sans-serif" font-size="13" lengthAdjust="spacing" textLength="156" x="51" y="1011.645">ユーザ名・パスワード入力</text><polygon fill="#181818" points="500,1056.9766,510,1060.9766,500,1064.9766,504,1060.9766" style="stroke:#181818;stroke-width:1.0;"/><line style="stroke:#181818;stroke-width:1.0;" x1="234" x2="506" y1="1060.9766" y2="1060.9766"/><text fill="#000000" font-family="sans-serif" font-size="13" lengthAdjust="spacing" textLength="140" x="241" y="1040.7778">認証(トークン発行依頼)</text><text fill="#000000" font-family="sans-serif" font-size="13" lengthAdjust="spacing" textLength="192" x="241" y="1055.9106">(Responed to Auth Challenge)</text><polygon fill="#181818" points="245,1086.1094,235,1090.1094,245,1094.1094,241,1090.1094" style="stroke:#181818;stroke-width:1.0;"/><line style="stroke:#181818;stroke-width:1.0;stroke-dasharray:2.0,2.0;" x1="239" x2="516" y1="1090.1094" y2="1090.1094"/><text fill="#000000" font-family="sans-serif" font-size="13" lengthAdjust="spacing" textLength="52" x="251" y="1085.0435">トークン</text><line style="stroke:#181818;stroke-width:1.0;" x1="234" x2="276" y1="1119.2422" y2="1119.2422"/><line style="stroke:#181818;stroke-width:1.0;" x1="276" x2="276" y1="1119.2422" y2="1132.2422"/><line style="stroke:#181818;stroke-width:1.0;" x1="235" x2="276" y1="1132.2422" y2="1132.2422"/><polygon fill="#181818" points="245,1128.2422,235,1132.2422,245,1136.2422,241,1132.2422" style="stroke:#181818;stroke-width:1.0;"/><text fill="#000000" font-family="sans-serif" font-size="13" lengthAdjust="spacing" textLength="104" x="241" y="1114.1763">トークンチェック</text><rect fill="#ADFF2F" height="38" style="stroke:#181818;stroke-width:0.5;" width="203" x="239" y="1152.2422"/><text fill="#000000" font-family="sans-serif" font-size="13" lengthAdjust="spacing" textLength="130" x="243" y="1168.3091">ログインフローを参照</text><text fill="#000000" font-family="sans-serif" font-size="13" lengthAdjust="spacing" textLength="195" x="243" y="1183.4419">ログイン周りの処理をここで実施</text><line style="stroke:#181818;stroke-width:1.0;" x1="234" x2="276" y1="1216.6406" y2="1216.6406"/><line style="stroke:#181818;stroke-width:1.0;" x1="276" x2="276" y1="1216.6406" y2="1229.6406"/><line style="stroke:#181818;stroke-width:1.0;" x1="235" x2="276" y1="1229.6406" y2="1229.6406"/><polygon fill="#181818" points="245,1225.6406,235,1229.6406,245,1233.6406,241,1229.6406" style="stroke:#181818;stroke-width:1.0;"/><text fill="#000000" font-family="sans-serif" font-size="13" lengthAdjust="spacing" textLength="117" x="241" y="1211.5747">プラン選択画面表示</text><polygon fill="#181818" points="829,1254.7734,839,1258.7734,829,1262.7734,833,1258.7734" style="stroke:#181818;stroke-width:1.0;"/><line style="stroke:#181818;stroke-width:1.0;" x1="234" x2="835" y1="1258.7734" y2="1258.7734"/><text fill="#000000" font-family="sans-serif" font-size="13" lengthAdjust="spacing" textLength="111" x="241" y="1253.7075">プラン情報取得API</text><polygon fill="#181818" points="245,1283.9063,235,1287.9063,245,1291.9063,241,1287.9063" style="stroke:#181818;stroke-width:1.0;"/><line style="stroke:#181818;stroke-width:1.0;stroke-dasharray:2.0,2.0;" x1="239" x2="845" y1="1287.9063" y2="1287.9063"/><text fill="#000000" font-family="sans-serif" font-size="13" lengthAdjust="spacing" textLength="65" x="251" y="1282.8403">プラン情報</text><polygon fill="#181818" points="212,1313.0391,222,1317.0391,212,1321.0391,216,1317.0391" style="stroke:#181818;stroke-width:1.0;"/><line style="stroke:#181818;stroke-width:1.0;" x1="44" x2="218" y1="1317.0391" y2="1317.0391"/><text fill="#000000" font-family="sans-serif" font-size="13" lengthAdjust="spacing" textLength="65" x="51" y="1311.9731">プラン選択</text><polygon fill="#181818" points="829,1342.1719,839,1346.1719,829,1350.1719,833,1346.1719" style="stroke:#181818;stroke-width:1.0;"/><line style="stroke:#181818;stroke-width:1.0;" x1="234" x2="835" y1="1346.1719" y2="1346.1719"/><text fill="#000000" font-family="sans-serif" font-size="13" lengthAdjust="spacing" textLength="85" x="241" y="1341.106">プラン登録API</text><polygon fill="#181818" points="245,1356.1719,235,1360.1719,245,1364.1719,241,1360.1719" style="stroke:#181818;stroke-width:1.0;"/><line style="stroke:#181818;stroke-width:1.0;stroke-dasharray:2.0,2.0;" x1="239" x2="845" y1="1360.1719" y2="1360.1719"/><line style="stroke:#181818;stroke-width:1.0;" x1="234" x2="276" y1="1389.3047" y2="1389.3047"/><line style="stroke:#181818;stroke-width:1.0;" x1="276" x2="276" y1="1389.3047" y2="1402.3047"/><line style="stroke:#181818;stroke-width:1.0;" x1="235" x2="276" y1="1402.3047" y2="1402.3047"/><polygon fill="#181818" points="245,1398.3047,235,1402.3047,245,1406.3047,241,1402.3047" style="stroke:#181818;stroke-width:1.0;"/><text fill="#000000" font-family="sans-serif" font-size="13" lengthAdjust="spacing" textLength="167" x="241" y="1384.2388">カード登録画面表示：Stripe</text><polygon fill="#181818" points="212,1427.4375,222,1431.4375,212,1435.4375,216,1431.4375" style="stroke:#181818;stroke-width:1.0;"/><line style="stroke:#181818;stroke-width:1.0;" x1="44" x2="218" y1="1431.4375" y2="1431.4375"/><text fill="#000000" font-family="sans-serif" font-size="13" lengthAdjust="spacing" textLength="91" x="51" y="1426.3716">カード情報入力</text><polygon fill="#181818" points="829,1456.5703,839,1460.5703,829,1464.5703,833,1460.5703" style="stroke:#181818;stroke-width:1.0;"/><line style="stroke:#181818;stroke-width:1.0;" x1="234" x2="835" y1="1460.5703" y2="1460.5703"/><text fill="#000000" font-family="sans-serif" font-size="13" lengthAdjust="spacing" textLength="56" x="241" y="1455.5044">stripeAPI</text><polygon fill="#181818" points="245,1470.5703,235,1474.5703,245,1478.5703,241,1474.5703" style="stroke:#181818;stroke-width:1.0;"/><line style="stroke:#181818;stroke-width:1.0;stroke-dasharray:2.0,2.0;" x1="239" x2="845" y1="1474.5703" y2="1474.5703"/><line style="stroke:#181818;stroke-width:1.0;" x1="234" x2="276" y1="1503.7031" y2="1503.7031"/><line style="stroke:#181818;stroke-width:1.0;" x1="276" x2="276" y1="1503.7031" y2="1516.7031"/><line style="stroke:#181818;stroke-width:1.0;" x1="235" x2="276" y1="1516.7031" y2="1516.7031"/><polygon fill="#181818" points="245,1512.7031,235,1516.7031,245,1520.7031,241,1516.7031" style="stroke:#181818;stroke-width:1.0;"/><text fill="#000000" font-family="sans-serif" font-size="13" lengthAdjust="spacing" textLength="104" x="241" y="1498.6372">登録完了画面表示</text><polygon fill="#181818" points="212,1541.8359,222,1545.8359,212,1549.8359,216,1545.8359" style="stroke:#181818;stroke-width:1.0;"/><line style="stroke:#181818;stroke-width:1.0;" x1="44" x2="218" y1="1545.8359" y2="1545.8359"/><text fill="#000000" font-family="sans-serif" font-size="13" lengthAdjust="spacing" textLength="143" x="51" y="1540.77">「サイト情報登録」押下</text><line style="stroke:#181818;stroke-width:1.0;" x1="234" x2="276" y1="1574.9688" y2="1574.9688"/><line style="stroke:#181818;stroke-width:1.0;" x1="276" x2="276" y1="1574.9688" y2="1587.9688"/><line style="stroke:#181818;stroke-width:1.0;" x1="235" x2="276" y1="1587.9688" y2="1587.9688"/><polygon fill="#181818" points="245,1583.9688,235,1587.9688,245,1591.9688,241,1587.9688" style="stroke:#181818;stroke-width:1.0;"/><text fill="#000000" font-family="sans-serif" font-size="13" lengthAdjust="spacing" textLength="130" x="241" y="1569.9028">サイト名入力画面表示</text><polygon fill="#181818" points="212,1613.1016,222,1617.1016,212,1621.1016,216,1617.1016" style="stroke:#181818;stroke-width:1.0;"/><line style="stroke:#181818;stroke-width:1.0;" x1="44" x2="218" y1="1617.1016" y2="1617.1016"/><text fill="#000000" font-family="sans-serif" font-size="13" lengthAdjust="spacing" textLength="78" x="51" y="1612.0356">サイト名入力</text><line style="stroke:#181818;stroke-width:1.0;" x1="234" x2="276" y1="1646.2344" y2="1646.2344"/><line style="stroke:#181818;stroke-width:1.0;" x1="276" x2="276" y1="1646.2344" y2="1659.2344"/><line style="stroke:#181818;stroke-width:1.0;" x1="235" x2="276" y1="1659.2344" y2="1659.2344"/><polygon fill="#181818" points="245,1655.2344,235,1659.2344,245,1663.2344,241,1659.2344" style="stroke:#181818;stroke-width:1.0;"/><text fill="#000000" font-family="sans-serif" font-size="13" lengthAdjust="spacing" textLength="156" x="241" y="1641.1685">ドメイン方式選択画面表示</text><path d="M239,1672.2344 L239,1757.2344 L481,1757.2344 L481,1682.2344 L471,1672.2344 L239,1672.2344 " fill="#FEFFDD" style="stroke:#181818;stroke-width:0.5;"/><path d="M471,1672.2344 L471,1682.2344 L481,1682.2344 L471,1672.2344 " fill="#FEFFDD" style="stroke:#181818;stroke-width:0.5;"/><text fill="#000000" font-family="sans-serif" font-size="13" lengthAdjust="spacing" textLength="169" x="245" y="1689.3013">ドメイン方式は以下から選択</text><ellipse cx="250.5" cy="1700" fill="#000000" rx="2.5" ry="2.5" style="stroke:#000000;stroke-width:0.0;"/><text fill="#000000" font-family="sans-serif" font-size="13" lengthAdjust="spacing" textLength="143" x="257" y="1704.4341">自分で取得したドメイン</text><ellipse cx="250.5" cy="1715.1328" fill="#000000" rx="2.5" ry="2.5" style="stroke:#000000;stroke-width:0.0;"/><text fill="#000000" font-family="sans-serif" font-size="13" lengthAdjust="spacing" textLength="184" x="257" y="1719.5669">Sonic Host提供のサブドメイン</text><text fill="#000000" font-family="sans-serif" font-size="13" lengthAdjust="spacing" textLength="78" x="245" y="1734.6997">金額かえる？</text><text fill="#000000" font-family="sans-serif" font-size="13" lengthAdjust="spacing" textLength="221" x="245" y="1749.8325">なら、カード入力のタイミング考慮要</text><polygon fill="#181818" points="212,1780.0313,222,1784.0313,212,1788.0313,216,1784.0313" style="stroke:#181818;stroke-width:1.0;"/><line style="stroke:#181818;stroke-width:1.0;" x1="44" x2="218" y1="1784.0313" y2="1784.0313"/><text fill="#000000" font-family="sans-serif" font-size="13" lengthAdjust="spacing" textLength="104" x="51" y="1778.9653">ドメイン方式選択</text><path d="M10,1799.0313 L76,1799.0313 L76,1806.1641 L66,1816.1641 L10,1816.1641 L10,1799.0313 " fill="#EEEEEE" style="stroke:#000000;stroke-width:1.5;"/><rect fill="none" height="448.5313" style="stroke:#000000;stroke-width:1.5;" width="903.5" x="10" y="1799.0313"/><text fill="#000000" font-family="sans-serif" font-size="13" font-weight="bold" lengthAdjust="spacing" textLength="21" x="25" y="1812.0981">alt</text><text fill="#000000" font-family="sans-serif" font-size="11" font-weight="bold" lengthAdjust="spacing" textLength="131" x="91" y="1811.2417">[自前ドメイン方式の場合]</text><line style="stroke:#181818;stroke-width:1.0;" x1="234" x2="276" y1="1837.2969" y2="1837.2969"/><line style="stroke:#181818;stroke-width:1.0;" x1="276" x2="276" y1="1837.2969" y2="1850.2969"/><line style="stroke:#181818;stroke-width:1.0;" x1="235" x2="276" y1="1850.2969" y2="1850.2969"/><polygon fill="#181818" points="245,1846.2969,235,1850.2969,245,1854.2969,241,1850.2969" style="stroke:#181818;stroke-width:1.0;"/><text fill="#000000" font-family="sans-serif" font-size="13" lengthAdjust="spacing" textLength="130" x="241" y="1832.231">ドメイン入力画面表示</text><polygon fill="#181818" points="212,1875.4297,222,1879.4297,212,1883.4297,216,1879.4297" style="stroke:#181818;stroke-width:1.0;"/><line style="stroke:#181818;stroke-width:1.0;" x1="44" x2="218" y1="1879.4297" y2="1879.4297"/><text fill="#000000" font-family="sans-serif" font-size="13" lengthAdjust="spacing" textLength="91" x="51" y="1874.3638">ドメイン名入力</text><polygon fill="#181818" points="212,1904.5625,222,1908.5625,212,1912.5625,216,1908.5625" style="stroke:#181818;stroke-width:1.0;"/><line style="stroke:#181818;stroke-width:1.0;" x1="44" x2="218" y1="1908.5625" y2="1908.5625"/><text fill="#000000" font-family="sans-serif" font-size="13" lengthAdjust="spacing" textLength="78" x="51" y="1903.4966">「確定」押下</text><polygon fill="#181818" points="829,1933.6953,839,1937.6953,829,1941.6953,833,1937.6953" style="stroke:#181818;stroke-width:1.0;"/><line style="stroke:#181818;stroke-width:1.0;" x1="234" x2="835" y1="1937.6953" y2="1937.6953"/><text fill="#000000" font-family="sans-serif" font-size="13" lengthAdjust="spacing" textLength="111" x="241" y="1932.6294">ドメイン仮登録API</text><polygon fill="#181818" points="245,1947.6953,235,1951.6953,245,1955.6953,241,1951.6953" style="stroke:#181818;stroke-width:1.0;"/><line style="stroke:#181818;stroke-width:1.0;stroke-dasharray:2.0,2.0;" x1="239" x2="845" y1="1951.6953" y2="1951.6953"/><line style="stroke:#181818;stroke-width:1.0;" x1="234" x2="276" y1="1980.8281" y2="1980.8281"/><line style="stroke:#181818;stroke-width:1.0;" x1="276" x2="276" y1="1980.8281" y2="1993.8281"/><line style="stroke:#181818;stroke-width:1.0;" x1="235" x2="276" y1="1993.8281" y2="1993.8281"/><polygon fill="#181818" points="245,1989.8281,235,1993.8281,245,1997.8281,241,1993.8281" style="stroke:#181818;stroke-width:1.0;"/><text fill="#000000" font-family="sans-serif" font-size="13" lengthAdjust="spacing" textLength="130" x="241" y="1975.7622">ネームサーバ表示画面</text><polygon fill="#181818" points="212,2018.9609,222,2022.9609,212,2026.9609,216,2022.9609" style="stroke:#181818;stroke-width:1.0;"/><line style="stroke:#181818;stroke-width:1.0;" x1="44" x2="218" y1="2022.9609" y2="2022.9609"/><text fill="#000000" font-family="sans-serif" font-size="13" lengthAdjust="spacing" textLength="26" x="51" y="2017.895">確認</text><polygon fill="#181818" points="212,2048.0938,222,2052.0938,212,2056.0938,216,2052.0938" style="stroke:#181818;stroke-width:1.0;"/><line style="stroke:#181818;stroke-width:1.0;" x1="44" x2="218" y1="2052.0938" y2="2052.0938"/><text fill="#000000" font-family="sans-serif" font-size="13" lengthAdjust="spacing" textLength="78" x="51" y="2047.0278">「次へ」押下</text><line style="stroke:#000000;stroke-width:1.0;stroke-dasharray:2.0,2.0;" x1="10" x2="913.5" y1="2061.0938" y2="2061.0938"/><text fill="#000000" font-family="sans-serif" font-size="11" font-weight="bold" lengthAdjust="spacing" textLength="203" x="15" y="2071.3042">[Sonic Hostサブドメイン方式の場合]</text><polygon fill="#181818" points="829,2092.0313,839,2096.0313,829,2100.0313,833,2096.0313" style="stroke:#181818;stroke-width:1.0;"/><line style="stroke:#181818;stroke-width:1.0;" x1="234" x2="835" y1="2096.0313" y2="2096.0313"/><text fill="#000000" font-family="sans-serif" font-size="13" lengthAdjust="spacing" textLength="124" x="241" y="2090.9653">ドメイン一覧取得API</text><polygon fill="#181818" points="245,2106.0313,235,2110.0313,245,2114.0313,241,2110.0313" style="stroke:#181818;stroke-width:1.0;"/><line style="stroke:#181818;stroke-width:1.0;stroke-dasharray:2.0,2.0;" x1="239" x2="845" y1="2110.0313" y2="2110.0313"/><line style="stroke:#181818;stroke-width:1.0;" x1="234" x2="276" y1="2139.1641" y2="2139.1641"/><line style="stroke:#181818;stroke-width:1.0;" x1="276" x2="276" y1="2139.1641" y2="2152.1641"/><line style="stroke:#181818;stroke-width:1.0;" x1="235" x2="276" y1="2152.1641" y2="2152.1641"/><polygon fill="#181818" points="245,2148.1641,235,2152.1641,245,2156.1641,241,2152.1641" style="stroke:#181818;stroke-width:1.0;"/><text fill="#000000" font-family="sans-serif" font-size="13" lengthAdjust="spacing" textLength="169" x="241" y="2134.0981">ドメイン選択・入力画面表示</text><polygon fill="#181818" points="212,2177.2969,222,2181.2969,212,2185.2969,216,2181.2969" style="stroke:#181818;stroke-width:1.0;"/><line style="stroke:#181818;stroke-width:1.0;" x1="44" x2="218" y1="2181.2969" y2="2181.2969"/><text fill="#000000" font-family="sans-serif" font-size="13" lengthAdjust="spacing" textLength="78" x="51" y="2176.231">ドメイン選択</text><polygon fill="#181818" points="212,2206.4297,222,2210.4297,212,2214.4297,216,2210.4297" style="stroke:#181818;stroke-width:1.0;"/><line style="stroke:#181818;stroke-width:1.0;" x1="44" x2="218" y1="2210.4297" y2="2210.4297"/><text fill="#000000" font-family="sans-serif" font-size="13" lengthAdjust="spacing" textLength="104" x="51" y="2205.3638">サブドメイン入力</text><polygon fill="#181818" points="212,2235.5625,222,2239.5625,212,2243.5625,216,2239.5625" style="stroke:#181818;stroke-width:1.0;"/><line style="stroke:#181818;stroke-width:1.0;" x1="44" x2="218" y1="2239.5625" y2="2239.5625"/><text fill="#000000" font-family="sans-serif" font-size="13" lengthAdjust="spacing" textLength="78" x="51" y="2234.4966">「次へ」押下</text><line style="stroke:#181818;stroke-width:1.0;" x1="234" x2="276" y1="2275.6953" y2="2275.6953"/><line style="stroke:#181818;stroke-width:1.0;" x1="276" x2="276" y1="2275.6953" y2="2288.6953"/><line style="stroke:#181818;stroke-width:1.0;" x1="235" x2="276" y1="2288.6953" y2="2288.6953"/><polygon fill="#181818" points="245,2284.6953,235,2288.6953,245,2292.6953,241,2288.6953" style="stroke:#181818;stroke-width:1.0;"/><text fill="#000000" font-family="sans-serif" font-size="13" lengthAdjust="spacing" textLength="143" x="241" y="2270.6294">サブドメインズ入力画面</text><polygon fill="#181818" points="212,2313.8281,222,2317.8281,212,2321.8281,216,2317.8281" style="stroke:#181818;stroke-width:1.0;"/><line style="stroke:#181818;stroke-width:1.0;" x1="44" x2="218" y1="2317.8281" y2="2317.8281"/><text fill="#000000" font-family="sans-serif" font-size="13" lengthAdjust="spacing" textLength="117" x="51" y="2312.7622">サイトドメイン入力</text><polygon fill="#181818" points="212,2342.9609,222,2346.9609,212,2350.9609,216,2346.9609" style="stroke:#181818;stroke-width:1.0;"/><line style="stroke:#181818;stroke-width:1.0;" x1="44" x2="218" y1="2346.9609" y2="2346.9609"/><text fill="#000000" font-family="sans-serif" font-size="13" lengthAdjust="spacing" textLength="117" x="51" y="2341.895">メールドメイン入力</text><polygon fill="#181818" points="212,2372.0938,222,2376.0938,212,2380.0938,216,2376.0938" style="stroke:#181818;stroke-width:1.0;"/><line style="stroke:#181818;stroke-width:1.0;" x1="44" x2="218" y1="2376.0938" y2="2376.0938"/><text fill="#000000" font-family="sans-serif" font-size="13" lengthAdjust="spacing" textLength="78" x="51" y="2371.0278">「確認」押下</text><line style="stroke:#181818;stroke-width:1.0;" x1="234" x2="276" y1="2405.2266" y2="2405.2266"/><line style="stroke:#181818;stroke-width:1.0;" x1="276" x2="276" y1="2405.2266" y2="2418.2266"/><line style="stroke:#181818;stroke-width:1.0;" x1="235" x2="276" y1="2418.2266" y2="2418.2266"/><polygon fill="#181818" points="245,2414.2266,235,2418.2266,245,2422.2266,241,2418.2266" style="stroke:#181818;stroke-width:1.0;"/><text fill="#000000" font-family="sans-serif" font-size="13" lengthAdjust="spacing" textLength="130" x="241" y="2400.1606">入力内容確認画面表示</text><rect fill="#87CEEB" height="53" style="stroke:#181818;stroke-width:0.5;" width="294" x="239" y="2431.2266"/><text fill="#000000" font-family="sans-serif" font-size="13" lengthAdjust="spacing" textLength="286" x="243" y="2447.2935">変更したい項目があれば「変更」ボタンを押下。</text><text fill="#000000" font-family="sans-serif" font-size="13" lengthAdjust="spacing" textLength="260" x="243" y="2462.4263">外套の変更画面に遷移し、「確認」ボタンを</text><text fill="#000000" font-family="sans-serif" font-size="13" lengthAdjust="spacing" textLength="156" x="243" y="2477.5591">押下すると今の画面に戻る</text><polygon fill="#181818" points="212,2506.7578,222,2510.7578,212,2514.7578,216,2510.7578" style="stroke:#181818;stroke-width:1.0;"/><line style="stroke:#181818;stroke-width:1.0;" x1="44" x2="218" y1="2510.7578" y2="2510.7578"/><text fill="#000000" font-family="sans-serif" font-size="13" lengthAdjust="spacing" textLength="78" x="51" y="2505.6919">「確定」押下</text><polygon fill="#181818" points="829,2535.8906,839,2539.8906,829,2543.8906,833,2539.8906" style="stroke:#181818;stroke-width:1.0;"/><line style="stroke:#181818;stroke-width:1.0;" x1="234" x2="835" y1="2539.8906" y2="2539.8906"/><text fill="#000000" font-family="sans-serif" font-size="13" lengthAdjust="spacing" textLength="111" x="241" y="2534.8247">サイト情報更新API</text><polygon fill="#181818" points="245,2549.8906,235,2553.8906,245,2557.8906,241,2553.8906" style="stroke:#181818;stroke-width:1.0;"/><line style="stroke:#181818;stroke-width:1.0;stroke-dasharray:2.0,2.0;" x1="239" x2="845" y1="2553.8906" y2="2553.8906"/><line style="stroke:#181818;stroke-width:1.0;" x1="234" x2="276" y1="2583.0234" y2="2583.0234"/><line style="stroke:#181818;stroke-width:1.0;" x1="276" x2="276" y1="2583.0234" y2="2596.0234"/><line style="stroke:#181818;stroke-width:1.0;" x1="235" x2="276" y1="2596.0234" y2="2596.0234"/><polygon fill="#181818" points="245,2592.0234,235,2596.0234,245,2600.0234,241,2596.0234" style="stroke:#181818;stroke-width:1.0;"/><text fill="#000000" font-family="sans-serif" font-size="13" lengthAdjust="spacing" textLength="112" x="241" y="2577.9575">Welcome画面表示</text><polygon fill="#181818" points="212,2621.1563,222,2625.1563,212,2629.1563,216,2625.1563" style="stroke:#181818;stroke-width:1.0;"/><line style="stroke:#181818;stroke-width:1.0;" x1="44" x2="218" y1="2625.1563" y2="2625.1563"/><text fill="#000000" font-family="sans-serif" font-size="13" lengthAdjust="spacing" textLength="129" x="51" y="2620.0903">「Homeへ進む」押下</text><line style="stroke:#181818;stroke-width:1.0;" x1="234" x2="276" y1="2654.2891" y2="2654.2891"/><line style="stroke:#181818;stroke-width:1.0;" x1="276" x2="276" y1="2654.2891" y2="2667.2891"/><line style="stroke:#181818;stroke-width:1.0;" x1="235" x2="276" y1="2667.2891" y2="2667.2891"/><polygon fill="#181818" points="245,2663.2891,235,2667.2891,245,2671.2891,241,2667.2891" style="stroke:#181818;stroke-width:1.0;"/><text fill="#000000" font-family="sans-serif" font-size="13" lengthAdjust="spacing" textLength="89" x="241" y="2649.2231">HOME画面表示</text><!--MD5=[022a7d1fd03cd57cb5a1af0fca50d270]
@startuml
title 会員登録フロー

' アクター定義
actor "ユーザ" as user
participant "クライアント端末\n(PCまたはスマホ)" as device
participant "Webサーバ" as site
participant "認証基盤\n(Cognito)" as cognito
participant "CDN\n(CloudFront)" as cdn
participant "SPA資材格納\n(S3)" as spa
participant "SonicHost API\n(API-Gateway)" as api


' シーケンス
' Webサイト編
user -> device ++ 
device -> site ++ : サイト参照
device <- - site - - : サイト表示
user -> device : 「登録」押下

' Cognito登録編（ユーザ登録）
device -> cognito ++ : ユーザ登録画面要求
device <- - cognito - - : 登録画面表示\nメールアドレス入力画面
user -> device : メールアドレス入力
user -> device : 「メール送信」押下
device -> cognito ++ : メール送信依頼
device <- - cognito - - : メール送信
user -> device : メール承認
device -> cognito ++ : 承認によるリダイレクト
device <- - cognito - - : ユーザ名・パスワード入力画面表示
user -> device :ユーザ名・パスワード入力
device -> cognito ++ : ユーザ名・パスワード登録依頼
user <- - cognito - - : 登録完了画面
user -> device : 「早速使ってみる」を押下

' 管理画面取得編
device -> cdn ++ : SPA資材（React）要求\n管理画面資材要求 
cdn -> spa ++ : SPA資材要求
cdn <- - spa - - : SPA資材
device <- - cdn - - : 管理画面表示
device -> cognito ++ : トークン用公開鍵要求
device <- - cognito - - : 公開鍵
device -> device : トークンチェック
alt トークンチェック失敗
    device -> device : ログイン画面
    device -> cognito ++ : ログイン確立要求\n(Initiate Auth)
    device <- - cognito - - : session等
    user -> device : ユーザ名・パスワード入力
    device -> cognito ++ : 認証(トークン発行依頼)\n(Responed to Auth Challenge)
    device <- - cognito - - : トークン
    device -> device : トークンチェック
end

rnote right of device #GreenYellow
    ログインフローを参照
    ログイン周りの処理をここで実施
end note

device -> device : プラン選択画面表示
device -> api ++ : プラン情報取得API
device <- - api - - : プラン情報
user -> device : プラン選択
device -> api ++ : プラン登録API
device <- - api - - 
device -> device : カード登録画面表示：Stripe
user -> device : カード情報入力
device -> api ++ : stripeAPI
device <- - api - - 
device -> device : 登録完了画面表示
user -> device : 「サイト情報登録」押下
device -> device : サイト名入力画面表示
user -> device : サイト名入力
device -> device : ドメイン方式選択画面表示
note right of device 
    ドメイン方式は以下から選択
    * 自分で取得したドメイン
    * Sonic Host提供のサブドメイン
    金額かえる？
    なら、カード入力のタイミング考慮要
end note
user -> device : ドメイン方式選択
alt 自前ドメイン方式の場合
    device -> device :ドメイン入力画面表示
    user -> device : ドメイン名入力
    user -> device : 「確定」押下
    device -> api ++ : ドメイン仮登録API
    device <- - api - - 
    device -> device : ネームサーバ表示画面
    user -> device : 確認
    user -> device : 「次へ」押下
else Sonic Hostサブドメイン方式の場合
    device -> api ++ : ドメイン一覧取得API
    device <- - api - - 
    device -> device : ドメイン選択・入力画面表示
    user -> device : ドメイン選択
    user -> device : サブドメイン入力
    user -> device : 「次へ」押下
end 
device -> device : サブドメインズ入力画面
user -> device : サイトドメイン入力
user -> device : メールドメイン入力
user -> device : 「確認」押下
device -> device : 入力内容確認画面表示
rnote right of device #SkyBlue
    変更したい項目があれば「変更」ボタンを押下。
    外套の変更画面に遷移し、「確認」ボタンを
    押下すると今の画面に戻る
end note
user -> device : 「確定」押下
device -> api ++ : サイト情報更新API
device <- - api - - 
device -> device : Welcome画面表示
user -> device : 「Homeへ進む」押下
device -> device : HOME画面表示
@enduml

@startuml
title 会員登録フロー

actor "ユーザ" as user
participant "クライアント端末\n(PCまたはスマホ)" as device
participant "Webサーバ" as site
participant "認証基盤\n(Cognito)" as cognito
participant "CDN\n(CloudFront)" as cdn
participant "SPA資材格納\n(S3)" as spa
participant "SonicHost API\n(API-Gateway)" as api


user -> device ++ 
device -> site ++ : サイト参照
device <- - site - - : サイト表示
user -> device : 「登録」押下

device -> cognito ++ : ユーザ登録画面要求
device <- - cognito - - : 登録画面表示\nメールアドレス入力画面
user -> device : メールアドレス入力
user -> device : 「メール送信」押下
device -> cognito ++ : メール送信依頼
device <- - cognito - - : メール送信
user -> device : メール承認
device -> cognito ++ : 承認によるリダイレクト
device <- - cognito - - : ユーザ名・パスワード入力画面表示
user -> device :ユーザ名・パスワード入力
device -> cognito ++ : ユーザ名・パスワード登録依頼
user <- - cognito - - : 登録完了画面
user -> device : 「早速使ってみる」を押下

device -> cdn ++ : SPA資材（React）要求\n管理画面資材要求 
cdn -> spa ++ : SPA資材要求
cdn <- - spa - - : SPA資材
device <- - cdn - - : 管理画面表示
device -> cognito ++ : トークン用公開鍵要求
device <- - cognito - - : 公開鍵
device -> device : トークンチェック
alt トークンチェック失敗
    device -> device : ログイン画面
    device -> cognito ++ : ログイン確立要求\n(Initiate Auth)
    device <- - cognito - - : session等
    user -> device : ユーザ名・パスワード入力
    device -> cognito ++ : 認証(トークン発行依頼)\n(Responed to Auth Challenge)
    device <- - cognito - - : トークン
    device -> device : トークンチェック
end

rnote right of device #GreenYellow
    ログインフローを参照
    ログイン周りの処理をここで実施
end note

device -> device : プラン選択画面表示
device -> api ++ : プラン情報取得API
device <- - api - - : プラン情報
user -> device : プラン選択
device -> api ++ : プラン登録API
device <- - api - - 
device -> device : カード登録画面表示：Stripe
user -> device : カード情報入力
device -> api ++ : stripeAPI
device <- - api - - 
device -> device : 登録完了画面表示
user -> device : 「サイト情報登録」押下
device -> device : サイト名入力画面表示
user -> device : サイト名入力
device -> device : ドメイン方式選択画面表示
note right of device 
    ドメイン方式は以下から選択
    * 自分で取得したドメイン
    * Sonic Host提供のサブドメイン
    金額かえる？
    なら、カード入力のタイミング考慮要
end note
user -> device : ドメイン方式選択
alt 自前ドメイン方式の場合
    device -> device :ドメイン入力画面表示
    user -> device : ドメイン名入力
    user -> device : 「確定」押下
    device -> api ++ : ドメイン仮登録API
    device <- - api - - 
    device -> device : ネームサーバ表示画面
    user -> device : 確認
    user -> device : 「次へ」押下
else Sonic Hostサブドメイン方式の場合
    device -> api ++ : ドメイン一覧取得API
    device <- - api - - 
    device -> device : ドメイン選択・入力画面表示
    user -> device : ドメイン選択
    user -> device : サブドメイン入力
    user -> device : 「次へ」押下
end 
device -> device : サブドメインズ入力画面
user -> device : サイトドメイン入力
user -> device : メールドメイン入力
user -> device : 「確認」押下
device -> device : 入力内容確認画面表示
rnote right of device #SkyBlue
    変更したい項目があれば「変更」ボタンを押下。
    外套の変更画面に遷移し、「確認」ボタンを
    押下すると今の画面に戻る
end note
user -> device : 「確定」押下
device -> api ++ : サイト情報更新API
device <- - api - - 
device -> device : Welcome画面表示
user -> device : 「Homeへ進む」押下
device -> device : HOME画面表示
@enduml

PlantUML version 1.2022.13beta8(Unknown compile time)
(GPL source distribution)
Java Runtime: Java(TM) SE Runtime Environment
JVM: Java HotSpot(TM) 64-Bit Server VM
Default Encoding: UTF-8
Language: en
Country: US
--></g></svg>