<?xml version="1.0" encoding="us-ascii" standalone="no"?><svg xmlns="http://www.w3.org/2000/svg" xmlns:xlink="http://www.w3.org/1999/xlink" contentStyleType="text/css" height="909px" preserveAspectRatio="none" style="width:584px;height:909px;background:#FFFFFF;" version="1.1" viewBox="0 0 584 909" width="584px" zoomAndPan="magnify"><defs/><g><text fill="#000000" font-family="sans-serif" font-size="14" font-weight="bold" lengthAdjust="spacing" textLength="75" x="256.5" y="27.9951">&#12469;&#12452;&#12488;&#21066;&#38500;</text><rect fill="#FFFFFF" height="669.5234" style="stroke:#181818;stroke-width:1.0;" width="10" x="183" y="149.7266"/><rect fill="#FFFFFF" height="182.5313" style="stroke:#181818;stroke-width:1.0;" width="10" x="402" y="413.9219"/><rect fill="#FFFFFF" height="14" style="stroke:#181818;stroke-width:1.0;" width="10" x="402" y="711.9844"/><line style="stroke:#181818;stroke-width:0.5;stroke-dasharray:5.0,5.0;" x1="29" x2="29" y1="118.5938" y2="828.25"/><line style="stroke:#181818;stroke-width:0.5;stroke-dasharray:5.0,5.0;" x1="187.5" x2="187.5" y1="118.5938" y2="828.25"/><line style="stroke:#181818;stroke-width:0.5;stroke-dasharray:5.0,5.0;" x1="406.5" x2="406.5" y1="118.5938" y2="828.25"/><text fill="#000000" font-family="sans-serif" font-size="14" lengthAdjust="spacing" textLength="42" x="5" y="115.292">&#12518;&#12540;&#12470;</text><ellipse cx="29" cy="50.7969" fill="#E2E2F0" rx="8" ry="8" style="stroke:#181818;stroke-width:0.5;"/><path d="M29,58.7969 L29,85.7969 M16,66.7969 L42,66.7969 M29,85.7969 L16,100.7969 M29,85.7969 L42,100.7969 " fill="none" style="stroke:#181818;stroke-width:0.5;"/><text fill="#000000" font-family="sans-serif" font-size="14" lengthAdjust="spacing" textLength="42" x="5" y="840.2451">&#12518;&#12540;&#12470;</text><ellipse cx="29" cy="852.0469" fill="#E2E2F0" rx="8" ry="8" style="stroke:#181818;stroke-width:0.5;"/><path d="M29,860.0469 L29,887.0469 M16,868.0469 L42,868.0469 M29,887.0469 L16,902.0469 M29,887.0469 L42,902.0469 " fill="none" style="stroke:#181818;stroke-width:0.5;"/><rect fill="#E2E2F0" height="46.5938" rx="2.5" ry="2.5" style="stroke:#181818;stroke-width:0.5;" width="127" x="124.5" y="71"/><text fill="#000000" font-family="sans-serif" font-size="14" lengthAdjust="spacing" textLength="112" x="132" y="90.9951">&#12463;&#12521;&#12452;&#12450;&#12531;&#12488;&#31471;&#26411;</text><text fill="#000000" font-family="sans-serif" font-size="14" lengthAdjust="spacing" textLength="113" x="131.5" y="107.292">(PC&#12414;&#12383;&#12399;&#12473;&#12510;&#12507;)</text><rect fill="#E2E2F0" height="46.5938" rx="2.5" ry="2.5" style="stroke:#181818;stroke-width:0.5;" width="127" x="124.5" y="827.25"/><text fill="#000000" font-family="sans-serif" font-size="14" lengthAdjust="spacing" textLength="112" x="132" y="847.2451">&#12463;&#12521;&#12452;&#12450;&#12531;&#12488;&#31471;&#26411;</text><text fill="#000000" font-family="sans-serif" font-size="14" lengthAdjust="spacing" textLength="113" x="131.5" y="863.542">(PC&#12414;&#12383;&#12399;&#12473;&#12510;&#12507;)</text><rect fill="#E2E2F0" height="46.5938" rx="2.5" ry="2.5" style="stroke:#181818;stroke-width:0.5;" width="151" x="331.5" y="71"/><text fill="#000000" font-family="sans-serif" font-size="14" lengthAdjust="spacing" textLength="99" x="357.5" y="90.9951">SonicHost API</text><text fill="#000000" font-family="sans-serif" font-size="14" lengthAdjust="spacing" textLength="137" x="338.5" y="107.292">(CDN/API-Gateway)</text><rect fill="#E2E2F0" height="46.5938" rx="2.5" ry="2.5" style="stroke:#181818;stroke-width:0.5;" width="151" x="331.5" y="827.25"/><text fill="#000000" font-family="sans-serif" font-size="14" lengthAdjust="spacing" textLength="99" x="357.5" y="847.2451">SonicHost API</text><text fill="#000000" font-family="sans-serif" font-size="14" lengthAdjust="spacing" textLength="137" x="338.5" y="863.542">(CDN/API-Gateway)</text><rect fill="#FFFFFF" height="669.5234" style="stroke:#181818;stroke-width:1.0;" width="10" x="183" y="149.7266"/><rect fill="#FFFFFF" height="182.5313" style="stroke:#181818;stroke-width:1.0;" width="10" x="402" y="413.9219"/><rect fill="#FFFFFF" height="14" style="stroke:#181818;stroke-width:1.0;" width="10" x="402" y="711.9844"/><polygon fill="#181818" points="171,145.7266,181,149.7266,171,153.7266,175,149.7266" style="stroke:#181818;stroke-width:1.0;"/><line style="stroke:#181818;stroke-width:1.0;" x1="29" x2="177" y1="149.7266" y2="149.7266"/><text fill="#000000" font-family="sans-serif" font-size="13" lengthAdjust="spacing" textLength="89" x="36" y="144.6606">HOME&#30011;&#38754;&#34920;&#31034;</text><rect fill="#ADFF2F" height="23" style="stroke:#181818;stroke-width:0.5;" width="138" x="198" y="162.7266"/><text fill="#000000" font-family="sans-serif" font-size="13" lengthAdjust="spacing" textLength="130" x="202" y="178.7935">&#12525;&#12464;&#12452;&#12531;&#12501;&#12525;&#12540;&#12434;&#21442;&#29031;</text><polygon fill="#181818" points="171,223.125,181,227.125,171,231.125,175,227.125" style="stroke:#181818;stroke-width:1.0;"/><line style="stroke:#181818;stroke-width:1.0;" x1="29" x2="177" y1="227.125" y2="227.125"/><text fill="#000000" font-family="sans-serif" font-size="13" lengthAdjust="spacing" textLength="91" x="36" y="206.9263">&#12469;&#12452;&#12488;&#24773;&#22577;&#36984;&#25246;</text><text fill="#000000" font-family="sans-serif" font-size="13" lengthAdjust="spacing" textLength="117" x="36" y="222.0591">&#12469;&#12452;&#12489;&#12513;&#12491;&#12517;&#12540;&#12424;&#12426;</text><line style="stroke:#181818;stroke-width:1.0;" x1="193" x2="235" y1="256.2578" y2="256.2578"/><line style="stroke:#181818;stroke-width:1.0;" x1="235" x2="235" y1="256.2578" y2="269.2578"/><line style="stroke:#181818;stroke-width:1.0;" x1="194" x2="235" y1="269.2578" y2="269.2578"/><polygon fill="#181818" points="204,265.2578,194,269.2578,204,273.2578,200,269.2578" style="stroke:#181818;stroke-width:1.0;"/><text fill="#000000" font-family="sans-serif" font-size="13" lengthAdjust="spacing" textLength="143" x="200" y="251.1919">&#12469;&#12452;&#12488;&#35373;&#23450;&#30906;&#35469;&#30011;&#38754;&#34920;&#31034;</text><polygon fill="#181818" points="171,294.3906,181,298.3906,171,302.3906,175,298.3906" style="stroke:#181818;stroke-width:1.0;"/><line style="stroke:#181818;stroke-width:1.0;" x1="29" x2="177" y1="298.3906" y2="298.3906"/><text fill="#000000" font-family="sans-serif" font-size="13" lengthAdjust="spacing" textLength="130" x="36" y="293.3247">&#12300;&#12469;&#12452;&#12488;&#12398;&#21066;&#38500;&#12301;&#25276;&#19979;</text><line style="stroke:#181818;stroke-width:1.0;" x1="193" x2="235" y1="327.5234" y2="327.5234"/><line style="stroke:#181818;stroke-width:1.0;" x1="235" x2="235" y1="327.5234" y2="340.5234"/><line style="stroke:#181818;stroke-width:1.0;" x1="194" x2="235" y1="340.5234" y2="340.5234"/><polygon fill="#181818" points="204,336.5234,194,340.5234,204,344.5234,200,340.5234" style="stroke:#181818;stroke-width:1.0;"/><text fill="#000000" font-family="sans-serif" font-size="13" lengthAdjust="spacing" textLength="143" x="200" y="322.4575">&#12469;&#12452;&#12488;&#21066;&#38500;&#30906;&#35469;&#30011;&#38754;&#34920;&#31034;</text><polygon fill="#181818" points="171,365.6563,181,369.6563,171,373.6563,175,369.6563" style="stroke:#181818;stroke-width:1.0;"/><line style="stroke:#181818;stroke-width:1.0;" x1="29" x2="177" y1="369.6563" y2="369.6563"/><text fill="#000000" font-family="sans-serif" font-size="13" lengthAdjust="spacing" textLength="78" x="36" y="364.5903">&#12300;&#30906;&#35469;&#12301;&#25276;&#19979;</text><polygon fill="#181818" points="390,409.9219,400,413.9219,390,417.9219,394,413.9219" style="stroke:#181818;stroke-width:1.0;"/><line style="stroke:#181818;stroke-width:1.0;" x1="193" x2="396" y1="413.9219" y2="413.9219"/><text fill="#000000" font-family="sans-serif" font-size="13" lengthAdjust="spacing" textLength="85" x="200" y="393.7231">&#12469;&#12452;&#12488;&#21066;&#38500;API</text><text fill="#000000" font-family="sans-serif" font-size="13" lengthAdjust="spacing" textLength="113" x="200" y="408.856">/site/{id} DELETE</text><line style="stroke:#181818;stroke-width:1.0;" x1="412" x2="454" y1="443.0547" y2="443.0547"/><line style="stroke:#181818;stroke-width:1.0;" x1="454" x2="454" y1="443.0547" y2="456.0547"/><line style="stroke:#181818;stroke-width:1.0;" x1="413" x2="454" y1="456.0547" y2="456.0547"/><polygon fill="#181818" points="423,452.0547,413,456.0547,423,460.0547,419,456.0547" style="stroke:#181818;stroke-width:1.0;"/><text fill="#000000" font-family="sans-serif" font-size="13" lengthAdjust="spacing" textLength="107" x="419" y="437.9888">S3&#12467;&#12531;&#12486;&#12531;&#12484;&#21066;&#38500;</text><line style="stroke:#181818;stroke-width:1.0;" x1="412" x2="454" y1="485.1875" y2="485.1875"/><line style="stroke:#181818;stroke-width:1.0;" x1="454" x2="454" y1="485.1875" y2="498.1875"/><line style="stroke:#181818;stroke-width:1.0;" x1="413" x2="454" y1="498.1875" y2="498.1875"/><polygon fill="#181818" points="423,494.1875,413,498.1875,423,502.1875,419,498.1875" style="stroke:#181818;stroke-width:1.0;"/><text fill="#000000" font-family="sans-serif" font-size="13" lengthAdjust="spacing" textLength="133" x="419" y="480.1216">Dynamo&#30331;&#37682;&#24773;&#22577;&#21066;&#38500;</text><line style="stroke:#181818;stroke-width:1.0;" x1="412" x2="454" y1="527.3203" y2="527.3203"/><line style="stroke:#181818;stroke-width:1.0;" x1="454" x2="454" y1="527.3203" y2="540.3203"/><line style="stroke:#181818;stroke-width:1.0;" x1="413" x2="454" y1="540.3203" y2="540.3203"/><polygon fill="#181818" points="423,536.3203,413,540.3203,423,544.3203,419,540.3203" style="stroke:#181818;stroke-width:1.0;"/><text fill="#000000" font-family="sans-serif" font-size="13" lengthAdjust="spacing" textLength="158" x="419" y="522.2544">CDN&#12489;&#12513;&#12452;&#12531;&#35373;&#23450;&#24773;&#22577;&#21066;&#38500;</text><line style="stroke:#181818;stroke-width:1.0;" x1="412" x2="454" y1="569.4531" y2="569.4531"/><line style="stroke:#181818;stroke-width:1.0;" x1="454" x2="454" y1="569.4531" y2="582.4531"/><line style="stroke:#181818;stroke-width:1.0;" x1="413" x2="454" y1="582.4531" y2="582.4531"/><polygon fill="#181818" points="423,578.4531,413,582.4531,423,586.4531,419,582.4531" style="stroke:#181818;stroke-width:1.0;"/><text fill="#000000" font-family="sans-serif" font-size="13" lengthAdjust="spacing" textLength="128" x="419" y="564.3872">Stripe&#12398;&#12469;&#12502;&#12473;&#12463;&#21066;&#38500;</text><polygon fill="#181818" points="204,592.4531,194,596.4531,204,600.4531,200,596.4531" style="stroke:#181818;stroke-width:1.0;"/><line style="stroke:#181818;stroke-width:1.0;stroke-dasharray:2.0,2.0;" x1="198" x2="406" y1="596.4531" y2="596.4531"/><line style="stroke:#181818;stroke-width:1.0;" x1="193" x2="235" y1="625.5859" y2="625.5859"/><line style="stroke:#181818;stroke-width:1.0;" x1="235" x2="235" y1="625.5859" y2="638.5859"/><line style="stroke:#181818;stroke-width:1.0;" x1="194" x2="235" y1="638.5859" y2="638.5859"/><polygon fill="#181818" points="204,634.5859,194,638.5859,204,642.5859,200,638.5859" style="stroke:#181818;stroke-width:1.0;"/><text fill="#000000" font-family="sans-serif" font-size="13" lengthAdjust="spacing" textLength="117" x="200" y="620.52">&#12469;&#12452;&#12488;&#21066;&#38500;&#23436;&#20102;&#30011;&#38754;</text><polygon fill="#181818" points="171,663.7188,181,667.7188,171,671.7188,175,667.7188" style="stroke:#181818;stroke-width:1.0;"/><line style="stroke:#181818;stroke-width:1.0;" x1="29" x2="177" y1="667.7188" y2="667.7188"/><text fill="#000000" font-family="sans-serif" font-size="13" lengthAdjust="spacing" textLength="44" x="36" y="662.6528">OK&#25276;&#19979;</text><polygon fill="#181818" points="390,707.9844,400,711.9844,390,715.9844,394,711.9844" style="stroke:#181818;stroke-width:1.0;"/><line style="stroke:#181818;stroke-width:1.0;" x1="193" x2="396" y1="711.9844" y2="711.9844"/><text fill="#000000" font-family="sans-serif" font-size="13" lengthAdjust="spacing" textLength="111" x="200" y="691.7856">&#12469;&#12452;&#12488;&#19968;&#35239;&#21462;&#24471;API</text><text fill="#000000" font-family="sans-serif" font-size="13" lengthAdjust="spacing" textLength="57" x="200" y="706.9185">/site GET</text><polygon fill="#181818" points="204,721.9844,194,725.9844,204,729.9844,200,725.9844" style="stroke:#181818;stroke-width:1.0;"/><line style="stroke:#181818;stroke-width:1.0;stroke-dasharray:2.0,2.0;" x1="198" x2="406" y1="725.9844" y2="725.9844"/><line style="stroke:#181818;stroke-width:1.0;" x1="193" x2="235" y1="755.1172" y2="755.1172"/><line style="stroke:#181818;stroke-width:1.0;" x1="235" x2="235" y1="755.1172" y2="768.1172"/><line style="stroke:#181818;stroke-width:1.0;" x1="194" x2="235" y1="768.1172" y2="768.1172"/><polygon fill="#181818" points="204,764.1172,194,768.1172,204,772.1172,200,768.1172" style="stroke:#181818;stroke-width:1.0;"/><text fill="#000000" font-family="sans-serif" font-size="13" lengthAdjust="spacing" textLength="195" x="200" y="750.0513">&#26368;&#21021;&#12395;&#30331;&#37682;&#12375;&#12383;&#12469;&#12452;&#12488;&#12395;&#20999;&#12426;&#26367;&#12360;</text><line style="stroke:#181818;stroke-width:1.0;" x1="193" x2="235" y1="797.25" y2="797.25"/><line style="stroke:#181818;stroke-width:1.0;" x1="235" x2="235" y1="797.25" y2="810.25"/><line style="stroke:#181818;stroke-width:1.0;" x1="194" x2="235" y1="810.25" y2="810.25"/><polygon fill="#181818" points="204,806.25,194,810.25,204,814.25,200,810.25" style="stroke:#181818;stroke-width:1.0;"/><text fill="#000000" font-family="sans-serif" font-size="13" lengthAdjust="spacing" textLength="89" x="200" y="792.1841">HOME&#30011;&#38754;&#34920;&#31034;</text><!--SRC=[ZPDTQnD158RlvrSCzKAbBBdmBeWWpPAA7osaDq9kbcIg2t4tR4PB4I4xO-isJIc8jlHJ6s8_34tKeiIqf3_cP7UJV-7CxjQQ9fNinR8p-vxtd7dE6QhJ7C70VWAh0dVSfL9leuhGJR5L0TO0TWxypArl-kqZf6MeQU4nuFjY3zYlCQmLyCi2iL1UiwYUqVEQGSL_4SQFf9-mu2V2rQyrlErQshWrFG5s6-nFO0ldty1tWM_T3coov9MU8Vr6ATFGCvDcWUBxqmz4z4JYIKnyAKcDaZbjFWpKyZf2iWYit8jSyFXu74zEFLRz3wUzdKftxz2ljf1bc9HWIt_sd69pza9w8saHOZmbkPmvXx1uW1y3-nRG4AL_b4jvsFVkAlCN3X0nibWQNKqPlsJeyGNty_UUtVHAksdZOdi9-1xmPU1V0Zy7M0b5iKDTkeV74dkbrVswqdUEmSJ5yjyeiEjX2w6uufNEEitb_oO9jICc2MN3Z4KF1FD1Oz4id3PY1PsIs6iz-mOdr4VgZ8gaFWgBuzGTO2S1xCNW_JQQmJvHOjxGNfZ-nccl_2FaEqmb1YG27RGlH7YzF4KjFKy4CbasNvCJoHgHC3hSNKK9n8eo0aUtNkwq5aEEWmId7ex0hTCiTlSFtDKrjxt-3psSL6T6AydRBhhE3jYra1NOw_AwNOv7pNNUYT7pjix1TeOPNBqtVm00]--></g></svg>