<?xml version="1.0" encoding="UTF-8" standalone="no"?><svg xmlns="http://www.w3.org/2000/svg" xmlns:xlink="http://www.w3.org/1999/xlink" contentStyleType="text/css" height="943px" preserveAspectRatio="none" style="width:584px;height:943px;background:#FFFFFF;" version="1.1" viewBox="0 0 584 943" width="584px" zoomAndPan="magnify"><defs/><g><text fill="#000000" font-family="sans-serif" font-size="14" font-weight="bold" lengthAdjust="spacing" textLength="75" x="256.5" y="27.9951">サイト削除</text><rect fill="#FFFFFF" height="703.6563" style="stroke:#181818;stroke-width:1.0;" width="10" x="183" y="149.7266"/><rect fill="#FFFFFF" height="182.5313" style="stroke:#181818;stroke-width:1.0;" width="10" x="402" y="447.0547"/><rect fill="#FFFFFF" height="14" style="stroke:#181818;stroke-width:1.0;" width="10" x="402" y="729.9844"/><rect fill="#FFFFFF" height="14" style="stroke:#181818;stroke-width:1.0;" width="10" x="402" y="773.1172"/><line style="stroke:#181818;stroke-width:0.5;stroke-dasharray:5.0,5.0;" x1="29" x2="29" y1="118.5938" y2="862.3828"/><line style="stroke:#181818;stroke-width:0.5;stroke-dasharray:5.0,5.0;" x1="187.5" x2="187.5" y1="118.5938" y2="862.3828"/><line style="stroke:#181818;stroke-width:0.5;stroke-dasharray:5.0,5.0;" x1="406.5" x2="406.5" y1="118.5938" y2="862.3828"/><text fill="#000000" font-family="sans-serif" font-size="14" lengthAdjust="spacing" textLength="42" x="5" y="115.292">ユーザ</text><ellipse cx="29" cy="50.7969" fill="#E2E2F0" rx="8" ry="8" style="stroke:#181818;stroke-width:0.5;"/><path d="M29,58.7969 L29,85.7969 M16,66.7969 L42,66.7969 M29,85.7969 L16,100.7969 M29,85.7969 L42,100.7969 " fill="none" style="stroke:#181818;stroke-width:0.5;"/><text fill="#000000" font-family="sans-serif" font-size="14" lengthAdjust="spacing" textLength="42" x="5" y="874.3779">ユーザ</text><ellipse cx="29" cy="886.1797" fill="#E2E2F0" rx="8" ry="8" style="stroke:#181818;stroke-width:0.5;"/><path d="M29,894.1797 L29,921.1797 M16,902.1797 L42,902.1797 M29,921.1797 L16,936.1797 M29,921.1797 L42,936.1797 " fill="none" style="stroke:#181818;stroke-width:0.5;"/><rect fill="#E2E2F0" height="46.5938" rx="2.5" ry="2.5" style="stroke:#181818;stroke-width:0.5;" width="127" x="124.5" y="71"/><text fill="#000000" font-family="sans-serif" font-size="14" lengthAdjust="spacing" textLength="112" x="132" y="90.9951">クライアント端末</text><text fill="#000000" font-family="sans-serif" font-size="14" lengthAdjust="spacing" textLength="113" x="131.5" y="107.292">(PCまたはスマホ)</text><rect fill="#E2E2F0" height="46.5938" rx="2.5" ry="2.5" style="stroke:#181818;stroke-width:0.5;" width="127" x="124.5" y="861.3828"/><text fill="#000000" font-family="sans-serif" font-size="14" lengthAdjust="spacing" textLength="112" x="132" y="881.3779">クライアント端末</text><text fill="#000000" font-family="sans-serif" font-size="14" lengthAdjust="spacing" textLength="113" x="131.5" y="897.6748">(PCまたはスマホ)</text><rect fill="#E2E2F0" height="46.5938" rx="2.5" ry="2.5" style="stroke:#181818;stroke-width:0.5;" width="151" x="331.5" y="71"/><text fill="#000000" font-family="sans-serif" font-size="14" lengthAdjust="spacing" textLength="99" x="357.5" y="90.9951">SonicHost API</text><text fill="#000000" font-family="sans-serif" font-size="14" lengthAdjust="spacing" textLength="137" x="338.5" y="107.292">(CDN/API-Gateway)</text><rect fill="#E2E2F0" height="46.5938" rx="2.5" ry="2.5" style="stroke:#181818;stroke-width:0.5;" width="151" x="331.5" y="861.3828"/><text fill="#000000" font-family="sans-serif" font-size="14" lengthAdjust="spacing" textLength="99" x="357.5" y="881.3779">SonicHost API</text><text fill="#000000" font-family="sans-serif" font-size="14" lengthAdjust="spacing" textLength="137" x="338.5" y="897.6748">(CDN/API-Gateway)</text><rect fill="#FFFFFF" height="703.6563" style="stroke:#181818;stroke-width:1.0;" width="10" x="183" y="149.7266"/><rect fill="#FFFFFF" height="182.5313" style="stroke:#181818;stroke-width:1.0;" width="10" x="402" y="447.0547"/><rect fill="#FFFFFF" height="14" style="stroke:#181818;stroke-width:1.0;" width="10" x="402" y="729.9844"/><rect fill="#FFFFFF" height="14" style="stroke:#181818;stroke-width:1.0;" width="10" x="402" y="773.1172"/><polygon fill="#181818" points="171,145.7266,181,149.7266,171,153.7266,175,149.7266" style="stroke:#181818;stroke-width:1.0;"/><line style="stroke:#181818;stroke-width:1.0;" x1="29" x2="177" y1="149.7266" y2="149.7266"/><text fill="#000000" font-family="sans-serif" font-size="13" lengthAdjust="spacing" textLength="89" x="36" y="144.6606">HOME画面表示</text><rect fill="#ADFF2F" height="23" style="stroke:#181818;stroke-width:0.5;" width="138" x="198" y="162.7266"/><text fill="#000000" font-family="sans-serif" font-size="13" lengthAdjust="spacing" textLength="130" x="202" y="178.7935">ログインフローを参照</text><polygon fill="#181818" points="171,223.125,181,227.125,171,231.125,175,227.125" style="stroke:#181818;stroke-width:1.0;"/><line style="stroke:#181818;stroke-width:1.0;" x1="29" x2="177" y1="227.125" y2="227.125"/><text fill="#000000" font-family="sans-serif" font-size="13" lengthAdjust="spacing" textLength="91" x="36" y="206.9263">サイト情報選択</text><text fill="#000000" font-family="sans-serif" font-size="13" lengthAdjust="spacing" textLength="117" x="36" y="222.0591">サイドメニューより</text><line style="stroke:#181818;stroke-width:1.0;" x1="193" x2="235" y1="256.2578" y2="256.2578"/><line style="stroke:#181818;stroke-width:1.0;" x1="235" x2="235" y1="256.2578" y2="269.2578"/><line style="stroke:#181818;stroke-width:1.0;" x1="194" x2="235" y1="269.2578" y2="269.2578"/><polygon fill="#181818" points="204,265.2578,194,269.2578,204,273.2578,200,269.2578" style="stroke:#181818;stroke-width:1.0;"/><text fill="#000000" font-family="sans-serif" font-size="13" lengthAdjust="spacing" textLength="143" x="200" y="251.1919">サイト設定確認画面表示</text><rect fill="#87CEEB" height="38" style="stroke:#181818;stroke-width:0.5;" width="255" x="198" y="282.2578"/><text fill="#000000" font-family="sans-serif" font-size="13" lengthAdjust="spacing" textLength="247" x="202" y="298.3247">１つしかサイトない場合は「削除」非表示</text><text fill="#000000" font-family="sans-serif" font-size="13" lengthAdjust="spacing" textLength="208" x="202" y="313.4575">サイトを削除する場合は解約させる</text><polygon fill="#181818" points="171,342.6563,181,346.6563,171,350.6563,175,346.6563" style="stroke:#181818;stroke-width:1.0;"/><line style="stroke:#181818;stroke-width:1.0;" x1="29" x2="177" y1="346.6563" y2="346.6563"/><text fill="#000000" font-family="sans-serif" font-size="13" lengthAdjust="spacing" textLength="130" x="36" y="341.5903">「サイトの削除」押下</text><line style="stroke:#181818;stroke-width:1.0;" x1="193" x2="235" y1="375.7891" y2="375.7891"/><line style="stroke:#181818;stroke-width:1.0;" x1="235" x2="235" y1="375.7891" y2="388.7891"/><line style="stroke:#181818;stroke-width:1.0;" x1="194" x2="235" y1="388.7891" y2="388.7891"/><polygon fill="#181818" points="204,384.7891,194,388.7891,204,392.7891,200,388.7891" style="stroke:#181818;stroke-width:1.0;"/><text fill="#000000" font-family="sans-serif" font-size="13" lengthAdjust="spacing" textLength="143" x="200" y="370.7231">サイト削除確認画面表示</text><polygon fill="#181818" points="171,413.9219,181,417.9219,171,421.9219,175,417.9219" style="stroke:#181818;stroke-width:1.0;"/><line style="stroke:#181818;stroke-width:1.0;" x1="29" x2="177" y1="417.9219" y2="417.9219"/><text fill="#000000" font-family="sans-serif" font-size="13" lengthAdjust="spacing" textLength="78" x="36" y="412.856">「確認」押下</text><polygon fill="#181818" points="390,443.0547,400,447.0547,390,451.0547,394,447.0547" style="stroke:#181818;stroke-width:1.0;"/><line style="stroke:#181818;stroke-width:1.0;" x1="193" x2="396" y1="447.0547" y2="447.0547"/><text fill="#000000" font-family="sans-serif" font-size="13" lengthAdjust="spacing" textLength="85" x="200" y="441.9888">サイト削除API</text><line style="stroke:#181818;stroke-width:1.0;" x1="412" x2="454" y1="476.1875" y2="476.1875"/><line style="stroke:#181818;stroke-width:1.0;" x1="454" x2="454" y1="476.1875" y2="489.1875"/><line style="stroke:#181818;stroke-width:1.0;" x1="413" x2="454" y1="489.1875" y2="489.1875"/><polygon fill="#181818" points="423,485.1875,413,489.1875,423,493.1875,419,489.1875" style="stroke:#181818;stroke-width:1.0;"/><text fill="#000000" font-family="sans-serif" font-size="13" lengthAdjust="spacing" textLength="107" x="419" y="471.1216">S3コンテンツ削除</text><line style="stroke:#181818;stroke-width:1.0;" x1="412" x2="454" y1="518.3203" y2="518.3203"/><line style="stroke:#181818;stroke-width:1.0;" x1="454" x2="454" y1="518.3203" y2="531.3203"/><line style="stroke:#181818;stroke-width:1.0;" x1="413" x2="454" y1="531.3203" y2="531.3203"/><polygon fill="#181818" points="423,527.3203,413,531.3203,423,535.3203,419,531.3203" style="stroke:#181818;stroke-width:1.0;"/><text fill="#000000" font-family="sans-serif" font-size="13" lengthAdjust="spacing" textLength="133" x="419" y="513.2544">Dynamo登録情報削除</text><line style="stroke:#181818;stroke-width:1.0;" x1="412" x2="454" y1="560.4531" y2="560.4531"/><line style="stroke:#181818;stroke-width:1.0;" x1="454" x2="454" y1="560.4531" y2="573.4531"/><line style="stroke:#181818;stroke-width:1.0;" x1="413" x2="454" y1="573.4531" y2="573.4531"/><polygon fill="#181818" points="423,569.4531,413,573.4531,423,577.4531,419,573.4531" style="stroke:#181818;stroke-width:1.0;"/><text fill="#000000" font-family="sans-serif" font-size="13" lengthAdjust="spacing" textLength="158" x="419" y="555.3872">CDNドメイン設定情報削除</text><line style="stroke:#181818;stroke-width:1.0;" x1="412" x2="454" y1="602.5859" y2="602.5859"/><line style="stroke:#181818;stroke-width:1.0;" x1="454" x2="454" y1="602.5859" y2="615.5859"/><line style="stroke:#181818;stroke-width:1.0;" x1="413" x2="454" y1="615.5859" y2="615.5859"/><polygon fill="#181818" points="423,611.5859,413,615.5859,423,619.5859,419,615.5859" style="stroke:#181818;stroke-width:1.0;"/><text fill="#000000" font-family="sans-serif" font-size="13" lengthAdjust="spacing" textLength="104" x="419" y="597.52">設定金額情報変更</text><polygon fill="#181818" points="204,625.5859,194,629.5859,204,633.5859,200,629.5859" style="stroke:#181818;stroke-width:1.0;"/><line style="stroke:#181818;stroke-width:1.0;stroke-dasharray:2.0,2.0;" x1="198" x2="406" y1="629.5859" y2="629.5859"/><line style="stroke:#181818;stroke-width:1.0;" x1="193" x2="235" y1="658.7188" y2="658.7188"/><line style="stroke:#181818;stroke-width:1.0;" x1="235" x2="235" y1="658.7188" y2="671.7188"/><line style="stroke:#181818;stroke-width:1.0;" x1="194" x2="235" y1="671.7188" y2="671.7188"/><polygon fill="#181818" points="204,667.7188,194,671.7188,204,675.7188,200,671.7188" style="stroke:#181818;stroke-width:1.0;"/><text fill="#000000" font-family="sans-serif" font-size="13" lengthAdjust="spacing" textLength="117" x="200" y="653.6528">サイト削除完了画面</text><polygon fill="#181818" points="171,696.8516,181,700.8516,171,704.8516,175,700.8516" style="stroke:#181818;stroke-width:1.0;"/><line style="stroke:#181818;stroke-width:1.0;" x1="29" x2="177" y1="700.8516" y2="700.8516"/><text fill="#000000" font-family="sans-serif" font-size="13" lengthAdjust="spacing" textLength="44" x="36" y="695.7856">OK押下</text><polygon fill="#181818" points="390,725.9844,400,729.9844,390,733.9844,394,729.9844" style="stroke:#181818;stroke-width:1.0;"/><line style="stroke:#181818;stroke-width:1.0;" x1="193" x2="396" y1="729.9844" y2="729.9844"/><text fill="#000000" font-family="sans-serif" font-size="13" lengthAdjust="spacing" textLength="111" x="200" y="724.9185">ユーザ情報取得API</text><polygon fill="#181818" points="204,739.9844,194,743.9844,204,747.9844,200,743.9844" style="stroke:#181818;stroke-width:1.0;"/><line style="stroke:#181818;stroke-width:1.0;stroke-dasharray:2.0,2.0;" x1="198" x2="406" y1="743.9844" y2="743.9844"/><polygon fill="#181818" points="390,769.1172,400,773.1172,390,777.1172,394,773.1172" style="stroke:#181818;stroke-width:1.0;"/><line style="stroke:#181818;stroke-width:1.0;" x1="193" x2="396" y1="773.1172" y2="773.1172"/><text fill="#000000" font-family="sans-serif" font-size="13" lengthAdjust="spacing" textLength="111" x="200" y="768.0513">サイト情報取得API</text><polygon fill="#181818" points="204,783.1172,194,787.1172,204,791.1172,200,787.1172" style="stroke:#181818;stroke-width:1.0;"/><line style="stroke:#181818;stroke-width:1.0;stroke-dasharray:2.0,2.0;" x1="198" x2="406" y1="787.1172" y2="787.1172"/><line style="stroke:#181818;stroke-width:1.0;" x1="193" x2="235" y1="831.3828" y2="831.3828"/><line style="stroke:#181818;stroke-width:1.0;" x1="235" x2="235" y1="831.3828" y2="844.3828"/><line style="stroke:#181818;stroke-width:1.0;" x1="194" x2="235" y1="844.3828" y2="844.3828"/><polygon fill="#181818" points="204,840.3828,194,844.3828,204,848.3828,200,844.3828" style="stroke:#181818;stroke-width:1.0;"/><text fill="#000000" font-family="sans-serif" font-size="13" lengthAdjust="spacing" textLength="195" x="200" y="811.1841">最初に登録したサイトに切り替え</text><text fill="#000000" font-family="sans-serif" font-size="13" lengthAdjust="spacing" textLength="89" x="200" y="826.3169">HOME画面表示</text><!--SRC=[bLDRJnDH47u_l-847zIGZG- -DSP4mO0n2acVJ7ZPbADkhBlDTf7qhMTFWUqjY159BIsqLhaq59Lgi3JbnmoxsttoBtZsqWgqDBWFczsPRxwP-MP6axGemQ3_1Bq6p33J6QTGG-WcDrL1FmJz55ZRR7ooEtj8Z6YAYiU0VUKsq7-DOJ6E5-94HJ5HrQI851DbZVjv6Djp-JW5E-AiTltGsgpFoRTc9u1sW6u1vSo_WPM15MzxDFFahHGX5ud2YYn5ffMuXX_CFkRH4vFFxl0lOKhKoAAOy0F5c8IGMmGMxWSiU7myXATddZwoFvmufMgticlNMaYL5OrWLNhvIiFAYnxqnfHAYFoSHAFA8iBy0NO0-ZTF3LxwkllhDllUNDNjfHr4v7di4brE6VgdeSMMpEtl3ZssCkKvkMTE0wi0omBxul4Pe6TG43kKfRjxuCfURNNtyzVf8_mwyJ2wGBmU_hJNWDQ0RW3DzWc1xWDDcTjDyvtXwf_C-SE6PDufbGDoJu5-1E_QXz02wDb-Q7VdizrC0Lq7MkJsKPeaS-VoD_e9hKpxx3WxidyVEwJ_OKbys31YlXvy7GQ9-HuXrnT0GZXy5_GZR-RBtZiLdC85q6H25jyeTk74oVtmnpmCnVSqcBUtHVuahuRxVcTbpQda0rGjRHMRlIxk2OA758Hh26OsScUjPL-mGQbcdemGg7VMGGsh7ytEXYlJg386vVsVw7vTrcRID4f0wxwqtkPkdTkSkcciy8EnYgT0ZJdvyct_1G00]--></g></svg>