<?xml version="1.0" encoding="UTF-8" standalone="no"?><svg xmlns="http://www.w3.org/2000/svg" xmlns:xlink="http://www.w3.org/1999/xlink" contentStyleType="text/css" height="645px" preserveAspectRatio="none" style="width:1035px;height:645px;background:#FFFFFF;" version="1.1" viewBox="0 0 1035 645" width="1035px" zoomAndPan="magnify"><defs/><g><text fill="#000000" font-family="sans-serif" font-size="14" font-weight="bold" lengthAdjust="spacing" textLength="135" x="449" y="27.9951">ブログアップロード</text><rect fill="#FFFFFF" height="405.5938" style="stroke:#181818;stroke-width:1.0;" width="10" x="278" y="149.7266"/><rect fill="#FFFFFF" height="57.1328" style="stroke:#181818;stroke-width:1.0;" width="10" x="599" y="298.3906"/><rect fill="#FFFFFF" height="71.2656" style="stroke:#181818;stroke-width:1.0;" width="10" x="747.5" y="384.6563"/><rect fill="#FFFFFF" height="14" style="stroke:#181818;stroke-width:1.0;" width="10" x="966.5" y="312.3906"/><line style="stroke:#181818;stroke-width:0.5;stroke-dasharray:5.0,5.0;" x1="29" x2="29" y1="118.5938" y2="564.3203"/><line style="stroke:#181818;stroke-width:0.5;stroke-dasharray:5.0,5.0;" x1="282.5" x2="282.5" y1="118.5938" y2="564.3203"/><line style="stroke:#181818;stroke-width:0.5;stroke-dasharray:5.0,5.0;" x1="501.5" x2="501.5" y1="118.5938" y2="564.3203"/><line style="stroke:#181818;stroke-width:0.5;stroke-dasharray:5.0,5.0;" x1="603.5" x2="603.5" y1="118.5938" y2="564.3203"/><line style="stroke:#181818;stroke-width:0.5;stroke-dasharray:5.0,5.0;" x1="752.5" x2="752.5" y1="118.5938" y2="564.3203"/><line style="stroke:#181818;stroke-width:0.5;stroke-dasharray:5.0,5.0;" x1="971" x2="971" y1="118.5938" y2="564.3203"/><text fill="#000000" font-family="sans-serif" font-size="14" lengthAdjust="spacing" textLength="42" x="5" y="115.292">ユーザ</text><ellipse cx="29" cy="50.7969" fill="#E2E2F0" rx="8" ry="8" style="stroke:#181818;stroke-width:0.5;"/><path d="M29,58.7969 L29,85.7969 M16,66.7969 L42,66.7969 M29,85.7969 L16,100.7969 M29,85.7969 L42,100.7969 " fill="none" style="stroke:#181818;stroke-width:0.5;"/><text fill="#000000" font-family="sans-serif" font-size="14" lengthAdjust="spacing" textLength="42" x="5" y="576.3154">ユーザ</text><ellipse cx="29" cy="588.1172" fill="#E2E2F0" rx="8" ry="8" style="stroke:#181818;stroke-width:0.5;"/><path d="M29,596.1172 L29,623.1172 M16,604.1172 L42,604.1172 M29,623.1172 L16,638.1172 M29,623.1172 L42,638.1172 " fill="none" style="stroke:#181818;stroke-width:0.5;"/><rect fill="#E2E2F0" height="46.5938" rx="2.5" ry="2.5" style="stroke:#181818;stroke-width:0.5;" width="127" x="219.5" y="71"/><text fill="#000000" font-family="sans-serif" font-size="14" lengthAdjust="spacing" textLength="112" x="227" y="90.9951">クライアント端末</text><text fill="#000000" font-family="sans-serif" font-size="14" lengthAdjust="spacing" textLength="113" x="226.5" y="107.292">(PCまたはスマホ)</text><rect fill="#E2E2F0" height="46.5938" rx="2.5" ry="2.5" style="stroke:#181818;stroke-width:0.5;" width="127" x="219.5" y="563.3203"/><text fill="#000000" font-family="sans-serif" font-size="14" lengthAdjust="spacing" textLength="112" x="227" y="583.3154">クライアント端末</text><text fill="#000000" font-family="sans-serif" font-size="14" lengthAdjust="spacing" textLength="113" x="226.5" y="599.6123">(PCまたはスマホ)</text><rect fill="#E2E2F0" height="46.5938" rx="2.5" ry="2.5" style="stroke:#181818;stroke-width:0.5;" width="81" x="461.5" y="71"/><text fill="#000000" font-family="sans-serif" font-size="14" lengthAdjust="spacing" textLength="56" x="474" y="90.9951">認証基盤</text><text fill="#000000" font-family="sans-serif" font-size="14" lengthAdjust="spacing" textLength="67" x="468.5" y="107.292">(Cognito)</text><rect fill="#E2E2F0" height="46.5938" rx="2.5" ry="2.5" style="stroke:#181818;stroke-width:0.5;" width="81" x="461.5" y="563.3203"/><text fill="#000000" font-family="sans-serif" font-size="14" lengthAdjust="spacing" textLength="56" x="474" y="583.3154">認証基盤</text><text fill="#000000" font-family="sans-serif" font-size="14" lengthAdjust="spacing" textLength="67" x="468.5" y="599.6123">(Cognito)</text><rect fill="#E2E2F0" height="46.5938" rx="2.5" ry="2.5" style="stroke:#181818;stroke-width:0.5;" width="103" x="552.5" y="71"/><text fill="#000000" font-family="sans-serif" font-size="14" lengthAdjust="spacing" textLength="31" x="588.5" y="90.9951">CDN</text><text fill="#000000" font-family="sans-serif" font-size="14" lengthAdjust="spacing" textLength="89" x="559.5" y="107.292">(CloudFront)</text><rect fill="#E2E2F0" height="46.5938" rx="2.5" ry="2.5" style="stroke:#181818;stroke-width:0.5;" width="103" x="552.5" y="563.3203"/><text fill="#000000" font-family="sans-serif" font-size="14" lengthAdjust="spacing" textLength="31" x="588.5" y="583.3154">CDN</text><text fill="#000000" font-family="sans-serif" font-size="14" lengthAdjust="spacing" textLength="89" x="559.5" y="599.6123">(CloudFront)</text><rect fill="#E2E2F0" height="46.5938" rx="2.5" ry="2.5" style="stroke:#181818;stroke-width:0.5;" width="174" x="665.5" y="71"/><text fill="#000000" font-family="sans-serif" font-size="14" lengthAdjust="spacing" textLength="160" x="672.5" y="90.9951">WordPress管理バケット</text><text fill="#000000" font-family="sans-serif" font-size="14" lengthAdjust="spacing" textLength="28" x="738.5" y="107.292">(S3)</text><rect fill="#E2E2F0" height="46.5938" rx="2.5" ry="2.5" style="stroke:#181818;stroke-width:0.5;" width="174" x="665.5" y="563.3203"/><text fill="#000000" font-family="sans-serif" font-size="14" lengthAdjust="spacing" textLength="160" x="672.5" y="583.3154">WordPress管理バケット</text><text fill="#000000" font-family="sans-serif" font-size="14" lengthAdjust="spacing" textLength="28" x="738.5" y="599.6123">(S3)</text><rect fill="#E2E2F0" height="46.5938" rx="2.5" ry="2.5" style="stroke:#181818;stroke-width:0.5;" width="115" x="914" y="71"/><text fill="#000000" font-family="sans-serif" font-size="14" lengthAdjust="spacing" textLength="99" x="922" y="90.9951">SonicHost API</text><text fill="#000000" font-family="sans-serif" font-size="14" lengthAdjust="spacing" textLength="101" x="921" y="107.292">(API-Gateway)</text><rect fill="#E2E2F0" height="46.5938" rx="2.5" ry="2.5" style="stroke:#181818;stroke-width:0.5;" width="115" x="914" y="563.3203"/><text fill="#000000" font-family="sans-serif" font-size="14" lengthAdjust="spacing" textLength="99" x="922" y="583.3154">SonicHost API</text><text fill="#000000" font-family="sans-serif" font-size="14" lengthAdjust="spacing" textLength="101" x="921" y="599.6123">(API-Gateway)</text><rect fill="#FFFFFF" height="405.5938" style="stroke:#181818;stroke-width:1.0;" width="10" x="278" y="149.7266"/><rect fill="#FFFFFF" height="57.1328" style="stroke:#181818;stroke-width:1.0;" width="10" x="599" y="298.3906"/><rect fill="#FFFFFF" height="71.2656" style="stroke:#181818;stroke-width:1.0;" width="10" x="747.5" y="384.6563"/><rect fill="#FFFFFF" height="14" style="stroke:#181818;stroke-width:1.0;" width="10" x="966.5" y="312.3906"/><polygon fill="#181818" points="266,145.7266,276,149.7266,266,153.7266,270,149.7266" style="stroke:#181818;stroke-width:1.0;"/><line style="stroke:#181818;stroke-width:1.0;" x1="29" x2="272" y1="149.7266" y2="149.7266"/><text fill="#000000" font-family="sans-serif" font-size="13" lengthAdjust="spacing" textLength="102" x="36" y="144.6606">HOME画面を起動</text><rect fill="#ADFF2F" height="23" style="stroke:#181818;stroke-width:0.5;" width="138" x="293" y="162.7266"/><text fill="#000000" font-family="sans-serif" font-size="13" lengthAdjust="spacing" textLength="130" x="297" y="178.7935">ログインフローを参照</text><line style="stroke:#181818;stroke-width:1.0;" x1="288" x2="330" y1="211.9922" y2="211.9922"/><line style="stroke:#181818;stroke-width:1.0;" x1="330" x2="330" y1="211.9922" y2="224.9922"/><line style="stroke:#181818;stroke-width:1.0;" x1="289" x2="330" y1="224.9922" y2="224.9922"/><polygon fill="#181818" points="299,220.9922,289,224.9922,299,228.9922,295,224.9922" style="stroke:#181818;stroke-width:1.0;"/><text fill="#000000" font-family="sans-serif" font-size="13" lengthAdjust="spacing" textLength="156" x="295" y="206.9263">コンテンツ更新画面を表示</text><polygon fill="#181818" points="266,265.2578,276,269.2578,266,273.2578,270,269.2578" style="stroke:#181818;stroke-width:1.0;"/><line style="stroke:#181818;stroke-width:1.0;" x1="29" x2="272" y1="269.2578" y2="269.2578"/><text fill="#000000" font-family="sans-serif" font-size="13" lengthAdjust="spacing" textLength="225" x="36" y="249.0591">ドラッグ＆ドロップ　or ファイル選択</text><text fill="#000000" font-family="sans-serif" font-size="13" lengthAdjust="spacing" textLength="181" x="40" y="264.1919">WordPressのBackUpファイル</text><polygon fill="#181818" points="587,294.3906,597,298.3906,587,302.3906,591,298.3906" style="stroke:#181818;stroke-width:1.0;"/><line style="stroke:#181818;stroke-width:1.0;" x1="288" x2="593" y1="298.3906" y2="298.3906"/><text fill="#000000" font-family="sans-serif" font-size="13" lengthAdjust="spacing" textLength="189" x="295" y="293.3247">アップロード用一時認証取得API</text><polygon fill="#181818" points="954.5,308.3906,964.5,312.3906,954.5,316.3906,958.5,312.3906" style="stroke:#181818;stroke-width:1.0;"/><line style="stroke:#181818;stroke-width:1.0;" x1="609" x2="960.5" y1="312.3906" y2="312.3906"/><polygon fill="#181818" points="620,322.3906,610,326.3906,620,330.3906,616,326.3906" style="stroke:#181818;stroke-width:1.0;"/><line style="stroke:#181818;stroke-width:1.0;stroke-dasharray:2.0,2.0;" x1="614" x2="970.5" y1="326.3906" y2="326.3906"/><polygon fill="#181818" points="299,351.5234,289,355.5234,299,359.5234,295,355.5234" style="stroke:#181818;stroke-width:1.0;"/><line style="stroke:#181818;stroke-width:1.0;stroke-dasharray:2.0,2.0;" x1="293" x2="603" y1="355.5234" y2="355.5234"/><text fill="#000000" font-family="sans-serif" font-size="13" lengthAdjust="spacing" textLength="50" x="305" y="350.4575">STS取得</text><polygon fill="#181818" points="735.5,380.6563,745.5,384.6563,735.5,388.6563,739.5,384.6563" style="stroke:#181818;stroke-width:1.0;"/><line style="stroke:#181818;stroke-width:1.0;" x1="288" x2="741.5" y1="384.6563" y2="384.6563"/><text fill="#000000" font-family="sans-serif" font-size="13" lengthAdjust="spacing" textLength="303" x="295" y="379.5903">WordPressのバックアップファイルをアップロード</text><line style="stroke:#181818;stroke-width:1.0;" x1="757.5" x2="799.5" y1="428.9219" y2="428.9219"/><line style="stroke:#181818;stroke-width:1.0;" x1="799.5" x2="799.5" y1="428.9219" y2="441.9219"/><line style="stroke:#181818;stroke-width:1.0;" x1="758.5" x2="799.5" y1="441.9219" y2="441.9219"/><polygon fill="#181818" points="768.5,437.9219,758.5,441.9219,768.5,445.9219,764.5,441.9219" style="stroke:#181818;stroke-width:1.0;"/><text fill="#000000" font-family="sans-serif" font-size="13" lengthAdjust="spacing" textLength="52" x="764.5" y="408.7231">資材保管</text><text fill="#000000" font-family="sans-serif" font-size="13" lengthAdjust="spacing" textLength="195" x="764.5" y="423.856">サイトドメインごとにキーを設定</text><polygon fill="#181818" points="299,451.9219,289,455.9219,299,459.9219,295,455.9219" style="stroke:#181818;stroke-width:1.0;"/><line style="stroke:#181818;stroke-width:1.0;stroke-dasharray:2.0,2.0;" x1="293" x2="751.5" y1="455.9219" y2="455.9219"/><line style="stroke:#181818;stroke-width:1.0;" x1="288" x2="330" y1="485.0547" y2="485.0547"/><line style="stroke:#181818;stroke-width:1.0;" x1="330" x2="330" y1="485.0547" y2="498.0547"/><line style="stroke:#181818;stroke-width:1.0;" x1="289" x2="330" y1="498.0547" y2="498.0547"/><polygon fill="#181818" points="299,494.0547,289,498.0547,299,502.0547,295,498.0547" style="stroke:#181818;stroke-width:1.0;"/><text fill="#000000" font-family="sans-serif" font-size="13" lengthAdjust="spacing" textLength="195" x="295" y="479.9888">アップロード完了メッセージ表示</text><rect fill="#ADFF2F" height="38" style="stroke:#181818;stroke-width:0.5;" width="151" x="293" y="511.0547"/><text fill="#000000" font-family="sans-serif" font-size="13" lengthAdjust="spacing" textLength="117" x="297" y="527.1216">続きのバッチ処理は</text><text fill="#000000" font-family="sans-serif" font-size="13" lengthAdjust="spacing" textLength="143" x="297" y="542.2544">ブログ生成フローを参照</text><!--SRC=[ZLHDRzD05BplhrYL0w3AfzmYX0G1MWv0f80GKYwMOuf5P4UsIyKjteKq1Qf6LPgAXZGAYafAb0yKMa8QfJzcQpizyHTuktP8KYg43vRU-itixCnRsvgTLZ6Z9KPRZ7GP-SmePNINbtJ8w0P2w2hcowJ3o2cikUqzVtI8PCKsJBp0w07l8ySBMBRmggMQA2ERjgPe6LctuJl0w24ZTS7SOpJlDplUfsPIlnQFCMV4d2fpWFade_kCbgyBcfJwIbFKUQBnryrnO-XM1twv3k2OiQ9hjX7qAq4n3uZTUSZxqiPgwfvfw7ROcjBdsvuQPYfkgfRbjsj-8STeWP5lmeCym1EH06P5vb49GzUKPSEoyQtuVUY3jxGas-gQ_3e0o1aD8Mu7bcw6vy6BYpYAbnyzkEiNJyuhuEZs-EY7-tu7cRfXgzZKLbxOs7W-QR-oPAgg_anDfuqrXE6PH5GNHkw44P5jTuluRxyWLKzXJeH2_7JZA0JO4w2SUB_noj-zKdSgezRmwuEBSW55DtXuO0Rf_XhcHDaAvoERXVYv2b8JYfhdJjzxjv_KyHz7cTE-BIildsHcssRKGHQ19tzFdLzidFMptaSInhvLSaUxO3BY6822lHmgoXkI96f9cd3p5T4e0NdYSIA0p-niHOADPwNovFb9EpDgfhB1fKlk1l04R54yxgrxbSBPQGNcAAapSYHmUU5PBSpCAJAdmHmW2vCRDrfmdMPbSqRfyWGlxkwsFvmDSfoTopuHZFqmol-SAFzuZpcRqyDJnrq_uBV0wOGJ5_uN_6BLonV-CNI_0G00]--></g></svg>