<?xml version="1.0" encoding="UTF-8" standalone="no"?><svg xmlns="http://www.w3.org/2000/svg" xmlns:xlink="http://www.w3.org/1999/xlink" contentStyleType="text/css" height="782px" preserveAspectRatio="none" style="width:483px;height:782px;background:#FFFFFF;" version="1.1" viewBox="0 0 483 782" width="483px" zoomAndPan="magnify"><defs/><g><text fill="#000000" font-family="sans-serif" font-size="14" font-weight="bold" lengthAdjust="spacing" textLength="105" x="188.25" y="27.9951">パスワード変更</text><rect fill="#FFFFFF" height="543.125" style="stroke:#181818;stroke-width:1.0;" width="10" x="239" y="149.7266"/><rect fill="#FFFFFF" height="14" style="stroke:#181818;stroke-width:1.0;" width="10" x="432" y="499.1875"/><line style="stroke:#181818;stroke-width:0.5;stroke-dasharray:5.0,5.0;" x1="29" x2="29" y1="118.5938" y2="701.8516"/><line style="stroke:#181818;stroke-width:0.5;stroke-dasharray:5.0,5.0;" x1="243.5" x2="243.5" y1="118.5938" y2="701.8516"/><line style="stroke:#181818;stroke-width:0.5;stroke-dasharray:5.0,5.0;" x1="436.5" x2="436.5" y1="118.5938" y2="701.8516"/><text fill="#000000" font-family="sans-serif" font-size="14" lengthAdjust="spacing" textLength="42" x="5" y="115.292">ユーザ</text><ellipse cx="29" cy="50.7969" fill="#E2E2F0" rx="8" ry="8" style="stroke:#181818;stroke-width:0.5;"/><path d="M29,58.7969 L29,85.7969 M16,66.7969 L42,66.7969 M29,85.7969 L16,100.7969 M29,85.7969 L42,100.7969 " fill="none" style="stroke:#181818;stroke-width:0.5;"/><text fill="#000000" font-family="sans-serif" font-size="14" lengthAdjust="spacing" textLength="42" x="5" y="713.8467">ユーザ</text><ellipse cx="29" cy="725.6484" fill="#E2E2F0" rx="8" ry="8" style="stroke:#181818;stroke-width:0.5;"/><path d="M29,733.6484 L29,760.6484 M16,741.6484 L42,741.6484 M29,760.6484 L16,775.6484 M29,760.6484 L42,775.6484 " fill="none" style="stroke:#181818;stroke-width:0.5;"/><rect fill="#E2E2F0" height="46.5938" rx="2.5" ry="2.5" style="stroke:#181818;stroke-width:0.5;" width="127" x="180.5" y="71"/><text fill="#000000" font-family="sans-serif" font-size="14" lengthAdjust="spacing" textLength="112" x="188" y="90.9951">クライアント端末</text><text fill="#000000" font-family="sans-serif" font-size="14" lengthAdjust="spacing" textLength="113" x="187.5" y="107.292">(PCまたはスマホ)</text><rect fill="#E2E2F0" height="46.5938" rx="2.5" ry="2.5" style="stroke:#181818;stroke-width:0.5;" width="127" x="180.5" y="700.8516"/><text fill="#000000" font-family="sans-serif" font-size="14" lengthAdjust="spacing" textLength="112" x="188" y="720.8467">クライアント端末</text><text fill="#000000" font-family="sans-serif" font-size="14" lengthAdjust="spacing" textLength="113" x="187.5" y="737.1436">(PCまたはスマホ)</text><rect fill="#E2E2F0" height="46.5938" rx="2.5" ry="2.5" style="stroke:#181818;stroke-width:0.5;" width="81" x="396.5" y="71"/><text fill="#000000" font-family="sans-serif" font-size="14" lengthAdjust="spacing" textLength="56" x="409" y="90.9951">認証基盤</text><text fill="#000000" font-family="sans-serif" font-size="14" lengthAdjust="spacing" textLength="67" x="403.5" y="107.292">(Cognito)</text><rect fill="#E2E2F0" height="46.5938" rx="2.5" ry="2.5" style="stroke:#181818;stroke-width:0.5;" width="81" x="396.5" y="700.8516"/><text fill="#000000" font-family="sans-serif" font-size="14" lengthAdjust="spacing" textLength="56" x="409" y="720.8467">認証基盤</text><text fill="#000000" font-family="sans-serif" font-size="14" lengthAdjust="spacing" textLength="67" x="403.5" y="737.1436">(Cognito)</text><rect fill="#FFFFFF" height="543.125" style="stroke:#181818;stroke-width:1.0;" width="10" x="239" y="149.7266"/><rect fill="#FFFFFF" height="14" style="stroke:#181818;stroke-width:1.0;" width="10" x="432" y="499.1875"/><polygon fill="#181818" points="227,145.7266,237,149.7266,227,153.7266,231,149.7266" style="stroke:#181818;stroke-width:1.0;"/><line style="stroke:#181818;stroke-width:1.0;" x1="29" x2="233" y1="149.7266" y2="149.7266"/><text fill="#000000" font-family="sans-serif" font-size="13" lengthAdjust="spacing" textLength="89" x="36" y="144.6606">HOME画面表示</text><rect fill="#ADFF2F" height="23" style="stroke:#181818;stroke-width:0.5;" width="138" x="254" y="162.7266"/><text fill="#000000" font-family="sans-serif" font-size="13" lengthAdjust="spacing" textLength="130" x="258" y="178.7935">ログインフローを参照</text><polygon fill="#181818" points="227,207.9922,237,211.9922,227,215.9922,231,211.9922" style="stroke:#181818;stroke-width:1.0;"/><line style="stroke:#181818;stroke-width:1.0;" x1="29" x2="233" y1="211.9922" y2="211.9922"/><text fill="#000000" font-family="sans-serif" font-size="13" lengthAdjust="spacing" textLength="117" x="36" y="206.9263">ユーザアイコン押下</text><line style="stroke:#181818;stroke-width:1.0;" x1="249" x2="291" y1="241.125" y2="241.125"/><line style="stroke:#181818;stroke-width:1.0;" x1="291" x2="291" y1="241.125" y2="254.125"/><line style="stroke:#181818;stroke-width:1.0;" x1="250" x2="291" y1="254.125" y2="254.125"/><polygon fill="#181818" points="260,250.125,250,254.125,260,258.125,256,254.125" style="stroke:#181818;stroke-width:1.0;"/><text fill="#000000" font-family="sans-serif" font-size="13" lengthAdjust="spacing" textLength="130" x="256" y="236.0591">ユーザメニューを表示</text><polygon fill="#181818" points="227,279.2578,237,283.2578,227,287.2578,231,283.2578" style="stroke:#181818;stroke-width:1.0;"/><line style="stroke:#181818;stroke-width:1.0;" x1="29" x2="233" y1="283.2578" y2="283.2578"/><text fill="#000000" font-family="sans-serif" font-size="13" lengthAdjust="spacing" textLength="143" x="36" y="278.1919">セキュリティ確認を押下</text><line style="stroke:#181818;stroke-width:1.0;" x1="249" x2="291" y1="312.3906" y2="312.3906"/><line style="stroke:#181818;stroke-width:1.0;" x1="291" x2="291" y1="312.3906" y2="325.3906"/><line style="stroke:#181818;stroke-width:1.0;" x1="250" x2="291" y1="325.3906" y2="325.3906"/><polygon fill="#181818" points="260,321.3906,250,325.3906,260,329.3906,256,325.3906" style="stroke:#181818;stroke-width:1.0;"/><text fill="#000000" font-family="sans-serif" font-size="13" lengthAdjust="spacing" textLength="169" x="256" y="307.3247">セキュリティ設定画面を表示</text><polygon fill="#181818" points="227,350.5234,237,354.5234,227,358.5234,231,354.5234" style="stroke:#181818;stroke-width:1.0;"/><line style="stroke:#181818;stroke-width:1.0;" x1="29" x2="233" y1="354.5234" y2="354.5234"/><text fill="#000000" font-family="sans-serif" font-size="13" lengthAdjust="spacing" textLength="130" x="36" y="349.4575">パスワード変更を押下</text><line style="stroke:#181818;stroke-width:1.0;" x1="249" x2="291" y1="383.6563" y2="383.6563"/><line style="stroke:#181818;stroke-width:1.0;" x1="291" x2="291" y1="383.6563" y2="396.6563"/><line style="stroke:#181818;stroke-width:1.0;" x1="250" x2="291" y1="396.6563" y2="396.6563"/><polygon fill="#181818" points="260,392.6563,250,396.6563,260,400.6563,256,396.6563" style="stroke:#181818;stroke-width:1.0;"/><text fill="#000000" font-family="sans-serif" font-size="13" lengthAdjust="spacing" textLength="156" x="256" y="378.5903">パスワード変更画面を表示</text><polygon fill="#181818" points="227,436.9219,237,440.9219,227,444.9219,231,440.9219" style="stroke:#181818;stroke-width:1.0;"/><line style="stroke:#181818;stroke-width:1.0;" x1="29" x2="233" y1="440.9219" y2="440.9219"/><text fill="#000000" font-family="sans-serif" font-size="13" lengthAdjust="spacing" textLength="52" x="36" y="420.7231">ユーザ名</text><text fill="#000000" font-family="sans-serif" font-size="13" lengthAdjust="spacing" textLength="186" x="36" y="435.856">旧パスワード/新パスワード入力</text><polygon fill="#181818" points="227,466.0547,237,470.0547,227,474.0547,231,470.0547" style="stroke:#181818;stroke-width:1.0;"/><line style="stroke:#181818;stroke-width:1.0;" x1="29" x2="233" y1="470.0547" y2="470.0547"/><text fill="#000000" font-family="sans-serif" font-size="13" lengthAdjust="spacing" textLength="117" x="36" y="464.9888">パスワード変更押下</text><polygon fill="#181818" points="420,495.1875,430,499.1875,420,503.1875,424,499.1875" style="stroke:#181818;stroke-width:1.0;"/><line style="stroke:#181818;stroke-width:1.0;" x1="249" x2="426" y1="499.1875" y2="499.1875"/><text fill="#000000" font-family="sans-serif" font-size="13" lengthAdjust="spacing" textLength="137" x="256" y="494.1216">パスワード変更API打鍵</text><polygon fill="#181818" points="260,509.1875,250,513.1875,260,517.1875,256,513.1875" style="stroke:#181818;stroke-width:1.0;"/><line style="stroke:#181818;stroke-width:1.0;stroke-dasharray:2.0,2.0;" x1="254" x2="436" y1="513.1875" y2="513.1875"/><line style="stroke:#181818;stroke-width:1.0;" x1="249" x2="291" y1="542.3203" y2="542.3203"/><line style="stroke:#181818;stroke-width:1.0;" x1="291" x2="291" y1="542.3203" y2="555.3203"/><line style="stroke:#181818;stroke-width:1.0;" x1="250" x2="291" y1="555.3203" y2="555.3203"/><polygon fill="#181818" points="260,551.3203,250,555.3203,260,559.3203,256,555.3203" style="stroke:#181818;stroke-width:1.0;"/><text fill="#000000" font-family="sans-serif" font-size="13" lengthAdjust="spacing" textLength="78" x="256" y="537.2544">トークン削除</text><line style="stroke:#181818;stroke-width:1.0;" x1="249" x2="291" y1="599.5859" y2="599.5859"/><line style="stroke:#181818;stroke-width:1.0;" x1="291" x2="291" y1="599.5859" y2="612.5859"/><line style="stroke:#181818;stroke-width:1.0;" x1="250" x2="291" y1="612.5859" y2="612.5859"/><polygon fill="#181818" points="260,608.5859,250,612.5859,260,616.5859,256,612.5859" style="stroke:#181818;stroke-width:1.0;"/><text fill="#000000" font-family="sans-serif" font-size="13" lengthAdjust="spacing" textLength="169" x="256" y="579.3872">パスワード変更完了画面表示</text><text fill="#000000" font-family="sans-serif" font-size="13" lengthAdjust="spacing" textLength="62" x="256" y="594.52">(モーダル)</text><polygon fill="#181818" points="227,637.7188,237,641.7188,227,645.7188,231,641.7188" style="stroke:#181818;stroke-width:1.0;"/><line style="stroke:#181818;stroke-width:1.0;" x1="29" x2="233" y1="641.7188" y2="641.7188"/><text fill="#000000" font-family="sans-serif" font-size="13" lengthAdjust="spacing" textLength="44" x="36" y="636.6528">OK押下</text><line style="stroke:#181818;stroke-width:1.0;" x1="249" x2="291" y1="670.8516" y2="670.8516"/><line style="stroke:#181818;stroke-width:1.0;" x1="291" x2="291" y1="670.8516" y2="683.8516"/><line style="stroke:#181818;stroke-width:1.0;" x1="250" x2="291" y1="683.8516" y2="683.8516"/><polygon fill="#181818" points="260,679.8516,250,683.8516,260,687.8516,256,683.8516" style="stroke:#181818;stroke-width:1.0;"/><text fill="#000000" font-family="sans-serif" font-size="13" lengthAdjust="spacing" textLength="104" x="256" y="665.7856">ログイン画面表示</text><!--SRC=[ZLBRIW916BwVfnZgeYAMxYE2YAY8gDkW6x6f5cHNrgrkSmOZBUbSr5QIhNd23AmeatgOtztLjsXctKvgujmDynt-_vjFb_K0mS0EWBu2AmAh08jQPjGs7X7gmq2JG8j0F_Y3TN_Xl6UHpw-h6ku1TYV0zBa7-q9uBKGq5FHfkkoNWpv5v- -Snh90JI71Ii2sdNpHlimlAltpun1-Xt02maNNzHgOCU3AB95rsK_-2jLoyLgcOYNAZc5oyhYweiYwsi3x6nU4X3-MHZq1F3WuZAVcPYUSuxVwLR9sat7CCj8KLITOarTMTQmkVq5x9pL2b0KI2AWR2FC3h03qGGmkfZuHLx7deRL7dKWQ4MK92w5cos7ydOWR6j-Rqqjsh59zsK4Ug3sStG3R0PPg-7ZJjihJDw055vO3jWNqracMUJYSqi6aXLJB5CH7ki5qSclNYCvMxHXT-7WfMFlnHSK-IpV93Dcd3ytAaPGLCxeSkMLUhpAy8lzHnkQdxUXHFVxqnHgHf6-Q9BNVVTlTWkkKh6YiVcvsdP1rlrijR_qkAYyviAIBsGIM7sZTT6wcqpVyrFUtwYS0]--></g></svg>