<?xml version="1.0" encoding="UTF-8" standalone="no"?><svg xmlns="http://www.w3.org/2000/svg" xmlns:xlink="http://www.w3.org/1999/xlink" contentStyleType="text/css" height="767px" preserveAspectRatio="none" style="width:483px;height:767px;background:#FFFFFF;" version="1.1" viewBox="0 0 483 767" width="483px" zoomAndPan="magnify"><defs/><g><text fill="#000000" font-family="sans-serif" font-size="14" font-weight="bold" lengthAdjust="spacing" textLength="105" x="188.25" y="27.9951">パスワード変更</text><rect fill="#FFFFFF" height="527.9922" style="stroke:#181818;stroke-width:1.0;" width="10" x="239" y="149.7266"/><rect fill="#FFFFFF" height="14" style="stroke:#181818;stroke-width:1.0;" width="10" x="432" y="499.1875"/><line style="stroke:#181818;stroke-width:0.5;stroke-dasharray:5.0,5.0;" x1="29" x2="29" y1="118.5938" y2="686.7188"/><line style="stroke:#181818;stroke-width:0.5;stroke-dasharray:5.0,5.0;" x1="243.5" x2="243.5" y1="118.5938" y2="686.7188"/><line style="stroke:#181818;stroke-width:0.5;stroke-dasharray:5.0,5.0;" x1="436.5" x2="436.5" y1="118.5938" y2="686.7188"/><text fill="#000000" font-family="sans-serif" font-size="14" lengthAdjust="spacing" textLength="42" x="5" y="115.292">ユーザ</text><ellipse cx="29" cy="50.7969" fill="#E2E2F0" rx="8" ry="8" style="stroke:#181818;stroke-width:0.5;"/><path d="M29,58.7969 L29,85.7969 M16,66.7969 L42,66.7969 M29,85.7969 L16,100.7969 M29,85.7969 L42,100.7969 " fill="none" style="stroke:#181818;stroke-width:0.5;"/><text fill="#000000" font-family="sans-serif" font-size="14" lengthAdjust="spacing" textLength="42" x="5" y="698.7139">ユーザ</text><ellipse cx="29" cy="710.5156" fill="#E2E2F0" rx="8" ry="8" style="stroke:#181818;stroke-width:0.5;"/><path d="M29,718.5156 L29,745.5156 M16,726.5156 L42,726.5156 M29,745.5156 L16,760.5156 M29,745.5156 L42,760.5156 " fill="none" style="stroke:#181818;stroke-width:0.5;"/><rect fill="#E2E2F0" height="46.5938" rx="2.5" ry="2.5" style="stroke:#181818;stroke-width:0.5;" width="127" x="180.5" y="71"/><text fill="#000000" font-family="sans-serif" font-size="14" lengthAdjust="spacing" textLength="112" x="188" y="90.9951">クライアント端末</text><text fill="#000000" font-family="sans-serif" font-size="14" lengthAdjust="spacing" textLength="113" x="187.5" y="107.292">(PCまたはスマホ)</text><rect fill="#E2E2F0" height="46.5938" rx="2.5" ry="2.5" style="stroke:#181818;stroke-width:0.5;" width="127" x="180.5" y="685.7188"/><text fill="#000000" font-family="sans-serif" font-size="14" lengthAdjust="spacing" textLength="112" x="188" y="705.7139">クライアント端末</text><text fill="#000000" font-family="sans-serif" font-size="14" lengthAdjust="spacing" textLength="113" x="187.5" y="722.0107">(PCまたはスマホ)</text><rect fill="#E2E2F0" height="46.5938" rx="2.5" ry="2.5" style="stroke:#181818;stroke-width:0.5;" width="81" x="396.5" y="71"/><text fill="#000000" font-family="sans-serif" font-size="14" lengthAdjust="spacing" textLength="56" x="409" y="90.9951">認証基盤</text><text fill="#000000" font-family="sans-serif" font-size="14" lengthAdjust="spacing" textLength="67" x="403.5" y="107.292">(Cognito)</text><rect fill="#E2E2F0" height="46.5938" rx="2.5" ry="2.5" style="stroke:#181818;stroke-width:0.5;" width="81" x="396.5" y="685.7188"/><text fill="#000000" font-family="sans-serif" font-size="14" lengthAdjust="spacing" textLength="56" x="409" y="705.7139">認証基盤</text><text fill="#000000" font-family="sans-serif" font-size="14" lengthAdjust="spacing" textLength="67" x="403.5" y="722.0107">(Cognito)</text><rect fill="#FFFFFF" height="527.9922" style="stroke:#181818;stroke-width:1.0;" width="10" x="239" y="149.7266"/><rect fill="#FFFFFF" height="14" style="stroke:#181818;stroke-width:1.0;" width="10" x="432" y="499.1875"/><polygon fill="#181818" points="227,145.7266,237,149.7266,227,153.7266,231,149.7266" style="stroke:#181818;stroke-width:1.0;"/><line style="stroke:#181818;stroke-width:1.0;" x1="29" x2="233" y1="149.7266" y2="149.7266"/><text fill="#000000" font-family="sans-serif" font-size="13" lengthAdjust="spacing" textLength="89" x="36" y="144.6606">HOME画面表示</text><rect fill="#ADFF2F" height="23" style="stroke:#181818;stroke-width:0.5;" width="138" x="254" y="162.7266"/><text fill="#000000" font-family="sans-serif" font-size="13" lengthAdjust="spacing" textLength="130" x="258" y="178.7935">ログインフローを参照</text><polygon fill="#181818" points="227,207.9922,237,211.9922,227,215.9922,231,211.9922" style="stroke:#181818;stroke-width:1.0;"/><line style="stroke:#181818;stroke-width:1.0;" x1="29" x2="233" y1="211.9922" y2="211.9922"/><text fill="#000000" font-family="sans-serif" font-size="13" lengthAdjust="spacing" textLength="117" x="36" y="206.9263">ユーザアイコン押下</text><line style="stroke:#181818;stroke-width:1.0;" x1="249" x2="291" y1="241.125" y2="241.125"/><line style="stroke:#181818;stroke-width:1.0;" x1="291" x2="291" y1="241.125" y2="254.125"/><line style="stroke:#181818;stroke-width:1.0;" x1="250" x2="291" y1="254.125" y2="254.125"/><polygon fill="#181818" points="260,250.125,250,254.125,260,258.125,256,254.125" style="stroke:#181818;stroke-width:1.0;"/><text fill="#000000" font-family="sans-serif" font-size="13" lengthAdjust="spacing" textLength="130" x="256" y="236.0591">ユーザメニューを表示</text><polygon fill="#181818" points="227,279.2578,237,283.2578,227,287.2578,231,283.2578" style="stroke:#181818;stroke-width:1.0;"/><line style="stroke:#181818;stroke-width:1.0;" x1="29" x2="233" y1="283.2578" y2="283.2578"/><text fill="#000000" font-family="sans-serif" font-size="13" lengthAdjust="spacing" textLength="143" x="36" y="278.1919">セキュリティ確認を押下</text><line style="stroke:#181818;stroke-width:1.0;" x1="249" x2="291" y1="312.3906" y2="312.3906"/><line style="stroke:#181818;stroke-width:1.0;" x1="291" x2="291" y1="312.3906" y2="325.3906"/><line style="stroke:#181818;stroke-width:1.0;" x1="250" x2="291" y1="325.3906" y2="325.3906"/><polygon fill="#181818" points="260,321.3906,250,325.3906,260,329.3906,256,325.3906" style="stroke:#181818;stroke-width:1.0;"/><text fill="#000000" font-family="sans-serif" font-size="13" lengthAdjust="spacing" textLength="169" x="256" y="307.3247">セキュリティ設定画面を表示</text><polygon fill="#181818" points="227,350.5234,237,354.5234,227,358.5234,231,354.5234" style="stroke:#181818;stroke-width:1.0;"/><line style="stroke:#181818;stroke-width:1.0;" x1="29" x2="233" y1="354.5234" y2="354.5234"/><text fill="#000000" font-family="sans-serif" font-size="13" lengthAdjust="spacing" textLength="130" x="36" y="349.4575">パスワード変更を押下</text><line style="stroke:#181818;stroke-width:1.0;" x1="249" x2="291" y1="383.6563" y2="383.6563"/><line style="stroke:#181818;stroke-width:1.0;" x1="291" x2="291" y1="383.6563" y2="396.6563"/><line style="stroke:#181818;stroke-width:1.0;" x1="250" x2="291" y1="396.6563" y2="396.6563"/><polygon fill="#181818" points="260,392.6563,250,396.6563,260,400.6563,256,396.6563" style="stroke:#181818;stroke-width:1.0;"/><text fill="#000000" font-family="sans-serif" font-size="13" lengthAdjust="spacing" textLength="156" x="256" y="378.5903">パスワード変更画面を表示</text><polygon fill="#181818" points="227,436.9219,237,440.9219,227,444.9219,231,440.9219" style="stroke:#181818;stroke-width:1.0;"/><line style="stroke:#181818;stroke-width:1.0;" x1="29" x2="233" y1="440.9219" y2="440.9219"/><text fill="#000000" font-family="sans-serif" font-size="13" lengthAdjust="spacing" textLength="52" x="36" y="420.7231">ユーザ名</text><text fill="#000000" font-family="sans-serif" font-size="13" lengthAdjust="spacing" textLength="186" x="36" y="435.856">旧パスワード/新パスワード入力</text><polygon fill="#181818" points="227,466.0547,237,470.0547,227,474.0547,231,470.0547" style="stroke:#181818;stroke-width:1.0;"/><line style="stroke:#181818;stroke-width:1.0;" x1="29" x2="233" y1="470.0547" y2="470.0547"/><text fill="#000000" font-family="sans-serif" font-size="13" lengthAdjust="spacing" textLength="117" x="36" y="464.9888">パスワード変更押下</text><polygon fill="#181818" points="420,495.1875,430,499.1875,420,503.1875,424,499.1875" style="stroke:#181818;stroke-width:1.0;"/><line style="stroke:#181818;stroke-width:1.0;" x1="249" x2="426" y1="499.1875" y2="499.1875"/><text fill="#000000" font-family="sans-serif" font-size="13" lengthAdjust="spacing" textLength="137" x="256" y="494.1216">パスワード変更API打鍵</text><polygon fill="#181818" points="260,509.1875,250,513.1875,260,517.1875,256,513.1875" style="stroke:#181818;stroke-width:1.0;"/><line style="stroke:#181818;stroke-width:1.0;stroke-dasharray:2.0,2.0;" x1="254" x2="436" y1="513.1875" y2="513.1875"/><line style="stroke:#181818;stroke-width:1.0;" x1="249" x2="291" y1="542.3203" y2="542.3203"/><line style="stroke:#181818;stroke-width:1.0;" x1="291" x2="291" y1="542.3203" y2="555.3203"/><line style="stroke:#181818;stroke-width:1.0;" x1="250" x2="291" y1="555.3203" y2="555.3203"/><polygon fill="#181818" points="260,551.3203,250,555.3203,260,559.3203,256,555.3203" style="stroke:#181818;stroke-width:1.0;"/><text fill="#000000" font-family="sans-serif" font-size="13" lengthAdjust="spacing" textLength="169" x="256" y="537.2544">パスワード変更完了画面表示</text><polygon fill="#181818" points="227,580.4531,237,584.4531,227,588.4531,231,584.4531" style="stroke:#181818;stroke-width:1.0;"/><line style="stroke:#181818;stroke-width:1.0;" x1="29" x2="233" y1="584.4531" y2="584.4531"/><text fill="#000000" font-family="sans-serif" font-size="13" lengthAdjust="spacing" textLength="78" x="36" y="579.3872">確認完了押下</text><line style="stroke:#181818;stroke-width:1.0;" x1="249" x2="291" y1="613.5859" y2="613.5859"/><line style="stroke:#181818;stroke-width:1.0;" x1="291" x2="291" y1="613.5859" y2="626.5859"/><line style="stroke:#181818;stroke-width:1.0;" x1="250" x2="291" y1="626.5859" y2="626.5859"/><polygon fill="#181818" points="260,622.5859,250,626.5859,260,630.5859,256,626.5859" style="stroke:#181818;stroke-width:1.0;"/><text fill="#000000" font-family="sans-serif" font-size="13" lengthAdjust="spacing" textLength="78" x="256" y="608.52">トークン削除</text><line style="stroke:#181818;stroke-width:1.0;" x1="249" x2="291" y1="655.7188" y2="655.7188"/><line style="stroke:#181818;stroke-width:1.0;" x1="291" x2="291" y1="655.7188" y2="668.7188"/><line style="stroke:#181818;stroke-width:1.0;" x1="250" x2="291" y1="668.7188" y2="668.7188"/><polygon fill="#181818" points="260,664.7188,250,668.7188,260,672.7188,256,668.7188" style="stroke:#181818;stroke-width:1.0;"/><text fill="#000000" font-family="sans-serif" font-size="13" lengthAdjust="spacing" textLength="104" x="256" y="650.6528">ログイン画面表示</text><!--SRC=[ZL9DIm916BxFhnZgK25BzuWW8gf3v3Nm8ZhLWkpAjjNP6OhKfE-Yh4JRoWfJiA9CwiUyxQx-YsPsLykFnBaDytozpxowh4S81hOFz1rO4LWLMDmqubRw6Q4X33G7j0ZqYp-OJ-VsvpqAXdHLmmF0RWMOlWxWu2fUMoKQYWOrNGx9qQ2YytTEO_T03I71oi2sxSUYTV4OK8RzKn3xX5W6OaN7zGfOUiIH2PDrEKHQXMeFgLg-QcOgTjhWv2brMP5rrSM7t0j2mXzB4vu0zld6yEp2_BHzz56_pDMoUTke84rHTO8rUNb5n-fI0peuen6YB998HDr0c1zW1Q0b4LoaFXPNCUU1kKljpJj4b30MGksMOxZPY5CQdvlJorQY-lsMH1weEvnbWIM1tRW-NjfEUVe1jE307e1j0RssSnLU3gVqCEaWrV85yP5ECRtSkcr4RwjkZ3vyl1RClLH0iKxlscH6hPDIk_BcZPb8zncv8w-tCdn5_gDC-kUi-64zzT9WZKjIaoP9VSzkFkryLxPQLh0Zi_k5Bh9NjTjEILo-RCOJzJEZE-ftSV-w_W00]--></g></svg>